%TF.GenerationSoftware,KiCad,Pcbnew,(5.1.10)-1*%
%TF.CreationDate,2021-11-06T19:36:26-04:00*%
%TF.ProjectId,MicroMod_Extension,4d696372-6f4d-46f6-945f-457874656e73,rev?*%
%TF.SameCoordinates,Original*%
%TF.FileFunction,Copper,L3,Inr*%
%TF.FilePolarity,Positive*%
%FSLAX46Y46*%
G04 Gerber Fmt 4.6, Leading zero omitted, Abs format (unit mm)*
G04 Created by KiCad (PCBNEW (5.1.10)-1) date 2021-11-06 19:36:26*
%MOMM*%
%LPD*%
G01*
G04 APERTURE LIST*
%TA.AperFunction,ComponentPad*%
%ADD10C,4.000000*%
%TD*%
%TA.AperFunction,ComponentPad*%
%ADD11C,0.600000*%
%TD*%
%TA.AperFunction,ComponentPad*%
%ADD12O,1.600000X1.000000*%
%TD*%
%TA.AperFunction,ComponentPad*%
%ADD13O,2.100000X1.000000*%
%TD*%
%TA.AperFunction,ViaPad*%
%ADD14C,0.508000*%
%TD*%
%TA.AperFunction,Conductor*%
%ADD15C,0.203200*%
%TD*%
%TA.AperFunction,Conductor*%
%ADD16C,0.127000*%
%TD*%
%TA.AperFunction,Conductor*%
%ADD17C,0.200000*%
%TD*%
%TA.AperFunction,Conductor*%
%ADD18C,0.100000*%
%TD*%
G04 APERTURE END LIST*
D10*
%TO.N,GND*%
%TO.C,TP7*%
X160020000Y-78740000D03*
%TD*%
%TO.N,GND*%
%TO.C,TP6*%
X160020000Y-48260000D03*
%TD*%
%TO.N,GND*%
%TO.C,TP5*%
X129540000Y-78740000D03*
%TD*%
%TO.N,GND*%
%TO.C,TP4*%
X129540000Y-48260000D03*
%TD*%
D11*
%TO.N,GND*%
%TO.C,U4*%
X131310000Y-60579000D03*
X130310000Y-60579000D03*
%TD*%
D12*
%TO.N,GND*%
%TO.C,J2*%
X128338000Y-64768000D03*
X128338000Y-73408000D03*
D13*
X132518000Y-64768000D03*
X132518000Y-73408000D03*
%TD*%
D14*
%TO.N,GND*%
X140716000Y-54991000D03*
X141478000Y-54991000D03*
X143129000Y-54991000D03*
X143891000Y-54991000D03*
X144653000Y-54991000D03*
X140589000Y-58039000D03*
X141351000Y-58039000D03*
X142113000Y-58039000D03*
X142875000Y-58039000D03*
X139827000Y-58039000D03*
X158242000Y-73914000D03*
X163449000Y-65278000D03*
X162687000Y-65278000D03*
X163449000Y-72390000D03*
X162687000Y-72390000D03*
X161925000Y-72390000D03*
X158242000Y-71628000D03*
X158242000Y-70739000D03*
X158242000Y-69850000D03*
X158242000Y-67818000D03*
X157480000Y-66040000D03*
X158242000Y-66929000D03*
X158242000Y-66040000D03*
X155448000Y-69723000D03*
X154813000Y-70358000D03*
X154178000Y-70993000D03*
X153543000Y-69215000D03*
X153035000Y-67945000D03*
X154178000Y-68580000D03*
X154813000Y-67945000D03*
X154305000Y-66675000D03*
X153670000Y-67310000D03*
X155448000Y-67310000D03*
X156083000Y-66675000D03*
X154940000Y-66040000D03*
X158369000Y-64389000D03*
X158623000Y-62357000D03*
X159258000Y-61722000D03*
X159004000Y-63754000D03*
X159639000Y-63119000D03*
X156718000Y-64262000D03*
X157988000Y-62992000D03*
X157353000Y-63627000D03*
X156718000Y-66040000D03*
X127000000Y-57150000D03*
X127000000Y-56388000D03*
X127000000Y-57912000D03*
X127000000Y-55626000D03*
X126238000Y-56388000D03*
X126238000Y-57150000D03*
X126238000Y-57912000D03*
X126238000Y-55626000D03*
X132334000Y-53848000D03*
X135128000Y-57404000D03*
X151003000Y-69977000D03*
X148082000Y-67564000D03*
X141351000Y-75184000D03*
X141351000Y-73406000D03*
X139573000Y-75184000D03*
X139573000Y-73406000D03*
X139573000Y-71755000D03*
X141351000Y-71755000D03*
X154813000Y-53594000D03*
X157988000Y-50419000D03*
X136017000Y-47752000D03*
X152273000Y-50800000D03*
X154178000Y-50419000D03*
X129286000Y-68834000D03*
X148844000Y-50419000D03*
X148082000Y-64897000D03*
X159512000Y-73914000D03*
X161544000Y-61849000D03*
X161544000Y-61214000D03*
X152400000Y-72136000D03*
X151892000Y-67691000D03*
X161925000Y-65278000D03*
X142367000Y-66421000D03*
X144145000Y-64897000D03*
X138176000Y-61341000D03*
X140843000Y-60706000D03*
X144272000Y-62611000D03*
X146558000Y-59944000D03*
X160147000Y-53086000D03*
X147828000Y-46609000D03*
X136779000Y-55753000D03*
X140208000Y-46609000D03*
X138684000Y-45593000D03*
X154686000Y-57785000D03*
X150749000Y-57785000D03*
X137287000Y-77470000D03*
X139319000Y-81026000D03*
X146431000Y-82042000D03*
X142875000Y-82042000D03*
X148463000Y-78486000D03*
X154051000Y-62865000D03*
X129667000Y-66675000D03*
X129540000Y-61849000D03*
X131572000Y-62230000D03*
X133223000Y-61849000D03*
X127254000Y-59309000D03*
X127254000Y-60071000D03*
X140843000Y-52578000D03*
X138176000Y-51943000D03*
X145034000Y-54483000D03*
X146558000Y-52959000D03*
X149987000Y-51308000D03*
X157353000Y-71755000D03*
X150368000Y-71755000D03*
X146812000Y-71628000D03*
X146304000Y-74422000D03*
X144653000Y-71628000D03*
X146685000Y-67564000D03*
X139827000Y-66421000D03*
X145796000Y-65151000D03*
X143510000Y-72009000D03*
%TO.N,/VCC*%
X141097000Y-50165000D03*
X135382000Y-46228000D03*
X154432000Y-46228000D03*
X151384000Y-58420000D03*
X155448000Y-58039000D03*
X145669000Y-58420000D03*
X162941000Y-50927000D03*
X162941000Y-53340000D03*
%TO.N,/MOTOR4*%
X137922000Y-57531000D03*
X129159000Y-58547000D03*
%TO.N,/MOTOR3*%
X138176000Y-50165000D03*
X129159000Y-57658000D03*
%TO.N,/RED_L*%
X132969000Y-51054000D03*
%TO.N,/GREEN_L*%
X134366000Y-51054000D03*
%TO.N,/E_RX1*%
X150495000Y-64897000D03*
X148844000Y-64897000D03*
%TO.N,/E_SDA*%
X155067000Y-61087000D03*
X149352000Y-61087000D03*
%TO.N,/E_SCL*%
X155829000Y-60579000D03*
X148971000Y-60325000D03*
%TO.N,/E_SPI_MISO*%
X160147000Y-55753000D03*
X148590000Y-56769000D03*
%TO.N,/INT_GYR*%
X147955000Y-53086000D03*
%TO.N,/E_SPI_MOSI*%
X160147000Y-54864000D03*
X147955000Y-54610000D03*
%TO.N,/B4*%
X160147000Y-54102000D03*
X148717000Y-54610000D03*
%TO.N,/RED_R*%
X154813000Y-51816000D03*
X150368000Y-55118000D03*
%TO.N,/MOTOR2*%
X150622000Y-47498000D03*
X129159000Y-56896000D03*
%TO.N,/GREEN_R*%
X156591000Y-51816000D03*
X151384000Y-55118000D03*
%TO.N,/NRF_CTRL*%
X146812000Y-77597000D03*
X151384000Y-63881000D03*
%TO.N,/MOTOR1*%
X152400000Y-55118000D03*
X129159000Y-56007000D03*
%TO.N,/IMU_SCL*%
X149987000Y-52832000D03*
X153035000Y-51816000D03*
%TO.N,/IMU_SDA*%
X152527000Y-46990000D03*
%TO.N,/OTG_FS_D-*%
X131826000Y-70104000D03*
X153670000Y-54991000D03*
%TO.N,/OTG_FS_D+*%
X131826000Y-69215000D03*
X154432000Y-54991000D03*
%TO.N,/NRF_TX*%
X137541000Y-68961000D03*
X152527000Y-63881000D03*
%TO.N,/NRF_RX*%
X136271000Y-68961000D03*
X152019000Y-63246000D03*
%TO.N,Net-(J2-PadA5)*%
X131826000Y-70866000D03*
%TO.N,Net-(J2-PadB5)*%
X131826000Y-68326000D03*
%TO.N,/NRF_SWCLK*%
X150368000Y-78359000D03*
%TO.N,/NRF_SWIO*%
X149606000Y-78359000D03*
%TO.N,/VCC_NRF*%
X136017000Y-77597000D03*
X136525000Y-70485000D03*
X137668000Y-45593000D03*
X151257000Y-78486000D03*
X141859000Y-52324000D03*
X143129000Y-52324000D03*
X142494000Y-52324000D03*
X145796000Y-67437000D03*
X144145000Y-70231000D03*
%TO.N,BATT*%
X126619000Y-51943000D03*
X127381000Y-51943000D03*
X126619000Y-51181000D03*
X127381000Y-51181000D03*
X128143000Y-51181000D03*
X128143000Y-53467000D03*
X128143000Y-52705000D03*
X128143000Y-51943000D03*
X129540000Y-63373000D03*
X130048000Y-64135000D03*
X130683000Y-64135000D03*
%TO.N,Net-(C17-Pad2)*%
X146177000Y-73533000D03*
%TO.N,Net-(C18-Pad2)*%
X135128000Y-62103000D03*
%TO.N,VBUS*%
X153162000Y-54356000D03*
X136017000Y-67183000D03*
X134239000Y-66802000D03*
%TO.N,/STM_BOOT0*%
X139573000Y-69342000D03*
%TO.N,/STM_NRST*%
X139192000Y-58674000D03*
X139192000Y-50165000D03*
X140335000Y-69342000D03*
%TO.N,/E_SPI_SCK*%
X160147000Y-56515000D03*
X149352000Y-56769000D03*
%TO.N,/VEN_D*%
X138176000Y-62230000D03*
X138049000Y-77470000D03*
%TO.N,Net-(R13-Pad2)*%
X147320000Y-73533000D03*
%TO.N,/SWITCH*%
X143637000Y-78486000D03*
X143637000Y-76073000D03*
%TO.N,/PM_PGOOD*%
X130683000Y-73660000D03*
X128143000Y-63373000D03*
X134620000Y-74041000D03*
X129540000Y-59436000D03*
%TO.N,/NRF_TX2*%
X138557000Y-78232000D03*
%TO.N,/NRF_RX2*%
X139319000Y-78232000D03*
%TD*%
D15*
%TO.N,/VCC*%
X162941000Y-50927000D02*
X162941000Y-53340000D01*
D16*
%TO.N,/RED_R*%
X150368000Y-55118000D02*
X150946572Y-54539428D01*
X151567428Y-54539428D02*
X153681265Y-52425590D01*
X150946572Y-54539428D02*
X151567428Y-54539428D01*
X153681265Y-52425590D02*
X154330410Y-52425590D01*
X154330410Y-52425590D02*
X154813000Y-51943000D01*
X154813000Y-51943000D02*
X154813000Y-51816000D01*
%TO.N,/GREEN_R*%
X151384000Y-55118000D02*
X153797000Y-52705000D01*
X153797000Y-52705000D02*
X155829000Y-52705000D01*
X155829000Y-52705000D02*
X156591000Y-51943000D01*
X156591000Y-51943000D02*
X156591000Y-51816000D01*
%TO.N,/NRF_CTRL*%
X146812000Y-77597000D02*
X148336000Y-76073000D01*
X148336000Y-76073000D02*
X148336000Y-69850000D01*
X151384000Y-66802000D02*
X151384000Y-63881000D01*
X148336000Y-69850000D02*
X151384000Y-66802000D01*
%TO.N,/MOTOR1*%
X129412999Y-56260999D02*
X151257001Y-56260999D01*
X129159000Y-56007000D02*
X129412999Y-56260999D01*
X151257001Y-56260999D02*
X152400000Y-55118000D01*
%TO.N,/OTG_FS_D-*%
X131170486Y-69448486D02*
X131826000Y-70104000D01*
X130517900Y-68795900D02*
X131170486Y-69448486D01*
X131122612Y-67525900D02*
X130517900Y-68130612D01*
X134297612Y-67525900D02*
X131122612Y-67525900D01*
X138234612Y-63588900D02*
X134297612Y-67525900D01*
X148394612Y-63588900D02*
X138234612Y-63588900D01*
X130517900Y-68130612D02*
X130517900Y-68795900D01*
X153670000Y-54991000D02*
X153885900Y-55206900D01*
X153885900Y-55206900D02*
X153885900Y-58097612D01*
X153885900Y-58097612D02*
X148394612Y-63588900D01*
%TO.N,/OTG_FS_D+*%
X130848100Y-68659126D02*
X131403974Y-69215000D01*
X138371388Y-63919100D02*
X134434388Y-67856100D01*
X154216100Y-55206900D02*
X154216100Y-58234388D01*
X154216100Y-58234388D02*
X148531388Y-63919100D01*
X134434388Y-67856100D02*
X131259388Y-67856100D01*
X148531388Y-63919100D02*
X138371388Y-63919100D01*
X131259388Y-67856100D02*
X130848100Y-68267388D01*
X131403974Y-69215000D02*
X131826000Y-69215000D01*
X154432000Y-54991000D02*
X154216100Y-55206900D01*
X130848100Y-68267388D02*
X130848100Y-68659126D01*
%TO.N,VBUS*%
X134239000Y-66802000D02*
X134620000Y-66802000D01*
X137928368Y-63500000D02*
X138118877Y-63309490D01*
X137922000Y-63500000D02*
X137928368Y-63500000D01*
X134620000Y-66802000D02*
X137922000Y-63500000D01*
X138118877Y-63309490D02*
X148278878Y-63309490D01*
X148278878Y-63309490D02*
X149926684Y-61661684D01*
X149926684Y-61661684D02*
X152212684Y-59375684D01*
X153073099Y-58515269D02*
X153073099Y-54444901D01*
X152212684Y-59375684D02*
X153073099Y-58515269D01*
X153073099Y-54444901D02*
X153162000Y-54356000D01*
%TO.N,/SWITCH*%
X143637000Y-76073000D02*
X143637000Y-78486000D01*
%TO.N,/PM_PGOOD*%
X134239000Y-74422000D02*
X134620000Y-74041000D01*
X131445000Y-74422000D02*
X134239000Y-74422000D01*
X130683000Y-73660000D02*
X131445000Y-74422000D01*
X129540000Y-59436000D02*
X129070099Y-59905901D01*
X129070099Y-59905901D02*
X129070099Y-62064901D01*
X129070099Y-62064901D02*
X128143000Y-62992000D01*
X128143000Y-62992000D02*
X128143000Y-63373000D01*
%TD*%
D17*
%TO.N,GND*%
X160711280Y-44768786D02*
X161376230Y-44969545D01*
X161989518Y-45295636D01*
X162527789Y-45734639D01*
X162970541Y-46269834D01*
X163300906Y-46880833D01*
X163506305Y-47544368D01*
X163580773Y-48252881D01*
X163580800Y-48260742D01*
X163580801Y-65559000D01*
X158623000Y-65559000D01*
X158603491Y-65560921D01*
X158584732Y-65566612D01*
X158567443Y-65575853D01*
X158552289Y-65588289D01*
X158539853Y-65603443D01*
X158530612Y-65620732D01*
X158524921Y-65639491D01*
X158523000Y-65659000D01*
X158523000Y-72009000D01*
X158524921Y-72028509D01*
X158530612Y-72047268D01*
X158539853Y-72064557D01*
X158552289Y-72079711D01*
X158567443Y-72092147D01*
X158584732Y-72101388D01*
X158603491Y-72107079D01*
X158623000Y-72109000D01*
X163580801Y-72109000D01*
X163580801Y-78721586D01*
X163511214Y-79431281D01*
X163310455Y-80096230D01*
X162984364Y-80709517D01*
X162545358Y-81247791D01*
X162010166Y-81690541D01*
X161399166Y-82020907D01*
X160735633Y-82226305D01*
X160027119Y-82300773D01*
X160019259Y-82300800D01*
X145289505Y-82300800D01*
X145251177Y-82208268D01*
X145177307Y-82097713D01*
X145083287Y-82003693D01*
X144972732Y-81929823D01*
X144849890Y-81878940D01*
X144719482Y-81853000D01*
X144586518Y-81853000D01*
X144456110Y-81878940D01*
X144333268Y-81929823D01*
X144222713Y-82003693D01*
X144128693Y-82097713D01*
X144054823Y-82208268D01*
X144016495Y-82300800D01*
X129558404Y-82300800D01*
X128848719Y-82231214D01*
X128183770Y-82030455D01*
X127570483Y-81704364D01*
X127032209Y-81265358D01*
X126589459Y-80730166D01*
X126369278Y-80322949D01*
X127960586Y-80322949D01*
X128183575Y-80611211D01*
X128574694Y-80839882D01*
X129002909Y-80987854D01*
X129451764Y-81049444D01*
X129904009Y-81022283D01*
X130342266Y-80907415D01*
X130749692Y-80709253D01*
X130896425Y-80611211D01*
X131119414Y-80322949D01*
X129540000Y-78743536D01*
X127960586Y-80322949D01*
X126369278Y-80322949D01*
X126259093Y-80119166D01*
X126053695Y-79455633D01*
X125979227Y-78747119D01*
X125979200Y-78739259D01*
X125979200Y-78651764D01*
X127230556Y-78651764D01*
X127257717Y-79104009D01*
X127372585Y-79542266D01*
X127570747Y-79949692D01*
X127668789Y-80096425D01*
X127957051Y-80319414D01*
X129536464Y-78740000D01*
X129543536Y-78740000D01*
X131122949Y-80319414D01*
X131411211Y-80096425D01*
X131636250Y-79711518D01*
X143978000Y-79711518D01*
X143978000Y-79844482D01*
X144003940Y-79974890D01*
X144054823Y-80097732D01*
X144128693Y-80208287D01*
X144222713Y-80302307D01*
X144333268Y-80376177D01*
X144456110Y-80427060D01*
X144586518Y-80453000D01*
X144719482Y-80453000D01*
X144849890Y-80427060D01*
X144972732Y-80376177D01*
X145052393Y-80322949D01*
X158440586Y-80322949D01*
X158663575Y-80611211D01*
X159054694Y-80839882D01*
X159482909Y-80987854D01*
X159931764Y-81049444D01*
X160384009Y-81022283D01*
X160822266Y-80907415D01*
X161229692Y-80709253D01*
X161376425Y-80611211D01*
X161599414Y-80322949D01*
X160020000Y-78743536D01*
X158440586Y-80322949D01*
X145052393Y-80322949D01*
X145083287Y-80302307D01*
X145177307Y-80208287D01*
X145251177Y-80097732D01*
X145302060Y-79974890D01*
X145328000Y-79844482D01*
X145328000Y-79711518D01*
X145302060Y-79581110D01*
X145251177Y-79458268D01*
X145177307Y-79347713D01*
X145083287Y-79253693D01*
X144972732Y-79179823D01*
X144849890Y-79128940D01*
X144719482Y-79103000D01*
X144586518Y-79103000D01*
X144456110Y-79128940D01*
X144333268Y-79179823D01*
X144222713Y-79253693D01*
X144128693Y-79347713D01*
X144054823Y-79458268D01*
X144003940Y-79581110D01*
X143978000Y-79711518D01*
X131636250Y-79711518D01*
X131639882Y-79705306D01*
X131787854Y-79277091D01*
X131849444Y-78828236D01*
X131822283Y-78375991D01*
X131707415Y-77937734D01*
X131515152Y-77542436D01*
X135463000Y-77542436D01*
X135463000Y-77651564D01*
X135484289Y-77758596D01*
X135526051Y-77859418D01*
X135586680Y-77950155D01*
X135663845Y-78027320D01*
X135754582Y-78087949D01*
X135855404Y-78129711D01*
X135962436Y-78151000D01*
X136071564Y-78151000D01*
X136178596Y-78129711D01*
X136279418Y-78087949D01*
X136370155Y-78027320D01*
X136447320Y-77950155D01*
X136507949Y-77859418D01*
X136549711Y-77758596D01*
X136571000Y-77651564D01*
X136571000Y-77542436D01*
X136549711Y-77435404D01*
X136541440Y-77415436D01*
X137495000Y-77415436D01*
X137495000Y-77524564D01*
X137516289Y-77631596D01*
X137558051Y-77732418D01*
X137618680Y-77823155D01*
X137695845Y-77900320D01*
X137786582Y-77960949D01*
X137887404Y-78002711D01*
X137994436Y-78024000D01*
X138043510Y-78024000D01*
X138024289Y-78070404D01*
X138003000Y-78177436D01*
X138003000Y-78286564D01*
X138024289Y-78393596D01*
X138066051Y-78494418D01*
X138126680Y-78585155D01*
X138203845Y-78662320D01*
X138294582Y-78722949D01*
X138395404Y-78764711D01*
X138502436Y-78786000D01*
X138611564Y-78786000D01*
X138718596Y-78764711D01*
X138819418Y-78722949D01*
X138910155Y-78662320D01*
X138938000Y-78634475D01*
X138965845Y-78662320D01*
X139056582Y-78722949D01*
X139157404Y-78764711D01*
X139264436Y-78786000D01*
X139373564Y-78786000D01*
X139480596Y-78764711D01*
X139581418Y-78722949D01*
X139672155Y-78662320D01*
X139749320Y-78585155D01*
X139809949Y-78494418D01*
X139851711Y-78393596D01*
X139873000Y-78286564D01*
X139873000Y-78177436D01*
X139851711Y-78070404D01*
X139809949Y-77969582D01*
X139749320Y-77878845D01*
X139672155Y-77801680D01*
X139581418Y-77741051D01*
X139480596Y-77699289D01*
X139373564Y-77678000D01*
X139264436Y-77678000D01*
X139157404Y-77699289D01*
X139056582Y-77741051D01*
X138965845Y-77801680D01*
X138938000Y-77829525D01*
X138910155Y-77801680D01*
X138819418Y-77741051D01*
X138718596Y-77699289D01*
X138611564Y-77678000D01*
X138562490Y-77678000D01*
X138581711Y-77631596D01*
X138603000Y-77524564D01*
X138603000Y-77415436D01*
X138581711Y-77308404D01*
X138539949Y-77207582D01*
X138479320Y-77116845D01*
X138402155Y-77039680D01*
X138311418Y-76979051D01*
X138210596Y-76937289D01*
X138103564Y-76916000D01*
X137994436Y-76916000D01*
X137887404Y-76937289D01*
X137786582Y-76979051D01*
X137695845Y-77039680D01*
X137618680Y-77116845D01*
X137558051Y-77207582D01*
X137516289Y-77308404D01*
X137495000Y-77415436D01*
X136541440Y-77415436D01*
X136507949Y-77334582D01*
X136447320Y-77243845D01*
X136370155Y-77166680D01*
X136279418Y-77106051D01*
X136178596Y-77064289D01*
X136071564Y-77043000D01*
X135962436Y-77043000D01*
X135855404Y-77064289D01*
X135754582Y-77106051D01*
X135663845Y-77166680D01*
X135586680Y-77243845D01*
X135526051Y-77334582D01*
X135484289Y-77435404D01*
X135463000Y-77542436D01*
X131515152Y-77542436D01*
X131509253Y-77530308D01*
X131411211Y-77383575D01*
X131122949Y-77160586D01*
X129543536Y-78740000D01*
X129536464Y-78740000D01*
X127957051Y-77160586D01*
X127668789Y-77383575D01*
X127440118Y-77774694D01*
X127292146Y-78202909D01*
X127230556Y-78651764D01*
X125979200Y-78651764D01*
X125979200Y-77157051D01*
X127960586Y-77157051D01*
X129540000Y-78736464D01*
X131119414Y-77157051D01*
X130896425Y-76868789D01*
X130505306Y-76640118D01*
X130077091Y-76492146D01*
X129628236Y-76430556D01*
X129175991Y-76457717D01*
X128737734Y-76572585D01*
X128330308Y-76770747D01*
X128183575Y-76868789D01*
X127960586Y-77157051D01*
X125979200Y-77157051D01*
X125979200Y-76018436D01*
X143083000Y-76018436D01*
X143083000Y-76127564D01*
X143104289Y-76234596D01*
X143146051Y-76335418D01*
X143206680Y-76426155D01*
X143273500Y-76492975D01*
X143273501Y-78066024D01*
X143206680Y-78132845D01*
X143146051Y-78223582D01*
X143104289Y-78324404D01*
X143083000Y-78431436D01*
X143083000Y-78540564D01*
X143104289Y-78647596D01*
X143146051Y-78748418D01*
X143206680Y-78839155D01*
X143283845Y-78916320D01*
X143374582Y-78976949D01*
X143475404Y-79018711D01*
X143582436Y-79040000D01*
X143691564Y-79040000D01*
X143798596Y-79018711D01*
X143899418Y-78976949D01*
X143990155Y-78916320D01*
X144067320Y-78839155D01*
X144127949Y-78748418D01*
X144169711Y-78647596D01*
X144191000Y-78540564D01*
X144191000Y-78431436D01*
X144169711Y-78324404D01*
X144161440Y-78304436D01*
X149052000Y-78304436D01*
X149052000Y-78413564D01*
X149073289Y-78520596D01*
X149115051Y-78621418D01*
X149175680Y-78712155D01*
X149252845Y-78789320D01*
X149343582Y-78849949D01*
X149444404Y-78891711D01*
X149551436Y-78913000D01*
X149660564Y-78913000D01*
X149767596Y-78891711D01*
X149868418Y-78849949D01*
X149959155Y-78789320D01*
X149987000Y-78761475D01*
X150014845Y-78789320D01*
X150105582Y-78849949D01*
X150206404Y-78891711D01*
X150313436Y-78913000D01*
X150422564Y-78913000D01*
X150529596Y-78891711D01*
X150630418Y-78849949D01*
X150721155Y-78789320D01*
X150764881Y-78745594D01*
X150766051Y-78748418D01*
X150826680Y-78839155D01*
X150903845Y-78916320D01*
X150994582Y-78976949D01*
X151095404Y-79018711D01*
X151202436Y-79040000D01*
X151311564Y-79040000D01*
X151418596Y-79018711D01*
X151519418Y-78976949D01*
X151610155Y-78916320D01*
X151687320Y-78839155D01*
X151747949Y-78748418D01*
X151787984Y-78651764D01*
X157710556Y-78651764D01*
X157737717Y-79104009D01*
X157852585Y-79542266D01*
X158050747Y-79949692D01*
X158148789Y-80096425D01*
X158437051Y-80319414D01*
X160016464Y-78740000D01*
X160023536Y-78740000D01*
X161602949Y-80319414D01*
X161891211Y-80096425D01*
X162119882Y-79705306D01*
X162267854Y-79277091D01*
X162329444Y-78828236D01*
X162302283Y-78375991D01*
X162187415Y-77937734D01*
X161989253Y-77530308D01*
X161891211Y-77383575D01*
X161602949Y-77160586D01*
X160023536Y-78740000D01*
X160016464Y-78740000D01*
X158437051Y-77160586D01*
X158148789Y-77383575D01*
X157920118Y-77774694D01*
X157772146Y-78202909D01*
X157710556Y-78651764D01*
X151787984Y-78651764D01*
X151789711Y-78647596D01*
X151811000Y-78540564D01*
X151811000Y-78431436D01*
X151789711Y-78324404D01*
X151747949Y-78223582D01*
X151687320Y-78132845D01*
X151610155Y-78055680D01*
X151519418Y-77995051D01*
X151418596Y-77953289D01*
X151311564Y-77932000D01*
X151202436Y-77932000D01*
X151095404Y-77953289D01*
X150994582Y-77995051D01*
X150903845Y-78055680D01*
X150860119Y-78099406D01*
X150858949Y-78096582D01*
X150798320Y-78005845D01*
X150721155Y-77928680D01*
X150630418Y-77868051D01*
X150529596Y-77826289D01*
X150422564Y-77805000D01*
X150313436Y-77805000D01*
X150206404Y-77826289D01*
X150105582Y-77868051D01*
X150014845Y-77928680D01*
X149987000Y-77956525D01*
X149959155Y-77928680D01*
X149868418Y-77868051D01*
X149767596Y-77826289D01*
X149660564Y-77805000D01*
X149551436Y-77805000D01*
X149444404Y-77826289D01*
X149343582Y-77868051D01*
X149252845Y-77928680D01*
X149175680Y-78005845D01*
X149115051Y-78096582D01*
X149073289Y-78197404D01*
X149052000Y-78304436D01*
X144161440Y-78304436D01*
X144127949Y-78223582D01*
X144067320Y-78132845D01*
X144000500Y-78066025D01*
X144000500Y-77542436D01*
X146258000Y-77542436D01*
X146258000Y-77651564D01*
X146279289Y-77758596D01*
X146321051Y-77859418D01*
X146381680Y-77950155D01*
X146458845Y-78027320D01*
X146549582Y-78087949D01*
X146650404Y-78129711D01*
X146757436Y-78151000D01*
X146866564Y-78151000D01*
X146973596Y-78129711D01*
X147074418Y-78087949D01*
X147165155Y-78027320D01*
X147242320Y-77950155D01*
X147302949Y-77859418D01*
X147344711Y-77758596D01*
X147366000Y-77651564D01*
X147366000Y-77557066D01*
X147766015Y-77157051D01*
X158440586Y-77157051D01*
X160020000Y-78736464D01*
X161599414Y-77157051D01*
X161376425Y-76868789D01*
X160985306Y-76640118D01*
X160557091Y-76492146D01*
X160108236Y-76430556D01*
X159655991Y-76457717D01*
X159217734Y-76572585D01*
X158810308Y-76770747D01*
X158663575Y-76868789D01*
X158440586Y-77157051D01*
X147766015Y-77157051D01*
X148580417Y-76342649D01*
X148594275Y-76331276D01*
X148605650Y-76317416D01*
X148605654Y-76317412D01*
X148639700Y-76275928D01*
X148673453Y-76212779D01*
X148673454Y-76212778D01*
X148694240Y-76144258D01*
X148699500Y-76090850D01*
X148699500Y-76090841D01*
X148701257Y-76073001D01*
X148699500Y-76055161D01*
X148699500Y-75732511D01*
X148772861Y-75909620D01*
X148969849Y-76204433D01*
X149220567Y-76455151D01*
X149515380Y-76652139D01*
X149842959Y-76787827D01*
X150190716Y-76857000D01*
X150545284Y-76857000D01*
X150893041Y-76787827D01*
X151220620Y-76652139D01*
X151515433Y-76455151D01*
X151766151Y-76204433D01*
X151963139Y-75909620D01*
X152098827Y-75582041D01*
X152168000Y-75234284D01*
X152168000Y-74879716D01*
X152098827Y-74531959D01*
X151963139Y-74204380D01*
X151766151Y-73909567D01*
X151515433Y-73658849D01*
X151220620Y-73461861D01*
X150893041Y-73326173D01*
X150545284Y-73257000D01*
X150190716Y-73257000D01*
X149842959Y-73326173D01*
X149515380Y-73461861D01*
X149220567Y-73658849D01*
X148969849Y-73909567D01*
X148772861Y-74204380D01*
X148699500Y-74381489D01*
X148699500Y-70000566D01*
X151628422Y-67071645D01*
X151642275Y-67060276D01*
X151653645Y-67046422D01*
X151653655Y-67046412D01*
X151687700Y-67004927D01*
X151687702Y-67004925D01*
X151721454Y-66941778D01*
X151742240Y-66873258D01*
X151747500Y-66819850D01*
X151747500Y-66819840D01*
X151749257Y-66802000D01*
X151747500Y-66784160D01*
X151747500Y-64300975D01*
X151814320Y-64234155D01*
X151874949Y-64143418D01*
X151916711Y-64042596D01*
X151938000Y-63935564D01*
X151938000Y-63826436D01*
X151931436Y-63793436D01*
X151964436Y-63800000D01*
X151978258Y-63800000D01*
X151973000Y-63826436D01*
X151973000Y-63935564D01*
X151994289Y-64042596D01*
X152036051Y-64143418D01*
X152096680Y-64234155D01*
X152173845Y-64311320D01*
X152264582Y-64371949D01*
X152365404Y-64413711D01*
X152472436Y-64435000D01*
X152581564Y-64435000D01*
X152688596Y-64413711D01*
X152789418Y-64371949D01*
X152880155Y-64311320D01*
X152957320Y-64234155D01*
X153017949Y-64143418D01*
X153059711Y-64042596D01*
X153081000Y-63935564D01*
X153081000Y-63826436D01*
X153059711Y-63719404D01*
X153017949Y-63618582D01*
X152957320Y-63527845D01*
X152880155Y-63450680D01*
X152789418Y-63390051D01*
X152688596Y-63348289D01*
X152581564Y-63327000D01*
X152567742Y-63327000D01*
X152573000Y-63300564D01*
X152573000Y-63191436D01*
X152551711Y-63084404D01*
X152509949Y-62983582D01*
X152449320Y-62892845D01*
X152372155Y-62815680D01*
X152281418Y-62755051D01*
X152180596Y-62713289D01*
X152073564Y-62692000D01*
X151964436Y-62692000D01*
X151857404Y-62713289D01*
X151756582Y-62755051D01*
X151665845Y-62815680D01*
X151588680Y-62892845D01*
X151528051Y-62983582D01*
X151486289Y-63084404D01*
X151465000Y-63191436D01*
X151465000Y-63300564D01*
X151471564Y-63333564D01*
X151438564Y-63327000D01*
X151329436Y-63327000D01*
X151222404Y-63348289D01*
X151121582Y-63390051D01*
X151030845Y-63450680D01*
X150953680Y-63527845D01*
X150893051Y-63618582D01*
X150851289Y-63719404D01*
X150830000Y-63826436D01*
X150830000Y-63935564D01*
X150851289Y-64042596D01*
X150893051Y-64143418D01*
X150953680Y-64234155D01*
X151020501Y-64300976D01*
X151020501Y-64717997D01*
X150985949Y-64634582D01*
X150925320Y-64543845D01*
X150848155Y-64466680D01*
X150757418Y-64406051D01*
X150656596Y-64364289D01*
X150549564Y-64343000D01*
X150440436Y-64343000D01*
X150333404Y-64364289D01*
X150232582Y-64406051D01*
X150141845Y-64466680D01*
X150064680Y-64543845D01*
X150004051Y-64634582D01*
X149962289Y-64735404D01*
X149941000Y-64842436D01*
X149941000Y-64951564D01*
X149962289Y-65058596D01*
X150004051Y-65159418D01*
X150064680Y-65250155D01*
X150141845Y-65327320D01*
X150232582Y-65387949D01*
X150333404Y-65429711D01*
X150440436Y-65451000D01*
X150549564Y-65451000D01*
X150656596Y-65429711D01*
X150757418Y-65387949D01*
X150848155Y-65327320D01*
X150925320Y-65250155D01*
X150985949Y-65159418D01*
X151020501Y-65076003D01*
X151020500Y-66651433D01*
X148091583Y-69580351D01*
X148077725Y-69591724D01*
X148066352Y-69605582D01*
X148066345Y-69605589D01*
X148032300Y-69647074D01*
X147998547Y-69710222D01*
X147977761Y-69778742D01*
X147970743Y-69850000D01*
X147972501Y-69867850D01*
X147972500Y-75922434D01*
X146851934Y-77043000D01*
X146757436Y-77043000D01*
X146650404Y-77064289D01*
X146549582Y-77106051D01*
X146458845Y-77166680D01*
X146381680Y-77243845D01*
X146321051Y-77334582D01*
X146279289Y-77435404D01*
X146258000Y-77542436D01*
X144000500Y-77542436D01*
X144000500Y-76492975D01*
X144067320Y-76426155D01*
X144127949Y-76335418D01*
X144169711Y-76234596D01*
X144191000Y-76127564D01*
X144191000Y-76018436D01*
X144169711Y-75911404D01*
X144127949Y-75810582D01*
X144067320Y-75719845D01*
X143990155Y-75642680D01*
X143899418Y-75582051D01*
X143798596Y-75540289D01*
X143691564Y-75519000D01*
X143582436Y-75519000D01*
X143475404Y-75540289D01*
X143374582Y-75582051D01*
X143283845Y-75642680D01*
X143206680Y-75719845D01*
X143146051Y-75810582D01*
X143104289Y-75911404D01*
X143083000Y-76018436D01*
X125979200Y-76018436D01*
X125979200Y-73535616D01*
X127248244Y-73535616D01*
X127252885Y-73561621D01*
X127297941Y-73711837D01*
X127371437Y-73850377D01*
X127470548Y-73971917D01*
X127591466Y-74071786D01*
X127729544Y-74146146D01*
X127879476Y-74192140D01*
X128035500Y-74208000D01*
X128335500Y-74208000D01*
X128335500Y-73410500D01*
X128340500Y-73410500D01*
X128340500Y-74208000D01*
X128640500Y-74208000D01*
X128796524Y-74192140D01*
X128946456Y-74146146D01*
X129084534Y-74071786D01*
X129205452Y-73971917D01*
X129304563Y-73850377D01*
X129378059Y-73711837D01*
X129409973Y-73605436D01*
X130129000Y-73605436D01*
X130129000Y-73714564D01*
X130150289Y-73821596D01*
X130192051Y-73922418D01*
X130252680Y-74013155D01*
X130329845Y-74090320D01*
X130420582Y-74150949D01*
X130521404Y-74192711D01*
X130628436Y-74214000D01*
X130722934Y-74214000D01*
X131175350Y-74666417D01*
X131186724Y-74680276D01*
X131200582Y-74691649D01*
X131200588Y-74691655D01*
X131242073Y-74725701D01*
X131305220Y-74759453D01*
X131305222Y-74759454D01*
X131373742Y-74780240D01*
X131427150Y-74785500D01*
X131427160Y-74785500D01*
X131445000Y-74787257D01*
X131462840Y-74785500D01*
X134221160Y-74785500D01*
X134239000Y-74787257D01*
X134256840Y-74785500D01*
X134256850Y-74785500D01*
X134310258Y-74780240D01*
X134378778Y-74759454D01*
X134441926Y-74725701D01*
X134497276Y-74680276D01*
X134508654Y-74666412D01*
X134580066Y-74595000D01*
X134674564Y-74595000D01*
X134781596Y-74573711D01*
X134882418Y-74531949D01*
X134973155Y-74471320D01*
X135050320Y-74394155D01*
X135110949Y-74303418D01*
X135152711Y-74202596D01*
X135174000Y-74095564D01*
X135174000Y-73986436D01*
X135152711Y-73879404D01*
X135110949Y-73778582D01*
X135050320Y-73687845D01*
X134973155Y-73610680D01*
X134882418Y-73550051D01*
X134781596Y-73508289D01*
X134674564Y-73487000D01*
X134565436Y-73487000D01*
X134458404Y-73508289D01*
X134357582Y-73550051D01*
X134266845Y-73610680D01*
X134189680Y-73687845D01*
X134129051Y-73778582D01*
X134087289Y-73879404D01*
X134066000Y-73986436D01*
X134066000Y-74058500D01*
X133530620Y-74058500D01*
X133635452Y-73971917D01*
X133734563Y-73850377D01*
X133808059Y-73711837D01*
X133853115Y-73561621D01*
X133857756Y-73535616D01*
X133828160Y-73478436D01*
X145623000Y-73478436D01*
X145623000Y-73587564D01*
X145644289Y-73694596D01*
X145686051Y-73795418D01*
X145746680Y-73886155D01*
X145823845Y-73963320D01*
X145914582Y-74023949D01*
X146015404Y-74065711D01*
X146122436Y-74087000D01*
X146231564Y-74087000D01*
X146338596Y-74065711D01*
X146439418Y-74023949D01*
X146530155Y-73963320D01*
X146607320Y-73886155D01*
X146667949Y-73795418D01*
X146709711Y-73694596D01*
X146731000Y-73587564D01*
X146731000Y-73478436D01*
X146766000Y-73478436D01*
X146766000Y-73587564D01*
X146787289Y-73694596D01*
X146829051Y-73795418D01*
X146889680Y-73886155D01*
X146966845Y-73963320D01*
X147057582Y-74023949D01*
X147158404Y-74065711D01*
X147265436Y-74087000D01*
X147374564Y-74087000D01*
X147481596Y-74065711D01*
X147582418Y-74023949D01*
X147673155Y-73963320D01*
X147750320Y-73886155D01*
X147810949Y-73795418D01*
X147852711Y-73694596D01*
X147874000Y-73587564D01*
X147874000Y-73478436D01*
X147852711Y-73371404D01*
X147810949Y-73270582D01*
X147750320Y-73179845D01*
X147673155Y-73102680D01*
X147582418Y-73042051D01*
X147481596Y-73000289D01*
X147374564Y-72979000D01*
X147265436Y-72979000D01*
X147158404Y-73000289D01*
X147057582Y-73042051D01*
X146966845Y-73102680D01*
X146889680Y-73179845D01*
X146829051Y-73270582D01*
X146787289Y-73371404D01*
X146766000Y-73478436D01*
X146731000Y-73478436D01*
X146709711Y-73371404D01*
X146667949Y-73270582D01*
X146607320Y-73179845D01*
X146530155Y-73102680D01*
X146439418Y-73042051D01*
X146338596Y-73000289D01*
X146231564Y-72979000D01*
X146122436Y-72979000D01*
X146015404Y-73000289D01*
X145914582Y-73042051D01*
X145823845Y-73102680D01*
X145746680Y-73179845D01*
X145686051Y-73270582D01*
X145644289Y-73371404D01*
X145623000Y-73478436D01*
X133828160Y-73478436D01*
X133792996Y-73410500D01*
X132520500Y-73410500D01*
X132520500Y-73430500D01*
X132515500Y-73430500D01*
X132515500Y-73410500D01*
X132495500Y-73410500D01*
X132495500Y-73405500D01*
X132515500Y-73405500D01*
X132515500Y-72608000D01*
X132520500Y-72608000D01*
X132520500Y-73405500D01*
X133792996Y-73405500D01*
X133857756Y-73280384D01*
X133853115Y-73254379D01*
X133808059Y-73104163D01*
X133734563Y-72965623D01*
X133635452Y-72844083D01*
X133514534Y-72744214D01*
X133376456Y-72669854D01*
X133226524Y-72623860D01*
X133070500Y-72608000D01*
X132520500Y-72608000D01*
X132515500Y-72608000D01*
X131965500Y-72608000D01*
X131809476Y-72623860D01*
X131659544Y-72669854D01*
X131521466Y-72744214D01*
X131400548Y-72844083D01*
X131301437Y-72965623D01*
X131227941Y-73104163D01*
X131182885Y-73254379D01*
X131178244Y-73280384D01*
X131243003Y-73405498D01*
X131177228Y-73405498D01*
X131173949Y-73397582D01*
X131113320Y-73306845D01*
X131036155Y-73229680D01*
X130945418Y-73169051D01*
X130844596Y-73127289D01*
X130737564Y-73106000D01*
X130628436Y-73106000D01*
X130521404Y-73127289D01*
X130420582Y-73169051D01*
X130329845Y-73229680D01*
X130252680Y-73306845D01*
X130192051Y-73397582D01*
X130150289Y-73498404D01*
X130129000Y-73605436D01*
X129409973Y-73605436D01*
X129423115Y-73561621D01*
X129427756Y-73535616D01*
X129362996Y-73410500D01*
X128340500Y-73410500D01*
X128335500Y-73410500D01*
X127313004Y-73410500D01*
X127248244Y-73535616D01*
X125979200Y-73535616D01*
X125979200Y-73280384D01*
X127248244Y-73280384D01*
X127313004Y-73405500D01*
X128335500Y-73405500D01*
X128335500Y-72608000D01*
X128340500Y-72608000D01*
X128340500Y-73405500D01*
X129362996Y-73405500D01*
X129427756Y-73280384D01*
X129423115Y-73254379D01*
X129378059Y-73104163D01*
X129304563Y-72965623D01*
X129205452Y-72844083D01*
X129084534Y-72744214D01*
X128946456Y-72669854D01*
X128796524Y-72623860D01*
X128640500Y-72608000D01*
X128340500Y-72608000D01*
X128335500Y-72608000D01*
X128035500Y-72608000D01*
X127879476Y-72623860D01*
X127729544Y-72669854D01*
X127591466Y-72744214D01*
X127470548Y-72844083D01*
X127371437Y-72965623D01*
X127297941Y-73104163D01*
X127252885Y-73254379D01*
X127248244Y-73280384D01*
X125979200Y-73280384D01*
X125979200Y-66136443D01*
X131393000Y-66136443D01*
X131393000Y-66259557D01*
X131417019Y-66380306D01*
X131464132Y-66494048D01*
X131532531Y-66596414D01*
X131619586Y-66683469D01*
X131721952Y-66751868D01*
X131835694Y-66798981D01*
X131956443Y-66823000D01*
X132079557Y-66823000D01*
X132200306Y-66798981D01*
X132314048Y-66751868D01*
X132416414Y-66683469D01*
X132503469Y-66596414D01*
X132571868Y-66494048D01*
X132618981Y-66380306D01*
X132643000Y-66259557D01*
X132643000Y-66136443D01*
X132618981Y-66015694D01*
X132571868Y-65901952D01*
X132503469Y-65799586D01*
X132416414Y-65712531D01*
X132314048Y-65644132D01*
X132200306Y-65597019D01*
X132079557Y-65573000D01*
X131956443Y-65573000D01*
X131835694Y-65597019D01*
X131721952Y-65644132D01*
X131619586Y-65712531D01*
X131532531Y-65799586D01*
X131464132Y-65901952D01*
X131417019Y-66015694D01*
X131393000Y-66136443D01*
X125979200Y-66136443D01*
X125979200Y-64895616D01*
X127248244Y-64895616D01*
X127252885Y-64921621D01*
X127297941Y-65071837D01*
X127371437Y-65210377D01*
X127470548Y-65331917D01*
X127591466Y-65431786D01*
X127729544Y-65506146D01*
X127879476Y-65552140D01*
X128035500Y-65568000D01*
X128335500Y-65568000D01*
X128335500Y-64770500D01*
X128340500Y-64770500D01*
X128340500Y-65568000D01*
X128640500Y-65568000D01*
X128796524Y-65552140D01*
X128946456Y-65506146D01*
X129084534Y-65431786D01*
X129205452Y-65331917D01*
X129304563Y-65210377D01*
X129378059Y-65071837D01*
X129423115Y-64921621D01*
X129427756Y-64895616D01*
X131178244Y-64895616D01*
X131182885Y-64921621D01*
X131227941Y-65071837D01*
X131301437Y-65210377D01*
X131400548Y-65331917D01*
X131521466Y-65431786D01*
X131659544Y-65506146D01*
X131809476Y-65552140D01*
X131965500Y-65568000D01*
X132515500Y-65568000D01*
X132515500Y-64770500D01*
X132520500Y-64770500D01*
X132520500Y-65568000D01*
X133070500Y-65568000D01*
X133226524Y-65552140D01*
X133376456Y-65506146D01*
X133514534Y-65431786D01*
X133635452Y-65331917D01*
X133734563Y-65210377D01*
X133808059Y-65071837D01*
X133853115Y-64921621D01*
X133857756Y-64895616D01*
X133792996Y-64770500D01*
X132520500Y-64770500D01*
X132515500Y-64770500D01*
X131243004Y-64770500D01*
X131178244Y-64895616D01*
X129427756Y-64895616D01*
X129362996Y-64770500D01*
X128340500Y-64770500D01*
X128335500Y-64770500D01*
X127313004Y-64770500D01*
X127248244Y-64895616D01*
X125979200Y-64895616D01*
X125979200Y-64640384D01*
X127248244Y-64640384D01*
X127313004Y-64765500D01*
X128335500Y-64765500D01*
X128335500Y-63968000D01*
X128340500Y-63968000D01*
X128340500Y-64765500D01*
X129362996Y-64765500D01*
X129427756Y-64640384D01*
X129423115Y-64614379D01*
X129378059Y-64464163D01*
X129304563Y-64325623D01*
X129205452Y-64204083D01*
X129084534Y-64104214D01*
X128946456Y-64029854D01*
X128796524Y-63983860D01*
X128640500Y-63968000D01*
X128340500Y-63968000D01*
X128335500Y-63968000D01*
X128035500Y-63968000D01*
X127879476Y-63983860D01*
X127729544Y-64029854D01*
X127591466Y-64104214D01*
X127470548Y-64204083D01*
X127371437Y-64325623D01*
X127297941Y-64464163D01*
X127252885Y-64614379D01*
X127248244Y-64640384D01*
X125979200Y-64640384D01*
X125979200Y-63318436D01*
X127589000Y-63318436D01*
X127589000Y-63427564D01*
X127610289Y-63534596D01*
X127652051Y-63635418D01*
X127712680Y-63726155D01*
X127789845Y-63803320D01*
X127880582Y-63863949D01*
X127981404Y-63905711D01*
X128088436Y-63927000D01*
X128197564Y-63927000D01*
X128304596Y-63905711D01*
X128405418Y-63863949D01*
X128496155Y-63803320D01*
X128573320Y-63726155D01*
X128633949Y-63635418D01*
X128675711Y-63534596D01*
X128697000Y-63427564D01*
X128697000Y-63318436D01*
X128986000Y-63318436D01*
X128986000Y-63427564D01*
X129007289Y-63534596D01*
X129049051Y-63635418D01*
X129109680Y-63726155D01*
X129186845Y-63803320D01*
X129277582Y-63863949D01*
X129378404Y-63905711D01*
X129485436Y-63927000D01*
X129534510Y-63927000D01*
X129515289Y-63973404D01*
X129494000Y-64080436D01*
X129494000Y-64189564D01*
X129515289Y-64296596D01*
X129557051Y-64397418D01*
X129617680Y-64488155D01*
X129694845Y-64565320D01*
X129785582Y-64625949D01*
X129886404Y-64667711D01*
X129993436Y-64689000D01*
X130102564Y-64689000D01*
X130209596Y-64667711D01*
X130310418Y-64625949D01*
X130365500Y-64589144D01*
X130420582Y-64625949D01*
X130521404Y-64667711D01*
X130628436Y-64689000D01*
X130737564Y-64689000D01*
X130844596Y-64667711D01*
X130910568Y-64640384D01*
X131178244Y-64640384D01*
X131243004Y-64765500D01*
X132515500Y-64765500D01*
X132515500Y-63968000D01*
X132520500Y-63968000D01*
X132520500Y-64765500D01*
X133792996Y-64765500D01*
X133857756Y-64640384D01*
X133853115Y-64614379D01*
X133808059Y-64464163D01*
X133734563Y-64325623D01*
X133635452Y-64204083D01*
X133514534Y-64104214D01*
X133376456Y-64029854D01*
X133226524Y-63983860D01*
X133070500Y-63968000D01*
X132520500Y-63968000D01*
X132515500Y-63968000D01*
X131965500Y-63968000D01*
X131809476Y-63983860D01*
X131659544Y-64029854D01*
X131521466Y-64104214D01*
X131400548Y-64204083D01*
X131301437Y-64325623D01*
X131227941Y-64464163D01*
X131182885Y-64614379D01*
X131178244Y-64640384D01*
X130910568Y-64640384D01*
X130945418Y-64625949D01*
X131036155Y-64565320D01*
X131113320Y-64488155D01*
X131173949Y-64397418D01*
X131215711Y-64296596D01*
X131237000Y-64189564D01*
X131237000Y-64080436D01*
X131215711Y-63973404D01*
X131173949Y-63872582D01*
X131113320Y-63781845D01*
X131036155Y-63704680D01*
X130945418Y-63644051D01*
X130844596Y-63602289D01*
X130737564Y-63581000D01*
X130628436Y-63581000D01*
X130521404Y-63602289D01*
X130420582Y-63644051D01*
X130365500Y-63680856D01*
X130310418Y-63644051D01*
X130209596Y-63602289D01*
X130102564Y-63581000D01*
X130053490Y-63581000D01*
X130072711Y-63534596D01*
X130094000Y-63427564D01*
X130094000Y-63318436D01*
X130072711Y-63211404D01*
X130030949Y-63110582D01*
X129970320Y-63019845D01*
X129893155Y-62942680D01*
X129802418Y-62882051D01*
X129701596Y-62840289D01*
X129594564Y-62819000D01*
X129485436Y-62819000D01*
X129378404Y-62840289D01*
X129277582Y-62882051D01*
X129186845Y-62942680D01*
X129109680Y-63019845D01*
X129049051Y-63110582D01*
X129007289Y-63211404D01*
X128986000Y-63318436D01*
X128697000Y-63318436D01*
X128675711Y-63211404D01*
X128633949Y-63110582D01*
X128595711Y-63053355D01*
X129314516Y-62334551D01*
X129328375Y-62323177D01*
X129339748Y-62309319D01*
X129339754Y-62309313D01*
X129373799Y-62267828D01*
X129407552Y-62204680D01*
X129407553Y-62204679D01*
X129428339Y-62136159D01*
X129433599Y-62082751D01*
X129433599Y-62082741D01*
X129435356Y-62064901D01*
X129433735Y-62048436D01*
X134574000Y-62048436D01*
X134574000Y-62157564D01*
X134595289Y-62264596D01*
X134637051Y-62365418D01*
X134697680Y-62456155D01*
X134774845Y-62533320D01*
X134865582Y-62593949D01*
X134966404Y-62635711D01*
X135073436Y-62657000D01*
X135182564Y-62657000D01*
X135289596Y-62635711D01*
X135390418Y-62593949D01*
X135481155Y-62533320D01*
X135558320Y-62456155D01*
X135618949Y-62365418D01*
X135660711Y-62264596D01*
X135678445Y-62175436D01*
X137622000Y-62175436D01*
X137622000Y-62284564D01*
X137643289Y-62391596D01*
X137685051Y-62492418D01*
X137745680Y-62583155D01*
X137822845Y-62660320D01*
X137913582Y-62720949D01*
X138014404Y-62762711D01*
X138121436Y-62784000D01*
X138230564Y-62784000D01*
X138337596Y-62762711D01*
X138438418Y-62720949D01*
X138529155Y-62660320D01*
X138606320Y-62583155D01*
X138666949Y-62492418D01*
X138708711Y-62391596D01*
X138730000Y-62284564D01*
X138730000Y-62175436D01*
X138708711Y-62068404D01*
X138666949Y-61967582D01*
X138606320Y-61876845D01*
X138529155Y-61799680D01*
X138438418Y-61739051D01*
X138337596Y-61697289D01*
X138230564Y-61676000D01*
X138121436Y-61676000D01*
X138014404Y-61697289D01*
X137913582Y-61739051D01*
X137822845Y-61799680D01*
X137745680Y-61876845D01*
X137685051Y-61967582D01*
X137643289Y-62068404D01*
X137622000Y-62175436D01*
X135678445Y-62175436D01*
X135682000Y-62157564D01*
X135682000Y-62048436D01*
X135660711Y-61941404D01*
X135618949Y-61840582D01*
X135558320Y-61749845D01*
X135481155Y-61672680D01*
X135390418Y-61612051D01*
X135289596Y-61570289D01*
X135182564Y-61549000D01*
X135073436Y-61549000D01*
X134966404Y-61570289D01*
X134865582Y-61612051D01*
X134774845Y-61672680D01*
X134697680Y-61749845D01*
X134637051Y-61840582D01*
X134595289Y-61941404D01*
X134574000Y-62048436D01*
X129433735Y-62048436D01*
X129433599Y-62047061D01*
X129433599Y-60954047D01*
X129938488Y-60954047D01*
X129957648Y-61068224D01*
X130059861Y-61127564D01*
X130171686Y-61165823D01*
X130288828Y-61181531D01*
X130406782Y-61174085D01*
X130521018Y-61143769D01*
X130627144Y-61091749D01*
X130662352Y-61068224D01*
X130681512Y-60954047D01*
X130938488Y-60954047D01*
X130957648Y-61068224D01*
X131059861Y-61127564D01*
X131171686Y-61165823D01*
X131288828Y-61181531D01*
X131406782Y-61174085D01*
X131521018Y-61143769D01*
X131627144Y-61091749D01*
X131662352Y-61068224D01*
X131681512Y-60954047D01*
X131310000Y-60582536D01*
X130938488Y-60954047D01*
X130681512Y-60954047D01*
X130310000Y-60582536D01*
X129938488Y-60954047D01*
X129433599Y-60954047D01*
X129433599Y-60557828D01*
X129707469Y-60557828D01*
X129714915Y-60675782D01*
X129745231Y-60790018D01*
X129797251Y-60896144D01*
X129820776Y-60931352D01*
X129934953Y-60950512D01*
X130306464Y-60579000D01*
X130313536Y-60579000D01*
X130685047Y-60950512D01*
X130799224Y-60931352D01*
X130809244Y-60914093D01*
X130820776Y-60931352D01*
X130934953Y-60950512D01*
X131306464Y-60579000D01*
X131313536Y-60579000D01*
X131685047Y-60950512D01*
X131799224Y-60931352D01*
X131858564Y-60829139D01*
X131896823Y-60717314D01*
X131912531Y-60600172D01*
X131905085Y-60482218D01*
X131874769Y-60367982D01*
X131822749Y-60261856D01*
X131799224Y-60226648D01*
X131685047Y-60207488D01*
X131313536Y-60579000D01*
X131306464Y-60579000D01*
X130934953Y-60207488D01*
X130820776Y-60226648D01*
X130810756Y-60243907D01*
X130799224Y-60226648D01*
X130685047Y-60207488D01*
X130313536Y-60579000D01*
X130306464Y-60579000D01*
X129934953Y-60207488D01*
X129820776Y-60226648D01*
X129761436Y-60328861D01*
X129723177Y-60440686D01*
X129707469Y-60557828D01*
X129433599Y-60557828D01*
X129433599Y-60203953D01*
X129938488Y-60203953D01*
X130310000Y-60575464D01*
X130681512Y-60203953D01*
X130938488Y-60203953D01*
X131310000Y-60575464D01*
X131681512Y-60203953D01*
X131662352Y-60089776D01*
X131560139Y-60030436D01*
X131448314Y-59992177D01*
X131331172Y-59976469D01*
X131213218Y-59983915D01*
X131098982Y-60014231D01*
X130992856Y-60066251D01*
X130957648Y-60089776D01*
X130938488Y-60203953D01*
X130681512Y-60203953D01*
X130662352Y-60089776D01*
X130560139Y-60030436D01*
X130448314Y-59992177D01*
X130331172Y-59976469D01*
X130213218Y-59983915D01*
X130098982Y-60014231D01*
X129992856Y-60066251D01*
X129957648Y-60089776D01*
X129938488Y-60203953D01*
X129433599Y-60203953D01*
X129433599Y-60056467D01*
X129500066Y-59990000D01*
X129594564Y-59990000D01*
X129701596Y-59968711D01*
X129802418Y-59926949D01*
X129893155Y-59866320D01*
X129970320Y-59789155D01*
X130030949Y-59698418D01*
X130072711Y-59597596D01*
X130094000Y-59490564D01*
X130094000Y-59381436D01*
X130072711Y-59274404D01*
X130030949Y-59173582D01*
X129970320Y-59082845D01*
X129893155Y-59005680D01*
X129802418Y-58945051D01*
X129701596Y-58903289D01*
X129600643Y-58883209D01*
X129649949Y-58809418D01*
X129691711Y-58708596D01*
X129709445Y-58619436D01*
X138638000Y-58619436D01*
X138638000Y-58728564D01*
X138659289Y-58835596D01*
X138701051Y-58936418D01*
X138761680Y-59027155D01*
X138838845Y-59104320D01*
X138929582Y-59164949D01*
X139030404Y-59206711D01*
X139137436Y-59228000D01*
X139246564Y-59228000D01*
X139353596Y-59206711D01*
X139454418Y-59164949D01*
X139545155Y-59104320D01*
X139622320Y-59027155D01*
X139682949Y-58936418D01*
X139724711Y-58835596D01*
X139746000Y-58728564D01*
X139746000Y-58619436D01*
X139724711Y-58512404D01*
X139682949Y-58411582D01*
X139652115Y-58365436D01*
X145115000Y-58365436D01*
X145115000Y-58474564D01*
X145136289Y-58581596D01*
X145178051Y-58682418D01*
X145238680Y-58773155D01*
X145315845Y-58850320D01*
X145406582Y-58910949D01*
X145507404Y-58952711D01*
X145614436Y-58974000D01*
X145723564Y-58974000D01*
X145830596Y-58952711D01*
X145931418Y-58910949D01*
X146022155Y-58850320D01*
X146099320Y-58773155D01*
X146159949Y-58682418D01*
X146201711Y-58581596D01*
X146223000Y-58474564D01*
X146223000Y-58365436D01*
X150830000Y-58365436D01*
X150830000Y-58474564D01*
X150851289Y-58581596D01*
X150893051Y-58682418D01*
X150953680Y-58773155D01*
X151030845Y-58850320D01*
X151121582Y-58910949D01*
X151222404Y-58952711D01*
X151329436Y-58974000D01*
X151438564Y-58974000D01*
X151545596Y-58952711D01*
X151646418Y-58910949D01*
X151737155Y-58850320D01*
X151814320Y-58773155D01*
X151874949Y-58682418D01*
X151916711Y-58581596D01*
X151938000Y-58474564D01*
X151938000Y-58365436D01*
X151916711Y-58258404D01*
X151874949Y-58157582D01*
X151814320Y-58066845D01*
X151737155Y-57989680D01*
X151646418Y-57929051D01*
X151545596Y-57887289D01*
X151438564Y-57866000D01*
X151329436Y-57866000D01*
X151222404Y-57887289D01*
X151121582Y-57929051D01*
X151030845Y-57989680D01*
X150953680Y-58066845D01*
X150893051Y-58157582D01*
X150851289Y-58258404D01*
X150830000Y-58365436D01*
X146223000Y-58365436D01*
X146201711Y-58258404D01*
X146159949Y-58157582D01*
X146099320Y-58066845D01*
X146022155Y-57989680D01*
X145931418Y-57929051D01*
X145830596Y-57887289D01*
X145723564Y-57866000D01*
X145614436Y-57866000D01*
X145507404Y-57887289D01*
X145406582Y-57929051D01*
X145315845Y-57989680D01*
X145238680Y-58066845D01*
X145178051Y-58157582D01*
X145136289Y-58258404D01*
X145115000Y-58365436D01*
X139652115Y-58365436D01*
X139622320Y-58320845D01*
X139545155Y-58243680D01*
X139454418Y-58183051D01*
X139353596Y-58141289D01*
X139246564Y-58120000D01*
X139137436Y-58120000D01*
X139030404Y-58141289D01*
X138929582Y-58183051D01*
X138838845Y-58243680D01*
X138761680Y-58320845D01*
X138701051Y-58411582D01*
X138659289Y-58512404D01*
X138638000Y-58619436D01*
X129709445Y-58619436D01*
X129713000Y-58601564D01*
X129713000Y-58492436D01*
X129691711Y-58385404D01*
X129649949Y-58284582D01*
X129589320Y-58193845D01*
X129512155Y-58116680D01*
X129490933Y-58102500D01*
X129512155Y-58088320D01*
X129589320Y-58011155D01*
X129649949Y-57920418D01*
X129691711Y-57819596D01*
X129713000Y-57712564D01*
X129713000Y-57603436D01*
X129691711Y-57496404D01*
X129683440Y-57476436D01*
X137368000Y-57476436D01*
X137368000Y-57585564D01*
X137389289Y-57692596D01*
X137431051Y-57793418D01*
X137491680Y-57884155D01*
X137568845Y-57961320D01*
X137659582Y-58021949D01*
X137760404Y-58063711D01*
X137867436Y-58085000D01*
X137976564Y-58085000D01*
X138083596Y-58063711D01*
X138184418Y-58021949D01*
X138275155Y-57961320D01*
X138352320Y-57884155D01*
X138412949Y-57793418D01*
X138454711Y-57692596D01*
X138476000Y-57585564D01*
X138476000Y-57476436D01*
X138454711Y-57369404D01*
X138412949Y-57268582D01*
X138352320Y-57177845D01*
X138275155Y-57100680D01*
X138184418Y-57040051D01*
X138083596Y-56998289D01*
X137976564Y-56977000D01*
X137867436Y-56977000D01*
X137760404Y-56998289D01*
X137659582Y-57040051D01*
X137568845Y-57100680D01*
X137491680Y-57177845D01*
X137431051Y-57268582D01*
X137389289Y-57369404D01*
X137368000Y-57476436D01*
X129683440Y-57476436D01*
X129649949Y-57395582D01*
X129589320Y-57304845D01*
X129561475Y-57277000D01*
X129589320Y-57249155D01*
X129649949Y-57158418D01*
X129691711Y-57057596D01*
X129713000Y-56950564D01*
X129713000Y-56841436D01*
X129691711Y-56734404D01*
X129649949Y-56633582D01*
X129643880Y-56624499D01*
X148053889Y-56624499D01*
X148036000Y-56714436D01*
X148036000Y-56823564D01*
X148057289Y-56930596D01*
X148099051Y-57031418D01*
X148159680Y-57122155D01*
X148236845Y-57199320D01*
X148327582Y-57259949D01*
X148428404Y-57301711D01*
X148535436Y-57323000D01*
X148644564Y-57323000D01*
X148751596Y-57301711D01*
X148852418Y-57259949D01*
X148943155Y-57199320D01*
X148971000Y-57171475D01*
X148998845Y-57199320D01*
X149089582Y-57259949D01*
X149190404Y-57301711D01*
X149297436Y-57323000D01*
X149406564Y-57323000D01*
X149513596Y-57301711D01*
X149614418Y-57259949D01*
X149705155Y-57199320D01*
X149782320Y-57122155D01*
X149842949Y-57031418D01*
X149884711Y-56930596D01*
X149906000Y-56823564D01*
X149906000Y-56714436D01*
X149888111Y-56624499D01*
X151239161Y-56624499D01*
X151257001Y-56626256D01*
X151274841Y-56624499D01*
X151274851Y-56624499D01*
X151328259Y-56619239D01*
X151396779Y-56598453D01*
X151459927Y-56564700D01*
X151515277Y-56519275D01*
X151526655Y-56505411D01*
X152360067Y-55672000D01*
X152454564Y-55672000D01*
X152561596Y-55650711D01*
X152662418Y-55608949D01*
X152709600Y-55577423D01*
X152709599Y-58364702D01*
X151968277Y-59106025D01*
X151968272Y-59106029D01*
X149899361Y-61174941D01*
X149906000Y-61141564D01*
X149906000Y-61032436D01*
X149884711Y-60925404D01*
X149842949Y-60824582D01*
X149782320Y-60733845D01*
X149705155Y-60656680D01*
X149614418Y-60596051D01*
X149513596Y-60554289D01*
X149478558Y-60547320D01*
X149503711Y-60486596D01*
X149525000Y-60379564D01*
X149525000Y-60270436D01*
X149503711Y-60163404D01*
X149461949Y-60062582D01*
X149401320Y-59971845D01*
X149324155Y-59894680D01*
X149233418Y-59834051D01*
X149132596Y-59792289D01*
X149025564Y-59771000D01*
X148916436Y-59771000D01*
X148809404Y-59792289D01*
X148708582Y-59834051D01*
X148617845Y-59894680D01*
X148540680Y-59971845D01*
X148480051Y-60062582D01*
X148438289Y-60163404D01*
X148417000Y-60270436D01*
X148417000Y-60379564D01*
X148438289Y-60486596D01*
X148480051Y-60587418D01*
X148540680Y-60678155D01*
X148617845Y-60755320D01*
X148708582Y-60815949D01*
X148809404Y-60857711D01*
X148844442Y-60864680D01*
X148819289Y-60925404D01*
X148798000Y-61032436D01*
X148798000Y-61141564D01*
X148819289Y-61248596D01*
X148861051Y-61349418D01*
X148921680Y-61440155D01*
X148998845Y-61517320D01*
X149089582Y-61577949D01*
X149190404Y-61619711D01*
X149297436Y-61641000D01*
X149406564Y-61641000D01*
X149439940Y-61634361D01*
X148128312Y-62945990D01*
X138136715Y-62945990D01*
X138118875Y-62944233D01*
X138101035Y-62945990D01*
X138101027Y-62945990D01*
X138047619Y-62951250D01*
X137979099Y-62972036D01*
X137915951Y-63005789D01*
X137860601Y-63051214D01*
X137849222Y-63065079D01*
X137713108Y-63201195D01*
X137677588Y-63230345D01*
X137677582Y-63230351D01*
X137663724Y-63241724D01*
X137652351Y-63255582D01*
X134558645Y-66349289D01*
X134501418Y-66311051D01*
X134400596Y-66269289D01*
X134293564Y-66248000D01*
X134184436Y-66248000D01*
X134077404Y-66269289D01*
X133976582Y-66311051D01*
X133885845Y-66371680D01*
X133808680Y-66448845D01*
X133748051Y-66539582D01*
X133706289Y-66640404D01*
X133685000Y-66747436D01*
X133685000Y-66856564D01*
X133706289Y-66963596D01*
X133748051Y-67064418D01*
X133808680Y-67155155D01*
X133815925Y-67162400D01*
X131140452Y-67162400D01*
X131122612Y-67160643D01*
X131104772Y-67162400D01*
X131104762Y-67162400D01*
X131051354Y-67167660D01*
X130982834Y-67188446D01*
X130919685Y-67222199D01*
X130878200Y-67256245D01*
X130878194Y-67256251D01*
X130864336Y-67267624D01*
X130852962Y-67281483D01*
X130273484Y-67860962D01*
X130259624Y-67872337D01*
X130248251Y-67886195D01*
X130248245Y-67886201D01*
X130219369Y-67921388D01*
X130214199Y-67927687D01*
X130180446Y-67990835D01*
X130159660Y-68059355D01*
X130154400Y-68112763D01*
X130154400Y-68112772D01*
X130152643Y-68130612D01*
X130154400Y-68148452D01*
X130154401Y-68778050D01*
X130152643Y-68795900D01*
X130159661Y-68867158D01*
X130180447Y-68935678D01*
X130214200Y-68998826D01*
X130248245Y-69040311D01*
X130248252Y-69040318D01*
X130259625Y-69054176D01*
X130273483Y-69065549D01*
X130926074Y-69718141D01*
X130926079Y-69718145D01*
X131272000Y-70064067D01*
X131272000Y-70158564D01*
X131293289Y-70265596D01*
X131335051Y-70366418D01*
X131395680Y-70457155D01*
X131423525Y-70485000D01*
X131395680Y-70512845D01*
X131335051Y-70603582D01*
X131293289Y-70704404D01*
X131272000Y-70811436D01*
X131272000Y-70920564D01*
X131293289Y-71027596D01*
X131335051Y-71128418D01*
X131395680Y-71219155D01*
X131472845Y-71296320D01*
X131563582Y-71356949D01*
X131664404Y-71398711D01*
X131744745Y-71414691D01*
X131721952Y-71424132D01*
X131619586Y-71492531D01*
X131532531Y-71579586D01*
X131464132Y-71681952D01*
X131417019Y-71795694D01*
X131393000Y-71916443D01*
X131393000Y-72039557D01*
X131417019Y-72160306D01*
X131464132Y-72274048D01*
X131532531Y-72376414D01*
X131619586Y-72463469D01*
X131721952Y-72531868D01*
X131835694Y-72578981D01*
X131956443Y-72603000D01*
X132079557Y-72603000D01*
X132200306Y-72578981D01*
X132314048Y-72531868D01*
X132416414Y-72463469D01*
X132503469Y-72376414D01*
X132571868Y-72274048D01*
X132618981Y-72160306D01*
X132643000Y-72039557D01*
X132643000Y-71916443D01*
X132618981Y-71795694D01*
X132571868Y-71681952D01*
X132503469Y-71579586D01*
X132416414Y-71492531D01*
X132314048Y-71424132D01*
X132200306Y-71377019D01*
X132090940Y-71355264D01*
X132179155Y-71296320D01*
X132256320Y-71219155D01*
X132316949Y-71128418D01*
X132358711Y-71027596D01*
X132380000Y-70920564D01*
X132380000Y-70811436D01*
X132358711Y-70704404D01*
X132316949Y-70603582D01*
X132256320Y-70512845D01*
X132228475Y-70485000D01*
X132256320Y-70457155D01*
X132274173Y-70430436D01*
X135971000Y-70430436D01*
X135971000Y-70539564D01*
X135992289Y-70646596D01*
X136034051Y-70747418D01*
X136094680Y-70838155D01*
X136171845Y-70915320D01*
X136262582Y-70975949D01*
X136363404Y-71017711D01*
X136470436Y-71039000D01*
X136579564Y-71039000D01*
X136686596Y-71017711D01*
X136787418Y-70975949D01*
X136878155Y-70915320D01*
X136955320Y-70838155D01*
X137015949Y-70747418D01*
X137057711Y-70646596D01*
X137079000Y-70539564D01*
X137079000Y-70430436D01*
X137057711Y-70323404D01*
X137015949Y-70222582D01*
X136985115Y-70176436D01*
X143591000Y-70176436D01*
X143591000Y-70285564D01*
X143612289Y-70392596D01*
X143654051Y-70493418D01*
X143714680Y-70584155D01*
X143791845Y-70661320D01*
X143882582Y-70721949D01*
X143983404Y-70763711D01*
X144090436Y-70785000D01*
X144199564Y-70785000D01*
X144306596Y-70763711D01*
X144407418Y-70721949D01*
X144498155Y-70661320D01*
X144575320Y-70584155D01*
X144635949Y-70493418D01*
X144677711Y-70392596D01*
X144699000Y-70285564D01*
X144699000Y-70176436D01*
X144677711Y-70069404D01*
X144635949Y-69968582D01*
X144575320Y-69877845D01*
X144498155Y-69800680D01*
X144407418Y-69740051D01*
X144306596Y-69698289D01*
X144199564Y-69677000D01*
X144090436Y-69677000D01*
X143983404Y-69698289D01*
X143882582Y-69740051D01*
X143791845Y-69800680D01*
X143714680Y-69877845D01*
X143654051Y-69968582D01*
X143612289Y-70069404D01*
X143591000Y-70176436D01*
X136985115Y-70176436D01*
X136955320Y-70131845D01*
X136878155Y-70054680D01*
X136787418Y-69994051D01*
X136686596Y-69952289D01*
X136579564Y-69931000D01*
X136470436Y-69931000D01*
X136363404Y-69952289D01*
X136262582Y-69994051D01*
X136171845Y-70054680D01*
X136094680Y-70131845D01*
X136034051Y-70222582D01*
X135992289Y-70323404D01*
X135971000Y-70430436D01*
X132274173Y-70430436D01*
X132316949Y-70366418D01*
X132358711Y-70265596D01*
X132380000Y-70158564D01*
X132380000Y-70049436D01*
X132358711Y-69942404D01*
X132316949Y-69841582D01*
X132256320Y-69750845D01*
X132179155Y-69673680D01*
X132157933Y-69659500D01*
X132179155Y-69645320D01*
X132256320Y-69568155D01*
X132316949Y-69477418D01*
X132358711Y-69376596D01*
X132380000Y-69269564D01*
X132380000Y-69160436D01*
X132358711Y-69053404D01*
X132316949Y-68952582D01*
X132286115Y-68906436D01*
X135717000Y-68906436D01*
X135717000Y-69015564D01*
X135738289Y-69122596D01*
X135780051Y-69223418D01*
X135840680Y-69314155D01*
X135917845Y-69391320D01*
X136008582Y-69451949D01*
X136109404Y-69493711D01*
X136216436Y-69515000D01*
X136325564Y-69515000D01*
X136432596Y-69493711D01*
X136533418Y-69451949D01*
X136624155Y-69391320D01*
X136701320Y-69314155D01*
X136761949Y-69223418D01*
X136803711Y-69122596D01*
X136825000Y-69015564D01*
X136825000Y-68906436D01*
X136987000Y-68906436D01*
X136987000Y-69015564D01*
X137008289Y-69122596D01*
X137050051Y-69223418D01*
X137110680Y-69314155D01*
X137187845Y-69391320D01*
X137278582Y-69451949D01*
X137379404Y-69493711D01*
X137486436Y-69515000D01*
X137595564Y-69515000D01*
X137702596Y-69493711D01*
X137803418Y-69451949D01*
X137894155Y-69391320D01*
X137971320Y-69314155D01*
X137989173Y-69287436D01*
X139019000Y-69287436D01*
X139019000Y-69396564D01*
X139040289Y-69503596D01*
X139082051Y-69604418D01*
X139142680Y-69695155D01*
X139219845Y-69772320D01*
X139310582Y-69832949D01*
X139411404Y-69874711D01*
X139518436Y-69896000D01*
X139627564Y-69896000D01*
X139734596Y-69874711D01*
X139835418Y-69832949D01*
X139926155Y-69772320D01*
X139954000Y-69744475D01*
X139981845Y-69772320D01*
X140072582Y-69832949D01*
X140173404Y-69874711D01*
X140280436Y-69896000D01*
X140389564Y-69896000D01*
X140496596Y-69874711D01*
X140597418Y-69832949D01*
X140688155Y-69772320D01*
X140765320Y-69695155D01*
X140825949Y-69604418D01*
X140867711Y-69503596D01*
X140889000Y-69396564D01*
X140889000Y-69287436D01*
X140867711Y-69180404D01*
X140825949Y-69079582D01*
X140765320Y-68988845D01*
X140688155Y-68911680D01*
X140597418Y-68851051D01*
X140496596Y-68809289D01*
X140389564Y-68788000D01*
X140280436Y-68788000D01*
X140173404Y-68809289D01*
X140072582Y-68851051D01*
X139981845Y-68911680D01*
X139954000Y-68939525D01*
X139926155Y-68911680D01*
X139835418Y-68851051D01*
X139734596Y-68809289D01*
X139627564Y-68788000D01*
X139518436Y-68788000D01*
X139411404Y-68809289D01*
X139310582Y-68851051D01*
X139219845Y-68911680D01*
X139142680Y-68988845D01*
X139082051Y-69079582D01*
X139040289Y-69180404D01*
X139019000Y-69287436D01*
X137989173Y-69287436D01*
X138031949Y-69223418D01*
X138073711Y-69122596D01*
X138095000Y-69015564D01*
X138095000Y-68906436D01*
X138073711Y-68799404D01*
X138031949Y-68698582D01*
X137971320Y-68607845D01*
X137894155Y-68530680D01*
X137803418Y-68470051D01*
X137702596Y-68428289D01*
X137595564Y-68407000D01*
X137486436Y-68407000D01*
X137379404Y-68428289D01*
X137278582Y-68470051D01*
X137187845Y-68530680D01*
X137110680Y-68607845D01*
X137050051Y-68698582D01*
X137008289Y-68799404D01*
X136987000Y-68906436D01*
X136825000Y-68906436D01*
X136803711Y-68799404D01*
X136761949Y-68698582D01*
X136701320Y-68607845D01*
X136624155Y-68530680D01*
X136533418Y-68470051D01*
X136432596Y-68428289D01*
X136325564Y-68407000D01*
X136216436Y-68407000D01*
X136109404Y-68428289D01*
X136008582Y-68470051D01*
X135917845Y-68530680D01*
X135840680Y-68607845D01*
X135780051Y-68698582D01*
X135738289Y-68799404D01*
X135717000Y-68906436D01*
X132286115Y-68906436D01*
X132256320Y-68861845D01*
X132179155Y-68784680D01*
X132157933Y-68770500D01*
X132179155Y-68756320D01*
X132256320Y-68679155D01*
X132316949Y-68588418D01*
X132358711Y-68487596D01*
X132380000Y-68380564D01*
X132380000Y-68271436D01*
X132369690Y-68219600D01*
X134416548Y-68219600D01*
X134434388Y-68221357D01*
X134452228Y-68219600D01*
X134452238Y-68219600D01*
X134505646Y-68214340D01*
X134574166Y-68193554D01*
X134637314Y-68159801D01*
X134676537Y-68127611D01*
X134678799Y-68125755D01*
X134678800Y-68125754D01*
X134692664Y-68114376D01*
X134704042Y-68100512D01*
X135480252Y-67324302D01*
X135484289Y-67344596D01*
X135526051Y-67445418D01*
X135586680Y-67536155D01*
X135663845Y-67613320D01*
X135754582Y-67673949D01*
X135855404Y-67715711D01*
X135962436Y-67737000D01*
X136071564Y-67737000D01*
X136178596Y-67715711D01*
X136279418Y-67673949D01*
X136370155Y-67613320D01*
X136447320Y-67536155D01*
X136507949Y-67445418D01*
X136534037Y-67382436D01*
X145242000Y-67382436D01*
X145242000Y-67491564D01*
X145263289Y-67598596D01*
X145305051Y-67699418D01*
X145365680Y-67790155D01*
X145442845Y-67867320D01*
X145533582Y-67927949D01*
X145634404Y-67969711D01*
X145741436Y-67991000D01*
X145850564Y-67991000D01*
X145957596Y-67969711D01*
X146058418Y-67927949D01*
X146149155Y-67867320D01*
X146226320Y-67790155D01*
X146286949Y-67699418D01*
X146328711Y-67598596D01*
X146350000Y-67491564D01*
X146350000Y-67382436D01*
X146328711Y-67275404D01*
X146286949Y-67174582D01*
X146226320Y-67083845D01*
X146149155Y-67006680D01*
X146058418Y-66946051D01*
X145957596Y-66904289D01*
X145850564Y-66883000D01*
X145741436Y-66883000D01*
X145634404Y-66904289D01*
X145533582Y-66946051D01*
X145442845Y-67006680D01*
X145365680Y-67083845D01*
X145305051Y-67174582D01*
X145263289Y-67275404D01*
X145242000Y-67382436D01*
X136534037Y-67382436D01*
X136549711Y-67344596D01*
X136571000Y-67237564D01*
X136571000Y-67128436D01*
X136549711Y-67021404D01*
X136507949Y-66920582D01*
X136447320Y-66829845D01*
X136370155Y-66752680D01*
X136279418Y-66692051D01*
X136178596Y-66650289D01*
X136158302Y-66646252D01*
X137962118Y-64842436D01*
X148290000Y-64842436D01*
X148290000Y-64951564D01*
X148311289Y-65058596D01*
X148353051Y-65159418D01*
X148413680Y-65250155D01*
X148490845Y-65327320D01*
X148581582Y-65387949D01*
X148682404Y-65429711D01*
X148789436Y-65451000D01*
X148898564Y-65451000D01*
X149005596Y-65429711D01*
X149106418Y-65387949D01*
X149197155Y-65327320D01*
X149274320Y-65250155D01*
X149334949Y-65159418D01*
X149376711Y-65058596D01*
X149398000Y-64951564D01*
X149398000Y-64842436D01*
X149376711Y-64735404D01*
X149334949Y-64634582D01*
X149274320Y-64543845D01*
X149197155Y-64466680D01*
X149106418Y-64406051D01*
X149005596Y-64364289D01*
X148898564Y-64343000D01*
X148789436Y-64343000D01*
X148682404Y-64364289D01*
X148581582Y-64406051D01*
X148490845Y-64466680D01*
X148413680Y-64543845D01*
X148353051Y-64634582D01*
X148311289Y-64735404D01*
X148290000Y-64842436D01*
X137962118Y-64842436D01*
X138521955Y-64282600D01*
X148513548Y-64282600D01*
X148531388Y-64284357D01*
X148549228Y-64282600D01*
X148549238Y-64282600D01*
X148602646Y-64277340D01*
X148671166Y-64256554D01*
X148734314Y-64222801D01*
X148789664Y-64177376D01*
X148801042Y-64163512D01*
X151932118Y-61032436D01*
X154513000Y-61032436D01*
X154513000Y-61141564D01*
X154534289Y-61248596D01*
X154576051Y-61349418D01*
X154636680Y-61440155D01*
X154713845Y-61517320D01*
X154804582Y-61577949D01*
X154905404Y-61619711D01*
X155012436Y-61641000D01*
X155121564Y-61641000D01*
X155228596Y-61619711D01*
X155329418Y-61577949D01*
X155420155Y-61517320D01*
X155497320Y-61440155D01*
X155557949Y-61349418D01*
X155599711Y-61248596D01*
X155621000Y-61141564D01*
X155621000Y-61092490D01*
X155667404Y-61111711D01*
X155774436Y-61133000D01*
X155883564Y-61133000D01*
X155990596Y-61111711D01*
X156091418Y-61069949D01*
X156182155Y-61009320D01*
X156259320Y-60932155D01*
X156319949Y-60841418D01*
X156361711Y-60740596D01*
X156383000Y-60633564D01*
X156383000Y-60524436D01*
X156361711Y-60417404D01*
X156319949Y-60316582D01*
X156259320Y-60225845D01*
X156182155Y-60148680D01*
X156091418Y-60088051D01*
X155990596Y-60046289D01*
X155883564Y-60025000D01*
X155774436Y-60025000D01*
X155667404Y-60046289D01*
X155566582Y-60088051D01*
X155475845Y-60148680D01*
X155398680Y-60225845D01*
X155338051Y-60316582D01*
X155296289Y-60417404D01*
X155275000Y-60524436D01*
X155275000Y-60573510D01*
X155228596Y-60554289D01*
X155121564Y-60533000D01*
X155012436Y-60533000D01*
X154905404Y-60554289D01*
X154804582Y-60596051D01*
X154713845Y-60656680D01*
X154636680Y-60733845D01*
X154576051Y-60824582D01*
X154534289Y-60925404D01*
X154513000Y-61032436D01*
X151932118Y-61032436D01*
X154460518Y-58504037D01*
X154474376Y-58492664D01*
X154485749Y-58478806D01*
X154485755Y-58478800D01*
X154519801Y-58437315D01*
X154553554Y-58374166D01*
X154569729Y-58320845D01*
X154574340Y-58305646D01*
X154579600Y-58252238D01*
X154579600Y-58252228D01*
X154581357Y-58234388D01*
X154579600Y-58216548D01*
X154579600Y-57984436D01*
X154894000Y-57984436D01*
X154894000Y-58093564D01*
X154915289Y-58200596D01*
X154957051Y-58301418D01*
X155017680Y-58392155D01*
X155094845Y-58469320D01*
X155185582Y-58529949D01*
X155286404Y-58571711D01*
X155393436Y-58593000D01*
X155502564Y-58593000D01*
X155609596Y-58571711D01*
X155710418Y-58529949D01*
X155801155Y-58469320D01*
X155878320Y-58392155D01*
X155938949Y-58301418D01*
X155980711Y-58200596D01*
X156002000Y-58093564D01*
X156002000Y-57984436D01*
X155980711Y-57877404D01*
X155938949Y-57776582D01*
X155878320Y-57685845D01*
X155801155Y-57608680D01*
X155710418Y-57548051D01*
X155609596Y-57506289D01*
X155502564Y-57485000D01*
X155393436Y-57485000D01*
X155286404Y-57506289D01*
X155185582Y-57548051D01*
X155094845Y-57608680D01*
X155017680Y-57685845D01*
X154957051Y-57776582D01*
X154915289Y-57877404D01*
X154894000Y-57984436D01*
X154579600Y-57984436D01*
X154579600Y-55526495D01*
X154593596Y-55523711D01*
X154694418Y-55481949D01*
X154785155Y-55421320D01*
X154862320Y-55344155D01*
X154922949Y-55253418D01*
X154964711Y-55152596D01*
X154986000Y-55045564D01*
X154986000Y-54936436D01*
X154964711Y-54829404D01*
X154922949Y-54728582D01*
X154862320Y-54637845D01*
X154785155Y-54560680D01*
X154694418Y-54500051D01*
X154593596Y-54458289D01*
X154486564Y-54437000D01*
X154377436Y-54437000D01*
X154270404Y-54458289D01*
X154169582Y-54500051D01*
X154078845Y-54560680D01*
X154051000Y-54588525D01*
X154023155Y-54560680D01*
X153932418Y-54500051D01*
X153831596Y-54458289D01*
X153724564Y-54437000D01*
X153710742Y-54437000D01*
X153716000Y-54410564D01*
X153716000Y-54301436D01*
X153694711Y-54194404D01*
X153652949Y-54093582D01*
X153592320Y-54002845D01*
X153585757Y-53996282D01*
X155581000Y-53996282D01*
X155581000Y-54163718D01*
X155613665Y-54327936D01*
X155677740Y-54482626D01*
X155770762Y-54621844D01*
X155889156Y-54740238D01*
X156028374Y-54833260D01*
X156183064Y-54897335D01*
X156347282Y-54930000D01*
X156514718Y-54930000D01*
X156678936Y-54897335D01*
X156833626Y-54833260D01*
X156972844Y-54740238D01*
X157091238Y-54621844D01*
X157184260Y-54482626D01*
X157248335Y-54327936D01*
X157281000Y-54163718D01*
X157281000Y-54047436D01*
X159593000Y-54047436D01*
X159593000Y-54156564D01*
X159614289Y-54263596D01*
X159656051Y-54364418D01*
X159716680Y-54455155D01*
X159744525Y-54483000D01*
X159716680Y-54510845D01*
X159656051Y-54601582D01*
X159614289Y-54702404D01*
X159593000Y-54809436D01*
X159593000Y-54918564D01*
X159614289Y-55025596D01*
X159656051Y-55126418D01*
X159716680Y-55217155D01*
X159793845Y-55294320D01*
X159815067Y-55308500D01*
X159793845Y-55322680D01*
X159716680Y-55399845D01*
X159656051Y-55490582D01*
X159614289Y-55591404D01*
X159593000Y-55698436D01*
X159593000Y-55807564D01*
X159614289Y-55914596D01*
X159656051Y-56015418D01*
X159716680Y-56106155D01*
X159744525Y-56134000D01*
X159716680Y-56161845D01*
X159656051Y-56252582D01*
X159614289Y-56353404D01*
X159593000Y-56460436D01*
X159593000Y-56569564D01*
X159614289Y-56676596D01*
X159656051Y-56777418D01*
X159716680Y-56868155D01*
X159793845Y-56945320D01*
X159884582Y-57005949D01*
X159985404Y-57047711D01*
X160092436Y-57069000D01*
X160201564Y-57069000D01*
X160308596Y-57047711D01*
X160409418Y-57005949D01*
X160500155Y-56945320D01*
X160577320Y-56868155D01*
X160637949Y-56777418D01*
X160679711Y-56676596D01*
X160701000Y-56569564D01*
X160701000Y-56460436D01*
X160679711Y-56353404D01*
X160637949Y-56252582D01*
X160577320Y-56161845D01*
X160549475Y-56134000D01*
X160577320Y-56106155D01*
X160637949Y-56015418D01*
X160679711Y-55914596D01*
X160701000Y-55807564D01*
X160701000Y-55698436D01*
X160679711Y-55591404D01*
X160637949Y-55490582D01*
X160577320Y-55399845D01*
X160500155Y-55322680D01*
X160478933Y-55308500D01*
X160500155Y-55294320D01*
X160577320Y-55217155D01*
X160637949Y-55126418D01*
X160679711Y-55025596D01*
X160701000Y-54918564D01*
X160701000Y-54809436D01*
X160679711Y-54702404D01*
X160637949Y-54601582D01*
X160577320Y-54510845D01*
X160549475Y-54483000D01*
X160577320Y-54455155D01*
X160637949Y-54364418D01*
X160679711Y-54263596D01*
X160701000Y-54156564D01*
X160701000Y-54047436D01*
X160679711Y-53940404D01*
X160637949Y-53839582D01*
X160577320Y-53748845D01*
X160500155Y-53671680D01*
X160409418Y-53611051D01*
X160308596Y-53569289D01*
X160201564Y-53548000D01*
X160092436Y-53548000D01*
X159985404Y-53569289D01*
X159884582Y-53611051D01*
X159793845Y-53671680D01*
X159716680Y-53748845D01*
X159656051Y-53839582D01*
X159614289Y-53940404D01*
X159593000Y-54047436D01*
X157281000Y-54047436D01*
X157281000Y-53996282D01*
X157248335Y-53832064D01*
X157184260Y-53677374D01*
X157091238Y-53538156D01*
X156972844Y-53419762D01*
X156833626Y-53326740D01*
X156678936Y-53262665D01*
X156514718Y-53230000D01*
X156347282Y-53230000D01*
X156183064Y-53262665D01*
X156028374Y-53326740D01*
X155889156Y-53419762D01*
X155770762Y-53538156D01*
X155677740Y-53677374D01*
X155613665Y-53832064D01*
X155581000Y-53996282D01*
X153585757Y-53996282D01*
X153515155Y-53925680D01*
X153424418Y-53865051D01*
X153323596Y-53823289D01*
X153216564Y-53802000D01*
X153214066Y-53802000D01*
X153947566Y-53068500D01*
X155811160Y-53068500D01*
X155829000Y-53070257D01*
X155846840Y-53068500D01*
X155846850Y-53068500D01*
X155900258Y-53063240D01*
X155968778Y-53042454D01*
X156031926Y-53008701D01*
X156087276Y-52963276D01*
X156098654Y-52949412D01*
X156686137Y-52361930D01*
X156752596Y-52348711D01*
X156853418Y-52306949D01*
X156944155Y-52246320D01*
X157021320Y-52169155D01*
X157081949Y-52078418D01*
X157123711Y-51977596D01*
X157145000Y-51870564D01*
X157145000Y-51761436D01*
X157123711Y-51654404D01*
X157081949Y-51553582D01*
X157021320Y-51462845D01*
X156944155Y-51385680D01*
X156853418Y-51325051D01*
X156752596Y-51283289D01*
X156645564Y-51262000D01*
X156536436Y-51262000D01*
X156429404Y-51283289D01*
X156328582Y-51325051D01*
X156237845Y-51385680D01*
X156160680Y-51462845D01*
X156100051Y-51553582D01*
X156058289Y-51654404D01*
X156037000Y-51761436D01*
X156037000Y-51870564D01*
X156055643Y-51964291D01*
X155678434Y-52341500D01*
X154992005Y-52341500D01*
X155075418Y-52306949D01*
X155166155Y-52246320D01*
X155243320Y-52169155D01*
X155303949Y-52078418D01*
X155345711Y-51977596D01*
X155367000Y-51870564D01*
X155367000Y-51761436D01*
X155345711Y-51654404D01*
X155303949Y-51553582D01*
X155243320Y-51462845D01*
X155166155Y-51385680D01*
X155075418Y-51325051D01*
X154974596Y-51283289D01*
X154867564Y-51262000D01*
X154758436Y-51262000D01*
X154651404Y-51283289D01*
X154550582Y-51325051D01*
X154459845Y-51385680D01*
X154382680Y-51462845D01*
X154322051Y-51553582D01*
X154280289Y-51654404D01*
X154259000Y-51761436D01*
X154259000Y-51870564D01*
X154277643Y-51964291D01*
X154179844Y-52062090D01*
X153699105Y-52062090D01*
X153681265Y-52060333D01*
X153663425Y-52062090D01*
X153663415Y-52062090D01*
X153610007Y-52067350D01*
X153541487Y-52088136D01*
X153507216Y-52106454D01*
X153525949Y-52078418D01*
X153567711Y-51977596D01*
X153589000Y-51870564D01*
X153589000Y-51761436D01*
X153567711Y-51654404D01*
X153525949Y-51553582D01*
X153465320Y-51462845D01*
X153388155Y-51385680D01*
X153297418Y-51325051D01*
X153196596Y-51283289D01*
X153089564Y-51262000D01*
X152980436Y-51262000D01*
X152873404Y-51283289D01*
X152772582Y-51325051D01*
X152681845Y-51385680D01*
X152604680Y-51462845D01*
X152544051Y-51553582D01*
X152502289Y-51654404D01*
X152481000Y-51761436D01*
X152481000Y-51870564D01*
X152502289Y-51977596D01*
X152544051Y-52078418D01*
X152604680Y-52169155D01*
X152681845Y-52246320D01*
X152772582Y-52306949D01*
X152873404Y-52348711D01*
X152980436Y-52370000D01*
X153089564Y-52370000D01*
X153196596Y-52348711D01*
X153277652Y-52315137D01*
X151416862Y-54175928D01*
X150964411Y-54175928D01*
X150946571Y-54174171D01*
X150928731Y-54175928D01*
X150928722Y-54175928D01*
X150875314Y-54181188D01*
X150806794Y-54201974D01*
X150780138Y-54216222D01*
X150743644Y-54235728D01*
X150717914Y-54256845D01*
X150688296Y-54281152D01*
X150676918Y-54295016D01*
X150407934Y-54564000D01*
X150313436Y-54564000D01*
X150206404Y-54585289D01*
X150105582Y-54627051D01*
X150014845Y-54687680D01*
X149937680Y-54764845D01*
X149877051Y-54855582D01*
X149835289Y-54956404D01*
X149814000Y-55063436D01*
X149814000Y-55172564D01*
X149835289Y-55279596D01*
X149877051Y-55380418D01*
X149937680Y-55471155D01*
X150014845Y-55548320D01*
X150105582Y-55608949D01*
X150206404Y-55650711D01*
X150313436Y-55672000D01*
X150422564Y-55672000D01*
X150529596Y-55650711D01*
X150630418Y-55608949D01*
X150721155Y-55548320D01*
X150798320Y-55471155D01*
X150858949Y-55380418D01*
X150876000Y-55339253D01*
X150893051Y-55380418D01*
X150953680Y-55471155D01*
X151030845Y-55548320D01*
X151121582Y-55608949D01*
X151222404Y-55650711D01*
X151329436Y-55672000D01*
X151331934Y-55672000D01*
X151106435Y-55897499D01*
X129702073Y-55897499D01*
X129691711Y-55845404D01*
X129649949Y-55744582D01*
X129589320Y-55653845D01*
X129512155Y-55576680D01*
X129421418Y-55516051D01*
X129320596Y-55474289D01*
X129213564Y-55453000D01*
X129104436Y-55453000D01*
X128997404Y-55474289D01*
X128896582Y-55516051D01*
X128805845Y-55576680D01*
X128728680Y-55653845D01*
X128668051Y-55744582D01*
X128626289Y-55845404D01*
X128605000Y-55952436D01*
X128605000Y-56061564D01*
X128626289Y-56168596D01*
X128668051Y-56269418D01*
X128728680Y-56360155D01*
X128805845Y-56437320D01*
X128827067Y-56451500D01*
X128805845Y-56465680D01*
X128728680Y-56542845D01*
X128668051Y-56633582D01*
X128626289Y-56734404D01*
X128605000Y-56841436D01*
X128605000Y-56950564D01*
X128626289Y-57057596D01*
X128668051Y-57158418D01*
X128728680Y-57249155D01*
X128756525Y-57277000D01*
X128728680Y-57304845D01*
X128668051Y-57395582D01*
X128626289Y-57496404D01*
X128605000Y-57603436D01*
X128605000Y-57712564D01*
X128626289Y-57819596D01*
X128668051Y-57920418D01*
X128728680Y-58011155D01*
X128805845Y-58088320D01*
X128827067Y-58102500D01*
X128805845Y-58116680D01*
X128728680Y-58193845D01*
X128668051Y-58284582D01*
X128626289Y-58385404D01*
X128605000Y-58492436D01*
X128605000Y-58601564D01*
X128626289Y-58708596D01*
X128668051Y-58809418D01*
X128728680Y-58900155D01*
X128805845Y-58977320D01*
X128896582Y-59037949D01*
X128997404Y-59079711D01*
X129098357Y-59099791D01*
X129049051Y-59173582D01*
X129007289Y-59274404D01*
X128986000Y-59381436D01*
X128986000Y-59475934D01*
X128825683Y-59636251D01*
X128811823Y-59647626D01*
X128800450Y-59661484D01*
X128800444Y-59661490D01*
X128784916Y-59680412D01*
X128766398Y-59702976D01*
X128732645Y-59766124D01*
X128711859Y-59834644D01*
X128706599Y-59888052D01*
X128706599Y-59888061D01*
X128704842Y-59905901D01*
X128706599Y-59923741D01*
X128706600Y-61914333D01*
X127898584Y-62722350D01*
X127884724Y-62733725D01*
X127873351Y-62747583D01*
X127873345Y-62747589D01*
X127844469Y-62782776D01*
X127839299Y-62789075D01*
X127805546Y-62852223D01*
X127784760Y-62920743D01*
X127781808Y-62950717D01*
X127712680Y-63019845D01*
X127652051Y-63110582D01*
X127610289Y-63211404D01*
X127589000Y-63318436D01*
X125979200Y-63318436D01*
X125979200Y-51126436D01*
X126065000Y-51126436D01*
X126065000Y-51235564D01*
X126086289Y-51342596D01*
X126128051Y-51443418D01*
X126188680Y-51534155D01*
X126216525Y-51562000D01*
X126188680Y-51589845D01*
X126128051Y-51680582D01*
X126086289Y-51781404D01*
X126065000Y-51888436D01*
X126065000Y-51997564D01*
X126086289Y-52104596D01*
X126128051Y-52205418D01*
X126188680Y-52296155D01*
X126265845Y-52373320D01*
X126356582Y-52433949D01*
X126457404Y-52475711D01*
X126564436Y-52497000D01*
X126673564Y-52497000D01*
X126780596Y-52475711D01*
X126881418Y-52433949D01*
X126972155Y-52373320D01*
X127000000Y-52345475D01*
X127027845Y-52373320D01*
X127118582Y-52433949D01*
X127219404Y-52475711D01*
X127326436Y-52497000D01*
X127435564Y-52497000D01*
X127542596Y-52475711D01*
X127643418Y-52433949D01*
X127669435Y-52416565D01*
X127652051Y-52442582D01*
X127610289Y-52543404D01*
X127589000Y-52650436D01*
X127589000Y-52759564D01*
X127610289Y-52866596D01*
X127652051Y-52967418D01*
X127712680Y-53058155D01*
X127740525Y-53086000D01*
X127712680Y-53113845D01*
X127652051Y-53204582D01*
X127610289Y-53305404D01*
X127589000Y-53412436D01*
X127589000Y-53521564D01*
X127610289Y-53628596D01*
X127652051Y-53729418D01*
X127712680Y-53820155D01*
X127789845Y-53897320D01*
X127880582Y-53957949D01*
X127981404Y-53999711D01*
X128088436Y-54021000D01*
X128197564Y-54021000D01*
X128304596Y-53999711D01*
X128372319Y-53971659D01*
X135331000Y-53971659D01*
X135331000Y-54188341D01*
X135373273Y-54400858D01*
X135456193Y-54601045D01*
X135576575Y-54781209D01*
X135729791Y-54934425D01*
X135909955Y-55054807D01*
X136110142Y-55137727D01*
X136322659Y-55180000D01*
X136539341Y-55180000D01*
X136751858Y-55137727D01*
X136952045Y-55054807D01*
X137132209Y-54934425D01*
X137285425Y-54781209D01*
X137405807Y-54601045D01*
X137424698Y-54555436D01*
X147401000Y-54555436D01*
X147401000Y-54664564D01*
X147422289Y-54771596D01*
X147464051Y-54872418D01*
X147524680Y-54963155D01*
X147601845Y-55040320D01*
X147692582Y-55100949D01*
X147793404Y-55142711D01*
X147900436Y-55164000D01*
X148009564Y-55164000D01*
X148116596Y-55142711D01*
X148217418Y-55100949D01*
X148308155Y-55040320D01*
X148336000Y-55012475D01*
X148363845Y-55040320D01*
X148454582Y-55100949D01*
X148555404Y-55142711D01*
X148662436Y-55164000D01*
X148771564Y-55164000D01*
X148878596Y-55142711D01*
X148979418Y-55100949D01*
X149070155Y-55040320D01*
X149147320Y-54963155D01*
X149207949Y-54872418D01*
X149249711Y-54771596D01*
X149271000Y-54664564D01*
X149271000Y-54555436D01*
X149249711Y-54448404D01*
X149207949Y-54347582D01*
X149147320Y-54256845D01*
X149070155Y-54179680D01*
X148979418Y-54119051D01*
X148878596Y-54077289D01*
X148771564Y-54056000D01*
X148662436Y-54056000D01*
X148555404Y-54077289D01*
X148454582Y-54119051D01*
X148363845Y-54179680D01*
X148336000Y-54207525D01*
X148308155Y-54179680D01*
X148217418Y-54119051D01*
X148116596Y-54077289D01*
X148009564Y-54056000D01*
X147900436Y-54056000D01*
X147793404Y-54077289D01*
X147692582Y-54119051D01*
X147601845Y-54179680D01*
X147524680Y-54256845D01*
X147464051Y-54347582D01*
X147422289Y-54448404D01*
X147401000Y-54555436D01*
X137424698Y-54555436D01*
X137488727Y-54400858D01*
X137531000Y-54188341D01*
X137531000Y-53971659D01*
X137488727Y-53759142D01*
X137405807Y-53558955D01*
X137285425Y-53378791D01*
X137132209Y-53225575D01*
X136952045Y-53105193D01*
X136773980Y-53031436D01*
X147401000Y-53031436D01*
X147401000Y-53140564D01*
X147422289Y-53247596D01*
X147464051Y-53348418D01*
X147524680Y-53439155D01*
X147601845Y-53516320D01*
X147692582Y-53576949D01*
X147793404Y-53618711D01*
X147900436Y-53640000D01*
X148009564Y-53640000D01*
X148116596Y-53618711D01*
X148217418Y-53576949D01*
X148308155Y-53516320D01*
X148385320Y-53439155D01*
X148445949Y-53348418D01*
X148487711Y-53247596D01*
X148509000Y-53140564D01*
X148509000Y-53031436D01*
X148487711Y-52924404D01*
X148445949Y-52823582D01*
X148415115Y-52777436D01*
X149433000Y-52777436D01*
X149433000Y-52886564D01*
X149454289Y-52993596D01*
X149496051Y-53094418D01*
X149556680Y-53185155D01*
X149633845Y-53262320D01*
X149724582Y-53322949D01*
X149825404Y-53364711D01*
X149932436Y-53386000D01*
X150041564Y-53386000D01*
X150148596Y-53364711D01*
X150249418Y-53322949D01*
X150340155Y-53262320D01*
X150417320Y-53185155D01*
X150477949Y-53094418D01*
X150519711Y-52993596D01*
X150541000Y-52886564D01*
X150541000Y-52777436D01*
X150519711Y-52670404D01*
X150477949Y-52569582D01*
X150417320Y-52478845D01*
X150340155Y-52401680D01*
X150249418Y-52341051D01*
X150148596Y-52299289D01*
X150041564Y-52278000D01*
X149932436Y-52278000D01*
X149825404Y-52299289D01*
X149724582Y-52341051D01*
X149633845Y-52401680D01*
X149556680Y-52478845D01*
X149496051Y-52569582D01*
X149454289Y-52670404D01*
X149433000Y-52777436D01*
X148415115Y-52777436D01*
X148385320Y-52732845D01*
X148308155Y-52655680D01*
X148217418Y-52595051D01*
X148116596Y-52553289D01*
X148009564Y-52532000D01*
X147900436Y-52532000D01*
X147793404Y-52553289D01*
X147692582Y-52595051D01*
X147601845Y-52655680D01*
X147524680Y-52732845D01*
X147464051Y-52823582D01*
X147422289Y-52924404D01*
X147401000Y-53031436D01*
X136773980Y-53031436D01*
X136751858Y-53022273D01*
X136539341Y-52980000D01*
X136322659Y-52980000D01*
X136110142Y-53022273D01*
X135909955Y-53105193D01*
X135729791Y-53225575D01*
X135576575Y-53378791D01*
X135456193Y-53558955D01*
X135373273Y-53759142D01*
X135331000Y-53971659D01*
X128372319Y-53971659D01*
X128405418Y-53957949D01*
X128496155Y-53897320D01*
X128573320Y-53820155D01*
X128633949Y-53729418D01*
X128675711Y-53628596D01*
X128697000Y-53521564D01*
X128697000Y-53412436D01*
X128675711Y-53305404D01*
X128633949Y-53204582D01*
X128573320Y-53113845D01*
X128545475Y-53086000D01*
X128573320Y-53058155D01*
X128633949Y-52967418D01*
X128675711Y-52866596D01*
X128697000Y-52759564D01*
X128697000Y-52650436D01*
X128675711Y-52543404D01*
X128633949Y-52442582D01*
X128573320Y-52351845D01*
X128545475Y-52324000D01*
X128573320Y-52296155D01*
X128591173Y-52269436D01*
X141305000Y-52269436D01*
X141305000Y-52378564D01*
X141326289Y-52485596D01*
X141368051Y-52586418D01*
X141428680Y-52677155D01*
X141505845Y-52754320D01*
X141596582Y-52814949D01*
X141697404Y-52856711D01*
X141804436Y-52878000D01*
X141913564Y-52878000D01*
X142020596Y-52856711D01*
X142121418Y-52814949D01*
X142176500Y-52778144D01*
X142231582Y-52814949D01*
X142332404Y-52856711D01*
X142439436Y-52878000D01*
X142548564Y-52878000D01*
X142655596Y-52856711D01*
X142756418Y-52814949D01*
X142811500Y-52778144D01*
X142866582Y-52814949D01*
X142967404Y-52856711D01*
X143074436Y-52878000D01*
X143183564Y-52878000D01*
X143290596Y-52856711D01*
X143391418Y-52814949D01*
X143482155Y-52754320D01*
X143559320Y-52677155D01*
X143619949Y-52586418D01*
X143661711Y-52485596D01*
X143683000Y-52378564D01*
X143683000Y-52269436D01*
X143661711Y-52162404D01*
X143619949Y-52061582D01*
X143559320Y-51970845D01*
X143482155Y-51893680D01*
X143391418Y-51833051D01*
X143290596Y-51791289D01*
X143183564Y-51770000D01*
X143074436Y-51770000D01*
X142967404Y-51791289D01*
X142866582Y-51833051D01*
X142811500Y-51869856D01*
X142756418Y-51833051D01*
X142655596Y-51791289D01*
X142548564Y-51770000D01*
X142439436Y-51770000D01*
X142332404Y-51791289D01*
X142231582Y-51833051D01*
X142176500Y-51869856D01*
X142121418Y-51833051D01*
X142020596Y-51791289D01*
X141913564Y-51770000D01*
X141804436Y-51770000D01*
X141697404Y-51791289D01*
X141596582Y-51833051D01*
X141505845Y-51893680D01*
X141428680Y-51970845D01*
X141368051Y-52061582D01*
X141326289Y-52162404D01*
X141305000Y-52269436D01*
X128591173Y-52269436D01*
X128633949Y-52205418D01*
X128675711Y-52104596D01*
X128697000Y-51997564D01*
X128697000Y-51888436D01*
X128675711Y-51781404D01*
X128633949Y-51680582D01*
X128573320Y-51589845D01*
X128545475Y-51562000D01*
X128573320Y-51534155D01*
X128633949Y-51443418D01*
X128675711Y-51342596D01*
X128697000Y-51235564D01*
X128697000Y-51126436D01*
X128675711Y-51019404D01*
X128667440Y-50999436D01*
X132415000Y-50999436D01*
X132415000Y-51108564D01*
X132436289Y-51215596D01*
X132478051Y-51316418D01*
X132538680Y-51407155D01*
X132615845Y-51484320D01*
X132706582Y-51544949D01*
X132807404Y-51586711D01*
X132914436Y-51608000D01*
X133023564Y-51608000D01*
X133130596Y-51586711D01*
X133231418Y-51544949D01*
X133322155Y-51484320D01*
X133399320Y-51407155D01*
X133459949Y-51316418D01*
X133501711Y-51215596D01*
X133523000Y-51108564D01*
X133523000Y-50999436D01*
X133812000Y-50999436D01*
X133812000Y-51108564D01*
X133833289Y-51215596D01*
X133875051Y-51316418D01*
X133935680Y-51407155D01*
X134012845Y-51484320D01*
X134103582Y-51544949D01*
X134204404Y-51586711D01*
X134311436Y-51608000D01*
X134420564Y-51608000D01*
X134527596Y-51586711D01*
X134628418Y-51544949D01*
X134719155Y-51484320D01*
X134796320Y-51407155D01*
X134856949Y-51316418D01*
X134898711Y-51215596D01*
X134920000Y-51108564D01*
X134920000Y-50999436D01*
X134898711Y-50892404D01*
X134890440Y-50872436D01*
X162387000Y-50872436D01*
X162387000Y-50981564D01*
X162408289Y-51088596D01*
X162450051Y-51189418D01*
X162510680Y-51280155D01*
X162539400Y-51308875D01*
X162539401Y-52958124D01*
X162510680Y-52986845D01*
X162450051Y-53077582D01*
X162408289Y-53178404D01*
X162387000Y-53285436D01*
X162387000Y-53394564D01*
X162408289Y-53501596D01*
X162450051Y-53602418D01*
X162510680Y-53693155D01*
X162587845Y-53770320D01*
X162678582Y-53830949D01*
X162779404Y-53872711D01*
X162886436Y-53894000D01*
X162995564Y-53894000D01*
X163102596Y-53872711D01*
X163203418Y-53830949D01*
X163294155Y-53770320D01*
X163371320Y-53693155D01*
X163431949Y-53602418D01*
X163473711Y-53501596D01*
X163495000Y-53394564D01*
X163495000Y-53285436D01*
X163473711Y-53178404D01*
X163431949Y-53077582D01*
X163371320Y-52986845D01*
X163342600Y-52958125D01*
X163342600Y-51308875D01*
X163371320Y-51280155D01*
X163431949Y-51189418D01*
X163473711Y-51088596D01*
X163495000Y-50981564D01*
X163495000Y-50872436D01*
X163473711Y-50765404D01*
X163431949Y-50664582D01*
X163371320Y-50573845D01*
X163294155Y-50496680D01*
X163203418Y-50436051D01*
X163102596Y-50394289D01*
X162995564Y-50373000D01*
X162886436Y-50373000D01*
X162779404Y-50394289D01*
X162678582Y-50436051D01*
X162587845Y-50496680D01*
X162510680Y-50573845D01*
X162450051Y-50664582D01*
X162408289Y-50765404D01*
X162387000Y-50872436D01*
X134890440Y-50872436D01*
X134856949Y-50791582D01*
X134796320Y-50700845D01*
X134719155Y-50623680D01*
X134628418Y-50563051D01*
X134527596Y-50521289D01*
X134420564Y-50500000D01*
X134311436Y-50500000D01*
X134204404Y-50521289D01*
X134103582Y-50563051D01*
X134012845Y-50623680D01*
X133935680Y-50700845D01*
X133875051Y-50791582D01*
X133833289Y-50892404D01*
X133812000Y-50999436D01*
X133523000Y-50999436D01*
X133501711Y-50892404D01*
X133459949Y-50791582D01*
X133399320Y-50700845D01*
X133322155Y-50623680D01*
X133231418Y-50563051D01*
X133130596Y-50521289D01*
X133023564Y-50500000D01*
X132914436Y-50500000D01*
X132807404Y-50521289D01*
X132706582Y-50563051D01*
X132615845Y-50623680D01*
X132538680Y-50700845D01*
X132478051Y-50791582D01*
X132436289Y-50892404D01*
X132415000Y-50999436D01*
X128667440Y-50999436D01*
X128633949Y-50918582D01*
X128573320Y-50827845D01*
X128496155Y-50750680D01*
X128405418Y-50690051D01*
X128304596Y-50648289D01*
X128197564Y-50627000D01*
X128088436Y-50627000D01*
X127981404Y-50648289D01*
X127880582Y-50690051D01*
X127789845Y-50750680D01*
X127762000Y-50778525D01*
X127734155Y-50750680D01*
X127643418Y-50690051D01*
X127542596Y-50648289D01*
X127435564Y-50627000D01*
X127326436Y-50627000D01*
X127219404Y-50648289D01*
X127118582Y-50690051D01*
X127027845Y-50750680D01*
X127000000Y-50778525D01*
X126972155Y-50750680D01*
X126881418Y-50690051D01*
X126780596Y-50648289D01*
X126673564Y-50627000D01*
X126564436Y-50627000D01*
X126457404Y-50648289D01*
X126356582Y-50690051D01*
X126265845Y-50750680D01*
X126188680Y-50827845D01*
X126128051Y-50918582D01*
X126086289Y-51019404D01*
X126065000Y-51126436D01*
X125979200Y-51126436D01*
X125979200Y-49842949D01*
X127960586Y-49842949D01*
X128183575Y-50131211D01*
X128574694Y-50359882D01*
X129002909Y-50507854D01*
X129451764Y-50569444D01*
X129904009Y-50542283D01*
X130342266Y-50427415D01*
X130749692Y-50229253D01*
X130896425Y-50131211D01*
X130912495Y-50110436D01*
X137622000Y-50110436D01*
X137622000Y-50219564D01*
X137643289Y-50326596D01*
X137685051Y-50427418D01*
X137745680Y-50518155D01*
X137822845Y-50595320D01*
X137913582Y-50655949D01*
X138014404Y-50697711D01*
X138121436Y-50719000D01*
X138230564Y-50719000D01*
X138337596Y-50697711D01*
X138438418Y-50655949D01*
X138529155Y-50595320D01*
X138606320Y-50518155D01*
X138666949Y-50427418D01*
X138684000Y-50386253D01*
X138701051Y-50427418D01*
X138761680Y-50518155D01*
X138838845Y-50595320D01*
X138929582Y-50655949D01*
X139030404Y-50697711D01*
X139137436Y-50719000D01*
X139246564Y-50719000D01*
X139353596Y-50697711D01*
X139454418Y-50655949D01*
X139545155Y-50595320D01*
X139622320Y-50518155D01*
X139682949Y-50427418D01*
X139724711Y-50326596D01*
X139746000Y-50219564D01*
X139746000Y-50110436D01*
X140543000Y-50110436D01*
X140543000Y-50219564D01*
X140564289Y-50326596D01*
X140606051Y-50427418D01*
X140666680Y-50518155D01*
X140743845Y-50595320D01*
X140834582Y-50655949D01*
X140935404Y-50697711D01*
X141042436Y-50719000D01*
X141151564Y-50719000D01*
X141258596Y-50697711D01*
X141359418Y-50655949D01*
X141450155Y-50595320D01*
X141527320Y-50518155D01*
X141587949Y-50427418D01*
X141629711Y-50326596D01*
X141651000Y-50219564D01*
X141651000Y-50110436D01*
X141629711Y-50003404D01*
X141587949Y-49902582D01*
X141548104Y-49842949D01*
X158440586Y-49842949D01*
X158663575Y-50131211D01*
X159054694Y-50359882D01*
X159482909Y-50507854D01*
X159931764Y-50569444D01*
X160384009Y-50542283D01*
X160822266Y-50427415D01*
X161229692Y-50229253D01*
X161376425Y-50131211D01*
X161599414Y-49842949D01*
X160020000Y-48263536D01*
X158440586Y-49842949D01*
X141548104Y-49842949D01*
X141527320Y-49811845D01*
X141450155Y-49734680D01*
X141359418Y-49674051D01*
X141258596Y-49632289D01*
X141151564Y-49611000D01*
X141042436Y-49611000D01*
X140935404Y-49632289D01*
X140834582Y-49674051D01*
X140743845Y-49734680D01*
X140666680Y-49811845D01*
X140606051Y-49902582D01*
X140564289Y-50003404D01*
X140543000Y-50110436D01*
X139746000Y-50110436D01*
X139724711Y-50003404D01*
X139682949Y-49902582D01*
X139622320Y-49811845D01*
X139545155Y-49734680D01*
X139454418Y-49674051D01*
X139353596Y-49632289D01*
X139246564Y-49611000D01*
X139137436Y-49611000D01*
X139030404Y-49632289D01*
X138929582Y-49674051D01*
X138838845Y-49734680D01*
X138761680Y-49811845D01*
X138701051Y-49902582D01*
X138684000Y-49943747D01*
X138666949Y-49902582D01*
X138606320Y-49811845D01*
X138529155Y-49734680D01*
X138438418Y-49674051D01*
X138337596Y-49632289D01*
X138230564Y-49611000D01*
X138121436Y-49611000D01*
X138014404Y-49632289D01*
X137913582Y-49674051D01*
X137822845Y-49734680D01*
X137745680Y-49811845D01*
X137685051Y-49902582D01*
X137643289Y-50003404D01*
X137622000Y-50110436D01*
X130912495Y-50110436D01*
X131119414Y-49842949D01*
X129540000Y-48263536D01*
X127960586Y-49842949D01*
X125979200Y-49842949D01*
X125979200Y-48278404D01*
X125989656Y-48171764D01*
X127230556Y-48171764D01*
X127257717Y-48624009D01*
X127372585Y-49062266D01*
X127570747Y-49469692D01*
X127668789Y-49616425D01*
X127957051Y-49839414D01*
X129536464Y-48260000D01*
X129543536Y-48260000D01*
X131122949Y-49839414D01*
X131411211Y-49616425D01*
X131639882Y-49225306D01*
X131787854Y-48797091D01*
X131849444Y-48348236D01*
X131838846Y-48171764D01*
X157710556Y-48171764D01*
X157737717Y-48624009D01*
X157852585Y-49062266D01*
X158050747Y-49469692D01*
X158148789Y-49616425D01*
X158437051Y-49839414D01*
X160016464Y-48260000D01*
X160023536Y-48260000D01*
X161602949Y-49839414D01*
X161891211Y-49616425D01*
X162119882Y-49225306D01*
X162267854Y-48797091D01*
X162329444Y-48348236D01*
X162302283Y-47895991D01*
X162187415Y-47457734D01*
X161989253Y-47050308D01*
X161891211Y-46903575D01*
X161602949Y-46680586D01*
X160023536Y-48260000D01*
X160016464Y-48260000D01*
X158437051Y-46680586D01*
X158148789Y-46903575D01*
X157920118Y-47294694D01*
X157772146Y-47722909D01*
X157710556Y-48171764D01*
X131838846Y-48171764D01*
X131822283Y-47895991D01*
X131707415Y-47457734D01*
X131700461Y-47443436D01*
X150068000Y-47443436D01*
X150068000Y-47552564D01*
X150089289Y-47659596D01*
X150131051Y-47760418D01*
X150191680Y-47851155D01*
X150268845Y-47928320D01*
X150359582Y-47988949D01*
X150460404Y-48030711D01*
X150567436Y-48052000D01*
X150676564Y-48052000D01*
X150783596Y-48030711D01*
X150884418Y-47988949D01*
X150975155Y-47928320D01*
X151052320Y-47851155D01*
X151112949Y-47760418D01*
X151154711Y-47659596D01*
X151176000Y-47552564D01*
X151176000Y-47443436D01*
X151154711Y-47336404D01*
X151112949Y-47235582D01*
X151052320Y-47144845D01*
X150975155Y-47067680D01*
X150884418Y-47007051D01*
X150783596Y-46965289D01*
X150676564Y-46944000D01*
X150567436Y-46944000D01*
X150460404Y-46965289D01*
X150359582Y-47007051D01*
X150268845Y-47067680D01*
X150191680Y-47144845D01*
X150131051Y-47235582D01*
X150089289Y-47336404D01*
X150068000Y-47443436D01*
X131700461Y-47443436D01*
X131509253Y-47050308D01*
X131432500Y-46935436D01*
X151973000Y-46935436D01*
X151973000Y-47044564D01*
X151994289Y-47151596D01*
X152036051Y-47252418D01*
X152096680Y-47343155D01*
X152173845Y-47420320D01*
X152264582Y-47480949D01*
X152365404Y-47522711D01*
X152472436Y-47544000D01*
X152581564Y-47544000D01*
X152688596Y-47522711D01*
X152789418Y-47480949D01*
X152880155Y-47420320D01*
X152957320Y-47343155D01*
X153017949Y-47252418D01*
X153059711Y-47151596D01*
X153081000Y-47044564D01*
X153081000Y-46935436D01*
X153059711Y-46828404D01*
X153017949Y-46727582D01*
X152957320Y-46636845D01*
X152880155Y-46559680D01*
X152789418Y-46499051D01*
X152688596Y-46457289D01*
X152581564Y-46436000D01*
X152472436Y-46436000D01*
X152365404Y-46457289D01*
X152264582Y-46499051D01*
X152173845Y-46559680D01*
X152096680Y-46636845D01*
X152036051Y-46727582D01*
X151994289Y-46828404D01*
X151973000Y-46935436D01*
X131432500Y-46935436D01*
X131411211Y-46903575D01*
X131122949Y-46680586D01*
X129543536Y-48260000D01*
X129536464Y-48260000D01*
X127957051Y-46680586D01*
X127668789Y-46903575D01*
X127440118Y-47294694D01*
X127292146Y-47722909D01*
X127230556Y-48171764D01*
X125989656Y-48171764D01*
X126048786Y-47568720D01*
X126249545Y-46903770D01*
X126370093Y-46677051D01*
X127960586Y-46677051D01*
X129540000Y-48256464D01*
X131119414Y-46677051D01*
X130896425Y-46388789D01*
X130528086Y-46173436D01*
X134828000Y-46173436D01*
X134828000Y-46282564D01*
X134849289Y-46389596D01*
X134891051Y-46490418D01*
X134951680Y-46581155D01*
X135028845Y-46658320D01*
X135119582Y-46718949D01*
X135220404Y-46760711D01*
X135327436Y-46782000D01*
X135436564Y-46782000D01*
X135543596Y-46760711D01*
X135644418Y-46718949D01*
X135735155Y-46658320D01*
X135812320Y-46581155D01*
X135872949Y-46490418D01*
X135914711Y-46389596D01*
X135936000Y-46282564D01*
X135936000Y-46173436D01*
X153878000Y-46173436D01*
X153878000Y-46282564D01*
X153899289Y-46389596D01*
X153941051Y-46490418D01*
X154001680Y-46581155D01*
X154078845Y-46658320D01*
X154169582Y-46718949D01*
X154270404Y-46760711D01*
X154377436Y-46782000D01*
X154486564Y-46782000D01*
X154593596Y-46760711D01*
X154694418Y-46718949D01*
X154757122Y-46677051D01*
X158440586Y-46677051D01*
X160020000Y-48256464D01*
X161599414Y-46677051D01*
X161376425Y-46388789D01*
X160985306Y-46160118D01*
X160557091Y-46012146D01*
X160108236Y-45950556D01*
X159655991Y-45977717D01*
X159217734Y-46092585D01*
X158810308Y-46290747D01*
X158663575Y-46388789D01*
X158440586Y-46677051D01*
X154757122Y-46677051D01*
X154785155Y-46658320D01*
X154862320Y-46581155D01*
X154922949Y-46490418D01*
X154964711Y-46389596D01*
X154986000Y-46282564D01*
X154986000Y-46173436D01*
X154964711Y-46066404D01*
X154922949Y-45965582D01*
X154862320Y-45874845D01*
X154785155Y-45797680D01*
X154694418Y-45737051D01*
X154593596Y-45695289D01*
X154486564Y-45674000D01*
X154377436Y-45674000D01*
X154270404Y-45695289D01*
X154169582Y-45737051D01*
X154078845Y-45797680D01*
X154001680Y-45874845D01*
X153941051Y-45965582D01*
X153899289Y-46066404D01*
X153878000Y-46173436D01*
X135936000Y-46173436D01*
X135914711Y-46066404D01*
X135872949Y-45965582D01*
X135812320Y-45874845D01*
X135735155Y-45797680D01*
X135644418Y-45737051D01*
X135543596Y-45695289D01*
X135436564Y-45674000D01*
X135327436Y-45674000D01*
X135220404Y-45695289D01*
X135119582Y-45737051D01*
X135028845Y-45797680D01*
X134951680Y-45874845D01*
X134891051Y-45965582D01*
X134849289Y-46066404D01*
X134828000Y-46173436D01*
X130528086Y-46173436D01*
X130505306Y-46160118D01*
X130077091Y-46012146D01*
X129628236Y-45950556D01*
X129175991Y-45977717D01*
X128737734Y-46092585D01*
X128330308Y-46290747D01*
X128183575Y-46388789D01*
X127960586Y-46677051D01*
X126370093Y-46677051D01*
X126575636Y-46290482D01*
X127014639Y-45752211D01*
X127273048Y-45538436D01*
X137114000Y-45538436D01*
X137114000Y-45647564D01*
X137135289Y-45754596D01*
X137177051Y-45855418D01*
X137237680Y-45946155D01*
X137314845Y-46023320D01*
X137405582Y-46083949D01*
X137506404Y-46125711D01*
X137613436Y-46147000D01*
X137722564Y-46147000D01*
X137829596Y-46125711D01*
X137930418Y-46083949D01*
X138021155Y-46023320D01*
X138098320Y-45946155D01*
X138158949Y-45855418D01*
X138200711Y-45754596D01*
X138222000Y-45647564D01*
X138222000Y-45538436D01*
X138200711Y-45431404D01*
X138158949Y-45330582D01*
X138098320Y-45239845D01*
X138021155Y-45162680D01*
X137930418Y-45102051D01*
X137829596Y-45060289D01*
X137722564Y-45039000D01*
X137613436Y-45039000D01*
X137506404Y-45060289D01*
X137405582Y-45102051D01*
X137314845Y-45162680D01*
X137237680Y-45239845D01*
X137177051Y-45330582D01*
X137135289Y-45431404D01*
X137114000Y-45538436D01*
X127273048Y-45538436D01*
X127549834Y-45309459D01*
X128160833Y-44979094D01*
X128824368Y-44773695D01*
X129532881Y-44699227D01*
X129540741Y-44699200D01*
X160001596Y-44699200D01*
X160711280Y-44768786D01*
%TA.AperFunction,Conductor*%
D18*
G36*
X160711280Y-44768786D02*
G01*
X161376230Y-44969545D01*
X161989518Y-45295636D01*
X162527789Y-45734639D01*
X162970541Y-46269834D01*
X163300906Y-46880833D01*
X163506305Y-47544368D01*
X163580773Y-48252881D01*
X163580800Y-48260742D01*
X163580801Y-65559000D01*
X158623000Y-65559000D01*
X158603491Y-65560921D01*
X158584732Y-65566612D01*
X158567443Y-65575853D01*
X158552289Y-65588289D01*
X158539853Y-65603443D01*
X158530612Y-65620732D01*
X158524921Y-65639491D01*
X158523000Y-65659000D01*
X158523000Y-72009000D01*
X158524921Y-72028509D01*
X158530612Y-72047268D01*
X158539853Y-72064557D01*
X158552289Y-72079711D01*
X158567443Y-72092147D01*
X158584732Y-72101388D01*
X158603491Y-72107079D01*
X158623000Y-72109000D01*
X163580801Y-72109000D01*
X163580801Y-78721586D01*
X163511214Y-79431281D01*
X163310455Y-80096230D01*
X162984364Y-80709517D01*
X162545358Y-81247791D01*
X162010166Y-81690541D01*
X161399166Y-82020907D01*
X160735633Y-82226305D01*
X160027119Y-82300773D01*
X160019259Y-82300800D01*
X145289505Y-82300800D01*
X145251177Y-82208268D01*
X145177307Y-82097713D01*
X145083287Y-82003693D01*
X144972732Y-81929823D01*
X144849890Y-81878940D01*
X144719482Y-81853000D01*
X144586518Y-81853000D01*
X144456110Y-81878940D01*
X144333268Y-81929823D01*
X144222713Y-82003693D01*
X144128693Y-82097713D01*
X144054823Y-82208268D01*
X144016495Y-82300800D01*
X129558404Y-82300800D01*
X128848719Y-82231214D01*
X128183770Y-82030455D01*
X127570483Y-81704364D01*
X127032209Y-81265358D01*
X126589459Y-80730166D01*
X126369278Y-80322949D01*
X127960586Y-80322949D01*
X128183575Y-80611211D01*
X128574694Y-80839882D01*
X129002909Y-80987854D01*
X129451764Y-81049444D01*
X129904009Y-81022283D01*
X130342266Y-80907415D01*
X130749692Y-80709253D01*
X130896425Y-80611211D01*
X131119414Y-80322949D01*
X129540000Y-78743536D01*
X127960586Y-80322949D01*
X126369278Y-80322949D01*
X126259093Y-80119166D01*
X126053695Y-79455633D01*
X125979227Y-78747119D01*
X125979200Y-78739259D01*
X125979200Y-78651764D01*
X127230556Y-78651764D01*
X127257717Y-79104009D01*
X127372585Y-79542266D01*
X127570747Y-79949692D01*
X127668789Y-80096425D01*
X127957051Y-80319414D01*
X129536464Y-78740000D01*
X129543536Y-78740000D01*
X131122949Y-80319414D01*
X131411211Y-80096425D01*
X131636250Y-79711518D01*
X143978000Y-79711518D01*
X143978000Y-79844482D01*
X144003940Y-79974890D01*
X144054823Y-80097732D01*
X144128693Y-80208287D01*
X144222713Y-80302307D01*
X144333268Y-80376177D01*
X144456110Y-80427060D01*
X144586518Y-80453000D01*
X144719482Y-80453000D01*
X144849890Y-80427060D01*
X144972732Y-80376177D01*
X145052393Y-80322949D01*
X158440586Y-80322949D01*
X158663575Y-80611211D01*
X159054694Y-80839882D01*
X159482909Y-80987854D01*
X159931764Y-81049444D01*
X160384009Y-81022283D01*
X160822266Y-80907415D01*
X161229692Y-80709253D01*
X161376425Y-80611211D01*
X161599414Y-80322949D01*
X160020000Y-78743536D01*
X158440586Y-80322949D01*
X145052393Y-80322949D01*
X145083287Y-80302307D01*
X145177307Y-80208287D01*
X145251177Y-80097732D01*
X145302060Y-79974890D01*
X145328000Y-79844482D01*
X145328000Y-79711518D01*
X145302060Y-79581110D01*
X145251177Y-79458268D01*
X145177307Y-79347713D01*
X145083287Y-79253693D01*
X144972732Y-79179823D01*
X144849890Y-79128940D01*
X144719482Y-79103000D01*
X144586518Y-79103000D01*
X144456110Y-79128940D01*
X144333268Y-79179823D01*
X144222713Y-79253693D01*
X144128693Y-79347713D01*
X144054823Y-79458268D01*
X144003940Y-79581110D01*
X143978000Y-79711518D01*
X131636250Y-79711518D01*
X131639882Y-79705306D01*
X131787854Y-79277091D01*
X131849444Y-78828236D01*
X131822283Y-78375991D01*
X131707415Y-77937734D01*
X131515152Y-77542436D01*
X135463000Y-77542436D01*
X135463000Y-77651564D01*
X135484289Y-77758596D01*
X135526051Y-77859418D01*
X135586680Y-77950155D01*
X135663845Y-78027320D01*
X135754582Y-78087949D01*
X135855404Y-78129711D01*
X135962436Y-78151000D01*
X136071564Y-78151000D01*
X136178596Y-78129711D01*
X136279418Y-78087949D01*
X136370155Y-78027320D01*
X136447320Y-77950155D01*
X136507949Y-77859418D01*
X136549711Y-77758596D01*
X136571000Y-77651564D01*
X136571000Y-77542436D01*
X136549711Y-77435404D01*
X136541440Y-77415436D01*
X137495000Y-77415436D01*
X137495000Y-77524564D01*
X137516289Y-77631596D01*
X137558051Y-77732418D01*
X137618680Y-77823155D01*
X137695845Y-77900320D01*
X137786582Y-77960949D01*
X137887404Y-78002711D01*
X137994436Y-78024000D01*
X138043510Y-78024000D01*
X138024289Y-78070404D01*
X138003000Y-78177436D01*
X138003000Y-78286564D01*
X138024289Y-78393596D01*
X138066051Y-78494418D01*
X138126680Y-78585155D01*
X138203845Y-78662320D01*
X138294582Y-78722949D01*
X138395404Y-78764711D01*
X138502436Y-78786000D01*
X138611564Y-78786000D01*
X138718596Y-78764711D01*
X138819418Y-78722949D01*
X138910155Y-78662320D01*
X138938000Y-78634475D01*
X138965845Y-78662320D01*
X139056582Y-78722949D01*
X139157404Y-78764711D01*
X139264436Y-78786000D01*
X139373564Y-78786000D01*
X139480596Y-78764711D01*
X139581418Y-78722949D01*
X139672155Y-78662320D01*
X139749320Y-78585155D01*
X139809949Y-78494418D01*
X139851711Y-78393596D01*
X139873000Y-78286564D01*
X139873000Y-78177436D01*
X139851711Y-78070404D01*
X139809949Y-77969582D01*
X139749320Y-77878845D01*
X139672155Y-77801680D01*
X139581418Y-77741051D01*
X139480596Y-77699289D01*
X139373564Y-77678000D01*
X139264436Y-77678000D01*
X139157404Y-77699289D01*
X139056582Y-77741051D01*
X138965845Y-77801680D01*
X138938000Y-77829525D01*
X138910155Y-77801680D01*
X138819418Y-77741051D01*
X138718596Y-77699289D01*
X138611564Y-77678000D01*
X138562490Y-77678000D01*
X138581711Y-77631596D01*
X138603000Y-77524564D01*
X138603000Y-77415436D01*
X138581711Y-77308404D01*
X138539949Y-77207582D01*
X138479320Y-77116845D01*
X138402155Y-77039680D01*
X138311418Y-76979051D01*
X138210596Y-76937289D01*
X138103564Y-76916000D01*
X137994436Y-76916000D01*
X137887404Y-76937289D01*
X137786582Y-76979051D01*
X137695845Y-77039680D01*
X137618680Y-77116845D01*
X137558051Y-77207582D01*
X137516289Y-77308404D01*
X137495000Y-77415436D01*
X136541440Y-77415436D01*
X136507949Y-77334582D01*
X136447320Y-77243845D01*
X136370155Y-77166680D01*
X136279418Y-77106051D01*
X136178596Y-77064289D01*
X136071564Y-77043000D01*
X135962436Y-77043000D01*
X135855404Y-77064289D01*
X135754582Y-77106051D01*
X135663845Y-77166680D01*
X135586680Y-77243845D01*
X135526051Y-77334582D01*
X135484289Y-77435404D01*
X135463000Y-77542436D01*
X131515152Y-77542436D01*
X131509253Y-77530308D01*
X131411211Y-77383575D01*
X131122949Y-77160586D01*
X129543536Y-78740000D01*
X129536464Y-78740000D01*
X127957051Y-77160586D01*
X127668789Y-77383575D01*
X127440118Y-77774694D01*
X127292146Y-78202909D01*
X127230556Y-78651764D01*
X125979200Y-78651764D01*
X125979200Y-77157051D01*
X127960586Y-77157051D01*
X129540000Y-78736464D01*
X131119414Y-77157051D01*
X130896425Y-76868789D01*
X130505306Y-76640118D01*
X130077091Y-76492146D01*
X129628236Y-76430556D01*
X129175991Y-76457717D01*
X128737734Y-76572585D01*
X128330308Y-76770747D01*
X128183575Y-76868789D01*
X127960586Y-77157051D01*
X125979200Y-77157051D01*
X125979200Y-76018436D01*
X143083000Y-76018436D01*
X143083000Y-76127564D01*
X143104289Y-76234596D01*
X143146051Y-76335418D01*
X143206680Y-76426155D01*
X143273500Y-76492975D01*
X143273501Y-78066024D01*
X143206680Y-78132845D01*
X143146051Y-78223582D01*
X143104289Y-78324404D01*
X143083000Y-78431436D01*
X143083000Y-78540564D01*
X143104289Y-78647596D01*
X143146051Y-78748418D01*
X143206680Y-78839155D01*
X143283845Y-78916320D01*
X143374582Y-78976949D01*
X143475404Y-79018711D01*
X143582436Y-79040000D01*
X143691564Y-79040000D01*
X143798596Y-79018711D01*
X143899418Y-78976949D01*
X143990155Y-78916320D01*
X144067320Y-78839155D01*
X144127949Y-78748418D01*
X144169711Y-78647596D01*
X144191000Y-78540564D01*
X144191000Y-78431436D01*
X144169711Y-78324404D01*
X144161440Y-78304436D01*
X149052000Y-78304436D01*
X149052000Y-78413564D01*
X149073289Y-78520596D01*
X149115051Y-78621418D01*
X149175680Y-78712155D01*
X149252845Y-78789320D01*
X149343582Y-78849949D01*
X149444404Y-78891711D01*
X149551436Y-78913000D01*
X149660564Y-78913000D01*
X149767596Y-78891711D01*
X149868418Y-78849949D01*
X149959155Y-78789320D01*
X149987000Y-78761475D01*
X150014845Y-78789320D01*
X150105582Y-78849949D01*
X150206404Y-78891711D01*
X150313436Y-78913000D01*
X150422564Y-78913000D01*
X150529596Y-78891711D01*
X150630418Y-78849949D01*
X150721155Y-78789320D01*
X150764881Y-78745594D01*
X150766051Y-78748418D01*
X150826680Y-78839155D01*
X150903845Y-78916320D01*
X150994582Y-78976949D01*
X151095404Y-79018711D01*
X151202436Y-79040000D01*
X151311564Y-79040000D01*
X151418596Y-79018711D01*
X151519418Y-78976949D01*
X151610155Y-78916320D01*
X151687320Y-78839155D01*
X151747949Y-78748418D01*
X151787984Y-78651764D01*
X157710556Y-78651764D01*
X157737717Y-79104009D01*
X157852585Y-79542266D01*
X158050747Y-79949692D01*
X158148789Y-80096425D01*
X158437051Y-80319414D01*
X160016464Y-78740000D01*
X160023536Y-78740000D01*
X161602949Y-80319414D01*
X161891211Y-80096425D01*
X162119882Y-79705306D01*
X162267854Y-79277091D01*
X162329444Y-78828236D01*
X162302283Y-78375991D01*
X162187415Y-77937734D01*
X161989253Y-77530308D01*
X161891211Y-77383575D01*
X161602949Y-77160586D01*
X160023536Y-78740000D01*
X160016464Y-78740000D01*
X158437051Y-77160586D01*
X158148789Y-77383575D01*
X157920118Y-77774694D01*
X157772146Y-78202909D01*
X157710556Y-78651764D01*
X151787984Y-78651764D01*
X151789711Y-78647596D01*
X151811000Y-78540564D01*
X151811000Y-78431436D01*
X151789711Y-78324404D01*
X151747949Y-78223582D01*
X151687320Y-78132845D01*
X151610155Y-78055680D01*
X151519418Y-77995051D01*
X151418596Y-77953289D01*
X151311564Y-77932000D01*
X151202436Y-77932000D01*
X151095404Y-77953289D01*
X150994582Y-77995051D01*
X150903845Y-78055680D01*
X150860119Y-78099406D01*
X150858949Y-78096582D01*
X150798320Y-78005845D01*
X150721155Y-77928680D01*
X150630418Y-77868051D01*
X150529596Y-77826289D01*
X150422564Y-77805000D01*
X150313436Y-77805000D01*
X150206404Y-77826289D01*
X150105582Y-77868051D01*
X150014845Y-77928680D01*
X149987000Y-77956525D01*
X149959155Y-77928680D01*
X149868418Y-77868051D01*
X149767596Y-77826289D01*
X149660564Y-77805000D01*
X149551436Y-77805000D01*
X149444404Y-77826289D01*
X149343582Y-77868051D01*
X149252845Y-77928680D01*
X149175680Y-78005845D01*
X149115051Y-78096582D01*
X149073289Y-78197404D01*
X149052000Y-78304436D01*
X144161440Y-78304436D01*
X144127949Y-78223582D01*
X144067320Y-78132845D01*
X144000500Y-78066025D01*
X144000500Y-77542436D01*
X146258000Y-77542436D01*
X146258000Y-77651564D01*
X146279289Y-77758596D01*
X146321051Y-77859418D01*
X146381680Y-77950155D01*
X146458845Y-78027320D01*
X146549582Y-78087949D01*
X146650404Y-78129711D01*
X146757436Y-78151000D01*
X146866564Y-78151000D01*
X146973596Y-78129711D01*
X147074418Y-78087949D01*
X147165155Y-78027320D01*
X147242320Y-77950155D01*
X147302949Y-77859418D01*
X147344711Y-77758596D01*
X147366000Y-77651564D01*
X147366000Y-77557066D01*
X147766015Y-77157051D01*
X158440586Y-77157051D01*
X160020000Y-78736464D01*
X161599414Y-77157051D01*
X161376425Y-76868789D01*
X160985306Y-76640118D01*
X160557091Y-76492146D01*
X160108236Y-76430556D01*
X159655991Y-76457717D01*
X159217734Y-76572585D01*
X158810308Y-76770747D01*
X158663575Y-76868789D01*
X158440586Y-77157051D01*
X147766015Y-77157051D01*
X148580417Y-76342649D01*
X148594275Y-76331276D01*
X148605650Y-76317416D01*
X148605654Y-76317412D01*
X148639700Y-76275928D01*
X148673453Y-76212779D01*
X148673454Y-76212778D01*
X148694240Y-76144258D01*
X148699500Y-76090850D01*
X148699500Y-76090841D01*
X148701257Y-76073001D01*
X148699500Y-76055161D01*
X148699500Y-75732511D01*
X148772861Y-75909620D01*
X148969849Y-76204433D01*
X149220567Y-76455151D01*
X149515380Y-76652139D01*
X149842959Y-76787827D01*
X150190716Y-76857000D01*
X150545284Y-76857000D01*
X150893041Y-76787827D01*
X151220620Y-76652139D01*
X151515433Y-76455151D01*
X151766151Y-76204433D01*
X151963139Y-75909620D01*
X152098827Y-75582041D01*
X152168000Y-75234284D01*
X152168000Y-74879716D01*
X152098827Y-74531959D01*
X151963139Y-74204380D01*
X151766151Y-73909567D01*
X151515433Y-73658849D01*
X151220620Y-73461861D01*
X150893041Y-73326173D01*
X150545284Y-73257000D01*
X150190716Y-73257000D01*
X149842959Y-73326173D01*
X149515380Y-73461861D01*
X149220567Y-73658849D01*
X148969849Y-73909567D01*
X148772861Y-74204380D01*
X148699500Y-74381489D01*
X148699500Y-70000566D01*
X151628422Y-67071645D01*
X151642275Y-67060276D01*
X151653645Y-67046422D01*
X151653655Y-67046412D01*
X151687700Y-67004927D01*
X151687702Y-67004925D01*
X151721454Y-66941778D01*
X151742240Y-66873258D01*
X151747500Y-66819850D01*
X151747500Y-66819840D01*
X151749257Y-66802000D01*
X151747500Y-66784160D01*
X151747500Y-64300975D01*
X151814320Y-64234155D01*
X151874949Y-64143418D01*
X151916711Y-64042596D01*
X151938000Y-63935564D01*
X151938000Y-63826436D01*
X151931436Y-63793436D01*
X151964436Y-63800000D01*
X151978258Y-63800000D01*
X151973000Y-63826436D01*
X151973000Y-63935564D01*
X151994289Y-64042596D01*
X152036051Y-64143418D01*
X152096680Y-64234155D01*
X152173845Y-64311320D01*
X152264582Y-64371949D01*
X152365404Y-64413711D01*
X152472436Y-64435000D01*
X152581564Y-64435000D01*
X152688596Y-64413711D01*
X152789418Y-64371949D01*
X152880155Y-64311320D01*
X152957320Y-64234155D01*
X153017949Y-64143418D01*
X153059711Y-64042596D01*
X153081000Y-63935564D01*
X153081000Y-63826436D01*
X153059711Y-63719404D01*
X153017949Y-63618582D01*
X152957320Y-63527845D01*
X152880155Y-63450680D01*
X152789418Y-63390051D01*
X152688596Y-63348289D01*
X152581564Y-63327000D01*
X152567742Y-63327000D01*
X152573000Y-63300564D01*
X152573000Y-63191436D01*
X152551711Y-63084404D01*
X152509949Y-62983582D01*
X152449320Y-62892845D01*
X152372155Y-62815680D01*
X152281418Y-62755051D01*
X152180596Y-62713289D01*
X152073564Y-62692000D01*
X151964436Y-62692000D01*
X151857404Y-62713289D01*
X151756582Y-62755051D01*
X151665845Y-62815680D01*
X151588680Y-62892845D01*
X151528051Y-62983582D01*
X151486289Y-63084404D01*
X151465000Y-63191436D01*
X151465000Y-63300564D01*
X151471564Y-63333564D01*
X151438564Y-63327000D01*
X151329436Y-63327000D01*
X151222404Y-63348289D01*
X151121582Y-63390051D01*
X151030845Y-63450680D01*
X150953680Y-63527845D01*
X150893051Y-63618582D01*
X150851289Y-63719404D01*
X150830000Y-63826436D01*
X150830000Y-63935564D01*
X150851289Y-64042596D01*
X150893051Y-64143418D01*
X150953680Y-64234155D01*
X151020501Y-64300976D01*
X151020501Y-64717997D01*
X150985949Y-64634582D01*
X150925320Y-64543845D01*
X150848155Y-64466680D01*
X150757418Y-64406051D01*
X150656596Y-64364289D01*
X150549564Y-64343000D01*
X150440436Y-64343000D01*
X150333404Y-64364289D01*
X150232582Y-64406051D01*
X150141845Y-64466680D01*
X150064680Y-64543845D01*
X150004051Y-64634582D01*
X149962289Y-64735404D01*
X149941000Y-64842436D01*
X149941000Y-64951564D01*
X149962289Y-65058596D01*
X150004051Y-65159418D01*
X150064680Y-65250155D01*
X150141845Y-65327320D01*
X150232582Y-65387949D01*
X150333404Y-65429711D01*
X150440436Y-65451000D01*
X150549564Y-65451000D01*
X150656596Y-65429711D01*
X150757418Y-65387949D01*
X150848155Y-65327320D01*
X150925320Y-65250155D01*
X150985949Y-65159418D01*
X151020501Y-65076003D01*
X151020500Y-66651433D01*
X148091583Y-69580351D01*
X148077725Y-69591724D01*
X148066352Y-69605582D01*
X148066345Y-69605589D01*
X148032300Y-69647074D01*
X147998547Y-69710222D01*
X147977761Y-69778742D01*
X147970743Y-69850000D01*
X147972501Y-69867850D01*
X147972500Y-75922434D01*
X146851934Y-77043000D01*
X146757436Y-77043000D01*
X146650404Y-77064289D01*
X146549582Y-77106051D01*
X146458845Y-77166680D01*
X146381680Y-77243845D01*
X146321051Y-77334582D01*
X146279289Y-77435404D01*
X146258000Y-77542436D01*
X144000500Y-77542436D01*
X144000500Y-76492975D01*
X144067320Y-76426155D01*
X144127949Y-76335418D01*
X144169711Y-76234596D01*
X144191000Y-76127564D01*
X144191000Y-76018436D01*
X144169711Y-75911404D01*
X144127949Y-75810582D01*
X144067320Y-75719845D01*
X143990155Y-75642680D01*
X143899418Y-75582051D01*
X143798596Y-75540289D01*
X143691564Y-75519000D01*
X143582436Y-75519000D01*
X143475404Y-75540289D01*
X143374582Y-75582051D01*
X143283845Y-75642680D01*
X143206680Y-75719845D01*
X143146051Y-75810582D01*
X143104289Y-75911404D01*
X143083000Y-76018436D01*
X125979200Y-76018436D01*
X125979200Y-73535616D01*
X127248244Y-73535616D01*
X127252885Y-73561621D01*
X127297941Y-73711837D01*
X127371437Y-73850377D01*
X127470548Y-73971917D01*
X127591466Y-74071786D01*
X127729544Y-74146146D01*
X127879476Y-74192140D01*
X128035500Y-74208000D01*
X128335500Y-74208000D01*
X128335500Y-73410500D01*
X128340500Y-73410500D01*
X128340500Y-74208000D01*
X128640500Y-74208000D01*
X128796524Y-74192140D01*
X128946456Y-74146146D01*
X129084534Y-74071786D01*
X129205452Y-73971917D01*
X129304563Y-73850377D01*
X129378059Y-73711837D01*
X129409973Y-73605436D01*
X130129000Y-73605436D01*
X130129000Y-73714564D01*
X130150289Y-73821596D01*
X130192051Y-73922418D01*
X130252680Y-74013155D01*
X130329845Y-74090320D01*
X130420582Y-74150949D01*
X130521404Y-74192711D01*
X130628436Y-74214000D01*
X130722934Y-74214000D01*
X131175350Y-74666417D01*
X131186724Y-74680276D01*
X131200582Y-74691649D01*
X131200588Y-74691655D01*
X131242073Y-74725701D01*
X131305220Y-74759453D01*
X131305222Y-74759454D01*
X131373742Y-74780240D01*
X131427150Y-74785500D01*
X131427160Y-74785500D01*
X131445000Y-74787257D01*
X131462840Y-74785500D01*
X134221160Y-74785500D01*
X134239000Y-74787257D01*
X134256840Y-74785500D01*
X134256850Y-74785500D01*
X134310258Y-74780240D01*
X134378778Y-74759454D01*
X134441926Y-74725701D01*
X134497276Y-74680276D01*
X134508654Y-74666412D01*
X134580066Y-74595000D01*
X134674564Y-74595000D01*
X134781596Y-74573711D01*
X134882418Y-74531949D01*
X134973155Y-74471320D01*
X135050320Y-74394155D01*
X135110949Y-74303418D01*
X135152711Y-74202596D01*
X135174000Y-74095564D01*
X135174000Y-73986436D01*
X135152711Y-73879404D01*
X135110949Y-73778582D01*
X135050320Y-73687845D01*
X134973155Y-73610680D01*
X134882418Y-73550051D01*
X134781596Y-73508289D01*
X134674564Y-73487000D01*
X134565436Y-73487000D01*
X134458404Y-73508289D01*
X134357582Y-73550051D01*
X134266845Y-73610680D01*
X134189680Y-73687845D01*
X134129051Y-73778582D01*
X134087289Y-73879404D01*
X134066000Y-73986436D01*
X134066000Y-74058500D01*
X133530620Y-74058500D01*
X133635452Y-73971917D01*
X133734563Y-73850377D01*
X133808059Y-73711837D01*
X133853115Y-73561621D01*
X133857756Y-73535616D01*
X133828160Y-73478436D01*
X145623000Y-73478436D01*
X145623000Y-73587564D01*
X145644289Y-73694596D01*
X145686051Y-73795418D01*
X145746680Y-73886155D01*
X145823845Y-73963320D01*
X145914582Y-74023949D01*
X146015404Y-74065711D01*
X146122436Y-74087000D01*
X146231564Y-74087000D01*
X146338596Y-74065711D01*
X146439418Y-74023949D01*
X146530155Y-73963320D01*
X146607320Y-73886155D01*
X146667949Y-73795418D01*
X146709711Y-73694596D01*
X146731000Y-73587564D01*
X146731000Y-73478436D01*
X146766000Y-73478436D01*
X146766000Y-73587564D01*
X146787289Y-73694596D01*
X146829051Y-73795418D01*
X146889680Y-73886155D01*
X146966845Y-73963320D01*
X147057582Y-74023949D01*
X147158404Y-74065711D01*
X147265436Y-74087000D01*
X147374564Y-74087000D01*
X147481596Y-74065711D01*
X147582418Y-74023949D01*
X147673155Y-73963320D01*
X147750320Y-73886155D01*
X147810949Y-73795418D01*
X147852711Y-73694596D01*
X147874000Y-73587564D01*
X147874000Y-73478436D01*
X147852711Y-73371404D01*
X147810949Y-73270582D01*
X147750320Y-73179845D01*
X147673155Y-73102680D01*
X147582418Y-73042051D01*
X147481596Y-73000289D01*
X147374564Y-72979000D01*
X147265436Y-72979000D01*
X147158404Y-73000289D01*
X147057582Y-73042051D01*
X146966845Y-73102680D01*
X146889680Y-73179845D01*
X146829051Y-73270582D01*
X146787289Y-73371404D01*
X146766000Y-73478436D01*
X146731000Y-73478436D01*
X146709711Y-73371404D01*
X146667949Y-73270582D01*
X146607320Y-73179845D01*
X146530155Y-73102680D01*
X146439418Y-73042051D01*
X146338596Y-73000289D01*
X146231564Y-72979000D01*
X146122436Y-72979000D01*
X146015404Y-73000289D01*
X145914582Y-73042051D01*
X145823845Y-73102680D01*
X145746680Y-73179845D01*
X145686051Y-73270582D01*
X145644289Y-73371404D01*
X145623000Y-73478436D01*
X133828160Y-73478436D01*
X133792996Y-73410500D01*
X132520500Y-73410500D01*
X132520500Y-73430500D01*
X132515500Y-73430500D01*
X132515500Y-73410500D01*
X132495500Y-73410500D01*
X132495500Y-73405500D01*
X132515500Y-73405500D01*
X132515500Y-72608000D01*
X132520500Y-72608000D01*
X132520500Y-73405500D01*
X133792996Y-73405500D01*
X133857756Y-73280384D01*
X133853115Y-73254379D01*
X133808059Y-73104163D01*
X133734563Y-72965623D01*
X133635452Y-72844083D01*
X133514534Y-72744214D01*
X133376456Y-72669854D01*
X133226524Y-72623860D01*
X133070500Y-72608000D01*
X132520500Y-72608000D01*
X132515500Y-72608000D01*
X131965500Y-72608000D01*
X131809476Y-72623860D01*
X131659544Y-72669854D01*
X131521466Y-72744214D01*
X131400548Y-72844083D01*
X131301437Y-72965623D01*
X131227941Y-73104163D01*
X131182885Y-73254379D01*
X131178244Y-73280384D01*
X131243003Y-73405498D01*
X131177228Y-73405498D01*
X131173949Y-73397582D01*
X131113320Y-73306845D01*
X131036155Y-73229680D01*
X130945418Y-73169051D01*
X130844596Y-73127289D01*
X130737564Y-73106000D01*
X130628436Y-73106000D01*
X130521404Y-73127289D01*
X130420582Y-73169051D01*
X130329845Y-73229680D01*
X130252680Y-73306845D01*
X130192051Y-73397582D01*
X130150289Y-73498404D01*
X130129000Y-73605436D01*
X129409973Y-73605436D01*
X129423115Y-73561621D01*
X129427756Y-73535616D01*
X129362996Y-73410500D01*
X128340500Y-73410500D01*
X128335500Y-73410500D01*
X127313004Y-73410500D01*
X127248244Y-73535616D01*
X125979200Y-73535616D01*
X125979200Y-73280384D01*
X127248244Y-73280384D01*
X127313004Y-73405500D01*
X128335500Y-73405500D01*
X128335500Y-72608000D01*
X128340500Y-72608000D01*
X128340500Y-73405500D01*
X129362996Y-73405500D01*
X129427756Y-73280384D01*
X129423115Y-73254379D01*
X129378059Y-73104163D01*
X129304563Y-72965623D01*
X129205452Y-72844083D01*
X129084534Y-72744214D01*
X128946456Y-72669854D01*
X128796524Y-72623860D01*
X128640500Y-72608000D01*
X128340500Y-72608000D01*
X128335500Y-72608000D01*
X128035500Y-72608000D01*
X127879476Y-72623860D01*
X127729544Y-72669854D01*
X127591466Y-72744214D01*
X127470548Y-72844083D01*
X127371437Y-72965623D01*
X127297941Y-73104163D01*
X127252885Y-73254379D01*
X127248244Y-73280384D01*
X125979200Y-73280384D01*
X125979200Y-66136443D01*
X131393000Y-66136443D01*
X131393000Y-66259557D01*
X131417019Y-66380306D01*
X131464132Y-66494048D01*
X131532531Y-66596414D01*
X131619586Y-66683469D01*
X131721952Y-66751868D01*
X131835694Y-66798981D01*
X131956443Y-66823000D01*
X132079557Y-66823000D01*
X132200306Y-66798981D01*
X132314048Y-66751868D01*
X132416414Y-66683469D01*
X132503469Y-66596414D01*
X132571868Y-66494048D01*
X132618981Y-66380306D01*
X132643000Y-66259557D01*
X132643000Y-66136443D01*
X132618981Y-66015694D01*
X132571868Y-65901952D01*
X132503469Y-65799586D01*
X132416414Y-65712531D01*
X132314048Y-65644132D01*
X132200306Y-65597019D01*
X132079557Y-65573000D01*
X131956443Y-65573000D01*
X131835694Y-65597019D01*
X131721952Y-65644132D01*
X131619586Y-65712531D01*
X131532531Y-65799586D01*
X131464132Y-65901952D01*
X131417019Y-66015694D01*
X131393000Y-66136443D01*
X125979200Y-66136443D01*
X125979200Y-64895616D01*
X127248244Y-64895616D01*
X127252885Y-64921621D01*
X127297941Y-65071837D01*
X127371437Y-65210377D01*
X127470548Y-65331917D01*
X127591466Y-65431786D01*
X127729544Y-65506146D01*
X127879476Y-65552140D01*
X128035500Y-65568000D01*
X128335500Y-65568000D01*
X128335500Y-64770500D01*
X128340500Y-64770500D01*
X128340500Y-65568000D01*
X128640500Y-65568000D01*
X128796524Y-65552140D01*
X128946456Y-65506146D01*
X129084534Y-65431786D01*
X129205452Y-65331917D01*
X129304563Y-65210377D01*
X129378059Y-65071837D01*
X129423115Y-64921621D01*
X129427756Y-64895616D01*
X131178244Y-64895616D01*
X131182885Y-64921621D01*
X131227941Y-65071837D01*
X131301437Y-65210377D01*
X131400548Y-65331917D01*
X131521466Y-65431786D01*
X131659544Y-65506146D01*
X131809476Y-65552140D01*
X131965500Y-65568000D01*
X132515500Y-65568000D01*
X132515500Y-64770500D01*
X132520500Y-64770500D01*
X132520500Y-65568000D01*
X133070500Y-65568000D01*
X133226524Y-65552140D01*
X133376456Y-65506146D01*
X133514534Y-65431786D01*
X133635452Y-65331917D01*
X133734563Y-65210377D01*
X133808059Y-65071837D01*
X133853115Y-64921621D01*
X133857756Y-64895616D01*
X133792996Y-64770500D01*
X132520500Y-64770500D01*
X132515500Y-64770500D01*
X131243004Y-64770500D01*
X131178244Y-64895616D01*
X129427756Y-64895616D01*
X129362996Y-64770500D01*
X128340500Y-64770500D01*
X128335500Y-64770500D01*
X127313004Y-64770500D01*
X127248244Y-64895616D01*
X125979200Y-64895616D01*
X125979200Y-64640384D01*
X127248244Y-64640384D01*
X127313004Y-64765500D01*
X128335500Y-64765500D01*
X128335500Y-63968000D01*
X128340500Y-63968000D01*
X128340500Y-64765500D01*
X129362996Y-64765500D01*
X129427756Y-64640384D01*
X129423115Y-64614379D01*
X129378059Y-64464163D01*
X129304563Y-64325623D01*
X129205452Y-64204083D01*
X129084534Y-64104214D01*
X128946456Y-64029854D01*
X128796524Y-63983860D01*
X128640500Y-63968000D01*
X128340500Y-63968000D01*
X128335500Y-63968000D01*
X128035500Y-63968000D01*
X127879476Y-63983860D01*
X127729544Y-64029854D01*
X127591466Y-64104214D01*
X127470548Y-64204083D01*
X127371437Y-64325623D01*
X127297941Y-64464163D01*
X127252885Y-64614379D01*
X127248244Y-64640384D01*
X125979200Y-64640384D01*
X125979200Y-63318436D01*
X127589000Y-63318436D01*
X127589000Y-63427564D01*
X127610289Y-63534596D01*
X127652051Y-63635418D01*
X127712680Y-63726155D01*
X127789845Y-63803320D01*
X127880582Y-63863949D01*
X127981404Y-63905711D01*
X128088436Y-63927000D01*
X128197564Y-63927000D01*
X128304596Y-63905711D01*
X128405418Y-63863949D01*
X128496155Y-63803320D01*
X128573320Y-63726155D01*
X128633949Y-63635418D01*
X128675711Y-63534596D01*
X128697000Y-63427564D01*
X128697000Y-63318436D01*
X128986000Y-63318436D01*
X128986000Y-63427564D01*
X129007289Y-63534596D01*
X129049051Y-63635418D01*
X129109680Y-63726155D01*
X129186845Y-63803320D01*
X129277582Y-63863949D01*
X129378404Y-63905711D01*
X129485436Y-63927000D01*
X129534510Y-63927000D01*
X129515289Y-63973404D01*
X129494000Y-64080436D01*
X129494000Y-64189564D01*
X129515289Y-64296596D01*
X129557051Y-64397418D01*
X129617680Y-64488155D01*
X129694845Y-64565320D01*
X129785582Y-64625949D01*
X129886404Y-64667711D01*
X129993436Y-64689000D01*
X130102564Y-64689000D01*
X130209596Y-64667711D01*
X130310418Y-64625949D01*
X130365500Y-64589144D01*
X130420582Y-64625949D01*
X130521404Y-64667711D01*
X130628436Y-64689000D01*
X130737564Y-64689000D01*
X130844596Y-64667711D01*
X130910568Y-64640384D01*
X131178244Y-64640384D01*
X131243004Y-64765500D01*
X132515500Y-64765500D01*
X132515500Y-63968000D01*
X132520500Y-63968000D01*
X132520500Y-64765500D01*
X133792996Y-64765500D01*
X133857756Y-64640384D01*
X133853115Y-64614379D01*
X133808059Y-64464163D01*
X133734563Y-64325623D01*
X133635452Y-64204083D01*
X133514534Y-64104214D01*
X133376456Y-64029854D01*
X133226524Y-63983860D01*
X133070500Y-63968000D01*
X132520500Y-63968000D01*
X132515500Y-63968000D01*
X131965500Y-63968000D01*
X131809476Y-63983860D01*
X131659544Y-64029854D01*
X131521466Y-64104214D01*
X131400548Y-64204083D01*
X131301437Y-64325623D01*
X131227941Y-64464163D01*
X131182885Y-64614379D01*
X131178244Y-64640384D01*
X130910568Y-64640384D01*
X130945418Y-64625949D01*
X131036155Y-64565320D01*
X131113320Y-64488155D01*
X131173949Y-64397418D01*
X131215711Y-64296596D01*
X131237000Y-64189564D01*
X131237000Y-64080436D01*
X131215711Y-63973404D01*
X131173949Y-63872582D01*
X131113320Y-63781845D01*
X131036155Y-63704680D01*
X130945418Y-63644051D01*
X130844596Y-63602289D01*
X130737564Y-63581000D01*
X130628436Y-63581000D01*
X130521404Y-63602289D01*
X130420582Y-63644051D01*
X130365500Y-63680856D01*
X130310418Y-63644051D01*
X130209596Y-63602289D01*
X130102564Y-63581000D01*
X130053490Y-63581000D01*
X130072711Y-63534596D01*
X130094000Y-63427564D01*
X130094000Y-63318436D01*
X130072711Y-63211404D01*
X130030949Y-63110582D01*
X129970320Y-63019845D01*
X129893155Y-62942680D01*
X129802418Y-62882051D01*
X129701596Y-62840289D01*
X129594564Y-62819000D01*
X129485436Y-62819000D01*
X129378404Y-62840289D01*
X129277582Y-62882051D01*
X129186845Y-62942680D01*
X129109680Y-63019845D01*
X129049051Y-63110582D01*
X129007289Y-63211404D01*
X128986000Y-63318436D01*
X128697000Y-63318436D01*
X128675711Y-63211404D01*
X128633949Y-63110582D01*
X128595711Y-63053355D01*
X129314516Y-62334551D01*
X129328375Y-62323177D01*
X129339748Y-62309319D01*
X129339754Y-62309313D01*
X129373799Y-62267828D01*
X129407552Y-62204680D01*
X129407553Y-62204679D01*
X129428339Y-62136159D01*
X129433599Y-62082751D01*
X129433599Y-62082741D01*
X129435356Y-62064901D01*
X129433735Y-62048436D01*
X134574000Y-62048436D01*
X134574000Y-62157564D01*
X134595289Y-62264596D01*
X134637051Y-62365418D01*
X134697680Y-62456155D01*
X134774845Y-62533320D01*
X134865582Y-62593949D01*
X134966404Y-62635711D01*
X135073436Y-62657000D01*
X135182564Y-62657000D01*
X135289596Y-62635711D01*
X135390418Y-62593949D01*
X135481155Y-62533320D01*
X135558320Y-62456155D01*
X135618949Y-62365418D01*
X135660711Y-62264596D01*
X135678445Y-62175436D01*
X137622000Y-62175436D01*
X137622000Y-62284564D01*
X137643289Y-62391596D01*
X137685051Y-62492418D01*
X137745680Y-62583155D01*
X137822845Y-62660320D01*
X137913582Y-62720949D01*
X138014404Y-62762711D01*
X138121436Y-62784000D01*
X138230564Y-62784000D01*
X138337596Y-62762711D01*
X138438418Y-62720949D01*
X138529155Y-62660320D01*
X138606320Y-62583155D01*
X138666949Y-62492418D01*
X138708711Y-62391596D01*
X138730000Y-62284564D01*
X138730000Y-62175436D01*
X138708711Y-62068404D01*
X138666949Y-61967582D01*
X138606320Y-61876845D01*
X138529155Y-61799680D01*
X138438418Y-61739051D01*
X138337596Y-61697289D01*
X138230564Y-61676000D01*
X138121436Y-61676000D01*
X138014404Y-61697289D01*
X137913582Y-61739051D01*
X137822845Y-61799680D01*
X137745680Y-61876845D01*
X137685051Y-61967582D01*
X137643289Y-62068404D01*
X137622000Y-62175436D01*
X135678445Y-62175436D01*
X135682000Y-62157564D01*
X135682000Y-62048436D01*
X135660711Y-61941404D01*
X135618949Y-61840582D01*
X135558320Y-61749845D01*
X135481155Y-61672680D01*
X135390418Y-61612051D01*
X135289596Y-61570289D01*
X135182564Y-61549000D01*
X135073436Y-61549000D01*
X134966404Y-61570289D01*
X134865582Y-61612051D01*
X134774845Y-61672680D01*
X134697680Y-61749845D01*
X134637051Y-61840582D01*
X134595289Y-61941404D01*
X134574000Y-62048436D01*
X129433735Y-62048436D01*
X129433599Y-62047061D01*
X129433599Y-60954047D01*
X129938488Y-60954047D01*
X129957648Y-61068224D01*
X130059861Y-61127564D01*
X130171686Y-61165823D01*
X130288828Y-61181531D01*
X130406782Y-61174085D01*
X130521018Y-61143769D01*
X130627144Y-61091749D01*
X130662352Y-61068224D01*
X130681512Y-60954047D01*
X130938488Y-60954047D01*
X130957648Y-61068224D01*
X131059861Y-61127564D01*
X131171686Y-61165823D01*
X131288828Y-61181531D01*
X131406782Y-61174085D01*
X131521018Y-61143769D01*
X131627144Y-61091749D01*
X131662352Y-61068224D01*
X131681512Y-60954047D01*
X131310000Y-60582536D01*
X130938488Y-60954047D01*
X130681512Y-60954047D01*
X130310000Y-60582536D01*
X129938488Y-60954047D01*
X129433599Y-60954047D01*
X129433599Y-60557828D01*
X129707469Y-60557828D01*
X129714915Y-60675782D01*
X129745231Y-60790018D01*
X129797251Y-60896144D01*
X129820776Y-60931352D01*
X129934953Y-60950512D01*
X130306464Y-60579000D01*
X130313536Y-60579000D01*
X130685047Y-60950512D01*
X130799224Y-60931352D01*
X130809244Y-60914093D01*
X130820776Y-60931352D01*
X130934953Y-60950512D01*
X131306464Y-60579000D01*
X131313536Y-60579000D01*
X131685047Y-60950512D01*
X131799224Y-60931352D01*
X131858564Y-60829139D01*
X131896823Y-60717314D01*
X131912531Y-60600172D01*
X131905085Y-60482218D01*
X131874769Y-60367982D01*
X131822749Y-60261856D01*
X131799224Y-60226648D01*
X131685047Y-60207488D01*
X131313536Y-60579000D01*
X131306464Y-60579000D01*
X130934953Y-60207488D01*
X130820776Y-60226648D01*
X130810756Y-60243907D01*
X130799224Y-60226648D01*
X130685047Y-60207488D01*
X130313536Y-60579000D01*
X130306464Y-60579000D01*
X129934953Y-60207488D01*
X129820776Y-60226648D01*
X129761436Y-60328861D01*
X129723177Y-60440686D01*
X129707469Y-60557828D01*
X129433599Y-60557828D01*
X129433599Y-60203953D01*
X129938488Y-60203953D01*
X130310000Y-60575464D01*
X130681512Y-60203953D01*
X130938488Y-60203953D01*
X131310000Y-60575464D01*
X131681512Y-60203953D01*
X131662352Y-60089776D01*
X131560139Y-60030436D01*
X131448314Y-59992177D01*
X131331172Y-59976469D01*
X131213218Y-59983915D01*
X131098982Y-60014231D01*
X130992856Y-60066251D01*
X130957648Y-60089776D01*
X130938488Y-60203953D01*
X130681512Y-60203953D01*
X130662352Y-60089776D01*
X130560139Y-60030436D01*
X130448314Y-59992177D01*
X130331172Y-59976469D01*
X130213218Y-59983915D01*
X130098982Y-60014231D01*
X129992856Y-60066251D01*
X129957648Y-60089776D01*
X129938488Y-60203953D01*
X129433599Y-60203953D01*
X129433599Y-60056467D01*
X129500066Y-59990000D01*
X129594564Y-59990000D01*
X129701596Y-59968711D01*
X129802418Y-59926949D01*
X129893155Y-59866320D01*
X129970320Y-59789155D01*
X130030949Y-59698418D01*
X130072711Y-59597596D01*
X130094000Y-59490564D01*
X130094000Y-59381436D01*
X130072711Y-59274404D01*
X130030949Y-59173582D01*
X129970320Y-59082845D01*
X129893155Y-59005680D01*
X129802418Y-58945051D01*
X129701596Y-58903289D01*
X129600643Y-58883209D01*
X129649949Y-58809418D01*
X129691711Y-58708596D01*
X129709445Y-58619436D01*
X138638000Y-58619436D01*
X138638000Y-58728564D01*
X138659289Y-58835596D01*
X138701051Y-58936418D01*
X138761680Y-59027155D01*
X138838845Y-59104320D01*
X138929582Y-59164949D01*
X139030404Y-59206711D01*
X139137436Y-59228000D01*
X139246564Y-59228000D01*
X139353596Y-59206711D01*
X139454418Y-59164949D01*
X139545155Y-59104320D01*
X139622320Y-59027155D01*
X139682949Y-58936418D01*
X139724711Y-58835596D01*
X139746000Y-58728564D01*
X139746000Y-58619436D01*
X139724711Y-58512404D01*
X139682949Y-58411582D01*
X139652115Y-58365436D01*
X145115000Y-58365436D01*
X145115000Y-58474564D01*
X145136289Y-58581596D01*
X145178051Y-58682418D01*
X145238680Y-58773155D01*
X145315845Y-58850320D01*
X145406582Y-58910949D01*
X145507404Y-58952711D01*
X145614436Y-58974000D01*
X145723564Y-58974000D01*
X145830596Y-58952711D01*
X145931418Y-58910949D01*
X146022155Y-58850320D01*
X146099320Y-58773155D01*
X146159949Y-58682418D01*
X146201711Y-58581596D01*
X146223000Y-58474564D01*
X146223000Y-58365436D01*
X150830000Y-58365436D01*
X150830000Y-58474564D01*
X150851289Y-58581596D01*
X150893051Y-58682418D01*
X150953680Y-58773155D01*
X151030845Y-58850320D01*
X151121582Y-58910949D01*
X151222404Y-58952711D01*
X151329436Y-58974000D01*
X151438564Y-58974000D01*
X151545596Y-58952711D01*
X151646418Y-58910949D01*
X151737155Y-58850320D01*
X151814320Y-58773155D01*
X151874949Y-58682418D01*
X151916711Y-58581596D01*
X151938000Y-58474564D01*
X151938000Y-58365436D01*
X151916711Y-58258404D01*
X151874949Y-58157582D01*
X151814320Y-58066845D01*
X151737155Y-57989680D01*
X151646418Y-57929051D01*
X151545596Y-57887289D01*
X151438564Y-57866000D01*
X151329436Y-57866000D01*
X151222404Y-57887289D01*
X151121582Y-57929051D01*
X151030845Y-57989680D01*
X150953680Y-58066845D01*
X150893051Y-58157582D01*
X150851289Y-58258404D01*
X150830000Y-58365436D01*
X146223000Y-58365436D01*
X146201711Y-58258404D01*
X146159949Y-58157582D01*
X146099320Y-58066845D01*
X146022155Y-57989680D01*
X145931418Y-57929051D01*
X145830596Y-57887289D01*
X145723564Y-57866000D01*
X145614436Y-57866000D01*
X145507404Y-57887289D01*
X145406582Y-57929051D01*
X145315845Y-57989680D01*
X145238680Y-58066845D01*
X145178051Y-58157582D01*
X145136289Y-58258404D01*
X145115000Y-58365436D01*
X139652115Y-58365436D01*
X139622320Y-58320845D01*
X139545155Y-58243680D01*
X139454418Y-58183051D01*
X139353596Y-58141289D01*
X139246564Y-58120000D01*
X139137436Y-58120000D01*
X139030404Y-58141289D01*
X138929582Y-58183051D01*
X138838845Y-58243680D01*
X138761680Y-58320845D01*
X138701051Y-58411582D01*
X138659289Y-58512404D01*
X138638000Y-58619436D01*
X129709445Y-58619436D01*
X129713000Y-58601564D01*
X129713000Y-58492436D01*
X129691711Y-58385404D01*
X129649949Y-58284582D01*
X129589320Y-58193845D01*
X129512155Y-58116680D01*
X129490933Y-58102500D01*
X129512155Y-58088320D01*
X129589320Y-58011155D01*
X129649949Y-57920418D01*
X129691711Y-57819596D01*
X129713000Y-57712564D01*
X129713000Y-57603436D01*
X129691711Y-57496404D01*
X129683440Y-57476436D01*
X137368000Y-57476436D01*
X137368000Y-57585564D01*
X137389289Y-57692596D01*
X137431051Y-57793418D01*
X137491680Y-57884155D01*
X137568845Y-57961320D01*
X137659582Y-58021949D01*
X137760404Y-58063711D01*
X137867436Y-58085000D01*
X137976564Y-58085000D01*
X138083596Y-58063711D01*
X138184418Y-58021949D01*
X138275155Y-57961320D01*
X138352320Y-57884155D01*
X138412949Y-57793418D01*
X138454711Y-57692596D01*
X138476000Y-57585564D01*
X138476000Y-57476436D01*
X138454711Y-57369404D01*
X138412949Y-57268582D01*
X138352320Y-57177845D01*
X138275155Y-57100680D01*
X138184418Y-57040051D01*
X138083596Y-56998289D01*
X137976564Y-56977000D01*
X137867436Y-56977000D01*
X137760404Y-56998289D01*
X137659582Y-57040051D01*
X137568845Y-57100680D01*
X137491680Y-57177845D01*
X137431051Y-57268582D01*
X137389289Y-57369404D01*
X137368000Y-57476436D01*
X129683440Y-57476436D01*
X129649949Y-57395582D01*
X129589320Y-57304845D01*
X129561475Y-57277000D01*
X129589320Y-57249155D01*
X129649949Y-57158418D01*
X129691711Y-57057596D01*
X129713000Y-56950564D01*
X129713000Y-56841436D01*
X129691711Y-56734404D01*
X129649949Y-56633582D01*
X129643880Y-56624499D01*
X148053889Y-56624499D01*
X148036000Y-56714436D01*
X148036000Y-56823564D01*
X148057289Y-56930596D01*
X148099051Y-57031418D01*
X148159680Y-57122155D01*
X148236845Y-57199320D01*
X148327582Y-57259949D01*
X148428404Y-57301711D01*
X148535436Y-57323000D01*
X148644564Y-57323000D01*
X148751596Y-57301711D01*
X148852418Y-57259949D01*
X148943155Y-57199320D01*
X148971000Y-57171475D01*
X148998845Y-57199320D01*
X149089582Y-57259949D01*
X149190404Y-57301711D01*
X149297436Y-57323000D01*
X149406564Y-57323000D01*
X149513596Y-57301711D01*
X149614418Y-57259949D01*
X149705155Y-57199320D01*
X149782320Y-57122155D01*
X149842949Y-57031418D01*
X149884711Y-56930596D01*
X149906000Y-56823564D01*
X149906000Y-56714436D01*
X149888111Y-56624499D01*
X151239161Y-56624499D01*
X151257001Y-56626256D01*
X151274841Y-56624499D01*
X151274851Y-56624499D01*
X151328259Y-56619239D01*
X151396779Y-56598453D01*
X151459927Y-56564700D01*
X151515277Y-56519275D01*
X151526655Y-56505411D01*
X152360067Y-55672000D01*
X152454564Y-55672000D01*
X152561596Y-55650711D01*
X152662418Y-55608949D01*
X152709600Y-55577423D01*
X152709599Y-58364702D01*
X151968277Y-59106025D01*
X151968272Y-59106029D01*
X149899361Y-61174941D01*
X149906000Y-61141564D01*
X149906000Y-61032436D01*
X149884711Y-60925404D01*
X149842949Y-60824582D01*
X149782320Y-60733845D01*
X149705155Y-60656680D01*
X149614418Y-60596051D01*
X149513596Y-60554289D01*
X149478558Y-60547320D01*
X149503711Y-60486596D01*
X149525000Y-60379564D01*
X149525000Y-60270436D01*
X149503711Y-60163404D01*
X149461949Y-60062582D01*
X149401320Y-59971845D01*
X149324155Y-59894680D01*
X149233418Y-59834051D01*
X149132596Y-59792289D01*
X149025564Y-59771000D01*
X148916436Y-59771000D01*
X148809404Y-59792289D01*
X148708582Y-59834051D01*
X148617845Y-59894680D01*
X148540680Y-59971845D01*
X148480051Y-60062582D01*
X148438289Y-60163404D01*
X148417000Y-60270436D01*
X148417000Y-60379564D01*
X148438289Y-60486596D01*
X148480051Y-60587418D01*
X148540680Y-60678155D01*
X148617845Y-60755320D01*
X148708582Y-60815949D01*
X148809404Y-60857711D01*
X148844442Y-60864680D01*
X148819289Y-60925404D01*
X148798000Y-61032436D01*
X148798000Y-61141564D01*
X148819289Y-61248596D01*
X148861051Y-61349418D01*
X148921680Y-61440155D01*
X148998845Y-61517320D01*
X149089582Y-61577949D01*
X149190404Y-61619711D01*
X149297436Y-61641000D01*
X149406564Y-61641000D01*
X149439940Y-61634361D01*
X148128312Y-62945990D01*
X138136715Y-62945990D01*
X138118875Y-62944233D01*
X138101035Y-62945990D01*
X138101027Y-62945990D01*
X138047619Y-62951250D01*
X137979099Y-62972036D01*
X137915951Y-63005789D01*
X137860601Y-63051214D01*
X137849222Y-63065079D01*
X137713108Y-63201195D01*
X137677588Y-63230345D01*
X137677582Y-63230351D01*
X137663724Y-63241724D01*
X137652351Y-63255582D01*
X134558645Y-66349289D01*
X134501418Y-66311051D01*
X134400596Y-66269289D01*
X134293564Y-66248000D01*
X134184436Y-66248000D01*
X134077404Y-66269289D01*
X133976582Y-66311051D01*
X133885845Y-66371680D01*
X133808680Y-66448845D01*
X133748051Y-66539582D01*
X133706289Y-66640404D01*
X133685000Y-66747436D01*
X133685000Y-66856564D01*
X133706289Y-66963596D01*
X133748051Y-67064418D01*
X133808680Y-67155155D01*
X133815925Y-67162400D01*
X131140452Y-67162400D01*
X131122612Y-67160643D01*
X131104772Y-67162400D01*
X131104762Y-67162400D01*
X131051354Y-67167660D01*
X130982834Y-67188446D01*
X130919685Y-67222199D01*
X130878200Y-67256245D01*
X130878194Y-67256251D01*
X130864336Y-67267624D01*
X130852962Y-67281483D01*
X130273484Y-67860962D01*
X130259624Y-67872337D01*
X130248251Y-67886195D01*
X130248245Y-67886201D01*
X130219369Y-67921388D01*
X130214199Y-67927687D01*
X130180446Y-67990835D01*
X130159660Y-68059355D01*
X130154400Y-68112763D01*
X130154400Y-68112772D01*
X130152643Y-68130612D01*
X130154400Y-68148452D01*
X130154401Y-68778050D01*
X130152643Y-68795900D01*
X130159661Y-68867158D01*
X130180447Y-68935678D01*
X130214200Y-68998826D01*
X130248245Y-69040311D01*
X130248252Y-69040318D01*
X130259625Y-69054176D01*
X130273483Y-69065549D01*
X130926074Y-69718141D01*
X130926079Y-69718145D01*
X131272000Y-70064067D01*
X131272000Y-70158564D01*
X131293289Y-70265596D01*
X131335051Y-70366418D01*
X131395680Y-70457155D01*
X131423525Y-70485000D01*
X131395680Y-70512845D01*
X131335051Y-70603582D01*
X131293289Y-70704404D01*
X131272000Y-70811436D01*
X131272000Y-70920564D01*
X131293289Y-71027596D01*
X131335051Y-71128418D01*
X131395680Y-71219155D01*
X131472845Y-71296320D01*
X131563582Y-71356949D01*
X131664404Y-71398711D01*
X131744745Y-71414691D01*
X131721952Y-71424132D01*
X131619586Y-71492531D01*
X131532531Y-71579586D01*
X131464132Y-71681952D01*
X131417019Y-71795694D01*
X131393000Y-71916443D01*
X131393000Y-72039557D01*
X131417019Y-72160306D01*
X131464132Y-72274048D01*
X131532531Y-72376414D01*
X131619586Y-72463469D01*
X131721952Y-72531868D01*
X131835694Y-72578981D01*
X131956443Y-72603000D01*
X132079557Y-72603000D01*
X132200306Y-72578981D01*
X132314048Y-72531868D01*
X132416414Y-72463469D01*
X132503469Y-72376414D01*
X132571868Y-72274048D01*
X132618981Y-72160306D01*
X132643000Y-72039557D01*
X132643000Y-71916443D01*
X132618981Y-71795694D01*
X132571868Y-71681952D01*
X132503469Y-71579586D01*
X132416414Y-71492531D01*
X132314048Y-71424132D01*
X132200306Y-71377019D01*
X132090940Y-71355264D01*
X132179155Y-71296320D01*
X132256320Y-71219155D01*
X132316949Y-71128418D01*
X132358711Y-71027596D01*
X132380000Y-70920564D01*
X132380000Y-70811436D01*
X132358711Y-70704404D01*
X132316949Y-70603582D01*
X132256320Y-70512845D01*
X132228475Y-70485000D01*
X132256320Y-70457155D01*
X132274173Y-70430436D01*
X135971000Y-70430436D01*
X135971000Y-70539564D01*
X135992289Y-70646596D01*
X136034051Y-70747418D01*
X136094680Y-70838155D01*
X136171845Y-70915320D01*
X136262582Y-70975949D01*
X136363404Y-71017711D01*
X136470436Y-71039000D01*
X136579564Y-71039000D01*
X136686596Y-71017711D01*
X136787418Y-70975949D01*
X136878155Y-70915320D01*
X136955320Y-70838155D01*
X137015949Y-70747418D01*
X137057711Y-70646596D01*
X137079000Y-70539564D01*
X137079000Y-70430436D01*
X137057711Y-70323404D01*
X137015949Y-70222582D01*
X136985115Y-70176436D01*
X143591000Y-70176436D01*
X143591000Y-70285564D01*
X143612289Y-70392596D01*
X143654051Y-70493418D01*
X143714680Y-70584155D01*
X143791845Y-70661320D01*
X143882582Y-70721949D01*
X143983404Y-70763711D01*
X144090436Y-70785000D01*
X144199564Y-70785000D01*
X144306596Y-70763711D01*
X144407418Y-70721949D01*
X144498155Y-70661320D01*
X144575320Y-70584155D01*
X144635949Y-70493418D01*
X144677711Y-70392596D01*
X144699000Y-70285564D01*
X144699000Y-70176436D01*
X144677711Y-70069404D01*
X144635949Y-69968582D01*
X144575320Y-69877845D01*
X144498155Y-69800680D01*
X144407418Y-69740051D01*
X144306596Y-69698289D01*
X144199564Y-69677000D01*
X144090436Y-69677000D01*
X143983404Y-69698289D01*
X143882582Y-69740051D01*
X143791845Y-69800680D01*
X143714680Y-69877845D01*
X143654051Y-69968582D01*
X143612289Y-70069404D01*
X143591000Y-70176436D01*
X136985115Y-70176436D01*
X136955320Y-70131845D01*
X136878155Y-70054680D01*
X136787418Y-69994051D01*
X136686596Y-69952289D01*
X136579564Y-69931000D01*
X136470436Y-69931000D01*
X136363404Y-69952289D01*
X136262582Y-69994051D01*
X136171845Y-70054680D01*
X136094680Y-70131845D01*
X136034051Y-70222582D01*
X135992289Y-70323404D01*
X135971000Y-70430436D01*
X132274173Y-70430436D01*
X132316949Y-70366418D01*
X132358711Y-70265596D01*
X132380000Y-70158564D01*
X132380000Y-70049436D01*
X132358711Y-69942404D01*
X132316949Y-69841582D01*
X132256320Y-69750845D01*
X132179155Y-69673680D01*
X132157933Y-69659500D01*
X132179155Y-69645320D01*
X132256320Y-69568155D01*
X132316949Y-69477418D01*
X132358711Y-69376596D01*
X132380000Y-69269564D01*
X132380000Y-69160436D01*
X132358711Y-69053404D01*
X132316949Y-68952582D01*
X132286115Y-68906436D01*
X135717000Y-68906436D01*
X135717000Y-69015564D01*
X135738289Y-69122596D01*
X135780051Y-69223418D01*
X135840680Y-69314155D01*
X135917845Y-69391320D01*
X136008582Y-69451949D01*
X136109404Y-69493711D01*
X136216436Y-69515000D01*
X136325564Y-69515000D01*
X136432596Y-69493711D01*
X136533418Y-69451949D01*
X136624155Y-69391320D01*
X136701320Y-69314155D01*
X136761949Y-69223418D01*
X136803711Y-69122596D01*
X136825000Y-69015564D01*
X136825000Y-68906436D01*
X136987000Y-68906436D01*
X136987000Y-69015564D01*
X137008289Y-69122596D01*
X137050051Y-69223418D01*
X137110680Y-69314155D01*
X137187845Y-69391320D01*
X137278582Y-69451949D01*
X137379404Y-69493711D01*
X137486436Y-69515000D01*
X137595564Y-69515000D01*
X137702596Y-69493711D01*
X137803418Y-69451949D01*
X137894155Y-69391320D01*
X137971320Y-69314155D01*
X137989173Y-69287436D01*
X139019000Y-69287436D01*
X139019000Y-69396564D01*
X139040289Y-69503596D01*
X139082051Y-69604418D01*
X139142680Y-69695155D01*
X139219845Y-69772320D01*
X139310582Y-69832949D01*
X139411404Y-69874711D01*
X139518436Y-69896000D01*
X139627564Y-69896000D01*
X139734596Y-69874711D01*
X139835418Y-69832949D01*
X139926155Y-69772320D01*
X139954000Y-69744475D01*
X139981845Y-69772320D01*
X140072582Y-69832949D01*
X140173404Y-69874711D01*
X140280436Y-69896000D01*
X140389564Y-69896000D01*
X140496596Y-69874711D01*
X140597418Y-69832949D01*
X140688155Y-69772320D01*
X140765320Y-69695155D01*
X140825949Y-69604418D01*
X140867711Y-69503596D01*
X140889000Y-69396564D01*
X140889000Y-69287436D01*
X140867711Y-69180404D01*
X140825949Y-69079582D01*
X140765320Y-68988845D01*
X140688155Y-68911680D01*
X140597418Y-68851051D01*
X140496596Y-68809289D01*
X140389564Y-68788000D01*
X140280436Y-68788000D01*
X140173404Y-68809289D01*
X140072582Y-68851051D01*
X139981845Y-68911680D01*
X139954000Y-68939525D01*
X139926155Y-68911680D01*
X139835418Y-68851051D01*
X139734596Y-68809289D01*
X139627564Y-68788000D01*
X139518436Y-68788000D01*
X139411404Y-68809289D01*
X139310582Y-68851051D01*
X139219845Y-68911680D01*
X139142680Y-68988845D01*
X139082051Y-69079582D01*
X139040289Y-69180404D01*
X139019000Y-69287436D01*
X137989173Y-69287436D01*
X138031949Y-69223418D01*
X138073711Y-69122596D01*
X138095000Y-69015564D01*
X138095000Y-68906436D01*
X138073711Y-68799404D01*
X138031949Y-68698582D01*
X137971320Y-68607845D01*
X137894155Y-68530680D01*
X137803418Y-68470051D01*
X137702596Y-68428289D01*
X137595564Y-68407000D01*
X137486436Y-68407000D01*
X137379404Y-68428289D01*
X137278582Y-68470051D01*
X137187845Y-68530680D01*
X137110680Y-68607845D01*
X137050051Y-68698582D01*
X137008289Y-68799404D01*
X136987000Y-68906436D01*
X136825000Y-68906436D01*
X136803711Y-68799404D01*
X136761949Y-68698582D01*
X136701320Y-68607845D01*
X136624155Y-68530680D01*
X136533418Y-68470051D01*
X136432596Y-68428289D01*
X136325564Y-68407000D01*
X136216436Y-68407000D01*
X136109404Y-68428289D01*
X136008582Y-68470051D01*
X135917845Y-68530680D01*
X135840680Y-68607845D01*
X135780051Y-68698582D01*
X135738289Y-68799404D01*
X135717000Y-68906436D01*
X132286115Y-68906436D01*
X132256320Y-68861845D01*
X132179155Y-68784680D01*
X132157933Y-68770500D01*
X132179155Y-68756320D01*
X132256320Y-68679155D01*
X132316949Y-68588418D01*
X132358711Y-68487596D01*
X132380000Y-68380564D01*
X132380000Y-68271436D01*
X132369690Y-68219600D01*
X134416548Y-68219600D01*
X134434388Y-68221357D01*
X134452228Y-68219600D01*
X134452238Y-68219600D01*
X134505646Y-68214340D01*
X134574166Y-68193554D01*
X134637314Y-68159801D01*
X134676537Y-68127611D01*
X134678799Y-68125755D01*
X134678800Y-68125754D01*
X134692664Y-68114376D01*
X134704042Y-68100512D01*
X135480252Y-67324302D01*
X135484289Y-67344596D01*
X135526051Y-67445418D01*
X135586680Y-67536155D01*
X135663845Y-67613320D01*
X135754582Y-67673949D01*
X135855404Y-67715711D01*
X135962436Y-67737000D01*
X136071564Y-67737000D01*
X136178596Y-67715711D01*
X136279418Y-67673949D01*
X136370155Y-67613320D01*
X136447320Y-67536155D01*
X136507949Y-67445418D01*
X136534037Y-67382436D01*
X145242000Y-67382436D01*
X145242000Y-67491564D01*
X145263289Y-67598596D01*
X145305051Y-67699418D01*
X145365680Y-67790155D01*
X145442845Y-67867320D01*
X145533582Y-67927949D01*
X145634404Y-67969711D01*
X145741436Y-67991000D01*
X145850564Y-67991000D01*
X145957596Y-67969711D01*
X146058418Y-67927949D01*
X146149155Y-67867320D01*
X146226320Y-67790155D01*
X146286949Y-67699418D01*
X146328711Y-67598596D01*
X146350000Y-67491564D01*
X146350000Y-67382436D01*
X146328711Y-67275404D01*
X146286949Y-67174582D01*
X146226320Y-67083845D01*
X146149155Y-67006680D01*
X146058418Y-66946051D01*
X145957596Y-66904289D01*
X145850564Y-66883000D01*
X145741436Y-66883000D01*
X145634404Y-66904289D01*
X145533582Y-66946051D01*
X145442845Y-67006680D01*
X145365680Y-67083845D01*
X145305051Y-67174582D01*
X145263289Y-67275404D01*
X145242000Y-67382436D01*
X136534037Y-67382436D01*
X136549711Y-67344596D01*
X136571000Y-67237564D01*
X136571000Y-67128436D01*
X136549711Y-67021404D01*
X136507949Y-66920582D01*
X136447320Y-66829845D01*
X136370155Y-66752680D01*
X136279418Y-66692051D01*
X136178596Y-66650289D01*
X136158302Y-66646252D01*
X137962118Y-64842436D01*
X148290000Y-64842436D01*
X148290000Y-64951564D01*
X148311289Y-65058596D01*
X148353051Y-65159418D01*
X148413680Y-65250155D01*
X148490845Y-65327320D01*
X148581582Y-65387949D01*
X148682404Y-65429711D01*
X148789436Y-65451000D01*
X148898564Y-65451000D01*
X149005596Y-65429711D01*
X149106418Y-65387949D01*
X149197155Y-65327320D01*
X149274320Y-65250155D01*
X149334949Y-65159418D01*
X149376711Y-65058596D01*
X149398000Y-64951564D01*
X149398000Y-64842436D01*
X149376711Y-64735404D01*
X149334949Y-64634582D01*
X149274320Y-64543845D01*
X149197155Y-64466680D01*
X149106418Y-64406051D01*
X149005596Y-64364289D01*
X148898564Y-64343000D01*
X148789436Y-64343000D01*
X148682404Y-64364289D01*
X148581582Y-64406051D01*
X148490845Y-64466680D01*
X148413680Y-64543845D01*
X148353051Y-64634582D01*
X148311289Y-64735404D01*
X148290000Y-64842436D01*
X137962118Y-64842436D01*
X138521955Y-64282600D01*
X148513548Y-64282600D01*
X148531388Y-64284357D01*
X148549228Y-64282600D01*
X148549238Y-64282600D01*
X148602646Y-64277340D01*
X148671166Y-64256554D01*
X148734314Y-64222801D01*
X148789664Y-64177376D01*
X148801042Y-64163512D01*
X151932118Y-61032436D01*
X154513000Y-61032436D01*
X154513000Y-61141564D01*
X154534289Y-61248596D01*
X154576051Y-61349418D01*
X154636680Y-61440155D01*
X154713845Y-61517320D01*
X154804582Y-61577949D01*
X154905404Y-61619711D01*
X155012436Y-61641000D01*
X155121564Y-61641000D01*
X155228596Y-61619711D01*
X155329418Y-61577949D01*
X155420155Y-61517320D01*
X155497320Y-61440155D01*
X155557949Y-61349418D01*
X155599711Y-61248596D01*
X155621000Y-61141564D01*
X155621000Y-61092490D01*
X155667404Y-61111711D01*
X155774436Y-61133000D01*
X155883564Y-61133000D01*
X155990596Y-61111711D01*
X156091418Y-61069949D01*
X156182155Y-61009320D01*
X156259320Y-60932155D01*
X156319949Y-60841418D01*
X156361711Y-60740596D01*
X156383000Y-60633564D01*
X156383000Y-60524436D01*
X156361711Y-60417404D01*
X156319949Y-60316582D01*
X156259320Y-60225845D01*
X156182155Y-60148680D01*
X156091418Y-60088051D01*
X155990596Y-60046289D01*
X155883564Y-60025000D01*
X155774436Y-60025000D01*
X155667404Y-60046289D01*
X155566582Y-60088051D01*
X155475845Y-60148680D01*
X155398680Y-60225845D01*
X155338051Y-60316582D01*
X155296289Y-60417404D01*
X155275000Y-60524436D01*
X155275000Y-60573510D01*
X155228596Y-60554289D01*
X155121564Y-60533000D01*
X155012436Y-60533000D01*
X154905404Y-60554289D01*
X154804582Y-60596051D01*
X154713845Y-60656680D01*
X154636680Y-60733845D01*
X154576051Y-60824582D01*
X154534289Y-60925404D01*
X154513000Y-61032436D01*
X151932118Y-61032436D01*
X154460518Y-58504037D01*
X154474376Y-58492664D01*
X154485749Y-58478806D01*
X154485755Y-58478800D01*
X154519801Y-58437315D01*
X154553554Y-58374166D01*
X154569729Y-58320845D01*
X154574340Y-58305646D01*
X154579600Y-58252238D01*
X154579600Y-58252228D01*
X154581357Y-58234388D01*
X154579600Y-58216548D01*
X154579600Y-57984436D01*
X154894000Y-57984436D01*
X154894000Y-58093564D01*
X154915289Y-58200596D01*
X154957051Y-58301418D01*
X155017680Y-58392155D01*
X155094845Y-58469320D01*
X155185582Y-58529949D01*
X155286404Y-58571711D01*
X155393436Y-58593000D01*
X155502564Y-58593000D01*
X155609596Y-58571711D01*
X155710418Y-58529949D01*
X155801155Y-58469320D01*
X155878320Y-58392155D01*
X155938949Y-58301418D01*
X155980711Y-58200596D01*
X156002000Y-58093564D01*
X156002000Y-57984436D01*
X155980711Y-57877404D01*
X155938949Y-57776582D01*
X155878320Y-57685845D01*
X155801155Y-57608680D01*
X155710418Y-57548051D01*
X155609596Y-57506289D01*
X155502564Y-57485000D01*
X155393436Y-57485000D01*
X155286404Y-57506289D01*
X155185582Y-57548051D01*
X155094845Y-57608680D01*
X155017680Y-57685845D01*
X154957051Y-57776582D01*
X154915289Y-57877404D01*
X154894000Y-57984436D01*
X154579600Y-57984436D01*
X154579600Y-55526495D01*
X154593596Y-55523711D01*
X154694418Y-55481949D01*
X154785155Y-55421320D01*
X154862320Y-55344155D01*
X154922949Y-55253418D01*
X154964711Y-55152596D01*
X154986000Y-55045564D01*
X154986000Y-54936436D01*
X154964711Y-54829404D01*
X154922949Y-54728582D01*
X154862320Y-54637845D01*
X154785155Y-54560680D01*
X154694418Y-54500051D01*
X154593596Y-54458289D01*
X154486564Y-54437000D01*
X154377436Y-54437000D01*
X154270404Y-54458289D01*
X154169582Y-54500051D01*
X154078845Y-54560680D01*
X154051000Y-54588525D01*
X154023155Y-54560680D01*
X153932418Y-54500051D01*
X153831596Y-54458289D01*
X153724564Y-54437000D01*
X153710742Y-54437000D01*
X153716000Y-54410564D01*
X153716000Y-54301436D01*
X153694711Y-54194404D01*
X153652949Y-54093582D01*
X153592320Y-54002845D01*
X153585757Y-53996282D01*
X155581000Y-53996282D01*
X155581000Y-54163718D01*
X155613665Y-54327936D01*
X155677740Y-54482626D01*
X155770762Y-54621844D01*
X155889156Y-54740238D01*
X156028374Y-54833260D01*
X156183064Y-54897335D01*
X156347282Y-54930000D01*
X156514718Y-54930000D01*
X156678936Y-54897335D01*
X156833626Y-54833260D01*
X156972844Y-54740238D01*
X157091238Y-54621844D01*
X157184260Y-54482626D01*
X157248335Y-54327936D01*
X157281000Y-54163718D01*
X157281000Y-54047436D01*
X159593000Y-54047436D01*
X159593000Y-54156564D01*
X159614289Y-54263596D01*
X159656051Y-54364418D01*
X159716680Y-54455155D01*
X159744525Y-54483000D01*
X159716680Y-54510845D01*
X159656051Y-54601582D01*
X159614289Y-54702404D01*
X159593000Y-54809436D01*
X159593000Y-54918564D01*
X159614289Y-55025596D01*
X159656051Y-55126418D01*
X159716680Y-55217155D01*
X159793845Y-55294320D01*
X159815067Y-55308500D01*
X159793845Y-55322680D01*
X159716680Y-55399845D01*
X159656051Y-55490582D01*
X159614289Y-55591404D01*
X159593000Y-55698436D01*
X159593000Y-55807564D01*
X159614289Y-55914596D01*
X159656051Y-56015418D01*
X159716680Y-56106155D01*
X159744525Y-56134000D01*
X159716680Y-56161845D01*
X159656051Y-56252582D01*
X159614289Y-56353404D01*
X159593000Y-56460436D01*
X159593000Y-56569564D01*
X159614289Y-56676596D01*
X159656051Y-56777418D01*
X159716680Y-56868155D01*
X159793845Y-56945320D01*
X159884582Y-57005949D01*
X159985404Y-57047711D01*
X160092436Y-57069000D01*
X160201564Y-57069000D01*
X160308596Y-57047711D01*
X160409418Y-57005949D01*
X160500155Y-56945320D01*
X160577320Y-56868155D01*
X160637949Y-56777418D01*
X160679711Y-56676596D01*
X160701000Y-56569564D01*
X160701000Y-56460436D01*
X160679711Y-56353404D01*
X160637949Y-56252582D01*
X160577320Y-56161845D01*
X160549475Y-56134000D01*
X160577320Y-56106155D01*
X160637949Y-56015418D01*
X160679711Y-55914596D01*
X160701000Y-55807564D01*
X160701000Y-55698436D01*
X160679711Y-55591404D01*
X160637949Y-55490582D01*
X160577320Y-55399845D01*
X160500155Y-55322680D01*
X160478933Y-55308500D01*
X160500155Y-55294320D01*
X160577320Y-55217155D01*
X160637949Y-55126418D01*
X160679711Y-55025596D01*
X160701000Y-54918564D01*
X160701000Y-54809436D01*
X160679711Y-54702404D01*
X160637949Y-54601582D01*
X160577320Y-54510845D01*
X160549475Y-54483000D01*
X160577320Y-54455155D01*
X160637949Y-54364418D01*
X160679711Y-54263596D01*
X160701000Y-54156564D01*
X160701000Y-54047436D01*
X160679711Y-53940404D01*
X160637949Y-53839582D01*
X160577320Y-53748845D01*
X160500155Y-53671680D01*
X160409418Y-53611051D01*
X160308596Y-53569289D01*
X160201564Y-53548000D01*
X160092436Y-53548000D01*
X159985404Y-53569289D01*
X159884582Y-53611051D01*
X159793845Y-53671680D01*
X159716680Y-53748845D01*
X159656051Y-53839582D01*
X159614289Y-53940404D01*
X159593000Y-54047436D01*
X157281000Y-54047436D01*
X157281000Y-53996282D01*
X157248335Y-53832064D01*
X157184260Y-53677374D01*
X157091238Y-53538156D01*
X156972844Y-53419762D01*
X156833626Y-53326740D01*
X156678936Y-53262665D01*
X156514718Y-53230000D01*
X156347282Y-53230000D01*
X156183064Y-53262665D01*
X156028374Y-53326740D01*
X155889156Y-53419762D01*
X155770762Y-53538156D01*
X155677740Y-53677374D01*
X155613665Y-53832064D01*
X155581000Y-53996282D01*
X153585757Y-53996282D01*
X153515155Y-53925680D01*
X153424418Y-53865051D01*
X153323596Y-53823289D01*
X153216564Y-53802000D01*
X153214066Y-53802000D01*
X153947566Y-53068500D01*
X155811160Y-53068500D01*
X155829000Y-53070257D01*
X155846840Y-53068500D01*
X155846850Y-53068500D01*
X155900258Y-53063240D01*
X155968778Y-53042454D01*
X156031926Y-53008701D01*
X156087276Y-52963276D01*
X156098654Y-52949412D01*
X156686137Y-52361930D01*
X156752596Y-52348711D01*
X156853418Y-52306949D01*
X156944155Y-52246320D01*
X157021320Y-52169155D01*
X157081949Y-52078418D01*
X157123711Y-51977596D01*
X157145000Y-51870564D01*
X157145000Y-51761436D01*
X157123711Y-51654404D01*
X157081949Y-51553582D01*
X157021320Y-51462845D01*
X156944155Y-51385680D01*
X156853418Y-51325051D01*
X156752596Y-51283289D01*
X156645564Y-51262000D01*
X156536436Y-51262000D01*
X156429404Y-51283289D01*
X156328582Y-51325051D01*
X156237845Y-51385680D01*
X156160680Y-51462845D01*
X156100051Y-51553582D01*
X156058289Y-51654404D01*
X156037000Y-51761436D01*
X156037000Y-51870564D01*
X156055643Y-51964291D01*
X155678434Y-52341500D01*
X154992005Y-52341500D01*
X155075418Y-52306949D01*
X155166155Y-52246320D01*
X155243320Y-52169155D01*
X155303949Y-52078418D01*
X155345711Y-51977596D01*
X155367000Y-51870564D01*
X155367000Y-51761436D01*
X155345711Y-51654404D01*
X155303949Y-51553582D01*
X155243320Y-51462845D01*
X155166155Y-51385680D01*
X155075418Y-51325051D01*
X154974596Y-51283289D01*
X154867564Y-51262000D01*
X154758436Y-51262000D01*
X154651404Y-51283289D01*
X154550582Y-51325051D01*
X154459845Y-51385680D01*
X154382680Y-51462845D01*
X154322051Y-51553582D01*
X154280289Y-51654404D01*
X154259000Y-51761436D01*
X154259000Y-51870564D01*
X154277643Y-51964291D01*
X154179844Y-52062090D01*
X153699105Y-52062090D01*
X153681265Y-52060333D01*
X153663425Y-52062090D01*
X153663415Y-52062090D01*
X153610007Y-52067350D01*
X153541487Y-52088136D01*
X153507216Y-52106454D01*
X153525949Y-52078418D01*
X153567711Y-51977596D01*
X153589000Y-51870564D01*
X153589000Y-51761436D01*
X153567711Y-51654404D01*
X153525949Y-51553582D01*
X153465320Y-51462845D01*
X153388155Y-51385680D01*
X153297418Y-51325051D01*
X153196596Y-51283289D01*
X153089564Y-51262000D01*
X152980436Y-51262000D01*
X152873404Y-51283289D01*
X152772582Y-51325051D01*
X152681845Y-51385680D01*
X152604680Y-51462845D01*
X152544051Y-51553582D01*
X152502289Y-51654404D01*
X152481000Y-51761436D01*
X152481000Y-51870564D01*
X152502289Y-51977596D01*
X152544051Y-52078418D01*
X152604680Y-52169155D01*
X152681845Y-52246320D01*
X152772582Y-52306949D01*
X152873404Y-52348711D01*
X152980436Y-52370000D01*
X153089564Y-52370000D01*
X153196596Y-52348711D01*
X153277652Y-52315137D01*
X151416862Y-54175928D01*
X150964411Y-54175928D01*
X150946571Y-54174171D01*
X150928731Y-54175928D01*
X150928722Y-54175928D01*
X150875314Y-54181188D01*
X150806794Y-54201974D01*
X150780138Y-54216222D01*
X150743644Y-54235728D01*
X150717914Y-54256845D01*
X150688296Y-54281152D01*
X150676918Y-54295016D01*
X150407934Y-54564000D01*
X150313436Y-54564000D01*
X150206404Y-54585289D01*
X150105582Y-54627051D01*
X150014845Y-54687680D01*
X149937680Y-54764845D01*
X149877051Y-54855582D01*
X149835289Y-54956404D01*
X149814000Y-55063436D01*
X149814000Y-55172564D01*
X149835289Y-55279596D01*
X149877051Y-55380418D01*
X149937680Y-55471155D01*
X150014845Y-55548320D01*
X150105582Y-55608949D01*
X150206404Y-55650711D01*
X150313436Y-55672000D01*
X150422564Y-55672000D01*
X150529596Y-55650711D01*
X150630418Y-55608949D01*
X150721155Y-55548320D01*
X150798320Y-55471155D01*
X150858949Y-55380418D01*
X150876000Y-55339253D01*
X150893051Y-55380418D01*
X150953680Y-55471155D01*
X151030845Y-55548320D01*
X151121582Y-55608949D01*
X151222404Y-55650711D01*
X151329436Y-55672000D01*
X151331934Y-55672000D01*
X151106435Y-55897499D01*
X129702073Y-55897499D01*
X129691711Y-55845404D01*
X129649949Y-55744582D01*
X129589320Y-55653845D01*
X129512155Y-55576680D01*
X129421418Y-55516051D01*
X129320596Y-55474289D01*
X129213564Y-55453000D01*
X129104436Y-55453000D01*
X128997404Y-55474289D01*
X128896582Y-55516051D01*
X128805845Y-55576680D01*
X128728680Y-55653845D01*
X128668051Y-55744582D01*
X128626289Y-55845404D01*
X128605000Y-55952436D01*
X128605000Y-56061564D01*
X128626289Y-56168596D01*
X128668051Y-56269418D01*
X128728680Y-56360155D01*
X128805845Y-56437320D01*
X128827067Y-56451500D01*
X128805845Y-56465680D01*
X128728680Y-56542845D01*
X128668051Y-56633582D01*
X128626289Y-56734404D01*
X128605000Y-56841436D01*
X128605000Y-56950564D01*
X128626289Y-57057596D01*
X128668051Y-57158418D01*
X128728680Y-57249155D01*
X128756525Y-57277000D01*
X128728680Y-57304845D01*
X128668051Y-57395582D01*
X128626289Y-57496404D01*
X128605000Y-57603436D01*
X128605000Y-57712564D01*
X128626289Y-57819596D01*
X128668051Y-57920418D01*
X128728680Y-58011155D01*
X128805845Y-58088320D01*
X128827067Y-58102500D01*
X128805845Y-58116680D01*
X128728680Y-58193845D01*
X128668051Y-58284582D01*
X128626289Y-58385404D01*
X128605000Y-58492436D01*
X128605000Y-58601564D01*
X128626289Y-58708596D01*
X128668051Y-58809418D01*
X128728680Y-58900155D01*
X128805845Y-58977320D01*
X128896582Y-59037949D01*
X128997404Y-59079711D01*
X129098357Y-59099791D01*
X129049051Y-59173582D01*
X129007289Y-59274404D01*
X128986000Y-59381436D01*
X128986000Y-59475934D01*
X128825683Y-59636251D01*
X128811823Y-59647626D01*
X128800450Y-59661484D01*
X128800444Y-59661490D01*
X128784916Y-59680412D01*
X128766398Y-59702976D01*
X128732645Y-59766124D01*
X128711859Y-59834644D01*
X128706599Y-59888052D01*
X128706599Y-59888061D01*
X128704842Y-59905901D01*
X128706599Y-59923741D01*
X128706600Y-61914333D01*
X127898584Y-62722350D01*
X127884724Y-62733725D01*
X127873351Y-62747583D01*
X127873345Y-62747589D01*
X127844469Y-62782776D01*
X127839299Y-62789075D01*
X127805546Y-62852223D01*
X127784760Y-62920743D01*
X127781808Y-62950717D01*
X127712680Y-63019845D01*
X127652051Y-63110582D01*
X127610289Y-63211404D01*
X127589000Y-63318436D01*
X125979200Y-63318436D01*
X125979200Y-51126436D01*
X126065000Y-51126436D01*
X126065000Y-51235564D01*
X126086289Y-51342596D01*
X126128051Y-51443418D01*
X126188680Y-51534155D01*
X126216525Y-51562000D01*
X126188680Y-51589845D01*
X126128051Y-51680582D01*
X126086289Y-51781404D01*
X126065000Y-51888436D01*
X126065000Y-51997564D01*
X126086289Y-52104596D01*
X126128051Y-52205418D01*
X126188680Y-52296155D01*
X126265845Y-52373320D01*
X126356582Y-52433949D01*
X126457404Y-52475711D01*
X126564436Y-52497000D01*
X126673564Y-52497000D01*
X126780596Y-52475711D01*
X126881418Y-52433949D01*
X126972155Y-52373320D01*
X127000000Y-52345475D01*
X127027845Y-52373320D01*
X127118582Y-52433949D01*
X127219404Y-52475711D01*
X127326436Y-52497000D01*
X127435564Y-52497000D01*
X127542596Y-52475711D01*
X127643418Y-52433949D01*
X127669435Y-52416565D01*
X127652051Y-52442582D01*
X127610289Y-52543404D01*
X127589000Y-52650436D01*
X127589000Y-52759564D01*
X127610289Y-52866596D01*
X127652051Y-52967418D01*
X127712680Y-53058155D01*
X127740525Y-53086000D01*
X127712680Y-53113845D01*
X127652051Y-53204582D01*
X127610289Y-53305404D01*
X127589000Y-53412436D01*
X127589000Y-53521564D01*
X127610289Y-53628596D01*
X127652051Y-53729418D01*
X127712680Y-53820155D01*
X127789845Y-53897320D01*
X127880582Y-53957949D01*
X127981404Y-53999711D01*
X128088436Y-54021000D01*
X128197564Y-54021000D01*
X128304596Y-53999711D01*
X128372319Y-53971659D01*
X135331000Y-53971659D01*
X135331000Y-54188341D01*
X135373273Y-54400858D01*
X135456193Y-54601045D01*
X135576575Y-54781209D01*
X135729791Y-54934425D01*
X135909955Y-55054807D01*
X136110142Y-55137727D01*
X136322659Y-55180000D01*
X136539341Y-55180000D01*
X136751858Y-55137727D01*
X136952045Y-55054807D01*
X137132209Y-54934425D01*
X137285425Y-54781209D01*
X137405807Y-54601045D01*
X137424698Y-54555436D01*
X147401000Y-54555436D01*
X147401000Y-54664564D01*
X147422289Y-54771596D01*
X147464051Y-54872418D01*
X147524680Y-54963155D01*
X147601845Y-55040320D01*
X147692582Y-55100949D01*
X147793404Y-55142711D01*
X147900436Y-55164000D01*
X148009564Y-55164000D01*
X148116596Y-55142711D01*
X148217418Y-55100949D01*
X148308155Y-55040320D01*
X148336000Y-55012475D01*
X148363845Y-55040320D01*
X148454582Y-55100949D01*
X148555404Y-55142711D01*
X148662436Y-55164000D01*
X148771564Y-55164000D01*
X148878596Y-55142711D01*
X148979418Y-55100949D01*
X149070155Y-55040320D01*
X149147320Y-54963155D01*
X149207949Y-54872418D01*
X149249711Y-54771596D01*
X149271000Y-54664564D01*
X149271000Y-54555436D01*
X149249711Y-54448404D01*
X149207949Y-54347582D01*
X149147320Y-54256845D01*
X149070155Y-54179680D01*
X148979418Y-54119051D01*
X148878596Y-54077289D01*
X148771564Y-54056000D01*
X148662436Y-54056000D01*
X148555404Y-54077289D01*
X148454582Y-54119051D01*
X148363845Y-54179680D01*
X148336000Y-54207525D01*
X148308155Y-54179680D01*
X148217418Y-54119051D01*
X148116596Y-54077289D01*
X148009564Y-54056000D01*
X147900436Y-54056000D01*
X147793404Y-54077289D01*
X147692582Y-54119051D01*
X147601845Y-54179680D01*
X147524680Y-54256845D01*
X147464051Y-54347582D01*
X147422289Y-54448404D01*
X147401000Y-54555436D01*
X137424698Y-54555436D01*
X137488727Y-54400858D01*
X137531000Y-54188341D01*
X137531000Y-53971659D01*
X137488727Y-53759142D01*
X137405807Y-53558955D01*
X137285425Y-53378791D01*
X137132209Y-53225575D01*
X136952045Y-53105193D01*
X136773980Y-53031436D01*
X147401000Y-53031436D01*
X147401000Y-53140564D01*
X147422289Y-53247596D01*
X147464051Y-53348418D01*
X147524680Y-53439155D01*
X147601845Y-53516320D01*
X147692582Y-53576949D01*
X147793404Y-53618711D01*
X147900436Y-53640000D01*
X148009564Y-53640000D01*
X148116596Y-53618711D01*
X148217418Y-53576949D01*
X148308155Y-53516320D01*
X148385320Y-53439155D01*
X148445949Y-53348418D01*
X148487711Y-53247596D01*
X148509000Y-53140564D01*
X148509000Y-53031436D01*
X148487711Y-52924404D01*
X148445949Y-52823582D01*
X148415115Y-52777436D01*
X149433000Y-52777436D01*
X149433000Y-52886564D01*
X149454289Y-52993596D01*
X149496051Y-53094418D01*
X149556680Y-53185155D01*
X149633845Y-53262320D01*
X149724582Y-53322949D01*
X149825404Y-53364711D01*
X149932436Y-53386000D01*
X150041564Y-53386000D01*
X150148596Y-53364711D01*
X150249418Y-53322949D01*
X150340155Y-53262320D01*
X150417320Y-53185155D01*
X150477949Y-53094418D01*
X150519711Y-52993596D01*
X150541000Y-52886564D01*
X150541000Y-52777436D01*
X150519711Y-52670404D01*
X150477949Y-52569582D01*
X150417320Y-52478845D01*
X150340155Y-52401680D01*
X150249418Y-52341051D01*
X150148596Y-52299289D01*
X150041564Y-52278000D01*
X149932436Y-52278000D01*
X149825404Y-52299289D01*
X149724582Y-52341051D01*
X149633845Y-52401680D01*
X149556680Y-52478845D01*
X149496051Y-52569582D01*
X149454289Y-52670404D01*
X149433000Y-52777436D01*
X148415115Y-52777436D01*
X148385320Y-52732845D01*
X148308155Y-52655680D01*
X148217418Y-52595051D01*
X148116596Y-52553289D01*
X148009564Y-52532000D01*
X147900436Y-52532000D01*
X147793404Y-52553289D01*
X147692582Y-52595051D01*
X147601845Y-52655680D01*
X147524680Y-52732845D01*
X147464051Y-52823582D01*
X147422289Y-52924404D01*
X147401000Y-53031436D01*
X136773980Y-53031436D01*
X136751858Y-53022273D01*
X136539341Y-52980000D01*
X136322659Y-52980000D01*
X136110142Y-53022273D01*
X135909955Y-53105193D01*
X135729791Y-53225575D01*
X135576575Y-53378791D01*
X135456193Y-53558955D01*
X135373273Y-53759142D01*
X135331000Y-53971659D01*
X128372319Y-53971659D01*
X128405418Y-53957949D01*
X128496155Y-53897320D01*
X128573320Y-53820155D01*
X128633949Y-53729418D01*
X128675711Y-53628596D01*
X128697000Y-53521564D01*
X128697000Y-53412436D01*
X128675711Y-53305404D01*
X128633949Y-53204582D01*
X128573320Y-53113845D01*
X128545475Y-53086000D01*
X128573320Y-53058155D01*
X128633949Y-52967418D01*
X128675711Y-52866596D01*
X128697000Y-52759564D01*
X128697000Y-52650436D01*
X128675711Y-52543404D01*
X128633949Y-52442582D01*
X128573320Y-52351845D01*
X128545475Y-52324000D01*
X128573320Y-52296155D01*
X128591173Y-52269436D01*
X141305000Y-52269436D01*
X141305000Y-52378564D01*
X141326289Y-52485596D01*
X141368051Y-52586418D01*
X141428680Y-52677155D01*
X141505845Y-52754320D01*
X141596582Y-52814949D01*
X141697404Y-52856711D01*
X141804436Y-52878000D01*
X141913564Y-52878000D01*
X142020596Y-52856711D01*
X142121418Y-52814949D01*
X142176500Y-52778144D01*
X142231582Y-52814949D01*
X142332404Y-52856711D01*
X142439436Y-52878000D01*
X142548564Y-52878000D01*
X142655596Y-52856711D01*
X142756418Y-52814949D01*
X142811500Y-52778144D01*
X142866582Y-52814949D01*
X142967404Y-52856711D01*
X143074436Y-52878000D01*
X143183564Y-52878000D01*
X143290596Y-52856711D01*
X143391418Y-52814949D01*
X143482155Y-52754320D01*
X143559320Y-52677155D01*
X143619949Y-52586418D01*
X143661711Y-52485596D01*
X143683000Y-52378564D01*
X143683000Y-52269436D01*
X143661711Y-52162404D01*
X143619949Y-52061582D01*
X143559320Y-51970845D01*
X143482155Y-51893680D01*
X143391418Y-51833051D01*
X143290596Y-51791289D01*
X143183564Y-51770000D01*
X143074436Y-51770000D01*
X142967404Y-51791289D01*
X142866582Y-51833051D01*
X142811500Y-51869856D01*
X142756418Y-51833051D01*
X142655596Y-51791289D01*
X142548564Y-51770000D01*
X142439436Y-51770000D01*
X142332404Y-51791289D01*
X142231582Y-51833051D01*
X142176500Y-51869856D01*
X142121418Y-51833051D01*
X142020596Y-51791289D01*
X141913564Y-51770000D01*
X141804436Y-51770000D01*
X141697404Y-51791289D01*
X141596582Y-51833051D01*
X141505845Y-51893680D01*
X141428680Y-51970845D01*
X141368051Y-52061582D01*
X141326289Y-52162404D01*
X141305000Y-52269436D01*
X128591173Y-52269436D01*
X128633949Y-52205418D01*
X128675711Y-52104596D01*
X128697000Y-51997564D01*
X128697000Y-51888436D01*
X128675711Y-51781404D01*
X128633949Y-51680582D01*
X128573320Y-51589845D01*
X128545475Y-51562000D01*
X128573320Y-51534155D01*
X128633949Y-51443418D01*
X128675711Y-51342596D01*
X128697000Y-51235564D01*
X128697000Y-51126436D01*
X128675711Y-51019404D01*
X128667440Y-50999436D01*
X132415000Y-50999436D01*
X132415000Y-51108564D01*
X132436289Y-51215596D01*
X132478051Y-51316418D01*
X132538680Y-51407155D01*
X132615845Y-51484320D01*
X132706582Y-51544949D01*
X132807404Y-51586711D01*
X132914436Y-51608000D01*
X133023564Y-51608000D01*
X133130596Y-51586711D01*
X133231418Y-51544949D01*
X133322155Y-51484320D01*
X133399320Y-51407155D01*
X133459949Y-51316418D01*
X133501711Y-51215596D01*
X133523000Y-51108564D01*
X133523000Y-50999436D01*
X133812000Y-50999436D01*
X133812000Y-51108564D01*
X133833289Y-51215596D01*
X133875051Y-51316418D01*
X133935680Y-51407155D01*
X134012845Y-51484320D01*
X134103582Y-51544949D01*
X134204404Y-51586711D01*
X134311436Y-51608000D01*
X134420564Y-51608000D01*
X134527596Y-51586711D01*
X134628418Y-51544949D01*
X134719155Y-51484320D01*
X134796320Y-51407155D01*
X134856949Y-51316418D01*
X134898711Y-51215596D01*
X134920000Y-51108564D01*
X134920000Y-50999436D01*
X134898711Y-50892404D01*
X134890440Y-50872436D01*
X162387000Y-50872436D01*
X162387000Y-50981564D01*
X162408289Y-51088596D01*
X162450051Y-51189418D01*
X162510680Y-51280155D01*
X162539400Y-51308875D01*
X162539401Y-52958124D01*
X162510680Y-52986845D01*
X162450051Y-53077582D01*
X162408289Y-53178404D01*
X162387000Y-53285436D01*
X162387000Y-53394564D01*
X162408289Y-53501596D01*
X162450051Y-53602418D01*
X162510680Y-53693155D01*
X162587845Y-53770320D01*
X162678582Y-53830949D01*
X162779404Y-53872711D01*
X162886436Y-53894000D01*
X162995564Y-53894000D01*
X163102596Y-53872711D01*
X163203418Y-53830949D01*
X163294155Y-53770320D01*
X163371320Y-53693155D01*
X163431949Y-53602418D01*
X163473711Y-53501596D01*
X163495000Y-53394564D01*
X163495000Y-53285436D01*
X163473711Y-53178404D01*
X163431949Y-53077582D01*
X163371320Y-52986845D01*
X163342600Y-52958125D01*
X163342600Y-51308875D01*
X163371320Y-51280155D01*
X163431949Y-51189418D01*
X163473711Y-51088596D01*
X163495000Y-50981564D01*
X163495000Y-50872436D01*
X163473711Y-50765404D01*
X163431949Y-50664582D01*
X163371320Y-50573845D01*
X163294155Y-50496680D01*
X163203418Y-50436051D01*
X163102596Y-50394289D01*
X162995564Y-50373000D01*
X162886436Y-50373000D01*
X162779404Y-50394289D01*
X162678582Y-50436051D01*
X162587845Y-50496680D01*
X162510680Y-50573845D01*
X162450051Y-50664582D01*
X162408289Y-50765404D01*
X162387000Y-50872436D01*
X134890440Y-50872436D01*
X134856949Y-50791582D01*
X134796320Y-50700845D01*
X134719155Y-50623680D01*
X134628418Y-50563051D01*
X134527596Y-50521289D01*
X134420564Y-50500000D01*
X134311436Y-50500000D01*
X134204404Y-50521289D01*
X134103582Y-50563051D01*
X134012845Y-50623680D01*
X133935680Y-50700845D01*
X133875051Y-50791582D01*
X133833289Y-50892404D01*
X133812000Y-50999436D01*
X133523000Y-50999436D01*
X133501711Y-50892404D01*
X133459949Y-50791582D01*
X133399320Y-50700845D01*
X133322155Y-50623680D01*
X133231418Y-50563051D01*
X133130596Y-50521289D01*
X133023564Y-50500000D01*
X132914436Y-50500000D01*
X132807404Y-50521289D01*
X132706582Y-50563051D01*
X132615845Y-50623680D01*
X132538680Y-50700845D01*
X132478051Y-50791582D01*
X132436289Y-50892404D01*
X132415000Y-50999436D01*
X128667440Y-50999436D01*
X128633949Y-50918582D01*
X128573320Y-50827845D01*
X128496155Y-50750680D01*
X128405418Y-50690051D01*
X128304596Y-50648289D01*
X128197564Y-50627000D01*
X128088436Y-50627000D01*
X127981404Y-50648289D01*
X127880582Y-50690051D01*
X127789845Y-50750680D01*
X127762000Y-50778525D01*
X127734155Y-50750680D01*
X127643418Y-50690051D01*
X127542596Y-50648289D01*
X127435564Y-50627000D01*
X127326436Y-50627000D01*
X127219404Y-50648289D01*
X127118582Y-50690051D01*
X127027845Y-50750680D01*
X127000000Y-50778525D01*
X126972155Y-50750680D01*
X126881418Y-50690051D01*
X126780596Y-50648289D01*
X126673564Y-50627000D01*
X126564436Y-50627000D01*
X126457404Y-50648289D01*
X126356582Y-50690051D01*
X126265845Y-50750680D01*
X126188680Y-50827845D01*
X126128051Y-50918582D01*
X126086289Y-51019404D01*
X126065000Y-51126436D01*
X125979200Y-51126436D01*
X125979200Y-49842949D01*
X127960586Y-49842949D01*
X128183575Y-50131211D01*
X128574694Y-50359882D01*
X129002909Y-50507854D01*
X129451764Y-50569444D01*
X129904009Y-50542283D01*
X130342266Y-50427415D01*
X130749692Y-50229253D01*
X130896425Y-50131211D01*
X130912495Y-50110436D01*
X137622000Y-50110436D01*
X137622000Y-50219564D01*
X137643289Y-50326596D01*
X137685051Y-50427418D01*
X137745680Y-50518155D01*
X137822845Y-50595320D01*
X137913582Y-50655949D01*
X138014404Y-50697711D01*
X138121436Y-50719000D01*
X138230564Y-50719000D01*
X138337596Y-50697711D01*
X138438418Y-50655949D01*
X138529155Y-50595320D01*
X138606320Y-50518155D01*
X138666949Y-50427418D01*
X138684000Y-50386253D01*
X138701051Y-50427418D01*
X138761680Y-50518155D01*
X138838845Y-50595320D01*
X138929582Y-50655949D01*
X139030404Y-50697711D01*
X139137436Y-50719000D01*
X139246564Y-50719000D01*
X139353596Y-50697711D01*
X139454418Y-50655949D01*
X139545155Y-50595320D01*
X139622320Y-50518155D01*
X139682949Y-50427418D01*
X139724711Y-50326596D01*
X139746000Y-50219564D01*
X139746000Y-50110436D01*
X140543000Y-50110436D01*
X140543000Y-50219564D01*
X140564289Y-50326596D01*
X140606051Y-50427418D01*
X140666680Y-50518155D01*
X140743845Y-50595320D01*
X140834582Y-50655949D01*
X140935404Y-50697711D01*
X141042436Y-50719000D01*
X141151564Y-50719000D01*
X141258596Y-50697711D01*
X141359418Y-50655949D01*
X141450155Y-50595320D01*
X141527320Y-50518155D01*
X141587949Y-50427418D01*
X141629711Y-50326596D01*
X141651000Y-50219564D01*
X141651000Y-50110436D01*
X141629711Y-50003404D01*
X141587949Y-49902582D01*
X141548104Y-49842949D01*
X158440586Y-49842949D01*
X158663575Y-50131211D01*
X159054694Y-50359882D01*
X159482909Y-50507854D01*
X159931764Y-50569444D01*
X160384009Y-50542283D01*
X160822266Y-50427415D01*
X161229692Y-50229253D01*
X161376425Y-50131211D01*
X161599414Y-49842949D01*
X160020000Y-48263536D01*
X158440586Y-49842949D01*
X141548104Y-49842949D01*
X141527320Y-49811845D01*
X141450155Y-49734680D01*
X141359418Y-49674051D01*
X141258596Y-49632289D01*
X141151564Y-49611000D01*
X141042436Y-49611000D01*
X140935404Y-49632289D01*
X140834582Y-49674051D01*
X140743845Y-49734680D01*
X140666680Y-49811845D01*
X140606051Y-49902582D01*
X140564289Y-50003404D01*
X140543000Y-50110436D01*
X139746000Y-50110436D01*
X139724711Y-50003404D01*
X139682949Y-49902582D01*
X139622320Y-49811845D01*
X139545155Y-49734680D01*
X139454418Y-49674051D01*
X139353596Y-49632289D01*
X139246564Y-49611000D01*
X139137436Y-49611000D01*
X139030404Y-49632289D01*
X138929582Y-49674051D01*
X138838845Y-49734680D01*
X138761680Y-49811845D01*
X138701051Y-49902582D01*
X138684000Y-49943747D01*
X138666949Y-49902582D01*
X138606320Y-49811845D01*
X138529155Y-49734680D01*
X138438418Y-49674051D01*
X138337596Y-49632289D01*
X138230564Y-49611000D01*
X138121436Y-49611000D01*
X138014404Y-49632289D01*
X137913582Y-49674051D01*
X137822845Y-49734680D01*
X137745680Y-49811845D01*
X137685051Y-49902582D01*
X137643289Y-50003404D01*
X137622000Y-50110436D01*
X130912495Y-50110436D01*
X131119414Y-49842949D01*
X129540000Y-48263536D01*
X127960586Y-49842949D01*
X125979200Y-49842949D01*
X125979200Y-48278404D01*
X125989656Y-48171764D01*
X127230556Y-48171764D01*
X127257717Y-48624009D01*
X127372585Y-49062266D01*
X127570747Y-49469692D01*
X127668789Y-49616425D01*
X127957051Y-49839414D01*
X129536464Y-48260000D01*
X129543536Y-48260000D01*
X131122949Y-49839414D01*
X131411211Y-49616425D01*
X131639882Y-49225306D01*
X131787854Y-48797091D01*
X131849444Y-48348236D01*
X131838846Y-48171764D01*
X157710556Y-48171764D01*
X157737717Y-48624009D01*
X157852585Y-49062266D01*
X158050747Y-49469692D01*
X158148789Y-49616425D01*
X158437051Y-49839414D01*
X160016464Y-48260000D01*
X160023536Y-48260000D01*
X161602949Y-49839414D01*
X161891211Y-49616425D01*
X162119882Y-49225306D01*
X162267854Y-48797091D01*
X162329444Y-48348236D01*
X162302283Y-47895991D01*
X162187415Y-47457734D01*
X161989253Y-47050308D01*
X161891211Y-46903575D01*
X161602949Y-46680586D01*
X160023536Y-48260000D01*
X160016464Y-48260000D01*
X158437051Y-46680586D01*
X158148789Y-46903575D01*
X157920118Y-47294694D01*
X157772146Y-47722909D01*
X157710556Y-48171764D01*
X131838846Y-48171764D01*
X131822283Y-47895991D01*
X131707415Y-47457734D01*
X131700461Y-47443436D01*
X150068000Y-47443436D01*
X150068000Y-47552564D01*
X150089289Y-47659596D01*
X150131051Y-47760418D01*
X150191680Y-47851155D01*
X150268845Y-47928320D01*
X150359582Y-47988949D01*
X150460404Y-48030711D01*
X150567436Y-48052000D01*
X150676564Y-48052000D01*
X150783596Y-48030711D01*
X150884418Y-47988949D01*
X150975155Y-47928320D01*
X151052320Y-47851155D01*
X151112949Y-47760418D01*
X151154711Y-47659596D01*
X151176000Y-47552564D01*
X151176000Y-47443436D01*
X151154711Y-47336404D01*
X151112949Y-47235582D01*
X151052320Y-47144845D01*
X150975155Y-47067680D01*
X150884418Y-47007051D01*
X150783596Y-46965289D01*
X150676564Y-46944000D01*
X150567436Y-46944000D01*
X150460404Y-46965289D01*
X150359582Y-47007051D01*
X150268845Y-47067680D01*
X150191680Y-47144845D01*
X150131051Y-47235582D01*
X150089289Y-47336404D01*
X150068000Y-47443436D01*
X131700461Y-47443436D01*
X131509253Y-47050308D01*
X131432500Y-46935436D01*
X151973000Y-46935436D01*
X151973000Y-47044564D01*
X151994289Y-47151596D01*
X152036051Y-47252418D01*
X152096680Y-47343155D01*
X152173845Y-47420320D01*
X152264582Y-47480949D01*
X152365404Y-47522711D01*
X152472436Y-47544000D01*
X152581564Y-47544000D01*
X152688596Y-47522711D01*
X152789418Y-47480949D01*
X152880155Y-47420320D01*
X152957320Y-47343155D01*
X153017949Y-47252418D01*
X153059711Y-47151596D01*
X153081000Y-47044564D01*
X153081000Y-46935436D01*
X153059711Y-46828404D01*
X153017949Y-46727582D01*
X152957320Y-46636845D01*
X152880155Y-46559680D01*
X152789418Y-46499051D01*
X152688596Y-46457289D01*
X152581564Y-46436000D01*
X152472436Y-46436000D01*
X152365404Y-46457289D01*
X152264582Y-46499051D01*
X152173845Y-46559680D01*
X152096680Y-46636845D01*
X152036051Y-46727582D01*
X151994289Y-46828404D01*
X151973000Y-46935436D01*
X131432500Y-46935436D01*
X131411211Y-46903575D01*
X131122949Y-46680586D01*
X129543536Y-48260000D01*
X129536464Y-48260000D01*
X127957051Y-46680586D01*
X127668789Y-46903575D01*
X127440118Y-47294694D01*
X127292146Y-47722909D01*
X127230556Y-48171764D01*
X125989656Y-48171764D01*
X126048786Y-47568720D01*
X126249545Y-46903770D01*
X126370093Y-46677051D01*
X127960586Y-46677051D01*
X129540000Y-48256464D01*
X131119414Y-46677051D01*
X130896425Y-46388789D01*
X130528086Y-46173436D01*
X134828000Y-46173436D01*
X134828000Y-46282564D01*
X134849289Y-46389596D01*
X134891051Y-46490418D01*
X134951680Y-46581155D01*
X135028845Y-46658320D01*
X135119582Y-46718949D01*
X135220404Y-46760711D01*
X135327436Y-46782000D01*
X135436564Y-46782000D01*
X135543596Y-46760711D01*
X135644418Y-46718949D01*
X135735155Y-46658320D01*
X135812320Y-46581155D01*
X135872949Y-46490418D01*
X135914711Y-46389596D01*
X135936000Y-46282564D01*
X135936000Y-46173436D01*
X153878000Y-46173436D01*
X153878000Y-46282564D01*
X153899289Y-46389596D01*
X153941051Y-46490418D01*
X154001680Y-46581155D01*
X154078845Y-46658320D01*
X154169582Y-46718949D01*
X154270404Y-46760711D01*
X154377436Y-46782000D01*
X154486564Y-46782000D01*
X154593596Y-46760711D01*
X154694418Y-46718949D01*
X154757122Y-46677051D01*
X158440586Y-46677051D01*
X160020000Y-48256464D01*
X161599414Y-46677051D01*
X161376425Y-46388789D01*
X160985306Y-46160118D01*
X160557091Y-46012146D01*
X160108236Y-45950556D01*
X159655991Y-45977717D01*
X159217734Y-46092585D01*
X158810308Y-46290747D01*
X158663575Y-46388789D01*
X158440586Y-46677051D01*
X154757122Y-46677051D01*
X154785155Y-46658320D01*
X154862320Y-46581155D01*
X154922949Y-46490418D01*
X154964711Y-46389596D01*
X154986000Y-46282564D01*
X154986000Y-46173436D01*
X154964711Y-46066404D01*
X154922949Y-45965582D01*
X154862320Y-45874845D01*
X154785155Y-45797680D01*
X154694418Y-45737051D01*
X154593596Y-45695289D01*
X154486564Y-45674000D01*
X154377436Y-45674000D01*
X154270404Y-45695289D01*
X154169582Y-45737051D01*
X154078845Y-45797680D01*
X154001680Y-45874845D01*
X153941051Y-45965582D01*
X153899289Y-46066404D01*
X153878000Y-46173436D01*
X135936000Y-46173436D01*
X135914711Y-46066404D01*
X135872949Y-45965582D01*
X135812320Y-45874845D01*
X135735155Y-45797680D01*
X135644418Y-45737051D01*
X135543596Y-45695289D01*
X135436564Y-45674000D01*
X135327436Y-45674000D01*
X135220404Y-45695289D01*
X135119582Y-45737051D01*
X135028845Y-45797680D01*
X134951680Y-45874845D01*
X134891051Y-45965582D01*
X134849289Y-46066404D01*
X134828000Y-46173436D01*
X130528086Y-46173436D01*
X130505306Y-46160118D01*
X130077091Y-46012146D01*
X129628236Y-45950556D01*
X129175991Y-45977717D01*
X128737734Y-46092585D01*
X128330308Y-46290747D01*
X128183575Y-46388789D01*
X127960586Y-46677051D01*
X126370093Y-46677051D01*
X126575636Y-46290482D01*
X127014639Y-45752211D01*
X127273048Y-45538436D01*
X137114000Y-45538436D01*
X137114000Y-45647564D01*
X137135289Y-45754596D01*
X137177051Y-45855418D01*
X137237680Y-45946155D01*
X137314845Y-46023320D01*
X137405582Y-46083949D01*
X137506404Y-46125711D01*
X137613436Y-46147000D01*
X137722564Y-46147000D01*
X137829596Y-46125711D01*
X137930418Y-46083949D01*
X138021155Y-46023320D01*
X138098320Y-45946155D01*
X138158949Y-45855418D01*
X138200711Y-45754596D01*
X138222000Y-45647564D01*
X138222000Y-45538436D01*
X138200711Y-45431404D01*
X138158949Y-45330582D01*
X138098320Y-45239845D01*
X138021155Y-45162680D01*
X137930418Y-45102051D01*
X137829596Y-45060289D01*
X137722564Y-45039000D01*
X137613436Y-45039000D01*
X137506404Y-45060289D01*
X137405582Y-45102051D01*
X137314845Y-45162680D01*
X137237680Y-45239845D01*
X137177051Y-45330582D01*
X137135289Y-45431404D01*
X137114000Y-45538436D01*
X127273048Y-45538436D01*
X127549834Y-45309459D01*
X128160833Y-44979094D01*
X128824368Y-44773695D01*
X129532881Y-44699227D01*
X129540741Y-44699200D01*
X160001596Y-44699200D01*
X160711280Y-44768786D01*
G37*
%TD.AperFunction*%
%TD*%
M02*
