%TF.GenerationSoftware,KiCad,Pcbnew,(5.1.10)-1*%
%TF.CreationDate,2022-07-29T22:32:47-04:00*%
%TF.ProjectId,MicroMod_Extension,4d696372-6f4d-46f6-945f-457874656e73,rev?*%
%TF.SameCoordinates,Original*%
%TF.FileFunction,Legend,Bot*%
%TF.FilePolarity,Positive*%
%FSLAX46Y46*%
G04 Gerber Fmt 4.6, Leading zero omitted, Abs format (unit mm)*
G04 Created by KiCad (PCBNEW (5.1.10)-1) date 2022-07-29 22:32:47*
%MOMM*%
%LPD*%
G01*
G04 APERTURE LIST*
%ADD10C,0.203200*%
%ADD11C,0.300000*%
%ADD12C,0.500000*%
%ADD13C,0.200000*%
%ADD14C,0.127000*%
%ADD15C,0.120000*%
%ADD16C,0.150000*%
G04 APERTURE END LIST*
D10*
X162130619Y-52717095D02*
X161114619Y-52717095D01*
X161840333Y-53055761D01*
X161114619Y-53394428D01*
X162130619Y-53394428D01*
X161114619Y-54071761D02*
X161114619Y-54265285D01*
X161163000Y-54362047D01*
X161259761Y-54458809D01*
X161453285Y-54507190D01*
X161791952Y-54507190D01*
X161985476Y-54458809D01*
X162082238Y-54362047D01*
X162130619Y-54265285D01*
X162130619Y-54071761D01*
X162082238Y-53975000D01*
X161985476Y-53878238D01*
X161791952Y-53829857D01*
X161453285Y-53829857D01*
X161259761Y-53878238D01*
X161163000Y-53975000D01*
X161114619Y-54071761D01*
X161114619Y-54797476D02*
X161114619Y-55378047D01*
X162130619Y-55087761D02*
X161114619Y-55087761D01*
X161114619Y-55910238D02*
X161114619Y-56103761D01*
X161163000Y-56200523D01*
X161259761Y-56297285D01*
X161453285Y-56345666D01*
X161791952Y-56345666D01*
X161985476Y-56297285D01*
X162082238Y-56200523D01*
X162130619Y-56103761D01*
X162130619Y-55910238D01*
X162082238Y-55813476D01*
X161985476Y-55716714D01*
X161791952Y-55668333D01*
X161453285Y-55668333D01*
X161259761Y-55716714D01*
X161163000Y-55813476D01*
X161114619Y-55910238D01*
X162130619Y-57361666D02*
X161646809Y-57023000D01*
X162130619Y-56781095D02*
X161114619Y-56781095D01*
X161114619Y-57168142D01*
X161163000Y-57264904D01*
X161211380Y-57313285D01*
X161308142Y-57361666D01*
X161453285Y-57361666D01*
X161550047Y-57313285D01*
X161598428Y-57264904D01*
X161646809Y-57168142D01*
X161646809Y-56781095D01*
X162082238Y-57748714D02*
X162130619Y-57893857D01*
X162130619Y-58135761D01*
X162082238Y-58232523D01*
X162033857Y-58280904D01*
X161937095Y-58329285D01*
X161840333Y-58329285D01*
X161743571Y-58280904D01*
X161695190Y-58232523D01*
X161646809Y-58135761D01*
X161598428Y-57942238D01*
X161550047Y-57845476D01*
X161501666Y-57797095D01*
X161404904Y-57748714D01*
X161308142Y-57748714D01*
X161211380Y-57797095D01*
X161163000Y-57845476D01*
X161114619Y-57942238D01*
X161114619Y-58184142D01*
X161163000Y-58329285D01*
X159161238Y-70110047D02*
X159209619Y-70255190D01*
X159209619Y-70497095D01*
X159161238Y-70593857D01*
X159112857Y-70642238D01*
X159016095Y-70690619D01*
X158919333Y-70690619D01*
X158822571Y-70642238D01*
X158774190Y-70593857D01*
X158725809Y-70497095D01*
X158677428Y-70303571D01*
X158629047Y-70206809D01*
X158580666Y-70158428D01*
X158483904Y-70110047D01*
X158387142Y-70110047D01*
X158290380Y-70158428D01*
X158242000Y-70206809D01*
X158193619Y-70303571D01*
X158193619Y-70545476D01*
X158242000Y-70690619D01*
X158193619Y-70980904D02*
X158193619Y-71561476D01*
X159209619Y-71271190D02*
X158193619Y-71271190D01*
X159209619Y-71900142D02*
X158193619Y-71900142D01*
X158919333Y-72238809D01*
X158193619Y-72577476D01*
X159209619Y-72577476D01*
X159306380Y-72819380D02*
X159306380Y-73593476D01*
X158193619Y-73835380D02*
X159016095Y-73835380D01*
X159112857Y-73883761D01*
X159161238Y-73932142D01*
X159209619Y-74028904D01*
X159209619Y-74222428D01*
X159161238Y-74319190D01*
X159112857Y-74367571D01*
X159016095Y-74415952D01*
X158193619Y-74415952D01*
X158290380Y-74851380D02*
X158242000Y-74899761D01*
X158193619Y-74996523D01*
X158193619Y-75238428D01*
X158242000Y-75335190D01*
X158290380Y-75383571D01*
X158387142Y-75431952D01*
X158483904Y-75431952D01*
X158629047Y-75383571D01*
X159209619Y-74803000D01*
X159209619Y-75431952D01*
X159161238Y-62617047D02*
X159209619Y-62762190D01*
X159209619Y-63004095D01*
X159161238Y-63100857D01*
X159112857Y-63149238D01*
X159016095Y-63197619D01*
X158919333Y-63197619D01*
X158822571Y-63149238D01*
X158774190Y-63100857D01*
X158725809Y-63004095D01*
X158677428Y-62810571D01*
X158629047Y-62713809D01*
X158580666Y-62665428D01*
X158483904Y-62617047D01*
X158387142Y-62617047D01*
X158290380Y-62665428D01*
X158242000Y-62713809D01*
X158193619Y-62810571D01*
X158193619Y-63052476D01*
X158242000Y-63197619D01*
X158193619Y-63487904D02*
X158193619Y-64068476D01*
X159209619Y-63778190D02*
X158193619Y-63778190D01*
X159209619Y-64407142D02*
X158193619Y-64407142D01*
X158919333Y-64745809D01*
X158193619Y-65084476D01*
X159209619Y-65084476D01*
X159306380Y-65326380D02*
X159306380Y-66100476D01*
X158193619Y-66342380D02*
X159016095Y-66342380D01*
X159112857Y-66390761D01*
X159161238Y-66439142D01*
X159209619Y-66535904D01*
X159209619Y-66729428D01*
X159161238Y-66826190D01*
X159112857Y-66874571D01*
X159016095Y-66922952D01*
X158193619Y-66922952D01*
X159209619Y-67938952D02*
X159209619Y-67358380D01*
X159209619Y-67648666D02*
X158193619Y-67648666D01*
X158338761Y-67551904D01*
X158435523Y-67455142D01*
X158483904Y-67358380D01*
X129993571Y-57912000D02*
X129993571Y-58250666D01*
X129461380Y-58250666D02*
X130477380Y-58250666D01*
X130477380Y-57766857D01*
X129461380Y-56896000D02*
X129461380Y-57379809D01*
X130477380Y-57379809D01*
X130477380Y-56363809D02*
X130477380Y-56170285D01*
X130429000Y-56073523D01*
X130332238Y-55976761D01*
X130138714Y-55928380D01*
X129800047Y-55928380D01*
X129606523Y-55976761D01*
X129509761Y-56073523D01*
X129461380Y-56170285D01*
X129461380Y-56363809D01*
X129509761Y-56460571D01*
X129606523Y-56557333D01*
X129800047Y-56605714D01*
X130138714Y-56605714D01*
X130332238Y-56557333D01*
X130429000Y-56460571D01*
X130477380Y-56363809D01*
X130477380Y-55589714D02*
X129461380Y-55347809D01*
X130187095Y-55154285D01*
X129461380Y-54960761D01*
X130477380Y-54718857D01*
X129461380Y-53509333D02*
X129461380Y-53557714D01*
X129509761Y-53654476D01*
X129654904Y-53799619D01*
X129945190Y-54041523D01*
X130090333Y-54138285D01*
X130235476Y-54186666D01*
X130332238Y-54186666D01*
X130429000Y-54138285D01*
X130477380Y-54041523D01*
X130477380Y-53993142D01*
X130429000Y-53896380D01*
X130332238Y-53848000D01*
X130283857Y-53848000D01*
X130187095Y-53896380D01*
X130138714Y-53944761D01*
X129945190Y-54235047D01*
X129896809Y-54283428D01*
X129800047Y-54331809D01*
X129654904Y-54331809D01*
X129558142Y-54283428D01*
X129509761Y-54235047D01*
X129461380Y-54138285D01*
X129461380Y-53993142D01*
X129509761Y-53896380D01*
X129558142Y-53848000D01*
X129751666Y-53702857D01*
X129896809Y-53654476D01*
X129993571Y-53654476D01*
X129461380Y-53073904D02*
X130477380Y-53073904D01*
X129993571Y-53073904D02*
X129993571Y-52493333D01*
X129461380Y-52493333D02*
X130477380Y-52493333D01*
X135097761Y-82501619D02*
X135097761Y-81485619D01*
X134517190Y-82501619D01*
X134517190Y-81485619D01*
X133452809Y-82501619D02*
X133791476Y-82017809D01*
X134033380Y-82501619D02*
X134033380Y-81485619D01*
X133646333Y-81485619D01*
X133549571Y-81534000D01*
X133501190Y-81582380D01*
X133452809Y-81679142D01*
X133452809Y-81824285D01*
X133501190Y-81921047D01*
X133549571Y-81969428D01*
X133646333Y-82017809D01*
X134033380Y-82017809D01*
X132678714Y-81969428D02*
X133017380Y-81969428D01*
X133017380Y-82501619D02*
X133017380Y-81485619D01*
X132533571Y-81485619D01*
X132388428Y-82598380D02*
X131614333Y-82598380D01*
X131372428Y-81485619D02*
X131372428Y-82308095D01*
X131324047Y-82404857D01*
X131275666Y-82453238D01*
X131178904Y-82501619D01*
X130985380Y-82501619D01*
X130888619Y-82453238D01*
X130840238Y-82404857D01*
X130791857Y-82308095D01*
X130791857Y-81485619D01*
X130356428Y-81582380D02*
X130308047Y-81534000D01*
X130211285Y-81485619D01*
X129969380Y-81485619D01*
X129872619Y-81534000D01*
X129824238Y-81582380D01*
X129775857Y-81679142D01*
X129775857Y-81775904D01*
X129824238Y-81921047D01*
X130404809Y-82501619D01*
X129775857Y-82501619D01*
X156300714Y-82501619D02*
X156300714Y-81485619D01*
X155720142Y-82501619D01*
X155720142Y-81485619D01*
X154655761Y-82501619D02*
X154994428Y-82017809D01*
X155236333Y-82501619D02*
X155236333Y-81485619D01*
X154849285Y-81485619D01*
X154752523Y-81534000D01*
X154704142Y-81582380D01*
X154655761Y-81679142D01*
X154655761Y-81824285D01*
X154704142Y-81921047D01*
X154752523Y-81969428D01*
X154849285Y-82017809D01*
X155236333Y-82017809D01*
X153881666Y-81969428D02*
X154220333Y-81969428D01*
X154220333Y-82501619D02*
X154220333Y-81485619D01*
X153736523Y-81485619D01*
D11*
X134409571Y-56729428D02*
X132909571Y-56729428D01*
X133409571Y-58586571D02*
X133838142Y-57443714D01*
X134266714Y-58586571D01*
D12*
X154178143Y-75938143D02*
X156463856Y-76795285D01*
X154178143Y-77652428D01*
D13*
%TO.C,J1*%
X155781000Y-47711000D02*
G75*
G03*
X155781000Y-47711000I-100000J0D01*
G01*
D14*
X157431000Y-51180000D02*
X157431000Y-56580000D01*
X157431000Y-56580000D02*
X155931000Y-56580000D01*
X149931000Y-56580000D02*
X148431000Y-56580000D01*
X136831000Y-56580000D02*
X135431000Y-56580000D01*
X135431000Y-56580000D02*
X135431000Y-54980000D01*
X135431000Y-51180000D02*
X135431000Y-53280000D01*
X149731000Y-48830000D02*
X148131000Y-48830000D01*
D15*
%TO.C,J5*%
X163975000Y-52067000D02*
X163975000Y-59947000D01*
X159505000Y-61117000D02*
X159505000Y-60067000D01*
X162005000Y-61117000D02*
X159505000Y-61117000D01*
X159505000Y-51947000D02*
X158515000Y-51947000D01*
X159505000Y-50897000D02*
X159505000Y-51947000D01*
X162005000Y-50897000D02*
X159505000Y-50897000D01*
%TO.C,J7*%
X139888000Y-78776447D02*
X140388000Y-78776447D01*
X140138000Y-79130000D02*
X139888000Y-78776447D01*
X140388000Y-78776447D02*
X140138000Y-79130000D01*
X140578000Y-82690000D02*
X137298000Y-82690000D01*
X136978000Y-79770000D02*
X137228000Y-79770000D01*
X136978000Y-80070000D02*
X136978000Y-79770000D01*
X136128000Y-80070000D02*
X136978000Y-80070000D01*
X136128000Y-80970000D02*
X136128000Y-80070000D01*
X140648000Y-79770000D02*
X140648000Y-79630000D01*
X140898000Y-79770000D02*
X140648000Y-79770000D01*
X140898000Y-80070000D02*
X140898000Y-79770000D01*
X141748000Y-80070000D02*
X140898000Y-80070000D01*
X141748000Y-80970000D02*
X141748000Y-80070000D01*
%TO.C,J6*%
X127306000Y-51216000D02*
X127756000Y-51216000D01*
X127756000Y-51216000D02*
X127756000Y-52316000D01*
X127756000Y-52316000D02*
X128146000Y-52316000D01*
X127306000Y-60036000D02*
X127756000Y-60036000D01*
X127756000Y-60036000D02*
X127756000Y-58936000D01*
X125536000Y-52386000D02*
X125536000Y-58866000D01*
%TO.C,J9*%
X162123000Y-70215000D02*
X161223000Y-70215000D01*
X161223000Y-70215000D02*
X161223000Y-71065000D01*
X161223000Y-71065000D02*
X160923000Y-71065000D01*
X160923000Y-71065000D02*
X160923000Y-71315000D01*
X160923000Y-71315000D02*
X160783000Y-71315000D01*
X162123000Y-75835000D02*
X161223000Y-75835000D01*
X161223000Y-75835000D02*
X161223000Y-74985000D01*
X161223000Y-74985000D02*
X160923000Y-74985000D01*
X160923000Y-74985000D02*
X160923000Y-74735000D01*
X163843000Y-71385000D02*
X163843000Y-74665000D01*
X159929447Y-71575000D02*
X160283000Y-71825000D01*
X160283000Y-71825000D02*
X159929447Y-72075000D01*
X159929447Y-72075000D02*
X159929447Y-71575000D01*
%TO.C,J8*%
X162123000Y-62849000D02*
X161223000Y-62849000D01*
X161223000Y-62849000D02*
X161223000Y-63699000D01*
X161223000Y-63699000D02*
X160923000Y-63699000D01*
X160923000Y-63699000D02*
X160923000Y-63949000D01*
X160923000Y-63949000D02*
X160783000Y-63949000D01*
X162123000Y-68469000D02*
X161223000Y-68469000D01*
X161223000Y-68469000D02*
X161223000Y-67619000D01*
X161223000Y-67619000D02*
X160923000Y-67619000D01*
X160923000Y-67619000D02*
X160923000Y-67369000D01*
X163843000Y-64019000D02*
X163843000Y-67299000D01*
X159929447Y-64209000D02*
X160283000Y-64459000D01*
X160283000Y-64459000D02*
X159929447Y-64709000D01*
X159929447Y-64709000D02*
X159929447Y-64209000D01*
%TO.C,J4*%
X152797000Y-80970000D02*
X152797000Y-80070000D01*
X152797000Y-80070000D02*
X151947000Y-80070000D01*
X151947000Y-80070000D02*
X151947000Y-79770000D01*
X151947000Y-79770000D02*
X151697000Y-79770000D01*
X151697000Y-79770000D02*
X151697000Y-79630000D01*
X147177000Y-80970000D02*
X147177000Y-80070000D01*
X147177000Y-80070000D02*
X148027000Y-80070000D01*
X148027000Y-80070000D02*
X148027000Y-79770000D01*
X148027000Y-79770000D02*
X148277000Y-79770000D01*
X151627000Y-82690000D02*
X148347000Y-82690000D01*
X151437000Y-78776447D02*
X151187000Y-79130000D01*
X151187000Y-79130000D02*
X150937000Y-78776447D01*
X150937000Y-78776447D02*
X151437000Y-78776447D01*
%TO.C,R13*%
X147954000Y-70839359D02*
X147954000Y-71146641D01*
X147194000Y-70839359D02*
X147194000Y-71146641D01*
%TO.C,R7*%
X138403359Y-65914000D02*
X138710641Y-65914000D01*
X138403359Y-66674000D02*
X138710641Y-66674000D01*
%TO.C,R6*%
X136371359Y-65914000D02*
X136678641Y-65914000D01*
X136371359Y-66674000D02*
X136678641Y-66674000D01*
%TO.C,D5*%
X132731000Y-55408000D02*
X132731000Y-59308000D01*
X134731000Y-55408000D02*
X134731000Y-59308000D01*
X132731000Y-55408000D02*
X134731000Y-55408000D01*
%TO.C,C17*%
X146664000Y-70885164D02*
X146664000Y-71100836D01*
X145944000Y-70885164D02*
X145944000Y-71100836D01*
%TO.C,C9*%
X138068164Y-45995000D02*
X138283836Y-45995000D01*
X138068164Y-46715000D02*
X138283836Y-46715000D01*
%TO.C,J2*%
X125128000Y-64508000D02*
X125128000Y-73668000D01*
X125128000Y-73668000D02*
X126833000Y-73668000D01*
X126833000Y-64508000D02*
X125128000Y-64508000D01*
X128843000Y-64508000D02*
X130763000Y-64508000D01*
X130763000Y-73668000D02*
X128843000Y-73668000D01*
%TO.C,J1*%
D16*
X154773093Y-45906062D02*
X154773093Y-46621011D01*
X154820756Y-46764001D01*
X154916082Y-46859327D01*
X155059072Y-46906991D01*
X155154399Y-46906991D01*
X153772164Y-46906991D02*
X154344123Y-46906991D01*
X154058143Y-46906991D02*
X154058143Y-45906062D01*
X154153470Y-46049052D01*
X154248796Y-46144378D01*
X154344123Y-46192041D01*
%TO.C,R13*%
X147918714Y-68344142D02*
X147555857Y-68090142D01*
X147918714Y-67908714D02*
X147156714Y-67908714D01*
X147156714Y-68199000D01*
X147193000Y-68271571D01*
X147229285Y-68307857D01*
X147301857Y-68344142D01*
X147410714Y-68344142D01*
X147483285Y-68307857D01*
X147519571Y-68271571D01*
X147555857Y-68199000D01*
X147555857Y-67908714D01*
X147918714Y-69069857D02*
X147918714Y-68634428D01*
X147918714Y-68852142D02*
X147156714Y-68852142D01*
X147265571Y-68779571D01*
X147338142Y-68707000D01*
X147374428Y-68634428D01*
X147156714Y-69323857D02*
X147156714Y-69795571D01*
X147447000Y-69541571D01*
X147447000Y-69650428D01*
X147483285Y-69723000D01*
X147519571Y-69759285D01*
X147592142Y-69795571D01*
X147773571Y-69795571D01*
X147846142Y-69759285D01*
X147882428Y-69723000D01*
X147918714Y-69650428D01*
X147918714Y-69432714D01*
X147882428Y-69360142D01*
X147846142Y-69323857D01*
%TO.C,R7*%
X138684000Y-67808714D02*
X138938000Y-67445857D01*
X139119428Y-67808714D02*
X139119428Y-67046714D01*
X138829142Y-67046714D01*
X138756571Y-67083000D01*
X138720285Y-67119285D01*
X138684000Y-67191857D01*
X138684000Y-67300714D01*
X138720285Y-67373285D01*
X138756571Y-67409571D01*
X138829142Y-67445857D01*
X139119428Y-67445857D01*
X138430000Y-67046714D02*
X137922000Y-67046714D01*
X138248571Y-67808714D01*
%TO.C,R6*%
X136652000Y-67808714D02*
X136906000Y-67445857D01*
X137087428Y-67808714D02*
X137087428Y-67046714D01*
X136797142Y-67046714D01*
X136724571Y-67083000D01*
X136688285Y-67119285D01*
X136652000Y-67191857D01*
X136652000Y-67300714D01*
X136688285Y-67373285D01*
X136724571Y-67409571D01*
X136797142Y-67445857D01*
X137087428Y-67445857D01*
X135998857Y-67046714D02*
X136144000Y-67046714D01*
X136216571Y-67083000D01*
X136252857Y-67119285D01*
X136325428Y-67228142D01*
X136361714Y-67373285D01*
X136361714Y-67663571D01*
X136325428Y-67736142D01*
X136289142Y-67772428D01*
X136216571Y-67808714D01*
X136071428Y-67808714D01*
X135998857Y-67772428D01*
X135962571Y-67736142D01*
X135926285Y-67663571D01*
X135926285Y-67482142D01*
X135962571Y-67409571D01*
X135998857Y-67373285D01*
X136071428Y-67337000D01*
X136216571Y-67337000D01*
X136289142Y-67373285D01*
X136325428Y-67409571D01*
X136361714Y-67482142D01*
%TO.C,D5*%
X134075714Y-53793571D02*
X133313714Y-53793571D01*
X133313714Y-53975000D01*
X133350000Y-54083857D01*
X133422571Y-54156428D01*
X133495142Y-54192714D01*
X133640285Y-54229000D01*
X133749142Y-54229000D01*
X133894285Y-54192714D01*
X133966857Y-54156428D01*
X134039428Y-54083857D01*
X134075714Y-53975000D01*
X134075714Y-53793571D01*
X133313714Y-54918428D02*
X133313714Y-54555571D01*
X133676571Y-54519285D01*
X133640285Y-54555571D01*
X133604000Y-54628142D01*
X133604000Y-54809571D01*
X133640285Y-54882142D01*
X133676571Y-54918428D01*
X133749142Y-54954714D01*
X133930571Y-54954714D01*
X134003142Y-54918428D01*
X134039428Y-54882142D01*
X134075714Y-54809571D01*
X134075714Y-54628142D01*
X134039428Y-54555571D01*
X134003142Y-54519285D01*
%TO.C,C17*%
X146703142Y-68344142D02*
X146739428Y-68307857D01*
X146775714Y-68199000D01*
X146775714Y-68126428D01*
X146739428Y-68017571D01*
X146666857Y-67945000D01*
X146594285Y-67908714D01*
X146449142Y-67872428D01*
X146340285Y-67872428D01*
X146195142Y-67908714D01*
X146122571Y-67945000D01*
X146050000Y-68017571D01*
X146013714Y-68126428D01*
X146013714Y-68199000D01*
X146050000Y-68307857D01*
X146086285Y-68344142D01*
X146775714Y-69069857D02*
X146775714Y-68634428D01*
X146775714Y-68852142D02*
X146013714Y-68852142D01*
X146122571Y-68779571D01*
X146195142Y-68707000D01*
X146231428Y-68634428D01*
X146013714Y-69323857D02*
X146013714Y-69831857D01*
X146775714Y-69505285D01*
%TO.C,C9*%
X136525000Y-46627142D02*
X136561285Y-46663428D01*
X136670142Y-46699714D01*
X136742714Y-46699714D01*
X136851571Y-46663428D01*
X136924142Y-46590857D01*
X136960428Y-46518285D01*
X136996714Y-46373142D01*
X136996714Y-46264285D01*
X136960428Y-46119142D01*
X136924142Y-46046571D01*
X136851571Y-45974000D01*
X136742714Y-45937714D01*
X136670142Y-45937714D01*
X136561285Y-45974000D01*
X136525000Y-46010285D01*
X136162142Y-46699714D02*
X136017000Y-46699714D01*
X135944428Y-46663428D01*
X135908142Y-46627142D01*
X135835571Y-46518285D01*
X135799285Y-46373142D01*
X135799285Y-46082857D01*
X135835571Y-46010285D01*
X135871857Y-45974000D01*
X135944428Y-45937714D01*
X136089571Y-45937714D01*
X136162142Y-45974000D01*
X136198428Y-46010285D01*
X136234714Y-46082857D01*
X136234714Y-46264285D01*
X136198428Y-46336857D01*
X136162142Y-46373142D01*
X136089571Y-46409428D01*
X135944428Y-46409428D01*
X135871857Y-46373142D01*
X135835571Y-46336857D01*
X135799285Y-46264285D01*
%TD*%
M02*
