%TF.GenerationSoftware,KiCad,Pcbnew,(5.1.10)-1*%
%TF.CreationDate,2021-11-06T19:36:26-04:00*%
%TF.ProjectId,MicroMod_Extension,4d696372-6f4d-46f6-945f-457874656e73,rev?*%
%TF.SameCoordinates,Original*%
%TF.FileFunction,Paste,Top*%
%TF.FilePolarity,Positive*%
%FSLAX46Y46*%
G04 Gerber Fmt 4.6, Leading zero omitted, Abs format (unit mm)*
G04 Created by KiCad (PCBNEW (5.1.10)-1) date 2021-11-06 19:36:26*
%MOMM*%
%LPD*%
G01*
G04 APERTURE LIST*
%ADD10R,1.150000X1.400000*%
%ADD11R,0.475000X0.250000*%
%ADD12R,0.250000X0.475000*%
%ADD13R,0.250000X0.550000*%
%ADD14R,2.800000X3.000000*%
%ADD15R,2.800000X3.200000*%
%ADD16R,0.460000X0.300000*%
%ADD17R,0.300000X0.460000*%
%ADD18R,1.220000X0.650000*%
%ADD19R,0.650000X0.750000*%
%ADD20R,0.250000X0.500000*%
%ADD21R,1.200000X1.000000*%
%ADD22R,1.050000X1.000000*%
%ADD23R,2.200000X1.050000*%
%ADD24R,0.250000X0.600000*%
%ADD25R,0.600000X0.600000*%
%ADD26R,0.800000X1.600000*%
%ADD27R,1.200000X0.900000*%
%ADD28R,0.650000X1.060000*%
G04 APERTURE END LIST*
D10*
%TO.C,Y1*%
X141567000Y-67521000D03*
X141567000Y-65321000D03*
X143167000Y-65321000D03*
X143167000Y-67521000D03*
%TD*%
D11*
%TO.C,U7*%
X147296500Y-53078000D03*
X147296500Y-52078000D03*
X147296500Y-52578000D03*
X149121500Y-53078000D03*
X149121500Y-52078000D03*
X149121500Y-52578000D03*
D12*
X148959000Y-53740500D03*
X147459000Y-53740500D03*
X147959000Y-53740500D03*
X148459000Y-53740500D03*
X148959000Y-51415500D03*
X147459000Y-51415500D03*
X147959000Y-51415500D03*
X148459000Y-51415500D03*
%TD*%
D13*
%TO.C,FL1*%
X145280000Y-73450000D03*
X144780000Y-73450000D03*
X144280000Y-73450000D03*
X144280000Y-72600000D03*
X144780000Y-72600000D03*
X145280000Y-72600000D03*
%TD*%
D14*
%TO.C,J10*%
X127254000Y-56769000D03*
D15*
X127254000Y-52324000D03*
%TD*%
%TO.C,U2*%
G36*
G01*
X140610000Y-75306000D02*
X140610000Y-74566000D01*
G75*
G02*
X140860000Y-74316000I250000J0D01*
G01*
X141600000Y-74316000D01*
G75*
G02*
X141850000Y-74566000I0J-250000D01*
G01*
X141850000Y-75306000D01*
G75*
G02*
X141600000Y-75556000I-250000J0D01*
G01*
X140860000Y-75556000D01*
G75*
G02*
X140610000Y-75306000I0J250000D01*
G01*
G37*
G36*
G01*
X140610000Y-73776000D02*
X140610000Y-73036000D01*
G75*
G02*
X140860000Y-72786000I250000J0D01*
G01*
X141600000Y-72786000D01*
G75*
G02*
X141850000Y-73036000I0J-250000D01*
G01*
X141850000Y-73776000D01*
G75*
G02*
X141600000Y-74026000I-250000J0D01*
G01*
X140860000Y-74026000D01*
G75*
G02*
X140610000Y-73776000I0J250000D01*
G01*
G37*
G36*
G01*
X140610000Y-72246000D02*
X140610000Y-71506000D01*
G75*
G02*
X140860000Y-71256000I250000J0D01*
G01*
X141600000Y-71256000D01*
G75*
G02*
X141850000Y-71506000I0J-250000D01*
G01*
X141850000Y-72246000D01*
G75*
G02*
X141600000Y-72496000I-250000J0D01*
G01*
X140860000Y-72496000D01*
G75*
G02*
X140610000Y-72246000I0J250000D01*
G01*
G37*
G36*
G01*
X139080000Y-75306000D02*
X139080000Y-74566000D01*
G75*
G02*
X139330000Y-74316000I250000J0D01*
G01*
X140070000Y-74316000D01*
G75*
G02*
X140320000Y-74566000I0J-250000D01*
G01*
X140320000Y-75306000D01*
G75*
G02*
X140070000Y-75556000I-250000J0D01*
G01*
X139330000Y-75556000D01*
G75*
G02*
X139080000Y-75306000I0J250000D01*
G01*
G37*
G36*
G01*
X139080000Y-73776000D02*
X139080000Y-73036000D01*
G75*
G02*
X139330000Y-72786000I250000J0D01*
G01*
X140070000Y-72786000D01*
G75*
G02*
X140320000Y-73036000I0J-250000D01*
G01*
X140320000Y-73776000D01*
G75*
G02*
X140070000Y-74026000I-250000J0D01*
G01*
X139330000Y-74026000D01*
G75*
G02*
X139080000Y-73776000I0J250000D01*
G01*
G37*
G36*
G01*
X139080000Y-72246000D02*
X139080000Y-71506000D01*
G75*
G02*
X139330000Y-71256000I250000J0D01*
G01*
X140070000Y-71256000D01*
G75*
G02*
X140320000Y-71506000I0J-250000D01*
G01*
X140320000Y-72246000D01*
G75*
G02*
X140070000Y-72496000I-250000J0D01*
G01*
X139330000Y-72496000D01*
G75*
G02*
X139080000Y-72246000I0J250000D01*
G01*
G37*
G36*
G01*
X137550000Y-75306000D02*
X137550000Y-74566000D01*
G75*
G02*
X137800000Y-74316000I250000J0D01*
G01*
X138540000Y-74316000D01*
G75*
G02*
X138790000Y-74566000I0J-250000D01*
G01*
X138790000Y-75306000D01*
G75*
G02*
X138540000Y-75556000I-250000J0D01*
G01*
X137800000Y-75556000D01*
G75*
G02*
X137550000Y-75306000I0J250000D01*
G01*
G37*
G36*
G01*
X137550000Y-73776000D02*
X137550000Y-73036000D01*
G75*
G02*
X137800000Y-72786000I250000J0D01*
G01*
X138540000Y-72786000D01*
G75*
G02*
X138790000Y-73036000I0J-250000D01*
G01*
X138790000Y-73776000D01*
G75*
G02*
X138540000Y-74026000I-250000J0D01*
G01*
X137800000Y-74026000D01*
G75*
G02*
X137550000Y-73776000I0J250000D01*
G01*
G37*
G36*
G01*
X137550000Y-72246000D02*
X137550000Y-71506000D01*
G75*
G02*
X137800000Y-71256000I250000J0D01*
G01*
X138540000Y-71256000D01*
G75*
G02*
X138790000Y-71506000I0J-250000D01*
G01*
X138790000Y-72246000D01*
G75*
G02*
X138540000Y-72496000I-250000J0D01*
G01*
X137800000Y-72496000D01*
G75*
G02*
X137550000Y-72246000I0J250000D01*
G01*
G37*
G36*
G01*
X137400000Y-70806000D02*
X137400000Y-70106000D01*
G75*
G02*
X137450000Y-70056000I50000J0D01*
G01*
X137550000Y-70056000D01*
G75*
G02*
X137600000Y-70106000I0J-50000D01*
G01*
X137600000Y-70806000D01*
G75*
G02*
X137550000Y-70856000I-50000J0D01*
G01*
X137450000Y-70856000D01*
G75*
G02*
X137400000Y-70806000I0J50000D01*
G01*
G37*
G36*
G01*
X137800000Y-70806000D02*
X137800000Y-70106000D01*
G75*
G02*
X137850000Y-70056000I50000J0D01*
G01*
X137950000Y-70056000D01*
G75*
G02*
X138000000Y-70106000I0J-50000D01*
G01*
X138000000Y-70806000D01*
G75*
G02*
X137950000Y-70856000I-50000J0D01*
G01*
X137850000Y-70856000D01*
G75*
G02*
X137800000Y-70806000I0J50000D01*
G01*
G37*
G36*
G01*
X138200000Y-70806000D02*
X138200000Y-70106000D01*
G75*
G02*
X138250000Y-70056000I50000J0D01*
G01*
X138350000Y-70056000D01*
G75*
G02*
X138400000Y-70106000I0J-50000D01*
G01*
X138400000Y-70806000D01*
G75*
G02*
X138350000Y-70856000I-50000J0D01*
G01*
X138250000Y-70856000D01*
G75*
G02*
X138200000Y-70806000I0J50000D01*
G01*
G37*
G36*
G01*
X138600000Y-70806000D02*
X138600000Y-70106000D01*
G75*
G02*
X138650000Y-70056000I50000J0D01*
G01*
X138750000Y-70056000D01*
G75*
G02*
X138800000Y-70106000I0J-50000D01*
G01*
X138800000Y-70806000D01*
G75*
G02*
X138750000Y-70856000I-50000J0D01*
G01*
X138650000Y-70856000D01*
G75*
G02*
X138600000Y-70806000I0J50000D01*
G01*
G37*
G36*
G01*
X139000000Y-70806000D02*
X139000000Y-70106000D01*
G75*
G02*
X139050000Y-70056000I50000J0D01*
G01*
X139150000Y-70056000D01*
G75*
G02*
X139200000Y-70106000I0J-50000D01*
G01*
X139200000Y-70806000D01*
G75*
G02*
X139150000Y-70856000I-50000J0D01*
G01*
X139050000Y-70856000D01*
G75*
G02*
X139000000Y-70806000I0J50000D01*
G01*
G37*
G36*
G01*
X139400000Y-70806000D02*
X139400000Y-70106000D01*
G75*
G02*
X139450000Y-70056000I50000J0D01*
G01*
X139550000Y-70056000D01*
G75*
G02*
X139600000Y-70106000I0J-50000D01*
G01*
X139600000Y-70806000D01*
G75*
G02*
X139550000Y-70856000I-50000J0D01*
G01*
X139450000Y-70856000D01*
G75*
G02*
X139400000Y-70806000I0J50000D01*
G01*
G37*
G36*
G01*
X139800000Y-70806000D02*
X139800000Y-70106000D01*
G75*
G02*
X139850000Y-70056000I50000J0D01*
G01*
X139950000Y-70056000D01*
G75*
G02*
X140000000Y-70106000I0J-50000D01*
G01*
X140000000Y-70806000D01*
G75*
G02*
X139950000Y-70856000I-50000J0D01*
G01*
X139850000Y-70856000D01*
G75*
G02*
X139800000Y-70806000I0J50000D01*
G01*
G37*
G36*
G01*
X140200000Y-70806000D02*
X140200000Y-70106000D01*
G75*
G02*
X140250000Y-70056000I50000J0D01*
G01*
X140350000Y-70056000D01*
G75*
G02*
X140400000Y-70106000I0J-50000D01*
G01*
X140400000Y-70806000D01*
G75*
G02*
X140350000Y-70856000I-50000J0D01*
G01*
X140250000Y-70856000D01*
G75*
G02*
X140200000Y-70806000I0J50000D01*
G01*
G37*
G36*
G01*
X140600000Y-70806000D02*
X140600000Y-70106000D01*
G75*
G02*
X140650000Y-70056000I50000J0D01*
G01*
X140750000Y-70056000D01*
G75*
G02*
X140800000Y-70106000I0J-50000D01*
G01*
X140800000Y-70806000D01*
G75*
G02*
X140750000Y-70856000I-50000J0D01*
G01*
X140650000Y-70856000D01*
G75*
G02*
X140600000Y-70806000I0J50000D01*
G01*
G37*
G36*
G01*
X141000000Y-70806000D02*
X141000000Y-70106000D01*
G75*
G02*
X141050000Y-70056000I50000J0D01*
G01*
X141150000Y-70056000D01*
G75*
G02*
X141200000Y-70106000I0J-50000D01*
G01*
X141200000Y-70806000D01*
G75*
G02*
X141150000Y-70856000I-50000J0D01*
G01*
X141050000Y-70856000D01*
G75*
G02*
X141000000Y-70806000I0J50000D01*
G01*
G37*
G36*
G01*
X141400000Y-70806000D02*
X141400000Y-70106000D01*
G75*
G02*
X141450000Y-70056000I50000J0D01*
G01*
X141550000Y-70056000D01*
G75*
G02*
X141600000Y-70106000I0J-50000D01*
G01*
X141600000Y-70806000D01*
G75*
G02*
X141550000Y-70856000I-50000J0D01*
G01*
X141450000Y-70856000D01*
G75*
G02*
X141400000Y-70806000I0J50000D01*
G01*
G37*
G36*
G01*
X141800000Y-70806000D02*
X141800000Y-70106000D01*
G75*
G02*
X141850000Y-70056000I50000J0D01*
G01*
X141950000Y-70056000D01*
G75*
G02*
X142000000Y-70106000I0J-50000D01*
G01*
X142000000Y-70806000D01*
G75*
G02*
X141950000Y-70856000I-50000J0D01*
G01*
X141850000Y-70856000D01*
G75*
G02*
X141800000Y-70806000I0J50000D01*
G01*
G37*
G36*
G01*
X142250000Y-71256000D02*
X142250000Y-71156000D01*
G75*
G02*
X142300000Y-71106000I50000J0D01*
G01*
X143000000Y-71106000D01*
G75*
G02*
X143050000Y-71156000I0J-50000D01*
G01*
X143050000Y-71256000D01*
G75*
G02*
X143000000Y-71306000I-50000J0D01*
G01*
X142300000Y-71306000D01*
G75*
G02*
X142250000Y-71256000I0J50000D01*
G01*
G37*
G36*
G01*
X142250000Y-71656000D02*
X142250000Y-71556000D01*
G75*
G02*
X142300000Y-71506000I50000J0D01*
G01*
X143000000Y-71506000D01*
G75*
G02*
X143050000Y-71556000I0J-50000D01*
G01*
X143050000Y-71656000D01*
G75*
G02*
X143000000Y-71706000I-50000J0D01*
G01*
X142300000Y-71706000D01*
G75*
G02*
X142250000Y-71656000I0J50000D01*
G01*
G37*
G36*
G01*
X142250000Y-72056000D02*
X142250000Y-71956000D01*
G75*
G02*
X142300000Y-71906000I50000J0D01*
G01*
X143000000Y-71906000D01*
G75*
G02*
X143050000Y-71956000I0J-50000D01*
G01*
X143050000Y-72056000D01*
G75*
G02*
X143000000Y-72106000I-50000J0D01*
G01*
X142300000Y-72106000D01*
G75*
G02*
X142250000Y-72056000I0J50000D01*
G01*
G37*
G36*
G01*
X142250000Y-72456000D02*
X142250000Y-72356000D01*
G75*
G02*
X142300000Y-72306000I50000J0D01*
G01*
X143000000Y-72306000D01*
G75*
G02*
X143050000Y-72356000I0J-50000D01*
G01*
X143050000Y-72456000D01*
G75*
G02*
X143000000Y-72506000I-50000J0D01*
G01*
X142300000Y-72506000D01*
G75*
G02*
X142250000Y-72456000I0J50000D01*
G01*
G37*
G36*
G01*
X142250000Y-72856000D02*
X142250000Y-72756000D01*
G75*
G02*
X142300000Y-72706000I50000J0D01*
G01*
X143000000Y-72706000D01*
G75*
G02*
X143050000Y-72756000I0J-50000D01*
G01*
X143050000Y-72856000D01*
G75*
G02*
X143000000Y-72906000I-50000J0D01*
G01*
X142300000Y-72906000D01*
G75*
G02*
X142250000Y-72856000I0J50000D01*
G01*
G37*
G36*
G01*
X142250000Y-73256000D02*
X142250000Y-73156000D01*
G75*
G02*
X142300000Y-73106000I50000J0D01*
G01*
X143000000Y-73106000D01*
G75*
G02*
X143050000Y-73156000I0J-50000D01*
G01*
X143050000Y-73256000D01*
G75*
G02*
X143000000Y-73306000I-50000J0D01*
G01*
X142300000Y-73306000D01*
G75*
G02*
X142250000Y-73256000I0J50000D01*
G01*
G37*
G36*
G01*
X142250000Y-73656000D02*
X142250000Y-73556000D01*
G75*
G02*
X142300000Y-73506000I50000J0D01*
G01*
X143000000Y-73506000D01*
G75*
G02*
X143050000Y-73556000I0J-50000D01*
G01*
X143050000Y-73656000D01*
G75*
G02*
X143000000Y-73706000I-50000J0D01*
G01*
X142300000Y-73706000D01*
G75*
G02*
X142250000Y-73656000I0J50000D01*
G01*
G37*
G36*
G01*
X142250000Y-74056000D02*
X142250000Y-73956000D01*
G75*
G02*
X142300000Y-73906000I50000J0D01*
G01*
X143000000Y-73906000D01*
G75*
G02*
X143050000Y-73956000I0J-50000D01*
G01*
X143050000Y-74056000D01*
G75*
G02*
X143000000Y-74106000I-50000J0D01*
G01*
X142300000Y-74106000D01*
G75*
G02*
X142250000Y-74056000I0J50000D01*
G01*
G37*
G36*
G01*
X142250000Y-74456000D02*
X142250000Y-74356000D01*
G75*
G02*
X142300000Y-74306000I50000J0D01*
G01*
X143000000Y-74306000D01*
G75*
G02*
X143050000Y-74356000I0J-50000D01*
G01*
X143050000Y-74456000D01*
G75*
G02*
X143000000Y-74506000I-50000J0D01*
G01*
X142300000Y-74506000D01*
G75*
G02*
X142250000Y-74456000I0J50000D01*
G01*
G37*
G36*
G01*
X142250000Y-74856000D02*
X142250000Y-74756000D01*
G75*
G02*
X142300000Y-74706000I50000J0D01*
G01*
X143000000Y-74706000D01*
G75*
G02*
X143050000Y-74756000I0J-50000D01*
G01*
X143050000Y-74856000D01*
G75*
G02*
X143000000Y-74906000I-50000J0D01*
G01*
X142300000Y-74906000D01*
G75*
G02*
X142250000Y-74856000I0J50000D01*
G01*
G37*
G36*
G01*
X142250000Y-75256000D02*
X142250000Y-75156000D01*
G75*
G02*
X142300000Y-75106000I50000J0D01*
G01*
X143000000Y-75106000D01*
G75*
G02*
X143050000Y-75156000I0J-50000D01*
G01*
X143050000Y-75256000D01*
G75*
G02*
X143000000Y-75306000I-50000J0D01*
G01*
X142300000Y-75306000D01*
G75*
G02*
X142250000Y-75256000I0J50000D01*
G01*
G37*
G36*
G01*
X142250000Y-75656000D02*
X142250000Y-75556000D01*
G75*
G02*
X142300000Y-75506000I50000J0D01*
G01*
X143000000Y-75506000D01*
G75*
G02*
X143050000Y-75556000I0J-50000D01*
G01*
X143050000Y-75656000D01*
G75*
G02*
X143000000Y-75706000I-50000J0D01*
G01*
X142300000Y-75706000D01*
G75*
G02*
X142250000Y-75656000I0J50000D01*
G01*
G37*
G36*
G01*
X141800000Y-76706000D02*
X141800000Y-76006000D01*
G75*
G02*
X141850000Y-75956000I50000J0D01*
G01*
X141950000Y-75956000D01*
G75*
G02*
X142000000Y-76006000I0J-50000D01*
G01*
X142000000Y-76706000D01*
G75*
G02*
X141950000Y-76756000I-50000J0D01*
G01*
X141850000Y-76756000D01*
G75*
G02*
X141800000Y-76706000I0J50000D01*
G01*
G37*
G36*
G01*
X141400000Y-76706000D02*
X141400000Y-76006000D01*
G75*
G02*
X141450000Y-75956000I50000J0D01*
G01*
X141550000Y-75956000D01*
G75*
G02*
X141600000Y-76006000I0J-50000D01*
G01*
X141600000Y-76706000D01*
G75*
G02*
X141550000Y-76756000I-50000J0D01*
G01*
X141450000Y-76756000D01*
G75*
G02*
X141400000Y-76706000I0J50000D01*
G01*
G37*
G36*
G01*
X141000000Y-76706000D02*
X141000000Y-76006000D01*
G75*
G02*
X141050000Y-75956000I50000J0D01*
G01*
X141150000Y-75956000D01*
G75*
G02*
X141200000Y-76006000I0J-50000D01*
G01*
X141200000Y-76706000D01*
G75*
G02*
X141150000Y-76756000I-50000J0D01*
G01*
X141050000Y-76756000D01*
G75*
G02*
X141000000Y-76706000I0J50000D01*
G01*
G37*
G36*
G01*
X140600000Y-76706000D02*
X140600000Y-76006000D01*
G75*
G02*
X140650000Y-75956000I50000J0D01*
G01*
X140750000Y-75956000D01*
G75*
G02*
X140800000Y-76006000I0J-50000D01*
G01*
X140800000Y-76706000D01*
G75*
G02*
X140750000Y-76756000I-50000J0D01*
G01*
X140650000Y-76756000D01*
G75*
G02*
X140600000Y-76706000I0J50000D01*
G01*
G37*
G36*
G01*
X140200000Y-76706000D02*
X140200000Y-76006000D01*
G75*
G02*
X140250000Y-75956000I50000J0D01*
G01*
X140350000Y-75956000D01*
G75*
G02*
X140400000Y-76006000I0J-50000D01*
G01*
X140400000Y-76706000D01*
G75*
G02*
X140350000Y-76756000I-50000J0D01*
G01*
X140250000Y-76756000D01*
G75*
G02*
X140200000Y-76706000I0J50000D01*
G01*
G37*
G36*
G01*
X139800000Y-76706000D02*
X139800000Y-76006000D01*
G75*
G02*
X139850000Y-75956000I50000J0D01*
G01*
X139950000Y-75956000D01*
G75*
G02*
X140000000Y-76006000I0J-50000D01*
G01*
X140000000Y-76706000D01*
G75*
G02*
X139950000Y-76756000I-50000J0D01*
G01*
X139850000Y-76756000D01*
G75*
G02*
X139800000Y-76706000I0J50000D01*
G01*
G37*
G36*
G01*
X139400000Y-76706000D02*
X139400000Y-76006000D01*
G75*
G02*
X139450000Y-75956000I50000J0D01*
G01*
X139550000Y-75956000D01*
G75*
G02*
X139600000Y-76006000I0J-50000D01*
G01*
X139600000Y-76706000D01*
G75*
G02*
X139550000Y-76756000I-50000J0D01*
G01*
X139450000Y-76756000D01*
G75*
G02*
X139400000Y-76706000I0J50000D01*
G01*
G37*
G36*
G01*
X139000000Y-76706000D02*
X139000000Y-76006000D01*
G75*
G02*
X139050000Y-75956000I50000J0D01*
G01*
X139150000Y-75956000D01*
G75*
G02*
X139200000Y-76006000I0J-50000D01*
G01*
X139200000Y-76706000D01*
G75*
G02*
X139150000Y-76756000I-50000J0D01*
G01*
X139050000Y-76756000D01*
G75*
G02*
X139000000Y-76706000I0J50000D01*
G01*
G37*
G36*
G01*
X138600000Y-76706000D02*
X138600000Y-76006000D01*
G75*
G02*
X138650000Y-75956000I50000J0D01*
G01*
X138750000Y-75956000D01*
G75*
G02*
X138800000Y-76006000I0J-50000D01*
G01*
X138800000Y-76706000D01*
G75*
G02*
X138750000Y-76756000I-50000J0D01*
G01*
X138650000Y-76756000D01*
G75*
G02*
X138600000Y-76706000I0J50000D01*
G01*
G37*
G36*
G01*
X138200000Y-76706000D02*
X138200000Y-76006000D01*
G75*
G02*
X138250000Y-75956000I50000J0D01*
G01*
X138350000Y-75956000D01*
G75*
G02*
X138400000Y-76006000I0J-50000D01*
G01*
X138400000Y-76706000D01*
G75*
G02*
X138350000Y-76756000I-50000J0D01*
G01*
X138250000Y-76756000D01*
G75*
G02*
X138200000Y-76706000I0J50000D01*
G01*
G37*
G36*
G01*
X137800000Y-76706000D02*
X137800000Y-76006000D01*
G75*
G02*
X137850000Y-75956000I50000J0D01*
G01*
X137950000Y-75956000D01*
G75*
G02*
X138000000Y-76006000I0J-50000D01*
G01*
X138000000Y-76706000D01*
G75*
G02*
X137950000Y-76756000I-50000J0D01*
G01*
X137850000Y-76756000D01*
G75*
G02*
X137800000Y-76706000I0J50000D01*
G01*
G37*
G36*
G01*
X137400000Y-76706000D02*
X137400000Y-76006000D01*
G75*
G02*
X137450000Y-75956000I50000J0D01*
G01*
X137550000Y-75956000D01*
G75*
G02*
X137600000Y-76006000I0J-50000D01*
G01*
X137600000Y-76706000D01*
G75*
G02*
X137550000Y-76756000I-50000J0D01*
G01*
X137450000Y-76756000D01*
G75*
G02*
X137400000Y-76706000I0J50000D01*
G01*
G37*
G36*
G01*
X136350000Y-75656000D02*
X136350000Y-75556000D01*
G75*
G02*
X136400000Y-75506000I50000J0D01*
G01*
X137100000Y-75506000D01*
G75*
G02*
X137150000Y-75556000I0J-50000D01*
G01*
X137150000Y-75656000D01*
G75*
G02*
X137100000Y-75706000I-50000J0D01*
G01*
X136400000Y-75706000D01*
G75*
G02*
X136350000Y-75656000I0J50000D01*
G01*
G37*
G36*
G01*
X136350000Y-75256000D02*
X136350000Y-75156000D01*
G75*
G02*
X136400000Y-75106000I50000J0D01*
G01*
X137100000Y-75106000D01*
G75*
G02*
X137150000Y-75156000I0J-50000D01*
G01*
X137150000Y-75256000D01*
G75*
G02*
X137100000Y-75306000I-50000J0D01*
G01*
X136400000Y-75306000D01*
G75*
G02*
X136350000Y-75256000I0J50000D01*
G01*
G37*
G36*
G01*
X136350000Y-74856000D02*
X136350000Y-74756000D01*
G75*
G02*
X136400000Y-74706000I50000J0D01*
G01*
X137100000Y-74706000D01*
G75*
G02*
X137150000Y-74756000I0J-50000D01*
G01*
X137150000Y-74856000D01*
G75*
G02*
X137100000Y-74906000I-50000J0D01*
G01*
X136400000Y-74906000D01*
G75*
G02*
X136350000Y-74856000I0J50000D01*
G01*
G37*
G36*
G01*
X136350000Y-74456000D02*
X136350000Y-74356000D01*
G75*
G02*
X136400000Y-74306000I50000J0D01*
G01*
X137100000Y-74306000D01*
G75*
G02*
X137150000Y-74356000I0J-50000D01*
G01*
X137150000Y-74456000D01*
G75*
G02*
X137100000Y-74506000I-50000J0D01*
G01*
X136400000Y-74506000D01*
G75*
G02*
X136350000Y-74456000I0J50000D01*
G01*
G37*
G36*
G01*
X136350000Y-74056000D02*
X136350000Y-73956000D01*
G75*
G02*
X136400000Y-73906000I50000J0D01*
G01*
X137100000Y-73906000D01*
G75*
G02*
X137150000Y-73956000I0J-50000D01*
G01*
X137150000Y-74056000D01*
G75*
G02*
X137100000Y-74106000I-50000J0D01*
G01*
X136400000Y-74106000D01*
G75*
G02*
X136350000Y-74056000I0J50000D01*
G01*
G37*
G36*
G01*
X136350000Y-73656000D02*
X136350000Y-73556000D01*
G75*
G02*
X136400000Y-73506000I50000J0D01*
G01*
X137100000Y-73506000D01*
G75*
G02*
X137150000Y-73556000I0J-50000D01*
G01*
X137150000Y-73656000D01*
G75*
G02*
X137100000Y-73706000I-50000J0D01*
G01*
X136400000Y-73706000D01*
G75*
G02*
X136350000Y-73656000I0J50000D01*
G01*
G37*
G36*
G01*
X136350000Y-73256000D02*
X136350000Y-73156000D01*
G75*
G02*
X136400000Y-73106000I50000J0D01*
G01*
X137100000Y-73106000D01*
G75*
G02*
X137150000Y-73156000I0J-50000D01*
G01*
X137150000Y-73256000D01*
G75*
G02*
X137100000Y-73306000I-50000J0D01*
G01*
X136400000Y-73306000D01*
G75*
G02*
X136350000Y-73256000I0J50000D01*
G01*
G37*
G36*
G01*
X136350000Y-72856000D02*
X136350000Y-72756000D01*
G75*
G02*
X136400000Y-72706000I50000J0D01*
G01*
X137100000Y-72706000D01*
G75*
G02*
X137150000Y-72756000I0J-50000D01*
G01*
X137150000Y-72856000D01*
G75*
G02*
X137100000Y-72906000I-50000J0D01*
G01*
X136400000Y-72906000D01*
G75*
G02*
X136350000Y-72856000I0J50000D01*
G01*
G37*
G36*
G01*
X136350000Y-72456000D02*
X136350000Y-72356000D01*
G75*
G02*
X136400000Y-72306000I50000J0D01*
G01*
X137100000Y-72306000D01*
G75*
G02*
X137150000Y-72356000I0J-50000D01*
G01*
X137150000Y-72456000D01*
G75*
G02*
X137100000Y-72506000I-50000J0D01*
G01*
X136400000Y-72506000D01*
G75*
G02*
X136350000Y-72456000I0J50000D01*
G01*
G37*
G36*
G01*
X136350000Y-72056000D02*
X136350000Y-71956000D01*
G75*
G02*
X136400000Y-71906000I50000J0D01*
G01*
X137100000Y-71906000D01*
G75*
G02*
X137150000Y-71956000I0J-50000D01*
G01*
X137150000Y-72056000D01*
G75*
G02*
X137100000Y-72106000I-50000J0D01*
G01*
X136400000Y-72106000D01*
G75*
G02*
X136350000Y-72056000I0J50000D01*
G01*
G37*
G36*
G01*
X136350000Y-71656000D02*
X136350000Y-71556000D01*
G75*
G02*
X136400000Y-71506000I50000J0D01*
G01*
X137100000Y-71506000D01*
G75*
G02*
X137150000Y-71556000I0J-50000D01*
G01*
X137150000Y-71656000D01*
G75*
G02*
X137100000Y-71706000I-50000J0D01*
G01*
X136400000Y-71706000D01*
G75*
G02*
X136350000Y-71656000I0J50000D01*
G01*
G37*
G36*
G01*
X136350000Y-71256000D02*
X136350000Y-71156000D01*
G75*
G02*
X136400000Y-71106000I50000J0D01*
G01*
X137100000Y-71106000D01*
G75*
G02*
X137150000Y-71156000I0J-50000D01*
G01*
X137150000Y-71256000D01*
G75*
G02*
X137100000Y-71306000I-50000J0D01*
G01*
X136400000Y-71306000D01*
G75*
G02*
X136350000Y-71256000I0J50000D01*
G01*
G37*
%TD*%
D16*
%TO.C,U8*%
X150726000Y-52520000D03*
X150726000Y-52070000D03*
X150726000Y-51620000D03*
X152296000Y-52520000D03*
X152296000Y-52070000D03*
X152296000Y-51620000D03*
D17*
X151286000Y-52855000D03*
X151736000Y-52855000D03*
X151286000Y-51285000D03*
X151736000Y-51285000D03*
%TD*%
%TO.C,L2*%
G36*
G01*
X145714500Y-61151000D02*
X145369500Y-61151000D01*
G75*
G02*
X145222000Y-61003500I0J147500D01*
G01*
X145222000Y-60708500D01*
G75*
G02*
X145369500Y-60561000I147500J0D01*
G01*
X145714500Y-60561000D01*
G75*
G02*
X145862000Y-60708500I0J-147500D01*
G01*
X145862000Y-61003500D01*
G75*
G02*
X145714500Y-61151000I-147500J0D01*
G01*
G37*
G36*
G01*
X145714500Y-62121000D02*
X145369500Y-62121000D01*
G75*
G02*
X145222000Y-61973500I0J147500D01*
G01*
X145222000Y-61678500D01*
G75*
G02*
X145369500Y-61531000I147500J0D01*
G01*
X145714500Y-61531000D01*
G75*
G02*
X145862000Y-61678500I0J-147500D01*
G01*
X145862000Y-61973500D01*
G75*
G02*
X145714500Y-62121000I-147500J0D01*
G01*
G37*
%TD*%
%TO.C,C25*%
G36*
G01*
X146982000Y-61141000D02*
X146642000Y-61141000D01*
G75*
G02*
X146502000Y-61001000I0J140000D01*
G01*
X146502000Y-60721000D01*
G75*
G02*
X146642000Y-60581000I140000J0D01*
G01*
X146982000Y-60581000D01*
G75*
G02*
X147122000Y-60721000I0J-140000D01*
G01*
X147122000Y-61001000D01*
G75*
G02*
X146982000Y-61141000I-140000J0D01*
G01*
G37*
G36*
G01*
X146982000Y-62101000D02*
X146642000Y-62101000D01*
G75*
G02*
X146502000Y-61961000I0J140000D01*
G01*
X146502000Y-61681000D01*
G75*
G02*
X146642000Y-61541000I140000J0D01*
G01*
X146982000Y-61541000D01*
G75*
G02*
X147122000Y-61681000I0J-140000D01*
G01*
X147122000Y-61961000D01*
G75*
G02*
X146982000Y-62101000I-140000J0D01*
G01*
G37*
%TD*%
%TO.C,C24*%
G36*
G01*
X153500000Y-52016000D02*
X153840000Y-52016000D01*
G75*
G02*
X153980000Y-52156000I0J-140000D01*
G01*
X153980000Y-52436000D01*
G75*
G02*
X153840000Y-52576000I-140000J0D01*
G01*
X153500000Y-52576000D01*
G75*
G02*
X153360000Y-52436000I0J140000D01*
G01*
X153360000Y-52156000D01*
G75*
G02*
X153500000Y-52016000I140000J0D01*
G01*
G37*
G36*
G01*
X153500000Y-51056000D02*
X153840000Y-51056000D01*
G75*
G02*
X153980000Y-51196000I0J-140000D01*
G01*
X153980000Y-51476000D01*
G75*
G02*
X153840000Y-51616000I-140000J0D01*
G01*
X153500000Y-51616000D01*
G75*
G02*
X153360000Y-51476000I0J140000D01*
G01*
X153360000Y-51196000D01*
G75*
G02*
X153500000Y-51056000I140000J0D01*
G01*
G37*
%TD*%
%TO.C,C23*%
G36*
G01*
X150930000Y-54059000D02*
X150930000Y-54399000D01*
G75*
G02*
X150790000Y-54539000I-140000J0D01*
G01*
X150510000Y-54539000D01*
G75*
G02*
X150370000Y-54399000I0J140000D01*
G01*
X150370000Y-54059000D01*
G75*
G02*
X150510000Y-53919000I140000J0D01*
G01*
X150790000Y-53919000D01*
G75*
G02*
X150930000Y-54059000I0J-140000D01*
G01*
G37*
G36*
G01*
X151890000Y-54059000D02*
X151890000Y-54399000D01*
G75*
G02*
X151750000Y-54539000I-140000J0D01*
G01*
X151470000Y-54539000D01*
G75*
G02*
X151330000Y-54399000I0J140000D01*
G01*
X151330000Y-54059000D01*
G75*
G02*
X151470000Y-53919000I140000J0D01*
G01*
X151750000Y-53919000D01*
G75*
G02*
X151890000Y-54059000I0J-140000D01*
G01*
G37*
%TD*%
%TO.C,C18*%
G36*
G01*
X133789000Y-57945000D02*
X133789000Y-58895000D01*
G75*
G02*
X133539000Y-59145000I-250000J0D01*
G01*
X133039000Y-59145000D01*
G75*
G02*
X132789000Y-58895000I0J250000D01*
G01*
X132789000Y-57945000D01*
G75*
G02*
X133039000Y-57695000I250000J0D01*
G01*
X133539000Y-57695000D01*
G75*
G02*
X133789000Y-57945000I0J-250000D01*
G01*
G37*
G36*
G01*
X135689000Y-57945000D02*
X135689000Y-58895000D01*
G75*
G02*
X135439000Y-59145000I-250000J0D01*
G01*
X134939000Y-59145000D01*
G75*
G02*
X134689000Y-58895000I0J250000D01*
G01*
X134689000Y-57945000D01*
G75*
G02*
X134939000Y-57695000I250000J0D01*
G01*
X135439000Y-57695000D01*
G75*
G02*
X135689000Y-57945000I0J-250000D01*
G01*
G37*
%TD*%
%TO.C,C1*%
G36*
G01*
X145499000Y-53667000D02*
X145839000Y-53667000D01*
G75*
G02*
X145979000Y-53807000I0J-140000D01*
G01*
X145979000Y-54087000D01*
G75*
G02*
X145839000Y-54227000I-140000J0D01*
G01*
X145499000Y-54227000D01*
G75*
G02*
X145359000Y-54087000I0J140000D01*
G01*
X145359000Y-53807000D01*
G75*
G02*
X145499000Y-53667000I140000J0D01*
G01*
G37*
G36*
G01*
X145499000Y-52707000D02*
X145839000Y-52707000D01*
G75*
G02*
X145979000Y-52847000I0J-140000D01*
G01*
X145979000Y-53127000D01*
G75*
G02*
X145839000Y-53267000I-140000J0D01*
G01*
X145499000Y-53267000D01*
G75*
G02*
X145359000Y-53127000I0J140000D01*
G01*
X145359000Y-52847000D01*
G75*
G02*
X145499000Y-52707000I140000J0D01*
G01*
G37*
%TD*%
D18*
%TO.C,U6*%
X142512000Y-59756000D03*
X142512000Y-61656000D03*
X139892000Y-61656000D03*
X139892000Y-60706000D03*
X139892000Y-59756000D03*
%TD*%
%TO.C,U5*%
X142534000Y-51628000D03*
X142534000Y-53528000D03*
X139914000Y-53528000D03*
X139914000Y-52578000D03*
X139914000Y-51628000D03*
%TD*%
D19*
%TO.C,U4*%
X130410000Y-60579000D03*
X131210000Y-60579000D03*
D20*
X131060000Y-59629000D03*
X131560000Y-59629000D03*
X131560000Y-61529000D03*
X130560000Y-61529000D03*
X130060000Y-61529000D03*
X130060000Y-59629000D03*
X130560000Y-59629000D03*
X131060000Y-61529000D03*
%TD*%
%TO.C,U3*%
G36*
G01*
X148538000Y-70427500D02*
X148538000Y-70092500D01*
G75*
G02*
X148705500Y-69925000I167500J0D01*
G01*
X149040500Y-69925000D01*
G75*
G02*
X149208000Y-70092500I0J-167500D01*
G01*
X149208000Y-70427500D01*
G75*
G02*
X149040500Y-70595000I-167500J0D01*
G01*
X148705500Y-70595000D01*
G75*
G02*
X148538000Y-70427500I0J167500D01*
G01*
G37*
G36*
G01*
X148538000Y-69607500D02*
X148538000Y-69272500D01*
G75*
G02*
X148705500Y-69105000I167500J0D01*
G01*
X149040500Y-69105000D01*
G75*
G02*
X149208000Y-69272500I0J-167500D01*
G01*
X149208000Y-69607500D01*
G75*
G02*
X149040500Y-69775000I-167500J0D01*
G01*
X148705500Y-69775000D01*
G75*
G02*
X148538000Y-69607500I0J167500D01*
G01*
G37*
G36*
G01*
X147718000Y-70427500D02*
X147718000Y-70092500D01*
G75*
G02*
X147885500Y-69925000I167500J0D01*
G01*
X148220500Y-69925000D01*
G75*
G02*
X148388000Y-70092500I0J-167500D01*
G01*
X148388000Y-70427500D01*
G75*
G02*
X148220500Y-70595000I-167500J0D01*
G01*
X147885500Y-70595000D01*
G75*
G02*
X147718000Y-70427500I0J167500D01*
G01*
G37*
G36*
G01*
X147718000Y-69607500D02*
X147718000Y-69272500D01*
G75*
G02*
X147885500Y-69105000I167500J0D01*
G01*
X148220500Y-69105000D01*
G75*
G02*
X148388000Y-69272500I0J-167500D01*
G01*
X148388000Y-69607500D01*
G75*
G02*
X148220500Y-69775000I-167500J0D01*
G01*
X147885500Y-69775000D01*
G75*
G02*
X147718000Y-69607500I0J167500D01*
G01*
G37*
G36*
G01*
X147563000Y-68775000D02*
X147563000Y-68025000D01*
G75*
G02*
X147613000Y-67975000I50000J0D01*
G01*
X147713000Y-67975000D01*
G75*
G02*
X147763000Y-68025000I0J-50000D01*
G01*
X147763000Y-68775000D01*
G75*
G02*
X147713000Y-68825000I-50000J0D01*
G01*
X147613000Y-68825000D01*
G75*
G02*
X147563000Y-68775000I0J50000D01*
G01*
G37*
G36*
G01*
X147963000Y-68775000D02*
X147963000Y-68025000D01*
G75*
G02*
X148013000Y-67975000I50000J0D01*
G01*
X148113000Y-67975000D01*
G75*
G02*
X148163000Y-68025000I0J-50000D01*
G01*
X148163000Y-68775000D01*
G75*
G02*
X148113000Y-68825000I-50000J0D01*
G01*
X148013000Y-68825000D01*
G75*
G02*
X147963000Y-68775000I0J50000D01*
G01*
G37*
G36*
G01*
X148363000Y-68775000D02*
X148363000Y-68025000D01*
G75*
G02*
X148413000Y-67975000I50000J0D01*
G01*
X148513000Y-67975000D01*
G75*
G02*
X148563000Y-68025000I0J-50000D01*
G01*
X148563000Y-68775000D01*
G75*
G02*
X148513000Y-68825000I-50000J0D01*
G01*
X148413000Y-68825000D01*
G75*
G02*
X148363000Y-68775000I0J50000D01*
G01*
G37*
G36*
G01*
X148763000Y-68775000D02*
X148763000Y-68025000D01*
G75*
G02*
X148813000Y-67975000I50000J0D01*
G01*
X148913000Y-67975000D01*
G75*
G02*
X148963000Y-68025000I0J-50000D01*
G01*
X148963000Y-68775000D01*
G75*
G02*
X148913000Y-68825000I-50000J0D01*
G01*
X148813000Y-68825000D01*
G75*
G02*
X148763000Y-68775000I0J50000D01*
G01*
G37*
G36*
G01*
X149163000Y-68775000D02*
X149163000Y-68025000D01*
G75*
G02*
X149213000Y-67975000I50000J0D01*
G01*
X149313000Y-67975000D01*
G75*
G02*
X149363000Y-68025000I0J-50000D01*
G01*
X149363000Y-68775000D01*
G75*
G02*
X149313000Y-68825000I-50000J0D01*
G01*
X149213000Y-68825000D01*
G75*
G02*
X149163000Y-68775000I0J50000D01*
G01*
G37*
G36*
G01*
X149488000Y-69100000D02*
X149488000Y-69000000D01*
G75*
G02*
X149538000Y-68950000I50000J0D01*
G01*
X150288000Y-68950000D01*
G75*
G02*
X150338000Y-69000000I0J-50000D01*
G01*
X150338000Y-69100000D01*
G75*
G02*
X150288000Y-69150000I-50000J0D01*
G01*
X149538000Y-69150000D01*
G75*
G02*
X149488000Y-69100000I0J50000D01*
G01*
G37*
G36*
G01*
X149488000Y-69500000D02*
X149488000Y-69400000D01*
G75*
G02*
X149538000Y-69350000I50000J0D01*
G01*
X150288000Y-69350000D01*
G75*
G02*
X150338000Y-69400000I0J-50000D01*
G01*
X150338000Y-69500000D01*
G75*
G02*
X150288000Y-69550000I-50000J0D01*
G01*
X149538000Y-69550000D01*
G75*
G02*
X149488000Y-69500000I0J50000D01*
G01*
G37*
G36*
G01*
X149488000Y-69900000D02*
X149488000Y-69800000D01*
G75*
G02*
X149538000Y-69750000I50000J0D01*
G01*
X150288000Y-69750000D01*
G75*
G02*
X150338000Y-69800000I0J-50000D01*
G01*
X150338000Y-69900000D01*
G75*
G02*
X150288000Y-69950000I-50000J0D01*
G01*
X149538000Y-69950000D01*
G75*
G02*
X149488000Y-69900000I0J50000D01*
G01*
G37*
G36*
G01*
X149488000Y-70300000D02*
X149488000Y-70200000D01*
G75*
G02*
X149538000Y-70150000I50000J0D01*
G01*
X150288000Y-70150000D01*
G75*
G02*
X150338000Y-70200000I0J-50000D01*
G01*
X150338000Y-70300000D01*
G75*
G02*
X150288000Y-70350000I-50000J0D01*
G01*
X149538000Y-70350000D01*
G75*
G02*
X149488000Y-70300000I0J50000D01*
G01*
G37*
G36*
G01*
X149488000Y-70700000D02*
X149488000Y-70600000D01*
G75*
G02*
X149538000Y-70550000I50000J0D01*
G01*
X150288000Y-70550000D01*
G75*
G02*
X150338000Y-70600000I0J-50000D01*
G01*
X150338000Y-70700000D01*
G75*
G02*
X150288000Y-70750000I-50000J0D01*
G01*
X149538000Y-70750000D01*
G75*
G02*
X149488000Y-70700000I0J50000D01*
G01*
G37*
G36*
G01*
X149163000Y-71675000D02*
X149163000Y-70925000D01*
G75*
G02*
X149213000Y-70875000I50000J0D01*
G01*
X149313000Y-70875000D01*
G75*
G02*
X149363000Y-70925000I0J-50000D01*
G01*
X149363000Y-71675000D01*
G75*
G02*
X149313000Y-71725000I-50000J0D01*
G01*
X149213000Y-71725000D01*
G75*
G02*
X149163000Y-71675000I0J50000D01*
G01*
G37*
G36*
G01*
X148763000Y-71675000D02*
X148763000Y-70925000D01*
G75*
G02*
X148813000Y-70875000I50000J0D01*
G01*
X148913000Y-70875000D01*
G75*
G02*
X148963000Y-70925000I0J-50000D01*
G01*
X148963000Y-71675000D01*
G75*
G02*
X148913000Y-71725000I-50000J0D01*
G01*
X148813000Y-71725000D01*
G75*
G02*
X148763000Y-71675000I0J50000D01*
G01*
G37*
G36*
G01*
X148363000Y-71675000D02*
X148363000Y-70925000D01*
G75*
G02*
X148413000Y-70875000I50000J0D01*
G01*
X148513000Y-70875000D01*
G75*
G02*
X148563000Y-70925000I0J-50000D01*
G01*
X148563000Y-71675000D01*
G75*
G02*
X148513000Y-71725000I-50000J0D01*
G01*
X148413000Y-71725000D01*
G75*
G02*
X148363000Y-71675000I0J50000D01*
G01*
G37*
G36*
G01*
X147963000Y-71675000D02*
X147963000Y-70925000D01*
G75*
G02*
X148013000Y-70875000I50000J0D01*
G01*
X148113000Y-70875000D01*
G75*
G02*
X148163000Y-70925000I0J-50000D01*
G01*
X148163000Y-71675000D01*
G75*
G02*
X148113000Y-71725000I-50000J0D01*
G01*
X148013000Y-71725000D01*
G75*
G02*
X147963000Y-71675000I0J50000D01*
G01*
G37*
G36*
G01*
X147563000Y-71675000D02*
X147563000Y-70925000D01*
G75*
G02*
X147613000Y-70875000I50000J0D01*
G01*
X147713000Y-70875000D01*
G75*
G02*
X147763000Y-70925000I0J-50000D01*
G01*
X147763000Y-71675000D01*
G75*
G02*
X147713000Y-71725000I-50000J0D01*
G01*
X147613000Y-71725000D01*
G75*
G02*
X147563000Y-71675000I0J50000D01*
G01*
G37*
G36*
G01*
X146588000Y-70700000D02*
X146588000Y-70600000D01*
G75*
G02*
X146638000Y-70550000I50000J0D01*
G01*
X147388000Y-70550000D01*
G75*
G02*
X147438000Y-70600000I0J-50000D01*
G01*
X147438000Y-70700000D01*
G75*
G02*
X147388000Y-70750000I-50000J0D01*
G01*
X146638000Y-70750000D01*
G75*
G02*
X146588000Y-70700000I0J50000D01*
G01*
G37*
G36*
G01*
X146588000Y-70300000D02*
X146588000Y-70200000D01*
G75*
G02*
X146638000Y-70150000I50000J0D01*
G01*
X147388000Y-70150000D01*
G75*
G02*
X147438000Y-70200000I0J-50000D01*
G01*
X147438000Y-70300000D01*
G75*
G02*
X147388000Y-70350000I-50000J0D01*
G01*
X146638000Y-70350000D01*
G75*
G02*
X146588000Y-70300000I0J50000D01*
G01*
G37*
G36*
G01*
X146588000Y-69900000D02*
X146588000Y-69800000D01*
G75*
G02*
X146638000Y-69750000I50000J0D01*
G01*
X147388000Y-69750000D01*
G75*
G02*
X147438000Y-69800000I0J-50000D01*
G01*
X147438000Y-69900000D01*
G75*
G02*
X147388000Y-69950000I-50000J0D01*
G01*
X146638000Y-69950000D01*
G75*
G02*
X146588000Y-69900000I0J50000D01*
G01*
G37*
G36*
G01*
X146588000Y-69500000D02*
X146588000Y-69400000D01*
G75*
G02*
X146638000Y-69350000I50000J0D01*
G01*
X147388000Y-69350000D01*
G75*
G02*
X147438000Y-69400000I0J-50000D01*
G01*
X147438000Y-69500000D01*
G75*
G02*
X147388000Y-69550000I-50000J0D01*
G01*
X146638000Y-69550000D01*
G75*
G02*
X146588000Y-69500000I0J50000D01*
G01*
G37*
G36*
G01*
X146588000Y-69100000D02*
X146588000Y-69000000D01*
G75*
G02*
X146638000Y-68950000I50000J0D01*
G01*
X147388000Y-68950000D01*
G75*
G02*
X147438000Y-69000000I0J-50000D01*
G01*
X147438000Y-69100000D01*
G75*
G02*
X147388000Y-69150000I-50000J0D01*
G01*
X146638000Y-69150000D01*
G75*
G02*
X146588000Y-69100000I0J50000D01*
G01*
G37*
%TD*%
D21*
%TO.C,SW1*%
X141853000Y-82003000D03*
X141853000Y-80303000D03*
X147453000Y-82003000D03*
X147453000Y-80303000D03*
%TD*%
%TO.C,R15*%
G36*
G01*
X133408000Y-60466000D02*
X133038000Y-60466000D01*
G75*
G02*
X132903000Y-60331000I0J135000D01*
G01*
X132903000Y-60061000D01*
G75*
G02*
X133038000Y-59926000I135000J0D01*
G01*
X133408000Y-59926000D01*
G75*
G02*
X133543000Y-60061000I0J-135000D01*
G01*
X133543000Y-60331000D01*
G75*
G02*
X133408000Y-60466000I-135000J0D01*
G01*
G37*
G36*
G01*
X133408000Y-61486000D02*
X133038000Y-61486000D01*
G75*
G02*
X132903000Y-61351000I0J135000D01*
G01*
X132903000Y-61081000D01*
G75*
G02*
X133038000Y-60946000I135000J0D01*
G01*
X133408000Y-60946000D01*
G75*
G02*
X133543000Y-61081000I0J-135000D01*
G01*
X133543000Y-61351000D01*
G75*
G02*
X133408000Y-61486000I-135000J0D01*
G01*
G37*
%TD*%
%TO.C,R14*%
G36*
G01*
X130951000Y-57854000D02*
X130951000Y-58224000D01*
G75*
G02*
X130816000Y-58359000I-135000J0D01*
G01*
X130546000Y-58359000D01*
G75*
G02*
X130411000Y-58224000I0J135000D01*
G01*
X130411000Y-57854000D01*
G75*
G02*
X130546000Y-57719000I135000J0D01*
G01*
X130816000Y-57719000D01*
G75*
G02*
X130951000Y-57854000I0J-135000D01*
G01*
G37*
G36*
G01*
X131971000Y-57854000D02*
X131971000Y-58224000D01*
G75*
G02*
X131836000Y-58359000I-135000J0D01*
G01*
X131566000Y-58359000D01*
G75*
G02*
X131431000Y-58224000I0J135000D01*
G01*
X131431000Y-57854000D01*
G75*
G02*
X131566000Y-57719000I135000J0D01*
G01*
X131836000Y-57719000D01*
G75*
G02*
X131971000Y-57854000I0J-135000D01*
G01*
G37*
%TD*%
%TO.C,R12*%
G36*
G01*
X134761000Y-64331000D02*
X134761000Y-64701000D01*
G75*
G02*
X134626000Y-64836000I-135000J0D01*
G01*
X134356000Y-64836000D01*
G75*
G02*
X134221000Y-64701000I0J135000D01*
G01*
X134221000Y-64331000D01*
G75*
G02*
X134356000Y-64196000I135000J0D01*
G01*
X134626000Y-64196000D01*
G75*
G02*
X134761000Y-64331000I0J-135000D01*
G01*
G37*
G36*
G01*
X135781000Y-64331000D02*
X135781000Y-64701000D01*
G75*
G02*
X135646000Y-64836000I-135000J0D01*
G01*
X135376000Y-64836000D01*
G75*
G02*
X135241000Y-64701000I0J135000D01*
G01*
X135241000Y-64331000D01*
G75*
G02*
X135376000Y-64196000I135000J0D01*
G01*
X135646000Y-64196000D01*
G75*
G02*
X135781000Y-64331000I0J-135000D01*
G01*
G37*
%TD*%
%TO.C,R11*%
G36*
G01*
X135241000Y-63431000D02*
X135241000Y-63061000D01*
G75*
G02*
X135376000Y-62926000I135000J0D01*
G01*
X135646000Y-62926000D01*
G75*
G02*
X135781000Y-63061000I0J-135000D01*
G01*
X135781000Y-63431000D01*
G75*
G02*
X135646000Y-63566000I-135000J0D01*
G01*
X135376000Y-63566000D01*
G75*
G02*
X135241000Y-63431000I0J135000D01*
G01*
G37*
G36*
G01*
X134221000Y-63431000D02*
X134221000Y-63061000D01*
G75*
G02*
X134356000Y-62926000I135000J0D01*
G01*
X134626000Y-62926000D01*
G75*
G02*
X134761000Y-63061000I0J-135000D01*
G01*
X134761000Y-63431000D01*
G75*
G02*
X134626000Y-63566000I-135000J0D01*
G01*
X134356000Y-63566000D01*
G75*
G02*
X134221000Y-63431000I0J135000D01*
G01*
G37*
%TD*%
%TO.C,R10*%
G36*
G01*
X156776000Y-49544000D02*
X156406000Y-49544000D01*
G75*
G02*
X156271000Y-49409000I0J135000D01*
G01*
X156271000Y-49139000D01*
G75*
G02*
X156406000Y-49004000I135000J0D01*
G01*
X156776000Y-49004000D01*
G75*
G02*
X156911000Y-49139000I0J-135000D01*
G01*
X156911000Y-49409000D01*
G75*
G02*
X156776000Y-49544000I-135000J0D01*
G01*
G37*
G36*
G01*
X156776000Y-50564000D02*
X156406000Y-50564000D01*
G75*
G02*
X156271000Y-50429000I0J135000D01*
G01*
X156271000Y-50159000D01*
G75*
G02*
X156406000Y-50024000I135000J0D01*
G01*
X156776000Y-50024000D01*
G75*
G02*
X156911000Y-50159000I0J-135000D01*
G01*
X156911000Y-50429000D01*
G75*
G02*
X156776000Y-50564000I-135000J0D01*
G01*
G37*
%TD*%
%TO.C,R9*%
G36*
G01*
X155379000Y-49544000D02*
X155009000Y-49544000D01*
G75*
G02*
X154874000Y-49409000I0J135000D01*
G01*
X154874000Y-49139000D01*
G75*
G02*
X155009000Y-49004000I135000J0D01*
G01*
X155379000Y-49004000D01*
G75*
G02*
X155514000Y-49139000I0J-135000D01*
G01*
X155514000Y-49409000D01*
G75*
G02*
X155379000Y-49544000I-135000J0D01*
G01*
G37*
G36*
G01*
X155379000Y-50564000D02*
X155009000Y-50564000D01*
G75*
G02*
X154874000Y-50429000I0J135000D01*
G01*
X154874000Y-50159000D01*
G75*
G02*
X155009000Y-50024000I135000J0D01*
G01*
X155379000Y-50024000D01*
G75*
G02*
X155514000Y-50159000I0J-135000D01*
G01*
X155514000Y-50429000D01*
G75*
G02*
X155379000Y-50564000I-135000J0D01*
G01*
G37*
%TD*%
%TO.C,R8*%
G36*
G01*
X134551000Y-49544000D02*
X134181000Y-49544000D01*
G75*
G02*
X134046000Y-49409000I0J135000D01*
G01*
X134046000Y-49139000D01*
G75*
G02*
X134181000Y-49004000I135000J0D01*
G01*
X134551000Y-49004000D01*
G75*
G02*
X134686000Y-49139000I0J-135000D01*
G01*
X134686000Y-49409000D01*
G75*
G02*
X134551000Y-49544000I-135000J0D01*
G01*
G37*
G36*
G01*
X134551000Y-50564000D02*
X134181000Y-50564000D01*
G75*
G02*
X134046000Y-50429000I0J135000D01*
G01*
X134046000Y-50159000D01*
G75*
G02*
X134181000Y-50024000I135000J0D01*
G01*
X134551000Y-50024000D01*
G75*
G02*
X134686000Y-50159000I0J-135000D01*
G01*
X134686000Y-50429000D01*
G75*
G02*
X134551000Y-50564000I-135000J0D01*
G01*
G37*
%TD*%
%TO.C,R5*%
G36*
G01*
X133154000Y-49544000D02*
X132784000Y-49544000D01*
G75*
G02*
X132649000Y-49409000I0J135000D01*
G01*
X132649000Y-49139000D01*
G75*
G02*
X132784000Y-49004000I135000J0D01*
G01*
X133154000Y-49004000D01*
G75*
G02*
X133289000Y-49139000I0J-135000D01*
G01*
X133289000Y-49409000D01*
G75*
G02*
X133154000Y-49544000I-135000J0D01*
G01*
G37*
G36*
G01*
X133154000Y-50564000D02*
X132784000Y-50564000D01*
G75*
G02*
X132649000Y-50429000I0J135000D01*
G01*
X132649000Y-50159000D01*
G75*
G02*
X132784000Y-50024000I135000J0D01*
G01*
X133154000Y-50024000D01*
G75*
G02*
X133289000Y-50159000I0J-135000D01*
G01*
X133289000Y-50429000D01*
G75*
G02*
X133154000Y-50564000I-135000J0D01*
G01*
G37*
%TD*%
%TO.C,R3*%
G36*
G01*
X130189000Y-68014000D02*
X130189000Y-68384000D01*
G75*
G02*
X130054000Y-68519000I-135000J0D01*
G01*
X129784000Y-68519000D01*
G75*
G02*
X129649000Y-68384000I0J135000D01*
G01*
X129649000Y-68014000D01*
G75*
G02*
X129784000Y-67879000I135000J0D01*
G01*
X130054000Y-67879000D01*
G75*
G02*
X130189000Y-68014000I0J-135000D01*
G01*
G37*
G36*
G01*
X131209000Y-68014000D02*
X131209000Y-68384000D01*
G75*
G02*
X131074000Y-68519000I-135000J0D01*
G01*
X130804000Y-68519000D01*
G75*
G02*
X130669000Y-68384000I0J135000D01*
G01*
X130669000Y-68014000D01*
G75*
G02*
X130804000Y-67879000I135000J0D01*
G01*
X131074000Y-67879000D01*
G75*
G02*
X131209000Y-68014000I0J-135000D01*
G01*
G37*
%TD*%
%TO.C,R2*%
G36*
G01*
X130189000Y-69284000D02*
X130189000Y-69654000D01*
G75*
G02*
X130054000Y-69789000I-135000J0D01*
G01*
X129784000Y-69789000D01*
G75*
G02*
X129649000Y-69654000I0J135000D01*
G01*
X129649000Y-69284000D01*
G75*
G02*
X129784000Y-69149000I135000J0D01*
G01*
X130054000Y-69149000D01*
G75*
G02*
X130189000Y-69284000I0J-135000D01*
G01*
G37*
G36*
G01*
X131209000Y-69284000D02*
X131209000Y-69654000D01*
G75*
G02*
X131074000Y-69789000I-135000J0D01*
G01*
X130804000Y-69789000D01*
G75*
G02*
X130669000Y-69654000I0J135000D01*
G01*
X130669000Y-69284000D01*
G75*
G02*
X130804000Y-69149000I135000J0D01*
G01*
X131074000Y-69149000D01*
G75*
G02*
X131209000Y-69284000I0J-135000D01*
G01*
G37*
%TD*%
%TO.C,R1*%
G36*
G01*
X136666000Y-79317000D02*
X136666000Y-79687000D01*
G75*
G02*
X136531000Y-79822000I-135000J0D01*
G01*
X136261000Y-79822000D01*
G75*
G02*
X136126000Y-79687000I0J135000D01*
G01*
X136126000Y-79317000D01*
G75*
G02*
X136261000Y-79182000I135000J0D01*
G01*
X136531000Y-79182000D01*
G75*
G02*
X136666000Y-79317000I0J-135000D01*
G01*
G37*
G36*
G01*
X137686000Y-79317000D02*
X137686000Y-79687000D01*
G75*
G02*
X137551000Y-79822000I-135000J0D01*
G01*
X137281000Y-79822000D01*
G75*
G02*
X137146000Y-79687000I0J135000D01*
G01*
X137146000Y-79317000D01*
G75*
G02*
X137281000Y-79182000I135000J0D01*
G01*
X137551000Y-79182000D01*
G75*
G02*
X137686000Y-79317000I0J-135000D01*
G01*
G37*
%TD*%
%TO.C,L5*%
G36*
G01*
X131376000Y-54903000D02*
X131376000Y-56603000D01*
G75*
G02*
X131126000Y-56853000I-250000J0D01*
G01*
X130376000Y-56853000D01*
G75*
G02*
X130126000Y-56603000I0J250000D01*
G01*
X130126000Y-54903000D01*
G75*
G02*
X130376000Y-54653000I250000J0D01*
G01*
X131126000Y-54653000D01*
G75*
G02*
X131376000Y-54903000I0J-250000D01*
G01*
G37*
G36*
G01*
X133526000Y-54903000D02*
X133526000Y-56603000D01*
G75*
G02*
X133276000Y-56853000I-250000J0D01*
G01*
X132526000Y-56853000D01*
G75*
G02*
X132276000Y-56603000I0J250000D01*
G01*
X132276000Y-54903000D01*
G75*
G02*
X132526000Y-54653000I250000J0D01*
G01*
X133276000Y-54653000D01*
G75*
G02*
X133526000Y-54903000I0J-250000D01*
G01*
G37*
%TD*%
%TO.C,L4*%
G36*
G01*
X150413500Y-66104000D02*
X150068500Y-66104000D01*
G75*
G02*
X149921000Y-65956500I0J147500D01*
G01*
X149921000Y-65661500D01*
G75*
G02*
X150068500Y-65514000I147500J0D01*
G01*
X150413500Y-65514000D01*
G75*
G02*
X150561000Y-65661500I0J-147500D01*
G01*
X150561000Y-65956500D01*
G75*
G02*
X150413500Y-66104000I-147500J0D01*
G01*
G37*
G36*
G01*
X150413500Y-67074000D02*
X150068500Y-67074000D01*
G75*
G02*
X149921000Y-66926500I0J147500D01*
G01*
X149921000Y-66631500D01*
G75*
G02*
X150068500Y-66484000I147500J0D01*
G01*
X150413500Y-66484000D01*
G75*
G02*
X150561000Y-66631500I0J-147500D01*
G01*
X150561000Y-66926500D01*
G75*
G02*
X150413500Y-67074000I-147500J0D01*
G01*
G37*
%TD*%
%TO.C,L3*%
G36*
G01*
X157180500Y-70675000D02*
X157525500Y-70675000D01*
G75*
G02*
X157673000Y-70822500I0J-147500D01*
G01*
X157673000Y-71117500D01*
G75*
G02*
X157525500Y-71265000I-147500J0D01*
G01*
X157180500Y-71265000D01*
G75*
G02*
X157033000Y-71117500I0J147500D01*
G01*
X157033000Y-70822500D01*
G75*
G02*
X157180500Y-70675000I147500J0D01*
G01*
G37*
G36*
G01*
X157180500Y-69705000D02*
X157525500Y-69705000D01*
G75*
G02*
X157673000Y-69852500I0J-147500D01*
G01*
X157673000Y-70147500D01*
G75*
G02*
X157525500Y-70295000I-147500J0D01*
G01*
X157180500Y-70295000D01*
G75*
G02*
X157033000Y-70147500I0J147500D01*
G01*
X157033000Y-69852500D01*
G75*
G02*
X157180500Y-69705000I147500J0D01*
G01*
G37*
%TD*%
%TO.C,L1*%
G36*
G01*
X157671000Y-68661500D02*
X157671000Y-69006500D01*
G75*
G02*
X157523500Y-69154000I-147500J0D01*
G01*
X157228500Y-69154000D01*
G75*
G02*
X157081000Y-69006500I0J147500D01*
G01*
X157081000Y-68661500D01*
G75*
G02*
X157228500Y-68514000I147500J0D01*
G01*
X157523500Y-68514000D01*
G75*
G02*
X157671000Y-68661500I0J-147500D01*
G01*
G37*
G36*
G01*
X158641000Y-68661500D02*
X158641000Y-69006500D01*
G75*
G02*
X158493500Y-69154000I-147500J0D01*
G01*
X158198500Y-69154000D01*
G75*
G02*
X158051000Y-69006500I0J147500D01*
G01*
X158051000Y-68661500D01*
G75*
G02*
X158198500Y-68514000I147500J0D01*
G01*
X158493500Y-68514000D01*
G75*
G02*
X158641000Y-68661500I0J-147500D01*
G01*
G37*
%TD*%
D22*
%TO.C,J3*%
X160527000Y-61595000D03*
D23*
X162052000Y-63070000D03*
X162052000Y-60120000D03*
%TD*%
D24*
%TO.C,FL3*%
X151892000Y-69259000D03*
X151892000Y-68409000D03*
D25*
X152517000Y-68834000D03*
X151267000Y-68834000D03*
%TD*%
D24*
%TO.C,FL2*%
X151892000Y-71545000D03*
X151892000Y-70695000D03*
D25*
X152517000Y-71120000D03*
X151267000Y-71120000D03*
%TD*%
D26*
%TO.C,E1*%
X163244000Y-68834000D03*
X159844000Y-68834000D03*
%TD*%
%TO.C,D4*%
G36*
G01*
X155559500Y-46578000D02*
X155209500Y-46578000D01*
G75*
G02*
X155034500Y-46403000I0J175000D01*
G01*
X155034500Y-46053000D01*
G75*
G02*
X155209500Y-45878000I175000J0D01*
G01*
X155559500Y-45878000D01*
G75*
G02*
X155734500Y-46053000I0J-175000D01*
G01*
X155734500Y-46403000D01*
G75*
G02*
X155559500Y-46578000I-175000J0D01*
G01*
G37*
G36*
G01*
X156575500Y-46578000D02*
X156225500Y-46578000D01*
G75*
G02*
X156050500Y-46403000I0J175000D01*
G01*
X156050500Y-46053000D01*
G75*
G02*
X156225500Y-45878000I175000J0D01*
G01*
X156575500Y-45878000D01*
G75*
G02*
X156750500Y-46053000I0J-175000D01*
G01*
X156750500Y-46403000D01*
G75*
G02*
X156575500Y-46578000I-175000J0D01*
G01*
G37*
G36*
G01*
X155559500Y-48102000D02*
X155209500Y-48102000D01*
G75*
G02*
X155034500Y-47927000I0J175000D01*
G01*
X155034500Y-47577000D01*
G75*
G02*
X155209500Y-47402000I175000J0D01*
G01*
X155559500Y-47402000D01*
G75*
G02*
X155734500Y-47577000I0J-175000D01*
G01*
X155734500Y-47927000D01*
G75*
G02*
X155559500Y-48102000I-175000J0D01*
G01*
G37*
G36*
G01*
X156575500Y-48102000D02*
X156225500Y-48102000D01*
G75*
G02*
X156050500Y-47927000I0J175000D01*
G01*
X156050500Y-47577000D01*
G75*
G02*
X156225500Y-47402000I175000J0D01*
G01*
X156575500Y-47402000D01*
G75*
G02*
X156750500Y-47577000I0J-175000D01*
G01*
X156750500Y-47927000D01*
G75*
G02*
X156575500Y-48102000I-175000J0D01*
G01*
G37*
%TD*%
D27*
%TO.C,D3*%
X130683000Y-66674000D03*
X130683000Y-63374000D03*
%TD*%
%TO.C,D2*%
G36*
G01*
X133334500Y-46578000D02*
X132984500Y-46578000D01*
G75*
G02*
X132809500Y-46403000I0J175000D01*
G01*
X132809500Y-46053000D01*
G75*
G02*
X132984500Y-45878000I175000J0D01*
G01*
X133334500Y-45878000D01*
G75*
G02*
X133509500Y-46053000I0J-175000D01*
G01*
X133509500Y-46403000D01*
G75*
G02*
X133334500Y-46578000I-175000J0D01*
G01*
G37*
G36*
G01*
X134350500Y-46578000D02*
X134000500Y-46578000D01*
G75*
G02*
X133825500Y-46403000I0J175000D01*
G01*
X133825500Y-46053000D01*
G75*
G02*
X134000500Y-45878000I175000J0D01*
G01*
X134350500Y-45878000D01*
G75*
G02*
X134525500Y-46053000I0J-175000D01*
G01*
X134525500Y-46403000D01*
G75*
G02*
X134350500Y-46578000I-175000J0D01*
G01*
G37*
G36*
G01*
X133334500Y-48102000D02*
X132984500Y-48102000D01*
G75*
G02*
X132809500Y-47927000I0J175000D01*
G01*
X132809500Y-47577000D01*
G75*
G02*
X132984500Y-47402000I175000J0D01*
G01*
X133334500Y-47402000D01*
G75*
G02*
X133509500Y-47577000I0J-175000D01*
G01*
X133509500Y-47927000D01*
G75*
G02*
X133334500Y-48102000I-175000J0D01*
G01*
G37*
G36*
G01*
X134350500Y-48102000D02*
X134000500Y-48102000D01*
G75*
G02*
X133825500Y-47927000I0J175000D01*
G01*
X133825500Y-47577000D01*
G75*
G02*
X134000500Y-47402000I175000J0D01*
G01*
X134350500Y-47402000D01*
G75*
G02*
X134525500Y-47577000I0J-175000D01*
G01*
X134525500Y-47927000D01*
G75*
G02*
X134350500Y-48102000I-175000J0D01*
G01*
G37*
%TD*%
%TO.C,D1*%
G36*
G01*
X136187000Y-80526000D02*
X136887000Y-80526000D01*
G75*
G02*
X137037000Y-80676000I0J-150000D01*
G01*
X137037000Y-81376000D01*
G75*
G02*
X136887000Y-81526000I-150000J0D01*
G01*
X136187000Y-81526000D01*
G75*
G02*
X136037000Y-81376000I0J150000D01*
G01*
X136037000Y-80676000D01*
G75*
G02*
X136187000Y-80526000I150000J0D01*
G01*
G37*
G36*
G01*
X137941000Y-80526000D02*
X138641000Y-80526000D01*
G75*
G02*
X138791000Y-80676000I0J-150000D01*
G01*
X138791000Y-81376000D01*
G75*
G02*
X138641000Y-81526000I-150000J0D01*
G01*
X137941000Y-81526000D01*
G75*
G02*
X137791000Y-81376000I0J150000D01*
G01*
X137791000Y-80676000D01*
G75*
G02*
X137941000Y-80526000I150000J0D01*
G01*
G37*
%TD*%
%TO.C,C22*%
G36*
G01*
X144102000Y-53667000D02*
X144442000Y-53667000D01*
G75*
G02*
X144582000Y-53807000I0J-140000D01*
G01*
X144582000Y-54087000D01*
G75*
G02*
X144442000Y-54227000I-140000J0D01*
G01*
X144102000Y-54227000D01*
G75*
G02*
X143962000Y-54087000I0J140000D01*
G01*
X143962000Y-53807000D01*
G75*
G02*
X144102000Y-53667000I140000J0D01*
G01*
G37*
G36*
G01*
X144102000Y-52707000D02*
X144442000Y-52707000D01*
G75*
G02*
X144582000Y-52847000I0J-140000D01*
G01*
X144582000Y-53127000D01*
G75*
G02*
X144442000Y-53267000I-140000J0D01*
G01*
X144102000Y-53267000D01*
G75*
G02*
X143962000Y-53127000I0J140000D01*
G01*
X143962000Y-52847000D01*
G75*
G02*
X144102000Y-52707000I140000J0D01*
G01*
G37*
%TD*%
%TO.C,C21*%
G36*
G01*
X144102000Y-61541000D02*
X144442000Y-61541000D01*
G75*
G02*
X144582000Y-61681000I0J-140000D01*
G01*
X144582000Y-61961000D01*
G75*
G02*
X144442000Y-62101000I-140000J0D01*
G01*
X144102000Y-62101000D01*
G75*
G02*
X143962000Y-61961000I0J140000D01*
G01*
X143962000Y-61681000D01*
G75*
G02*
X144102000Y-61541000I140000J0D01*
G01*
G37*
G36*
G01*
X144102000Y-60581000D02*
X144442000Y-60581000D01*
G75*
G02*
X144582000Y-60721000I0J-140000D01*
G01*
X144582000Y-61001000D01*
G75*
G02*
X144442000Y-61141000I-140000J0D01*
G01*
X144102000Y-61141000D01*
G75*
G02*
X143962000Y-61001000I0J140000D01*
G01*
X143962000Y-60721000D01*
G75*
G02*
X144102000Y-60581000I140000J0D01*
G01*
G37*
%TD*%
%TO.C,C20*%
G36*
G01*
X138346000Y-59998000D02*
X138006000Y-59998000D01*
G75*
G02*
X137866000Y-59858000I0J140000D01*
G01*
X137866000Y-59578000D01*
G75*
G02*
X138006000Y-59438000I140000J0D01*
G01*
X138346000Y-59438000D01*
G75*
G02*
X138486000Y-59578000I0J-140000D01*
G01*
X138486000Y-59858000D01*
G75*
G02*
X138346000Y-59998000I-140000J0D01*
G01*
G37*
G36*
G01*
X138346000Y-60958000D02*
X138006000Y-60958000D01*
G75*
G02*
X137866000Y-60818000I0J140000D01*
G01*
X137866000Y-60538000D01*
G75*
G02*
X138006000Y-60398000I140000J0D01*
G01*
X138346000Y-60398000D01*
G75*
G02*
X138486000Y-60538000I0J-140000D01*
G01*
X138486000Y-60818000D01*
G75*
G02*
X138346000Y-60958000I-140000J0D01*
G01*
G37*
%TD*%
%TO.C,C19*%
G36*
G01*
X138006000Y-53286000D02*
X138346000Y-53286000D01*
G75*
G02*
X138486000Y-53426000I0J-140000D01*
G01*
X138486000Y-53706000D01*
G75*
G02*
X138346000Y-53846000I-140000J0D01*
G01*
X138006000Y-53846000D01*
G75*
G02*
X137866000Y-53706000I0J140000D01*
G01*
X137866000Y-53426000D01*
G75*
G02*
X138006000Y-53286000I140000J0D01*
G01*
G37*
G36*
G01*
X138006000Y-52326000D02*
X138346000Y-52326000D01*
G75*
G02*
X138486000Y-52466000I0J-140000D01*
G01*
X138486000Y-52746000D01*
G75*
G02*
X138346000Y-52886000I-140000J0D01*
G01*
X138006000Y-52886000D01*
G75*
G02*
X137866000Y-52746000I0J140000D01*
G01*
X137866000Y-52466000D01*
G75*
G02*
X138006000Y-52326000I140000J0D01*
G01*
G37*
%TD*%
%TO.C,C16*%
G36*
G01*
X146261000Y-66494000D02*
X146601000Y-66494000D01*
G75*
G02*
X146741000Y-66634000I0J-140000D01*
G01*
X146741000Y-66914000D01*
G75*
G02*
X146601000Y-67054000I-140000J0D01*
G01*
X146261000Y-67054000D01*
G75*
G02*
X146121000Y-66914000I0J140000D01*
G01*
X146121000Y-66634000D01*
G75*
G02*
X146261000Y-66494000I140000J0D01*
G01*
G37*
G36*
G01*
X146261000Y-65534000D02*
X146601000Y-65534000D01*
G75*
G02*
X146741000Y-65674000I0J-140000D01*
G01*
X146741000Y-65954000D01*
G75*
G02*
X146601000Y-66094000I-140000J0D01*
G01*
X146261000Y-66094000D01*
G75*
G02*
X146121000Y-65954000I0J140000D01*
G01*
X146121000Y-65674000D01*
G75*
G02*
X146261000Y-65534000I140000J0D01*
G01*
G37*
%TD*%
%TO.C,C15*%
G36*
G01*
X147531000Y-66494000D02*
X147871000Y-66494000D01*
G75*
G02*
X148011000Y-66634000I0J-140000D01*
G01*
X148011000Y-66914000D01*
G75*
G02*
X147871000Y-67054000I-140000J0D01*
G01*
X147531000Y-67054000D01*
G75*
G02*
X147391000Y-66914000I0J140000D01*
G01*
X147391000Y-66634000D01*
G75*
G02*
X147531000Y-66494000I140000J0D01*
G01*
G37*
G36*
G01*
X147531000Y-65534000D02*
X147871000Y-65534000D01*
G75*
G02*
X148011000Y-65674000I0J-140000D01*
G01*
X148011000Y-65954000D01*
G75*
G02*
X147871000Y-66094000I-140000J0D01*
G01*
X147531000Y-66094000D01*
G75*
G02*
X147391000Y-65954000I0J140000D01*
G01*
X147391000Y-65674000D01*
G75*
G02*
X147531000Y-65534000I140000J0D01*
G01*
G37*
%TD*%
%TO.C,C14*%
G36*
G01*
X148801000Y-66494000D02*
X149141000Y-66494000D01*
G75*
G02*
X149281000Y-66634000I0J-140000D01*
G01*
X149281000Y-66914000D01*
G75*
G02*
X149141000Y-67054000I-140000J0D01*
G01*
X148801000Y-67054000D01*
G75*
G02*
X148661000Y-66914000I0J140000D01*
G01*
X148661000Y-66634000D01*
G75*
G02*
X148801000Y-66494000I140000J0D01*
G01*
G37*
G36*
G01*
X148801000Y-65534000D02*
X149141000Y-65534000D01*
G75*
G02*
X149281000Y-65674000I0J-140000D01*
G01*
X149281000Y-65954000D01*
G75*
G02*
X149141000Y-66094000I-140000J0D01*
G01*
X148801000Y-66094000D01*
G75*
G02*
X148661000Y-65954000I0J140000D01*
G01*
X148661000Y-65674000D01*
G75*
G02*
X148801000Y-65534000I140000J0D01*
G01*
G37*
%TD*%
%TO.C,C13*%
G36*
G01*
X134801000Y-65616000D02*
X134801000Y-65956000D01*
G75*
G02*
X134661000Y-66096000I-140000J0D01*
G01*
X134381000Y-66096000D01*
G75*
G02*
X134241000Y-65956000I0J140000D01*
G01*
X134241000Y-65616000D01*
G75*
G02*
X134381000Y-65476000I140000J0D01*
G01*
X134661000Y-65476000D01*
G75*
G02*
X134801000Y-65616000I0J-140000D01*
G01*
G37*
G36*
G01*
X135761000Y-65616000D02*
X135761000Y-65956000D01*
G75*
G02*
X135621000Y-66096000I-140000J0D01*
G01*
X135341000Y-66096000D01*
G75*
G02*
X135201000Y-65956000I0J140000D01*
G01*
X135201000Y-65616000D01*
G75*
G02*
X135341000Y-65476000I140000J0D01*
G01*
X135621000Y-65476000D01*
G75*
G02*
X135761000Y-65616000I0J-140000D01*
G01*
G37*
%TD*%
%TO.C,C11*%
G36*
G01*
X155629000Y-68664000D02*
X155629000Y-69004000D01*
G75*
G02*
X155489000Y-69144000I-140000J0D01*
G01*
X155209000Y-69144000D01*
G75*
G02*
X155069000Y-69004000I0J140000D01*
G01*
X155069000Y-68664000D01*
G75*
G02*
X155209000Y-68524000I140000J0D01*
G01*
X155489000Y-68524000D01*
G75*
G02*
X155629000Y-68664000I0J-140000D01*
G01*
G37*
G36*
G01*
X156589000Y-68664000D02*
X156589000Y-69004000D01*
G75*
G02*
X156449000Y-69144000I-140000J0D01*
G01*
X156169000Y-69144000D01*
G75*
G02*
X156029000Y-69004000I0J140000D01*
G01*
X156029000Y-68664000D01*
G75*
G02*
X156169000Y-68524000I140000J0D01*
G01*
X156449000Y-68524000D01*
G75*
G02*
X156589000Y-68664000I0J-140000D01*
G01*
G37*
%TD*%
%TO.C,C7*%
G36*
G01*
X144853000Y-71163000D02*
X144853000Y-70823000D01*
G75*
G02*
X144993000Y-70683000I140000J0D01*
G01*
X145273000Y-70683000D01*
G75*
G02*
X145413000Y-70823000I0J-140000D01*
G01*
X145413000Y-71163000D01*
G75*
G02*
X145273000Y-71303000I-140000J0D01*
G01*
X144993000Y-71303000D01*
G75*
G02*
X144853000Y-71163000I0J140000D01*
G01*
G37*
G36*
G01*
X143893000Y-71163000D02*
X143893000Y-70823000D01*
G75*
G02*
X144033000Y-70683000I140000J0D01*
G01*
X144313000Y-70683000D01*
G75*
G02*
X144453000Y-70823000I0J-140000D01*
G01*
X144453000Y-71163000D01*
G75*
G02*
X144313000Y-71303000I-140000J0D01*
G01*
X144033000Y-71303000D01*
G75*
G02*
X143893000Y-71163000I0J140000D01*
G01*
G37*
%TD*%
%TO.C,C6*%
G36*
G01*
X137106000Y-78402000D02*
X137106000Y-78062000D01*
G75*
G02*
X137246000Y-77922000I140000J0D01*
G01*
X137526000Y-77922000D01*
G75*
G02*
X137666000Y-78062000I0J-140000D01*
G01*
X137666000Y-78402000D01*
G75*
G02*
X137526000Y-78542000I-140000J0D01*
G01*
X137246000Y-78542000D01*
G75*
G02*
X137106000Y-78402000I0J140000D01*
G01*
G37*
G36*
G01*
X136146000Y-78402000D02*
X136146000Y-78062000D01*
G75*
G02*
X136286000Y-77922000I140000J0D01*
G01*
X136566000Y-77922000D01*
G75*
G02*
X136706000Y-78062000I0J-140000D01*
G01*
X136706000Y-78402000D01*
G75*
G02*
X136566000Y-78542000I-140000J0D01*
G01*
X136286000Y-78542000D01*
G75*
G02*
X136146000Y-78402000I0J140000D01*
G01*
G37*
%TD*%
D28*
%TO.C,U1*%
X153985000Y-61806000D03*
X152085000Y-61806000D03*
X152085000Y-59606000D03*
X153035000Y-59606000D03*
X153985000Y-59606000D03*
%TD*%
%TO.C,C5*%
G36*
G01*
X139657000Y-67764000D02*
X139997000Y-67764000D01*
G75*
G02*
X140137000Y-67904000I0J-140000D01*
G01*
X140137000Y-68184000D01*
G75*
G02*
X139997000Y-68324000I-140000J0D01*
G01*
X139657000Y-68324000D01*
G75*
G02*
X139517000Y-68184000I0J140000D01*
G01*
X139517000Y-67904000D01*
G75*
G02*
X139657000Y-67764000I140000J0D01*
G01*
G37*
G36*
G01*
X139657000Y-66804000D02*
X139997000Y-66804000D01*
G75*
G02*
X140137000Y-66944000I0J-140000D01*
G01*
X140137000Y-67224000D01*
G75*
G02*
X139997000Y-67364000I-140000J0D01*
G01*
X139657000Y-67364000D01*
G75*
G02*
X139517000Y-67224000I0J140000D01*
G01*
X139517000Y-66944000D01*
G75*
G02*
X139657000Y-66804000I140000J0D01*
G01*
G37*
%TD*%
%TO.C,C4*%
G36*
G01*
X144834000Y-74506000D02*
X144834000Y-74846000D01*
G75*
G02*
X144694000Y-74986000I-140000J0D01*
G01*
X144414000Y-74986000D01*
G75*
G02*
X144274000Y-74846000I0J140000D01*
G01*
X144274000Y-74506000D01*
G75*
G02*
X144414000Y-74366000I140000J0D01*
G01*
X144694000Y-74366000D01*
G75*
G02*
X144834000Y-74506000I0J-140000D01*
G01*
G37*
G36*
G01*
X145794000Y-74506000D02*
X145794000Y-74846000D01*
G75*
G02*
X145654000Y-74986000I-140000J0D01*
G01*
X145374000Y-74986000D01*
G75*
G02*
X145234000Y-74846000I0J140000D01*
G01*
X145234000Y-74506000D01*
G75*
G02*
X145374000Y-74366000I140000J0D01*
G01*
X145654000Y-74366000D01*
G75*
G02*
X145794000Y-74506000I0J-140000D01*
G01*
G37*
%TD*%
%TO.C,C3*%
G36*
G01*
X139657000Y-65478000D02*
X139997000Y-65478000D01*
G75*
G02*
X140137000Y-65618000I0J-140000D01*
G01*
X140137000Y-65898000D01*
G75*
G02*
X139997000Y-66038000I-140000J0D01*
G01*
X139657000Y-66038000D01*
G75*
G02*
X139517000Y-65898000I0J140000D01*
G01*
X139517000Y-65618000D01*
G75*
G02*
X139657000Y-65478000I140000J0D01*
G01*
G37*
G36*
G01*
X139657000Y-64518000D02*
X139997000Y-64518000D01*
G75*
G02*
X140137000Y-64658000I0J-140000D01*
G01*
X140137000Y-64938000D01*
G75*
G02*
X139997000Y-65078000I-140000J0D01*
G01*
X139657000Y-65078000D01*
G75*
G02*
X139517000Y-64938000I0J140000D01*
G01*
X139517000Y-64658000D01*
G75*
G02*
X139657000Y-64518000I140000J0D01*
G01*
G37*
%TD*%
%TO.C,C2*%
G36*
G01*
X145331000Y-66094000D02*
X144991000Y-66094000D01*
G75*
G02*
X144851000Y-65954000I0J140000D01*
G01*
X144851000Y-65674000D01*
G75*
G02*
X144991000Y-65534000I140000J0D01*
G01*
X145331000Y-65534000D01*
G75*
G02*
X145471000Y-65674000I0J-140000D01*
G01*
X145471000Y-65954000D01*
G75*
G02*
X145331000Y-66094000I-140000J0D01*
G01*
G37*
G36*
G01*
X145331000Y-67054000D02*
X144991000Y-67054000D01*
G75*
G02*
X144851000Y-66914000I0J140000D01*
G01*
X144851000Y-66634000D01*
G75*
G02*
X144991000Y-66494000I140000J0D01*
G01*
X145331000Y-66494000D01*
G75*
G02*
X145471000Y-66634000I0J-140000D01*
G01*
X145471000Y-66914000D01*
G75*
G02*
X145331000Y-67054000I-140000J0D01*
G01*
G37*
%TD*%
M02*
