%TF.GenerationSoftware,KiCad,Pcbnew,(5.1.10)-1*%
%TF.CreationDate,2021-11-18T11:26:52-05:00*%
%TF.ProjectId,MicroMod_Extension,4d696372-6f4d-46f6-945f-457874656e73,rev?*%
%TF.SameCoordinates,Original*%
%TF.FileFunction,Soldermask,Top*%
%TF.FilePolarity,Negative*%
%FSLAX46Y46*%
G04 Gerber Fmt 4.6, Leading zero omitted, Abs format (unit mm)*
G04 Created by KiCad (PCBNEW (5.1.10)-1) date 2021-11-18 11:26:52*
%MOMM*%
%LPD*%
G01*
G04 APERTURE LIST*
%ADD10C,0.010000*%
%ADD11R,1.150000X1.400000*%
%ADD12R,0.475000X0.250000*%
%ADD13R,0.250000X0.475000*%
%ADD14C,1.600000*%
%ADD15C,1.100000*%
%ADD16R,0.250000X0.550000*%
%ADD17R,0.460000X0.300000*%
%ADD18R,0.300000X0.460000*%
%ADD19R,2.800000X3.000000*%
%ADD20R,2.800000X3.200000*%
%ADD21C,3.000000*%
%ADD22C,4.000000*%
%ADD23R,4.600000X4.600000*%
%ADD24R,1.220000X0.650000*%
%ADD25R,0.250000X0.500000*%
%ADD26R,1.600000X0.900000*%
%ADD27R,1.650000X1.650000*%
%ADD28C,1.000000*%
%ADD29C,0.750000*%
%ADD30R,1.200000X1.000000*%
%ADD31R,1.050000X1.000000*%
%ADD32R,2.200000X1.050000*%
%ADD33R,0.800000X1.600000*%
%ADD34R,1.200000X0.900000*%
%ADD35C,0.650000*%
%ADD36O,1.600000X1.000000*%
%ADD37O,2.100000X1.000000*%
%ADD38R,0.650000X1.060000*%
G04 APERTURE END LIST*
D10*
%TO.C,FL3*%
G36*
X150917000Y-67849000D02*
G01*
X151617000Y-67849000D01*
X151617000Y-68549000D01*
X150917000Y-68549000D01*
X150917000Y-67849000D01*
G37*
X150917000Y-67849000D02*
X151617000Y-67849000D01*
X151617000Y-68549000D01*
X150917000Y-68549000D01*
X150917000Y-67849000D01*
G36*
X151717000Y-67424000D02*
G01*
X152067000Y-67424000D01*
X152067000Y-68124000D01*
X151717000Y-68124000D01*
X151717000Y-67424000D01*
G37*
X151717000Y-67424000D02*
X152067000Y-67424000D01*
X152067000Y-68124000D01*
X151717000Y-68124000D01*
X151717000Y-67424000D01*
G36*
X152167000Y-67849000D02*
G01*
X152867000Y-67849000D01*
X152867000Y-68549000D01*
X152167000Y-68549000D01*
X152167000Y-67849000D01*
G37*
X152167000Y-67849000D02*
X152867000Y-67849000D01*
X152867000Y-68549000D01*
X152167000Y-68549000D01*
X152167000Y-67849000D01*
G36*
X151717000Y-68274000D02*
G01*
X152067000Y-68274000D01*
X152067000Y-68974000D01*
X151717000Y-68974000D01*
X151717000Y-68274000D01*
G37*
X151717000Y-68274000D02*
X152067000Y-68274000D01*
X152067000Y-68974000D01*
X151717000Y-68974000D01*
X151717000Y-68274000D01*
%TO.C,FL2*%
G36*
X150917000Y-70135000D02*
G01*
X151617000Y-70135000D01*
X151617000Y-70835000D01*
X150917000Y-70835000D01*
X150917000Y-70135000D01*
G37*
X150917000Y-70135000D02*
X151617000Y-70135000D01*
X151617000Y-70835000D01*
X150917000Y-70835000D01*
X150917000Y-70135000D01*
G36*
X151717000Y-69710000D02*
G01*
X152067000Y-69710000D01*
X152067000Y-70410000D01*
X151717000Y-70410000D01*
X151717000Y-69710000D01*
G37*
X151717000Y-69710000D02*
X152067000Y-69710000D01*
X152067000Y-70410000D01*
X151717000Y-70410000D01*
X151717000Y-69710000D01*
G36*
X152167000Y-70135000D02*
G01*
X152867000Y-70135000D01*
X152867000Y-70835000D01*
X152167000Y-70835000D01*
X152167000Y-70135000D01*
G37*
X152167000Y-70135000D02*
X152867000Y-70135000D01*
X152867000Y-70835000D01*
X152167000Y-70835000D01*
X152167000Y-70135000D01*
G36*
X151717000Y-70560000D02*
G01*
X152067000Y-70560000D01*
X152067000Y-71260000D01*
X151717000Y-71260000D01*
X151717000Y-70560000D01*
G37*
X151717000Y-70560000D02*
X152067000Y-70560000D01*
X152067000Y-71260000D01*
X151717000Y-71260000D01*
X151717000Y-70560000D01*
%TD*%
D11*
%TO.C,Y1*%
X141567000Y-67521000D03*
X141567000Y-65321000D03*
X143167000Y-65321000D03*
X143167000Y-67521000D03*
%TD*%
D12*
%TO.C,U7*%
X147296500Y-53078000D03*
X147296500Y-52078000D03*
X147296500Y-52578000D03*
X149121500Y-53078000D03*
X149121500Y-52078000D03*
X149121500Y-52578000D03*
D13*
X148959000Y-53740500D03*
X147459000Y-53740500D03*
X147959000Y-53740500D03*
X148459000Y-53740500D03*
X148959000Y-51415500D03*
X147459000Y-51415500D03*
X147959000Y-51415500D03*
X148459000Y-51415500D03*
%TD*%
D14*
%TO.C,J1*%
X136431000Y-54080000D03*
D15*
X156431000Y-54080000D03*
%TD*%
D16*
%TO.C,FL1*%
X145280000Y-73450000D03*
X144780000Y-73450000D03*
X144280000Y-73450000D03*
X144280000Y-72600000D03*
X144780000Y-72600000D03*
X145280000Y-72600000D03*
%TD*%
D17*
%TO.C,U8*%
X152296000Y-51620000D03*
X152296000Y-52070000D03*
X152296000Y-52520000D03*
X150726000Y-51620000D03*
X150726000Y-52070000D03*
X150726000Y-52520000D03*
D18*
X151736000Y-51285000D03*
X151286000Y-51285000D03*
X151736000Y-52855000D03*
X151286000Y-52855000D03*
%TD*%
%TO.C,J11*%
G36*
G01*
X141864000Y-44827999D02*
X141864000Y-46028001D01*
G75*
G02*
X141614001Y-46278000I-249999J0D01*
G01*
X140913999Y-46278000D01*
G75*
G02*
X140664000Y-46028001I0J249999D01*
G01*
X140664000Y-44827999D01*
G75*
G02*
X140913999Y-44578000I249999J0D01*
G01*
X141614001Y-44578000D01*
G75*
G02*
X141864000Y-44827999I0J-249999D01*
G01*
G37*
G36*
G01*
X146864000Y-44827999D02*
X146864000Y-46028001D01*
G75*
G02*
X146614001Y-46278000I-249999J0D01*
G01*
X145913999Y-46278000D01*
G75*
G02*
X145664000Y-46028001I0J249999D01*
G01*
X145664000Y-44827999D01*
G75*
G02*
X145913999Y-44578000I249999J0D01*
G01*
X146614001Y-44578000D01*
G75*
G02*
X146864000Y-44827999I0J-249999D01*
G01*
G37*
G36*
G01*
X142814000Y-47003000D02*
X142814000Y-47753000D01*
G75*
G02*
X142689000Y-47878000I-125000J0D01*
G01*
X142439000Y-47878000D01*
G75*
G02*
X142314000Y-47753000I0J125000D01*
G01*
X142314000Y-47003000D01*
G75*
G02*
X142439000Y-46878000I125000J0D01*
G01*
X142689000Y-46878000D01*
G75*
G02*
X142814000Y-47003000I0J-125000D01*
G01*
G37*
G36*
G01*
X143614000Y-47003000D02*
X143614000Y-47753000D01*
G75*
G02*
X143489000Y-47878000I-125000J0D01*
G01*
X143239000Y-47878000D01*
G75*
G02*
X143114000Y-47753000I0J125000D01*
G01*
X143114000Y-47003000D01*
G75*
G02*
X143239000Y-46878000I125000J0D01*
G01*
X143489000Y-46878000D01*
G75*
G02*
X143614000Y-47003000I0J-125000D01*
G01*
G37*
G36*
G01*
X144414000Y-47003000D02*
X144414000Y-47753000D01*
G75*
G02*
X144289000Y-47878000I-125000J0D01*
G01*
X144039000Y-47878000D01*
G75*
G02*
X143914000Y-47753000I0J125000D01*
G01*
X143914000Y-47003000D01*
G75*
G02*
X144039000Y-46878000I125000J0D01*
G01*
X144289000Y-46878000D01*
G75*
G02*
X144414000Y-47003000I0J-125000D01*
G01*
G37*
G36*
G01*
X145214000Y-47003000D02*
X145214000Y-47753000D01*
G75*
G02*
X145089000Y-47878000I-125000J0D01*
G01*
X144839000Y-47878000D01*
G75*
G02*
X144714000Y-47753000I0J125000D01*
G01*
X144714000Y-47003000D01*
G75*
G02*
X144839000Y-46878000I125000J0D01*
G01*
X145089000Y-46878000D01*
G75*
G02*
X145214000Y-47003000I0J-125000D01*
G01*
G37*
%TD*%
D19*
%TO.C,J10*%
X127254000Y-52324000D03*
D20*
X127254000Y-56769000D03*
%TD*%
D21*
%TO.C,TP8*%
X150368000Y-74041000D03*
%TD*%
D22*
%TO.C,TP7*%
X160020000Y-78740000D03*
%TD*%
%TO.C,TP6*%
X160020000Y-48260000D03*
%TD*%
%TO.C,TP5*%
X129540000Y-78740000D03*
%TD*%
%TO.C,TP4*%
X129540000Y-48260000D03*
%TD*%
D23*
%TO.C,U2*%
X139700000Y-73406000D03*
G36*
G01*
X137400000Y-70806000D02*
X137400000Y-70106000D01*
G75*
G02*
X137450000Y-70056000I50000J0D01*
G01*
X137550000Y-70056000D01*
G75*
G02*
X137600000Y-70106000I0J-50000D01*
G01*
X137600000Y-70806000D01*
G75*
G02*
X137550000Y-70856000I-50000J0D01*
G01*
X137450000Y-70856000D01*
G75*
G02*
X137400000Y-70806000I0J50000D01*
G01*
G37*
G36*
G01*
X137800000Y-70806000D02*
X137800000Y-70106000D01*
G75*
G02*
X137850000Y-70056000I50000J0D01*
G01*
X137950000Y-70056000D01*
G75*
G02*
X138000000Y-70106000I0J-50000D01*
G01*
X138000000Y-70806000D01*
G75*
G02*
X137950000Y-70856000I-50000J0D01*
G01*
X137850000Y-70856000D01*
G75*
G02*
X137800000Y-70806000I0J50000D01*
G01*
G37*
G36*
G01*
X138200000Y-70806000D02*
X138200000Y-70106000D01*
G75*
G02*
X138250000Y-70056000I50000J0D01*
G01*
X138350000Y-70056000D01*
G75*
G02*
X138400000Y-70106000I0J-50000D01*
G01*
X138400000Y-70806000D01*
G75*
G02*
X138350000Y-70856000I-50000J0D01*
G01*
X138250000Y-70856000D01*
G75*
G02*
X138200000Y-70806000I0J50000D01*
G01*
G37*
G36*
G01*
X138600000Y-70806000D02*
X138600000Y-70106000D01*
G75*
G02*
X138650000Y-70056000I50000J0D01*
G01*
X138750000Y-70056000D01*
G75*
G02*
X138800000Y-70106000I0J-50000D01*
G01*
X138800000Y-70806000D01*
G75*
G02*
X138750000Y-70856000I-50000J0D01*
G01*
X138650000Y-70856000D01*
G75*
G02*
X138600000Y-70806000I0J50000D01*
G01*
G37*
G36*
G01*
X139000000Y-70806000D02*
X139000000Y-70106000D01*
G75*
G02*
X139050000Y-70056000I50000J0D01*
G01*
X139150000Y-70056000D01*
G75*
G02*
X139200000Y-70106000I0J-50000D01*
G01*
X139200000Y-70806000D01*
G75*
G02*
X139150000Y-70856000I-50000J0D01*
G01*
X139050000Y-70856000D01*
G75*
G02*
X139000000Y-70806000I0J50000D01*
G01*
G37*
G36*
G01*
X139400000Y-70806000D02*
X139400000Y-70106000D01*
G75*
G02*
X139450000Y-70056000I50000J0D01*
G01*
X139550000Y-70056000D01*
G75*
G02*
X139600000Y-70106000I0J-50000D01*
G01*
X139600000Y-70806000D01*
G75*
G02*
X139550000Y-70856000I-50000J0D01*
G01*
X139450000Y-70856000D01*
G75*
G02*
X139400000Y-70806000I0J50000D01*
G01*
G37*
G36*
G01*
X139800000Y-70806000D02*
X139800000Y-70106000D01*
G75*
G02*
X139850000Y-70056000I50000J0D01*
G01*
X139950000Y-70056000D01*
G75*
G02*
X140000000Y-70106000I0J-50000D01*
G01*
X140000000Y-70806000D01*
G75*
G02*
X139950000Y-70856000I-50000J0D01*
G01*
X139850000Y-70856000D01*
G75*
G02*
X139800000Y-70806000I0J50000D01*
G01*
G37*
G36*
G01*
X140200000Y-70806000D02*
X140200000Y-70106000D01*
G75*
G02*
X140250000Y-70056000I50000J0D01*
G01*
X140350000Y-70056000D01*
G75*
G02*
X140400000Y-70106000I0J-50000D01*
G01*
X140400000Y-70806000D01*
G75*
G02*
X140350000Y-70856000I-50000J0D01*
G01*
X140250000Y-70856000D01*
G75*
G02*
X140200000Y-70806000I0J50000D01*
G01*
G37*
G36*
G01*
X140600000Y-70806000D02*
X140600000Y-70106000D01*
G75*
G02*
X140650000Y-70056000I50000J0D01*
G01*
X140750000Y-70056000D01*
G75*
G02*
X140800000Y-70106000I0J-50000D01*
G01*
X140800000Y-70806000D01*
G75*
G02*
X140750000Y-70856000I-50000J0D01*
G01*
X140650000Y-70856000D01*
G75*
G02*
X140600000Y-70806000I0J50000D01*
G01*
G37*
G36*
G01*
X141000000Y-70806000D02*
X141000000Y-70106000D01*
G75*
G02*
X141050000Y-70056000I50000J0D01*
G01*
X141150000Y-70056000D01*
G75*
G02*
X141200000Y-70106000I0J-50000D01*
G01*
X141200000Y-70806000D01*
G75*
G02*
X141150000Y-70856000I-50000J0D01*
G01*
X141050000Y-70856000D01*
G75*
G02*
X141000000Y-70806000I0J50000D01*
G01*
G37*
G36*
G01*
X141400000Y-70806000D02*
X141400000Y-70106000D01*
G75*
G02*
X141450000Y-70056000I50000J0D01*
G01*
X141550000Y-70056000D01*
G75*
G02*
X141600000Y-70106000I0J-50000D01*
G01*
X141600000Y-70806000D01*
G75*
G02*
X141550000Y-70856000I-50000J0D01*
G01*
X141450000Y-70856000D01*
G75*
G02*
X141400000Y-70806000I0J50000D01*
G01*
G37*
G36*
G01*
X141800000Y-70806000D02*
X141800000Y-70106000D01*
G75*
G02*
X141850000Y-70056000I50000J0D01*
G01*
X141950000Y-70056000D01*
G75*
G02*
X142000000Y-70106000I0J-50000D01*
G01*
X142000000Y-70806000D01*
G75*
G02*
X141950000Y-70856000I-50000J0D01*
G01*
X141850000Y-70856000D01*
G75*
G02*
X141800000Y-70806000I0J50000D01*
G01*
G37*
G36*
G01*
X142250000Y-71256000D02*
X142250000Y-71156000D01*
G75*
G02*
X142300000Y-71106000I50000J0D01*
G01*
X143000000Y-71106000D01*
G75*
G02*
X143050000Y-71156000I0J-50000D01*
G01*
X143050000Y-71256000D01*
G75*
G02*
X143000000Y-71306000I-50000J0D01*
G01*
X142300000Y-71306000D01*
G75*
G02*
X142250000Y-71256000I0J50000D01*
G01*
G37*
G36*
G01*
X142250000Y-71656000D02*
X142250000Y-71556000D01*
G75*
G02*
X142300000Y-71506000I50000J0D01*
G01*
X143000000Y-71506000D01*
G75*
G02*
X143050000Y-71556000I0J-50000D01*
G01*
X143050000Y-71656000D01*
G75*
G02*
X143000000Y-71706000I-50000J0D01*
G01*
X142300000Y-71706000D01*
G75*
G02*
X142250000Y-71656000I0J50000D01*
G01*
G37*
G36*
G01*
X142250000Y-72056000D02*
X142250000Y-71956000D01*
G75*
G02*
X142300000Y-71906000I50000J0D01*
G01*
X143000000Y-71906000D01*
G75*
G02*
X143050000Y-71956000I0J-50000D01*
G01*
X143050000Y-72056000D01*
G75*
G02*
X143000000Y-72106000I-50000J0D01*
G01*
X142300000Y-72106000D01*
G75*
G02*
X142250000Y-72056000I0J50000D01*
G01*
G37*
G36*
G01*
X142250000Y-72456000D02*
X142250000Y-72356000D01*
G75*
G02*
X142300000Y-72306000I50000J0D01*
G01*
X143000000Y-72306000D01*
G75*
G02*
X143050000Y-72356000I0J-50000D01*
G01*
X143050000Y-72456000D01*
G75*
G02*
X143000000Y-72506000I-50000J0D01*
G01*
X142300000Y-72506000D01*
G75*
G02*
X142250000Y-72456000I0J50000D01*
G01*
G37*
G36*
G01*
X142250000Y-72856000D02*
X142250000Y-72756000D01*
G75*
G02*
X142300000Y-72706000I50000J0D01*
G01*
X143000000Y-72706000D01*
G75*
G02*
X143050000Y-72756000I0J-50000D01*
G01*
X143050000Y-72856000D01*
G75*
G02*
X143000000Y-72906000I-50000J0D01*
G01*
X142300000Y-72906000D01*
G75*
G02*
X142250000Y-72856000I0J50000D01*
G01*
G37*
G36*
G01*
X142250000Y-73256000D02*
X142250000Y-73156000D01*
G75*
G02*
X142300000Y-73106000I50000J0D01*
G01*
X143000000Y-73106000D01*
G75*
G02*
X143050000Y-73156000I0J-50000D01*
G01*
X143050000Y-73256000D01*
G75*
G02*
X143000000Y-73306000I-50000J0D01*
G01*
X142300000Y-73306000D01*
G75*
G02*
X142250000Y-73256000I0J50000D01*
G01*
G37*
G36*
G01*
X142250000Y-73656000D02*
X142250000Y-73556000D01*
G75*
G02*
X142300000Y-73506000I50000J0D01*
G01*
X143000000Y-73506000D01*
G75*
G02*
X143050000Y-73556000I0J-50000D01*
G01*
X143050000Y-73656000D01*
G75*
G02*
X143000000Y-73706000I-50000J0D01*
G01*
X142300000Y-73706000D01*
G75*
G02*
X142250000Y-73656000I0J50000D01*
G01*
G37*
G36*
G01*
X142250000Y-74056000D02*
X142250000Y-73956000D01*
G75*
G02*
X142300000Y-73906000I50000J0D01*
G01*
X143000000Y-73906000D01*
G75*
G02*
X143050000Y-73956000I0J-50000D01*
G01*
X143050000Y-74056000D01*
G75*
G02*
X143000000Y-74106000I-50000J0D01*
G01*
X142300000Y-74106000D01*
G75*
G02*
X142250000Y-74056000I0J50000D01*
G01*
G37*
G36*
G01*
X142250000Y-74456000D02*
X142250000Y-74356000D01*
G75*
G02*
X142300000Y-74306000I50000J0D01*
G01*
X143000000Y-74306000D01*
G75*
G02*
X143050000Y-74356000I0J-50000D01*
G01*
X143050000Y-74456000D01*
G75*
G02*
X143000000Y-74506000I-50000J0D01*
G01*
X142300000Y-74506000D01*
G75*
G02*
X142250000Y-74456000I0J50000D01*
G01*
G37*
G36*
G01*
X142250000Y-74856000D02*
X142250000Y-74756000D01*
G75*
G02*
X142300000Y-74706000I50000J0D01*
G01*
X143000000Y-74706000D01*
G75*
G02*
X143050000Y-74756000I0J-50000D01*
G01*
X143050000Y-74856000D01*
G75*
G02*
X143000000Y-74906000I-50000J0D01*
G01*
X142300000Y-74906000D01*
G75*
G02*
X142250000Y-74856000I0J50000D01*
G01*
G37*
G36*
G01*
X142250000Y-75256000D02*
X142250000Y-75156000D01*
G75*
G02*
X142300000Y-75106000I50000J0D01*
G01*
X143000000Y-75106000D01*
G75*
G02*
X143050000Y-75156000I0J-50000D01*
G01*
X143050000Y-75256000D01*
G75*
G02*
X143000000Y-75306000I-50000J0D01*
G01*
X142300000Y-75306000D01*
G75*
G02*
X142250000Y-75256000I0J50000D01*
G01*
G37*
G36*
G01*
X142250000Y-75656000D02*
X142250000Y-75556000D01*
G75*
G02*
X142300000Y-75506000I50000J0D01*
G01*
X143000000Y-75506000D01*
G75*
G02*
X143050000Y-75556000I0J-50000D01*
G01*
X143050000Y-75656000D01*
G75*
G02*
X143000000Y-75706000I-50000J0D01*
G01*
X142300000Y-75706000D01*
G75*
G02*
X142250000Y-75656000I0J50000D01*
G01*
G37*
G36*
G01*
X141800000Y-76706000D02*
X141800000Y-76006000D01*
G75*
G02*
X141850000Y-75956000I50000J0D01*
G01*
X141950000Y-75956000D01*
G75*
G02*
X142000000Y-76006000I0J-50000D01*
G01*
X142000000Y-76706000D01*
G75*
G02*
X141950000Y-76756000I-50000J0D01*
G01*
X141850000Y-76756000D01*
G75*
G02*
X141800000Y-76706000I0J50000D01*
G01*
G37*
G36*
G01*
X141400000Y-76706000D02*
X141400000Y-76006000D01*
G75*
G02*
X141450000Y-75956000I50000J0D01*
G01*
X141550000Y-75956000D01*
G75*
G02*
X141600000Y-76006000I0J-50000D01*
G01*
X141600000Y-76706000D01*
G75*
G02*
X141550000Y-76756000I-50000J0D01*
G01*
X141450000Y-76756000D01*
G75*
G02*
X141400000Y-76706000I0J50000D01*
G01*
G37*
G36*
G01*
X141000000Y-76706000D02*
X141000000Y-76006000D01*
G75*
G02*
X141050000Y-75956000I50000J0D01*
G01*
X141150000Y-75956000D01*
G75*
G02*
X141200000Y-76006000I0J-50000D01*
G01*
X141200000Y-76706000D01*
G75*
G02*
X141150000Y-76756000I-50000J0D01*
G01*
X141050000Y-76756000D01*
G75*
G02*
X141000000Y-76706000I0J50000D01*
G01*
G37*
G36*
G01*
X140600000Y-76706000D02*
X140600000Y-76006000D01*
G75*
G02*
X140650000Y-75956000I50000J0D01*
G01*
X140750000Y-75956000D01*
G75*
G02*
X140800000Y-76006000I0J-50000D01*
G01*
X140800000Y-76706000D01*
G75*
G02*
X140750000Y-76756000I-50000J0D01*
G01*
X140650000Y-76756000D01*
G75*
G02*
X140600000Y-76706000I0J50000D01*
G01*
G37*
G36*
G01*
X140200000Y-76706000D02*
X140200000Y-76006000D01*
G75*
G02*
X140250000Y-75956000I50000J0D01*
G01*
X140350000Y-75956000D01*
G75*
G02*
X140400000Y-76006000I0J-50000D01*
G01*
X140400000Y-76706000D01*
G75*
G02*
X140350000Y-76756000I-50000J0D01*
G01*
X140250000Y-76756000D01*
G75*
G02*
X140200000Y-76706000I0J50000D01*
G01*
G37*
G36*
G01*
X139800000Y-76706000D02*
X139800000Y-76006000D01*
G75*
G02*
X139850000Y-75956000I50000J0D01*
G01*
X139950000Y-75956000D01*
G75*
G02*
X140000000Y-76006000I0J-50000D01*
G01*
X140000000Y-76706000D01*
G75*
G02*
X139950000Y-76756000I-50000J0D01*
G01*
X139850000Y-76756000D01*
G75*
G02*
X139800000Y-76706000I0J50000D01*
G01*
G37*
G36*
G01*
X139400000Y-76706000D02*
X139400000Y-76006000D01*
G75*
G02*
X139450000Y-75956000I50000J0D01*
G01*
X139550000Y-75956000D01*
G75*
G02*
X139600000Y-76006000I0J-50000D01*
G01*
X139600000Y-76706000D01*
G75*
G02*
X139550000Y-76756000I-50000J0D01*
G01*
X139450000Y-76756000D01*
G75*
G02*
X139400000Y-76706000I0J50000D01*
G01*
G37*
G36*
G01*
X139000000Y-76706000D02*
X139000000Y-76006000D01*
G75*
G02*
X139050000Y-75956000I50000J0D01*
G01*
X139150000Y-75956000D01*
G75*
G02*
X139200000Y-76006000I0J-50000D01*
G01*
X139200000Y-76706000D01*
G75*
G02*
X139150000Y-76756000I-50000J0D01*
G01*
X139050000Y-76756000D01*
G75*
G02*
X139000000Y-76706000I0J50000D01*
G01*
G37*
G36*
G01*
X138600000Y-76706000D02*
X138600000Y-76006000D01*
G75*
G02*
X138650000Y-75956000I50000J0D01*
G01*
X138750000Y-75956000D01*
G75*
G02*
X138800000Y-76006000I0J-50000D01*
G01*
X138800000Y-76706000D01*
G75*
G02*
X138750000Y-76756000I-50000J0D01*
G01*
X138650000Y-76756000D01*
G75*
G02*
X138600000Y-76706000I0J50000D01*
G01*
G37*
G36*
G01*
X138200000Y-76706000D02*
X138200000Y-76006000D01*
G75*
G02*
X138250000Y-75956000I50000J0D01*
G01*
X138350000Y-75956000D01*
G75*
G02*
X138400000Y-76006000I0J-50000D01*
G01*
X138400000Y-76706000D01*
G75*
G02*
X138350000Y-76756000I-50000J0D01*
G01*
X138250000Y-76756000D01*
G75*
G02*
X138200000Y-76706000I0J50000D01*
G01*
G37*
G36*
G01*
X137800000Y-76706000D02*
X137800000Y-76006000D01*
G75*
G02*
X137850000Y-75956000I50000J0D01*
G01*
X137950000Y-75956000D01*
G75*
G02*
X138000000Y-76006000I0J-50000D01*
G01*
X138000000Y-76706000D01*
G75*
G02*
X137950000Y-76756000I-50000J0D01*
G01*
X137850000Y-76756000D01*
G75*
G02*
X137800000Y-76706000I0J50000D01*
G01*
G37*
G36*
G01*
X137400000Y-76706000D02*
X137400000Y-76006000D01*
G75*
G02*
X137450000Y-75956000I50000J0D01*
G01*
X137550000Y-75956000D01*
G75*
G02*
X137600000Y-76006000I0J-50000D01*
G01*
X137600000Y-76706000D01*
G75*
G02*
X137550000Y-76756000I-50000J0D01*
G01*
X137450000Y-76756000D01*
G75*
G02*
X137400000Y-76706000I0J50000D01*
G01*
G37*
G36*
G01*
X136350000Y-75656000D02*
X136350000Y-75556000D01*
G75*
G02*
X136400000Y-75506000I50000J0D01*
G01*
X137100000Y-75506000D01*
G75*
G02*
X137150000Y-75556000I0J-50000D01*
G01*
X137150000Y-75656000D01*
G75*
G02*
X137100000Y-75706000I-50000J0D01*
G01*
X136400000Y-75706000D01*
G75*
G02*
X136350000Y-75656000I0J50000D01*
G01*
G37*
G36*
G01*
X136350000Y-75256000D02*
X136350000Y-75156000D01*
G75*
G02*
X136400000Y-75106000I50000J0D01*
G01*
X137100000Y-75106000D01*
G75*
G02*
X137150000Y-75156000I0J-50000D01*
G01*
X137150000Y-75256000D01*
G75*
G02*
X137100000Y-75306000I-50000J0D01*
G01*
X136400000Y-75306000D01*
G75*
G02*
X136350000Y-75256000I0J50000D01*
G01*
G37*
G36*
G01*
X136350000Y-74856000D02*
X136350000Y-74756000D01*
G75*
G02*
X136400000Y-74706000I50000J0D01*
G01*
X137100000Y-74706000D01*
G75*
G02*
X137150000Y-74756000I0J-50000D01*
G01*
X137150000Y-74856000D01*
G75*
G02*
X137100000Y-74906000I-50000J0D01*
G01*
X136400000Y-74906000D01*
G75*
G02*
X136350000Y-74856000I0J50000D01*
G01*
G37*
G36*
G01*
X136350000Y-74456000D02*
X136350000Y-74356000D01*
G75*
G02*
X136400000Y-74306000I50000J0D01*
G01*
X137100000Y-74306000D01*
G75*
G02*
X137150000Y-74356000I0J-50000D01*
G01*
X137150000Y-74456000D01*
G75*
G02*
X137100000Y-74506000I-50000J0D01*
G01*
X136400000Y-74506000D01*
G75*
G02*
X136350000Y-74456000I0J50000D01*
G01*
G37*
G36*
G01*
X136350000Y-74056000D02*
X136350000Y-73956000D01*
G75*
G02*
X136400000Y-73906000I50000J0D01*
G01*
X137100000Y-73906000D01*
G75*
G02*
X137150000Y-73956000I0J-50000D01*
G01*
X137150000Y-74056000D01*
G75*
G02*
X137100000Y-74106000I-50000J0D01*
G01*
X136400000Y-74106000D01*
G75*
G02*
X136350000Y-74056000I0J50000D01*
G01*
G37*
G36*
G01*
X136350000Y-73656000D02*
X136350000Y-73556000D01*
G75*
G02*
X136400000Y-73506000I50000J0D01*
G01*
X137100000Y-73506000D01*
G75*
G02*
X137150000Y-73556000I0J-50000D01*
G01*
X137150000Y-73656000D01*
G75*
G02*
X137100000Y-73706000I-50000J0D01*
G01*
X136400000Y-73706000D01*
G75*
G02*
X136350000Y-73656000I0J50000D01*
G01*
G37*
G36*
G01*
X136350000Y-73256000D02*
X136350000Y-73156000D01*
G75*
G02*
X136400000Y-73106000I50000J0D01*
G01*
X137100000Y-73106000D01*
G75*
G02*
X137150000Y-73156000I0J-50000D01*
G01*
X137150000Y-73256000D01*
G75*
G02*
X137100000Y-73306000I-50000J0D01*
G01*
X136400000Y-73306000D01*
G75*
G02*
X136350000Y-73256000I0J50000D01*
G01*
G37*
G36*
G01*
X136350000Y-72856000D02*
X136350000Y-72756000D01*
G75*
G02*
X136400000Y-72706000I50000J0D01*
G01*
X137100000Y-72706000D01*
G75*
G02*
X137150000Y-72756000I0J-50000D01*
G01*
X137150000Y-72856000D01*
G75*
G02*
X137100000Y-72906000I-50000J0D01*
G01*
X136400000Y-72906000D01*
G75*
G02*
X136350000Y-72856000I0J50000D01*
G01*
G37*
G36*
G01*
X136350000Y-72456000D02*
X136350000Y-72356000D01*
G75*
G02*
X136400000Y-72306000I50000J0D01*
G01*
X137100000Y-72306000D01*
G75*
G02*
X137150000Y-72356000I0J-50000D01*
G01*
X137150000Y-72456000D01*
G75*
G02*
X137100000Y-72506000I-50000J0D01*
G01*
X136400000Y-72506000D01*
G75*
G02*
X136350000Y-72456000I0J50000D01*
G01*
G37*
G36*
G01*
X136350000Y-72056000D02*
X136350000Y-71956000D01*
G75*
G02*
X136400000Y-71906000I50000J0D01*
G01*
X137100000Y-71906000D01*
G75*
G02*
X137150000Y-71956000I0J-50000D01*
G01*
X137150000Y-72056000D01*
G75*
G02*
X137100000Y-72106000I-50000J0D01*
G01*
X136400000Y-72106000D01*
G75*
G02*
X136350000Y-72056000I0J50000D01*
G01*
G37*
G36*
G01*
X136350000Y-71656000D02*
X136350000Y-71556000D01*
G75*
G02*
X136400000Y-71506000I50000J0D01*
G01*
X137100000Y-71506000D01*
G75*
G02*
X137150000Y-71556000I0J-50000D01*
G01*
X137150000Y-71656000D01*
G75*
G02*
X137100000Y-71706000I-50000J0D01*
G01*
X136400000Y-71706000D01*
G75*
G02*
X136350000Y-71656000I0J50000D01*
G01*
G37*
G36*
G01*
X136350000Y-71256000D02*
X136350000Y-71156000D01*
G75*
G02*
X136400000Y-71106000I50000J0D01*
G01*
X137100000Y-71106000D01*
G75*
G02*
X137150000Y-71156000I0J-50000D01*
G01*
X137150000Y-71256000D01*
G75*
G02*
X137100000Y-71306000I-50000J0D01*
G01*
X136400000Y-71306000D01*
G75*
G02*
X136350000Y-71256000I0J50000D01*
G01*
G37*
%TD*%
%TO.C,L2*%
G36*
G01*
X145714500Y-61151000D02*
X145369500Y-61151000D01*
G75*
G02*
X145222000Y-61003500I0J147500D01*
G01*
X145222000Y-60708500D01*
G75*
G02*
X145369500Y-60561000I147500J0D01*
G01*
X145714500Y-60561000D01*
G75*
G02*
X145862000Y-60708500I0J-147500D01*
G01*
X145862000Y-61003500D01*
G75*
G02*
X145714500Y-61151000I-147500J0D01*
G01*
G37*
G36*
G01*
X145714500Y-62121000D02*
X145369500Y-62121000D01*
G75*
G02*
X145222000Y-61973500I0J147500D01*
G01*
X145222000Y-61678500D01*
G75*
G02*
X145369500Y-61531000I147500J0D01*
G01*
X145714500Y-61531000D01*
G75*
G02*
X145862000Y-61678500I0J-147500D01*
G01*
X145862000Y-61973500D01*
G75*
G02*
X145714500Y-62121000I-147500J0D01*
G01*
G37*
%TD*%
%TO.C,C25*%
G36*
G01*
X146982000Y-61141000D02*
X146642000Y-61141000D01*
G75*
G02*
X146502000Y-61001000I0J140000D01*
G01*
X146502000Y-60721000D01*
G75*
G02*
X146642000Y-60581000I140000J0D01*
G01*
X146982000Y-60581000D01*
G75*
G02*
X147122000Y-60721000I0J-140000D01*
G01*
X147122000Y-61001000D01*
G75*
G02*
X146982000Y-61141000I-140000J0D01*
G01*
G37*
G36*
G01*
X146982000Y-62101000D02*
X146642000Y-62101000D01*
G75*
G02*
X146502000Y-61961000I0J140000D01*
G01*
X146502000Y-61681000D01*
G75*
G02*
X146642000Y-61541000I140000J0D01*
G01*
X146982000Y-61541000D01*
G75*
G02*
X147122000Y-61681000I0J-140000D01*
G01*
X147122000Y-61961000D01*
G75*
G02*
X146982000Y-62101000I-140000J0D01*
G01*
G37*
%TD*%
%TO.C,C24*%
G36*
G01*
X153713000Y-52251000D02*
X153373000Y-52251000D01*
G75*
G02*
X153233000Y-52111000I0J140000D01*
G01*
X153233000Y-51831000D01*
G75*
G02*
X153373000Y-51691000I140000J0D01*
G01*
X153713000Y-51691000D01*
G75*
G02*
X153853000Y-51831000I0J-140000D01*
G01*
X153853000Y-52111000D01*
G75*
G02*
X153713000Y-52251000I-140000J0D01*
G01*
G37*
G36*
G01*
X153713000Y-53211000D02*
X153373000Y-53211000D01*
G75*
G02*
X153233000Y-53071000I0J140000D01*
G01*
X153233000Y-52791000D01*
G75*
G02*
X153373000Y-52651000I140000J0D01*
G01*
X153713000Y-52651000D01*
G75*
G02*
X153853000Y-52791000I0J-140000D01*
G01*
X153853000Y-53071000D01*
G75*
G02*
X153713000Y-53211000I-140000J0D01*
G01*
G37*
%TD*%
%TO.C,C23*%
G36*
G01*
X150930000Y-54059000D02*
X150930000Y-54399000D01*
G75*
G02*
X150790000Y-54539000I-140000J0D01*
G01*
X150510000Y-54539000D01*
G75*
G02*
X150370000Y-54399000I0J140000D01*
G01*
X150370000Y-54059000D01*
G75*
G02*
X150510000Y-53919000I140000J0D01*
G01*
X150790000Y-53919000D01*
G75*
G02*
X150930000Y-54059000I0J-140000D01*
G01*
G37*
G36*
G01*
X151890000Y-54059000D02*
X151890000Y-54399000D01*
G75*
G02*
X151750000Y-54539000I-140000J0D01*
G01*
X151470000Y-54539000D01*
G75*
G02*
X151330000Y-54399000I0J140000D01*
G01*
X151330000Y-54059000D01*
G75*
G02*
X151470000Y-53919000I140000J0D01*
G01*
X151750000Y-53919000D01*
G75*
G02*
X151890000Y-54059000I0J-140000D01*
G01*
G37*
%TD*%
%TO.C,C18*%
G36*
G01*
X134932000Y-57183000D02*
X134932000Y-58133000D01*
G75*
G02*
X134682000Y-58383000I-250000J0D01*
G01*
X134182000Y-58383000D01*
G75*
G02*
X133932000Y-58133000I0J250000D01*
G01*
X133932000Y-57183000D01*
G75*
G02*
X134182000Y-56933000I250000J0D01*
G01*
X134682000Y-56933000D01*
G75*
G02*
X134932000Y-57183000I0J-250000D01*
G01*
G37*
G36*
G01*
X136832000Y-57183000D02*
X136832000Y-58133000D01*
G75*
G02*
X136582000Y-58383000I-250000J0D01*
G01*
X136082000Y-58383000D01*
G75*
G02*
X135832000Y-58133000I0J250000D01*
G01*
X135832000Y-57183000D01*
G75*
G02*
X136082000Y-56933000I250000J0D01*
G01*
X136582000Y-56933000D01*
G75*
G02*
X136832000Y-57183000I0J-250000D01*
G01*
G37*
%TD*%
%TO.C,C1*%
G36*
G01*
X145499000Y-53667000D02*
X145839000Y-53667000D01*
G75*
G02*
X145979000Y-53807000I0J-140000D01*
G01*
X145979000Y-54087000D01*
G75*
G02*
X145839000Y-54227000I-140000J0D01*
G01*
X145499000Y-54227000D01*
G75*
G02*
X145359000Y-54087000I0J140000D01*
G01*
X145359000Y-53807000D01*
G75*
G02*
X145499000Y-53667000I140000J0D01*
G01*
G37*
G36*
G01*
X145499000Y-52707000D02*
X145839000Y-52707000D01*
G75*
G02*
X145979000Y-52847000I0J-140000D01*
G01*
X145979000Y-53127000D01*
G75*
G02*
X145839000Y-53267000I-140000J0D01*
G01*
X145499000Y-53267000D01*
G75*
G02*
X145359000Y-53127000I0J140000D01*
G01*
X145359000Y-52847000D01*
G75*
G02*
X145499000Y-52707000I140000J0D01*
G01*
G37*
%TD*%
D24*
%TO.C,U6*%
X142512000Y-59756000D03*
X142512000Y-61656000D03*
X139892000Y-61656000D03*
X139892000Y-60706000D03*
X139892000Y-59756000D03*
%TD*%
%TO.C,U5*%
X142534000Y-51628000D03*
X142534000Y-53528000D03*
X139914000Y-53528000D03*
X139914000Y-52578000D03*
X139914000Y-51628000D03*
%TD*%
D25*
%TO.C,U4*%
X131060000Y-59629000D03*
X131560000Y-59629000D03*
X131560000Y-61529000D03*
X130560000Y-61529000D03*
X130060000Y-61529000D03*
D26*
X130810000Y-60579000D03*
D25*
X130060000Y-59629000D03*
X130560000Y-59629000D03*
X131060000Y-61529000D03*
%TD*%
D27*
%TO.C,U3*%
X148463000Y-69215000D03*
G36*
G01*
X147563000Y-68140000D02*
X147563000Y-67390000D01*
G75*
G02*
X147613000Y-67340000I50000J0D01*
G01*
X147713000Y-67340000D01*
G75*
G02*
X147763000Y-67390000I0J-50000D01*
G01*
X147763000Y-68140000D01*
G75*
G02*
X147713000Y-68190000I-50000J0D01*
G01*
X147613000Y-68190000D01*
G75*
G02*
X147563000Y-68140000I0J50000D01*
G01*
G37*
G36*
G01*
X147963000Y-68140000D02*
X147963000Y-67390000D01*
G75*
G02*
X148013000Y-67340000I50000J0D01*
G01*
X148113000Y-67340000D01*
G75*
G02*
X148163000Y-67390000I0J-50000D01*
G01*
X148163000Y-68140000D01*
G75*
G02*
X148113000Y-68190000I-50000J0D01*
G01*
X148013000Y-68190000D01*
G75*
G02*
X147963000Y-68140000I0J50000D01*
G01*
G37*
G36*
G01*
X148363000Y-68140000D02*
X148363000Y-67390000D01*
G75*
G02*
X148413000Y-67340000I50000J0D01*
G01*
X148513000Y-67340000D01*
G75*
G02*
X148563000Y-67390000I0J-50000D01*
G01*
X148563000Y-68140000D01*
G75*
G02*
X148513000Y-68190000I-50000J0D01*
G01*
X148413000Y-68190000D01*
G75*
G02*
X148363000Y-68140000I0J50000D01*
G01*
G37*
G36*
G01*
X148763000Y-68140000D02*
X148763000Y-67390000D01*
G75*
G02*
X148813000Y-67340000I50000J0D01*
G01*
X148913000Y-67340000D01*
G75*
G02*
X148963000Y-67390000I0J-50000D01*
G01*
X148963000Y-68140000D01*
G75*
G02*
X148913000Y-68190000I-50000J0D01*
G01*
X148813000Y-68190000D01*
G75*
G02*
X148763000Y-68140000I0J50000D01*
G01*
G37*
G36*
G01*
X149163000Y-68140000D02*
X149163000Y-67390000D01*
G75*
G02*
X149213000Y-67340000I50000J0D01*
G01*
X149313000Y-67340000D01*
G75*
G02*
X149363000Y-67390000I0J-50000D01*
G01*
X149363000Y-68140000D01*
G75*
G02*
X149313000Y-68190000I-50000J0D01*
G01*
X149213000Y-68190000D01*
G75*
G02*
X149163000Y-68140000I0J50000D01*
G01*
G37*
G36*
G01*
X149488000Y-68465000D02*
X149488000Y-68365000D01*
G75*
G02*
X149538000Y-68315000I50000J0D01*
G01*
X150288000Y-68315000D01*
G75*
G02*
X150338000Y-68365000I0J-50000D01*
G01*
X150338000Y-68465000D01*
G75*
G02*
X150288000Y-68515000I-50000J0D01*
G01*
X149538000Y-68515000D01*
G75*
G02*
X149488000Y-68465000I0J50000D01*
G01*
G37*
G36*
G01*
X149488000Y-68865000D02*
X149488000Y-68765000D01*
G75*
G02*
X149538000Y-68715000I50000J0D01*
G01*
X150288000Y-68715000D01*
G75*
G02*
X150338000Y-68765000I0J-50000D01*
G01*
X150338000Y-68865000D01*
G75*
G02*
X150288000Y-68915000I-50000J0D01*
G01*
X149538000Y-68915000D01*
G75*
G02*
X149488000Y-68865000I0J50000D01*
G01*
G37*
G36*
G01*
X149488000Y-69265000D02*
X149488000Y-69165000D01*
G75*
G02*
X149538000Y-69115000I50000J0D01*
G01*
X150288000Y-69115000D01*
G75*
G02*
X150338000Y-69165000I0J-50000D01*
G01*
X150338000Y-69265000D01*
G75*
G02*
X150288000Y-69315000I-50000J0D01*
G01*
X149538000Y-69315000D01*
G75*
G02*
X149488000Y-69265000I0J50000D01*
G01*
G37*
G36*
G01*
X149488000Y-69665000D02*
X149488000Y-69565000D01*
G75*
G02*
X149538000Y-69515000I50000J0D01*
G01*
X150288000Y-69515000D01*
G75*
G02*
X150338000Y-69565000I0J-50000D01*
G01*
X150338000Y-69665000D01*
G75*
G02*
X150288000Y-69715000I-50000J0D01*
G01*
X149538000Y-69715000D01*
G75*
G02*
X149488000Y-69665000I0J50000D01*
G01*
G37*
G36*
G01*
X149488000Y-70065000D02*
X149488000Y-69965000D01*
G75*
G02*
X149538000Y-69915000I50000J0D01*
G01*
X150288000Y-69915000D01*
G75*
G02*
X150338000Y-69965000I0J-50000D01*
G01*
X150338000Y-70065000D01*
G75*
G02*
X150288000Y-70115000I-50000J0D01*
G01*
X149538000Y-70115000D01*
G75*
G02*
X149488000Y-70065000I0J50000D01*
G01*
G37*
G36*
G01*
X149163000Y-71040000D02*
X149163000Y-70290000D01*
G75*
G02*
X149213000Y-70240000I50000J0D01*
G01*
X149313000Y-70240000D01*
G75*
G02*
X149363000Y-70290000I0J-50000D01*
G01*
X149363000Y-71040000D01*
G75*
G02*
X149313000Y-71090000I-50000J0D01*
G01*
X149213000Y-71090000D01*
G75*
G02*
X149163000Y-71040000I0J50000D01*
G01*
G37*
G36*
G01*
X148763000Y-71040000D02*
X148763000Y-70290000D01*
G75*
G02*
X148813000Y-70240000I50000J0D01*
G01*
X148913000Y-70240000D01*
G75*
G02*
X148963000Y-70290000I0J-50000D01*
G01*
X148963000Y-71040000D01*
G75*
G02*
X148913000Y-71090000I-50000J0D01*
G01*
X148813000Y-71090000D01*
G75*
G02*
X148763000Y-71040000I0J50000D01*
G01*
G37*
G36*
G01*
X148363000Y-71040000D02*
X148363000Y-70290000D01*
G75*
G02*
X148413000Y-70240000I50000J0D01*
G01*
X148513000Y-70240000D01*
G75*
G02*
X148563000Y-70290000I0J-50000D01*
G01*
X148563000Y-71040000D01*
G75*
G02*
X148513000Y-71090000I-50000J0D01*
G01*
X148413000Y-71090000D01*
G75*
G02*
X148363000Y-71040000I0J50000D01*
G01*
G37*
G36*
G01*
X147963000Y-71040000D02*
X147963000Y-70290000D01*
G75*
G02*
X148013000Y-70240000I50000J0D01*
G01*
X148113000Y-70240000D01*
G75*
G02*
X148163000Y-70290000I0J-50000D01*
G01*
X148163000Y-71040000D01*
G75*
G02*
X148113000Y-71090000I-50000J0D01*
G01*
X148013000Y-71090000D01*
G75*
G02*
X147963000Y-71040000I0J50000D01*
G01*
G37*
G36*
G01*
X147563000Y-71040000D02*
X147563000Y-70290000D01*
G75*
G02*
X147613000Y-70240000I50000J0D01*
G01*
X147713000Y-70240000D01*
G75*
G02*
X147763000Y-70290000I0J-50000D01*
G01*
X147763000Y-71040000D01*
G75*
G02*
X147713000Y-71090000I-50000J0D01*
G01*
X147613000Y-71090000D01*
G75*
G02*
X147563000Y-71040000I0J50000D01*
G01*
G37*
G36*
G01*
X146588000Y-70065000D02*
X146588000Y-69965000D01*
G75*
G02*
X146638000Y-69915000I50000J0D01*
G01*
X147388000Y-69915000D01*
G75*
G02*
X147438000Y-69965000I0J-50000D01*
G01*
X147438000Y-70065000D01*
G75*
G02*
X147388000Y-70115000I-50000J0D01*
G01*
X146638000Y-70115000D01*
G75*
G02*
X146588000Y-70065000I0J50000D01*
G01*
G37*
G36*
G01*
X146588000Y-69665000D02*
X146588000Y-69565000D01*
G75*
G02*
X146638000Y-69515000I50000J0D01*
G01*
X147388000Y-69515000D01*
G75*
G02*
X147438000Y-69565000I0J-50000D01*
G01*
X147438000Y-69665000D01*
G75*
G02*
X147388000Y-69715000I-50000J0D01*
G01*
X146638000Y-69715000D01*
G75*
G02*
X146588000Y-69665000I0J50000D01*
G01*
G37*
G36*
G01*
X146588000Y-69265000D02*
X146588000Y-69165000D01*
G75*
G02*
X146638000Y-69115000I50000J0D01*
G01*
X147388000Y-69115000D01*
G75*
G02*
X147438000Y-69165000I0J-50000D01*
G01*
X147438000Y-69265000D01*
G75*
G02*
X147388000Y-69315000I-50000J0D01*
G01*
X146638000Y-69315000D01*
G75*
G02*
X146588000Y-69265000I0J50000D01*
G01*
G37*
G36*
G01*
X146588000Y-68865000D02*
X146588000Y-68765000D01*
G75*
G02*
X146638000Y-68715000I50000J0D01*
G01*
X147388000Y-68715000D01*
G75*
G02*
X147438000Y-68765000I0J-50000D01*
G01*
X147438000Y-68865000D01*
G75*
G02*
X147388000Y-68915000I-50000J0D01*
G01*
X146638000Y-68915000D01*
G75*
G02*
X146588000Y-68865000I0J50000D01*
G01*
G37*
G36*
G01*
X146588000Y-68465000D02*
X146588000Y-68365000D01*
G75*
G02*
X146638000Y-68315000I50000J0D01*
G01*
X147388000Y-68315000D01*
G75*
G02*
X147438000Y-68365000I0J-50000D01*
G01*
X147438000Y-68465000D01*
G75*
G02*
X147388000Y-68515000I-50000J0D01*
G01*
X146638000Y-68515000D01*
G75*
G02*
X146588000Y-68465000I0J50000D01*
G01*
G37*
%TD*%
D28*
%TO.C,TP3*%
X144780000Y-50927000D03*
%TD*%
%TO.C,TP2*%
X144780000Y-59055000D03*
%TD*%
%TO.C,TP1*%
X135382000Y-60579000D03*
%TD*%
D29*
%TO.C,SW1*%
X144653000Y-81893000D03*
X144653000Y-79143000D03*
D30*
X141853000Y-81368000D03*
X141853000Y-79668000D03*
X147453000Y-81368000D03*
X147453000Y-79668000D03*
%TD*%
%TO.C,R15*%
G36*
G01*
X133027000Y-61609000D02*
X132657000Y-61609000D01*
G75*
G02*
X132522000Y-61474000I0J135000D01*
G01*
X132522000Y-61204000D01*
G75*
G02*
X132657000Y-61069000I135000J0D01*
G01*
X133027000Y-61069000D01*
G75*
G02*
X133162000Y-61204000I0J-135000D01*
G01*
X133162000Y-61474000D01*
G75*
G02*
X133027000Y-61609000I-135000J0D01*
G01*
G37*
G36*
G01*
X133027000Y-62629000D02*
X132657000Y-62629000D01*
G75*
G02*
X132522000Y-62494000I0J135000D01*
G01*
X132522000Y-62224000D01*
G75*
G02*
X132657000Y-62089000I135000J0D01*
G01*
X133027000Y-62089000D01*
G75*
G02*
X133162000Y-62224000I0J-135000D01*
G01*
X133162000Y-62494000D01*
G75*
G02*
X133027000Y-62629000I-135000J0D01*
G01*
G37*
%TD*%
%TO.C,R14*%
G36*
G01*
X133027000Y-59450000D02*
X132657000Y-59450000D01*
G75*
G02*
X132522000Y-59315000I0J135000D01*
G01*
X132522000Y-59045000D01*
G75*
G02*
X132657000Y-58910000I135000J0D01*
G01*
X133027000Y-58910000D01*
G75*
G02*
X133162000Y-59045000I0J-135000D01*
G01*
X133162000Y-59315000D01*
G75*
G02*
X133027000Y-59450000I-135000J0D01*
G01*
G37*
G36*
G01*
X133027000Y-60470000D02*
X132657000Y-60470000D01*
G75*
G02*
X132522000Y-60335000I0J135000D01*
G01*
X132522000Y-60065000D01*
G75*
G02*
X132657000Y-59930000I135000J0D01*
G01*
X133027000Y-59930000D01*
G75*
G02*
X133162000Y-60065000I0J-135000D01*
G01*
X133162000Y-60335000D01*
G75*
G02*
X133027000Y-60470000I-135000J0D01*
G01*
G37*
%TD*%
%TO.C,R12*%
G36*
G01*
X134761000Y-64331000D02*
X134761000Y-64701000D01*
G75*
G02*
X134626000Y-64836000I-135000J0D01*
G01*
X134356000Y-64836000D01*
G75*
G02*
X134221000Y-64701000I0J135000D01*
G01*
X134221000Y-64331000D01*
G75*
G02*
X134356000Y-64196000I135000J0D01*
G01*
X134626000Y-64196000D01*
G75*
G02*
X134761000Y-64331000I0J-135000D01*
G01*
G37*
G36*
G01*
X135781000Y-64331000D02*
X135781000Y-64701000D01*
G75*
G02*
X135646000Y-64836000I-135000J0D01*
G01*
X135376000Y-64836000D01*
G75*
G02*
X135241000Y-64701000I0J135000D01*
G01*
X135241000Y-64331000D01*
G75*
G02*
X135376000Y-64196000I135000J0D01*
G01*
X135646000Y-64196000D01*
G75*
G02*
X135781000Y-64331000I0J-135000D01*
G01*
G37*
%TD*%
%TO.C,R11*%
G36*
G01*
X135241000Y-63431000D02*
X135241000Y-63061000D01*
G75*
G02*
X135376000Y-62926000I135000J0D01*
G01*
X135646000Y-62926000D01*
G75*
G02*
X135781000Y-63061000I0J-135000D01*
G01*
X135781000Y-63431000D01*
G75*
G02*
X135646000Y-63566000I-135000J0D01*
G01*
X135376000Y-63566000D01*
G75*
G02*
X135241000Y-63431000I0J135000D01*
G01*
G37*
G36*
G01*
X134221000Y-63431000D02*
X134221000Y-63061000D01*
G75*
G02*
X134356000Y-62926000I135000J0D01*
G01*
X134626000Y-62926000D01*
G75*
G02*
X134761000Y-63061000I0J-135000D01*
G01*
X134761000Y-63431000D01*
G75*
G02*
X134626000Y-63566000I-135000J0D01*
G01*
X134356000Y-63566000D01*
G75*
G02*
X134221000Y-63431000I0J135000D01*
G01*
G37*
%TD*%
%TO.C,R10*%
G36*
G01*
X156776000Y-49544000D02*
X156406000Y-49544000D01*
G75*
G02*
X156271000Y-49409000I0J135000D01*
G01*
X156271000Y-49139000D01*
G75*
G02*
X156406000Y-49004000I135000J0D01*
G01*
X156776000Y-49004000D01*
G75*
G02*
X156911000Y-49139000I0J-135000D01*
G01*
X156911000Y-49409000D01*
G75*
G02*
X156776000Y-49544000I-135000J0D01*
G01*
G37*
G36*
G01*
X156776000Y-50564000D02*
X156406000Y-50564000D01*
G75*
G02*
X156271000Y-50429000I0J135000D01*
G01*
X156271000Y-50159000D01*
G75*
G02*
X156406000Y-50024000I135000J0D01*
G01*
X156776000Y-50024000D01*
G75*
G02*
X156911000Y-50159000I0J-135000D01*
G01*
X156911000Y-50429000D01*
G75*
G02*
X156776000Y-50564000I-135000J0D01*
G01*
G37*
%TD*%
%TO.C,R9*%
G36*
G01*
X155379000Y-49544000D02*
X155009000Y-49544000D01*
G75*
G02*
X154874000Y-49409000I0J135000D01*
G01*
X154874000Y-49139000D01*
G75*
G02*
X155009000Y-49004000I135000J0D01*
G01*
X155379000Y-49004000D01*
G75*
G02*
X155514000Y-49139000I0J-135000D01*
G01*
X155514000Y-49409000D01*
G75*
G02*
X155379000Y-49544000I-135000J0D01*
G01*
G37*
G36*
G01*
X155379000Y-50564000D02*
X155009000Y-50564000D01*
G75*
G02*
X154874000Y-50429000I0J135000D01*
G01*
X154874000Y-50159000D01*
G75*
G02*
X155009000Y-50024000I135000J0D01*
G01*
X155379000Y-50024000D01*
G75*
G02*
X155514000Y-50159000I0J-135000D01*
G01*
X155514000Y-50429000D01*
G75*
G02*
X155379000Y-50564000I-135000J0D01*
G01*
G37*
%TD*%
%TO.C,R8*%
G36*
G01*
X134551000Y-49544000D02*
X134181000Y-49544000D01*
G75*
G02*
X134046000Y-49409000I0J135000D01*
G01*
X134046000Y-49139000D01*
G75*
G02*
X134181000Y-49004000I135000J0D01*
G01*
X134551000Y-49004000D01*
G75*
G02*
X134686000Y-49139000I0J-135000D01*
G01*
X134686000Y-49409000D01*
G75*
G02*
X134551000Y-49544000I-135000J0D01*
G01*
G37*
G36*
G01*
X134551000Y-50564000D02*
X134181000Y-50564000D01*
G75*
G02*
X134046000Y-50429000I0J135000D01*
G01*
X134046000Y-50159000D01*
G75*
G02*
X134181000Y-50024000I135000J0D01*
G01*
X134551000Y-50024000D01*
G75*
G02*
X134686000Y-50159000I0J-135000D01*
G01*
X134686000Y-50429000D01*
G75*
G02*
X134551000Y-50564000I-135000J0D01*
G01*
G37*
%TD*%
%TO.C,R5*%
G36*
G01*
X133154000Y-49544000D02*
X132784000Y-49544000D01*
G75*
G02*
X132649000Y-49409000I0J135000D01*
G01*
X132649000Y-49139000D01*
G75*
G02*
X132784000Y-49004000I135000J0D01*
G01*
X133154000Y-49004000D01*
G75*
G02*
X133289000Y-49139000I0J-135000D01*
G01*
X133289000Y-49409000D01*
G75*
G02*
X133154000Y-49544000I-135000J0D01*
G01*
G37*
G36*
G01*
X133154000Y-50564000D02*
X132784000Y-50564000D01*
G75*
G02*
X132649000Y-50429000I0J135000D01*
G01*
X132649000Y-50159000D01*
G75*
G02*
X132784000Y-50024000I135000J0D01*
G01*
X133154000Y-50024000D01*
G75*
G02*
X133289000Y-50159000I0J-135000D01*
G01*
X133289000Y-50429000D01*
G75*
G02*
X133154000Y-50564000I-135000J0D01*
G01*
G37*
%TD*%
%TO.C,R3*%
G36*
G01*
X130189000Y-68014000D02*
X130189000Y-68384000D01*
G75*
G02*
X130054000Y-68519000I-135000J0D01*
G01*
X129784000Y-68519000D01*
G75*
G02*
X129649000Y-68384000I0J135000D01*
G01*
X129649000Y-68014000D01*
G75*
G02*
X129784000Y-67879000I135000J0D01*
G01*
X130054000Y-67879000D01*
G75*
G02*
X130189000Y-68014000I0J-135000D01*
G01*
G37*
G36*
G01*
X131209000Y-68014000D02*
X131209000Y-68384000D01*
G75*
G02*
X131074000Y-68519000I-135000J0D01*
G01*
X130804000Y-68519000D01*
G75*
G02*
X130669000Y-68384000I0J135000D01*
G01*
X130669000Y-68014000D01*
G75*
G02*
X130804000Y-67879000I135000J0D01*
G01*
X131074000Y-67879000D01*
G75*
G02*
X131209000Y-68014000I0J-135000D01*
G01*
G37*
%TD*%
%TO.C,R2*%
G36*
G01*
X130189000Y-69284000D02*
X130189000Y-69654000D01*
G75*
G02*
X130054000Y-69789000I-135000J0D01*
G01*
X129784000Y-69789000D01*
G75*
G02*
X129649000Y-69654000I0J135000D01*
G01*
X129649000Y-69284000D01*
G75*
G02*
X129784000Y-69149000I135000J0D01*
G01*
X130054000Y-69149000D01*
G75*
G02*
X130189000Y-69284000I0J-135000D01*
G01*
G37*
G36*
G01*
X131209000Y-69284000D02*
X131209000Y-69654000D01*
G75*
G02*
X131074000Y-69789000I-135000J0D01*
G01*
X130804000Y-69789000D01*
G75*
G02*
X130669000Y-69654000I0J135000D01*
G01*
X130669000Y-69284000D01*
G75*
G02*
X130804000Y-69149000I135000J0D01*
G01*
X131074000Y-69149000D01*
G75*
G02*
X131209000Y-69284000I0J-135000D01*
G01*
G37*
%TD*%
%TO.C,R1*%
G36*
G01*
X136666000Y-79317000D02*
X136666000Y-79687000D01*
G75*
G02*
X136531000Y-79822000I-135000J0D01*
G01*
X136261000Y-79822000D01*
G75*
G02*
X136126000Y-79687000I0J135000D01*
G01*
X136126000Y-79317000D01*
G75*
G02*
X136261000Y-79182000I135000J0D01*
G01*
X136531000Y-79182000D01*
G75*
G02*
X136666000Y-79317000I0J-135000D01*
G01*
G37*
G36*
G01*
X137686000Y-79317000D02*
X137686000Y-79687000D01*
G75*
G02*
X137551000Y-79822000I-135000J0D01*
G01*
X137281000Y-79822000D01*
G75*
G02*
X137146000Y-79687000I0J135000D01*
G01*
X137146000Y-79317000D01*
G75*
G02*
X137281000Y-79182000I135000J0D01*
G01*
X137551000Y-79182000D01*
G75*
G02*
X137686000Y-79317000I0J-135000D01*
G01*
G37*
%TD*%
%TO.C,L5*%
G36*
G01*
X131122000Y-56427000D02*
X131122000Y-58127000D01*
G75*
G02*
X130872000Y-58377000I-250000J0D01*
G01*
X130122000Y-58377000D01*
G75*
G02*
X129872000Y-58127000I0J250000D01*
G01*
X129872000Y-56427000D01*
G75*
G02*
X130122000Y-56177000I250000J0D01*
G01*
X130872000Y-56177000D01*
G75*
G02*
X131122000Y-56427000I0J-250000D01*
G01*
G37*
G36*
G01*
X133272000Y-56427000D02*
X133272000Y-58127000D01*
G75*
G02*
X133022000Y-58377000I-250000J0D01*
G01*
X132272000Y-58377000D01*
G75*
G02*
X132022000Y-58127000I0J250000D01*
G01*
X132022000Y-56427000D01*
G75*
G02*
X132272000Y-56177000I250000J0D01*
G01*
X133022000Y-56177000D01*
G75*
G02*
X133272000Y-56427000I0J-250000D01*
G01*
G37*
%TD*%
%TO.C,L4*%
G36*
G01*
X150413500Y-65850000D02*
X150068500Y-65850000D01*
G75*
G02*
X149921000Y-65702500I0J147500D01*
G01*
X149921000Y-65407500D01*
G75*
G02*
X150068500Y-65260000I147500J0D01*
G01*
X150413500Y-65260000D01*
G75*
G02*
X150561000Y-65407500I0J-147500D01*
G01*
X150561000Y-65702500D01*
G75*
G02*
X150413500Y-65850000I-147500J0D01*
G01*
G37*
G36*
G01*
X150413500Y-66820000D02*
X150068500Y-66820000D01*
G75*
G02*
X149921000Y-66672500I0J147500D01*
G01*
X149921000Y-66377500D01*
G75*
G02*
X150068500Y-66230000I147500J0D01*
G01*
X150413500Y-66230000D01*
G75*
G02*
X150561000Y-66377500I0J-147500D01*
G01*
X150561000Y-66672500D01*
G75*
G02*
X150413500Y-66820000I-147500J0D01*
G01*
G37*
%TD*%
%TO.C,L3*%
G36*
G01*
X157180500Y-70675000D02*
X157525500Y-70675000D01*
G75*
G02*
X157673000Y-70822500I0J-147500D01*
G01*
X157673000Y-71117500D01*
G75*
G02*
X157525500Y-71265000I-147500J0D01*
G01*
X157180500Y-71265000D01*
G75*
G02*
X157033000Y-71117500I0J147500D01*
G01*
X157033000Y-70822500D01*
G75*
G02*
X157180500Y-70675000I147500J0D01*
G01*
G37*
G36*
G01*
X157180500Y-69705000D02*
X157525500Y-69705000D01*
G75*
G02*
X157673000Y-69852500I0J-147500D01*
G01*
X157673000Y-70147500D01*
G75*
G02*
X157525500Y-70295000I-147500J0D01*
G01*
X157180500Y-70295000D01*
G75*
G02*
X157033000Y-70147500I0J147500D01*
G01*
X157033000Y-69852500D01*
G75*
G02*
X157180500Y-69705000I147500J0D01*
G01*
G37*
%TD*%
%TO.C,L1*%
G36*
G01*
X157671000Y-68661500D02*
X157671000Y-69006500D01*
G75*
G02*
X157523500Y-69154000I-147500J0D01*
G01*
X157228500Y-69154000D01*
G75*
G02*
X157081000Y-69006500I0J147500D01*
G01*
X157081000Y-68661500D01*
G75*
G02*
X157228500Y-68514000I147500J0D01*
G01*
X157523500Y-68514000D01*
G75*
G02*
X157671000Y-68661500I0J-147500D01*
G01*
G37*
G36*
G01*
X158641000Y-68661500D02*
X158641000Y-69006500D01*
G75*
G02*
X158493500Y-69154000I-147500J0D01*
G01*
X158198500Y-69154000D01*
G75*
G02*
X158051000Y-69006500I0J147500D01*
G01*
X158051000Y-68661500D01*
G75*
G02*
X158198500Y-68514000I147500J0D01*
G01*
X158493500Y-68514000D01*
G75*
G02*
X158641000Y-68661500I0J-147500D01*
G01*
G37*
%TD*%
D31*
%TO.C,J3*%
X160527000Y-61595000D03*
D32*
X162052000Y-63070000D03*
X162052000Y-60120000D03*
%TD*%
D33*
%TO.C,E1*%
X163244000Y-68834000D03*
X159844000Y-68834000D03*
%TD*%
%TO.C,D4*%
G36*
G01*
X155559500Y-46578000D02*
X155209500Y-46578000D01*
G75*
G02*
X155034500Y-46403000I0J175000D01*
G01*
X155034500Y-46053000D01*
G75*
G02*
X155209500Y-45878000I175000J0D01*
G01*
X155559500Y-45878000D01*
G75*
G02*
X155734500Y-46053000I0J-175000D01*
G01*
X155734500Y-46403000D01*
G75*
G02*
X155559500Y-46578000I-175000J0D01*
G01*
G37*
G36*
G01*
X156575500Y-46578000D02*
X156225500Y-46578000D01*
G75*
G02*
X156050500Y-46403000I0J175000D01*
G01*
X156050500Y-46053000D01*
G75*
G02*
X156225500Y-45878000I175000J0D01*
G01*
X156575500Y-45878000D01*
G75*
G02*
X156750500Y-46053000I0J-175000D01*
G01*
X156750500Y-46403000D01*
G75*
G02*
X156575500Y-46578000I-175000J0D01*
G01*
G37*
G36*
G01*
X155559500Y-48102000D02*
X155209500Y-48102000D01*
G75*
G02*
X155034500Y-47927000I0J175000D01*
G01*
X155034500Y-47577000D01*
G75*
G02*
X155209500Y-47402000I175000J0D01*
G01*
X155559500Y-47402000D01*
G75*
G02*
X155734500Y-47577000I0J-175000D01*
G01*
X155734500Y-47927000D01*
G75*
G02*
X155559500Y-48102000I-175000J0D01*
G01*
G37*
G36*
G01*
X156575500Y-48102000D02*
X156225500Y-48102000D01*
G75*
G02*
X156050500Y-47927000I0J175000D01*
G01*
X156050500Y-47577000D01*
G75*
G02*
X156225500Y-47402000I175000J0D01*
G01*
X156575500Y-47402000D01*
G75*
G02*
X156750500Y-47577000I0J-175000D01*
G01*
X156750500Y-47927000D01*
G75*
G02*
X156575500Y-48102000I-175000J0D01*
G01*
G37*
%TD*%
D34*
%TO.C,D3*%
X130683000Y-66674000D03*
X130683000Y-63374000D03*
%TD*%
%TO.C,D2*%
G36*
G01*
X133334500Y-46578000D02*
X132984500Y-46578000D01*
G75*
G02*
X132809500Y-46403000I0J175000D01*
G01*
X132809500Y-46053000D01*
G75*
G02*
X132984500Y-45878000I175000J0D01*
G01*
X133334500Y-45878000D01*
G75*
G02*
X133509500Y-46053000I0J-175000D01*
G01*
X133509500Y-46403000D01*
G75*
G02*
X133334500Y-46578000I-175000J0D01*
G01*
G37*
G36*
G01*
X134350500Y-46578000D02*
X134000500Y-46578000D01*
G75*
G02*
X133825500Y-46403000I0J175000D01*
G01*
X133825500Y-46053000D01*
G75*
G02*
X134000500Y-45878000I175000J0D01*
G01*
X134350500Y-45878000D01*
G75*
G02*
X134525500Y-46053000I0J-175000D01*
G01*
X134525500Y-46403000D01*
G75*
G02*
X134350500Y-46578000I-175000J0D01*
G01*
G37*
G36*
G01*
X133334500Y-48102000D02*
X132984500Y-48102000D01*
G75*
G02*
X132809500Y-47927000I0J175000D01*
G01*
X132809500Y-47577000D01*
G75*
G02*
X132984500Y-47402000I175000J0D01*
G01*
X133334500Y-47402000D01*
G75*
G02*
X133509500Y-47577000I0J-175000D01*
G01*
X133509500Y-47927000D01*
G75*
G02*
X133334500Y-48102000I-175000J0D01*
G01*
G37*
G36*
G01*
X134350500Y-48102000D02*
X134000500Y-48102000D01*
G75*
G02*
X133825500Y-47927000I0J175000D01*
G01*
X133825500Y-47577000D01*
G75*
G02*
X134000500Y-47402000I175000J0D01*
G01*
X134350500Y-47402000D01*
G75*
G02*
X134525500Y-47577000I0J-175000D01*
G01*
X134525500Y-47927000D01*
G75*
G02*
X134350500Y-48102000I-175000J0D01*
G01*
G37*
%TD*%
%TO.C,D1*%
G36*
G01*
X136115880Y-80424400D02*
X136958120Y-80424400D01*
G75*
G02*
X137138600Y-80604880I0J-180480D01*
G01*
X137138600Y-81447120D01*
G75*
G02*
X136958120Y-81627600I-180480J0D01*
G01*
X136115880Y-81627600D01*
G75*
G02*
X135935400Y-81447120I0J180480D01*
G01*
X135935400Y-80604880D01*
G75*
G02*
X136115880Y-80424400I180480J0D01*
G01*
G37*
G36*
G01*
X137869880Y-80424400D02*
X138712120Y-80424400D01*
G75*
G02*
X138892600Y-80604880I0J-180480D01*
G01*
X138892600Y-81447120D01*
G75*
G02*
X138712120Y-81627600I-180480J0D01*
G01*
X137869880Y-81627600D01*
G75*
G02*
X137689400Y-81447120I0J180480D01*
G01*
X137689400Y-80604880D01*
G75*
G02*
X137869880Y-80424400I180480J0D01*
G01*
G37*
%TD*%
%TO.C,C22*%
G36*
G01*
X144102000Y-53667000D02*
X144442000Y-53667000D01*
G75*
G02*
X144582000Y-53807000I0J-140000D01*
G01*
X144582000Y-54087000D01*
G75*
G02*
X144442000Y-54227000I-140000J0D01*
G01*
X144102000Y-54227000D01*
G75*
G02*
X143962000Y-54087000I0J140000D01*
G01*
X143962000Y-53807000D01*
G75*
G02*
X144102000Y-53667000I140000J0D01*
G01*
G37*
G36*
G01*
X144102000Y-52707000D02*
X144442000Y-52707000D01*
G75*
G02*
X144582000Y-52847000I0J-140000D01*
G01*
X144582000Y-53127000D01*
G75*
G02*
X144442000Y-53267000I-140000J0D01*
G01*
X144102000Y-53267000D01*
G75*
G02*
X143962000Y-53127000I0J140000D01*
G01*
X143962000Y-52847000D01*
G75*
G02*
X144102000Y-52707000I140000J0D01*
G01*
G37*
%TD*%
%TO.C,C21*%
G36*
G01*
X144102000Y-61541000D02*
X144442000Y-61541000D01*
G75*
G02*
X144582000Y-61681000I0J-140000D01*
G01*
X144582000Y-61961000D01*
G75*
G02*
X144442000Y-62101000I-140000J0D01*
G01*
X144102000Y-62101000D01*
G75*
G02*
X143962000Y-61961000I0J140000D01*
G01*
X143962000Y-61681000D01*
G75*
G02*
X144102000Y-61541000I140000J0D01*
G01*
G37*
G36*
G01*
X144102000Y-60581000D02*
X144442000Y-60581000D01*
G75*
G02*
X144582000Y-60721000I0J-140000D01*
G01*
X144582000Y-61001000D01*
G75*
G02*
X144442000Y-61141000I-140000J0D01*
G01*
X144102000Y-61141000D01*
G75*
G02*
X143962000Y-61001000I0J140000D01*
G01*
X143962000Y-60721000D01*
G75*
G02*
X144102000Y-60581000I140000J0D01*
G01*
G37*
%TD*%
%TO.C,C20*%
G36*
G01*
X138346000Y-59998000D02*
X138006000Y-59998000D01*
G75*
G02*
X137866000Y-59858000I0J140000D01*
G01*
X137866000Y-59578000D01*
G75*
G02*
X138006000Y-59438000I140000J0D01*
G01*
X138346000Y-59438000D01*
G75*
G02*
X138486000Y-59578000I0J-140000D01*
G01*
X138486000Y-59858000D01*
G75*
G02*
X138346000Y-59998000I-140000J0D01*
G01*
G37*
G36*
G01*
X138346000Y-60958000D02*
X138006000Y-60958000D01*
G75*
G02*
X137866000Y-60818000I0J140000D01*
G01*
X137866000Y-60538000D01*
G75*
G02*
X138006000Y-60398000I140000J0D01*
G01*
X138346000Y-60398000D01*
G75*
G02*
X138486000Y-60538000I0J-140000D01*
G01*
X138486000Y-60818000D01*
G75*
G02*
X138346000Y-60958000I-140000J0D01*
G01*
G37*
%TD*%
%TO.C,C19*%
G36*
G01*
X138006000Y-53286000D02*
X138346000Y-53286000D01*
G75*
G02*
X138486000Y-53426000I0J-140000D01*
G01*
X138486000Y-53706000D01*
G75*
G02*
X138346000Y-53846000I-140000J0D01*
G01*
X138006000Y-53846000D01*
G75*
G02*
X137866000Y-53706000I0J140000D01*
G01*
X137866000Y-53426000D01*
G75*
G02*
X138006000Y-53286000I140000J0D01*
G01*
G37*
G36*
G01*
X138006000Y-52326000D02*
X138346000Y-52326000D01*
G75*
G02*
X138486000Y-52466000I0J-140000D01*
G01*
X138486000Y-52746000D01*
G75*
G02*
X138346000Y-52886000I-140000J0D01*
G01*
X138006000Y-52886000D01*
G75*
G02*
X137866000Y-52746000I0J140000D01*
G01*
X137866000Y-52466000D01*
G75*
G02*
X138006000Y-52326000I140000J0D01*
G01*
G37*
%TD*%
%TO.C,C16*%
G36*
G01*
X146261000Y-66240000D02*
X146601000Y-66240000D01*
G75*
G02*
X146741000Y-66380000I0J-140000D01*
G01*
X146741000Y-66660000D01*
G75*
G02*
X146601000Y-66800000I-140000J0D01*
G01*
X146261000Y-66800000D01*
G75*
G02*
X146121000Y-66660000I0J140000D01*
G01*
X146121000Y-66380000D01*
G75*
G02*
X146261000Y-66240000I140000J0D01*
G01*
G37*
G36*
G01*
X146261000Y-65280000D02*
X146601000Y-65280000D01*
G75*
G02*
X146741000Y-65420000I0J-140000D01*
G01*
X146741000Y-65700000D01*
G75*
G02*
X146601000Y-65840000I-140000J0D01*
G01*
X146261000Y-65840000D01*
G75*
G02*
X146121000Y-65700000I0J140000D01*
G01*
X146121000Y-65420000D01*
G75*
G02*
X146261000Y-65280000I140000J0D01*
G01*
G37*
%TD*%
%TO.C,C15*%
G36*
G01*
X147531000Y-66240000D02*
X147871000Y-66240000D01*
G75*
G02*
X148011000Y-66380000I0J-140000D01*
G01*
X148011000Y-66660000D01*
G75*
G02*
X147871000Y-66800000I-140000J0D01*
G01*
X147531000Y-66800000D01*
G75*
G02*
X147391000Y-66660000I0J140000D01*
G01*
X147391000Y-66380000D01*
G75*
G02*
X147531000Y-66240000I140000J0D01*
G01*
G37*
G36*
G01*
X147531000Y-65280000D02*
X147871000Y-65280000D01*
G75*
G02*
X148011000Y-65420000I0J-140000D01*
G01*
X148011000Y-65700000D01*
G75*
G02*
X147871000Y-65840000I-140000J0D01*
G01*
X147531000Y-65840000D01*
G75*
G02*
X147391000Y-65700000I0J140000D01*
G01*
X147391000Y-65420000D01*
G75*
G02*
X147531000Y-65280000I140000J0D01*
G01*
G37*
%TD*%
%TO.C,C14*%
G36*
G01*
X148801000Y-66240000D02*
X149141000Y-66240000D01*
G75*
G02*
X149281000Y-66380000I0J-140000D01*
G01*
X149281000Y-66660000D01*
G75*
G02*
X149141000Y-66800000I-140000J0D01*
G01*
X148801000Y-66800000D01*
G75*
G02*
X148661000Y-66660000I0J140000D01*
G01*
X148661000Y-66380000D01*
G75*
G02*
X148801000Y-66240000I140000J0D01*
G01*
G37*
G36*
G01*
X148801000Y-65280000D02*
X149141000Y-65280000D01*
G75*
G02*
X149281000Y-65420000I0J-140000D01*
G01*
X149281000Y-65700000D01*
G75*
G02*
X149141000Y-65840000I-140000J0D01*
G01*
X148801000Y-65840000D01*
G75*
G02*
X148661000Y-65700000I0J140000D01*
G01*
X148661000Y-65420000D01*
G75*
G02*
X148801000Y-65280000I140000J0D01*
G01*
G37*
%TD*%
%TO.C,C13*%
G36*
G01*
X134801000Y-65616000D02*
X134801000Y-65956000D01*
G75*
G02*
X134661000Y-66096000I-140000J0D01*
G01*
X134381000Y-66096000D01*
G75*
G02*
X134241000Y-65956000I0J140000D01*
G01*
X134241000Y-65616000D01*
G75*
G02*
X134381000Y-65476000I140000J0D01*
G01*
X134661000Y-65476000D01*
G75*
G02*
X134801000Y-65616000I0J-140000D01*
G01*
G37*
G36*
G01*
X135761000Y-65616000D02*
X135761000Y-65956000D01*
G75*
G02*
X135621000Y-66096000I-140000J0D01*
G01*
X135341000Y-66096000D01*
G75*
G02*
X135201000Y-65956000I0J140000D01*
G01*
X135201000Y-65616000D01*
G75*
G02*
X135341000Y-65476000I140000J0D01*
G01*
X135621000Y-65476000D01*
G75*
G02*
X135761000Y-65616000I0J-140000D01*
G01*
G37*
%TD*%
%TO.C,C12*%
G36*
G01*
X128197000Y-62949000D02*
X128197000Y-63289000D01*
G75*
G02*
X128057000Y-63429000I-140000J0D01*
G01*
X127777000Y-63429000D01*
G75*
G02*
X127637000Y-63289000I0J140000D01*
G01*
X127637000Y-62949000D01*
G75*
G02*
X127777000Y-62809000I140000J0D01*
G01*
X128057000Y-62809000D01*
G75*
G02*
X128197000Y-62949000I0J-140000D01*
G01*
G37*
G36*
G01*
X129157000Y-62949000D02*
X129157000Y-63289000D01*
G75*
G02*
X129017000Y-63429000I-140000J0D01*
G01*
X128737000Y-63429000D01*
G75*
G02*
X128597000Y-63289000I0J140000D01*
G01*
X128597000Y-62949000D01*
G75*
G02*
X128737000Y-62809000I140000J0D01*
G01*
X129017000Y-62809000D01*
G75*
G02*
X129157000Y-62949000I0J-140000D01*
G01*
G37*
%TD*%
%TO.C,C11*%
G36*
G01*
X155629000Y-68664000D02*
X155629000Y-69004000D01*
G75*
G02*
X155489000Y-69144000I-140000J0D01*
G01*
X155209000Y-69144000D01*
G75*
G02*
X155069000Y-69004000I0J140000D01*
G01*
X155069000Y-68664000D01*
G75*
G02*
X155209000Y-68524000I140000J0D01*
G01*
X155489000Y-68524000D01*
G75*
G02*
X155629000Y-68664000I0J-140000D01*
G01*
G37*
G36*
G01*
X156589000Y-68664000D02*
X156589000Y-69004000D01*
G75*
G02*
X156449000Y-69144000I-140000J0D01*
G01*
X156169000Y-69144000D01*
G75*
G02*
X156029000Y-69004000I0J140000D01*
G01*
X156029000Y-68664000D01*
G75*
G02*
X156169000Y-68524000I140000J0D01*
G01*
X156449000Y-68524000D01*
G75*
G02*
X156589000Y-68664000I0J-140000D01*
G01*
G37*
%TD*%
%TO.C,C7*%
G36*
G01*
X144853000Y-71163000D02*
X144853000Y-70823000D01*
G75*
G02*
X144993000Y-70683000I140000J0D01*
G01*
X145273000Y-70683000D01*
G75*
G02*
X145413000Y-70823000I0J-140000D01*
G01*
X145413000Y-71163000D01*
G75*
G02*
X145273000Y-71303000I-140000J0D01*
G01*
X144993000Y-71303000D01*
G75*
G02*
X144853000Y-71163000I0J140000D01*
G01*
G37*
G36*
G01*
X143893000Y-71163000D02*
X143893000Y-70823000D01*
G75*
G02*
X144033000Y-70683000I140000J0D01*
G01*
X144313000Y-70683000D01*
G75*
G02*
X144453000Y-70823000I0J-140000D01*
G01*
X144453000Y-71163000D01*
G75*
G02*
X144313000Y-71303000I-140000J0D01*
G01*
X144033000Y-71303000D01*
G75*
G02*
X143893000Y-71163000I0J140000D01*
G01*
G37*
%TD*%
%TO.C,C6*%
G36*
G01*
X137106000Y-78402000D02*
X137106000Y-78062000D01*
G75*
G02*
X137246000Y-77922000I140000J0D01*
G01*
X137526000Y-77922000D01*
G75*
G02*
X137666000Y-78062000I0J-140000D01*
G01*
X137666000Y-78402000D01*
G75*
G02*
X137526000Y-78542000I-140000J0D01*
G01*
X137246000Y-78542000D01*
G75*
G02*
X137106000Y-78402000I0J140000D01*
G01*
G37*
G36*
G01*
X136146000Y-78402000D02*
X136146000Y-78062000D01*
G75*
G02*
X136286000Y-77922000I140000J0D01*
G01*
X136566000Y-77922000D01*
G75*
G02*
X136706000Y-78062000I0J-140000D01*
G01*
X136706000Y-78402000D01*
G75*
G02*
X136566000Y-78542000I-140000J0D01*
G01*
X136286000Y-78542000D01*
G75*
G02*
X136146000Y-78402000I0J140000D01*
G01*
G37*
%TD*%
D35*
%TO.C,J2*%
X132018000Y-71978000D03*
X132018000Y-66198000D03*
D36*
X128338000Y-64768000D03*
X128338000Y-73408000D03*
D37*
X132518000Y-64768000D03*
X132518000Y-73408000D03*
%TD*%
D38*
%TO.C,U1*%
X153985000Y-61806000D03*
X152085000Y-61806000D03*
X152085000Y-59606000D03*
X153035000Y-59606000D03*
X153985000Y-59606000D03*
%TD*%
%TO.C,C5*%
G36*
G01*
X139657000Y-67764000D02*
X139997000Y-67764000D01*
G75*
G02*
X140137000Y-67904000I0J-140000D01*
G01*
X140137000Y-68184000D01*
G75*
G02*
X139997000Y-68324000I-140000J0D01*
G01*
X139657000Y-68324000D01*
G75*
G02*
X139517000Y-68184000I0J140000D01*
G01*
X139517000Y-67904000D01*
G75*
G02*
X139657000Y-67764000I140000J0D01*
G01*
G37*
G36*
G01*
X139657000Y-66804000D02*
X139997000Y-66804000D01*
G75*
G02*
X140137000Y-66944000I0J-140000D01*
G01*
X140137000Y-67224000D01*
G75*
G02*
X139997000Y-67364000I-140000J0D01*
G01*
X139657000Y-67364000D01*
G75*
G02*
X139517000Y-67224000I0J140000D01*
G01*
X139517000Y-66944000D01*
G75*
G02*
X139657000Y-66804000I140000J0D01*
G01*
G37*
%TD*%
%TO.C,C4*%
G36*
G01*
X144834000Y-74506000D02*
X144834000Y-74846000D01*
G75*
G02*
X144694000Y-74986000I-140000J0D01*
G01*
X144414000Y-74986000D01*
G75*
G02*
X144274000Y-74846000I0J140000D01*
G01*
X144274000Y-74506000D01*
G75*
G02*
X144414000Y-74366000I140000J0D01*
G01*
X144694000Y-74366000D01*
G75*
G02*
X144834000Y-74506000I0J-140000D01*
G01*
G37*
G36*
G01*
X145794000Y-74506000D02*
X145794000Y-74846000D01*
G75*
G02*
X145654000Y-74986000I-140000J0D01*
G01*
X145374000Y-74986000D01*
G75*
G02*
X145234000Y-74846000I0J140000D01*
G01*
X145234000Y-74506000D01*
G75*
G02*
X145374000Y-74366000I140000J0D01*
G01*
X145654000Y-74366000D01*
G75*
G02*
X145794000Y-74506000I0J-140000D01*
G01*
G37*
%TD*%
%TO.C,C3*%
G36*
G01*
X139657000Y-65478000D02*
X139997000Y-65478000D01*
G75*
G02*
X140137000Y-65618000I0J-140000D01*
G01*
X140137000Y-65898000D01*
G75*
G02*
X139997000Y-66038000I-140000J0D01*
G01*
X139657000Y-66038000D01*
G75*
G02*
X139517000Y-65898000I0J140000D01*
G01*
X139517000Y-65618000D01*
G75*
G02*
X139657000Y-65478000I140000J0D01*
G01*
G37*
G36*
G01*
X139657000Y-64518000D02*
X139997000Y-64518000D01*
G75*
G02*
X140137000Y-64658000I0J-140000D01*
G01*
X140137000Y-64938000D01*
G75*
G02*
X139997000Y-65078000I-140000J0D01*
G01*
X139657000Y-65078000D01*
G75*
G02*
X139517000Y-64938000I0J140000D01*
G01*
X139517000Y-64658000D01*
G75*
G02*
X139657000Y-64518000I140000J0D01*
G01*
G37*
%TD*%
%TO.C,C2*%
G36*
G01*
X145331000Y-65840000D02*
X144991000Y-65840000D01*
G75*
G02*
X144851000Y-65700000I0J140000D01*
G01*
X144851000Y-65420000D01*
G75*
G02*
X144991000Y-65280000I140000J0D01*
G01*
X145331000Y-65280000D01*
G75*
G02*
X145471000Y-65420000I0J-140000D01*
G01*
X145471000Y-65700000D01*
G75*
G02*
X145331000Y-65840000I-140000J0D01*
G01*
G37*
G36*
G01*
X145331000Y-66800000D02*
X144991000Y-66800000D01*
G75*
G02*
X144851000Y-66660000I0J140000D01*
G01*
X144851000Y-66380000D01*
G75*
G02*
X144991000Y-66240000I140000J0D01*
G01*
X145331000Y-66240000D01*
G75*
G02*
X145471000Y-66380000I0J-140000D01*
G01*
X145471000Y-66660000D01*
G75*
G02*
X145331000Y-66800000I-140000J0D01*
G01*
G37*
%TD*%
M02*
