M48
; DRILL file {KiCad (5.1.10)-1} date 11/20/21 15:05:21
; FORMAT={-:-/ absolute / inch / decimal}
; #@! TF.CreationDate,2021-11-20T15:05:21-05:00
; #@! TF.GenerationSoftware,Kicad,Pcbnew,(5.1.10)-1
; #@! TF.FileFunction,Plated,1,4,PTH
FMAT,2
INCH
T1C0.0098
T2C0.0100
T3C0.0236
T4C0.1181
%
G90
G05
T1
X5.1303Y-2.385
X5.1697Y-2.385
T2
X4.97Y-2.19
X4.97Y-2.22
X4.97Y-2.25
X4.97Y-2.28
X4.985Y-2.015
X4.985Y-2.045
X5.0Y-2.19
X5.0Y-2.22
X5.0Y-2.25
X5.0Y-2.28
X5.005Y-2.485
X5.015Y-2.015
X5.015Y-2.045
X5.045Y-2.015
X5.045Y-2.045
X5.045Y-2.075
X5.045Y-2.105
X5.07Y-2.455
X5.085Y-2.205
X5.085Y-2.24
X5.085Y-2.27
X5.085Y-2.305
X5.1Y-2.34
X5.1Y-2.435
X5.1Y-2.495
X5.105Y-2.625
X5.12Y-2.525
X5.145Y-2.525
X5.145Y-2.9
X5.18Y-2.45
X5.19Y-2.69
X5.19Y-2.725
X5.19Y-2.76
X5.19Y-2.79
X5.23Y-2.475
X5.235Y-2.01
X5.26Y-2.455
X5.275Y-3.01
X5.275Y-3.055
X5.275Y-3.1
X5.275Y-3.145
X5.285Y-2.63
X5.29Y-2.01
X5.3Y-2.915
X5.32Y-2.325
X5.33Y-1.82
X5.335Y-2.27
X5.355Y-1.88
X5.355Y-2.645
X5.355Y-3.055
X5.365Y-2.715
X5.375Y-2.775
X5.385Y-2.195
X5.405Y-3.05
X5.415Y-2.715
X5.42Y-1.795
X5.425Y-1.98
X5.435Y-3.05
X5.44Y-2.045
X5.44Y-2.415
X5.44Y-2.45
X5.45Y-2.02
X5.455Y-3.08
X5.46Y-1.795
X5.47Y-2.465
X5.48Y-1.975
X5.48Y-2.31
X5.485Y-3.08
X5.485Y-3.19
X5.495Y-2.73
X5.495Y-2.825
X5.495Y-2.89
X5.495Y-2.96
X5.505Y-2.285
X5.505Y-2.465
X5.505Y-2.615
X5.525Y-2.73
X5.53Y-1.86
X5.535Y-2.285
X5.54Y-2.165
X5.545Y-2.07
X5.545Y-2.39
X5.555Y-1.975
X5.555Y-2.465
X5.565Y-2.285
X5.565Y-2.825
X5.565Y-2.89
X5.565Y-2.96
X5.57Y-2.165
X5.585Y-2.06
X5.59Y-2.465
X5.595Y-2.285
X5.605Y-2.615
X5.61Y-1.795
X5.61Y-2.06
X5.625Y-2.285
X5.625Y-2.465
X5.625Y-2.535
X5.635Y-2.06
X5.635Y-2.165
X5.635Y-3.0
X5.635Y-3.105
X5.645Y-1.825
X5.65Y-2.835
X5.665Y-2.165
X5.675Y-1.825
X5.675Y-2.765
X5.68Y-2.465
X5.68Y-2.535
X5.695Y-2.165
X5.695Y-2.82
X5.71Y-2.145
X5.735Y-2.3
X5.74Y-1.975
X5.74Y-2.6
X5.74Y-2.645
X5.74Y-2.72
X5.755Y-2.895
X5.76Y-2.93
X5.77Y-1.975
X5.77Y-2.005
X5.77Y-2.085
X5.77Y-2.36
X5.78Y-3.055
X5.785Y-2.84
X5.81Y-2.825
X5.82Y-1.835
X5.825Y-2.05
X5.825Y-2.15
X5.825Y-2.73
X5.84Y-2.57
X5.845Y-2.085
X5.845Y-3.09
X5.85Y-2.235
X5.85Y-2.545
X5.855Y-2.15
X5.865Y-1.99
X5.865Y-2.375
X5.88Y-2.235
X5.88Y-2.405
X5.89Y-1.91
X5.89Y-3.085
X5.895Y-2.07
X5.91Y-2.785
X5.915Y-2.545
X5.92Y-2.17
X5.92Y-3.0
X5.92Y-3.085
X5.935Y-2.0
X5.935Y-2.275
X5.96Y-1.87
X5.96Y-2.17
X5.96Y-2.3
X5.96Y-2.515
X5.975Y-3.095
X5.98Y-2.64
X5.985Y-2.49
X6.0Y-2.0
X6.0Y-2.17
X6.0Y-2.815
X6.005Y-2.515
X6.005Y-2.92
X6.03Y-1.97
X6.03Y-2.0
X6.03Y-2.14
X6.03Y-2.835
X6.045Y-2.725
X6.05Y-2.165
X6.05Y-2.65
X6.055Y-2.86
X6.06Y-3.125
X6.06Y-3.17
X6.06Y-3.215
X6.065Y-2.475
X6.07Y-2.7
X6.07Y-2.795
X6.075Y-2.625
X6.08Y-1.82
X6.08Y-2.165
X6.08Y-2.885
X6.09Y-2.275
X6.095Y-2.04
X6.095Y-2.11
X6.095Y-2.675
X6.095Y-2.77
X6.1Y-2.6
X6.105Y-2.405
X6.105Y-2.91
X6.12Y-2.285
X6.12Y-2.65
X6.12Y-2.745
X6.135Y-2.385
X6.145Y-2.625
X6.15Y-2.91
X6.165Y-2.04
X6.165Y-2.745
X6.17Y-2.53
X6.17Y-2.6
X6.19Y-2.91
X6.195Y-2.505
X6.195Y-2.825
X6.2Y-2.6
X6.22Y-1.985
X6.22Y-2.48
X6.23Y-2.6
X6.23Y-2.635
X6.23Y-2.67
X6.23Y-2.75
X6.23Y-2.785
X6.23Y-2.82
X6.235Y-2.535
X6.235Y-2.91
X6.245Y-2.455
X6.26Y-2.51
X6.27Y-2.4
X6.27Y-2.43
X6.28Y-2.91
X6.285Y-2.485
X6.29Y-2.38
X6.305Y-2.09
X6.305Y-2.13
X6.305Y-2.16
X6.305Y-2.195
X6.305Y-2.225
X6.31Y-2.465
X6.32Y-2.38
X6.36Y-2.41
X6.36Y-2.435
X6.375Y-2.57
X6.375Y-2.85
X6.405Y-2.57
X6.405Y-2.85
X6.415Y-2.005
X6.415Y-2.1
X6.435Y-2.57
X6.435Y-2.85
T4
X5.1Y-1.9
X5.1Y-3.1
X6.3Y-1.9
X6.3Y-3.1
T3
G00X5.0409Y-2.5499
M15
G01X5.0645Y-2.5499
M16
G05
G00X5.0409Y-2.8901
M15
G01X5.0645Y-2.8901
M16
G05
G00X5.1956Y-2.5499
M15
G01X5.2389Y-2.5499
M16
G05
G00X5.1956Y-2.8901
M15
G01X5.2389Y-2.8901
M16
G05
T0
M30
