%TF.GenerationSoftware,KiCad,Pcbnew,(5.1.10)-1*%
%TF.CreationDate,2021-11-06T19:36:26-04:00*%
%TF.ProjectId,MicroMod_Extension,4d696372-6f4d-46f6-945f-457874656e73,rev?*%
%TF.SameCoordinates,Original*%
%TF.FileFunction,Legend,Bot*%
%TF.FilePolarity,Positive*%
%FSLAX46Y46*%
G04 Gerber Fmt 4.6, Leading zero omitted, Abs format (unit mm)*
G04 Created by KiCad (PCBNEW (5.1.10)-1) date 2021-11-06 19:36:26*
%MOMM*%
%LPD*%
G01*
G04 APERTURE LIST*
%ADD10C,0.500000*%
%ADD11C,0.127000*%
%ADD12C,0.200000*%
%ADD13C,0.120000*%
%ADD14C,0.150000*%
G04 APERTURE END LIST*
D10*
X156337143Y-74287143D02*
X158622856Y-75144285D01*
X156337143Y-76001428D01*
D11*
%TO.C,J1*%
X149731000Y-48830000D02*
X148131000Y-48830000D01*
X135431000Y-51180000D02*
X135431000Y-53280000D01*
X135431000Y-56580000D02*
X135431000Y-54980000D01*
X136831000Y-56580000D02*
X135431000Y-56580000D01*
X149931000Y-56580000D02*
X148431000Y-56580000D01*
X157431000Y-56580000D02*
X155931000Y-56580000D01*
X157431000Y-51180000D02*
X157431000Y-56580000D01*
D12*
X155781000Y-47711000D02*
G75*
G03*
X155781000Y-47711000I-100000J0D01*
G01*
D13*
%TO.C,J7*%
X141748000Y-80462000D02*
X141748000Y-79562000D01*
X141748000Y-79562000D02*
X140898000Y-79562000D01*
X140898000Y-79562000D02*
X140898000Y-79262000D01*
X140898000Y-79262000D02*
X140648000Y-79262000D01*
X140648000Y-79262000D02*
X140648000Y-79122000D01*
X136128000Y-80462000D02*
X136128000Y-79562000D01*
X136128000Y-79562000D02*
X136978000Y-79562000D01*
X136978000Y-79562000D02*
X136978000Y-79262000D01*
X136978000Y-79262000D02*
X137228000Y-79262000D01*
X140578000Y-82182000D02*
X137298000Y-82182000D01*
X140388000Y-78268447D02*
X140138000Y-78622000D01*
X140138000Y-78622000D02*
X139888000Y-78268447D01*
X139888000Y-78268447D02*
X140388000Y-78268447D01*
%TO.C,J6*%
X163389000Y-59501000D02*
X163389000Y-53021000D01*
X161169000Y-51851000D02*
X161169000Y-52951000D01*
X161619000Y-51851000D02*
X161169000Y-51851000D01*
X161169000Y-59571000D02*
X160779000Y-59571000D01*
X161169000Y-60671000D02*
X161169000Y-59571000D01*
X161619000Y-60671000D02*
X161169000Y-60671000D01*
%TO.C,J5*%
X126171000Y-54037000D02*
X126171000Y-60517000D01*
X128391000Y-61687000D02*
X128391000Y-60587000D01*
X127941000Y-61687000D02*
X128391000Y-61687000D01*
X128391000Y-53967000D02*
X128781000Y-53967000D01*
X128391000Y-52867000D02*
X128391000Y-53967000D01*
X127941000Y-52867000D02*
X128391000Y-52867000D01*
%TO.C,J9*%
X159421447Y-71694000D02*
X159421447Y-71194000D01*
X159775000Y-71444000D02*
X159421447Y-71694000D01*
X159421447Y-71194000D02*
X159775000Y-71444000D01*
X163335000Y-71004000D02*
X163335000Y-74284000D01*
X160415000Y-74604000D02*
X160415000Y-74354000D01*
X160715000Y-74604000D02*
X160415000Y-74604000D01*
X160715000Y-75454000D02*
X160715000Y-74604000D01*
X161615000Y-75454000D02*
X160715000Y-75454000D01*
X160415000Y-70934000D02*
X160275000Y-70934000D01*
X160415000Y-70684000D02*
X160415000Y-70934000D01*
X160715000Y-70684000D02*
X160415000Y-70684000D01*
X160715000Y-69834000D02*
X160715000Y-70684000D01*
X161615000Y-69834000D02*
X160715000Y-69834000D01*
%TO.C,J8*%
X159421447Y-64201000D02*
X159421447Y-63701000D01*
X159775000Y-63951000D02*
X159421447Y-64201000D01*
X159421447Y-63701000D02*
X159775000Y-63951000D01*
X163335000Y-63511000D02*
X163335000Y-66791000D01*
X160415000Y-67111000D02*
X160415000Y-66861000D01*
X160715000Y-67111000D02*
X160415000Y-67111000D01*
X160715000Y-67961000D02*
X160715000Y-67111000D01*
X161615000Y-67961000D02*
X160715000Y-67961000D01*
X160415000Y-63441000D02*
X160275000Y-63441000D01*
X160415000Y-63191000D02*
X160415000Y-63441000D01*
X160715000Y-63191000D02*
X160415000Y-63191000D01*
X160715000Y-62341000D02*
X160715000Y-63191000D01*
X161615000Y-62341000D02*
X160715000Y-62341000D01*
%TO.C,J4*%
X150937000Y-78268447D02*
X151437000Y-78268447D01*
X151187000Y-78622000D02*
X150937000Y-78268447D01*
X151437000Y-78268447D02*
X151187000Y-78622000D01*
X151627000Y-82182000D02*
X148347000Y-82182000D01*
X148027000Y-79262000D02*
X148277000Y-79262000D01*
X148027000Y-79562000D02*
X148027000Y-79262000D01*
X147177000Y-79562000D02*
X148027000Y-79562000D01*
X147177000Y-80462000D02*
X147177000Y-79562000D01*
X151697000Y-79262000D02*
X151697000Y-79122000D01*
X151947000Y-79262000D02*
X151697000Y-79262000D01*
X151947000Y-79562000D02*
X151947000Y-79262000D01*
X152797000Y-79562000D02*
X151947000Y-79562000D01*
X152797000Y-80462000D02*
X152797000Y-79562000D01*
%TO.C,R13*%
X147194000Y-71982359D02*
X147194000Y-72289641D01*
X147954000Y-71982359D02*
X147954000Y-72289641D01*
%TO.C,R7*%
X138403359Y-66674000D02*
X138710641Y-66674000D01*
X138403359Y-65914000D02*
X138710641Y-65914000D01*
%TO.C,R6*%
X136371359Y-66674000D02*
X136678641Y-66674000D01*
X136371359Y-65914000D02*
X136678641Y-65914000D01*
%TO.C,D5*%
X134985000Y-79847000D02*
X132985000Y-79847000D01*
X132985000Y-79847000D02*
X132985000Y-75947000D01*
X134985000Y-79847000D02*
X134985000Y-75947000D01*
%TO.C,C17*%
X145944000Y-72028164D02*
X145944000Y-72243836D01*
X146664000Y-72028164D02*
X146664000Y-72243836D01*
%TO.C,C12*%
X131210164Y-54843000D02*
X131425836Y-54843000D01*
X131210164Y-54123000D02*
X131425836Y-54123000D01*
%TO.C,C9*%
X138068164Y-46715000D02*
X138283836Y-46715000D01*
X138068164Y-45995000D02*
X138283836Y-45995000D01*
%TO.C,J2*%
X131263000Y-73668000D02*
X129343000Y-73668000D01*
X129343000Y-64508000D02*
X131263000Y-64508000D01*
X127333000Y-64508000D02*
X125628000Y-64508000D01*
X125628000Y-73668000D02*
X127333000Y-73668000D01*
X125628000Y-64508000D02*
X125628000Y-73668000D01*
%TO.C,R13*%
D14*
X147918714Y-69487142D02*
X147555857Y-69233142D01*
X147918714Y-69051714D02*
X147156714Y-69051714D01*
X147156714Y-69342000D01*
X147193000Y-69414571D01*
X147229285Y-69450857D01*
X147301857Y-69487142D01*
X147410714Y-69487142D01*
X147483285Y-69450857D01*
X147519571Y-69414571D01*
X147555857Y-69342000D01*
X147555857Y-69051714D01*
X147918714Y-70212857D02*
X147918714Y-69777428D01*
X147918714Y-69995142D02*
X147156714Y-69995142D01*
X147265571Y-69922571D01*
X147338142Y-69850000D01*
X147374428Y-69777428D01*
X147156714Y-70466857D02*
X147156714Y-70938571D01*
X147447000Y-70684571D01*
X147447000Y-70793428D01*
X147483285Y-70866000D01*
X147519571Y-70902285D01*
X147592142Y-70938571D01*
X147773571Y-70938571D01*
X147846142Y-70902285D01*
X147882428Y-70866000D01*
X147918714Y-70793428D01*
X147918714Y-70575714D01*
X147882428Y-70503142D01*
X147846142Y-70466857D01*
%TO.C,R7*%
X138684000Y-67808714D02*
X138938000Y-67445857D01*
X139119428Y-67808714D02*
X139119428Y-67046714D01*
X138829142Y-67046714D01*
X138756571Y-67083000D01*
X138720285Y-67119285D01*
X138684000Y-67191857D01*
X138684000Y-67300714D01*
X138720285Y-67373285D01*
X138756571Y-67409571D01*
X138829142Y-67445857D01*
X139119428Y-67445857D01*
X138430000Y-67046714D02*
X137922000Y-67046714D01*
X138248571Y-67808714D01*
%TO.C,R6*%
X136652000Y-67808714D02*
X136906000Y-67445857D01*
X137087428Y-67808714D02*
X137087428Y-67046714D01*
X136797142Y-67046714D01*
X136724571Y-67083000D01*
X136688285Y-67119285D01*
X136652000Y-67191857D01*
X136652000Y-67300714D01*
X136688285Y-67373285D01*
X136724571Y-67409571D01*
X136797142Y-67445857D01*
X137087428Y-67445857D01*
X135998857Y-67046714D02*
X136144000Y-67046714D01*
X136216571Y-67083000D01*
X136252857Y-67119285D01*
X136325428Y-67228142D01*
X136361714Y-67373285D01*
X136361714Y-67663571D01*
X136325428Y-67736142D01*
X136289142Y-67772428D01*
X136216571Y-67808714D01*
X136071428Y-67808714D01*
X135998857Y-67772428D01*
X135962571Y-67736142D01*
X135926285Y-67663571D01*
X135926285Y-67482142D01*
X135962571Y-67409571D01*
X135998857Y-67373285D01*
X136071428Y-67337000D01*
X136216571Y-67337000D01*
X136289142Y-67373285D01*
X136325428Y-67409571D01*
X136361714Y-67482142D01*
%TO.C,D5*%
X136329714Y-77034571D02*
X135567714Y-77034571D01*
X135567714Y-77216000D01*
X135604000Y-77324857D01*
X135676571Y-77397428D01*
X135749142Y-77433714D01*
X135894285Y-77470000D01*
X136003142Y-77470000D01*
X136148285Y-77433714D01*
X136220857Y-77397428D01*
X136293428Y-77324857D01*
X136329714Y-77216000D01*
X136329714Y-77034571D01*
X135567714Y-78159428D02*
X135567714Y-77796571D01*
X135930571Y-77760285D01*
X135894285Y-77796571D01*
X135858000Y-77869142D01*
X135858000Y-78050571D01*
X135894285Y-78123142D01*
X135930571Y-78159428D01*
X136003142Y-78195714D01*
X136184571Y-78195714D01*
X136257142Y-78159428D01*
X136293428Y-78123142D01*
X136329714Y-78050571D01*
X136329714Y-77869142D01*
X136293428Y-77796571D01*
X136257142Y-77760285D01*
%TO.C,C17*%
X146703142Y-69487142D02*
X146739428Y-69450857D01*
X146775714Y-69342000D01*
X146775714Y-69269428D01*
X146739428Y-69160571D01*
X146666857Y-69088000D01*
X146594285Y-69051714D01*
X146449142Y-69015428D01*
X146340285Y-69015428D01*
X146195142Y-69051714D01*
X146122571Y-69088000D01*
X146050000Y-69160571D01*
X146013714Y-69269428D01*
X146013714Y-69342000D01*
X146050000Y-69450857D01*
X146086285Y-69487142D01*
X146775714Y-70212857D02*
X146775714Y-69777428D01*
X146775714Y-69995142D02*
X146013714Y-69995142D01*
X146122571Y-69922571D01*
X146195142Y-69850000D01*
X146231428Y-69777428D01*
X146013714Y-70466857D02*
X146013714Y-70974857D01*
X146775714Y-70648285D01*
%TO.C,C12*%
X134093857Y-54755142D02*
X134130142Y-54791428D01*
X134239000Y-54827714D01*
X134311571Y-54827714D01*
X134420428Y-54791428D01*
X134493000Y-54718857D01*
X134529285Y-54646285D01*
X134565571Y-54501142D01*
X134565571Y-54392285D01*
X134529285Y-54247142D01*
X134493000Y-54174571D01*
X134420428Y-54102000D01*
X134311571Y-54065714D01*
X134239000Y-54065714D01*
X134130142Y-54102000D01*
X134093857Y-54138285D01*
X133368142Y-54827714D02*
X133803571Y-54827714D01*
X133585857Y-54827714D02*
X133585857Y-54065714D01*
X133658428Y-54174571D01*
X133731000Y-54247142D01*
X133803571Y-54283428D01*
X133077857Y-54138285D02*
X133041571Y-54102000D01*
X132969000Y-54065714D01*
X132787571Y-54065714D01*
X132715000Y-54102000D01*
X132678714Y-54138285D01*
X132642428Y-54210857D01*
X132642428Y-54283428D01*
X132678714Y-54392285D01*
X133114142Y-54827714D01*
X132642428Y-54827714D01*
%TO.C,C9*%
X136525000Y-46627142D02*
X136561285Y-46663428D01*
X136670142Y-46699714D01*
X136742714Y-46699714D01*
X136851571Y-46663428D01*
X136924142Y-46590857D01*
X136960428Y-46518285D01*
X136996714Y-46373142D01*
X136996714Y-46264285D01*
X136960428Y-46119142D01*
X136924142Y-46046571D01*
X136851571Y-45974000D01*
X136742714Y-45937714D01*
X136670142Y-45937714D01*
X136561285Y-45974000D01*
X136525000Y-46010285D01*
X136162142Y-46699714D02*
X136017000Y-46699714D01*
X135944428Y-46663428D01*
X135908142Y-46627142D01*
X135835571Y-46518285D01*
X135799285Y-46373142D01*
X135799285Y-46082857D01*
X135835571Y-46010285D01*
X135871857Y-45974000D01*
X135944428Y-45937714D01*
X136089571Y-45937714D01*
X136162142Y-45974000D01*
X136198428Y-46010285D01*
X136234714Y-46082857D01*
X136234714Y-46264285D01*
X136198428Y-46336857D01*
X136162142Y-46373142D01*
X136089571Y-46409428D01*
X135944428Y-46409428D01*
X135871857Y-46373142D01*
X135835571Y-46336857D01*
X135799285Y-46264285D01*
%TD*%
M02*
