%TF.GenerationSoftware,KiCad,Pcbnew,(5.1.10)-1*%
%TF.CreationDate,2021-11-06T19:36:26-04:00*%
%TF.ProjectId,MicroMod_Extension,4d696372-6f4d-46f6-945f-457874656e73,rev?*%
%TF.SameCoordinates,Original*%
%TF.FileFunction,Paste,Bot*%
%TF.FilePolarity,Positive*%
%FSLAX46Y46*%
G04 Gerber Fmt 4.6, Leading zero omitted, Abs format (unit mm)*
G04 Created by KiCad (PCBNEW (5.1.10)-1) date 2021-11-06 19:36:26*
%MOMM*%
%LPD*%
G01*
G04 APERTURE LIST*
%ADD10C,0.100000*%
%ADD11R,1.200000X0.900000*%
%ADD12R,1.150000X0.300000*%
G04 APERTURE END LIST*
%TO.C,J1*%
G36*
G01*
X137331000Y-48036000D02*
X137331000Y-49574000D01*
G75*
G02*
X137325000Y-49580000I-6000J0D01*
G01*
X137037000Y-49580000D01*
G75*
G02*
X137031000Y-49574000I0J6000D01*
G01*
X137031000Y-48036000D01*
G75*
G02*
X137037000Y-48030000I6000J0D01*
G01*
X137325000Y-48030000D01*
G75*
G02*
X137331000Y-48036000I0J-6000D01*
G01*
G37*
G36*
G01*
X137581000Y-55586000D02*
X137581000Y-57124000D01*
G75*
G02*
X137575000Y-57130000I-6000J0D01*
G01*
X137287000Y-57130000D01*
G75*
G02*
X137281000Y-57124000I0J6000D01*
G01*
X137281000Y-55586000D01*
G75*
G02*
X137287000Y-55580000I6000J0D01*
G01*
X137575000Y-55580000D01*
G75*
G02*
X137581000Y-55586000I0J-6000D01*
G01*
G37*
G36*
G01*
X137831000Y-48036000D02*
X137831000Y-49574000D01*
G75*
G02*
X137825000Y-49580000I-6000J0D01*
G01*
X137537000Y-49580000D01*
G75*
G02*
X137531000Y-49574000I0J6000D01*
G01*
X137531000Y-48036000D01*
G75*
G02*
X137537000Y-48030000I6000J0D01*
G01*
X137825000Y-48030000D01*
G75*
G02*
X137831000Y-48036000I0J-6000D01*
G01*
G37*
G36*
G01*
X138081000Y-55586000D02*
X138081000Y-57124000D01*
G75*
G02*
X138075000Y-57130000I-6000J0D01*
G01*
X137787000Y-57130000D01*
G75*
G02*
X137781000Y-57124000I0J6000D01*
G01*
X137781000Y-55586000D01*
G75*
G02*
X137787000Y-55580000I6000J0D01*
G01*
X138075000Y-55580000D01*
G75*
G02*
X138081000Y-55586000I0J-6000D01*
G01*
G37*
G36*
G01*
X138331000Y-48036000D02*
X138331000Y-49574000D01*
G75*
G02*
X138325000Y-49580000I-6000J0D01*
G01*
X138037000Y-49580000D01*
G75*
G02*
X138031000Y-49574000I0J6000D01*
G01*
X138031000Y-48036000D01*
G75*
G02*
X138037000Y-48030000I6000J0D01*
G01*
X138325000Y-48030000D01*
G75*
G02*
X138331000Y-48036000I0J-6000D01*
G01*
G37*
G36*
G01*
X138581000Y-55586000D02*
X138581000Y-57124000D01*
G75*
G02*
X138575000Y-57130000I-6000J0D01*
G01*
X138287000Y-57130000D01*
G75*
G02*
X138281000Y-57124000I0J6000D01*
G01*
X138281000Y-55586000D01*
G75*
G02*
X138287000Y-55580000I6000J0D01*
G01*
X138575000Y-55580000D01*
G75*
G02*
X138581000Y-55586000I0J-6000D01*
G01*
G37*
G36*
G01*
X138831000Y-48036000D02*
X138831000Y-49574000D01*
G75*
G02*
X138825000Y-49580000I-6000J0D01*
G01*
X138537000Y-49580000D01*
G75*
G02*
X138531000Y-49574000I0J6000D01*
G01*
X138531000Y-48036000D01*
G75*
G02*
X138537000Y-48030000I6000J0D01*
G01*
X138825000Y-48030000D01*
G75*
G02*
X138831000Y-48036000I0J-6000D01*
G01*
G37*
G36*
G01*
X139081000Y-55586000D02*
X139081000Y-57124000D01*
G75*
G02*
X139075000Y-57130000I-6000J0D01*
G01*
X138787000Y-57130000D01*
G75*
G02*
X138781000Y-57124000I0J6000D01*
G01*
X138781000Y-55586000D01*
G75*
G02*
X138787000Y-55580000I6000J0D01*
G01*
X139075000Y-55580000D01*
G75*
G02*
X139081000Y-55586000I0J-6000D01*
G01*
G37*
G36*
G01*
X139331000Y-48036000D02*
X139331000Y-49574000D01*
G75*
G02*
X139325000Y-49580000I-6000J0D01*
G01*
X139037000Y-49580000D01*
G75*
G02*
X139031000Y-49574000I0J6000D01*
G01*
X139031000Y-48036000D01*
G75*
G02*
X139037000Y-48030000I6000J0D01*
G01*
X139325000Y-48030000D01*
G75*
G02*
X139331000Y-48036000I0J-6000D01*
G01*
G37*
G36*
G01*
X139581000Y-55586000D02*
X139581000Y-57124000D01*
G75*
G02*
X139575000Y-57130000I-6000J0D01*
G01*
X139287000Y-57130000D01*
G75*
G02*
X139281000Y-57124000I0J6000D01*
G01*
X139281000Y-55586000D01*
G75*
G02*
X139287000Y-55580000I6000J0D01*
G01*
X139575000Y-55580000D01*
G75*
G02*
X139581000Y-55586000I0J-6000D01*
G01*
G37*
G36*
G01*
X139831000Y-48036000D02*
X139831000Y-49574000D01*
G75*
G02*
X139825000Y-49580000I-6000J0D01*
G01*
X139537000Y-49580000D01*
G75*
G02*
X139531000Y-49574000I0J6000D01*
G01*
X139531000Y-48036000D01*
G75*
G02*
X139537000Y-48030000I6000J0D01*
G01*
X139825000Y-48030000D01*
G75*
G02*
X139831000Y-48036000I0J-6000D01*
G01*
G37*
G36*
G01*
X140081000Y-55586000D02*
X140081000Y-57124000D01*
G75*
G02*
X140075000Y-57130000I-6000J0D01*
G01*
X139787000Y-57130000D01*
G75*
G02*
X139781000Y-57124000I0J6000D01*
G01*
X139781000Y-55586000D01*
G75*
G02*
X139787000Y-55580000I6000J0D01*
G01*
X140075000Y-55580000D01*
G75*
G02*
X140081000Y-55586000I0J-6000D01*
G01*
G37*
G36*
G01*
X140331000Y-48036000D02*
X140331000Y-49574000D01*
G75*
G02*
X140325000Y-49580000I-6000J0D01*
G01*
X140037000Y-49580000D01*
G75*
G02*
X140031000Y-49574000I0J6000D01*
G01*
X140031000Y-48036000D01*
G75*
G02*
X140037000Y-48030000I6000J0D01*
G01*
X140325000Y-48030000D01*
G75*
G02*
X140331000Y-48036000I0J-6000D01*
G01*
G37*
G36*
G01*
X140581000Y-55586000D02*
X140581000Y-57124000D01*
G75*
G02*
X140575000Y-57130000I-6000J0D01*
G01*
X140287000Y-57130000D01*
G75*
G02*
X140281000Y-57124000I0J6000D01*
G01*
X140281000Y-55586000D01*
G75*
G02*
X140287000Y-55580000I6000J0D01*
G01*
X140575000Y-55580000D01*
G75*
G02*
X140581000Y-55586000I0J-6000D01*
G01*
G37*
G36*
G01*
X140831000Y-48036000D02*
X140831000Y-49574000D01*
G75*
G02*
X140825000Y-49580000I-6000J0D01*
G01*
X140537000Y-49580000D01*
G75*
G02*
X140531000Y-49574000I0J6000D01*
G01*
X140531000Y-48036000D01*
G75*
G02*
X140537000Y-48030000I6000J0D01*
G01*
X140825000Y-48030000D01*
G75*
G02*
X140831000Y-48036000I0J-6000D01*
G01*
G37*
G36*
G01*
X141081000Y-55586000D02*
X141081000Y-57124000D01*
G75*
G02*
X141075000Y-57130000I-6000J0D01*
G01*
X140787000Y-57130000D01*
G75*
G02*
X140781000Y-57124000I0J6000D01*
G01*
X140781000Y-55586000D01*
G75*
G02*
X140787000Y-55580000I6000J0D01*
G01*
X141075000Y-55580000D01*
G75*
G02*
X141081000Y-55586000I0J-6000D01*
G01*
G37*
G36*
G01*
X141331000Y-48036000D02*
X141331000Y-49574000D01*
G75*
G02*
X141325000Y-49580000I-6000J0D01*
G01*
X141037000Y-49580000D01*
G75*
G02*
X141031000Y-49574000I0J6000D01*
G01*
X141031000Y-48036000D01*
G75*
G02*
X141037000Y-48030000I6000J0D01*
G01*
X141325000Y-48030000D01*
G75*
G02*
X141331000Y-48036000I0J-6000D01*
G01*
G37*
G36*
G01*
X141581000Y-55586000D02*
X141581000Y-57124000D01*
G75*
G02*
X141575000Y-57130000I-6000J0D01*
G01*
X141287000Y-57130000D01*
G75*
G02*
X141281000Y-57124000I0J6000D01*
G01*
X141281000Y-55586000D01*
G75*
G02*
X141287000Y-55580000I6000J0D01*
G01*
X141575000Y-55580000D01*
G75*
G02*
X141581000Y-55586000I0J-6000D01*
G01*
G37*
G36*
G01*
X141831000Y-48036000D02*
X141831000Y-49574000D01*
G75*
G02*
X141825000Y-49580000I-6000J0D01*
G01*
X141537000Y-49580000D01*
G75*
G02*
X141531000Y-49574000I0J6000D01*
G01*
X141531000Y-48036000D01*
G75*
G02*
X141537000Y-48030000I6000J0D01*
G01*
X141825000Y-48030000D01*
G75*
G02*
X141831000Y-48036000I0J-6000D01*
G01*
G37*
G36*
G01*
X142081000Y-55586000D02*
X142081000Y-57124000D01*
G75*
G02*
X142075000Y-57130000I-6000J0D01*
G01*
X141787000Y-57130000D01*
G75*
G02*
X141781000Y-57124000I0J6000D01*
G01*
X141781000Y-55586000D01*
G75*
G02*
X141787000Y-55580000I6000J0D01*
G01*
X142075000Y-55580000D01*
G75*
G02*
X142081000Y-55586000I0J-6000D01*
G01*
G37*
G36*
G01*
X142331000Y-48036000D02*
X142331000Y-49574000D01*
G75*
G02*
X142325000Y-49580000I-6000J0D01*
G01*
X142037000Y-49580000D01*
G75*
G02*
X142031000Y-49574000I0J6000D01*
G01*
X142031000Y-48036000D01*
G75*
G02*
X142037000Y-48030000I6000J0D01*
G01*
X142325000Y-48030000D01*
G75*
G02*
X142331000Y-48036000I0J-6000D01*
G01*
G37*
G36*
G01*
X142581000Y-55586000D02*
X142581000Y-57124000D01*
G75*
G02*
X142575000Y-57130000I-6000J0D01*
G01*
X142287000Y-57130000D01*
G75*
G02*
X142281000Y-57124000I0J6000D01*
G01*
X142281000Y-55586000D01*
G75*
G02*
X142287000Y-55580000I6000J0D01*
G01*
X142575000Y-55580000D01*
G75*
G02*
X142581000Y-55586000I0J-6000D01*
G01*
G37*
G36*
G01*
X142831000Y-48036000D02*
X142831000Y-49574000D01*
G75*
G02*
X142825000Y-49580000I-6000J0D01*
G01*
X142537000Y-49580000D01*
G75*
G02*
X142531000Y-49574000I0J6000D01*
G01*
X142531000Y-48036000D01*
G75*
G02*
X142537000Y-48030000I6000J0D01*
G01*
X142825000Y-48030000D01*
G75*
G02*
X142831000Y-48036000I0J-6000D01*
G01*
G37*
G36*
G01*
X143081000Y-55586000D02*
X143081000Y-57124000D01*
G75*
G02*
X143075000Y-57130000I-6000J0D01*
G01*
X142787000Y-57130000D01*
G75*
G02*
X142781000Y-57124000I0J6000D01*
G01*
X142781000Y-55586000D01*
G75*
G02*
X142787000Y-55580000I6000J0D01*
G01*
X143075000Y-55580000D01*
G75*
G02*
X143081000Y-55586000I0J-6000D01*
G01*
G37*
G36*
G01*
X143331000Y-48036000D02*
X143331000Y-49574000D01*
G75*
G02*
X143325000Y-49580000I-6000J0D01*
G01*
X143037000Y-49580000D01*
G75*
G02*
X143031000Y-49574000I0J6000D01*
G01*
X143031000Y-48036000D01*
G75*
G02*
X143037000Y-48030000I6000J0D01*
G01*
X143325000Y-48030000D01*
G75*
G02*
X143331000Y-48036000I0J-6000D01*
G01*
G37*
G36*
G01*
X143581000Y-55586000D02*
X143581000Y-57124000D01*
G75*
G02*
X143575000Y-57130000I-6000J0D01*
G01*
X143287000Y-57130000D01*
G75*
G02*
X143281000Y-57124000I0J6000D01*
G01*
X143281000Y-55586000D01*
G75*
G02*
X143287000Y-55580000I6000J0D01*
G01*
X143575000Y-55580000D01*
G75*
G02*
X143581000Y-55586000I0J-6000D01*
G01*
G37*
G36*
G01*
X143831000Y-48036000D02*
X143831000Y-49574000D01*
G75*
G02*
X143825000Y-49580000I-6000J0D01*
G01*
X143537000Y-49580000D01*
G75*
G02*
X143531000Y-49574000I0J6000D01*
G01*
X143531000Y-48036000D01*
G75*
G02*
X143537000Y-48030000I6000J0D01*
G01*
X143825000Y-48030000D01*
G75*
G02*
X143831000Y-48036000I0J-6000D01*
G01*
G37*
G36*
G01*
X144081000Y-55586000D02*
X144081000Y-57124000D01*
G75*
G02*
X144075000Y-57130000I-6000J0D01*
G01*
X143787000Y-57130000D01*
G75*
G02*
X143781000Y-57124000I0J6000D01*
G01*
X143781000Y-55586000D01*
G75*
G02*
X143787000Y-55580000I6000J0D01*
G01*
X144075000Y-55580000D01*
G75*
G02*
X144081000Y-55586000I0J-6000D01*
G01*
G37*
G36*
G01*
X144331000Y-48036000D02*
X144331000Y-49574000D01*
G75*
G02*
X144325000Y-49580000I-6000J0D01*
G01*
X144037000Y-49580000D01*
G75*
G02*
X144031000Y-49574000I0J6000D01*
G01*
X144031000Y-48036000D01*
G75*
G02*
X144037000Y-48030000I6000J0D01*
G01*
X144325000Y-48030000D01*
G75*
G02*
X144331000Y-48036000I0J-6000D01*
G01*
G37*
G36*
G01*
X144581000Y-55586000D02*
X144581000Y-57124000D01*
G75*
G02*
X144575000Y-57130000I-6000J0D01*
G01*
X144287000Y-57130000D01*
G75*
G02*
X144281000Y-57124000I0J6000D01*
G01*
X144281000Y-55586000D01*
G75*
G02*
X144287000Y-55580000I6000J0D01*
G01*
X144575000Y-55580000D01*
G75*
G02*
X144581000Y-55586000I0J-6000D01*
G01*
G37*
G36*
G01*
X144831000Y-48036000D02*
X144831000Y-49574000D01*
G75*
G02*
X144825000Y-49580000I-6000J0D01*
G01*
X144537000Y-49580000D01*
G75*
G02*
X144531000Y-49574000I0J6000D01*
G01*
X144531000Y-48036000D01*
G75*
G02*
X144537000Y-48030000I6000J0D01*
G01*
X144825000Y-48030000D01*
G75*
G02*
X144831000Y-48036000I0J-6000D01*
G01*
G37*
G36*
G01*
X145081000Y-55586000D02*
X145081000Y-57124000D01*
G75*
G02*
X145075000Y-57130000I-6000J0D01*
G01*
X144787000Y-57130000D01*
G75*
G02*
X144781000Y-57124000I0J6000D01*
G01*
X144781000Y-55586000D01*
G75*
G02*
X144787000Y-55580000I6000J0D01*
G01*
X145075000Y-55580000D01*
G75*
G02*
X145081000Y-55586000I0J-6000D01*
G01*
G37*
G36*
G01*
X145331000Y-48036000D02*
X145331000Y-49574000D01*
G75*
G02*
X145325000Y-49580000I-6000J0D01*
G01*
X145037000Y-49580000D01*
G75*
G02*
X145031000Y-49574000I0J6000D01*
G01*
X145031000Y-48036000D01*
G75*
G02*
X145037000Y-48030000I6000J0D01*
G01*
X145325000Y-48030000D01*
G75*
G02*
X145331000Y-48036000I0J-6000D01*
G01*
G37*
G36*
G01*
X145581000Y-55586000D02*
X145581000Y-57124000D01*
G75*
G02*
X145575000Y-57130000I-6000J0D01*
G01*
X145287000Y-57130000D01*
G75*
G02*
X145281000Y-57124000I0J6000D01*
G01*
X145281000Y-55586000D01*
G75*
G02*
X145287000Y-55580000I6000J0D01*
G01*
X145575000Y-55580000D01*
G75*
G02*
X145581000Y-55586000I0J-6000D01*
G01*
G37*
G36*
G01*
X145831000Y-48036000D02*
X145831000Y-49574000D01*
G75*
G02*
X145825000Y-49580000I-6000J0D01*
G01*
X145537000Y-49580000D01*
G75*
G02*
X145531000Y-49574000I0J6000D01*
G01*
X145531000Y-48036000D01*
G75*
G02*
X145537000Y-48030000I6000J0D01*
G01*
X145825000Y-48030000D01*
G75*
G02*
X145831000Y-48036000I0J-6000D01*
G01*
G37*
G36*
G01*
X146081000Y-55586000D02*
X146081000Y-57124000D01*
G75*
G02*
X146075000Y-57130000I-6000J0D01*
G01*
X145787000Y-57130000D01*
G75*
G02*
X145781000Y-57124000I0J6000D01*
G01*
X145781000Y-55586000D01*
G75*
G02*
X145787000Y-55580000I6000J0D01*
G01*
X146075000Y-55580000D01*
G75*
G02*
X146081000Y-55586000I0J-6000D01*
G01*
G37*
G36*
G01*
X146331000Y-48036000D02*
X146331000Y-49574000D01*
G75*
G02*
X146325000Y-49580000I-6000J0D01*
G01*
X146037000Y-49580000D01*
G75*
G02*
X146031000Y-49574000I0J6000D01*
G01*
X146031000Y-48036000D01*
G75*
G02*
X146037000Y-48030000I6000J0D01*
G01*
X146325000Y-48030000D01*
G75*
G02*
X146331000Y-48036000I0J-6000D01*
G01*
G37*
G36*
G01*
X146581000Y-55586000D02*
X146581000Y-57124000D01*
G75*
G02*
X146575000Y-57130000I-6000J0D01*
G01*
X146287000Y-57130000D01*
G75*
G02*
X146281000Y-57124000I0J6000D01*
G01*
X146281000Y-55586000D01*
G75*
G02*
X146287000Y-55580000I6000J0D01*
G01*
X146575000Y-55580000D01*
G75*
G02*
X146581000Y-55586000I0J-6000D01*
G01*
G37*
G36*
G01*
X146831000Y-48036000D02*
X146831000Y-49574000D01*
G75*
G02*
X146825000Y-49580000I-6000J0D01*
G01*
X146537000Y-49580000D01*
G75*
G02*
X146531000Y-49574000I0J6000D01*
G01*
X146531000Y-48036000D01*
G75*
G02*
X146537000Y-48030000I6000J0D01*
G01*
X146825000Y-48030000D01*
G75*
G02*
X146831000Y-48036000I0J-6000D01*
G01*
G37*
G36*
G01*
X147081000Y-55586000D02*
X147081000Y-57124000D01*
G75*
G02*
X147075000Y-57130000I-6000J0D01*
G01*
X146787000Y-57130000D01*
G75*
G02*
X146781000Y-57124000I0J6000D01*
G01*
X146781000Y-55586000D01*
G75*
G02*
X146787000Y-55580000I6000J0D01*
G01*
X147075000Y-55580000D01*
G75*
G02*
X147081000Y-55586000I0J-6000D01*
G01*
G37*
G36*
G01*
X147331000Y-48036000D02*
X147331000Y-49574000D01*
G75*
G02*
X147325000Y-49580000I-6000J0D01*
G01*
X147037000Y-49580000D01*
G75*
G02*
X147031000Y-49574000I0J6000D01*
G01*
X147031000Y-48036000D01*
G75*
G02*
X147037000Y-48030000I6000J0D01*
G01*
X147325000Y-48030000D01*
G75*
G02*
X147331000Y-48036000I0J-6000D01*
G01*
G37*
G36*
G01*
X147581000Y-55586000D02*
X147581000Y-57124000D01*
G75*
G02*
X147575000Y-57130000I-6000J0D01*
G01*
X147287000Y-57130000D01*
G75*
G02*
X147281000Y-57124000I0J6000D01*
G01*
X147281000Y-55586000D01*
G75*
G02*
X147287000Y-55580000I6000J0D01*
G01*
X147575000Y-55580000D01*
G75*
G02*
X147581000Y-55586000I0J-6000D01*
G01*
G37*
G36*
G01*
X147831000Y-48036000D02*
X147831000Y-49574000D01*
G75*
G02*
X147825000Y-49580000I-6000J0D01*
G01*
X147537000Y-49580000D01*
G75*
G02*
X147531000Y-49574000I0J6000D01*
G01*
X147531000Y-48036000D01*
G75*
G02*
X147537000Y-48030000I6000J0D01*
G01*
X147825000Y-48030000D01*
G75*
G02*
X147831000Y-48036000I0J-6000D01*
G01*
G37*
G36*
G01*
X148081000Y-55586000D02*
X148081000Y-57124000D01*
G75*
G02*
X148075000Y-57130000I-6000J0D01*
G01*
X147787000Y-57130000D01*
G75*
G02*
X147781000Y-57124000I0J6000D01*
G01*
X147781000Y-55586000D01*
G75*
G02*
X147787000Y-55580000I6000J0D01*
G01*
X148075000Y-55580000D01*
G75*
G02*
X148081000Y-55586000I0J-6000D01*
G01*
G37*
G36*
G01*
X150331000Y-48036000D02*
X150331000Y-49574000D01*
G75*
G02*
X150325000Y-49580000I-6000J0D01*
G01*
X150037000Y-49580000D01*
G75*
G02*
X150031000Y-49574000I0J6000D01*
G01*
X150031000Y-48036000D01*
G75*
G02*
X150037000Y-48030000I6000J0D01*
G01*
X150325000Y-48030000D01*
G75*
G02*
X150331000Y-48036000I0J-6000D01*
G01*
G37*
G36*
G01*
X150581000Y-55586000D02*
X150581000Y-57124000D01*
G75*
G02*
X150575000Y-57130000I-6000J0D01*
G01*
X150287000Y-57130000D01*
G75*
G02*
X150281000Y-57124000I0J6000D01*
G01*
X150281000Y-55586000D01*
G75*
G02*
X150287000Y-55580000I6000J0D01*
G01*
X150575000Y-55580000D01*
G75*
G02*
X150581000Y-55586000I0J-6000D01*
G01*
G37*
G36*
G01*
X150831000Y-48036000D02*
X150831000Y-49574000D01*
G75*
G02*
X150825000Y-49580000I-6000J0D01*
G01*
X150537000Y-49580000D01*
G75*
G02*
X150531000Y-49574000I0J6000D01*
G01*
X150531000Y-48036000D01*
G75*
G02*
X150537000Y-48030000I6000J0D01*
G01*
X150825000Y-48030000D01*
G75*
G02*
X150831000Y-48036000I0J-6000D01*
G01*
G37*
G36*
G01*
X151081000Y-55586000D02*
X151081000Y-57124000D01*
G75*
G02*
X151075000Y-57130000I-6000J0D01*
G01*
X150787000Y-57130000D01*
G75*
G02*
X150781000Y-57124000I0J6000D01*
G01*
X150781000Y-55586000D01*
G75*
G02*
X150787000Y-55580000I6000J0D01*
G01*
X151075000Y-55580000D01*
G75*
G02*
X151081000Y-55586000I0J-6000D01*
G01*
G37*
G36*
G01*
X151331000Y-48036000D02*
X151331000Y-49574000D01*
G75*
G02*
X151325000Y-49580000I-6000J0D01*
G01*
X151037000Y-49580000D01*
G75*
G02*
X151031000Y-49574000I0J6000D01*
G01*
X151031000Y-48036000D01*
G75*
G02*
X151037000Y-48030000I6000J0D01*
G01*
X151325000Y-48030000D01*
G75*
G02*
X151331000Y-48036000I0J-6000D01*
G01*
G37*
G36*
G01*
X151581000Y-55586000D02*
X151581000Y-57124000D01*
G75*
G02*
X151575000Y-57130000I-6000J0D01*
G01*
X151287000Y-57130000D01*
G75*
G02*
X151281000Y-57124000I0J6000D01*
G01*
X151281000Y-55586000D01*
G75*
G02*
X151287000Y-55580000I6000J0D01*
G01*
X151575000Y-55580000D01*
G75*
G02*
X151581000Y-55586000I0J-6000D01*
G01*
G37*
G36*
G01*
X151831000Y-48036000D02*
X151831000Y-49574000D01*
G75*
G02*
X151825000Y-49580000I-6000J0D01*
G01*
X151537000Y-49580000D01*
G75*
G02*
X151531000Y-49574000I0J6000D01*
G01*
X151531000Y-48036000D01*
G75*
G02*
X151537000Y-48030000I6000J0D01*
G01*
X151825000Y-48030000D01*
G75*
G02*
X151831000Y-48036000I0J-6000D01*
G01*
G37*
G36*
G01*
X152081000Y-55586000D02*
X152081000Y-57124000D01*
G75*
G02*
X152075000Y-57130000I-6000J0D01*
G01*
X151787000Y-57130000D01*
G75*
G02*
X151781000Y-57124000I0J6000D01*
G01*
X151781000Y-55586000D01*
G75*
G02*
X151787000Y-55580000I6000J0D01*
G01*
X152075000Y-55580000D01*
G75*
G02*
X152081000Y-55586000I0J-6000D01*
G01*
G37*
G36*
G01*
X152331000Y-48036000D02*
X152331000Y-49574000D01*
G75*
G02*
X152325000Y-49580000I-6000J0D01*
G01*
X152037000Y-49580000D01*
G75*
G02*
X152031000Y-49574000I0J6000D01*
G01*
X152031000Y-48036000D01*
G75*
G02*
X152037000Y-48030000I6000J0D01*
G01*
X152325000Y-48030000D01*
G75*
G02*
X152331000Y-48036000I0J-6000D01*
G01*
G37*
G36*
G01*
X152581000Y-55586000D02*
X152581000Y-57124000D01*
G75*
G02*
X152575000Y-57130000I-6000J0D01*
G01*
X152287000Y-57130000D01*
G75*
G02*
X152281000Y-57124000I0J6000D01*
G01*
X152281000Y-55586000D01*
G75*
G02*
X152287000Y-55580000I6000J0D01*
G01*
X152575000Y-55580000D01*
G75*
G02*
X152581000Y-55586000I0J-6000D01*
G01*
G37*
G36*
G01*
X136681000Y-48313000D02*
X136681000Y-50847000D01*
G75*
G02*
X136573000Y-50955000I-108000J0D01*
G01*
X135589000Y-50955000D01*
G75*
G02*
X135481000Y-50847000I0J108000D01*
G01*
X135481000Y-48313000D01*
G75*
G02*
X135589000Y-48205000I108000J0D01*
G01*
X136573000Y-48205000D01*
G75*
G02*
X136681000Y-48313000I0J-108000D01*
G01*
G37*
G36*
G01*
X157381000Y-48313000D02*
X157381000Y-50847000D01*
G75*
G02*
X157273000Y-50955000I-108000J0D01*
G01*
X156289000Y-50955000D01*
G75*
G02*
X156181000Y-50847000I0J108000D01*
G01*
X156181000Y-48313000D01*
G75*
G02*
X156289000Y-48205000I108000J0D01*
G01*
X157273000Y-48205000D01*
G75*
G02*
X157381000Y-48313000I0J-108000D01*
G01*
G37*
G36*
G01*
X152831000Y-48036000D02*
X152831000Y-49574000D01*
G75*
G02*
X152825000Y-49580000I-6000J0D01*
G01*
X152537000Y-49580000D01*
G75*
G02*
X152531000Y-49574000I0J6000D01*
G01*
X152531000Y-48036000D01*
G75*
G02*
X152537000Y-48030000I6000J0D01*
G01*
X152825000Y-48030000D01*
G75*
G02*
X152831000Y-48036000I0J-6000D01*
G01*
G37*
G36*
G01*
X153331000Y-48036000D02*
X153331000Y-49574000D01*
G75*
G02*
X153325000Y-49580000I-6000J0D01*
G01*
X153037000Y-49580000D01*
G75*
G02*
X153031000Y-49574000I0J6000D01*
G01*
X153031000Y-48036000D01*
G75*
G02*
X153037000Y-48030000I6000J0D01*
G01*
X153325000Y-48030000D01*
G75*
G02*
X153331000Y-48036000I0J-6000D01*
G01*
G37*
G36*
G01*
X153831000Y-48036000D02*
X153831000Y-49574000D01*
G75*
G02*
X153825000Y-49580000I-6000J0D01*
G01*
X153537000Y-49580000D01*
G75*
G02*
X153531000Y-49574000I0J6000D01*
G01*
X153531000Y-48036000D01*
G75*
G02*
X153537000Y-48030000I6000J0D01*
G01*
X153825000Y-48030000D01*
G75*
G02*
X153831000Y-48036000I0J-6000D01*
G01*
G37*
G36*
G01*
X154331000Y-48036000D02*
X154331000Y-49574000D01*
G75*
G02*
X154325000Y-49580000I-6000J0D01*
G01*
X154037000Y-49580000D01*
G75*
G02*
X154031000Y-49574000I0J6000D01*
G01*
X154031000Y-48036000D01*
G75*
G02*
X154037000Y-48030000I6000J0D01*
G01*
X154325000Y-48030000D01*
G75*
G02*
X154331000Y-48036000I0J-6000D01*
G01*
G37*
G36*
G01*
X154831000Y-48036000D02*
X154831000Y-49574000D01*
G75*
G02*
X154825000Y-49580000I-6000J0D01*
G01*
X154537000Y-49580000D01*
G75*
G02*
X154531000Y-49574000I0J6000D01*
G01*
X154531000Y-48036000D01*
G75*
G02*
X154537000Y-48030000I6000J0D01*
G01*
X154825000Y-48030000D01*
G75*
G02*
X154831000Y-48036000I0J-6000D01*
G01*
G37*
G36*
G01*
X155331000Y-48036000D02*
X155331000Y-49574000D01*
G75*
G02*
X155325000Y-49580000I-6000J0D01*
G01*
X155037000Y-49580000D01*
G75*
G02*
X155031000Y-49574000I0J6000D01*
G01*
X155031000Y-48036000D01*
G75*
G02*
X155037000Y-48030000I6000J0D01*
G01*
X155325000Y-48030000D01*
G75*
G02*
X155331000Y-48036000I0J-6000D01*
G01*
G37*
G36*
G01*
X155831000Y-48036000D02*
X155831000Y-49574000D01*
G75*
G02*
X155825000Y-49580000I-6000J0D01*
G01*
X155537000Y-49580000D01*
G75*
G02*
X155531000Y-49574000I0J6000D01*
G01*
X155531000Y-48036000D01*
G75*
G02*
X155537000Y-48030000I6000J0D01*
G01*
X155825000Y-48030000D01*
G75*
G02*
X155831000Y-48036000I0J-6000D01*
G01*
G37*
G36*
G01*
X155581000Y-55586000D02*
X155581000Y-57124000D01*
G75*
G02*
X155575000Y-57130000I-6000J0D01*
G01*
X155287000Y-57130000D01*
G75*
G02*
X155281000Y-57124000I0J6000D01*
G01*
X155281000Y-55586000D01*
G75*
G02*
X155287000Y-55580000I6000J0D01*
G01*
X155575000Y-55580000D01*
G75*
G02*
X155581000Y-55586000I0J-6000D01*
G01*
G37*
G36*
G01*
X155081000Y-55586000D02*
X155081000Y-57124000D01*
G75*
G02*
X155075000Y-57130000I-6000J0D01*
G01*
X154787000Y-57130000D01*
G75*
G02*
X154781000Y-57124000I0J6000D01*
G01*
X154781000Y-55586000D01*
G75*
G02*
X154787000Y-55580000I6000J0D01*
G01*
X155075000Y-55580000D01*
G75*
G02*
X155081000Y-55586000I0J-6000D01*
G01*
G37*
G36*
G01*
X154581000Y-55586000D02*
X154581000Y-57124000D01*
G75*
G02*
X154575000Y-57130000I-6000J0D01*
G01*
X154287000Y-57130000D01*
G75*
G02*
X154281000Y-57124000I0J6000D01*
G01*
X154281000Y-55586000D01*
G75*
G02*
X154287000Y-55580000I6000J0D01*
G01*
X154575000Y-55580000D01*
G75*
G02*
X154581000Y-55586000I0J-6000D01*
G01*
G37*
G36*
G01*
X154081000Y-55586000D02*
X154081000Y-57124000D01*
G75*
G02*
X154075000Y-57130000I-6000J0D01*
G01*
X153787000Y-57130000D01*
G75*
G02*
X153781000Y-57124000I0J6000D01*
G01*
X153781000Y-55586000D01*
G75*
G02*
X153787000Y-55580000I6000J0D01*
G01*
X154075000Y-55580000D01*
G75*
G02*
X154081000Y-55586000I0J-6000D01*
G01*
G37*
G36*
G01*
X153581000Y-55586000D02*
X153581000Y-57124000D01*
G75*
G02*
X153575000Y-57130000I-6000J0D01*
G01*
X153287000Y-57130000D01*
G75*
G02*
X153281000Y-57124000I0J6000D01*
G01*
X153281000Y-55586000D01*
G75*
G02*
X153287000Y-55580000I6000J0D01*
G01*
X153575000Y-55580000D01*
G75*
G02*
X153581000Y-55586000I0J-6000D01*
G01*
G37*
G36*
G01*
X153081000Y-55586000D02*
X153081000Y-57124000D01*
G75*
G02*
X153075000Y-57130000I-6000J0D01*
G01*
X152787000Y-57130000D01*
G75*
G02*
X152781000Y-57124000I0J6000D01*
G01*
X152781000Y-55586000D01*
G75*
G02*
X152787000Y-55580000I6000J0D01*
G01*
X153075000Y-55580000D01*
G75*
G02*
X153081000Y-55586000I0J-6000D01*
G01*
G37*
%TD*%
%TO.C,J7*%
G36*
G01*
X137038000Y-80971999D02*
X137038000Y-82172001D01*
G75*
G02*
X136788001Y-82422000I-249999J0D01*
G01*
X136087999Y-82422000D01*
G75*
G02*
X135838000Y-82172001I0J249999D01*
G01*
X135838000Y-80971999D01*
G75*
G02*
X136087999Y-80722000I249999J0D01*
G01*
X136788001Y-80722000D01*
G75*
G02*
X137038000Y-80971999I0J-249999D01*
G01*
G37*
G36*
G01*
X142038000Y-80971999D02*
X142038000Y-82172001D01*
G75*
G02*
X141788001Y-82422000I-249999J0D01*
G01*
X141087999Y-82422000D01*
G75*
G02*
X140838000Y-82172001I0J249999D01*
G01*
X140838000Y-80971999D01*
G75*
G02*
X141087999Y-80722000I249999J0D01*
G01*
X141788001Y-80722000D01*
G75*
G02*
X142038000Y-80971999I0J-249999D01*
G01*
G37*
G36*
G01*
X137988000Y-79247000D02*
X137988000Y-79997000D01*
G75*
G02*
X137863000Y-80122000I-125000J0D01*
G01*
X137613000Y-80122000D01*
G75*
G02*
X137488000Y-79997000I0J125000D01*
G01*
X137488000Y-79247000D01*
G75*
G02*
X137613000Y-79122000I125000J0D01*
G01*
X137863000Y-79122000D01*
G75*
G02*
X137988000Y-79247000I0J-125000D01*
G01*
G37*
G36*
G01*
X138788000Y-79247000D02*
X138788000Y-79997000D01*
G75*
G02*
X138663000Y-80122000I-125000J0D01*
G01*
X138413000Y-80122000D01*
G75*
G02*
X138288000Y-79997000I0J125000D01*
G01*
X138288000Y-79247000D01*
G75*
G02*
X138413000Y-79122000I125000J0D01*
G01*
X138663000Y-79122000D01*
G75*
G02*
X138788000Y-79247000I0J-125000D01*
G01*
G37*
G36*
G01*
X139588000Y-79247000D02*
X139588000Y-79997000D01*
G75*
G02*
X139463000Y-80122000I-125000J0D01*
G01*
X139213000Y-80122000D01*
G75*
G02*
X139088000Y-79997000I0J125000D01*
G01*
X139088000Y-79247000D01*
G75*
G02*
X139213000Y-79122000I125000J0D01*
G01*
X139463000Y-79122000D01*
G75*
G02*
X139588000Y-79247000I0J-125000D01*
G01*
G37*
G36*
G01*
X140388000Y-79247000D02*
X140388000Y-79997000D01*
G75*
G02*
X140263000Y-80122000I-125000J0D01*
G01*
X140013000Y-80122000D01*
G75*
G02*
X139888000Y-79997000I0J125000D01*
G01*
X139888000Y-79247000D01*
G75*
G02*
X140013000Y-79122000I125000J0D01*
G01*
X140263000Y-79122000D01*
G75*
G02*
X140388000Y-79247000I0J-125000D01*
G01*
G37*
%TD*%
%TO.C,J6*%
G36*
G01*
X163329001Y-52761000D02*
X162128999Y-52761000D01*
G75*
G02*
X161879000Y-52511001I0J249999D01*
G01*
X161879000Y-51810999D01*
G75*
G02*
X162128999Y-51561000I249999J0D01*
G01*
X163329001Y-51561000D01*
G75*
G02*
X163579000Y-51810999I0J-249999D01*
G01*
X163579000Y-52511001D01*
G75*
G02*
X163329001Y-52761000I-249999J0D01*
G01*
G37*
G36*
G01*
X163329001Y-60961000D02*
X162128999Y-60961000D01*
G75*
G02*
X161879000Y-60711001I0J249999D01*
G01*
X161879000Y-60010999D01*
G75*
G02*
X162128999Y-59761000I249999J0D01*
G01*
X163329001Y-59761000D01*
G75*
G02*
X163579000Y-60010999I0J-249999D01*
G01*
X163579000Y-60711001D01*
G75*
G02*
X163329001Y-60961000I-249999J0D01*
G01*
G37*
G36*
G01*
X161754000Y-53711000D02*
X160904000Y-53711000D01*
G75*
G02*
X160779000Y-53586000I0J125000D01*
G01*
X160779000Y-53336000D01*
G75*
G02*
X160904000Y-53211000I125000J0D01*
G01*
X161754000Y-53211000D01*
G75*
G02*
X161879000Y-53336000I0J-125000D01*
G01*
X161879000Y-53586000D01*
G75*
G02*
X161754000Y-53711000I-125000J0D01*
G01*
G37*
G36*
G01*
X161754000Y-54511000D02*
X160904000Y-54511000D01*
G75*
G02*
X160779000Y-54386000I0J125000D01*
G01*
X160779000Y-54136000D01*
G75*
G02*
X160904000Y-54011000I125000J0D01*
G01*
X161754000Y-54011000D01*
G75*
G02*
X161879000Y-54136000I0J-125000D01*
G01*
X161879000Y-54386000D01*
G75*
G02*
X161754000Y-54511000I-125000J0D01*
G01*
G37*
G36*
G01*
X161754000Y-55311000D02*
X160904000Y-55311000D01*
G75*
G02*
X160779000Y-55186000I0J125000D01*
G01*
X160779000Y-54936000D01*
G75*
G02*
X160904000Y-54811000I125000J0D01*
G01*
X161754000Y-54811000D01*
G75*
G02*
X161879000Y-54936000I0J-125000D01*
G01*
X161879000Y-55186000D01*
G75*
G02*
X161754000Y-55311000I-125000J0D01*
G01*
G37*
G36*
G01*
X161754000Y-56111000D02*
X160904000Y-56111000D01*
G75*
G02*
X160779000Y-55986000I0J125000D01*
G01*
X160779000Y-55736000D01*
G75*
G02*
X160904000Y-55611000I125000J0D01*
G01*
X161754000Y-55611000D01*
G75*
G02*
X161879000Y-55736000I0J-125000D01*
G01*
X161879000Y-55986000D01*
G75*
G02*
X161754000Y-56111000I-125000J0D01*
G01*
G37*
G36*
G01*
X161754000Y-56911000D02*
X160904000Y-56911000D01*
G75*
G02*
X160779000Y-56786000I0J125000D01*
G01*
X160779000Y-56536000D01*
G75*
G02*
X160904000Y-56411000I125000J0D01*
G01*
X161754000Y-56411000D01*
G75*
G02*
X161879000Y-56536000I0J-125000D01*
G01*
X161879000Y-56786000D01*
G75*
G02*
X161754000Y-56911000I-125000J0D01*
G01*
G37*
G36*
G01*
X161754000Y-57711000D02*
X160904000Y-57711000D01*
G75*
G02*
X160779000Y-57586000I0J125000D01*
G01*
X160779000Y-57336000D01*
G75*
G02*
X160904000Y-57211000I125000J0D01*
G01*
X161754000Y-57211000D01*
G75*
G02*
X161879000Y-57336000I0J-125000D01*
G01*
X161879000Y-57586000D01*
G75*
G02*
X161754000Y-57711000I-125000J0D01*
G01*
G37*
G36*
G01*
X161754000Y-58511000D02*
X160904000Y-58511000D01*
G75*
G02*
X160779000Y-58386000I0J125000D01*
G01*
X160779000Y-58136000D01*
G75*
G02*
X160904000Y-58011000I125000J0D01*
G01*
X161754000Y-58011000D01*
G75*
G02*
X161879000Y-58136000I0J-125000D01*
G01*
X161879000Y-58386000D01*
G75*
G02*
X161754000Y-58511000I-125000J0D01*
G01*
G37*
G36*
G01*
X161754000Y-59311000D02*
X160904000Y-59311000D01*
G75*
G02*
X160779000Y-59186000I0J125000D01*
G01*
X160779000Y-58936000D01*
G75*
G02*
X160904000Y-58811000I125000J0D01*
G01*
X161754000Y-58811000D01*
G75*
G02*
X161879000Y-58936000I0J-125000D01*
G01*
X161879000Y-59186000D01*
G75*
G02*
X161754000Y-59311000I-125000J0D01*
G01*
G37*
%TD*%
%TO.C,J5*%
G36*
G01*
X126230999Y-60777000D02*
X127431001Y-60777000D01*
G75*
G02*
X127681000Y-61026999I0J-249999D01*
G01*
X127681000Y-61727001D01*
G75*
G02*
X127431001Y-61977000I-249999J0D01*
G01*
X126230999Y-61977000D01*
G75*
G02*
X125981000Y-61727001I0J249999D01*
G01*
X125981000Y-61026999D01*
G75*
G02*
X126230999Y-60777000I249999J0D01*
G01*
G37*
G36*
G01*
X126230999Y-52577000D02*
X127431001Y-52577000D01*
G75*
G02*
X127681000Y-52826999I0J-249999D01*
G01*
X127681000Y-53527001D01*
G75*
G02*
X127431001Y-53777000I-249999J0D01*
G01*
X126230999Y-53777000D01*
G75*
G02*
X125981000Y-53527001I0J249999D01*
G01*
X125981000Y-52826999D01*
G75*
G02*
X126230999Y-52577000I249999J0D01*
G01*
G37*
G36*
G01*
X127806000Y-59827000D02*
X128656000Y-59827000D01*
G75*
G02*
X128781000Y-59952000I0J-125000D01*
G01*
X128781000Y-60202000D01*
G75*
G02*
X128656000Y-60327000I-125000J0D01*
G01*
X127806000Y-60327000D01*
G75*
G02*
X127681000Y-60202000I0J125000D01*
G01*
X127681000Y-59952000D01*
G75*
G02*
X127806000Y-59827000I125000J0D01*
G01*
G37*
G36*
G01*
X127806000Y-59027000D02*
X128656000Y-59027000D01*
G75*
G02*
X128781000Y-59152000I0J-125000D01*
G01*
X128781000Y-59402000D01*
G75*
G02*
X128656000Y-59527000I-125000J0D01*
G01*
X127806000Y-59527000D01*
G75*
G02*
X127681000Y-59402000I0J125000D01*
G01*
X127681000Y-59152000D01*
G75*
G02*
X127806000Y-59027000I125000J0D01*
G01*
G37*
G36*
G01*
X127806000Y-58227000D02*
X128656000Y-58227000D01*
G75*
G02*
X128781000Y-58352000I0J-125000D01*
G01*
X128781000Y-58602000D01*
G75*
G02*
X128656000Y-58727000I-125000J0D01*
G01*
X127806000Y-58727000D01*
G75*
G02*
X127681000Y-58602000I0J125000D01*
G01*
X127681000Y-58352000D01*
G75*
G02*
X127806000Y-58227000I125000J0D01*
G01*
G37*
G36*
G01*
X127806000Y-57427000D02*
X128656000Y-57427000D01*
G75*
G02*
X128781000Y-57552000I0J-125000D01*
G01*
X128781000Y-57802000D01*
G75*
G02*
X128656000Y-57927000I-125000J0D01*
G01*
X127806000Y-57927000D01*
G75*
G02*
X127681000Y-57802000I0J125000D01*
G01*
X127681000Y-57552000D01*
G75*
G02*
X127806000Y-57427000I125000J0D01*
G01*
G37*
G36*
G01*
X127806000Y-56627000D02*
X128656000Y-56627000D01*
G75*
G02*
X128781000Y-56752000I0J-125000D01*
G01*
X128781000Y-57002000D01*
G75*
G02*
X128656000Y-57127000I-125000J0D01*
G01*
X127806000Y-57127000D01*
G75*
G02*
X127681000Y-57002000I0J125000D01*
G01*
X127681000Y-56752000D01*
G75*
G02*
X127806000Y-56627000I125000J0D01*
G01*
G37*
G36*
G01*
X127806000Y-55827000D02*
X128656000Y-55827000D01*
G75*
G02*
X128781000Y-55952000I0J-125000D01*
G01*
X128781000Y-56202000D01*
G75*
G02*
X128656000Y-56327000I-125000J0D01*
G01*
X127806000Y-56327000D01*
G75*
G02*
X127681000Y-56202000I0J125000D01*
G01*
X127681000Y-55952000D01*
G75*
G02*
X127806000Y-55827000I125000J0D01*
G01*
G37*
G36*
G01*
X127806000Y-55027000D02*
X128656000Y-55027000D01*
G75*
G02*
X128781000Y-55152000I0J-125000D01*
G01*
X128781000Y-55402000D01*
G75*
G02*
X128656000Y-55527000I-125000J0D01*
G01*
X127806000Y-55527000D01*
G75*
G02*
X127681000Y-55402000I0J125000D01*
G01*
X127681000Y-55152000D01*
G75*
G02*
X127806000Y-55027000I125000J0D01*
G01*
G37*
G36*
G01*
X127806000Y-54227000D02*
X128656000Y-54227000D01*
G75*
G02*
X128781000Y-54352000I0J-125000D01*
G01*
X128781000Y-54602000D01*
G75*
G02*
X128656000Y-54727000I-125000J0D01*
G01*
X127806000Y-54727000D01*
G75*
G02*
X127681000Y-54602000I0J125000D01*
G01*
X127681000Y-54352000D01*
G75*
G02*
X127806000Y-54227000I125000J0D01*
G01*
G37*
%TD*%
%TO.C,J9*%
G36*
G01*
X162124999Y-74544000D02*
X163325001Y-74544000D01*
G75*
G02*
X163575000Y-74793999I0J-249999D01*
G01*
X163575000Y-75494001D01*
G75*
G02*
X163325001Y-75744000I-249999J0D01*
G01*
X162124999Y-75744000D01*
G75*
G02*
X161875000Y-75494001I0J249999D01*
G01*
X161875000Y-74793999D01*
G75*
G02*
X162124999Y-74544000I249999J0D01*
G01*
G37*
G36*
G01*
X162124999Y-69544000D02*
X163325001Y-69544000D01*
G75*
G02*
X163575000Y-69793999I0J-249999D01*
G01*
X163575000Y-70494001D01*
G75*
G02*
X163325001Y-70744000I-249999J0D01*
G01*
X162124999Y-70744000D01*
G75*
G02*
X161875000Y-70494001I0J249999D01*
G01*
X161875000Y-69793999D01*
G75*
G02*
X162124999Y-69544000I249999J0D01*
G01*
G37*
G36*
G01*
X160400000Y-73594000D02*
X161150000Y-73594000D01*
G75*
G02*
X161275000Y-73719000I0J-125000D01*
G01*
X161275000Y-73969000D01*
G75*
G02*
X161150000Y-74094000I-125000J0D01*
G01*
X160400000Y-74094000D01*
G75*
G02*
X160275000Y-73969000I0J125000D01*
G01*
X160275000Y-73719000D01*
G75*
G02*
X160400000Y-73594000I125000J0D01*
G01*
G37*
G36*
G01*
X160400000Y-72794000D02*
X161150000Y-72794000D01*
G75*
G02*
X161275000Y-72919000I0J-125000D01*
G01*
X161275000Y-73169000D01*
G75*
G02*
X161150000Y-73294000I-125000J0D01*
G01*
X160400000Y-73294000D01*
G75*
G02*
X160275000Y-73169000I0J125000D01*
G01*
X160275000Y-72919000D01*
G75*
G02*
X160400000Y-72794000I125000J0D01*
G01*
G37*
G36*
G01*
X160400000Y-71994000D02*
X161150000Y-71994000D01*
G75*
G02*
X161275000Y-72119000I0J-125000D01*
G01*
X161275000Y-72369000D01*
G75*
G02*
X161150000Y-72494000I-125000J0D01*
G01*
X160400000Y-72494000D01*
G75*
G02*
X160275000Y-72369000I0J125000D01*
G01*
X160275000Y-72119000D01*
G75*
G02*
X160400000Y-71994000I125000J0D01*
G01*
G37*
G36*
G01*
X160400000Y-71194000D02*
X161150000Y-71194000D01*
G75*
G02*
X161275000Y-71319000I0J-125000D01*
G01*
X161275000Y-71569000D01*
G75*
G02*
X161150000Y-71694000I-125000J0D01*
G01*
X160400000Y-71694000D01*
G75*
G02*
X160275000Y-71569000I0J125000D01*
G01*
X160275000Y-71319000D01*
G75*
G02*
X160400000Y-71194000I125000J0D01*
G01*
G37*
%TD*%
%TO.C,J8*%
G36*
G01*
X162124999Y-67051000D02*
X163325001Y-67051000D01*
G75*
G02*
X163575000Y-67300999I0J-249999D01*
G01*
X163575000Y-68001001D01*
G75*
G02*
X163325001Y-68251000I-249999J0D01*
G01*
X162124999Y-68251000D01*
G75*
G02*
X161875000Y-68001001I0J249999D01*
G01*
X161875000Y-67300999D01*
G75*
G02*
X162124999Y-67051000I249999J0D01*
G01*
G37*
G36*
G01*
X162124999Y-62051000D02*
X163325001Y-62051000D01*
G75*
G02*
X163575000Y-62300999I0J-249999D01*
G01*
X163575000Y-63001001D01*
G75*
G02*
X163325001Y-63251000I-249999J0D01*
G01*
X162124999Y-63251000D01*
G75*
G02*
X161875000Y-63001001I0J249999D01*
G01*
X161875000Y-62300999D01*
G75*
G02*
X162124999Y-62051000I249999J0D01*
G01*
G37*
G36*
G01*
X160400000Y-66101000D02*
X161150000Y-66101000D01*
G75*
G02*
X161275000Y-66226000I0J-125000D01*
G01*
X161275000Y-66476000D01*
G75*
G02*
X161150000Y-66601000I-125000J0D01*
G01*
X160400000Y-66601000D01*
G75*
G02*
X160275000Y-66476000I0J125000D01*
G01*
X160275000Y-66226000D01*
G75*
G02*
X160400000Y-66101000I125000J0D01*
G01*
G37*
G36*
G01*
X160400000Y-65301000D02*
X161150000Y-65301000D01*
G75*
G02*
X161275000Y-65426000I0J-125000D01*
G01*
X161275000Y-65676000D01*
G75*
G02*
X161150000Y-65801000I-125000J0D01*
G01*
X160400000Y-65801000D01*
G75*
G02*
X160275000Y-65676000I0J125000D01*
G01*
X160275000Y-65426000D01*
G75*
G02*
X160400000Y-65301000I125000J0D01*
G01*
G37*
G36*
G01*
X160400000Y-64501000D02*
X161150000Y-64501000D01*
G75*
G02*
X161275000Y-64626000I0J-125000D01*
G01*
X161275000Y-64876000D01*
G75*
G02*
X161150000Y-65001000I-125000J0D01*
G01*
X160400000Y-65001000D01*
G75*
G02*
X160275000Y-64876000I0J125000D01*
G01*
X160275000Y-64626000D01*
G75*
G02*
X160400000Y-64501000I125000J0D01*
G01*
G37*
G36*
G01*
X160400000Y-63701000D02*
X161150000Y-63701000D01*
G75*
G02*
X161275000Y-63826000I0J-125000D01*
G01*
X161275000Y-64076000D01*
G75*
G02*
X161150000Y-64201000I-125000J0D01*
G01*
X160400000Y-64201000D01*
G75*
G02*
X160275000Y-64076000I0J125000D01*
G01*
X160275000Y-63826000D01*
G75*
G02*
X160400000Y-63701000I125000J0D01*
G01*
G37*
%TD*%
%TO.C,J4*%
G36*
G01*
X148087000Y-80971999D02*
X148087000Y-82172001D01*
G75*
G02*
X147837001Y-82422000I-249999J0D01*
G01*
X147136999Y-82422000D01*
G75*
G02*
X146887000Y-82172001I0J249999D01*
G01*
X146887000Y-80971999D01*
G75*
G02*
X147136999Y-80722000I249999J0D01*
G01*
X147837001Y-80722000D01*
G75*
G02*
X148087000Y-80971999I0J-249999D01*
G01*
G37*
G36*
G01*
X153087000Y-80971999D02*
X153087000Y-82172001D01*
G75*
G02*
X152837001Y-82422000I-249999J0D01*
G01*
X152136999Y-82422000D01*
G75*
G02*
X151887000Y-82172001I0J249999D01*
G01*
X151887000Y-80971999D01*
G75*
G02*
X152136999Y-80722000I249999J0D01*
G01*
X152837001Y-80722000D01*
G75*
G02*
X153087000Y-80971999I0J-249999D01*
G01*
G37*
G36*
G01*
X149037000Y-79247000D02*
X149037000Y-79997000D01*
G75*
G02*
X148912000Y-80122000I-125000J0D01*
G01*
X148662000Y-80122000D01*
G75*
G02*
X148537000Y-79997000I0J125000D01*
G01*
X148537000Y-79247000D01*
G75*
G02*
X148662000Y-79122000I125000J0D01*
G01*
X148912000Y-79122000D01*
G75*
G02*
X149037000Y-79247000I0J-125000D01*
G01*
G37*
G36*
G01*
X149837000Y-79247000D02*
X149837000Y-79997000D01*
G75*
G02*
X149712000Y-80122000I-125000J0D01*
G01*
X149462000Y-80122000D01*
G75*
G02*
X149337000Y-79997000I0J125000D01*
G01*
X149337000Y-79247000D01*
G75*
G02*
X149462000Y-79122000I125000J0D01*
G01*
X149712000Y-79122000D01*
G75*
G02*
X149837000Y-79247000I0J-125000D01*
G01*
G37*
G36*
G01*
X150637000Y-79247000D02*
X150637000Y-79997000D01*
G75*
G02*
X150512000Y-80122000I-125000J0D01*
G01*
X150262000Y-80122000D01*
G75*
G02*
X150137000Y-79997000I0J125000D01*
G01*
X150137000Y-79247000D01*
G75*
G02*
X150262000Y-79122000I125000J0D01*
G01*
X150512000Y-79122000D01*
G75*
G02*
X150637000Y-79247000I0J-125000D01*
G01*
G37*
G36*
G01*
X151437000Y-79247000D02*
X151437000Y-79997000D01*
G75*
G02*
X151312000Y-80122000I-125000J0D01*
G01*
X151062000Y-80122000D01*
G75*
G02*
X150937000Y-79997000I0J125000D01*
G01*
X150937000Y-79247000D01*
G75*
G02*
X151062000Y-79122000I125000J0D01*
G01*
X151312000Y-79122000D01*
G75*
G02*
X151437000Y-79247000I0J-125000D01*
G01*
G37*
%TD*%
D10*
%TO.C,TP8*%
G36*
X152796657Y-75357010D02*
G01*
X152806408Y-75357623D01*
X152816052Y-75359185D01*
X152825498Y-75361681D01*
X152834655Y-75365086D01*
X152843436Y-75369369D01*
X152851758Y-75374489D01*
X152859540Y-75380396D01*
X152866708Y-75387034D01*
X152873195Y-75394340D01*
X152878937Y-75402244D01*
X152883881Y-75410670D01*
X152887979Y-75419539D01*
X152891192Y-75428766D01*
X152893490Y-75438262D01*
X152894849Y-75447937D01*
X152895259Y-75457698D01*
X152894713Y-75467453D01*
X152894008Y-75472008D01*
X152894000Y-75472130D01*
X152893846Y-75473053D01*
X152893219Y-75477108D01*
X152893085Y-75477628D01*
X152892397Y-75481767D01*
X152841435Y-75716643D01*
X152841129Y-75718005D01*
X152839987Y-75722030D01*
X152838899Y-75726079D01*
X152765268Y-75954835D01*
X152765261Y-75954860D01*
X152765250Y-75954888D01*
X152764823Y-75956185D01*
X152763304Y-75960054D01*
X152761816Y-75964002D01*
X152666203Y-76184506D01*
X152665639Y-76185783D01*
X152663725Y-76189533D01*
X152661883Y-76193269D01*
X152545218Y-76403374D01*
X152545210Y-76403390D01*
X152545199Y-76403408D01*
X152544523Y-76404606D01*
X152542268Y-76408126D01*
X152540055Y-76411689D01*
X152403434Y-76609423D01*
X152402632Y-76610566D01*
X152400046Y-76613847D01*
X152397494Y-76617180D01*
X152242229Y-76800637D01*
X152241320Y-76801696D01*
X152238423Y-76804713D01*
X152235561Y-76807777D01*
X152063136Y-76975208D01*
X152062128Y-76976173D01*
X152058951Y-76978892D01*
X152055802Y-76981664D01*
X151867860Y-77131470D01*
X151866763Y-77132332D01*
X151863321Y-77134739D01*
X151859932Y-77137179D01*
X151658284Y-77267921D01*
X151658270Y-77267931D01*
X151658253Y-77267941D01*
X151657094Y-77268681D01*
X151653483Y-77270712D01*
X151649822Y-77272839D01*
X151436370Y-77383283D01*
X151436362Y-77383287D01*
X151436352Y-77383291D01*
X151435118Y-77383919D01*
X151431289Y-77385605D01*
X151427476Y-77387347D01*
X151204259Y-77476438D01*
X151202958Y-77476946D01*
X151199013Y-77478240D01*
X151195019Y-77479612D01*
X150964172Y-77546496D01*
X150962828Y-77546875D01*
X150959434Y-77547631D01*
X150956037Y-77548488D01*
X150787694Y-77582303D01*
X150786783Y-77582479D01*
X150786738Y-77582490D01*
X150786696Y-77582496D01*
X150786323Y-77582568D01*
X150781652Y-77583204D01*
X150777063Y-77583849D01*
X150776858Y-77583858D01*
X150776642Y-77583887D01*
X150771929Y-77584065D01*
X150767302Y-77584259D01*
X150767089Y-77584247D01*
X150766879Y-77584255D01*
X150762218Y-77583974D01*
X150757547Y-77583713D01*
X150757338Y-77583681D01*
X150757127Y-77583668D01*
X150752544Y-77582939D01*
X150747892Y-77582219D01*
X150747684Y-77582166D01*
X150747479Y-77582133D01*
X150743026Y-77580969D01*
X150738429Y-77579789D01*
X150738227Y-77579716D01*
X150738026Y-77579663D01*
X150733723Y-77578076D01*
X150729248Y-77576447D01*
X150729053Y-77576353D01*
X150728859Y-77576282D01*
X150724696Y-77574266D01*
X150720438Y-77572226D01*
X150720258Y-77572117D01*
X150720066Y-77572024D01*
X150716131Y-77569618D01*
X150712081Y-77567165D01*
X150711906Y-77567034D01*
X150711731Y-77566927D01*
X150708006Y-77564116D01*
X150704258Y-77561312D01*
X150704107Y-77561174D01*
X150703932Y-77561042D01*
X150700473Y-77557856D01*
X150697043Y-77554724D01*
X150696898Y-77554563D01*
X150696746Y-77554423D01*
X150693691Y-77551001D01*
X150690506Y-77547464D01*
X150690379Y-77547291D01*
X150690240Y-77547136D01*
X150687491Y-77543375D01*
X150684708Y-77539600D01*
X150684601Y-77539420D01*
X150684475Y-77539248D01*
X150682134Y-77535282D01*
X150679705Y-77531208D01*
X150679612Y-77531009D01*
X150679508Y-77530834D01*
X150677584Y-77526701D01*
X150675545Y-77522368D01*
X150675473Y-77522167D01*
X150675385Y-77521977D01*
X150673855Y-77517620D01*
X150672268Y-77513164D01*
X150672216Y-77512955D01*
X150672147Y-77512759D01*
X150671046Y-77508265D01*
X150669904Y-77503684D01*
X150669873Y-77503474D01*
X150669823Y-77503270D01*
X150669168Y-77498697D01*
X150668477Y-77494019D01*
X150668466Y-77493804D01*
X150668437Y-77493598D01*
X150668225Y-77488871D01*
X150668000Y-77484261D01*
X150668000Y-76657781D01*
X150668010Y-76656385D01*
X150668131Y-76654453D01*
X150668139Y-76652509D01*
X150668438Y-76649576D01*
X150668623Y-76646634D01*
X150668933Y-76644718D01*
X150669130Y-76642789D01*
X150669713Y-76639902D01*
X150670185Y-76636990D01*
X150670681Y-76635111D01*
X150671065Y-76633213D01*
X150671927Y-76630396D01*
X150672681Y-76627544D01*
X150673357Y-76625725D01*
X150673925Y-76623871D01*
X150675054Y-76621164D01*
X150676086Y-76618387D01*
X150676945Y-76616626D01*
X150677684Y-76614853D01*
X150679064Y-76612281D01*
X150680369Y-76609606D01*
X150681393Y-76607942D01*
X150682304Y-76606244D01*
X150683939Y-76603804D01*
X150685489Y-76601284D01*
X150686662Y-76599739D01*
X150687741Y-76598128D01*
X150689614Y-76595849D01*
X150691396Y-76593502D01*
X150692713Y-76592080D01*
X150693946Y-76590580D01*
X150696036Y-76588491D01*
X150698034Y-76586334D01*
X150699479Y-76585051D01*
X150700857Y-76583674D01*
X150703141Y-76581800D01*
X150705340Y-76579847D01*
X150706908Y-76578708D01*
X150708409Y-76577476D01*
X150710866Y-76575833D01*
X150713244Y-76574105D01*
X150714912Y-76573127D01*
X150716530Y-76572044D01*
X150719137Y-76570647D01*
X150721670Y-76569161D01*
X150723423Y-76568351D01*
X150725142Y-76567430D01*
X150727882Y-76566291D01*
X150730539Y-76565063D01*
X150732357Y-76564430D01*
X150734163Y-76563679D01*
X150737002Y-76562812D01*
X150739766Y-76561850D01*
X150741646Y-76561395D01*
X150743507Y-76560827D01*
X150749388Y-76559341D01*
X150896300Y-76514062D01*
X151035965Y-76455554D01*
X151169258Y-76383693D01*
X151294894Y-76299175D01*
X151411681Y-76202801D01*
X151518511Y-76095487D01*
X151614362Y-75978256D01*
X151698310Y-75852239D01*
X151769559Y-75718635D01*
X151827439Y-75578695D01*
X151872801Y-75429115D01*
X151872911Y-75428761D01*
X151873253Y-75427429D01*
X151876595Y-75418248D01*
X151880816Y-75409438D01*
X151885877Y-75401081D01*
X151891730Y-75393258D01*
X151898318Y-75386043D01*
X151905578Y-75379506D01*
X151913442Y-75373708D01*
X151921834Y-75368705D01*
X151930674Y-75364545D01*
X151939878Y-75361268D01*
X151949358Y-75358904D01*
X151959023Y-75357477D01*
X151968781Y-75357000D01*
X152795261Y-75357000D01*
X152796657Y-75357010D01*
G37*
G36*
X148768615Y-75357010D02*
G01*
X148770547Y-75357131D01*
X148772491Y-75357139D01*
X148775424Y-75357438D01*
X148778366Y-75357623D01*
X148780282Y-75357933D01*
X148782211Y-75358130D01*
X148785098Y-75358713D01*
X148788010Y-75359185D01*
X148789889Y-75359681D01*
X148791787Y-75360065D01*
X148794604Y-75360927D01*
X148797456Y-75361681D01*
X148799275Y-75362357D01*
X148801129Y-75362925D01*
X148803836Y-75364054D01*
X148806613Y-75365086D01*
X148808374Y-75365945D01*
X148810147Y-75366684D01*
X148812719Y-75368064D01*
X148815394Y-75369369D01*
X148817058Y-75370393D01*
X148818756Y-75371304D01*
X148821196Y-75372939D01*
X148823716Y-75374489D01*
X148825261Y-75375662D01*
X148826872Y-75376741D01*
X148829151Y-75378614D01*
X148831498Y-75380396D01*
X148832920Y-75381713D01*
X148834420Y-75382946D01*
X148836509Y-75385036D01*
X148838666Y-75387034D01*
X148839949Y-75388479D01*
X148841326Y-75389857D01*
X148843200Y-75392141D01*
X148845153Y-75394340D01*
X148846292Y-75395908D01*
X148847524Y-75397409D01*
X148849167Y-75399866D01*
X148850895Y-75402244D01*
X148851873Y-75403912D01*
X148852956Y-75405530D01*
X148854353Y-75408137D01*
X148855839Y-75410670D01*
X148856649Y-75412423D01*
X148857570Y-75414142D01*
X148858709Y-75416882D01*
X148859937Y-75419539D01*
X148860570Y-75421357D01*
X148861321Y-75423163D01*
X148862188Y-75426002D01*
X148863150Y-75428766D01*
X148863605Y-75430646D01*
X148864173Y-75432507D01*
X148865659Y-75438388D01*
X148910938Y-75585300D01*
X148969446Y-75724965D01*
X149041307Y-75858258D01*
X149125825Y-75983894D01*
X149222199Y-76100681D01*
X149329513Y-76207511D01*
X149446744Y-76303362D01*
X149572761Y-76387310D01*
X149706365Y-76458559D01*
X149846305Y-76516439D01*
X149995885Y-76561801D01*
X149996239Y-76561911D01*
X149997571Y-76562253D01*
X150006752Y-76565595D01*
X150015562Y-76569816D01*
X150023919Y-76574877D01*
X150031742Y-76580730D01*
X150038957Y-76587318D01*
X150045494Y-76594578D01*
X150051292Y-76602442D01*
X150056295Y-76610834D01*
X150060455Y-76619674D01*
X150063732Y-76628878D01*
X150066096Y-76638358D01*
X150067523Y-76648023D01*
X150068000Y-76657781D01*
X150068000Y-77484261D01*
X150067990Y-77485657D01*
X150067377Y-77495408D01*
X150065815Y-77505052D01*
X150063319Y-77514498D01*
X150059914Y-77523655D01*
X150055631Y-77532436D01*
X150050511Y-77540758D01*
X150044604Y-77548540D01*
X150037966Y-77555708D01*
X150030660Y-77562195D01*
X150022756Y-77567937D01*
X150014330Y-77572881D01*
X150005461Y-77576979D01*
X149996234Y-77580192D01*
X149986738Y-77582490D01*
X149977063Y-77583849D01*
X149967302Y-77584259D01*
X149957547Y-77583713D01*
X149952992Y-77583008D01*
X149952870Y-77583000D01*
X149951947Y-77582846D01*
X149947892Y-77582219D01*
X149947372Y-77582085D01*
X149943233Y-77581397D01*
X149708360Y-77530436D01*
X149708356Y-77530435D01*
X149708351Y-77530434D01*
X149706995Y-77530129D01*
X149702970Y-77528987D01*
X149698921Y-77527899D01*
X149470165Y-77454268D01*
X149470140Y-77454261D01*
X149470112Y-77454250D01*
X149468815Y-77453823D01*
X149464946Y-77452304D01*
X149460998Y-77450816D01*
X149240494Y-77355203D01*
X149239217Y-77354639D01*
X149235467Y-77352725D01*
X149231731Y-77350883D01*
X149021626Y-77234218D01*
X149021610Y-77234210D01*
X149021592Y-77234199D01*
X149020394Y-77233523D01*
X149016874Y-77231268D01*
X149013311Y-77229055D01*
X148815577Y-77092434D01*
X148814434Y-77091632D01*
X148811153Y-77089046D01*
X148807820Y-77086494D01*
X148624363Y-76931229D01*
X148623304Y-76930320D01*
X148620287Y-76927423D01*
X148617223Y-76924561D01*
X148449792Y-76752136D01*
X148448827Y-76751128D01*
X148446108Y-76747951D01*
X148443336Y-76744802D01*
X148293530Y-76556860D01*
X148292668Y-76555763D01*
X148290261Y-76552321D01*
X148287821Y-76548932D01*
X148157079Y-76347284D01*
X148157069Y-76347270D01*
X148157059Y-76347253D01*
X148156319Y-76346094D01*
X148154288Y-76342483D01*
X148152161Y-76338822D01*
X148041714Y-76125363D01*
X148041081Y-76124118D01*
X148039395Y-76120289D01*
X148037653Y-76116476D01*
X147948562Y-75893259D01*
X147948054Y-75891958D01*
X147946760Y-75888013D01*
X147945388Y-75884019D01*
X147878504Y-75653172D01*
X147878125Y-75651828D01*
X147877369Y-75648434D01*
X147876512Y-75645037D01*
X147842697Y-75476694D01*
X147842521Y-75475783D01*
X147842510Y-75475738D01*
X147842504Y-75475696D01*
X147842432Y-75475323D01*
X147841782Y-75470555D01*
X147841151Y-75466063D01*
X147841142Y-75465858D01*
X147841113Y-75465642D01*
X147840931Y-75460822D01*
X147840741Y-75456302D01*
X147840753Y-75456089D01*
X147840745Y-75455879D01*
X147841026Y-75451218D01*
X147841287Y-75446547D01*
X147841319Y-75446338D01*
X147841332Y-75446127D01*
X147842061Y-75441544D01*
X147842781Y-75436892D01*
X147842834Y-75436684D01*
X147842867Y-75436479D01*
X147844031Y-75432026D01*
X147845211Y-75427429D01*
X147845284Y-75427227D01*
X147845337Y-75427026D01*
X147846924Y-75422723D01*
X147848553Y-75418248D01*
X147848647Y-75418053D01*
X147848718Y-75417859D01*
X147850734Y-75413696D01*
X147852774Y-75409438D01*
X147852883Y-75409258D01*
X147852976Y-75409066D01*
X147855420Y-75405069D01*
X147857835Y-75401081D01*
X147857966Y-75400906D01*
X147858073Y-75400731D01*
X147860884Y-75397006D01*
X147863688Y-75393258D01*
X147863826Y-75393107D01*
X147863958Y-75392932D01*
X147867144Y-75389473D01*
X147870276Y-75386043D01*
X147870437Y-75385898D01*
X147870577Y-75385746D01*
X147873999Y-75382691D01*
X147877536Y-75379506D01*
X147877709Y-75379379D01*
X147877864Y-75379240D01*
X147881625Y-75376491D01*
X147885400Y-75373708D01*
X147885580Y-75373601D01*
X147885752Y-75373475D01*
X147889718Y-75371134D01*
X147893792Y-75368705D01*
X147893991Y-75368612D01*
X147894166Y-75368508D01*
X147898299Y-75366584D01*
X147902632Y-75364545D01*
X147902833Y-75364473D01*
X147903023Y-75364385D01*
X147907380Y-75362855D01*
X147911836Y-75361268D01*
X147912045Y-75361216D01*
X147912241Y-75361147D01*
X147916735Y-75360046D01*
X147921316Y-75358904D01*
X147921526Y-75358873D01*
X147921730Y-75358823D01*
X147926303Y-75358168D01*
X147930981Y-75357477D01*
X147931196Y-75357466D01*
X147931402Y-75357437D01*
X147936129Y-75357225D01*
X147940739Y-75357000D01*
X148767219Y-75357000D01*
X148768615Y-75357010D01*
G37*
G36*
X149968911Y-72529753D02*
G01*
X149969121Y-72529745D01*
X149973782Y-72530026D01*
X149978453Y-72530287D01*
X149978662Y-72530319D01*
X149978873Y-72530332D01*
X149983473Y-72531064D01*
X149988108Y-72531781D01*
X149988314Y-72531834D01*
X149988522Y-72531867D01*
X149993005Y-72533038D01*
X149997571Y-72534211D01*
X149997772Y-72534284D01*
X149997974Y-72534337D01*
X150002313Y-72535937D01*
X150006752Y-72537553D01*
X150006944Y-72537645D01*
X150007142Y-72537718D01*
X150011354Y-72539758D01*
X150015562Y-72541774D01*
X150015742Y-72541883D01*
X150015934Y-72541976D01*
X150019869Y-72544382D01*
X150023919Y-72546835D01*
X150024094Y-72546966D01*
X150024269Y-72547073D01*
X150027994Y-72549884D01*
X150031742Y-72552688D01*
X150031893Y-72552826D01*
X150032068Y-72552958D01*
X150035588Y-72556200D01*
X150038957Y-72559276D01*
X150039097Y-72559431D01*
X150039254Y-72559576D01*
X150042421Y-72563124D01*
X150045494Y-72566536D01*
X150045617Y-72566702D01*
X150045761Y-72566864D01*
X150048568Y-72570705D01*
X150051292Y-72574400D01*
X150051399Y-72574580D01*
X150051525Y-72574752D01*
X150053866Y-72578718D01*
X150056295Y-72582792D01*
X150056388Y-72582991D01*
X150056492Y-72583166D01*
X150058460Y-72587393D01*
X150060455Y-72591632D01*
X150060523Y-72591824D01*
X150060616Y-72592023D01*
X150062184Y-72596488D01*
X150063732Y-72600836D01*
X150063784Y-72601044D01*
X150063853Y-72601241D01*
X150064981Y-72605844D01*
X150066096Y-72610316D01*
X150066125Y-72610516D01*
X150066178Y-72610730D01*
X150066850Y-72615422D01*
X150067523Y-72619981D01*
X150067534Y-72620196D01*
X150067563Y-72620402D01*
X150067771Y-72625057D01*
X150068000Y-72629739D01*
X150068000Y-73456219D01*
X150067990Y-73457615D01*
X150067869Y-73459547D01*
X150067861Y-73461491D01*
X150067562Y-73464417D01*
X150067377Y-73467366D01*
X150067064Y-73469295D01*
X150066869Y-73471211D01*
X150066290Y-73474080D01*
X150065815Y-73477010D01*
X150065318Y-73478892D01*
X150064935Y-73480787D01*
X150064073Y-73483604D01*
X150063319Y-73486456D01*
X150062643Y-73488275D01*
X150062075Y-73490129D01*
X150060946Y-73492836D01*
X150059914Y-73495613D01*
X150059055Y-73497374D01*
X150058316Y-73499147D01*
X150056939Y-73501712D01*
X150055631Y-73504394D01*
X150054607Y-73506058D01*
X150053696Y-73507756D01*
X150052065Y-73510191D01*
X150050511Y-73512716D01*
X150049331Y-73514270D01*
X150048258Y-73515872D01*
X150046394Y-73518140D01*
X150044604Y-73520498D01*
X150043285Y-73521922D01*
X150042054Y-73523420D01*
X150039964Y-73525509D01*
X150037966Y-73527666D01*
X150036521Y-73528949D01*
X150035143Y-73530326D01*
X150032859Y-73532200D01*
X150030660Y-73534153D01*
X150029092Y-73535292D01*
X150027591Y-73536524D01*
X150025134Y-73538167D01*
X150022756Y-73539895D01*
X150021088Y-73540873D01*
X150019470Y-73541956D01*
X150016863Y-73543353D01*
X150014330Y-73544839D01*
X150012577Y-73545649D01*
X150010858Y-73546570D01*
X150008118Y-73547709D01*
X150005461Y-73548937D01*
X150003643Y-73549570D01*
X150001837Y-73550321D01*
X149998998Y-73551188D01*
X149996234Y-73552150D01*
X149994354Y-73552605D01*
X149992493Y-73553173D01*
X149986612Y-73554659D01*
X149839703Y-73599937D01*
X149700031Y-73658448D01*
X149566749Y-73730303D01*
X149441117Y-73814817D01*
X149324319Y-73911199D01*
X149217489Y-74018513D01*
X149121641Y-74135740D01*
X149037689Y-74261761D01*
X148966441Y-74395365D01*
X148908561Y-74535305D01*
X148863199Y-74684885D01*
X148863089Y-74685239D01*
X148862747Y-74686571D01*
X148859405Y-74695752D01*
X148855184Y-74704562D01*
X148850123Y-74712919D01*
X148844270Y-74720742D01*
X148837682Y-74727957D01*
X148830422Y-74734494D01*
X148822558Y-74740292D01*
X148814166Y-74745295D01*
X148805326Y-74749455D01*
X148796122Y-74752732D01*
X148786642Y-74755096D01*
X148776977Y-74756523D01*
X148767219Y-74757000D01*
X147940739Y-74757000D01*
X147939343Y-74756990D01*
X147929592Y-74756377D01*
X147919948Y-74754815D01*
X147910502Y-74752319D01*
X147901345Y-74748914D01*
X147892564Y-74744631D01*
X147884242Y-74739511D01*
X147876460Y-74733604D01*
X147869292Y-74726966D01*
X147862805Y-74719660D01*
X147857063Y-74711756D01*
X147852119Y-74703330D01*
X147848021Y-74694461D01*
X147844808Y-74685234D01*
X147842510Y-74675738D01*
X147841151Y-74666063D01*
X147840741Y-74656302D01*
X147841287Y-74646547D01*
X147841992Y-74641992D01*
X147842000Y-74641870D01*
X147842154Y-74640947D01*
X147842781Y-74636892D01*
X147842915Y-74636372D01*
X147843603Y-74632233D01*
X147894565Y-74397357D01*
X147894871Y-74395995D01*
X147896016Y-74391959D01*
X147897101Y-74387922D01*
X147970739Y-74159141D01*
X147971177Y-74157815D01*
X147972710Y-74153910D01*
X147974184Y-74149998D01*
X148069797Y-73929494D01*
X148070361Y-73928217D01*
X148072269Y-73924479D01*
X148074117Y-73920731D01*
X148190791Y-73710609D01*
X148191477Y-73709394D01*
X148193734Y-73705871D01*
X148195945Y-73702310D01*
X148332566Y-73504577D01*
X148333368Y-73503434D01*
X148335966Y-73500138D01*
X148338506Y-73496820D01*
X148493771Y-73313363D01*
X148494681Y-73312304D01*
X148497557Y-73309309D01*
X148500439Y-73306223D01*
X148672854Y-73138802D01*
X148672864Y-73138791D01*
X148672877Y-73138780D01*
X148673872Y-73137827D01*
X148677034Y-73135121D01*
X148680198Y-73132336D01*
X148868139Y-72982530D01*
X148869237Y-72981668D01*
X148872658Y-72979276D01*
X148876068Y-72976821D01*
X149077729Y-72846070D01*
X149078906Y-72845319D01*
X149082566Y-72843260D01*
X149086177Y-72841162D01*
X149299621Y-72730722D01*
X149299637Y-72730713D01*
X149299656Y-72730704D01*
X149300882Y-72730081D01*
X149304658Y-72728419D01*
X149308523Y-72726653D01*
X149531741Y-72637562D01*
X149533041Y-72637054D01*
X149536999Y-72635756D01*
X149540981Y-72634388D01*
X149771828Y-72567504D01*
X149773172Y-72567125D01*
X149776566Y-72566369D01*
X149779963Y-72565512D01*
X149948307Y-72531697D01*
X149949215Y-72531521D01*
X149949262Y-72531510D01*
X149949305Y-72531504D01*
X149949677Y-72531432D01*
X149954348Y-72530796D01*
X149958937Y-72530151D01*
X149959142Y-72530142D01*
X149959358Y-72530113D01*
X149964071Y-72529935D01*
X149968698Y-72529741D01*
X149968911Y-72529753D01*
G37*
G36*
X150778453Y-72530287D02*
G01*
X150783008Y-72530992D01*
X150783130Y-72531000D01*
X150784053Y-72531154D01*
X150788108Y-72531781D01*
X150788628Y-72531915D01*
X150792767Y-72532603D01*
X151027640Y-72583564D01*
X151027644Y-72583565D01*
X151027649Y-72583566D01*
X151029005Y-72583871D01*
X151033041Y-72585016D01*
X151037078Y-72586101D01*
X151265854Y-72659737D01*
X151265860Y-72659739D01*
X151265867Y-72659742D01*
X151267185Y-72660177D01*
X151271054Y-72661696D01*
X151275002Y-72663184D01*
X151495499Y-72758794D01*
X151495507Y-72758797D01*
X151495516Y-72758801D01*
X151496783Y-72759361D01*
X151500521Y-72761269D01*
X151504269Y-72763117D01*
X151714391Y-72879791D01*
X151715606Y-72880477D01*
X151719129Y-72882734D01*
X151722690Y-72884945D01*
X151920423Y-73021566D01*
X151921566Y-73022368D01*
X151924862Y-73024966D01*
X151928180Y-73027506D01*
X152111637Y-73182771D01*
X152112696Y-73183681D01*
X152115691Y-73186557D01*
X152118777Y-73189439D01*
X152286198Y-73361854D01*
X152286209Y-73361864D01*
X152286220Y-73361877D01*
X152287173Y-73362872D01*
X152289879Y-73366034D01*
X152292664Y-73369198D01*
X152442470Y-73557139D01*
X152443332Y-73558237D01*
X152445724Y-73561658D01*
X152448179Y-73565068D01*
X152578930Y-73766729D01*
X152579681Y-73767906D01*
X152581740Y-73771566D01*
X152583838Y-73775177D01*
X152694278Y-73988621D01*
X152694287Y-73988637D01*
X152694296Y-73988656D01*
X152694919Y-73989882D01*
X152696581Y-73993658D01*
X152698347Y-73997523D01*
X152787438Y-74220741D01*
X152787946Y-74222041D01*
X152789244Y-74225999D01*
X152790612Y-74229981D01*
X152857496Y-74460828D01*
X152857875Y-74462172D01*
X152858631Y-74465566D01*
X152859488Y-74468963D01*
X152893303Y-74637307D01*
X152893479Y-74638215D01*
X152893490Y-74638262D01*
X152893496Y-74638305D01*
X152893568Y-74638677D01*
X152894190Y-74643242D01*
X152894849Y-74647937D01*
X152894858Y-74648142D01*
X152894887Y-74648358D01*
X152895065Y-74653071D01*
X152895259Y-74657698D01*
X152895247Y-74657911D01*
X152895255Y-74658121D01*
X152894976Y-74662753D01*
X152894713Y-74667453D01*
X152894681Y-74667662D01*
X152894668Y-74667873D01*
X152893936Y-74672473D01*
X152893219Y-74677108D01*
X152893166Y-74677314D01*
X152893133Y-74677522D01*
X152891962Y-74682005D01*
X152890789Y-74686571D01*
X152890716Y-74686772D01*
X152890663Y-74686974D01*
X152889063Y-74691313D01*
X152887447Y-74695752D01*
X152887355Y-74695944D01*
X152887282Y-74696142D01*
X152885242Y-74700354D01*
X152883226Y-74704562D01*
X152883117Y-74704742D01*
X152883024Y-74704934D01*
X152880618Y-74708869D01*
X152878165Y-74712919D01*
X152878034Y-74713094D01*
X152877927Y-74713269D01*
X152875116Y-74716994D01*
X152872312Y-74720742D01*
X152872174Y-74720893D01*
X152872042Y-74721068D01*
X152868800Y-74724588D01*
X152865724Y-74727957D01*
X152865569Y-74728097D01*
X152865424Y-74728254D01*
X152861876Y-74731421D01*
X152858464Y-74734494D01*
X152858298Y-74734617D01*
X152858136Y-74734761D01*
X152854295Y-74737568D01*
X152850600Y-74740292D01*
X152850420Y-74740399D01*
X152850248Y-74740525D01*
X152846282Y-74742866D01*
X152842208Y-74745295D01*
X152842009Y-74745388D01*
X152841834Y-74745492D01*
X152837607Y-74747460D01*
X152833368Y-74749455D01*
X152833176Y-74749523D01*
X152832977Y-74749616D01*
X152828512Y-74751184D01*
X152824164Y-74752732D01*
X152823956Y-74752784D01*
X152823759Y-74752853D01*
X152819156Y-74753981D01*
X152814684Y-74755096D01*
X152814484Y-74755125D01*
X152814270Y-74755178D01*
X152809578Y-74755850D01*
X152805019Y-74756523D01*
X152804804Y-74756534D01*
X152804598Y-74756563D01*
X152799871Y-74756775D01*
X152795261Y-74757000D01*
X151968781Y-74757000D01*
X151967385Y-74756990D01*
X151965453Y-74756869D01*
X151963509Y-74756861D01*
X151960583Y-74756562D01*
X151957634Y-74756377D01*
X151955705Y-74756064D01*
X151953789Y-74755869D01*
X151950920Y-74755290D01*
X151947990Y-74754815D01*
X151946108Y-74754318D01*
X151944213Y-74753935D01*
X151941396Y-74753073D01*
X151938544Y-74752319D01*
X151936725Y-74751643D01*
X151934871Y-74751075D01*
X151932164Y-74749946D01*
X151929387Y-74748914D01*
X151927626Y-74748055D01*
X151925853Y-74747316D01*
X151923281Y-74745936D01*
X151920606Y-74744631D01*
X151918942Y-74743607D01*
X151917244Y-74742696D01*
X151914809Y-74741065D01*
X151912284Y-74739511D01*
X151910730Y-74738331D01*
X151909128Y-74737258D01*
X151906860Y-74735394D01*
X151904502Y-74733604D01*
X151903078Y-74732285D01*
X151901580Y-74731054D01*
X151899491Y-74728964D01*
X151897334Y-74726966D01*
X151896051Y-74725521D01*
X151894674Y-74724143D01*
X151892800Y-74721859D01*
X151890847Y-74719660D01*
X151889708Y-74718092D01*
X151888476Y-74716591D01*
X151886833Y-74714134D01*
X151885105Y-74711756D01*
X151884127Y-74710088D01*
X151883044Y-74708470D01*
X151881647Y-74705863D01*
X151880161Y-74703330D01*
X151879351Y-74701577D01*
X151878430Y-74699858D01*
X151877291Y-74697118D01*
X151876063Y-74694461D01*
X151875430Y-74692643D01*
X151874679Y-74690837D01*
X151873812Y-74687998D01*
X151872850Y-74685234D01*
X151872395Y-74683354D01*
X151871827Y-74681493D01*
X151870341Y-74675612D01*
X151825063Y-74528703D01*
X151766552Y-74389031D01*
X151694697Y-74255749D01*
X151610183Y-74130117D01*
X151513801Y-74013319D01*
X151406487Y-73906489D01*
X151289260Y-73810641D01*
X151163239Y-73726689D01*
X151029635Y-73655441D01*
X150889695Y-73597561D01*
X150740115Y-73552199D01*
X150739761Y-73552089D01*
X150738429Y-73551747D01*
X150729248Y-73548405D01*
X150720438Y-73544184D01*
X150712081Y-73539123D01*
X150704258Y-73533270D01*
X150697043Y-73526682D01*
X150690506Y-73519422D01*
X150684708Y-73511558D01*
X150679705Y-73503166D01*
X150675545Y-73494326D01*
X150672268Y-73485122D01*
X150669904Y-73475642D01*
X150668477Y-73465977D01*
X150668000Y-73456219D01*
X150668000Y-72629739D01*
X150668010Y-72628343D01*
X150668623Y-72618592D01*
X150670185Y-72608948D01*
X150672681Y-72599502D01*
X150676086Y-72590345D01*
X150680369Y-72581564D01*
X150685489Y-72573242D01*
X150691396Y-72565460D01*
X150698034Y-72558292D01*
X150705340Y-72551805D01*
X150713244Y-72546063D01*
X150721670Y-72541119D01*
X150730539Y-72537021D01*
X150739766Y-72533808D01*
X150749262Y-72531510D01*
X150758937Y-72530151D01*
X150768698Y-72529741D01*
X150778453Y-72530287D01*
G37*
%TD*%
%TO.C,R13*%
G36*
G01*
X147389000Y-72376000D02*
X147759000Y-72376000D01*
G75*
G02*
X147894000Y-72511000I0J-135000D01*
G01*
X147894000Y-72781000D01*
G75*
G02*
X147759000Y-72916000I-135000J0D01*
G01*
X147389000Y-72916000D01*
G75*
G02*
X147254000Y-72781000I0J135000D01*
G01*
X147254000Y-72511000D01*
G75*
G02*
X147389000Y-72376000I135000J0D01*
G01*
G37*
G36*
G01*
X147389000Y-71356000D02*
X147759000Y-71356000D01*
G75*
G02*
X147894000Y-71491000I0J-135000D01*
G01*
X147894000Y-71761000D01*
G75*
G02*
X147759000Y-71896000I-135000J0D01*
G01*
X147389000Y-71896000D01*
G75*
G02*
X147254000Y-71761000I0J135000D01*
G01*
X147254000Y-71491000D01*
G75*
G02*
X147389000Y-71356000I135000J0D01*
G01*
G37*
%TD*%
%TO.C,R7*%
G36*
G01*
X138797000Y-66479000D02*
X138797000Y-66109000D01*
G75*
G02*
X138932000Y-65974000I135000J0D01*
G01*
X139202000Y-65974000D01*
G75*
G02*
X139337000Y-66109000I0J-135000D01*
G01*
X139337000Y-66479000D01*
G75*
G02*
X139202000Y-66614000I-135000J0D01*
G01*
X138932000Y-66614000D01*
G75*
G02*
X138797000Y-66479000I0J135000D01*
G01*
G37*
G36*
G01*
X137777000Y-66479000D02*
X137777000Y-66109000D01*
G75*
G02*
X137912000Y-65974000I135000J0D01*
G01*
X138182000Y-65974000D01*
G75*
G02*
X138317000Y-66109000I0J-135000D01*
G01*
X138317000Y-66479000D01*
G75*
G02*
X138182000Y-66614000I-135000J0D01*
G01*
X137912000Y-66614000D01*
G75*
G02*
X137777000Y-66479000I0J135000D01*
G01*
G37*
%TD*%
%TO.C,R6*%
G36*
G01*
X136765000Y-66479000D02*
X136765000Y-66109000D01*
G75*
G02*
X136900000Y-65974000I135000J0D01*
G01*
X137170000Y-65974000D01*
G75*
G02*
X137305000Y-66109000I0J-135000D01*
G01*
X137305000Y-66479000D01*
G75*
G02*
X137170000Y-66614000I-135000J0D01*
G01*
X136900000Y-66614000D01*
G75*
G02*
X136765000Y-66479000I0J135000D01*
G01*
G37*
G36*
G01*
X135745000Y-66479000D02*
X135745000Y-66109000D01*
G75*
G02*
X135880000Y-65974000I135000J0D01*
G01*
X136150000Y-65974000D01*
G75*
G02*
X136285000Y-66109000I0J-135000D01*
G01*
X136285000Y-66479000D01*
G75*
G02*
X136150000Y-66614000I-135000J0D01*
G01*
X135880000Y-66614000D01*
G75*
G02*
X135745000Y-66479000I0J135000D01*
G01*
G37*
%TD*%
D11*
%TO.C,D5*%
X133985000Y-75947000D03*
X133985000Y-79247000D03*
%TD*%
%TO.C,C17*%
G36*
G01*
X146134000Y-72336000D02*
X146474000Y-72336000D01*
G75*
G02*
X146614000Y-72476000I0J-140000D01*
G01*
X146614000Y-72756000D01*
G75*
G02*
X146474000Y-72896000I-140000J0D01*
G01*
X146134000Y-72896000D01*
G75*
G02*
X145994000Y-72756000I0J140000D01*
G01*
X145994000Y-72476000D01*
G75*
G02*
X146134000Y-72336000I140000J0D01*
G01*
G37*
G36*
G01*
X146134000Y-71376000D02*
X146474000Y-71376000D01*
G75*
G02*
X146614000Y-71516000I0J-140000D01*
G01*
X146614000Y-71796000D01*
G75*
G02*
X146474000Y-71936000I-140000J0D01*
G01*
X146134000Y-71936000D01*
G75*
G02*
X145994000Y-71796000I0J140000D01*
G01*
X145994000Y-71516000D01*
G75*
G02*
X146134000Y-71376000I140000J0D01*
G01*
G37*
%TD*%
%TO.C,C12*%
G36*
G01*
X131518000Y-54653000D02*
X131518000Y-54313000D01*
G75*
G02*
X131658000Y-54173000I140000J0D01*
G01*
X131938000Y-54173000D01*
G75*
G02*
X132078000Y-54313000I0J-140000D01*
G01*
X132078000Y-54653000D01*
G75*
G02*
X131938000Y-54793000I-140000J0D01*
G01*
X131658000Y-54793000D01*
G75*
G02*
X131518000Y-54653000I0J140000D01*
G01*
G37*
G36*
G01*
X130558000Y-54653000D02*
X130558000Y-54313000D01*
G75*
G02*
X130698000Y-54173000I140000J0D01*
G01*
X130978000Y-54173000D01*
G75*
G02*
X131118000Y-54313000I0J-140000D01*
G01*
X131118000Y-54653000D01*
G75*
G02*
X130978000Y-54793000I-140000J0D01*
G01*
X130698000Y-54793000D01*
G75*
G02*
X130558000Y-54653000I0J140000D01*
G01*
G37*
%TD*%
%TO.C,C9*%
G36*
G01*
X138376000Y-46525000D02*
X138376000Y-46185000D01*
G75*
G02*
X138516000Y-46045000I140000J0D01*
G01*
X138796000Y-46045000D01*
G75*
G02*
X138936000Y-46185000I0J-140000D01*
G01*
X138936000Y-46525000D01*
G75*
G02*
X138796000Y-46665000I-140000J0D01*
G01*
X138516000Y-46665000D01*
G75*
G02*
X138376000Y-46525000I0J140000D01*
G01*
G37*
G36*
G01*
X137416000Y-46525000D02*
X137416000Y-46185000D01*
G75*
G02*
X137556000Y-46045000I140000J0D01*
G01*
X137836000Y-46045000D01*
G75*
G02*
X137976000Y-46185000I0J-140000D01*
G01*
X137976000Y-46525000D01*
G75*
G02*
X137836000Y-46665000I-140000J0D01*
G01*
X137556000Y-46665000D01*
G75*
G02*
X137416000Y-46525000I0J140000D01*
G01*
G37*
%TD*%
D12*
%TO.C,J2*%
X133083000Y-65738000D03*
X133083000Y-66538000D03*
X133083000Y-71338000D03*
X133083000Y-72138000D03*
X133083000Y-72438000D03*
X133083000Y-71638000D03*
X133083000Y-70838000D03*
X133083000Y-70338000D03*
X133083000Y-69838000D03*
X133083000Y-69338000D03*
X133083000Y-68838000D03*
X133083000Y-68338000D03*
X133083000Y-67838000D03*
X133083000Y-67338000D03*
X133083000Y-66838000D03*
X133083000Y-66038000D03*
%TD*%
M02*
