%TF.GenerationSoftware,KiCad,Pcbnew,(5.1.10)-1*%
%TF.CreationDate,2021-11-06T19:36:26-04:00*%
%TF.ProjectId,MicroMod_Extension,4d696372-6f4d-46f6-945f-457874656e73,rev?*%
%TF.SameCoordinates,Original*%
%TF.FileFunction,Legend,Top*%
%TF.FilePolarity,Positive*%
%FSLAX46Y46*%
G04 Gerber Fmt 4.6, Leading zero omitted, Abs format (unit mm)*
G04 Created by KiCad (PCBNEW (5.1.10)-1) date 2021-11-06 19:36:26*
%MOMM*%
%LPD*%
G01*
G04 APERTURE LIST*
%ADD10C,0.150000*%
%ADD11C,0.500000*%
%ADD12C,0.200000*%
%ADD13C,0.127000*%
%ADD14C,0.120000*%
%ADD15C,0.250000*%
%ADD16C,0.203200*%
%ADD17C,0.080000*%
%ADD18C,0.115824*%
G04 APERTURE END LIST*
D10*
X149289047Y-81986380D02*
X149289047Y-80986380D01*
X149670000Y-80986380D01*
X149765238Y-81034000D01*
X149812857Y-81081619D01*
X149860476Y-81176857D01*
X149860476Y-81319714D01*
X149812857Y-81414952D01*
X149765238Y-81462571D01*
X149670000Y-81510190D01*
X149289047Y-81510190D01*
X150479523Y-80986380D02*
X150670000Y-80986380D01*
X150765238Y-81034000D01*
X150860476Y-81129238D01*
X150908095Y-81319714D01*
X150908095Y-81653047D01*
X150860476Y-81843523D01*
X150765238Y-81938761D01*
X150670000Y-81986380D01*
X150479523Y-81986380D01*
X150384285Y-81938761D01*
X150289047Y-81843523D01*
X150241428Y-81653047D01*
X150241428Y-81319714D01*
X150289047Y-81129238D01*
X150384285Y-81034000D01*
X150479523Y-80986380D01*
X151336666Y-81986380D02*
X151336666Y-80986380D01*
X151574761Y-80986380D01*
X151717619Y-81034000D01*
X151812857Y-81129238D01*
X151860476Y-81224476D01*
X151908095Y-81414952D01*
X151908095Y-81557809D01*
X151860476Y-81748285D01*
X151812857Y-81843523D01*
X151717619Y-81938761D01*
X151574761Y-81986380D01*
X151336666Y-81986380D01*
X152336666Y-81891142D02*
X152384285Y-81938761D01*
X152336666Y-81986380D01*
X152289047Y-81938761D01*
X152336666Y-81891142D01*
X152336666Y-81986380D01*
X153336666Y-81986380D02*
X152765238Y-81986380D01*
X153050952Y-81986380D02*
X153050952Y-80986380D01*
X152955714Y-81129238D01*
X152860476Y-81224476D01*
X152765238Y-81272095D01*
X154289047Y-81986380D02*
X153717619Y-81986380D01*
X154003333Y-81986380D02*
X154003333Y-80986380D01*
X153908095Y-81129238D01*
X153812857Y-81224476D01*
X153717619Y-81272095D01*
X154908095Y-80986380D02*
X155003333Y-80986380D01*
X155098571Y-81034000D01*
X155146190Y-81081619D01*
X155193809Y-81176857D01*
X155241428Y-81367333D01*
X155241428Y-81605428D01*
X155193809Y-81795904D01*
X155146190Y-81891142D01*
X155098571Y-81938761D01*
X155003333Y-81986380D01*
X154908095Y-81986380D01*
X154812857Y-81938761D01*
X154765238Y-81891142D01*
X154717619Y-81795904D01*
X154670000Y-81605428D01*
X154670000Y-81367333D01*
X154717619Y-81176857D01*
X154765238Y-81081619D01*
X154812857Y-81034000D01*
X154908095Y-80986380D01*
X156098571Y-80986380D02*
X155908095Y-80986380D01*
X155812857Y-81034000D01*
X155765238Y-81081619D01*
X155670000Y-81224476D01*
X155622380Y-81414952D01*
X155622380Y-81795904D01*
X155670000Y-81891142D01*
X155717619Y-81938761D01*
X155812857Y-81986380D01*
X156003333Y-81986380D01*
X156098571Y-81938761D01*
X156146190Y-81891142D01*
X156193809Y-81795904D01*
X156193809Y-81557809D01*
X156146190Y-81462571D01*
X156098571Y-81414952D01*
X156003333Y-81367333D01*
X155812857Y-81367333D01*
X155717619Y-81414952D01*
X155670000Y-81462571D01*
X155622380Y-81557809D01*
X156574761Y-81081619D02*
X156622380Y-81034000D01*
X156717619Y-80986380D01*
X156955714Y-80986380D01*
X157050952Y-81034000D01*
X157098571Y-81081619D01*
X157146190Y-81176857D01*
X157146190Y-81272095D01*
X157098571Y-81414952D01*
X156527142Y-81986380D01*
X157146190Y-81986380D01*
X158098571Y-81986380D02*
X157527142Y-81986380D01*
X157812857Y-81986380D02*
X157812857Y-80986380D01*
X157717619Y-81129238D01*
X157622380Y-81224476D01*
X157527142Y-81272095D01*
D11*
X156337142Y-74287142D02*
X158622857Y-75144285D01*
X156337142Y-76001428D01*
D12*
%TO.C,Y1*%
X143267000Y-68821000D02*
G75*
G03*
X143267000Y-68821000I-100000J0D01*
G01*
D13*
X143617000Y-66621000D02*
X143617000Y-66221000D01*
X141117000Y-66621000D02*
X141117000Y-66221000D01*
D10*
%TO.C,U7*%
X149184000Y-50578000D02*
G75*
G03*
X149184000Y-50578000I-75000J0D01*
G01*
D13*
X147014000Y-51078000D02*
X146959000Y-51078000D01*
X147014000Y-54078000D02*
X146959000Y-54078000D01*
X149459000Y-54078000D02*
X149404000Y-54078000D01*
X149459000Y-51078000D02*
X149404000Y-51078000D01*
X146959000Y-51078000D02*
X146959000Y-51633000D01*
X146959000Y-53523000D02*
X146959000Y-54078000D01*
X149459000Y-53523000D02*
X149459000Y-54078000D01*
X149459000Y-51078000D02*
X149459000Y-51633000D01*
D12*
%TO.C,FL1*%
X145380000Y-71675000D02*
G75*
G03*
X145380000Y-71675000I-100000J0D01*
G01*
D13*
X143940000Y-73425000D02*
X143940000Y-72625000D01*
X145620000Y-72625000D02*
X145620000Y-73425000D01*
D14*
%TO.C,TP7*%
X162306000Y-78740000D02*
G75*
G03*
X162306000Y-78740000I-2286000J0D01*
G01*
%TO.C,TP6*%
X162306000Y-48260000D02*
G75*
G03*
X162306000Y-48260000I-2286000J0D01*
G01*
%TO.C,TP5*%
X131826000Y-78740000D02*
G75*
G03*
X131826000Y-78740000I-2286000J0D01*
G01*
%TO.C,TP4*%
X131826000Y-48260000D02*
G75*
G03*
X131826000Y-48260000I-2286000J0D01*
G01*
%TO.C,U2*%
X137140000Y-70296000D02*
X136590000Y-70296000D01*
X142810000Y-76516000D02*
X142810000Y-75966000D01*
X142260000Y-76516000D02*
X142810000Y-76516000D01*
X136590000Y-76516000D02*
X136590000Y-75966000D01*
X137140000Y-76516000D02*
X136590000Y-76516000D01*
X142810000Y-70296000D02*
X142810000Y-70846000D01*
X142260000Y-70296000D02*
X142810000Y-70296000D01*
D12*
%TO.C,U8*%
X153312000Y-52520000D02*
G75*
G03*
X153312000Y-52520000I-100000J0D01*
G01*
D13*
X150511000Y-51070000D02*
X150856000Y-51070000D01*
X152176000Y-51070000D02*
X152511000Y-51070000D01*
X150511000Y-53070000D02*
X150511000Y-52955000D01*
X150511000Y-51185000D02*
X150511000Y-51070000D01*
X150511000Y-53070000D02*
X150856000Y-53070000D01*
X152511000Y-53070000D02*
X152176000Y-53070000D01*
X152511000Y-52955000D02*
X152511000Y-53070000D01*
X152511000Y-51070000D02*
X152511000Y-51185000D01*
D14*
%TO.C,C25*%
X147172000Y-61448836D02*
X147172000Y-61233164D01*
X146452000Y-61448836D02*
X146452000Y-61233164D01*
%TO.C,C24*%
X153310000Y-51708164D02*
X153310000Y-51923836D01*
X154030000Y-51708164D02*
X154030000Y-51923836D01*
%TO.C,C23*%
X151237836Y-53869000D02*
X151022164Y-53869000D01*
X151237836Y-54589000D02*
X151022164Y-54589000D01*
%TO.C,C18*%
X134500252Y-57685000D02*
X133977748Y-57685000D01*
X134500252Y-59155000D02*
X133977748Y-59155000D01*
%TO.C,C1*%
X145309000Y-53359164D02*
X145309000Y-53574836D01*
X146029000Y-53359164D02*
X146029000Y-53574836D01*
%TO.C,U6*%
X140322000Y-62266000D02*
X142082000Y-62266000D01*
X142082000Y-59196000D02*
X139652000Y-59196000D01*
%TO.C,U5*%
X140344000Y-54138000D02*
X142104000Y-54138000D01*
X142104000Y-51068000D02*
X139674000Y-51068000D01*
%TO.C,U4*%
X131930000Y-60079000D02*
X131930000Y-61079000D01*
X129690000Y-62079000D02*
X129690000Y-60079000D01*
%TO.C,U3*%
X149623000Y-68240000D02*
X150073000Y-68240000D01*
X150073000Y-68240000D02*
X150073000Y-68690000D01*
X147303000Y-71460000D02*
X146853000Y-71460000D01*
X146853000Y-71460000D02*
X146853000Y-71010000D01*
X149623000Y-71460000D02*
X150073000Y-71460000D01*
X150073000Y-71460000D02*
X150073000Y-71010000D01*
X147303000Y-68240000D02*
X146853000Y-68240000D01*
%TO.C,TP3*%
X145480000Y-50927000D02*
G75*
G03*
X145480000Y-50927000I-700000J0D01*
G01*
%TO.C,TP2*%
X145480000Y-59055000D02*
G75*
G03*
X145480000Y-59055000I-700000J0D01*
G01*
%TO.C,TP1*%
X135701000Y-60579000D02*
G75*
G03*
X135701000Y-60579000I-700000J0D01*
G01*
D15*
%TO.C,SW1*%
X148828000Y-80303000D02*
G75*
G03*
X148828000Y-80303000I-125000J0D01*
G01*
D10*
X147003000Y-82953000D02*
X147003000Y-83903000D01*
X142303000Y-82953000D02*
X142303000Y-83903000D01*
X147003000Y-83903000D02*
X142303000Y-83903000D01*
X142303000Y-79403000D02*
X147003000Y-79403000D01*
D14*
%TO.C,R15*%
X132843000Y-60859641D02*
X132843000Y-60552359D01*
X133603000Y-60859641D02*
X133603000Y-60552359D01*
%TO.C,R14*%
X131344641Y-58419000D02*
X131037359Y-58419000D01*
X131344641Y-57659000D02*
X131037359Y-57659000D01*
%TO.C,R12*%
X135154641Y-64896000D02*
X134847359Y-64896000D01*
X135154641Y-64136000D02*
X134847359Y-64136000D01*
%TO.C,R11*%
X134847359Y-62866000D02*
X135154641Y-62866000D01*
X134847359Y-63626000D02*
X135154641Y-63626000D01*
%TO.C,R10*%
X156211000Y-49937641D02*
X156211000Y-49630359D01*
X156971000Y-49937641D02*
X156971000Y-49630359D01*
%TO.C,R9*%
X154814000Y-49937641D02*
X154814000Y-49630359D01*
X155574000Y-49937641D02*
X155574000Y-49630359D01*
%TO.C,R8*%
X133986000Y-49937641D02*
X133986000Y-49630359D01*
X134746000Y-49937641D02*
X134746000Y-49630359D01*
%TO.C,R5*%
X132589000Y-49937641D02*
X132589000Y-49630359D01*
X133349000Y-49937641D02*
X133349000Y-49630359D01*
%TO.C,R3*%
X130582641Y-68579000D02*
X130275359Y-68579000D01*
X130582641Y-67819000D02*
X130275359Y-67819000D01*
%TO.C,R2*%
X130582641Y-69849000D02*
X130275359Y-69849000D01*
X130582641Y-69089000D02*
X130275359Y-69089000D01*
%TO.C,R1*%
X137059641Y-79882000D02*
X136752359Y-79882000D01*
X137059641Y-79122000D02*
X136752359Y-79122000D01*
%TO.C,L5*%
X132087252Y-56863000D02*
X131564748Y-56863000D01*
X132087252Y-54643000D02*
X131564748Y-54643000D01*
D12*
%TO.C,J3*%
X159552000Y-61595000D02*
G75*
G03*
X159552000Y-61595000I-100000J0D01*
G01*
X163502000Y-62895000D02*
X163502000Y-60295000D01*
X160602000Y-60745000D02*
X160602000Y-60295000D01*
X160602000Y-62445000D02*
X160602000Y-62895000D01*
%TO.C,FL3*%
X151262000Y-69589000D02*
G75*
G03*
X151262000Y-69589000I-100000J0D01*
G01*
%TO.C,FL2*%
X151262000Y-71875000D02*
G75*
G03*
X151262000Y-71875000I-100000J0D01*
G01*
D13*
%TO.C,E1*%
X160564000Y-68034000D02*
X162524000Y-68034000D01*
X160564000Y-69634000D02*
X162524000Y-69634000D01*
D12*
X158844000Y-68834000D02*
G75*
G03*
X158844000Y-68834000I-100000J0D01*
G01*
D14*
%TO.C,D3*%
X131683000Y-62774000D02*
X129683000Y-62774000D01*
X129683000Y-62774000D02*
X129683000Y-66674000D01*
X131683000Y-62774000D02*
X131683000Y-66674000D01*
D16*
%TO.C,D1*%
X139001500Y-80549750D02*
X139001500Y-81502250D01*
D14*
%TO.C,C22*%
X144632000Y-53359164D02*
X144632000Y-53574836D01*
X143912000Y-53359164D02*
X143912000Y-53574836D01*
%TO.C,C21*%
X144632000Y-61233164D02*
X144632000Y-61448836D01*
X143912000Y-61233164D02*
X143912000Y-61448836D01*
%TO.C,C20*%
X137816000Y-60305836D02*
X137816000Y-60090164D01*
X138536000Y-60305836D02*
X138536000Y-60090164D01*
%TO.C,C19*%
X138536000Y-52978164D02*
X138536000Y-53193836D01*
X137816000Y-52978164D02*
X137816000Y-53193836D01*
%TO.C,C16*%
X146791000Y-66186164D02*
X146791000Y-66401836D01*
X146071000Y-66186164D02*
X146071000Y-66401836D01*
%TO.C,C15*%
X148061000Y-66186164D02*
X148061000Y-66401836D01*
X147341000Y-66186164D02*
X147341000Y-66401836D01*
%TO.C,C14*%
X149331000Y-66186164D02*
X149331000Y-66401836D01*
X148611000Y-66186164D02*
X148611000Y-66401836D01*
%TO.C,C13*%
X135108836Y-66146000D02*
X134893164Y-66146000D01*
X135108836Y-65426000D02*
X134893164Y-65426000D01*
%TO.C,C11*%
X155936836Y-69194000D02*
X155721164Y-69194000D01*
X155936836Y-68474000D02*
X155721164Y-68474000D01*
%TO.C,C7*%
X144545164Y-70633000D02*
X144760836Y-70633000D01*
X144545164Y-71353000D02*
X144760836Y-71353000D01*
%TO.C,C6*%
X136798164Y-77872000D02*
X137013836Y-77872000D01*
X136798164Y-78592000D02*
X137013836Y-78592000D01*
%TO.C,U1*%
X154645000Y-61606000D02*
X154645000Y-59156000D01*
X151425000Y-59806000D02*
X151425000Y-61606000D01*
%TO.C,C5*%
X139467000Y-67456164D02*
X139467000Y-67671836D01*
X140187000Y-67456164D02*
X140187000Y-67671836D01*
%TO.C,C4*%
X145141836Y-74316000D02*
X144926164Y-74316000D01*
X145141836Y-75036000D02*
X144926164Y-75036000D01*
%TO.C,C3*%
X139467000Y-65170164D02*
X139467000Y-65385836D01*
X140187000Y-65170164D02*
X140187000Y-65385836D01*
%TO.C,C2*%
X145521000Y-66401836D02*
X145521000Y-66186164D01*
X144801000Y-66401836D02*
X144801000Y-66186164D01*
%TO.C,Y1*%
D17*
X140456180Y-67657380D02*
X140608561Y-67657380D01*
X140288561Y-67764047D02*
X140456180Y-67657380D01*
X140288561Y-67550714D01*
X140608561Y-67276428D02*
X140608561Y-67459285D01*
X140608561Y-67367857D02*
X140288561Y-67367857D01*
X140334276Y-67398333D01*
X140364752Y-67428809D01*
X140379990Y-67459285D01*
D10*
%TO.C,U7*%
X146832380Y-49814523D02*
X146832380Y-50332619D01*
X146862857Y-50393571D01*
X146893333Y-50424047D01*
X146954285Y-50454523D01*
X147076190Y-50454523D01*
X147137142Y-50424047D01*
X147167619Y-50393571D01*
X147198095Y-50332619D01*
X147198095Y-49814523D01*
X147441904Y-49814523D02*
X147868571Y-49814523D01*
X147594285Y-50454523D01*
%TO.C,FL1*%
X146503571Y-73587428D02*
X146503571Y-73841428D01*
X146902714Y-73841428D02*
X146140714Y-73841428D01*
X146140714Y-73478571D01*
X146902714Y-72825428D02*
X146902714Y-73188285D01*
X146140714Y-73188285D01*
X146902714Y-72172285D02*
X146902714Y-72607714D01*
X146902714Y-72390000D02*
X146140714Y-72390000D01*
X146249571Y-72462571D01*
X146322142Y-72535142D01*
X146358428Y-72607714D01*
%TO.C,U2*%
X136325428Y-68797714D02*
X136325428Y-69414571D01*
X136361714Y-69487142D01*
X136398000Y-69523428D01*
X136470571Y-69559714D01*
X136615714Y-69559714D01*
X136688285Y-69523428D01*
X136724571Y-69487142D01*
X136760857Y-69414571D01*
X136760857Y-68797714D01*
X137087428Y-68870285D02*
X137123714Y-68834000D01*
X137196285Y-68797714D01*
X137377714Y-68797714D01*
X137450285Y-68834000D01*
X137486571Y-68870285D01*
X137522857Y-68942857D01*
X137522857Y-69015428D01*
X137486571Y-69124285D01*
X137051142Y-69559714D01*
X137522857Y-69559714D01*
%TO.C,U8*%
X150295428Y-49747714D02*
X150295428Y-50364571D01*
X150331714Y-50437142D01*
X150368000Y-50473428D01*
X150440571Y-50509714D01*
X150585714Y-50509714D01*
X150658285Y-50473428D01*
X150694571Y-50437142D01*
X150730857Y-50364571D01*
X150730857Y-49747714D01*
X151202571Y-50074285D02*
X151130000Y-50038000D01*
X151093714Y-50001714D01*
X151057428Y-49929142D01*
X151057428Y-49892857D01*
X151093714Y-49820285D01*
X151130000Y-49784000D01*
X151202571Y-49747714D01*
X151347714Y-49747714D01*
X151420285Y-49784000D01*
X151456571Y-49820285D01*
X151492857Y-49892857D01*
X151492857Y-49929142D01*
X151456571Y-50001714D01*
X151420285Y-50038000D01*
X151347714Y-50074285D01*
X151202571Y-50074285D01*
X151130000Y-50110571D01*
X151093714Y-50146857D01*
X151057428Y-50219428D01*
X151057428Y-50364571D01*
X151093714Y-50437142D01*
X151130000Y-50473428D01*
X151202571Y-50509714D01*
X151347714Y-50509714D01*
X151420285Y-50473428D01*
X151456571Y-50437142D01*
X151492857Y-50364571D01*
X151492857Y-50219428D01*
X151456571Y-50146857D01*
X151420285Y-50110571D01*
X151347714Y-50074285D01*
%TO.C,L2*%
X149569714Y-61722000D02*
X149569714Y-62084857D01*
X148807714Y-62084857D01*
X148880285Y-61504285D02*
X148844000Y-61468000D01*
X148807714Y-61395428D01*
X148807714Y-61214000D01*
X148844000Y-61141428D01*
X148880285Y-61105142D01*
X148952857Y-61068857D01*
X149025428Y-61068857D01*
X149134285Y-61105142D01*
X149569714Y-61540571D01*
X149569714Y-61068857D01*
%TO.C,C25*%
X150767142Y-61703857D02*
X150803428Y-61740142D01*
X150839714Y-61849000D01*
X150839714Y-61921571D01*
X150803428Y-62030428D01*
X150730857Y-62103000D01*
X150658285Y-62139285D01*
X150513142Y-62175571D01*
X150404285Y-62175571D01*
X150259142Y-62139285D01*
X150186571Y-62103000D01*
X150114000Y-62030428D01*
X150077714Y-61921571D01*
X150077714Y-61849000D01*
X150114000Y-61740142D01*
X150150285Y-61703857D01*
X150150285Y-61413571D02*
X150114000Y-61377285D01*
X150077714Y-61304714D01*
X150077714Y-61123285D01*
X150114000Y-61050714D01*
X150150285Y-61014428D01*
X150222857Y-60978142D01*
X150295428Y-60978142D01*
X150404285Y-61014428D01*
X150839714Y-61449857D01*
X150839714Y-60978142D01*
X150077714Y-60288714D02*
X150077714Y-60651571D01*
X150440571Y-60687857D01*
X150404285Y-60651571D01*
X150368000Y-60579000D01*
X150368000Y-60397571D01*
X150404285Y-60325000D01*
X150440571Y-60288714D01*
X150513142Y-60252428D01*
X150694571Y-60252428D01*
X150767142Y-60288714D01*
X150803428Y-60325000D01*
X150839714Y-60397571D01*
X150839714Y-60579000D01*
X150803428Y-60651571D01*
X150767142Y-60687857D01*
%TO.C,C24*%
X153942142Y-50146857D02*
X153978428Y-50183142D01*
X154014714Y-50292000D01*
X154014714Y-50364571D01*
X153978428Y-50473428D01*
X153905857Y-50546000D01*
X153833285Y-50582285D01*
X153688142Y-50618571D01*
X153579285Y-50618571D01*
X153434142Y-50582285D01*
X153361571Y-50546000D01*
X153289000Y-50473428D01*
X153252714Y-50364571D01*
X153252714Y-50292000D01*
X153289000Y-50183142D01*
X153325285Y-50146857D01*
X153325285Y-49856571D02*
X153289000Y-49820285D01*
X153252714Y-49747714D01*
X153252714Y-49566285D01*
X153289000Y-49493714D01*
X153325285Y-49457428D01*
X153397857Y-49421142D01*
X153470428Y-49421142D01*
X153579285Y-49457428D01*
X154014714Y-49892857D01*
X154014714Y-49421142D01*
X153506714Y-48768000D02*
X154014714Y-48768000D01*
X153216428Y-48949428D02*
X153760714Y-49130857D01*
X153760714Y-48659142D01*
%TO.C,C23*%
X152799142Y-54628142D02*
X152762857Y-54664428D01*
X152654000Y-54700714D01*
X152581428Y-54700714D01*
X152472571Y-54664428D01*
X152400000Y-54591857D01*
X152363714Y-54519285D01*
X152327428Y-54374142D01*
X152327428Y-54265285D01*
X152363714Y-54120142D01*
X152400000Y-54047571D01*
X152472571Y-53975000D01*
X152581428Y-53938714D01*
X152654000Y-53938714D01*
X152762857Y-53975000D01*
X152799142Y-54011285D01*
X153089428Y-54011285D02*
X153125714Y-53975000D01*
X153198285Y-53938714D01*
X153379714Y-53938714D01*
X153452285Y-53975000D01*
X153488571Y-54011285D01*
X153524857Y-54083857D01*
X153524857Y-54156428D01*
X153488571Y-54265285D01*
X153053142Y-54700714D01*
X153524857Y-54700714D01*
X153778857Y-53938714D02*
X154250571Y-53938714D01*
X153996571Y-54229000D01*
X154105428Y-54229000D01*
X154178000Y-54265285D01*
X154214285Y-54301571D01*
X154250571Y-54374142D01*
X154250571Y-54555571D01*
X154214285Y-54628142D01*
X154178000Y-54664428D01*
X154105428Y-54700714D01*
X153887714Y-54700714D01*
X153815142Y-54664428D01*
X153778857Y-54628142D01*
%TO.C,C18*%
X136289142Y-58438142D02*
X136252857Y-58474428D01*
X136144000Y-58510714D01*
X136071428Y-58510714D01*
X135962571Y-58474428D01*
X135890000Y-58401857D01*
X135853714Y-58329285D01*
X135817428Y-58184142D01*
X135817428Y-58075285D01*
X135853714Y-57930142D01*
X135890000Y-57857571D01*
X135962571Y-57785000D01*
X136071428Y-57748714D01*
X136144000Y-57748714D01*
X136252857Y-57785000D01*
X136289142Y-57821285D01*
X137014857Y-58510714D02*
X136579428Y-58510714D01*
X136797142Y-58510714D02*
X136797142Y-57748714D01*
X136724571Y-57857571D01*
X136652000Y-57930142D01*
X136579428Y-57966428D01*
X137450285Y-58075285D02*
X137377714Y-58039000D01*
X137341428Y-58002714D01*
X137305142Y-57930142D01*
X137305142Y-57893857D01*
X137341428Y-57821285D01*
X137377714Y-57785000D01*
X137450285Y-57748714D01*
X137595428Y-57748714D01*
X137668000Y-57785000D01*
X137704285Y-57821285D01*
X137740571Y-57893857D01*
X137740571Y-57930142D01*
X137704285Y-58002714D01*
X137668000Y-58039000D01*
X137595428Y-58075285D01*
X137450285Y-58075285D01*
X137377714Y-58111571D01*
X137341428Y-58147857D01*
X137305142Y-58220428D01*
X137305142Y-58365571D01*
X137341428Y-58438142D01*
X137377714Y-58474428D01*
X137450285Y-58510714D01*
X137595428Y-58510714D01*
X137668000Y-58474428D01*
X137704285Y-58438142D01*
X137740571Y-58365571D01*
X137740571Y-58220428D01*
X137704285Y-58147857D01*
X137668000Y-58111571D01*
X137595428Y-58075285D01*
%TO.C,C1*%
X146068142Y-55245000D02*
X146104428Y-55281285D01*
X146140714Y-55390142D01*
X146140714Y-55462714D01*
X146104428Y-55571571D01*
X146031857Y-55644142D01*
X145959285Y-55680428D01*
X145814142Y-55716714D01*
X145705285Y-55716714D01*
X145560142Y-55680428D01*
X145487571Y-55644142D01*
X145415000Y-55571571D01*
X145378714Y-55462714D01*
X145378714Y-55390142D01*
X145415000Y-55281285D01*
X145451285Y-55245000D01*
X146140714Y-54519285D02*
X146140714Y-54954714D01*
X146140714Y-54737000D02*
X145378714Y-54737000D01*
X145487571Y-54809571D01*
X145560142Y-54882142D01*
X145596428Y-54954714D01*
%TO.C,U6*%
X139097428Y-57965714D02*
X139097428Y-58582571D01*
X139133714Y-58655142D01*
X139170000Y-58691428D01*
X139242571Y-58727714D01*
X139387714Y-58727714D01*
X139460285Y-58691428D01*
X139496571Y-58655142D01*
X139532857Y-58582571D01*
X139532857Y-57965714D01*
X140222285Y-57965714D02*
X140077142Y-57965714D01*
X140004571Y-58002000D01*
X139968285Y-58038285D01*
X139895714Y-58147142D01*
X139859428Y-58292285D01*
X139859428Y-58582571D01*
X139895714Y-58655142D01*
X139932000Y-58691428D01*
X140004571Y-58727714D01*
X140149714Y-58727714D01*
X140222285Y-58691428D01*
X140258571Y-58655142D01*
X140294857Y-58582571D01*
X140294857Y-58401142D01*
X140258571Y-58328571D01*
X140222285Y-58292285D01*
X140149714Y-58256000D01*
X140004571Y-58256000D01*
X139932000Y-58292285D01*
X139895714Y-58328571D01*
X139859428Y-58401142D01*
%TO.C,U5*%
X139119428Y-49837714D02*
X139119428Y-50454571D01*
X139155714Y-50527142D01*
X139192000Y-50563428D01*
X139264571Y-50599714D01*
X139409714Y-50599714D01*
X139482285Y-50563428D01*
X139518571Y-50527142D01*
X139554857Y-50454571D01*
X139554857Y-49837714D01*
X140280571Y-49837714D02*
X139917714Y-49837714D01*
X139881428Y-50200571D01*
X139917714Y-50164285D01*
X139990285Y-50128000D01*
X140171714Y-50128000D01*
X140244285Y-50164285D01*
X140280571Y-50200571D01*
X140316857Y-50273142D01*
X140316857Y-50454571D01*
X140280571Y-50527142D01*
X140244285Y-50563428D01*
X140171714Y-50599714D01*
X139990285Y-50599714D01*
X139917714Y-50563428D01*
X139881428Y-50527142D01*
%TO.C,U4*%
X128487714Y-61794571D02*
X129104571Y-61794571D01*
X129177142Y-61758285D01*
X129213428Y-61722000D01*
X129249714Y-61649428D01*
X129249714Y-61504285D01*
X129213428Y-61431714D01*
X129177142Y-61395428D01*
X129104571Y-61359142D01*
X128487714Y-61359142D01*
X128741714Y-60669714D02*
X129249714Y-60669714D01*
X128451428Y-60851142D02*
X128995714Y-61032571D01*
X128995714Y-60560857D01*
%TO.C,U3*%
X145469428Y-67527714D02*
X145469428Y-68144571D01*
X145505714Y-68217142D01*
X145542000Y-68253428D01*
X145614571Y-68289714D01*
X145759714Y-68289714D01*
X145832285Y-68253428D01*
X145868571Y-68217142D01*
X145904857Y-68144571D01*
X145904857Y-67527714D01*
X146195142Y-67527714D02*
X146666857Y-67527714D01*
X146412857Y-67818000D01*
X146521714Y-67818000D01*
X146594285Y-67854285D01*
X146630571Y-67890571D01*
X146666857Y-67963142D01*
X146666857Y-68144571D01*
X146630571Y-68217142D01*
X146594285Y-68253428D01*
X146521714Y-68289714D01*
X146304000Y-68289714D01*
X146231428Y-68253428D01*
X146195142Y-68217142D01*
%TO.C,SW1*%
X143625642Y-81461428D02*
X143734500Y-81497714D01*
X143915928Y-81497714D01*
X143988500Y-81461428D01*
X144024785Y-81425142D01*
X144061071Y-81352571D01*
X144061071Y-81280000D01*
X144024785Y-81207428D01*
X143988500Y-81171142D01*
X143915928Y-81134857D01*
X143770785Y-81098571D01*
X143698214Y-81062285D01*
X143661928Y-81026000D01*
X143625642Y-80953428D01*
X143625642Y-80880857D01*
X143661928Y-80808285D01*
X143698214Y-80772000D01*
X143770785Y-80735714D01*
X143952214Y-80735714D01*
X144061071Y-80772000D01*
X144315071Y-80735714D02*
X144496500Y-81497714D01*
X144641642Y-80953428D01*
X144786785Y-81497714D01*
X144968214Y-80735714D01*
X145657642Y-81497714D02*
X145222214Y-81497714D01*
X145439928Y-81497714D02*
X145439928Y-80735714D01*
X145367357Y-80844571D01*
X145294785Y-80917142D01*
X145222214Y-80953428D01*
%TO.C,R15*%
X133241142Y-62574714D02*
X132987142Y-62211857D01*
X132805714Y-62574714D02*
X132805714Y-61812714D01*
X133096000Y-61812714D01*
X133168571Y-61849000D01*
X133204857Y-61885285D01*
X133241142Y-61957857D01*
X133241142Y-62066714D01*
X133204857Y-62139285D01*
X133168571Y-62175571D01*
X133096000Y-62211857D01*
X132805714Y-62211857D01*
X133966857Y-62574714D02*
X133531428Y-62574714D01*
X133749142Y-62574714D02*
X133749142Y-61812714D01*
X133676571Y-61921571D01*
X133604000Y-61994142D01*
X133531428Y-62030428D01*
X134656285Y-61812714D02*
X134293428Y-61812714D01*
X134257142Y-62175571D01*
X134293428Y-62139285D01*
X134366000Y-62103000D01*
X134547428Y-62103000D01*
X134620000Y-62139285D01*
X134656285Y-62175571D01*
X134692571Y-62248142D01*
X134692571Y-62429571D01*
X134656285Y-62502142D01*
X134620000Y-62538428D01*
X134547428Y-62574714D01*
X134366000Y-62574714D01*
X134293428Y-62538428D01*
X134257142Y-62502142D01*
%TO.C,R14*%
X130138714Y-58528857D02*
X129775857Y-58782857D01*
X130138714Y-58964285D02*
X129376714Y-58964285D01*
X129376714Y-58674000D01*
X129413000Y-58601428D01*
X129449285Y-58565142D01*
X129521857Y-58528857D01*
X129630714Y-58528857D01*
X129703285Y-58565142D01*
X129739571Y-58601428D01*
X129775857Y-58674000D01*
X129775857Y-58964285D01*
X130138714Y-57803142D02*
X130138714Y-58238571D01*
X130138714Y-58020857D02*
X129376714Y-58020857D01*
X129485571Y-58093428D01*
X129558142Y-58166000D01*
X129594428Y-58238571D01*
X129630714Y-57150000D02*
X130138714Y-57150000D01*
X129340428Y-57331428D02*
X129884714Y-57512857D01*
X129884714Y-57041142D01*
%TO.C,R12*%
X136797142Y-64860714D02*
X136543142Y-64497857D01*
X136361714Y-64860714D02*
X136361714Y-64098714D01*
X136652000Y-64098714D01*
X136724571Y-64135000D01*
X136760857Y-64171285D01*
X136797142Y-64243857D01*
X136797142Y-64352714D01*
X136760857Y-64425285D01*
X136724571Y-64461571D01*
X136652000Y-64497857D01*
X136361714Y-64497857D01*
X137522857Y-64860714D02*
X137087428Y-64860714D01*
X137305142Y-64860714D02*
X137305142Y-64098714D01*
X137232571Y-64207571D01*
X137160000Y-64280142D01*
X137087428Y-64316428D01*
X137813142Y-64171285D02*
X137849428Y-64135000D01*
X137922000Y-64098714D01*
X138103428Y-64098714D01*
X138176000Y-64135000D01*
X138212285Y-64171285D01*
X138248571Y-64243857D01*
X138248571Y-64316428D01*
X138212285Y-64425285D01*
X137776857Y-64860714D01*
X138248571Y-64860714D01*
%TO.C,R11*%
X136797142Y-63590714D02*
X136543142Y-63227857D01*
X136361714Y-63590714D02*
X136361714Y-62828714D01*
X136652000Y-62828714D01*
X136724571Y-62865000D01*
X136760857Y-62901285D01*
X136797142Y-62973857D01*
X136797142Y-63082714D01*
X136760857Y-63155285D01*
X136724571Y-63191571D01*
X136652000Y-63227857D01*
X136361714Y-63227857D01*
X137522857Y-63590714D02*
X137087428Y-63590714D01*
X137305142Y-63590714D02*
X137305142Y-62828714D01*
X137232571Y-62937571D01*
X137160000Y-63010142D01*
X137087428Y-63046428D01*
X138248571Y-63590714D02*
X137813142Y-63590714D01*
X138030857Y-63590714D02*
X138030857Y-62828714D01*
X137958285Y-62937571D01*
X137885714Y-63010142D01*
X137813142Y-63046428D01*
%TO.C,R10*%
X156935714Y-52432857D02*
X156572857Y-52686857D01*
X156935714Y-52868285D02*
X156173714Y-52868285D01*
X156173714Y-52578000D01*
X156210000Y-52505428D01*
X156246285Y-52469142D01*
X156318857Y-52432857D01*
X156427714Y-52432857D01*
X156500285Y-52469142D01*
X156536571Y-52505428D01*
X156572857Y-52578000D01*
X156572857Y-52868285D01*
X156935714Y-51707142D02*
X156935714Y-52142571D01*
X156935714Y-51924857D02*
X156173714Y-51924857D01*
X156282571Y-51997428D01*
X156355142Y-52070000D01*
X156391428Y-52142571D01*
X156173714Y-51235428D02*
X156173714Y-51162857D01*
X156210000Y-51090285D01*
X156246285Y-51054000D01*
X156318857Y-51017714D01*
X156464000Y-50981428D01*
X156645428Y-50981428D01*
X156790571Y-51017714D01*
X156863142Y-51054000D01*
X156899428Y-51090285D01*
X156935714Y-51162857D01*
X156935714Y-51235428D01*
X156899428Y-51308000D01*
X156863142Y-51344285D01*
X156790571Y-51380571D01*
X156645428Y-51416857D01*
X156464000Y-51416857D01*
X156318857Y-51380571D01*
X156246285Y-51344285D01*
X156210000Y-51308000D01*
X156173714Y-51235428D01*
%TO.C,R9*%
X155538714Y-51689000D02*
X155175857Y-51943000D01*
X155538714Y-52124428D02*
X154776714Y-52124428D01*
X154776714Y-51834142D01*
X154813000Y-51761571D01*
X154849285Y-51725285D01*
X154921857Y-51689000D01*
X155030714Y-51689000D01*
X155103285Y-51725285D01*
X155139571Y-51761571D01*
X155175857Y-51834142D01*
X155175857Y-52124428D01*
X155538714Y-51326142D02*
X155538714Y-51181000D01*
X155502428Y-51108428D01*
X155466142Y-51072142D01*
X155357285Y-50999571D01*
X155212142Y-50963285D01*
X154921857Y-50963285D01*
X154849285Y-50999571D01*
X154813000Y-51035857D01*
X154776714Y-51108428D01*
X154776714Y-51253571D01*
X154813000Y-51326142D01*
X154849285Y-51362428D01*
X154921857Y-51398714D01*
X155103285Y-51398714D01*
X155175857Y-51362428D01*
X155212142Y-51326142D01*
X155248428Y-51253571D01*
X155248428Y-51108428D01*
X155212142Y-51035857D01*
X155175857Y-50999571D01*
X155103285Y-50963285D01*
%TO.C,R8*%
X134710714Y-51689000D02*
X134347857Y-51943000D01*
X134710714Y-52124428D02*
X133948714Y-52124428D01*
X133948714Y-51834142D01*
X133985000Y-51761571D01*
X134021285Y-51725285D01*
X134093857Y-51689000D01*
X134202714Y-51689000D01*
X134275285Y-51725285D01*
X134311571Y-51761571D01*
X134347857Y-51834142D01*
X134347857Y-52124428D01*
X134275285Y-51253571D02*
X134239000Y-51326142D01*
X134202714Y-51362428D01*
X134130142Y-51398714D01*
X134093857Y-51398714D01*
X134021285Y-51362428D01*
X133985000Y-51326142D01*
X133948714Y-51253571D01*
X133948714Y-51108428D01*
X133985000Y-51035857D01*
X134021285Y-50999571D01*
X134093857Y-50963285D01*
X134130142Y-50963285D01*
X134202714Y-50999571D01*
X134239000Y-51035857D01*
X134275285Y-51108428D01*
X134275285Y-51253571D01*
X134311571Y-51326142D01*
X134347857Y-51362428D01*
X134420428Y-51398714D01*
X134565571Y-51398714D01*
X134638142Y-51362428D01*
X134674428Y-51326142D01*
X134710714Y-51253571D01*
X134710714Y-51108428D01*
X134674428Y-51035857D01*
X134638142Y-50999571D01*
X134565571Y-50963285D01*
X134420428Y-50963285D01*
X134347857Y-50999571D01*
X134311571Y-51035857D01*
X134275285Y-51108428D01*
%TO.C,R5*%
X133440714Y-51689000D02*
X133077857Y-51943000D01*
X133440714Y-52124428D02*
X132678714Y-52124428D01*
X132678714Y-51834142D01*
X132715000Y-51761571D01*
X132751285Y-51725285D01*
X132823857Y-51689000D01*
X132932714Y-51689000D01*
X133005285Y-51725285D01*
X133041571Y-51761571D01*
X133077857Y-51834142D01*
X133077857Y-52124428D01*
X132678714Y-50999571D02*
X132678714Y-51362428D01*
X133041571Y-51398714D01*
X133005285Y-51362428D01*
X132969000Y-51289857D01*
X132969000Y-51108428D01*
X133005285Y-51035857D01*
X133041571Y-50999571D01*
X133114142Y-50963285D01*
X133295571Y-50963285D01*
X133368142Y-50999571D01*
X133404428Y-51035857D01*
X133440714Y-51108428D01*
X133440714Y-51289857D01*
X133404428Y-51362428D01*
X133368142Y-51398714D01*
%TO.C,R3*%
X128397000Y-68543714D02*
X128143000Y-68180857D01*
X127961571Y-68543714D02*
X127961571Y-67781714D01*
X128251857Y-67781714D01*
X128324428Y-67818000D01*
X128360714Y-67854285D01*
X128397000Y-67926857D01*
X128397000Y-68035714D01*
X128360714Y-68108285D01*
X128324428Y-68144571D01*
X128251857Y-68180857D01*
X127961571Y-68180857D01*
X128651000Y-67781714D02*
X129122714Y-67781714D01*
X128868714Y-68072000D01*
X128977571Y-68072000D01*
X129050142Y-68108285D01*
X129086428Y-68144571D01*
X129122714Y-68217142D01*
X129122714Y-68398571D01*
X129086428Y-68471142D01*
X129050142Y-68507428D01*
X128977571Y-68543714D01*
X128759857Y-68543714D01*
X128687285Y-68507428D01*
X128651000Y-68471142D01*
%TO.C,R2*%
X128397000Y-69813714D02*
X128143000Y-69450857D01*
X127961571Y-69813714D02*
X127961571Y-69051714D01*
X128251857Y-69051714D01*
X128324428Y-69088000D01*
X128360714Y-69124285D01*
X128397000Y-69196857D01*
X128397000Y-69305714D01*
X128360714Y-69378285D01*
X128324428Y-69414571D01*
X128251857Y-69450857D01*
X127961571Y-69450857D01*
X128687285Y-69124285D02*
X128723571Y-69088000D01*
X128796142Y-69051714D01*
X128977571Y-69051714D01*
X129050142Y-69088000D01*
X129086428Y-69124285D01*
X129122714Y-69196857D01*
X129122714Y-69269428D01*
X129086428Y-69378285D01*
X128651000Y-69813714D01*
X129122714Y-69813714D01*
%TO.C,R1*%
X138557000Y-79846714D02*
X138303000Y-79483857D01*
X138121571Y-79846714D02*
X138121571Y-79084714D01*
X138411857Y-79084714D01*
X138484428Y-79121000D01*
X138520714Y-79157285D01*
X138557000Y-79229857D01*
X138557000Y-79338714D01*
X138520714Y-79411285D01*
X138484428Y-79447571D01*
X138411857Y-79483857D01*
X138121571Y-79483857D01*
X139282714Y-79846714D02*
X138847285Y-79846714D01*
X139065000Y-79846714D02*
X139065000Y-79084714D01*
X138992428Y-79193571D01*
X138919857Y-79266142D01*
X138847285Y-79302428D01*
%TO.C,L5*%
X130556000Y-54446714D02*
X130193142Y-54446714D01*
X130193142Y-53684714D01*
X131172857Y-53684714D02*
X130810000Y-53684714D01*
X130773714Y-54047571D01*
X130810000Y-54011285D01*
X130882571Y-53975000D01*
X131064000Y-53975000D01*
X131136571Y-54011285D01*
X131172857Y-54047571D01*
X131209142Y-54120142D01*
X131209142Y-54301571D01*
X131172857Y-54374142D01*
X131136571Y-54410428D01*
X131064000Y-54446714D01*
X130882571Y-54446714D01*
X130810000Y-54410428D01*
X130773714Y-54374142D01*
%TO.C,L4*%
X150585714Y-64643000D02*
X150585714Y-65005857D01*
X149823714Y-65005857D01*
X150077714Y-64062428D02*
X150585714Y-64062428D01*
X149787428Y-64243857D02*
X150331714Y-64425285D01*
X150331714Y-63953571D01*
%TO.C,L3*%
X156554714Y-70612000D02*
X156554714Y-70974857D01*
X155792714Y-70974857D01*
X155792714Y-70430571D02*
X155792714Y-69958857D01*
X156083000Y-70212857D01*
X156083000Y-70104000D01*
X156119285Y-70031428D01*
X156155571Y-69995142D01*
X156228142Y-69958857D01*
X156409571Y-69958857D01*
X156482142Y-69995142D01*
X156518428Y-70031428D01*
X156554714Y-70104000D01*
X156554714Y-70321714D01*
X156518428Y-70394285D01*
X156482142Y-70430571D01*
%TO.C,L1*%
X157734000Y-68035714D02*
X157371142Y-68035714D01*
X157371142Y-67273714D01*
X158387142Y-68035714D02*
X157951714Y-68035714D01*
X158169428Y-68035714D02*
X158169428Y-67273714D01*
X158096857Y-67382571D01*
X158024285Y-67455142D01*
X157951714Y-67491428D01*
%TO.C,FL3*%
X153615571Y-69396428D02*
X153615571Y-69650428D01*
X154014714Y-69650428D02*
X153252714Y-69650428D01*
X153252714Y-69287571D01*
X154014714Y-68634428D02*
X154014714Y-68997285D01*
X153252714Y-68997285D01*
X153252714Y-68453000D02*
X153252714Y-67981285D01*
X153543000Y-68235285D01*
X153543000Y-68126428D01*
X153579285Y-68053857D01*
X153615571Y-68017571D01*
X153688142Y-67981285D01*
X153869571Y-67981285D01*
X153942142Y-68017571D01*
X153978428Y-68053857D01*
X154014714Y-68126428D01*
X154014714Y-68344142D01*
X153978428Y-68416714D01*
X153942142Y-68453000D01*
%TO.C,FL2*%
X153615571Y-71682428D02*
X153615571Y-71936428D01*
X154014714Y-71936428D02*
X153252714Y-71936428D01*
X153252714Y-71573571D01*
X154014714Y-70920428D02*
X154014714Y-71283285D01*
X153252714Y-71283285D01*
X153325285Y-70702714D02*
X153289000Y-70666428D01*
X153252714Y-70593857D01*
X153252714Y-70412428D01*
X153289000Y-70339857D01*
X153325285Y-70303571D01*
X153397857Y-70267285D01*
X153470428Y-70267285D01*
X153579285Y-70303571D01*
X154014714Y-70739000D01*
X154014714Y-70267285D01*
%TO.C,E1*%
X159239857Y-67128571D02*
X159493857Y-67128571D01*
X159602714Y-67527714D02*
X159239857Y-67527714D01*
X159239857Y-66765714D01*
X159602714Y-66765714D01*
X160328428Y-67527714D02*
X159893000Y-67527714D01*
X160110714Y-67527714D02*
X160110714Y-66765714D01*
X160038142Y-66874571D01*
X159965571Y-66947142D01*
X159893000Y-66983428D01*
%TO.C,D4*%
X155393571Y-47334714D02*
X155393571Y-46572714D01*
X155575000Y-46572714D01*
X155683857Y-46609000D01*
X155756428Y-46681571D01*
X155792714Y-46754142D01*
X155829000Y-46899285D01*
X155829000Y-47008142D01*
X155792714Y-47153285D01*
X155756428Y-47225857D01*
X155683857Y-47298428D01*
X155575000Y-47334714D01*
X155393571Y-47334714D01*
X156482142Y-46826714D02*
X156482142Y-47334714D01*
X156300714Y-46536428D02*
X156119285Y-47080714D01*
X156591000Y-47080714D01*
%TO.C,D3*%
X131154714Y-65586428D02*
X130392714Y-65586428D01*
X130392714Y-65405000D01*
X130429000Y-65296142D01*
X130501571Y-65223571D01*
X130574142Y-65187285D01*
X130719285Y-65151000D01*
X130828142Y-65151000D01*
X130973285Y-65187285D01*
X131045857Y-65223571D01*
X131118428Y-65296142D01*
X131154714Y-65405000D01*
X131154714Y-65586428D01*
X130392714Y-64897000D02*
X130392714Y-64425285D01*
X130683000Y-64679285D01*
X130683000Y-64570428D01*
X130719285Y-64497857D01*
X130755571Y-64461571D01*
X130828142Y-64425285D01*
X131009571Y-64425285D01*
X131082142Y-64461571D01*
X131118428Y-64497857D01*
X131154714Y-64570428D01*
X131154714Y-64788142D01*
X131118428Y-64860714D01*
X131082142Y-64897000D01*
%TO.C,D2*%
X133041571Y-47334714D02*
X133041571Y-46572714D01*
X133223000Y-46572714D01*
X133331857Y-46609000D01*
X133404428Y-46681571D01*
X133440714Y-46754142D01*
X133477000Y-46899285D01*
X133477000Y-47008142D01*
X133440714Y-47153285D01*
X133404428Y-47225857D01*
X133331857Y-47298428D01*
X133223000Y-47334714D01*
X133041571Y-47334714D01*
X133767285Y-46645285D02*
X133803571Y-46609000D01*
X133876142Y-46572714D01*
X134057571Y-46572714D01*
X134130142Y-46609000D01*
X134166428Y-46645285D01*
X134202714Y-46717857D01*
X134202714Y-46790428D01*
X134166428Y-46899285D01*
X133731000Y-47334714D01*
X134202714Y-47334714D01*
%TO.C,D1*%
D18*
X139264571Y-81370714D02*
X139264571Y-80608714D01*
X139446000Y-80608714D01*
X139554857Y-80645000D01*
X139627428Y-80717571D01*
X139663714Y-80790142D01*
X139700000Y-80935285D01*
X139700000Y-81044142D01*
X139663714Y-81189285D01*
X139627428Y-81261857D01*
X139554857Y-81334428D01*
X139446000Y-81370714D01*
X139264571Y-81370714D01*
X140425714Y-81370714D02*
X139990285Y-81370714D01*
X140208000Y-81370714D02*
X140208000Y-80608714D01*
X140135428Y-80717571D01*
X140062857Y-80790142D01*
X139990285Y-80826428D01*
%TO.C,C22*%
D10*
X144544142Y-56115857D02*
X144580428Y-56152142D01*
X144616714Y-56261000D01*
X144616714Y-56333571D01*
X144580428Y-56442428D01*
X144507857Y-56515000D01*
X144435285Y-56551285D01*
X144290142Y-56587571D01*
X144181285Y-56587571D01*
X144036142Y-56551285D01*
X143963571Y-56515000D01*
X143891000Y-56442428D01*
X143854714Y-56333571D01*
X143854714Y-56261000D01*
X143891000Y-56152142D01*
X143927285Y-56115857D01*
X143927285Y-55825571D02*
X143891000Y-55789285D01*
X143854714Y-55716714D01*
X143854714Y-55535285D01*
X143891000Y-55462714D01*
X143927285Y-55426428D01*
X143999857Y-55390142D01*
X144072428Y-55390142D01*
X144181285Y-55426428D01*
X144616714Y-55861857D01*
X144616714Y-55390142D01*
X143927285Y-55099857D02*
X143891000Y-55063571D01*
X143854714Y-54991000D01*
X143854714Y-54809571D01*
X143891000Y-54737000D01*
X143927285Y-54700714D01*
X143999857Y-54664428D01*
X144072428Y-54664428D01*
X144181285Y-54700714D01*
X144616714Y-55136142D01*
X144616714Y-54664428D01*
%TO.C,C21*%
X148227142Y-61703857D02*
X148263428Y-61740142D01*
X148299714Y-61849000D01*
X148299714Y-61921571D01*
X148263428Y-62030428D01*
X148190857Y-62103000D01*
X148118285Y-62139285D01*
X147973142Y-62175571D01*
X147864285Y-62175571D01*
X147719142Y-62139285D01*
X147646571Y-62103000D01*
X147574000Y-62030428D01*
X147537714Y-61921571D01*
X147537714Y-61849000D01*
X147574000Y-61740142D01*
X147610285Y-61703857D01*
X147610285Y-61413571D02*
X147574000Y-61377285D01*
X147537714Y-61304714D01*
X147537714Y-61123285D01*
X147574000Y-61050714D01*
X147610285Y-61014428D01*
X147682857Y-60978142D01*
X147755428Y-60978142D01*
X147864285Y-61014428D01*
X148299714Y-61449857D01*
X148299714Y-60978142D01*
X148299714Y-60252428D02*
X148299714Y-60687857D01*
X148299714Y-60470142D02*
X147537714Y-60470142D01*
X147646571Y-60542714D01*
X147719142Y-60615285D01*
X147755428Y-60687857D01*
%TO.C,C20*%
X137305142Y-61994142D02*
X137268857Y-62030428D01*
X137160000Y-62066714D01*
X137087428Y-62066714D01*
X136978571Y-62030428D01*
X136906000Y-61957857D01*
X136869714Y-61885285D01*
X136833428Y-61740142D01*
X136833428Y-61631285D01*
X136869714Y-61486142D01*
X136906000Y-61413571D01*
X136978571Y-61341000D01*
X137087428Y-61304714D01*
X137160000Y-61304714D01*
X137268857Y-61341000D01*
X137305142Y-61377285D01*
X137595428Y-61377285D02*
X137631714Y-61341000D01*
X137704285Y-61304714D01*
X137885714Y-61304714D01*
X137958285Y-61341000D01*
X137994571Y-61377285D01*
X138030857Y-61449857D01*
X138030857Y-61522428D01*
X137994571Y-61631285D01*
X137559142Y-62066714D01*
X138030857Y-62066714D01*
X138502571Y-61304714D02*
X138575142Y-61304714D01*
X138647714Y-61341000D01*
X138684000Y-61377285D01*
X138720285Y-61449857D01*
X138756571Y-61595000D01*
X138756571Y-61776428D01*
X138720285Y-61921571D01*
X138684000Y-61994142D01*
X138647714Y-62030428D01*
X138575142Y-62066714D01*
X138502571Y-62066714D01*
X138430000Y-62030428D01*
X138393714Y-61994142D01*
X138357428Y-61921571D01*
X138321142Y-61776428D01*
X138321142Y-61595000D01*
X138357428Y-61449857D01*
X138393714Y-61377285D01*
X138430000Y-61341000D01*
X138502571Y-61304714D01*
%TO.C,C19*%
X138448142Y-51416857D02*
X138484428Y-51453142D01*
X138520714Y-51562000D01*
X138520714Y-51634571D01*
X138484428Y-51743428D01*
X138411857Y-51816000D01*
X138339285Y-51852285D01*
X138194142Y-51888571D01*
X138085285Y-51888571D01*
X137940142Y-51852285D01*
X137867571Y-51816000D01*
X137795000Y-51743428D01*
X137758714Y-51634571D01*
X137758714Y-51562000D01*
X137795000Y-51453142D01*
X137831285Y-51416857D01*
X138520714Y-50691142D02*
X138520714Y-51126571D01*
X138520714Y-50908857D02*
X137758714Y-50908857D01*
X137867571Y-50981428D01*
X137940142Y-51054000D01*
X137976428Y-51126571D01*
X138520714Y-50328285D02*
X138520714Y-50183142D01*
X138484428Y-50110571D01*
X138448142Y-50074285D01*
X138339285Y-50001714D01*
X138194142Y-49965428D01*
X137903857Y-49965428D01*
X137831285Y-50001714D01*
X137795000Y-50038000D01*
X137758714Y-50110571D01*
X137758714Y-50255714D01*
X137795000Y-50328285D01*
X137831285Y-50364571D01*
X137903857Y-50400857D01*
X138085285Y-50400857D01*
X138157857Y-50364571D01*
X138194142Y-50328285D01*
X138230428Y-50255714D01*
X138230428Y-50110571D01*
X138194142Y-50038000D01*
X138157857Y-50001714D01*
X138085285Y-49965428D01*
%TO.C,C16*%
X146703142Y-64624857D02*
X146739428Y-64661142D01*
X146775714Y-64770000D01*
X146775714Y-64842571D01*
X146739428Y-64951428D01*
X146666857Y-65024000D01*
X146594285Y-65060285D01*
X146449142Y-65096571D01*
X146340285Y-65096571D01*
X146195142Y-65060285D01*
X146122571Y-65024000D01*
X146050000Y-64951428D01*
X146013714Y-64842571D01*
X146013714Y-64770000D01*
X146050000Y-64661142D01*
X146086285Y-64624857D01*
X146775714Y-63899142D02*
X146775714Y-64334571D01*
X146775714Y-64116857D02*
X146013714Y-64116857D01*
X146122571Y-64189428D01*
X146195142Y-64262000D01*
X146231428Y-64334571D01*
X146013714Y-63246000D02*
X146013714Y-63391142D01*
X146050000Y-63463714D01*
X146086285Y-63500000D01*
X146195142Y-63572571D01*
X146340285Y-63608857D01*
X146630571Y-63608857D01*
X146703142Y-63572571D01*
X146739428Y-63536285D01*
X146775714Y-63463714D01*
X146775714Y-63318571D01*
X146739428Y-63246000D01*
X146703142Y-63209714D01*
X146630571Y-63173428D01*
X146449142Y-63173428D01*
X146376571Y-63209714D01*
X146340285Y-63246000D01*
X146304000Y-63318571D01*
X146304000Y-63463714D01*
X146340285Y-63536285D01*
X146376571Y-63572571D01*
X146449142Y-63608857D01*
%TO.C,C15*%
X147973142Y-64624857D02*
X148009428Y-64661142D01*
X148045714Y-64770000D01*
X148045714Y-64842571D01*
X148009428Y-64951428D01*
X147936857Y-65024000D01*
X147864285Y-65060285D01*
X147719142Y-65096571D01*
X147610285Y-65096571D01*
X147465142Y-65060285D01*
X147392571Y-65024000D01*
X147320000Y-64951428D01*
X147283714Y-64842571D01*
X147283714Y-64770000D01*
X147320000Y-64661142D01*
X147356285Y-64624857D01*
X148045714Y-63899142D02*
X148045714Y-64334571D01*
X148045714Y-64116857D02*
X147283714Y-64116857D01*
X147392571Y-64189428D01*
X147465142Y-64262000D01*
X147501428Y-64334571D01*
X147283714Y-63209714D02*
X147283714Y-63572571D01*
X147646571Y-63608857D01*
X147610285Y-63572571D01*
X147574000Y-63500000D01*
X147574000Y-63318571D01*
X147610285Y-63246000D01*
X147646571Y-63209714D01*
X147719142Y-63173428D01*
X147900571Y-63173428D01*
X147973142Y-63209714D01*
X148009428Y-63246000D01*
X148045714Y-63318571D01*
X148045714Y-63500000D01*
X148009428Y-63572571D01*
X147973142Y-63608857D01*
%TO.C,C14*%
X149243142Y-64624857D02*
X149279428Y-64661142D01*
X149315714Y-64770000D01*
X149315714Y-64842571D01*
X149279428Y-64951428D01*
X149206857Y-65024000D01*
X149134285Y-65060285D01*
X148989142Y-65096571D01*
X148880285Y-65096571D01*
X148735142Y-65060285D01*
X148662571Y-65024000D01*
X148590000Y-64951428D01*
X148553714Y-64842571D01*
X148553714Y-64770000D01*
X148590000Y-64661142D01*
X148626285Y-64624857D01*
X149315714Y-63899142D02*
X149315714Y-64334571D01*
X149315714Y-64116857D02*
X148553714Y-64116857D01*
X148662571Y-64189428D01*
X148735142Y-64262000D01*
X148771428Y-64334571D01*
X148807714Y-63246000D02*
X149315714Y-63246000D01*
X148517428Y-63427428D02*
X149061714Y-63608857D01*
X149061714Y-63137142D01*
%TO.C,C13*%
X136797142Y-66058142D02*
X136760857Y-66094428D01*
X136652000Y-66130714D01*
X136579428Y-66130714D01*
X136470571Y-66094428D01*
X136398000Y-66021857D01*
X136361714Y-65949285D01*
X136325428Y-65804142D01*
X136325428Y-65695285D01*
X136361714Y-65550142D01*
X136398000Y-65477571D01*
X136470571Y-65405000D01*
X136579428Y-65368714D01*
X136652000Y-65368714D01*
X136760857Y-65405000D01*
X136797142Y-65441285D01*
X137522857Y-66130714D02*
X137087428Y-66130714D01*
X137305142Y-66130714D02*
X137305142Y-65368714D01*
X137232571Y-65477571D01*
X137160000Y-65550142D01*
X137087428Y-65586428D01*
X137776857Y-65368714D02*
X138248571Y-65368714D01*
X137994571Y-65659000D01*
X138103428Y-65659000D01*
X138176000Y-65695285D01*
X138212285Y-65731571D01*
X138248571Y-65804142D01*
X138248571Y-65985571D01*
X138212285Y-66058142D01*
X138176000Y-66094428D01*
X138103428Y-66130714D01*
X137885714Y-66130714D01*
X137813142Y-66094428D01*
X137776857Y-66058142D01*
%TO.C,C11*%
X155339142Y-67963142D02*
X155302857Y-67999428D01*
X155194000Y-68035714D01*
X155121428Y-68035714D01*
X155012571Y-67999428D01*
X154940000Y-67926857D01*
X154903714Y-67854285D01*
X154867428Y-67709142D01*
X154867428Y-67600285D01*
X154903714Y-67455142D01*
X154940000Y-67382571D01*
X155012571Y-67310000D01*
X155121428Y-67273714D01*
X155194000Y-67273714D01*
X155302857Y-67310000D01*
X155339142Y-67346285D01*
X156064857Y-68035714D02*
X155629428Y-68035714D01*
X155847142Y-68035714D02*
X155847142Y-67273714D01*
X155774571Y-67382571D01*
X155702000Y-67455142D01*
X155629428Y-67491428D01*
X156790571Y-68035714D02*
X156355142Y-68035714D01*
X156572857Y-68035714D02*
X156572857Y-67273714D01*
X156500285Y-67382571D01*
X156427714Y-67455142D01*
X156355142Y-67491428D01*
%TO.C,C7*%
X144907000Y-70249142D02*
X144870714Y-70285428D01*
X144761857Y-70321714D01*
X144689285Y-70321714D01*
X144580428Y-70285428D01*
X144507857Y-70212857D01*
X144471571Y-70140285D01*
X144435285Y-69995142D01*
X144435285Y-69886285D01*
X144471571Y-69741142D01*
X144507857Y-69668571D01*
X144580428Y-69596000D01*
X144689285Y-69559714D01*
X144761857Y-69559714D01*
X144870714Y-69596000D01*
X144907000Y-69632285D01*
X145161000Y-69559714D02*
X145669000Y-69559714D01*
X145342428Y-70321714D01*
%TO.C,C6*%
X138557000Y-78504142D02*
X138520714Y-78540428D01*
X138411857Y-78576714D01*
X138339285Y-78576714D01*
X138230428Y-78540428D01*
X138157857Y-78467857D01*
X138121571Y-78395285D01*
X138085285Y-78250142D01*
X138085285Y-78141285D01*
X138121571Y-77996142D01*
X138157857Y-77923571D01*
X138230428Y-77851000D01*
X138339285Y-77814714D01*
X138411857Y-77814714D01*
X138520714Y-77851000D01*
X138557000Y-77887285D01*
X139210142Y-77814714D02*
X139065000Y-77814714D01*
X138992428Y-77851000D01*
X138956142Y-77887285D01*
X138883571Y-77996142D01*
X138847285Y-78141285D01*
X138847285Y-78431571D01*
X138883571Y-78504142D01*
X138919857Y-78540428D01*
X138992428Y-78576714D01*
X139137571Y-78576714D01*
X139210142Y-78540428D01*
X139246428Y-78504142D01*
X139282714Y-78431571D01*
X139282714Y-78250142D01*
X139246428Y-78177571D01*
X139210142Y-78141285D01*
X139137571Y-78105000D01*
X138992428Y-78105000D01*
X138919857Y-78141285D01*
X138883571Y-78177571D01*
X138847285Y-78250142D01*
%TO.C,U1*%
X155157714Y-62429571D02*
X155774571Y-62429571D01*
X155847142Y-62393285D01*
X155883428Y-62357000D01*
X155919714Y-62284428D01*
X155919714Y-62139285D01*
X155883428Y-62066714D01*
X155847142Y-62030428D01*
X155774571Y-61994142D01*
X155157714Y-61994142D01*
X155919714Y-61232142D02*
X155919714Y-61667571D01*
X155919714Y-61449857D02*
X155157714Y-61449857D01*
X155266571Y-61522428D01*
X155339142Y-61595000D01*
X155375428Y-61667571D01*
%TO.C,C5*%
X139083142Y-67945000D02*
X139119428Y-67981285D01*
X139155714Y-68090142D01*
X139155714Y-68162714D01*
X139119428Y-68271571D01*
X139046857Y-68344142D01*
X138974285Y-68380428D01*
X138829142Y-68416714D01*
X138720285Y-68416714D01*
X138575142Y-68380428D01*
X138502571Y-68344142D01*
X138430000Y-68271571D01*
X138393714Y-68162714D01*
X138393714Y-68090142D01*
X138430000Y-67981285D01*
X138466285Y-67945000D01*
X138393714Y-67255571D02*
X138393714Y-67618428D01*
X138756571Y-67654714D01*
X138720285Y-67618428D01*
X138684000Y-67545857D01*
X138684000Y-67364428D01*
X138720285Y-67291857D01*
X138756571Y-67255571D01*
X138829142Y-67219285D01*
X139010571Y-67219285D01*
X139083142Y-67255571D01*
X139119428Y-67291857D01*
X139155714Y-67364428D01*
X139155714Y-67545857D01*
X139119428Y-67618428D01*
X139083142Y-67654714D01*
%TO.C,C4*%
X145034000Y-75964142D02*
X144997714Y-76000428D01*
X144888857Y-76036714D01*
X144816285Y-76036714D01*
X144707428Y-76000428D01*
X144634857Y-75927857D01*
X144598571Y-75855285D01*
X144562285Y-75710142D01*
X144562285Y-75601285D01*
X144598571Y-75456142D01*
X144634857Y-75383571D01*
X144707428Y-75311000D01*
X144816285Y-75274714D01*
X144888857Y-75274714D01*
X144997714Y-75311000D01*
X145034000Y-75347285D01*
X145687142Y-75528714D02*
X145687142Y-76036714D01*
X145505714Y-75238428D02*
X145324285Y-75782714D01*
X145796000Y-75782714D01*
%TO.C,C3*%
X139083142Y-65405000D02*
X139119428Y-65441285D01*
X139155714Y-65550142D01*
X139155714Y-65622714D01*
X139119428Y-65731571D01*
X139046857Y-65804142D01*
X138974285Y-65840428D01*
X138829142Y-65876714D01*
X138720285Y-65876714D01*
X138575142Y-65840428D01*
X138502571Y-65804142D01*
X138430000Y-65731571D01*
X138393714Y-65622714D01*
X138393714Y-65550142D01*
X138430000Y-65441285D01*
X138466285Y-65405000D01*
X138393714Y-65151000D02*
X138393714Y-64679285D01*
X138684000Y-64933285D01*
X138684000Y-64824428D01*
X138720285Y-64751857D01*
X138756571Y-64715571D01*
X138829142Y-64679285D01*
X139010571Y-64679285D01*
X139083142Y-64715571D01*
X139119428Y-64751857D01*
X139155714Y-64824428D01*
X139155714Y-65042142D01*
X139119428Y-65114714D01*
X139083142Y-65151000D01*
%TO.C,C2*%
X145433142Y-64643000D02*
X145469428Y-64679285D01*
X145505714Y-64788142D01*
X145505714Y-64860714D01*
X145469428Y-64969571D01*
X145396857Y-65042142D01*
X145324285Y-65078428D01*
X145179142Y-65114714D01*
X145070285Y-65114714D01*
X144925142Y-65078428D01*
X144852571Y-65042142D01*
X144780000Y-64969571D01*
X144743714Y-64860714D01*
X144743714Y-64788142D01*
X144780000Y-64679285D01*
X144816285Y-64643000D01*
X144816285Y-64352714D02*
X144780000Y-64316428D01*
X144743714Y-64243857D01*
X144743714Y-64062428D01*
X144780000Y-63989857D01*
X144816285Y-63953571D01*
X144888857Y-63917285D01*
X144961428Y-63917285D01*
X145070285Y-63953571D01*
X145505714Y-64389000D01*
X145505714Y-63917285D01*
%TD*%
M02*
