%TF.GenerationSoftware,KiCad,Pcbnew,(5.1.10)-1*%
%TF.CreationDate,2021-11-18T11:26:52-05:00*%
%TF.ProjectId,MicroMod_Extension,4d696372-6f4d-46f6-945f-457874656e73,rev?*%
%TF.SameCoordinates,Original*%
%TF.FileFunction,Legend,Bot*%
%TF.FilePolarity,Positive*%
%FSLAX46Y46*%
G04 Gerber Fmt 4.6, Leading zero omitted, Abs format (unit mm)*
G04 Created by KiCad (PCBNEW (5.1.10)-1) date 2021-11-18 11:26:52*
%MOMM*%
%LPD*%
G01*
G04 APERTURE LIST*
%ADD10C,0.203200*%
%ADD11C,0.300000*%
%ADD12C,0.500000*%
%ADD13C,0.127000*%
%ADD14C,0.200000*%
%ADD15C,0.120000*%
%ADD16C,0.150000*%
G04 APERTURE END LIST*
D10*
X159161238Y-70110047D02*
X159209619Y-70255190D01*
X159209619Y-70497095D01*
X159161238Y-70593857D01*
X159112857Y-70642238D01*
X159016095Y-70690619D01*
X158919333Y-70690619D01*
X158822571Y-70642238D01*
X158774190Y-70593857D01*
X158725809Y-70497095D01*
X158677428Y-70303571D01*
X158629047Y-70206809D01*
X158580666Y-70158428D01*
X158483904Y-70110047D01*
X158387142Y-70110047D01*
X158290380Y-70158428D01*
X158242000Y-70206809D01*
X158193619Y-70303571D01*
X158193619Y-70545476D01*
X158242000Y-70690619D01*
X158193619Y-70980904D02*
X158193619Y-71561476D01*
X159209619Y-71271190D02*
X158193619Y-71271190D01*
X159209619Y-71900142D02*
X158193619Y-71900142D01*
X158919333Y-72238809D01*
X158193619Y-72577476D01*
X159209619Y-72577476D01*
X159306380Y-72819380D02*
X159306380Y-73593476D01*
X158193619Y-73835380D02*
X159016095Y-73835380D01*
X159112857Y-73883761D01*
X159161238Y-73932142D01*
X159209619Y-74028904D01*
X159209619Y-74222428D01*
X159161238Y-74319190D01*
X159112857Y-74367571D01*
X159016095Y-74415952D01*
X158193619Y-74415952D01*
X158290380Y-74851380D02*
X158242000Y-74899761D01*
X158193619Y-74996523D01*
X158193619Y-75238428D01*
X158242000Y-75335190D01*
X158290380Y-75383571D01*
X158387142Y-75431952D01*
X158483904Y-75431952D01*
X158629047Y-75383571D01*
X159209619Y-74803000D01*
X159209619Y-75431952D01*
X159161238Y-62617047D02*
X159209619Y-62762190D01*
X159209619Y-63004095D01*
X159161238Y-63100857D01*
X159112857Y-63149238D01*
X159016095Y-63197619D01*
X158919333Y-63197619D01*
X158822571Y-63149238D01*
X158774190Y-63100857D01*
X158725809Y-63004095D01*
X158677428Y-62810571D01*
X158629047Y-62713809D01*
X158580666Y-62665428D01*
X158483904Y-62617047D01*
X158387142Y-62617047D01*
X158290380Y-62665428D01*
X158242000Y-62713809D01*
X158193619Y-62810571D01*
X158193619Y-63052476D01*
X158242000Y-63197619D01*
X158193619Y-63487904D02*
X158193619Y-64068476D01*
X159209619Y-63778190D02*
X158193619Y-63778190D01*
X159209619Y-64407142D02*
X158193619Y-64407142D01*
X158919333Y-64745809D01*
X158193619Y-65084476D01*
X159209619Y-65084476D01*
X159306380Y-65326380D02*
X159306380Y-66100476D01*
X158193619Y-66342380D02*
X159016095Y-66342380D01*
X159112857Y-66390761D01*
X159161238Y-66439142D01*
X159209619Y-66535904D01*
X159209619Y-66729428D01*
X159161238Y-66826190D01*
X159112857Y-66874571D01*
X159016095Y-66922952D01*
X158193619Y-66922952D01*
X159209619Y-67938952D02*
X159209619Y-67358380D01*
X159209619Y-67648666D02*
X158193619Y-67648666D01*
X158338761Y-67551904D01*
X158435523Y-67455142D01*
X158483904Y-67358380D01*
X159185428Y-53721000D02*
X159185428Y-53382333D01*
X159717619Y-53382333D02*
X158701619Y-53382333D01*
X158701619Y-53866142D01*
X159717619Y-54737000D02*
X159717619Y-54253190D01*
X158701619Y-54253190D01*
X158701619Y-55269190D02*
X158701619Y-55462714D01*
X158750000Y-55559476D01*
X158846761Y-55656238D01*
X159040285Y-55704619D01*
X159378952Y-55704619D01*
X159572476Y-55656238D01*
X159669238Y-55559476D01*
X159717619Y-55462714D01*
X159717619Y-55269190D01*
X159669238Y-55172428D01*
X159572476Y-55075666D01*
X159378952Y-55027285D01*
X159040285Y-55027285D01*
X158846761Y-55075666D01*
X158750000Y-55172428D01*
X158701619Y-55269190D01*
X158701619Y-56043285D02*
X159717619Y-56285190D01*
X158991904Y-56478714D01*
X159717619Y-56672238D01*
X158701619Y-56914142D01*
X159717619Y-58123666D02*
X159717619Y-58075285D01*
X159669238Y-57978523D01*
X159524095Y-57833380D01*
X159233809Y-57591476D01*
X159088666Y-57494714D01*
X158943523Y-57446333D01*
X158846761Y-57446333D01*
X158750000Y-57494714D01*
X158701619Y-57591476D01*
X158701619Y-57639857D01*
X158750000Y-57736619D01*
X158846761Y-57785000D01*
X158895142Y-57785000D01*
X158991904Y-57736619D01*
X159040285Y-57688238D01*
X159233809Y-57397952D01*
X159282190Y-57349571D01*
X159378952Y-57301190D01*
X159524095Y-57301190D01*
X159620857Y-57349571D01*
X159669238Y-57397952D01*
X159717619Y-57494714D01*
X159717619Y-57639857D01*
X159669238Y-57736619D01*
X159620857Y-57785000D01*
X159427333Y-57930142D01*
X159282190Y-57978523D01*
X159185428Y-57978523D01*
X159717619Y-58559095D02*
X158701619Y-58559095D01*
X159185428Y-58559095D02*
X159185428Y-59139666D01*
X159717619Y-59139666D02*
X158701619Y-59139666D01*
X129715380Y-60058904D02*
X130731380Y-60058904D01*
X130005666Y-59720238D01*
X130731380Y-59381571D01*
X129715380Y-59381571D01*
X130731380Y-58704238D02*
X130731380Y-58510714D01*
X130683000Y-58413952D01*
X130586238Y-58317190D01*
X130392714Y-58268809D01*
X130054047Y-58268809D01*
X129860523Y-58317190D01*
X129763761Y-58413952D01*
X129715380Y-58510714D01*
X129715380Y-58704238D01*
X129763761Y-58801000D01*
X129860523Y-58897761D01*
X130054047Y-58946142D01*
X130392714Y-58946142D01*
X130586238Y-58897761D01*
X130683000Y-58801000D01*
X130731380Y-58704238D01*
X130731380Y-57978523D02*
X130731380Y-57397952D01*
X129715380Y-57688238D02*
X130731380Y-57688238D01*
X130731380Y-56865761D02*
X130731380Y-56672238D01*
X130683000Y-56575476D01*
X130586238Y-56478714D01*
X130392714Y-56430333D01*
X130054047Y-56430333D01*
X129860523Y-56478714D01*
X129763761Y-56575476D01*
X129715380Y-56672238D01*
X129715380Y-56865761D01*
X129763761Y-56962523D01*
X129860523Y-57059285D01*
X130054047Y-57107666D01*
X130392714Y-57107666D01*
X130586238Y-57059285D01*
X130683000Y-56962523D01*
X130731380Y-56865761D01*
X129715380Y-55414333D02*
X130199190Y-55753000D01*
X129715380Y-55994904D02*
X130731380Y-55994904D01*
X130731380Y-55607857D01*
X130683000Y-55511095D01*
X130634619Y-55462714D01*
X130537857Y-55414333D01*
X130392714Y-55414333D01*
X130295952Y-55462714D01*
X130247571Y-55511095D01*
X130199190Y-55607857D01*
X130199190Y-55994904D01*
X129763761Y-55027285D02*
X129715380Y-54882142D01*
X129715380Y-54640238D01*
X129763761Y-54543476D01*
X129812142Y-54495095D01*
X129908904Y-54446714D01*
X130005666Y-54446714D01*
X130102428Y-54495095D01*
X130150809Y-54543476D01*
X130199190Y-54640238D01*
X130247571Y-54833761D01*
X130295952Y-54930523D01*
X130344333Y-54978904D01*
X130441095Y-55027285D01*
X130537857Y-55027285D01*
X130634619Y-54978904D01*
X130683000Y-54930523D01*
X130731380Y-54833761D01*
X130731380Y-54591857D01*
X130683000Y-54446714D01*
X135097761Y-82120619D02*
X135097761Y-81104619D01*
X134517190Y-82120619D01*
X134517190Y-81104619D01*
X133452809Y-82120619D02*
X133791476Y-81636809D01*
X134033380Y-82120619D02*
X134033380Y-81104619D01*
X133646333Y-81104619D01*
X133549571Y-81153000D01*
X133501190Y-81201380D01*
X133452809Y-81298142D01*
X133452809Y-81443285D01*
X133501190Y-81540047D01*
X133549571Y-81588428D01*
X133646333Y-81636809D01*
X134033380Y-81636809D01*
X132678714Y-81588428D02*
X133017380Y-81588428D01*
X133017380Y-82120619D02*
X133017380Y-81104619D01*
X132533571Y-81104619D01*
X132388428Y-82217380D02*
X131614333Y-82217380D01*
X131372428Y-81104619D02*
X131372428Y-81927095D01*
X131324047Y-82023857D01*
X131275666Y-82072238D01*
X131178904Y-82120619D01*
X130985380Y-82120619D01*
X130888619Y-82072238D01*
X130840238Y-82023857D01*
X130791857Y-81927095D01*
X130791857Y-81104619D01*
X130356428Y-81201380D02*
X130308047Y-81153000D01*
X130211285Y-81104619D01*
X129969380Y-81104619D01*
X129872619Y-81153000D01*
X129824238Y-81201380D01*
X129775857Y-81298142D01*
X129775857Y-81394904D01*
X129824238Y-81540047D01*
X130404809Y-82120619D01*
X129775857Y-82120619D01*
X156173714Y-81993619D02*
X156173714Y-80977619D01*
X155593142Y-81993619D01*
X155593142Y-80977619D01*
X154528761Y-81993619D02*
X154867428Y-81509809D01*
X155109333Y-81993619D02*
X155109333Y-80977619D01*
X154722285Y-80977619D01*
X154625523Y-81026000D01*
X154577142Y-81074380D01*
X154528761Y-81171142D01*
X154528761Y-81316285D01*
X154577142Y-81413047D01*
X154625523Y-81461428D01*
X154722285Y-81509809D01*
X155109333Y-81509809D01*
X153754666Y-81461428D02*
X154093333Y-81461428D01*
X154093333Y-81993619D02*
X154093333Y-80977619D01*
X153609523Y-80977619D01*
D11*
X134409571Y-56729428D02*
X132909571Y-56729428D01*
X133409571Y-58586571D02*
X133838142Y-57443714D01*
X134266714Y-58586571D01*
D12*
X154178143Y-75938143D02*
X156463856Y-76795285D01*
X154178143Y-77652428D01*
D13*
%TO.C,J1*%
X149731000Y-48830000D02*
X148131000Y-48830000D01*
X135431000Y-51180000D02*
X135431000Y-53280000D01*
X135431000Y-56580000D02*
X135431000Y-54980000D01*
X136831000Y-56580000D02*
X135431000Y-56580000D01*
X149931000Y-56580000D02*
X148431000Y-56580000D01*
X157431000Y-56580000D02*
X155931000Y-56580000D01*
X157431000Y-51180000D02*
X157431000Y-56580000D01*
D14*
X155781000Y-47711000D02*
G75*
G03*
X155781000Y-47711000I-100000J0D01*
G01*
D15*
%TO.C,J7*%
X141748000Y-80462000D02*
X141748000Y-79562000D01*
X141748000Y-79562000D02*
X140898000Y-79562000D01*
X140898000Y-79562000D02*
X140898000Y-79262000D01*
X140898000Y-79262000D02*
X140648000Y-79262000D01*
X140648000Y-79262000D02*
X140648000Y-79122000D01*
X136128000Y-80462000D02*
X136128000Y-79562000D01*
X136128000Y-79562000D02*
X136978000Y-79562000D01*
X136978000Y-79562000D02*
X136978000Y-79262000D01*
X136978000Y-79262000D02*
X137228000Y-79262000D01*
X140578000Y-82182000D02*
X137298000Y-82182000D01*
X140388000Y-78268447D02*
X140138000Y-78622000D01*
X140138000Y-78622000D02*
X139888000Y-78268447D01*
X139888000Y-78268447D02*
X140388000Y-78268447D01*
%TO.C,J6*%
X163389000Y-59501000D02*
X163389000Y-53021000D01*
X161169000Y-51851000D02*
X161169000Y-52951000D01*
X161619000Y-51851000D02*
X161169000Y-51851000D01*
X161169000Y-59571000D02*
X160779000Y-59571000D01*
X161169000Y-60671000D02*
X161169000Y-59571000D01*
X161619000Y-60671000D02*
X161169000Y-60671000D01*
%TO.C,J5*%
X126171000Y-54037000D02*
X126171000Y-60517000D01*
X128391000Y-61687000D02*
X128391000Y-60587000D01*
X127941000Y-61687000D02*
X128391000Y-61687000D01*
X128391000Y-53967000D02*
X128781000Y-53967000D01*
X128391000Y-52867000D02*
X128391000Y-53967000D01*
X127941000Y-52867000D02*
X128391000Y-52867000D01*
%TO.C,J9*%
X159421447Y-71694000D02*
X159421447Y-71194000D01*
X159775000Y-71444000D02*
X159421447Y-71694000D01*
X159421447Y-71194000D02*
X159775000Y-71444000D01*
X163335000Y-71004000D02*
X163335000Y-74284000D01*
X160415000Y-74604000D02*
X160415000Y-74354000D01*
X160715000Y-74604000D02*
X160415000Y-74604000D01*
X160715000Y-75454000D02*
X160715000Y-74604000D01*
X161615000Y-75454000D02*
X160715000Y-75454000D01*
X160415000Y-70934000D02*
X160275000Y-70934000D01*
X160415000Y-70684000D02*
X160415000Y-70934000D01*
X160715000Y-70684000D02*
X160415000Y-70684000D01*
X160715000Y-69834000D02*
X160715000Y-70684000D01*
X161615000Y-69834000D02*
X160715000Y-69834000D01*
%TO.C,J8*%
X159421447Y-64201000D02*
X159421447Y-63701000D01*
X159775000Y-63951000D02*
X159421447Y-64201000D01*
X159421447Y-63701000D02*
X159775000Y-63951000D01*
X163335000Y-63511000D02*
X163335000Y-66791000D01*
X160415000Y-67111000D02*
X160415000Y-66861000D01*
X160715000Y-67111000D02*
X160415000Y-67111000D01*
X160715000Y-67961000D02*
X160715000Y-67111000D01*
X161615000Y-67961000D02*
X160715000Y-67961000D01*
X160415000Y-63441000D02*
X160275000Y-63441000D01*
X160415000Y-63191000D02*
X160415000Y-63441000D01*
X160715000Y-63191000D02*
X160415000Y-63191000D01*
X160715000Y-62341000D02*
X160715000Y-63191000D01*
X161615000Y-62341000D02*
X160715000Y-62341000D01*
%TO.C,J4*%
X150937000Y-78268447D02*
X151437000Y-78268447D01*
X151187000Y-78622000D02*
X150937000Y-78268447D01*
X151437000Y-78268447D02*
X151187000Y-78622000D01*
X151627000Y-82182000D02*
X148347000Y-82182000D01*
X148027000Y-79262000D02*
X148277000Y-79262000D01*
X148027000Y-79562000D02*
X148027000Y-79262000D01*
X147177000Y-79562000D02*
X148027000Y-79562000D01*
X147177000Y-80462000D02*
X147177000Y-79562000D01*
X151697000Y-79262000D02*
X151697000Y-79122000D01*
X151947000Y-79262000D02*
X151697000Y-79262000D01*
X151947000Y-79562000D02*
X151947000Y-79262000D01*
X152797000Y-79562000D02*
X151947000Y-79562000D01*
X152797000Y-80462000D02*
X152797000Y-79562000D01*
%TO.C,R13*%
X147194000Y-70839359D02*
X147194000Y-71146641D01*
X147954000Y-70839359D02*
X147954000Y-71146641D01*
%TO.C,R7*%
X138403359Y-66674000D02*
X138710641Y-66674000D01*
X138403359Y-65914000D02*
X138710641Y-65914000D01*
%TO.C,R6*%
X136371359Y-66674000D02*
X136678641Y-66674000D01*
X136371359Y-65914000D02*
X136678641Y-65914000D01*
%TO.C,D5*%
X132731000Y-55408000D02*
X134731000Y-55408000D01*
X134731000Y-55408000D02*
X134731000Y-59308000D01*
X132731000Y-55408000D02*
X132731000Y-59308000D01*
%TO.C,C17*%
X145944000Y-70885164D02*
X145944000Y-71100836D01*
X146664000Y-70885164D02*
X146664000Y-71100836D01*
%TO.C,C9*%
X138068164Y-46715000D02*
X138283836Y-46715000D01*
X138068164Y-45995000D02*
X138283836Y-45995000D01*
%TO.C,J2*%
X131263000Y-73668000D02*
X129343000Y-73668000D01*
X129343000Y-64508000D02*
X131263000Y-64508000D01*
X127333000Y-64508000D02*
X125628000Y-64508000D01*
X125628000Y-73668000D02*
X127333000Y-73668000D01*
X125628000Y-64508000D02*
X125628000Y-73668000D01*
%TO.C,J1*%
D16*
X154773093Y-45906062D02*
X154773093Y-46621011D01*
X154820756Y-46764001D01*
X154916082Y-46859327D01*
X155059072Y-46906991D01*
X155154399Y-46906991D01*
X153772164Y-46906991D02*
X154344123Y-46906991D01*
X154058143Y-46906991D02*
X154058143Y-45906062D01*
X154153470Y-46049052D01*
X154248796Y-46144378D01*
X154344123Y-46192041D01*
%TO.C,R13*%
X147918714Y-68344142D02*
X147555857Y-68090142D01*
X147918714Y-67908714D02*
X147156714Y-67908714D01*
X147156714Y-68199000D01*
X147193000Y-68271571D01*
X147229285Y-68307857D01*
X147301857Y-68344142D01*
X147410714Y-68344142D01*
X147483285Y-68307857D01*
X147519571Y-68271571D01*
X147555857Y-68199000D01*
X147555857Y-67908714D01*
X147918714Y-69069857D02*
X147918714Y-68634428D01*
X147918714Y-68852142D02*
X147156714Y-68852142D01*
X147265571Y-68779571D01*
X147338142Y-68707000D01*
X147374428Y-68634428D01*
X147156714Y-69323857D02*
X147156714Y-69795571D01*
X147447000Y-69541571D01*
X147447000Y-69650428D01*
X147483285Y-69723000D01*
X147519571Y-69759285D01*
X147592142Y-69795571D01*
X147773571Y-69795571D01*
X147846142Y-69759285D01*
X147882428Y-69723000D01*
X147918714Y-69650428D01*
X147918714Y-69432714D01*
X147882428Y-69360142D01*
X147846142Y-69323857D01*
%TO.C,R7*%
X138684000Y-67808714D02*
X138938000Y-67445857D01*
X139119428Y-67808714D02*
X139119428Y-67046714D01*
X138829142Y-67046714D01*
X138756571Y-67083000D01*
X138720285Y-67119285D01*
X138684000Y-67191857D01*
X138684000Y-67300714D01*
X138720285Y-67373285D01*
X138756571Y-67409571D01*
X138829142Y-67445857D01*
X139119428Y-67445857D01*
X138430000Y-67046714D02*
X137922000Y-67046714D01*
X138248571Y-67808714D01*
%TO.C,R6*%
X136652000Y-67808714D02*
X136906000Y-67445857D01*
X137087428Y-67808714D02*
X137087428Y-67046714D01*
X136797142Y-67046714D01*
X136724571Y-67083000D01*
X136688285Y-67119285D01*
X136652000Y-67191857D01*
X136652000Y-67300714D01*
X136688285Y-67373285D01*
X136724571Y-67409571D01*
X136797142Y-67445857D01*
X137087428Y-67445857D01*
X135998857Y-67046714D02*
X136144000Y-67046714D01*
X136216571Y-67083000D01*
X136252857Y-67119285D01*
X136325428Y-67228142D01*
X136361714Y-67373285D01*
X136361714Y-67663571D01*
X136325428Y-67736142D01*
X136289142Y-67772428D01*
X136216571Y-67808714D01*
X136071428Y-67808714D01*
X135998857Y-67772428D01*
X135962571Y-67736142D01*
X135926285Y-67663571D01*
X135926285Y-67482142D01*
X135962571Y-67409571D01*
X135998857Y-67373285D01*
X136071428Y-67337000D01*
X136216571Y-67337000D01*
X136289142Y-67373285D01*
X136325428Y-67409571D01*
X136361714Y-67482142D01*
%TO.C,D5*%
X134075714Y-53793571D02*
X133313714Y-53793571D01*
X133313714Y-53975000D01*
X133350000Y-54083857D01*
X133422571Y-54156428D01*
X133495142Y-54192714D01*
X133640285Y-54229000D01*
X133749142Y-54229000D01*
X133894285Y-54192714D01*
X133966857Y-54156428D01*
X134039428Y-54083857D01*
X134075714Y-53975000D01*
X134075714Y-53793571D01*
X133313714Y-54918428D02*
X133313714Y-54555571D01*
X133676571Y-54519285D01*
X133640285Y-54555571D01*
X133604000Y-54628142D01*
X133604000Y-54809571D01*
X133640285Y-54882142D01*
X133676571Y-54918428D01*
X133749142Y-54954714D01*
X133930571Y-54954714D01*
X134003142Y-54918428D01*
X134039428Y-54882142D01*
X134075714Y-54809571D01*
X134075714Y-54628142D01*
X134039428Y-54555571D01*
X134003142Y-54519285D01*
%TO.C,C17*%
X146703142Y-68344142D02*
X146739428Y-68307857D01*
X146775714Y-68199000D01*
X146775714Y-68126428D01*
X146739428Y-68017571D01*
X146666857Y-67945000D01*
X146594285Y-67908714D01*
X146449142Y-67872428D01*
X146340285Y-67872428D01*
X146195142Y-67908714D01*
X146122571Y-67945000D01*
X146050000Y-68017571D01*
X146013714Y-68126428D01*
X146013714Y-68199000D01*
X146050000Y-68307857D01*
X146086285Y-68344142D01*
X146775714Y-69069857D02*
X146775714Y-68634428D01*
X146775714Y-68852142D02*
X146013714Y-68852142D01*
X146122571Y-68779571D01*
X146195142Y-68707000D01*
X146231428Y-68634428D01*
X146013714Y-69323857D02*
X146013714Y-69831857D01*
X146775714Y-69505285D01*
%TO.C,C9*%
X136525000Y-46627142D02*
X136561285Y-46663428D01*
X136670142Y-46699714D01*
X136742714Y-46699714D01*
X136851571Y-46663428D01*
X136924142Y-46590857D01*
X136960428Y-46518285D01*
X136996714Y-46373142D01*
X136996714Y-46264285D01*
X136960428Y-46119142D01*
X136924142Y-46046571D01*
X136851571Y-45974000D01*
X136742714Y-45937714D01*
X136670142Y-45937714D01*
X136561285Y-45974000D01*
X136525000Y-46010285D01*
X136162142Y-46699714D02*
X136017000Y-46699714D01*
X135944428Y-46663428D01*
X135908142Y-46627142D01*
X135835571Y-46518285D01*
X135799285Y-46373142D01*
X135799285Y-46082857D01*
X135835571Y-46010285D01*
X135871857Y-45974000D01*
X135944428Y-45937714D01*
X136089571Y-45937714D01*
X136162142Y-45974000D01*
X136198428Y-46010285D01*
X136234714Y-46082857D01*
X136234714Y-46264285D01*
X136198428Y-46336857D01*
X136162142Y-46373142D01*
X136089571Y-46409428D01*
X135944428Y-46409428D01*
X135871857Y-46373142D01*
X135835571Y-46336857D01*
X135799285Y-46264285D01*
%TD*%
M02*
