%TF.GenerationSoftware,KiCad,Pcbnew,(5.1.10)-1*%
%TF.CreationDate,2022-07-29T22:32:47-04:00*%
%TF.ProjectId,MicroMod_Extension,4d696372-6f4d-46f6-945f-457874656e73,rev?*%
%TF.SameCoordinates,Original*%
%TF.FileFunction,Legend,Top*%
%TF.FilePolarity,Positive*%
%FSLAX46Y46*%
G04 Gerber Fmt 4.6, Leading zero omitted, Abs format (unit mm)*
G04 Created by KiCad (PCBNEW (5.1.10)-1) date 2022-07-29 22:32:47*
%MOMM*%
%LPD*%
G01*
G04 APERTURE LIST*
%ADD10C,0.203200*%
%ADD11C,0.200000*%
%ADD12C,0.500000*%
%ADD13C,0.127000*%
%ADD14C,0.150000*%
%ADD15C,0.120000*%
%ADD16C,0.250000*%
%ADD17C,0.080000*%
%ADD18C,0.115824*%
G04 APERTURE END LIST*
D10*
X154583190Y-45163619D02*
X154583190Y-44147619D01*
X155018619Y-44244380D02*
X155067000Y-44196000D01*
X155163761Y-44147619D01*
X155405666Y-44147619D01*
X155502428Y-44196000D01*
X155550809Y-44244380D01*
X155599190Y-44341142D01*
X155599190Y-44437904D01*
X155550809Y-44583047D01*
X154970238Y-45163619D01*
X155599190Y-45163619D01*
X156615190Y-45066857D02*
X156566809Y-45115238D01*
X156421666Y-45163619D01*
X156324904Y-45163619D01*
X156179761Y-45115238D01*
X156083000Y-45018476D01*
X156034619Y-44921714D01*
X155986238Y-44728190D01*
X155986238Y-44583047D01*
X156034619Y-44389523D01*
X156083000Y-44292761D01*
X156179761Y-44196000D01*
X156324904Y-44147619D01*
X156421666Y-44147619D01*
X156566809Y-44196000D01*
X156615190Y-44244380D01*
X136156095Y-45115238D02*
X136301238Y-45163619D01*
X136543142Y-45163619D01*
X136639904Y-45115238D01*
X136688285Y-45066857D01*
X136736666Y-44970095D01*
X136736666Y-44873333D01*
X136688285Y-44776571D01*
X136639904Y-44728190D01*
X136543142Y-44679809D01*
X136349619Y-44631428D01*
X136252857Y-44583047D01*
X136204476Y-44534666D01*
X136156095Y-44437904D01*
X136156095Y-44341142D01*
X136204476Y-44244380D01*
X136252857Y-44196000D01*
X136349619Y-44147619D01*
X136591523Y-44147619D01*
X136736666Y-44196000D01*
X137026952Y-44147619D02*
X137607523Y-44147619D01*
X137317238Y-45163619D02*
X137317238Y-44147619D01*
X137946190Y-45163619D02*
X137946190Y-44147619D01*
X138284857Y-44873333D01*
X138623523Y-44147619D01*
X138623523Y-45163619D01*
D11*
X151543142Y-82367380D02*
X151543142Y-81367380D01*
X151924095Y-81367380D01*
X152019333Y-81415000D01*
X152066952Y-81462619D01*
X152114571Y-81557857D01*
X152114571Y-81700714D01*
X152066952Y-81795952D01*
X152019333Y-81843571D01*
X151924095Y-81891190D01*
X151543142Y-81891190D01*
X152733619Y-81367380D02*
X152924095Y-81367380D01*
X153019333Y-81415000D01*
X153114571Y-81510238D01*
X153162190Y-81700714D01*
X153162190Y-82034047D01*
X153114571Y-82224523D01*
X153019333Y-82319761D01*
X152924095Y-82367380D01*
X152733619Y-82367380D01*
X152638380Y-82319761D01*
X152543142Y-82224523D01*
X152495523Y-82034047D01*
X152495523Y-81700714D01*
X152543142Y-81510238D01*
X152638380Y-81415000D01*
X152733619Y-81367380D01*
X153590761Y-82367380D02*
X153590761Y-81367380D01*
X153828857Y-81367380D01*
X153971714Y-81415000D01*
X154066952Y-81510238D01*
X154114571Y-81605476D01*
X154162190Y-81795952D01*
X154162190Y-81938809D01*
X154114571Y-82129285D01*
X154066952Y-82224523D01*
X153971714Y-82319761D01*
X153828857Y-82367380D01*
X153590761Y-82367380D01*
X154590761Y-82272142D02*
X154638380Y-82319761D01*
X154590761Y-82367380D01*
X154543142Y-82319761D01*
X154590761Y-82272142D01*
X154590761Y-82367380D01*
X154924095Y-81367380D02*
X155257428Y-82367380D01*
X155590761Y-81367380D01*
X156447904Y-82367380D02*
X155876476Y-82367380D01*
X156162190Y-82367380D02*
X156162190Y-81367380D01*
X156066952Y-81510238D01*
X155971714Y-81605476D01*
X155876476Y-81653095D01*
X156876476Y-82272142D02*
X156924095Y-82319761D01*
X156876476Y-82367380D01*
X156828857Y-82319761D01*
X156876476Y-82272142D01*
X156876476Y-82367380D01*
X157876476Y-82367380D02*
X157305047Y-82367380D01*
X157590761Y-82367380D02*
X157590761Y-81367380D01*
X157495523Y-81510238D01*
X157400285Y-81605476D01*
X157305047Y-81653095D01*
D12*
X154178142Y-75938142D02*
X156463857Y-76795285D01*
X154178142Y-77652428D01*
D13*
%TO.C,Y1*%
X141117000Y-66621000D02*
X141117000Y-66221000D01*
X143617000Y-66621000D02*
X143617000Y-66221000D01*
D11*
X143267000Y-68821000D02*
G75*
G03*
X143267000Y-68821000I-100000J0D01*
G01*
D13*
%TO.C,U7*%
X149459000Y-51078000D02*
X149459000Y-51633000D01*
X149459000Y-53523000D02*
X149459000Y-54078000D01*
X146959000Y-53523000D02*
X146959000Y-54078000D01*
X146959000Y-51078000D02*
X146959000Y-51633000D01*
X149459000Y-51078000D02*
X149404000Y-51078000D01*
X149459000Y-54078000D02*
X149404000Y-54078000D01*
X147014000Y-54078000D02*
X146959000Y-54078000D01*
X147014000Y-51078000D02*
X146959000Y-51078000D01*
D14*
X149184000Y-50578000D02*
G75*
G03*
X149184000Y-50578000I-75000J0D01*
G01*
D13*
%TO.C,FL1*%
X145620000Y-72625000D02*
X145620000Y-73425000D01*
X143940000Y-73425000D02*
X143940000Y-72625000D01*
D11*
X145380000Y-71675000D02*
G75*
G03*
X145380000Y-71675000I-100000J0D01*
G01*
D15*
%TO.C,J10*%
X153305000Y-46030000D02*
X153305000Y-46930000D01*
X153305000Y-46930000D02*
X152455000Y-46930000D01*
X152455000Y-46930000D02*
X152455000Y-47230000D01*
X152455000Y-47230000D02*
X152205000Y-47230000D01*
X152205000Y-47230000D02*
X152205000Y-47370000D01*
X147685000Y-46030000D02*
X147685000Y-46930000D01*
X147685000Y-46930000D02*
X148535000Y-46930000D01*
X148535000Y-46930000D02*
X148535000Y-47230000D01*
X148535000Y-47230000D02*
X148785000Y-47230000D01*
X152135000Y-44310000D02*
X148855000Y-44310000D01*
X151945000Y-48223553D02*
X151695000Y-47870000D01*
X151695000Y-47870000D02*
X151445000Y-48223553D01*
X151445000Y-48223553D02*
X151945000Y-48223553D01*
D11*
%TO.C,U8*%
X152069000Y-50546000D02*
G75*
G03*
X152069000Y-50546000I-50000J0D01*
G01*
D13*
X152511000Y-53070000D02*
X152166000Y-53070000D01*
X150846000Y-53070000D02*
X150511000Y-53070000D01*
X152511000Y-51070000D02*
X152511000Y-51185000D01*
X152511000Y-52955000D02*
X152511000Y-53070000D01*
X152511000Y-51070000D02*
X152166000Y-51070000D01*
X150511000Y-51070000D02*
X150846000Y-51070000D01*
X150511000Y-51185000D02*
X150511000Y-51070000D01*
X150511000Y-53070000D02*
X150511000Y-52955000D01*
D15*
%TO.C,J11*%
X145304000Y-46030000D02*
X145304000Y-46930000D01*
X145304000Y-46930000D02*
X144454000Y-46930000D01*
X144454000Y-46930000D02*
X144454000Y-47230000D01*
X144454000Y-47230000D02*
X144204000Y-47230000D01*
X144204000Y-47230000D02*
X144204000Y-47370000D01*
X139684000Y-46030000D02*
X139684000Y-46930000D01*
X139684000Y-46930000D02*
X140534000Y-46930000D01*
X140534000Y-46930000D02*
X140534000Y-47230000D01*
X140534000Y-47230000D02*
X140784000Y-47230000D01*
X144134000Y-44310000D02*
X140854000Y-44310000D01*
X143944000Y-48223553D02*
X143694000Y-47870000D01*
X143694000Y-47870000D02*
X143444000Y-48223553D01*
X143444000Y-48223553D02*
X143944000Y-48223553D01*
%TO.C,TP7*%
X162306000Y-78740000D02*
G75*
G03*
X162306000Y-78740000I-2286000J0D01*
G01*
%TO.C,TP6*%
X162306000Y-48260000D02*
G75*
G03*
X162306000Y-48260000I-2286000J0D01*
G01*
%TO.C,TP5*%
X131826000Y-78740000D02*
G75*
G03*
X131826000Y-78740000I-2286000J0D01*
G01*
%TO.C,TP4*%
X131826000Y-48260000D02*
G75*
G03*
X131826000Y-48260000I-2286000J0D01*
G01*
%TO.C,U2*%
X142260000Y-70296000D02*
X142810000Y-70296000D01*
X142810000Y-70296000D02*
X142810000Y-70846000D01*
X137140000Y-76516000D02*
X136590000Y-76516000D01*
X136590000Y-76516000D02*
X136590000Y-75966000D01*
X142260000Y-76516000D02*
X142810000Y-76516000D01*
X142810000Y-76516000D02*
X142810000Y-75966000D01*
X137140000Y-70296000D02*
X136590000Y-70296000D01*
%TO.C,C25*%
X146452000Y-61448836D02*
X146452000Y-61233164D01*
X147172000Y-61448836D02*
X147172000Y-61233164D01*
%TO.C,C24*%
X153183000Y-52558836D02*
X153183000Y-52343164D01*
X153903000Y-52558836D02*
X153903000Y-52343164D01*
%TO.C,C23*%
X151237836Y-54589000D02*
X151022164Y-54589000D01*
X151237836Y-53869000D02*
X151022164Y-53869000D01*
%TO.C,C18*%
X135643252Y-58393000D02*
X135120748Y-58393000D01*
X135643252Y-56923000D02*
X135120748Y-56923000D01*
%TO.C,C1*%
X146029000Y-53359164D02*
X146029000Y-53574836D01*
X145309000Y-53359164D02*
X145309000Y-53574836D01*
%TO.C,U6*%
X142082000Y-59196000D02*
X139652000Y-59196000D01*
X140322000Y-62266000D02*
X142082000Y-62266000D01*
%TO.C,U5*%
X142104000Y-51068000D02*
X139674000Y-51068000D01*
X140344000Y-54138000D02*
X142104000Y-54138000D01*
%TO.C,U4*%
X129690000Y-62079000D02*
X129690000Y-60079000D01*
X131930000Y-60079000D02*
X131930000Y-61079000D01*
%TO.C,U3*%
X147303000Y-67605000D02*
X146853000Y-67605000D01*
X150073000Y-70825000D02*
X150073000Y-70375000D01*
X149623000Y-70825000D02*
X150073000Y-70825000D01*
X146853000Y-70825000D02*
X146853000Y-70375000D01*
X147303000Y-70825000D02*
X146853000Y-70825000D01*
X150073000Y-67605000D02*
X150073000Y-68055000D01*
X149623000Y-67605000D02*
X150073000Y-67605000D01*
%TO.C,TP3*%
X145480000Y-50927000D02*
G75*
G03*
X145480000Y-50927000I-700000J0D01*
G01*
%TO.C,TP2*%
X145480000Y-59055000D02*
G75*
G03*
X145480000Y-59055000I-700000J0D01*
G01*
%TO.C,TP1*%
X136082000Y-60579000D02*
G75*
G03*
X136082000Y-60579000I-700000J0D01*
G01*
D14*
%TO.C,SW1*%
X142303000Y-79403000D02*
X147003000Y-79403000D01*
X147003000Y-83903000D02*
X142303000Y-83903000D01*
X142303000Y-82953000D02*
X142303000Y-83903000D01*
X147003000Y-82953000D02*
X147003000Y-83903000D01*
D16*
X148828000Y-80303000D02*
G75*
G03*
X148828000Y-80303000I-125000J0D01*
G01*
D15*
%TO.C,R15*%
X133222000Y-62002641D02*
X133222000Y-61695359D01*
X132462000Y-62002641D02*
X132462000Y-61695359D01*
%TO.C,R14*%
X133222000Y-59843641D02*
X133222000Y-59536359D01*
X132462000Y-59843641D02*
X132462000Y-59536359D01*
%TO.C,R12*%
X135154641Y-64136000D02*
X134847359Y-64136000D01*
X135154641Y-64896000D02*
X134847359Y-64896000D01*
%TO.C,R11*%
X134847359Y-63626000D02*
X135154641Y-63626000D01*
X134847359Y-62866000D02*
X135154641Y-62866000D01*
%TO.C,R10*%
X156971000Y-49937641D02*
X156971000Y-49630359D01*
X156211000Y-49937641D02*
X156211000Y-49630359D01*
%TO.C,R9*%
X155574000Y-49937641D02*
X155574000Y-49630359D01*
X154814000Y-49937641D02*
X154814000Y-49630359D01*
%TO.C,R8*%
X134746000Y-49937641D02*
X134746000Y-49630359D01*
X133986000Y-49937641D02*
X133986000Y-49630359D01*
%TO.C,R5*%
X133349000Y-49937641D02*
X133349000Y-49630359D01*
X132589000Y-49937641D02*
X132589000Y-49630359D01*
%TO.C,R3*%
X130074641Y-67819000D02*
X129767359Y-67819000D01*
X130074641Y-68579000D02*
X129767359Y-68579000D01*
%TO.C,R2*%
X130074641Y-69089000D02*
X129767359Y-69089000D01*
X130074641Y-69849000D02*
X129767359Y-69849000D01*
%TO.C,R1*%
X137059641Y-79122000D02*
X136752359Y-79122000D01*
X137059641Y-79882000D02*
X136752359Y-79882000D01*
%TO.C,L5*%
X131833252Y-56167000D02*
X131310748Y-56167000D01*
X131833252Y-58387000D02*
X131310748Y-58387000D01*
D11*
%TO.C,J3*%
X160602000Y-62445000D02*
X160602000Y-62895000D01*
X160602000Y-60745000D02*
X160602000Y-60295000D01*
X163502000Y-62895000D02*
X163502000Y-60295000D01*
X159552000Y-61595000D02*
G75*
G03*
X159552000Y-61595000I-100000J0D01*
G01*
%TO.C,FL3*%
X151262000Y-68954000D02*
G75*
G03*
X151262000Y-68954000I-100000J0D01*
G01*
%TO.C,FL2*%
X151262000Y-71240000D02*
G75*
G03*
X151262000Y-71240000I-100000J0D01*
G01*
%TO.C,E1*%
X158844000Y-68834000D02*
G75*
G03*
X158844000Y-68834000I-100000J0D01*
G01*
D13*
X160564000Y-69634000D02*
X162524000Y-69634000D01*
X160564000Y-68034000D02*
X162524000Y-68034000D01*
D15*
%TO.C,D3*%
X130921000Y-62774000D02*
X130921000Y-66674000D01*
X128921000Y-62774000D02*
X128921000Y-66674000D01*
X130921000Y-62774000D02*
X128921000Y-62774000D01*
D10*
%TO.C,D1*%
X139001500Y-80549750D02*
X139001500Y-81502250D01*
D15*
%TO.C,C22*%
X143912000Y-53359164D02*
X143912000Y-53574836D01*
X144632000Y-53359164D02*
X144632000Y-53574836D01*
%TO.C,C21*%
X143912000Y-61233164D02*
X143912000Y-61448836D01*
X144632000Y-61233164D02*
X144632000Y-61448836D01*
%TO.C,C20*%
X138536000Y-60305836D02*
X138536000Y-60090164D01*
X137816000Y-60305836D02*
X137816000Y-60090164D01*
%TO.C,C19*%
X137816000Y-52978164D02*
X137816000Y-53193836D01*
X138536000Y-52978164D02*
X138536000Y-53193836D01*
%TO.C,C16*%
X146071000Y-65932164D02*
X146071000Y-66147836D01*
X146791000Y-65932164D02*
X146791000Y-66147836D01*
%TO.C,C15*%
X147341000Y-65932164D02*
X147341000Y-66147836D01*
X148061000Y-65932164D02*
X148061000Y-66147836D01*
%TO.C,C14*%
X148611000Y-65932164D02*
X148611000Y-66147836D01*
X149331000Y-65932164D02*
X149331000Y-66147836D01*
%TO.C,C13*%
X135108836Y-65426000D02*
X134893164Y-65426000D01*
X135108836Y-66146000D02*
X134893164Y-66146000D01*
%TO.C,C12*%
X127742836Y-62759000D02*
X127527164Y-62759000D01*
X127742836Y-63479000D02*
X127527164Y-63479000D01*
%TO.C,C11*%
X155936836Y-68474000D02*
X155721164Y-68474000D01*
X155936836Y-69194000D02*
X155721164Y-69194000D01*
%TO.C,C7*%
X144545164Y-71353000D02*
X144760836Y-71353000D01*
X144545164Y-70633000D02*
X144760836Y-70633000D01*
%TO.C,C6*%
X136798164Y-78592000D02*
X137013836Y-78592000D01*
X136798164Y-77872000D02*
X137013836Y-77872000D01*
%TO.C,U1*%
X151425000Y-59806000D02*
X151425000Y-61606000D01*
X154645000Y-61606000D02*
X154645000Y-59156000D01*
%TO.C,C5*%
X140187000Y-67456164D02*
X140187000Y-67671836D01*
X139467000Y-67456164D02*
X139467000Y-67671836D01*
%TO.C,C4*%
X145141836Y-75036000D02*
X144926164Y-75036000D01*
X145141836Y-74316000D02*
X144926164Y-74316000D01*
%TO.C,C3*%
X140187000Y-65170164D02*
X140187000Y-65385836D01*
X139467000Y-65170164D02*
X139467000Y-65385836D01*
%TO.C,C2*%
X144801000Y-66147836D02*
X144801000Y-65932164D01*
X145521000Y-66147836D02*
X145521000Y-65932164D01*
%TO.C,Y1*%
D17*
X140456180Y-67657380D02*
X140608561Y-67657380D01*
X140288561Y-67764047D02*
X140456180Y-67657380D01*
X140288561Y-67550714D01*
X140608561Y-67276428D02*
X140608561Y-67459285D01*
X140608561Y-67367857D02*
X140288561Y-67367857D01*
X140334276Y-67398333D01*
X140364752Y-67428809D01*
X140379990Y-67459285D01*
D14*
%TO.C,U7*%
X148112523Y-50652619D02*
X148630619Y-50652619D01*
X148691571Y-50622142D01*
X148722047Y-50591666D01*
X148752523Y-50530714D01*
X148752523Y-50408809D01*
X148722047Y-50347857D01*
X148691571Y-50317380D01*
X148630619Y-50286904D01*
X148112523Y-50286904D01*
X148112523Y-50043095D02*
X148112523Y-49616428D01*
X148752523Y-49890714D01*
%TO.C,FL1*%
X146594341Y-75939338D02*
X146594341Y-76272813D01*
X147118373Y-76272813D02*
X146117948Y-76272813D01*
X146117948Y-75796421D01*
X147118373Y-74938913D02*
X147118373Y-75415306D01*
X146117948Y-75415306D01*
X147118373Y-74081406D02*
X147118373Y-74653078D01*
X147118373Y-74367242D02*
X146117948Y-74367242D01*
X146260866Y-74462521D01*
X146356144Y-74557799D01*
X146403783Y-74653078D01*
%TO.C,U8*%
X150966714Y-50618571D02*
X151583571Y-50618571D01*
X151656142Y-50582285D01*
X151692428Y-50546000D01*
X151728714Y-50473428D01*
X151728714Y-50328285D01*
X151692428Y-50255714D01*
X151656142Y-50219428D01*
X151583571Y-50183142D01*
X150966714Y-50183142D01*
X151293285Y-49711428D02*
X151257000Y-49784000D01*
X151220714Y-49820285D01*
X151148142Y-49856571D01*
X151111857Y-49856571D01*
X151039285Y-49820285D01*
X151003000Y-49784000D01*
X150966714Y-49711428D01*
X150966714Y-49566285D01*
X151003000Y-49493714D01*
X151039285Y-49457428D01*
X151111857Y-49421142D01*
X151148142Y-49421142D01*
X151220714Y-49457428D01*
X151257000Y-49493714D01*
X151293285Y-49566285D01*
X151293285Y-49711428D01*
X151329571Y-49784000D01*
X151365857Y-49820285D01*
X151438428Y-49856571D01*
X151583571Y-49856571D01*
X151656142Y-49820285D01*
X151692428Y-49784000D01*
X151728714Y-49711428D01*
X151728714Y-49566285D01*
X151692428Y-49493714D01*
X151656142Y-49457428D01*
X151583571Y-49421142D01*
X151438428Y-49421142D01*
X151365857Y-49457428D01*
X151329571Y-49493714D01*
X151293285Y-49566285D01*
%TO.C,U2*%
X134801428Y-70067714D02*
X134801428Y-70684571D01*
X134837714Y-70757142D01*
X134874000Y-70793428D01*
X134946571Y-70829714D01*
X135091714Y-70829714D01*
X135164285Y-70793428D01*
X135200571Y-70757142D01*
X135236857Y-70684571D01*
X135236857Y-70067714D01*
X135563428Y-70140285D02*
X135599714Y-70104000D01*
X135672285Y-70067714D01*
X135853714Y-70067714D01*
X135926285Y-70104000D01*
X135962571Y-70140285D01*
X135998857Y-70212857D01*
X135998857Y-70285428D01*
X135962571Y-70394285D01*
X135527142Y-70829714D01*
X135998857Y-70829714D01*
%TO.C,L2*%
X149569714Y-61722000D02*
X149569714Y-62084857D01*
X148807714Y-62084857D01*
X148880285Y-61504285D02*
X148844000Y-61468000D01*
X148807714Y-61395428D01*
X148807714Y-61214000D01*
X148844000Y-61141428D01*
X148880285Y-61105142D01*
X148952857Y-61068857D01*
X149025428Y-61068857D01*
X149134285Y-61105142D01*
X149569714Y-61540571D01*
X149569714Y-61068857D01*
%TO.C,C25*%
X150767142Y-61703857D02*
X150803428Y-61740142D01*
X150839714Y-61849000D01*
X150839714Y-61921571D01*
X150803428Y-62030428D01*
X150730857Y-62103000D01*
X150658285Y-62139285D01*
X150513142Y-62175571D01*
X150404285Y-62175571D01*
X150259142Y-62139285D01*
X150186571Y-62103000D01*
X150114000Y-62030428D01*
X150077714Y-61921571D01*
X150077714Y-61849000D01*
X150114000Y-61740142D01*
X150150285Y-61703857D01*
X150150285Y-61413571D02*
X150114000Y-61377285D01*
X150077714Y-61304714D01*
X150077714Y-61123285D01*
X150114000Y-61050714D01*
X150150285Y-61014428D01*
X150222857Y-60978142D01*
X150295428Y-60978142D01*
X150404285Y-61014428D01*
X150839714Y-61449857D01*
X150839714Y-60978142D01*
X150077714Y-60288714D02*
X150077714Y-60651571D01*
X150440571Y-60687857D01*
X150404285Y-60651571D01*
X150368000Y-60579000D01*
X150368000Y-60397571D01*
X150404285Y-60325000D01*
X150440571Y-60288714D01*
X150513142Y-60252428D01*
X150694571Y-60252428D01*
X150767142Y-60288714D01*
X150803428Y-60325000D01*
X150839714Y-60397571D01*
X150839714Y-60579000D01*
X150803428Y-60651571D01*
X150767142Y-60687857D01*
%TO.C,C24*%
X153815142Y-50781857D02*
X153851428Y-50818142D01*
X153887714Y-50927000D01*
X153887714Y-50999571D01*
X153851428Y-51108428D01*
X153778857Y-51181000D01*
X153706285Y-51217285D01*
X153561142Y-51253571D01*
X153452285Y-51253571D01*
X153307142Y-51217285D01*
X153234571Y-51181000D01*
X153162000Y-51108428D01*
X153125714Y-50999571D01*
X153125714Y-50927000D01*
X153162000Y-50818142D01*
X153198285Y-50781857D01*
X153198285Y-50491571D02*
X153162000Y-50455285D01*
X153125714Y-50382714D01*
X153125714Y-50201285D01*
X153162000Y-50128714D01*
X153198285Y-50092428D01*
X153270857Y-50056142D01*
X153343428Y-50056142D01*
X153452285Y-50092428D01*
X153887714Y-50527857D01*
X153887714Y-50056142D01*
X153379714Y-49403000D02*
X153887714Y-49403000D01*
X153089428Y-49584428D02*
X153633714Y-49765857D01*
X153633714Y-49294142D01*
%TO.C,C23*%
X152799142Y-54628142D02*
X152762857Y-54664428D01*
X152654000Y-54700714D01*
X152581428Y-54700714D01*
X152472571Y-54664428D01*
X152400000Y-54591857D01*
X152363714Y-54519285D01*
X152327428Y-54374142D01*
X152327428Y-54265285D01*
X152363714Y-54120142D01*
X152400000Y-54047571D01*
X152472571Y-53975000D01*
X152581428Y-53938714D01*
X152654000Y-53938714D01*
X152762857Y-53975000D01*
X152799142Y-54011285D01*
X153089428Y-54011285D02*
X153125714Y-53975000D01*
X153198285Y-53938714D01*
X153379714Y-53938714D01*
X153452285Y-53975000D01*
X153488571Y-54011285D01*
X153524857Y-54083857D01*
X153524857Y-54156428D01*
X153488571Y-54265285D01*
X153053142Y-54700714D01*
X153524857Y-54700714D01*
X153778857Y-53938714D02*
X154250571Y-53938714D01*
X153996571Y-54229000D01*
X154105428Y-54229000D01*
X154178000Y-54265285D01*
X154214285Y-54301571D01*
X154250571Y-54374142D01*
X154250571Y-54555571D01*
X154214285Y-54628142D01*
X154178000Y-54664428D01*
X154105428Y-54700714D01*
X153887714Y-54700714D01*
X153815142Y-54664428D01*
X153778857Y-54628142D01*
%TO.C,C18*%
X134892142Y-56279142D02*
X134855857Y-56315428D01*
X134747000Y-56351714D01*
X134674428Y-56351714D01*
X134565571Y-56315428D01*
X134493000Y-56242857D01*
X134456714Y-56170285D01*
X134420428Y-56025142D01*
X134420428Y-55916285D01*
X134456714Y-55771142D01*
X134493000Y-55698571D01*
X134565571Y-55626000D01*
X134674428Y-55589714D01*
X134747000Y-55589714D01*
X134855857Y-55626000D01*
X134892142Y-55662285D01*
X135617857Y-56351714D02*
X135182428Y-56351714D01*
X135400142Y-56351714D02*
X135400142Y-55589714D01*
X135327571Y-55698571D01*
X135255000Y-55771142D01*
X135182428Y-55807428D01*
X136053285Y-55916285D02*
X135980714Y-55880000D01*
X135944428Y-55843714D01*
X135908142Y-55771142D01*
X135908142Y-55734857D01*
X135944428Y-55662285D01*
X135980714Y-55626000D01*
X136053285Y-55589714D01*
X136198428Y-55589714D01*
X136271000Y-55626000D01*
X136307285Y-55662285D01*
X136343571Y-55734857D01*
X136343571Y-55771142D01*
X136307285Y-55843714D01*
X136271000Y-55880000D01*
X136198428Y-55916285D01*
X136053285Y-55916285D01*
X135980714Y-55952571D01*
X135944428Y-55988857D01*
X135908142Y-56061428D01*
X135908142Y-56206571D01*
X135944428Y-56279142D01*
X135980714Y-56315428D01*
X136053285Y-56351714D01*
X136198428Y-56351714D01*
X136271000Y-56315428D01*
X136307285Y-56279142D01*
X136343571Y-56206571D01*
X136343571Y-56061428D01*
X136307285Y-55988857D01*
X136271000Y-55952571D01*
X136198428Y-55916285D01*
%TO.C,C1*%
X146068142Y-55245000D02*
X146104428Y-55281285D01*
X146140714Y-55390142D01*
X146140714Y-55462714D01*
X146104428Y-55571571D01*
X146031857Y-55644142D01*
X145959285Y-55680428D01*
X145814142Y-55716714D01*
X145705285Y-55716714D01*
X145560142Y-55680428D01*
X145487571Y-55644142D01*
X145415000Y-55571571D01*
X145378714Y-55462714D01*
X145378714Y-55390142D01*
X145415000Y-55281285D01*
X145451285Y-55245000D01*
X146140714Y-54519285D02*
X146140714Y-54954714D01*
X146140714Y-54737000D02*
X145378714Y-54737000D01*
X145487571Y-54809571D01*
X145560142Y-54882142D01*
X145596428Y-54954714D01*
%TO.C,U6*%
X139097428Y-57965714D02*
X139097428Y-58582571D01*
X139133714Y-58655142D01*
X139170000Y-58691428D01*
X139242571Y-58727714D01*
X139387714Y-58727714D01*
X139460285Y-58691428D01*
X139496571Y-58655142D01*
X139532857Y-58582571D01*
X139532857Y-57965714D01*
X140222285Y-57965714D02*
X140077142Y-57965714D01*
X140004571Y-58002000D01*
X139968285Y-58038285D01*
X139895714Y-58147142D01*
X139859428Y-58292285D01*
X139859428Y-58582571D01*
X139895714Y-58655142D01*
X139932000Y-58691428D01*
X140004571Y-58727714D01*
X140149714Y-58727714D01*
X140222285Y-58691428D01*
X140258571Y-58655142D01*
X140294857Y-58582571D01*
X140294857Y-58401142D01*
X140258571Y-58328571D01*
X140222285Y-58292285D01*
X140149714Y-58256000D01*
X140004571Y-58256000D01*
X139932000Y-58292285D01*
X139895714Y-58328571D01*
X139859428Y-58401142D01*
%TO.C,U5*%
X139119428Y-49837714D02*
X139119428Y-50454571D01*
X139155714Y-50527142D01*
X139192000Y-50563428D01*
X139264571Y-50599714D01*
X139409714Y-50599714D01*
X139482285Y-50563428D01*
X139518571Y-50527142D01*
X139554857Y-50454571D01*
X139554857Y-49837714D01*
X140280571Y-49837714D02*
X139917714Y-49837714D01*
X139881428Y-50200571D01*
X139917714Y-50164285D01*
X139990285Y-50128000D01*
X140171714Y-50128000D01*
X140244285Y-50164285D01*
X140280571Y-50200571D01*
X140316857Y-50273142D01*
X140316857Y-50454571D01*
X140280571Y-50527142D01*
X140244285Y-50563428D01*
X140171714Y-50599714D01*
X139990285Y-50599714D01*
X139917714Y-50563428D01*
X139881428Y-50527142D01*
%TO.C,U4*%
X128487714Y-61159571D02*
X129104571Y-61159571D01*
X129177142Y-61123285D01*
X129213428Y-61087000D01*
X129249714Y-61014428D01*
X129249714Y-60869285D01*
X129213428Y-60796714D01*
X129177142Y-60760428D01*
X129104571Y-60724142D01*
X128487714Y-60724142D01*
X128741714Y-60034714D02*
X129249714Y-60034714D01*
X128451428Y-60216142D02*
X128995714Y-60397571D01*
X128995714Y-59925857D01*
%TO.C,U3*%
X144961428Y-67527714D02*
X144961428Y-68144571D01*
X144997714Y-68217142D01*
X145034000Y-68253428D01*
X145106571Y-68289714D01*
X145251714Y-68289714D01*
X145324285Y-68253428D01*
X145360571Y-68217142D01*
X145396857Y-68144571D01*
X145396857Y-67527714D01*
X145687142Y-67527714D02*
X146158857Y-67527714D01*
X145904857Y-67818000D01*
X146013714Y-67818000D01*
X146086285Y-67854285D01*
X146122571Y-67890571D01*
X146158857Y-67963142D01*
X146158857Y-68144571D01*
X146122571Y-68217142D01*
X146086285Y-68253428D01*
X146013714Y-68289714D01*
X145796000Y-68289714D01*
X145723428Y-68253428D01*
X145687142Y-68217142D01*
%TO.C,SW1*%
X143625642Y-81461428D02*
X143734500Y-81497714D01*
X143915928Y-81497714D01*
X143988500Y-81461428D01*
X144024785Y-81425142D01*
X144061071Y-81352571D01*
X144061071Y-81280000D01*
X144024785Y-81207428D01*
X143988500Y-81171142D01*
X143915928Y-81134857D01*
X143770785Y-81098571D01*
X143698214Y-81062285D01*
X143661928Y-81026000D01*
X143625642Y-80953428D01*
X143625642Y-80880857D01*
X143661928Y-80808285D01*
X143698214Y-80772000D01*
X143770785Y-80735714D01*
X143952214Y-80735714D01*
X144061071Y-80772000D01*
X144315071Y-80735714D02*
X144496500Y-81497714D01*
X144641642Y-80953428D01*
X144786785Y-81497714D01*
X144968214Y-80735714D01*
X145657642Y-81497714D02*
X145222214Y-81497714D01*
X145439928Y-81497714D02*
X145439928Y-80735714D01*
X145367357Y-80844571D01*
X145294785Y-80917142D01*
X145222214Y-80953428D01*
%TO.C,R15*%
X134329714Y-62465857D02*
X133966857Y-62719857D01*
X134329714Y-62901285D02*
X133567714Y-62901285D01*
X133567714Y-62611000D01*
X133604000Y-62538428D01*
X133640285Y-62502142D01*
X133712857Y-62465857D01*
X133821714Y-62465857D01*
X133894285Y-62502142D01*
X133930571Y-62538428D01*
X133966857Y-62611000D01*
X133966857Y-62901285D01*
X134329714Y-61740142D02*
X134329714Y-62175571D01*
X134329714Y-61957857D02*
X133567714Y-61957857D01*
X133676571Y-62030428D01*
X133749142Y-62103000D01*
X133785428Y-62175571D01*
X133567714Y-61050714D02*
X133567714Y-61413571D01*
X133930571Y-61449857D01*
X133894285Y-61413571D01*
X133858000Y-61341000D01*
X133858000Y-61159571D01*
X133894285Y-61087000D01*
X133930571Y-61050714D01*
X134003142Y-61014428D01*
X134184571Y-61014428D01*
X134257142Y-61050714D01*
X134293428Y-61087000D01*
X134329714Y-61159571D01*
X134329714Y-61341000D01*
X134293428Y-61413571D01*
X134257142Y-61449857D01*
%TO.C,R14*%
X134329714Y-60052857D02*
X133966857Y-60306857D01*
X134329714Y-60488285D02*
X133567714Y-60488285D01*
X133567714Y-60198000D01*
X133604000Y-60125428D01*
X133640285Y-60089142D01*
X133712857Y-60052857D01*
X133821714Y-60052857D01*
X133894285Y-60089142D01*
X133930571Y-60125428D01*
X133966857Y-60198000D01*
X133966857Y-60488285D01*
X134329714Y-59327142D02*
X134329714Y-59762571D01*
X134329714Y-59544857D02*
X133567714Y-59544857D01*
X133676571Y-59617428D01*
X133749142Y-59690000D01*
X133785428Y-59762571D01*
X133821714Y-58674000D02*
X134329714Y-58674000D01*
X133531428Y-58855428D02*
X134075714Y-59036857D01*
X134075714Y-58565142D01*
%TO.C,R12*%
X136543142Y-64860714D02*
X136289142Y-64497857D01*
X136107714Y-64860714D02*
X136107714Y-64098714D01*
X136398000Y-64098714D01*
X136470571Y-64135000D01*
X136506857Y-64171285D01*
X136543142Y-64243857D01*
X136543142Y-64352714D01*
X136506857Y-64425285D01*
X136470571Y-64461571D01*
X136398000Y-64497857D01*
X136107714Y-64497857D01*
X137268857Y-64860714D02*
X136833428Y-64860714D01*
X137051142Y-64860714D02*
X137051142Y-64098714D01*
X136978571Y-64207571D01*
X136906000Y-64280142D01*
X136833428Y-64316428D01*
X137559142Y-64171285D02*
X137595428Y-64135000D01*
X137668000Y-64098714D01*
X137849428Y-64098714D01*
X137922000Y-64135000D01*
X137958285Y-64171285D01*
X137994571Y-64243857D01*
X137994571Y-64316428D01*
X137958285Y-64425285D01*
X137522857Y-64860714D01*
X137994571Y-64860714D01*
%TO.C,R11*%
X136543142Y-63590714D02*
X136289142Y-63227857D01*
X136107714Y-63590714D02*
X136107714Y-62828714D01*
X136398000Y-62828714D01*
X136470571Y-62865000D01*
X136506857Y-62901285D01*
X136543142Y-62973857D01*
X136543142Y-63082714D01*
X136506857Y-63155285D01*
X136470571Y-63191571D01*
X136398000Y-63227857D01*
X136107714Y-63227857D01*
X137268857Y-63590714D02*
X136833428Y-63590714D01*
X137051142Y-63590714D02*
X137051142Y-62828714D01*
X136978571Y-62937571D01*
X136906000Y-63010142D01*
X136833428Y-63046428D01*
X137994571Y-63590714D02*
X137559142Y-63590714D01*
X137776857Y-63590714D02*
X137776857Y-62828714D01*
X137704285Y-62937571D01*
X137631714Y-63010142D01*
X137559142Y-63046428D01*
%TO.C,R10*%
X156935714Y-52432857D02*
X156572857Y-52686857D01*
X156935714Y-52868285D02*
X156173714Y-52868285D01*
X156173714Y-52578000D01*
X156210000Y-52505428D01*
X156246285Y-52469142D01*
X156318857Y-52432857D01*
X156427714Y-52432857D01*
X156500285Y-52469142D01*
X156536571Y-52505428D01*
X156572857Y-52578000D01*
X156572857Y-52868285D01*
X156935714Y-51707142D02*
X156935714Y-52142571D01*
X156935714Y-51924857D02*
X156173714Y-51924857D01*
X156282571Y-51997428D01*
X156355142Y-52070000D01*
X156391428Y-52142571D01*
X156173714Y-51235428D02*
X156173714Y-51162857D01*
X156210000Y-51090285D01*
X156246285Y-51054000D01*
X156318857Y-51017714D01*
X156464000Y-50981428D01*
X156645428Y-50981428D01*
X156790571Y-51017714D01*
X156863142Y-51054000D01*
X156899428Y-51090285D01*
X156935714Y-51162857D01*
X156935714Y-51235428D01*
X156899428Y-51308000D01*
X156863142Y-51344285D01*
X156790571Y-51380571D01*
X156645428Y-51416857D01*
X156464000Y-51416857D01*
X156318857Y-51380571D01*
X156246285Y-51344285D01*
X156210000Y-51308000D01*
X156173714Y-51235428D01*
%TO.C,R9*%
X155538714Y-51689000D02*
X155175857Y-51943000D01*
X155538714Y-52124428D02*
X154776714Y-52124428D01*
X154776714Y-51834142D01*
X154813000Y-51761571D01*
X154849285Y-51725285D01*
X154921857Y-51689000D01*
X155030714Y-51689000D01*
X155103285Y-51725285D01*
X155139571Y-51761571D01*
X155175857Y-51834142D01*
X155175857Y-52124428D01*
X155538714Y-51326142D02*
X155538714Y-51181000D01*
X155502428Y-51108428D01*
X155466142Y-51072142D01*
X155357285Y-50999571D01*
X155212142Y-50963285D01*
X154921857Y-50963285D01*
X154849285Y-50999571D01*
X154813000Y-51035857D01*
X154776714Y-51108428D01*
X154776714Y-51253571D01*
X154813000Y-51326142D01*
X154849285Y-51362428D01*
X154921857Y-51398714D01*
X155103285Y-51398714D01*
X155175857Y-51362428D01*
X155212142Y-51326142D01*
X155248428Y-51253571D01*
X155248428Y-51108428D01*
X155212142Y-51035857D01*
X155175857Y-50999571D01*
X155103285Y-50963285D01*
%TO.C,R8*%
X134710714Y-51689000D02*
X134347857Y-51943000D01*
X134710714Y-52124428D02*
X133948714Y-52124428D01*
X133948714Y-51834142D01*
X133985000Y-51761571D01*
X134021285Y-51725285D01*
X134093857Y-51689000D01*
X134202714Y-51689000D01*
X134275285Y-51725285D01*
X134311571Y-51761571D01*
X134347857Y-51834142D01*
X134347857Y-52124428D01*
X134275285Y-51253571D02*
X134239000Y-51326142D01*
X134202714Y-51362428D01*
X134130142Y-51398714D01*
X134093857Y-51398714D01*
X134021285Y-51362428D01*
X133985000Y-51326142D01*
X133948714Y-51253571D01*
X133948714Y-51108428D01*
X133985000Y-51035857D01*
X134021285Y-50999571D01*
X134093857Y-50963285D01*
X134130142Y-50963285D01*
X134202714Y-50999571D01*
X134239000Y-51035857D01*
X134275285Y-51108428D01*
X134275285Y-51253571D01*
X134311571Y-51326142D01*
X134347857Y-51362428D01*
X134420428Y-51398714D01*
X134565571Y-51398714D01*
X134638142Y-51362428D01*
X134674428Y-51326142D01*
X134710714Y-51253571D01*
X134710714Y-51108428D01*
X134674428Y-51035857D01*
X134638142Y-50999571D01*
X134565571Y-50963285D01*
X134420428Y-50963285D01*
X134347857Y-50999571D01*
X134311571Y-51035857D01*
X134275285Y-51108428D01*
%TO.C,R5*%
X133440714Y-51689000D02*
X133077857Y-51943000D01*
X133440714Y-52124428D02*
X132678714Y-52124428D01*
X132678714Y-51834142D01*
X132715000Y-51761571D01*
X132751285Y-51725285D01*
X132823857Y-51689000D01*
X132932714Y-51689000D01*
X133005285Y-51725285D01*
X133041571Y-51761571D01*
X133077857Y-51834142D01*
X133077857Y-52124428D01*
X132678714Y-50999571D02*
X132678714Y-51362428D01*
X133041571Y-51398714D01*
X133005285Y-51362428D01*
X132969000Y-51289857D01*
X132969000Y-51108428D01*
X133005285Y-51035857D01*
X133041571Y-50999571D01*
X133114142Y-50963285D01*
X133295571Y-50963285D01*
X133368142Y-50999571D01*
X133404428Y-51035857D01*
X133440714Y-51108428D01*
X133440714Y-51289857D01*
X133404428Y-51362428D01*
X133368142Y-51398714D01*
%TO.C,R3*%
X127889000Y-68543714D02*
X127635000Y-68180857D01*
X127453571Y-68543714D02*
X127453571Y-67781714D01*
X127743857Y-67781714D01*
X127816428Y-67818000D01*
X127852714Y-67854285D01*
X127889000Y-67926857D01*
X127889000Y-68035714D01*
X127852714Y-68108285D01*
X127816428Y-68144571D01*
X127743857Y-68180857D01*
X127453571Y-68180857D01*
X128143000Y-67781714D02*
X128614714Y-67781714D01*
X128360714Y-68072000D01*
X128469571Y-68072000D01*
X128542142Y-68108285D01*
X128578428Y-68144571D01*
X128614714Y-68217142D01*
X128614714Y-68398571D01*
X128578428Y-68471142D01*
X128542142Y-68507428D01*
X128469571Y-68543714D01*
X128251857Y-68543714D01*
X128179285Y-68507428D01*
X128143000Y-68471142D01*
%TO.C,R2*%
X127889000Y-69813714D02*
X127635000Y-69450857D01*
X127453571Y-69813714D02*
X127453571Y-69051714D01*
X127743857Y-69051714D01*
X127816428Y-69088000D01*
X127852714Y-69124285D01*
X127889000Y-69196857D01*
X127889000Y-69305714D01*
X127852714Y-69378285D01*
X127816428Y-69414571D01*
X127743857Y-69450857D01*
X127453571Y-69450857D01*
X128179285Y-69124285D02*
X128215571Y-69088000D01*
X128288142Y-69051714D01*
X128469571Y-69051714D01*
X128542142Y-69088000D01*
X128578428Y-69124285D01*
X128614714Y-69196857D01*
X128614714Y-69269428D01*
X128578428Y-69378285D01*
X128143000Y-69813714D01*
X128614714Y-69813714D01*
%TO.C,R1*%
X138557000Y-79846714D02*
X138303000Y-79483857D01*
X138121571Y-79846714D02*
X138121571Y-79084714D01*
X138411857Y-79084714D01*
X138484428Y-79121000D01*
X138520714Y-79157285D01*
X138557000Y-79229857D01*
X138557000Y-79338714D01*
X138520714Y-79411285D01*
X138484428Y-79447571D01*
X138411857Y-79483857D01*
X138121571Y-79483857D01*
X139282714Y-79846714D02*
X138847285Y-79846714D01*
X139065000Y-79846714D02*
X139065000Y-79084714D01*
X138992428Y-79193571D01*
X138919857Y-79266142D01*
X138847285Y-79302428D01*
%TO.C,L5*%
X131445000Y-55589714D02*
X131082142Y-55589714D01*
X131082142Y-54827714D01*
X132061857Y-54827714D02*
X131699000Y-54827714D01*
X131662714Y-55190571D01*
X131699000Y-55154285D01*
X131771571Y-55118000D01*
X131953000Y-55118000D01*
X132025571Y-55154285D01*
X132061857Y-55190571D01*
X132098142Y-55263142D01*
X132098142Y-55444571D01*
X132061857Y-55517142D01*
X132025571Y-55553428D01*
X131953000Y-55589714D01*
X131771571Y-55589714D01*
X131699000Y-55553428D01*
X131662714Y-55517142D01*
%TO.C,L4*%
X150585714Y-64389000D02*
X150585714Y-64751857D01*
X149823714Y-64751857D01*
X150077714Y-63808428D02*
X150585714Y-63808428D01*
X149787428Y-63989857D02*
X150331714Y-64171285D01*
X150331714Y-63699571D01*
%TO.C,L3*%
X156427714Y-70612000D02*
X156427714Y-70974857D01*
X155665714Y-70974857D01*
X155665714Y-70430571D02*
X155665714Y-69958857D01*
X155956000Y-70212857D01*
X155956000Y-70104000D01*
X155992285Y-70031428D01*
X156028571Y-69995142D01*
X156101142Y-69958857D01*
X156282571Y-69958857D01*
X156355142Y-69995142D01*
X156391428Y-70031428D01*
X156427714Y-70104000D01*
X156427714Y-70321714D01*
X156391428Y-70394285D01*
X156355142Y-70430571D01*
%TO.C,L1*%
X157734000Y-68035714D02*
X157371142Y-68035714D01*
X157371142Y-67273714D01*
X158387142Y-68035714D02*
X157951714Y-68035714D01*
X158169428Y-68035714D02*
X158169428Y-67273714D01*
X158096857Y-67382571D01*
X158024285Y-67455142D01*
X157951714Y-67491428D01*
%TO.C,FL3*%
X153615571Y-68761428D02*
X153615571Y-69015428D01*
X154014714Y-69015428D02*
X153252714Y-69015428D01*
X153252714Y-68652571D01*
X154014714Y-67999428D02*
X154014714Y-68362285D01*
X153252714Y-68362285D01*
X153252714Y-67818000D02*
X153252714Y-67346285D01*
X153543000Y-67600285D01*
X153543000Y-67491428D01*
X153579285Y-67418857D01*
X153615571Y-67382571D01*
X153688142Y-67346285D01*
X153869571Y-67346285D01*
X153942142Y-67382571D01*
X153978428Y-67418857D01*
X154014714Y-67491428D01*
X154014714Y-67709142D01*
X153978428Y-67781714D01*
X153942142Y-67818000D01*
%TO.C,FL2*%
X153615571Y-71047428D02*
X153615571Y-71301428D01*
X154014714Y-71301428D02*
X153252714Y-71301428D01*
X153252714Y-70938571D01*
X154014714Y-70285428D02*
X154014714Y-70648285D01*
X153252714Y-70648285D01*
X153325285Y-70067714D02*
X153289000Y-70031428D01*
X153252714Y-69958857D01*
X153252714Y-69777428D01*
X153289000Y-69704857D01*
X153325285Y-69668571D01*
X153397857Y-69632285D01*
X153470428Y-69632285D01*
X153579285Y-69668571D01*
X154014714Y-70104000D01*
X154014714Y-69632285D01*
%TO.C,E1*%
X161144857Y-68779571D02*
X161398857Y-68779571D01*
X161507714Y-69178714D02*
X161144857Y-69178714D01*
X161144857Y-68416714D01*
X161507714Y-68416714D01*
X162233428Y-69178714D02*
X161798000Y-69178714D01*
X162015714Y-69178714D02*
X162015714Y-68416714D01*
X161943142Y-68525571D01*
X161870571Y-68598142D01*
X161798000Y-68634428D01*
%TO.C,D4*%
X155393571Y-47334714D02*
X155393571Y-46572714D01*
X155575000Y-46572714D01*
X155683857Y-46609000D01*
X155756428Y-46681571D01*
X155792714Y-46754142D01*
X155829000Y-46899285D01*
X155829000Y-47008142D01*
X155792714Y-47153285D01*
X155756428Y-47225857D01*
X155683857Y-47298428D01*
X155575000Y-47334714D01*
X155393571Y-47334714D01*
X156482142Y-46826714D02*
X156482142Y-47334714D01*
X156300714Y-46536428D02*
X156119285Y-47080714D01*
X156591000Y-47080714D01*
%TO.C,D3*%
X130392714Y-65586428D02*
X129630714Y-65586428D01*
X129630714Y-65405000D01*
X129667000Y-65296142D01*
X129739571Y-65223571D01*
X129812142Y-65187285D01*
X129957285Y-65151000D01*
X130066142Y-65151000D01*
X130211285Y-65187285D01*
X130283857Y-65223571D01*
X130356428Y-65296142D01*
X130392714Y-65405000D01*
X130392714Y-65586428D01*
X129630714Y-64897000D02*
X129630714Y-64425285D01*
X129921000Y-64679285D01*
X129921000Y-64570428D01*
X129957285Y-64497857D01*
X129993571Y-64461571D01*
X130066142Y-64425285D01*
X130247571Y-64425285D01*
X130320142Y-64461571D01*
X130356428Y-64497857D01*
X130392714Y-64570428D01*
X130392714Y-64788142D01*
X130356428Y-64860714D01*
X130320142Y-64897000D01*
%TO.C,D2*%
X133041571Y-47334714D02*
X133041571Y-46572714D01*
X133223000Y-46572714D01*
X133331857Y-46609000D01*
X133404428Y-46681571D01*
X133440714Y-46754142D01*
X133477000Y-46899285D01*
X133477000Y-47008142D01*
X133440714Y-47153285D01*
X133404428Y-47225857D01*
X133331857Y-47298428D01*
X133223000Y-47334714D01*
X133041571Y-47334714D01*
X133767285Y-46645285D02*
X133803571Y-46609000D01*
X133876142Y-46572714D01*
X134057571Y-46572714D01*
X134130142Y-46609000D01*
X134166428Y-46645285D01*
X134202714Y-46717857D01*
X134202714Y-46790428D01*
X134166428Y-46899285D01*
X133731000Y-47334714D01*
X134202714Y-47334714D01*
%TO.C,D1*%
D18*
X139264571Y-81370714D02*
X139264571Y-80608714D01*
X139446000Y-80608714D01*
X139554857Y-80645000D01*
X139627428Y-80717571D01*
X139663714Y-80790142D01*
X139700000Y-80935285D01*
X139700000Y-81044142D01*
X139663714Y-81189285D01*
X139627428Y-81261857D01*
X139554857Y-81334428D01*
X139446000Y-81370714D01*
X139264571Y-81370714D01*
X140425714Y-81370714D02*
X139990285Y-81370714D01*
X140208000Y-81370714D02*
X140208000Y-80608714D01*
X140135428Y-80717571D01*
X140062857Y-80790142D01*
X139990285Y-80826428D01*
%TO.C,C22*%
D14*
X144544142Y-56115857D02*
X144580428Y-56152142D01*
X144616714Y-56261000D01*
X144616714Y-56333571D01*
X144580428Y-56442428D01*
X144507857Y-56515000D01*
X144435285Y-56551285D01*
X144290142Y-56587571D01*
X144181285Y-56587571D01*
X144036142Y-56551285D01*
X143963571Y-56515000D01*
X143891000Y-56442428D01*
X143854714Y-56333571D01*
X143854714Y-56261000D01*
X143891000Y-56152142D01*
X143927285Y-56115857D01*
X143927285Y-55825571D02*
X143891000Y-55789285D01*
X143854714Y-55716714D01*
X143854714Y-55535285D01*
X143891000Y-55462714D01*
X143927285Y-55426428D01*
X143999857Y-55390142D01*
X144072428Y-55390142D01*
X144181285Y-55426428D01*
X144616714Y-55861857D01*
X144616714Y-55390142D01*
X143927285Y-55099857D02*
X143891000Y-55063571D01*
X143854714Y-54991000D01*
X143854714Y-54809571D01*
X143891000Y-54737000D01*
X143927285Y-54700714D01*
X143999857Y-54664428D01*
X144072428Y-54664428D01*
X144181285Y-54700714D01*
X144616714Y-55136142D01*
X144616714Y-54664428D01*
%TO.C,C21*%
X148227142Y-61703857D02*
X148263428Y-61740142D01*
X148299714Y-61849000D01*
X148299714Y-61921571D01*
X148263428Y-62030428D01*
X148190857Y-62103000D01*
X148118285Y-62139285D01*
X147973142Y-62175571D01*
X147864285Y-62175571D01*
X147719142Y-62139285D01*
X147646571Y-62103000D01*
X147574000Y-62030428D01*
X147537714Y-61921571D01*
X147537714Y-61849000D01*
X147574000Y-61740142D01*
X147610285Y-61703857D01*
X147610285Y-61413571D02*
X147574000Y-61377285D01*
X147537714Y-61304714D01*
X147537714Y-61123285D01*
X147574000Y-61050714D01*
X147610285Y-61014428D01*
X147682857Y-60978142D01*
X147755428Y-60978142D01*
X147864285Y-61014428D01*
X148299714Y-61449857D01*
X148299714Y-60978142D01*
X148299714Y-60252428D02*
X148299714Y-60687857D01*
X148299714Y-60470142D02*
X147537714Y-60470142D01*
X147646571Y-60542714D01*
X147719142Y-60615285D01*
X147755428Y-60687857D01*
%TO.C,C20*%
X137432142Y-60814857D02*
X137468428Y-60851142D01*
X137504714Y-60960000D01*
X137504714Y-61032571D01*
X137468428Y-61141428D01*
X137395857Y-61214000D01*
X137323285Y-61250285D01*
X137178142Y-61286571D01*
X137069285Y-61286571D01*
X136924142Y-61250285D01*
X136851571Y-61214000D01*
X136779000Y-61141428D01*
X136742714Y-61032571D01*
X136742714Y-60960000D01*
X136779000Y-60851142D01*
X136815285Y-60814857D01*
X136815285Y-60524571D02*
X136779000Y-60488285D01*
X136742714Y-60415714D01*
X136742714Y-60234285D01*
X136779000Y-60161714D01*
X136815285Y-60125428D01*
X136887857Y-60089142D01*
X136960428Y-60089142D01*
X137069285Y-60125428D01*
X137504714Y-60560857D01*
X137504714Y-60089142D01*
X136742714Y-59617428D02*
X136742714Y-59544857D01*
X136779000Y-59472285D01*
X136815285Y-59436000D01*
X136887857Y-59399714D01*
X137033000Y-59363428D01*
X137214428Y-59363428D01*
X137359571Y-59399714D01*
X137432142Y-59436000D01*
X137468428Y-59472285D01*
X137504714Y-59544857D01*
X137504714Y-59617428D01*
X137468428Y-59690000D01*
X137432142Y-59726285D01*
X137359571Y-59762571D01*
X137214428Y-59798857D01*
X137033000Y-59798857D01*
X136887857Y-59762571D01*
X136815285Y-59726285D01*
X136779000Y-59690000D01*
X136742714Y-59617428D01*
%TO.C,C19*%
X138448142Y-51416857D02*
X138484428Y-51453142D01*
X138520714Y-51562000D01*
X138520714Y-51634571D01*
X138484428Y-51743428D01*
X138411857Y-51816000D01*
X138339285Y-51852285D01*
X138194142Y-51888571D01*
X138085285Y-51888571D01*
X137940142Y-51852285D01*
X137867571Y-51816000D01*
X137795000Y-51743428D01*
X137758714Y-51634571D01*
X137758714Y-51562000D01*
X137795000Y-51453142D01*
X137831285Y-51416857D01*
X138520714Y-50691142D02*
X138520714Y-51126571D01*
X138520714Y-50908857D02*
X137758714Y-50908857D01*
X137867571Y-50981428D01*
X137940142Y-51054000D01*
X137976428Y-51126571D01*
X138520714Y-50328285D02*
X138520714Y-50183142D01*
X138484428Y-50110571D01*
X138448142Y-50074285D01*
X138339285Y-50001714D01*
X138194142Y-49965428D01*
X137903857Y-49965428D01*
X137831285Y-50001714D01*
X137795000Y-50038000D01*
X137758714Y-50110571D01*
X137758714Y-50255714D01*
X137795000Y-50328285D01*
X137831285Y-50364571D01*
X137903857Y-50400857D01*
X138085285Y-50400857D01*
X138157857Y-50364571D01*
X138194142Y-50328285D01*
X138230428Y-50255714D01*
X138230428Y-50110571D01*
X138194142Y-50038000D01*
X138157857Y-50001714D01*
X138085285Y-49965428D01*
%TO.C,C16*%
X146703142Y-64370857D02*
X146739428Y-64407142D01*
X146775714Y-64516000D01*
X146775714Y-64588571D01*
X146739428Y-64697428D01*
X146666857Y-64770000D01*
X146594285Y-64806285D01*
X146449142Y-64842571D01*
X146340285Y-64842571D01*
X146195142Y-64806285D01*
X146122571Y-64770000D01*
X146050000Y-64697428D01*
X146013714Y-64588571D01*
X146013714Y-64516000D01*
X146050000Y-64407142D01*
X146086285Y-64370857D01*
X146775714Y-63645142D02*
X146775714Y-64080571D01*
X146775714Y-63862857D02*
X146013714Y-63862857D01*
X146122571Y-63935428D01*
X146195142Y-64008000D01*
X146231428Y-64080571D01*
X146013714Y-62992000D02*
X146013714Y-63137142D01*
X146050000Y-63209714D01*
X146086285Y-63246000D01*
X146195142Y-63318571D01*
X146340285Y-63354857D01*
X146630571Y-63354857D01*
X146703142Y-63318571D01*
X146739428Y-63282285D01*
X146775714Y-63209714D01*
X146775714Y-63064571D01*
X146739428Y-62992000D01*
X146703142Y-62955714D01*
X146630571Y-62919428D01*
X146449142Y-62919428D01*
X146376571Y-62955714D01*
X146340285Y-62992000D01*
X146304000Y-63064571D01*
X146304000Y-63209714D01*
X146340285Y-63282285D01*
X146376571Y-63318571D01*
X146449142Y-63354857D01*
%TO.C,C15*%
X147973142Y-64370857D02*
X148009428Y-64407142D01*
X148045714Y-64516000D01*
X148045714Y-64588571D01*
X148009428Y-64697428D01*
X147936857Y-64770000D01*
X147864285Y-64806285D01*
X147719142Y-64842571D01*
X147610285Y-64842571D01*
X147465142Y-64806285D01*
X147392571Y-64770000D01*
X147320000Y-64697428D01*
X147283714Y-64588571D01*
X147283714Y-64516000D01*
X147320000Y-64407142D01*
X147356285Y-64370857D01*
X148045714Y-63645142D02*
X148045714Y-64080571D01*
X148045714Y-63862857D02*
X147283714Y-63862857D01*
X147392571Y-63935428D01*
X147465142Y-64008000D01*
X147501428Y-64080571D01*
X147283714Y-62955714D02*
X147283714Y-63318571D01*
X147646571Y-63354857D01*
X147610285Y-63318571D01*
X147574000Y-63246000D01*
X147574000Y-63064571D01*
X147610285Y-62992000D01*
X147646571Y-62955714D01*
X147719142Y-62919428D01*
X147900571Y-62919428D01*
X147973142Y-62955714D01*
X148009428Y-62992000D01*
X148045714Y-63064571D01*
X148045714Y-63246000D01*
X148009428Y-63318571D01*
X147973142Y-63354857D01*
%TO.C,C14*%
X149243142Y-64370857D02*
X149279428Y-64407142D01*
X149315714Y-64516000D01*
X149315714Y-64588571D01*
X149279428Y-64697428D01*
X149206857Y-64770000D01*
X149134285Y-64806285D01*
X148989142Y-64842571D01*
X148880285Y-64842571D01*
X148735142Y-64806285D01*
X148662571Y-64770000D01*
X148590000Y-64697428D01*
X148553714Y-64588571D01*
X148553714Y-64516000D01*
X148590000Y-64407142D01*
X148626285Y-64370857D01*
X149315714Y-63645142D02*
X149315714Y-64080571D01*
X149315714Y-63862857D02*
X148553714Y-63862857D01*
X148662571Y-63935428D01*
X148735142Y-64008000D01*
X148771428Y-64080571D01*
X148807714Y-62992000D02*
X149315714Y-62992000D01*
X148517428Y-63173428D02*
X149061714Y-63354857D01*
X149061714Y-62883142D01*
%TO.C,C13*%
X136543142Y-66058142D02*
X136506857Y-66094428D01*
X136398000Y-66130714D01*
X136325428Y-66130714D01*
X136216571Y-66094428D01*
X136144000Y-66021857D01*
X136107714Y-65949285D01*
X136071428Y-65804142D01*
X136071428Y-65695285D01*
X136107714Y-65550142D01*
X136144000Y-65477571D01*
X136216571Y-65405000D01*
X136325428Y-65368714D01*
X136398000Y-65368714D01*
X136506857Y-65405000D01*
X136543142Y-65441285D01*
X137268857Y-66130714D02*
X136833428Y-66130714D01*
X137051142Y-66130714D02*
X137051142Y-65368714D01*
X136978571Y-65477571D01*
X136906000Y-65550142D01*
X136833428Y-65586428D01*
X137522857Y-65368714D02*
X137994571Y-65368714D01*
X137740571Y-65659000D01*
X137849428Y-65659000D01*
X137922000Y-65695285D01*
X137958285Y-65731571D01*
X137994571Y-65804142D01*
X137994571Y-65985571D01*
X137958285Y-66058142D01*
X137922000Y-66094428D01*
X137849428Y-66130714D01*
X137631714Y-66130714D01*
X137559142Y-66094428D01*
X137522857Y-66058142D01*
%TO.C,C12*%
X127145142Y-62375142D02*
X127108857Y-62411428D01*
X127000000Y-62447714D01*
X126927428Y-62447714D01*
X126818571Y-62411428D01*
X126746000Y-62338857D01*
X126709714Y-62266285D01*
X126673428Y-62121142D01*
X126673428Y-62012285D01*
X126709714Y-61867142D01*
X126746000Y-61794571D01*
X126818571Y-61722000D01*
X126927428Y-61685714D01*
X127000000Y-61685714D01*
X127108857Y-61722000D01*
X127145142Y-61758285D01*
X127870857Y-62447714D02*
X127435428Y-62447714D01*
X127653142Y-62447714D02*
X127653142Y-61685714D01*
X127580571Y-61794571D01*
X127508000Y-61867142D01*
X127435428Y-61903428D01*
X128161142Y-61758285D02*
X128197428Y-61722000D01*
X128270000Y-61685714D01*
X128451428Y-61685714D01*
X128524000Y-61722000D01*
X128560285Y-61758285D01*
X128596571Y-61830857D01*
X128596571Y-61903428D01*
X128560285Y-62012285D01*
X128124857Y-62447714D01*
X128596571Y-62447714D01*
%TO.C,C11*%
X155339142Y-67963142D02*
X155302857Y-67999428D01*
X155194000Y-68035714D01*
X155121428Y-68035714D01*
X155012571Y-67999428D01*
X154940000Y-67926857D01*
X154903714Y-67854285D01*
X154867428Y-67709142D01*
X154867428Y-67600285D01*
X154903714Y-67455142D01*
X154940000Y-67382571D01*
X155012571Y-67310000D01*
X155121428Y-67273714D01*
X155194000Y-67273714D01*
X155302857Y-67310000D01*
X155339142Y-67346285D01*
X156064857Y-68035714D02*
X155629428Y-68035714D01*
X155847142Y-68035714D02*
X155847142Y-67273714D01*
X155774571Y-67382571D01*
X155702000Y-67455142D01*
X155629428Y-67491428D01*
X156790571Y-68035714D02*
X156355142Y-68035714D01*
X156572857Y-68035714D02*
X156572857Y-67273714D01*
X156500285Y-67382571D01*
X156427714Y-67455142D01*
X156355142Y-67491428D01*
%TO.C,C7*%
X144907000Y-70249142D02*
X144870714Y-70285428D01*
X144761857Y-70321714D01*
X144689285Y-70321714D01*
X144580428Y-70285428D01*
X144507857Y-70212857D01*
X144471571Y-70140285D01*
X144435285Y-69995142D01*
X144435285Y-69886285D01*
X144471571Y-69741142D01*
X144507857Y-69668571D01*
X144580428Y-69596000D01*
X144689285Y-69559714D01*
X144761857Y-69559714D01*
X144870714Y-69596000D01*
X144907000Y-69632285D01*
X145161000Y-69559714D02*
X145669000Y-69559714D01*
X145342428Y-70321714D01*
%TO.C,C6*%
X138557000Y-78504142D02*
X138520714Y-78540428D01*
X138411857Y-78576714D01*
X138339285Y-78576714D01*
X138230428Y-78540428D01*
X138157857Y-78467857D01*
X138121571Y-78395285D01*
X138085285Y-78250142D01*
X138085285Y-78141285D01*
X138121571Y-77996142D01*
X138157857Y-77923571D01*
X138230428Y-77851000D01*
X138339285Y-77814714D01*
X138411857Y-77814714D01*
X138520714Y-77851000D01*
X138557000Y-77887285D01*
X139210142Y-77814714D02*
X139065000Y-77814714D01*
X138992428Y-77851000D01*
X138956142Y-77887285D01*
X138883571Y-77996142D01*
X138847285Y-78141285D01*
X138847285Y-78431571D01*
X138883571Y-78504142D01*
X138919857Y-78540428D01*
X138992428Y-78576714D01*
X139137571Y-78576714D01*
X139210142Y-78540428D01*
X139246428Y-78504142D01*
X139282714Y-78431571D01*
X139282714Y-78250142D01*
X139246428Y-78177571D01*
X139210142Y-78141285D01*
X139137571Y-78105000D01*
X138992428Y-78105000D01*
X138919857Y-78141285D01*
X138883571Y-78177571D01*
X138847285Y-78250142D01*
%TO.C,U1*%
X155157714Y-62429571D02*
X155774571Y-62429571D01*
X155847142Y-62393285D01*
X155883428Y-62357000D01*
X155919714Y-62284428D01*
X155919714Y-62139285D01*
X155883428Y-62066714D01*
X155847142Y-62030428D01*
X155774571Y-61994142D01*
X155157714Y-61994142D01*
X155919714Y-61232142D02*
X155919714Y-61667571D01*
X155919714Y-61449857D02*
X155157714Y-61449857D01*
X155266571Y-61522428D01*
X155339142Y-61595000D01*
X155375428Y-61667571D01*
%TO.C,C5*%
X139083142Y-67818000D02*
X139119428Y-67854285D01*
X139155714Y-67963142D01*
X139155714Y-68035714D01*
X139119428Y-68144571D01*
X139046857Y-68217142D01*
X138974285Y-68253428D01*
X138829142Y-68289714D01*
X138720285Y-68289714D01*
X138575142Y-68253428D01*
X138502571Y-68217142D01*
X138430000Y-68144571D01*
X138393714Y-68035714D01*
X138393714Y-67963142D01*
X138430000Y-67854285D01*
X138466285Y-67818000D01*
X138393714Y-67128571D02*
X138393714Y-67491428D01*
X138756571Y-67527714D01*
X138720285Y-67491428D01*
X138684000Y-67418857D01*
X138684000Y-67237428D01*
X138720285Y-67164857D01*
X138756571Y-67128571D01*
X138829142Y-67092285D01*
X139010571Y-67092285D01*
X139083142Y-67128571D01*
X139119428Y-67164857D01*
X139155714Y-67237428D01*
X139155714Y-67418857D01*
X139119428Y-67491428D01*
X139083142Y-67527714D01*
%TO.C,C4*%
X145034000Y-75964142D02*
X144997714Y-76000428D01*
X144888857Y-76036714D01*
X144816285Y-76036714D01*
X144707428Y-76000428D01*
X144634857Y-75927857D01*
X144598571Y-75855285D01*
X144562285Y-75710142D01*
X144562285Y-75601285D01*
X144598571Y-75456142D01*
X144634857Y-75383571D01*
X144707428Y-75311000D01*
X144816285Y-75274714D01*
X144888857Y-75274714D01*
X144997714Y-75311000D01*
X145034000Y-75347285D01*
X145687142Y-75528714D02*
X145687142Y-76036714D01*
X145505714Y-75238428D02*
X145324285Y-75782714D01*
X145796000Y-75782714D01*
%TO.C,C3*%
X139083142Y-65405000D02*
X139119428Y-65441285D01*
X139155714Y-65550142D01*
X139155714Y-65622714D01*
X139119428Y-65731571D01*
X139046857Y-65804142D01*
X138974285Y-65840428D01*
X138829142Y-65876714D01*
X138720285Y-65876714D01*
X138575142Y-65840428D01*
X138502571Y-65804142D01*
X138430000Y-65731571D01*
X138393714Y-65622714D01*
X138393714Y-65550142D01*
X138430000Y-65441285D01*
X138466285Y-65405000D01*
X138393714Y-65151000D02*
X138393714Y-64679285D01*
X138684000Y-64933285D01*
X138684000Y-64824428D01*
X138720285Y-64751857D01*
X138756571Y-64715571D01*
X138829142Y-64679285D01*
X139010571Y-64679285D01*
X139083142Y-64715571D01*
X139119428Y-64751857D01*
X139155714Y-64824428D01*
X139155714Y-65042142D01*
X139119428Y-65114714D01*
X139083142Y-65151000D01*
%TO.C,C2*%
X145433142Y-64389000D02*
X145469428Y-64425285D01*
X145505714Y-64534142D01*
X145505714Y-64606714D01*
X145469428Y-64715571D01*
X145396857Y-64788142D01*
X145324285Y-64824428D01*
X145179142Y-64860714D01*
X145070285Y-64860714D01*
X144925142Y-64824428D01*
X144852571Y-64788142D01*
X144780000Y-64715571D01*
X144743714Y-64606714D01*
X144743714Y-64534142D01*
X144780000Y-64425285D01*
X144816285Y-64389000D01*
X144816285Y-64098714D02*
X144780000Y-64062428D01*
X144743714Y-63989857D01*
X144743714Y-63808428D01*
X144780000Y-63735857D01*
X144816285Y-63699571D01*
X144888857Y-63663285D01*
X144961428Y-63663285D01*
X145070285Y-63699571D01*
X145505714Y-64135000D01*
X145505714Y-63663285D01*
%TD*%
M02*
