%TF.GenerationSoftware,KiCad,Pcbnew,(5.1.10)-1*%
%TF.CreationDate,2021-11-20T18:05:25-05:00*%
%TF.ProjectId,MicroMod_Extension,4d696372-6f4d-46f6-945f-457874656e73,rev?*%
%TF.SameCoordinates,Original*%
%TF.FileFunction,Paste,Bot*%
%TF.FilePolarity,Positive*%
%FSLAX46Y46*%
G04 Gerber Fmt 4.6, Leading zero omitted, Abs format (unit mm)*
G04 Created by KiCad (PCBNEW (5.1.10)-1) date 2021-11-20 18:05:25*
%MOMM*%
%LPD*%
G01*
G04 APERTURE LIST*
%ADD10C,0.100000*%
%ADD11R,1.200000X0.900000*%
%ADD12R,1.150000X0.300000*%
G04 APERTURE END LIST*
%TO.C,J1*%
G36*
G01*
X137331000Y-48036000D02*
X137331000Y-49574000D01*
G75*
G02*
X137325000Y-49580000I-6000J0D01*
G01*
X137037000Y-49580000D01*
G75*
G02*
X137031000Y-49574000I0J6000D01*
G01*
X137031000Y-48036000D01*
G75*
G02*
X137037000Y-48030000I6000J0D01*
G01*
X137325000Y-48030000D01*
G75*
G02*
X137331000Y-48036000I0J-6000D01*
G01*
G37*
G36*
G01*
X137581000Y-55586000D02*
X137581000Y-57124000D01*
G75*
G02*
X137575000Y-57130000I-6000J0D01*
G01*
X137287000Y-57130000D01*
G75*
G02*
X137281000Y-57124000I0J6000D01*
G01*
X137281000Y-55586000D01*
G75*
G02*
X137287000Y-55580000I6000J0D01*
G01*
X137575000Y-55580000D01*
G75*
G02*
X137581000Y-55586000I0J-6000D01*
G01*
G37*
G36*
G01*
X137831000Y-48036000D02*
X137831000Y-49574000D01*
G75*
G02*
X137825000Y-49580000I-6000J0D01*
G01*
X137537000Y-49580000D01*
G75*
G02*
X137531000Y-49574000I0J6000D01*
G01*
X137531000Y-48036000D01*
G75*
G02*
X137537000Y-48030000I6000J0D01*
G01*
X137825000Y-48030000D01*
G75*
G02*
X137831000Y-48036000I0J-6000D01*
G01*
G37*
G36*
G01*
X138081000Y-55586000D02*
X138081000Y-57124000D01*
G75*
G02*
X138075000Y-57130000I-6000J0D01*
G01*
X137787000Y-57130000D01*
G75*
G02*
X137781000Y-57124000I0J6000D01*
G01*
X137781000Y-55586000D01*
G75*
G02*
X137787000Y-55580000I6000J0D01*
G01*
X138075000Y-55580000D01*
G75*
G02*
X138081000Y-55586000I0J-6000D01*
G01*
G37*
G36*
G01*
X138331000Y-48036000D02*
X138331000Y-49574000D01*
G75*
G02*
X138325000Y-49580000I-6000J0D01*
G01*
X138037000Y-49580000D01*
G75*
G02*
X138031000Y-49574000I0J6000D01*
G01*
X138031000Y-48036000D01*
G75*
G02*
X138037000Y-48030000I6000J0D01*
G01*
X138325000Y-48030000D01*
G75*
G02*
X138331000Y-48036000I0J-6000D01*
G01*
G37*
G36*
G01*
X138581000Y-55586000D02*
X138581000Y-57124000D01*
G75*
G02*
X138575000Y-57130000I-6000J0D01*
G01*
X138287000Y-57130000D01*
G75*
G02*
X138281000Y-57124000I0J6000D01*
G01*
X138281000Y-55586000D01*
G75*
G02*
X138287000Y-55580000I6000J0D01*
G01*
X138575000Y-55580000D01*
G75*
G02*
X138581000Y-55586000I0J-6000D01*
G01*
G37*
G36*
G01*
X138831000Y-48036000D02*
X138831000Y-49574000D01*
G75*
G02*
X138825000Y-49580000I-6000J0D01*
G01*
X138537000Y-49580000D01*
G75*
G02*
X138531000Y-49574000I0J6000D01*
G01*
X138531000Y-48036000D01*
G75*
G02*
X138537000Y-48030000I6000J0D01*
G01*
X138825000Y-48030000D01*
G75*
G02*
X138831000Y-48036000I0J-6000D01*
G01*
G37*
G36*
G01*
X139081000Y-55586000D02*
X139081000Y-57124000D01*
G75*
G02*
X139075000Y-57130000I-6000J0D01*
G01*
X138787000Y-57130000D01*
G75*
G02*
X138781000Y-57124000I0J6000D01*
G01*
X138781000Y-55586000D01*
G75*
G02*
X138787000Y-55580000I6000J0D01*
G01*
X139075000Y-55580000D01*
G75*
G02*
X139081000Y-55586000I0J-6000D01*
G01*
G37*
G36*
G01*
X139331000Y-48036000D02*
X139331000Y-49574000D01*
G75*
G02*
X139325000Y-49580000I-6000J0D01*
G01*
X139037000Y-49580000D01*
G75*
G02*
X139031000Y-49574000I0J6000D01*
G01*
X139031000Y-48036000D01*
G75*
G02*
X139037000Y-48030000I6000J0D01*
G01*
X139325000Y-48030000D01*
G75*
G02*
X139331000Y-48036000I0J-6000D01*
G01*
G37*
G36*
G01*
X139581000Y-55586000D02*
X139581000Y-57124000D01*
G75*
G02*
X139575000Y-57130000I-6000J0D01*
G01*
X139287000Y-57130000D01*
G75*
G02*
X139281000Y-57124000I0J6000D01*
G01*
X139281000Y-55586000D01*
G75*
G02*
X139287000Y-55580000I6000J0D01*
G01*
X139575000Y-55580000D01*
G75*
G02*
X139581000Y-55586000I0J-6000D01*
G01*
G37*
G36*
G01*
X139831000Y-48036000D02*
X139831000Y-49574000D01*
G75*
G02*
X139825000Y-49580000I-6000J0D01*
G01*
X139537000Y-49580000D01*
G75*
G02*
X139531000Y-49574000I0J6000D01*
G01*
X139531000Y-48036000D01*
G75*
G02*
X139537000Y-48030000I6000J0D01*
G01*
X139825000Y-48030000D01*
G75*
G02*
X139831000Y-48036000I0J-6000D01*
G01*
G37*
G36*
G01*
X140081000Y-55586000D02*
X140081000Y-57124000D01*
G75*
G02*
X140075000Y-57130000I-6000J0D01*
G01*
X139787000Y-57130000D01*
G75*
G02*
X139781000Y-57124000I0J6000D01*
G01*
X139781000Y-55586000D01*
G75*
G02*
X139787000Y-55580000I6000J0D01*
G01*
X140075000Y-55580000D01*
G75*
G02*
X140081000Y-55586000I0J-6000D01*
G01*
G37*
G36*
G01*
X140331000Y-48036000D02*
X140331000Y-49574000D01*
G75*
G02*
X140325000Y-49580000I-6000J0D01*
G01*
X140037000Y-49580000D01*
G75*
G02*
X140031000Y-49574000I0J6000D01*
G01*
X140031000Y-48036000D01*
G75*
G02*
X140037000Y-48030000I6000J0D01*
G01*
X140325000Y-48030000D01*
G75*
G02*
X140331000Y-48036000I0J-6000D01*
G01*
G37*
G36*
G01*
X140581000Y-55586000D02*
X140581000Y-57124000D01*
G75*
G02*
X140575000Y-57130000I-6000J0D01*
G01*
X140287000Y-57130000D01*
G75*
G02*
X140281000Y-57124000I0J6000D01*
G01*
X140281000Y-55586000D01*
G75*
G02*
X140287000Y-55580000I6000J0D01*
G01*
X140575000Y-55580000D01*
G75*
G02*
X140581000Y-55586000I0J-6000D01*
G01*
G37*
G36*
G01*
X140831000Y-48036000D02*
X140831000Y-49574000D01*
G75*
G02*
X140825000Y-49580000I-6000J0D01*
G01*
X140537000Y-49580000D01*
G75*
G02*
X140531000Y-49574000I0J6000D01*
G01*
X140531000Y-48036000D01*
G75*
G02*
X140537000Y-48030000I6000J0D01*
G01*
X140825000Y-48030000D01*
G75*
G02*
X140831000Y-48036000I0J-6000D01*
G01*
G37*
G36*
G01*
X141081000Y-55586000D02*
X141081000Y-57124000D01*
G75*
G02*
X141075000Y-57130000I-6000J0D01*
G01*
X140787000Y-57130000D01*
G75*
G02*
X140781000Y-57124000I0J6000D01*
G01*
X140781000Y-55586000D01*
G75*
G02*
X140787000Y-55580000I6000J0D01*
G01*
X141075000Y-55580000D01*
G75*
G02*
X141081000Y-55586000I0J-6000D01*
G01*
G37*
G36*
G01*
X141331000Y-48036000D02*
X141331000Y-49574000D01*
G75*
G02*
X141325000Y-49580000I-6000J0D01*
G01*
X141037000Y-49580000D01*
G75*
G02*
X141031000Y-49574000I0J6000D01*
G01*
X141031000Y-48036000D01*
G75*
G02*
X141037000Y-48030000I6000J0D01*
G01*
X141325000Y-48030000D01*
G75*
G02*
X141331000Y-48036000I0J-6000D01*
G01*
G37*
G36*
G01*
X141581000Y-55586000D02*
X141581000Y-57124000D01*
G75*
G02*
X141575000Y-57130000I-6000J0D01*
G01*
X141287000Y-57130000D01*
G75*
G02*
X141281000Y-57124000I0J6000D01*
G01*
X141281000Y-55586000D01*
G75*
G02*
X141287000Y-55580000I6000J0D01*
G01*
X141575000Y-55580000D01*
G75*
G02*
X141581000Y-55586000I0J-6000D01*
G01*
G37*
G36*
G01*
X141831000Y-48036000D02*
X141831000Y-49574000D01*
G75*
G02*
X141825000Y-49580000I-6000J0D01*
G01*
X141537000Y-49580000D01*
G75*
G02*
X141531000Y-49574000I0J6000D01*
G01*
X141531000Y-48036000D01*
G75*
G02*
X141537000Y-48030000I6000J0D01*
G01*
X141825000Y-48030000D01*
G75*
G02*
X141831000Y-48036000I0J-6000D01*
G01*
G37*
G36*
G01*
X142081000Y-55586000D02*
X142081000Y-57124000D01*
G75*
G02*
X142075000Y-57130000I-6000J0D01*
G01*
X141787000Y-57130000D01*
G75*
G02*
X141781000Y-57124000I0J6000D01*
G01*
X141781000Y-55586000D01*
G75*
G02*
X141787000Y-55580000I6000J0D01*
G01*
X142075000Y-55580000D01*
G75*
G02*
X142081000Y-55586000I0J-6000D01*
G01*
G37*
G36*
G01*
X142331000Y-48036000D02*
X142331000Y-49574000D01*
G75*
G02*
X142325000Y-49580000I-6000J0D01*
G01*
X142037000Y-49580000D01*
G75*
G02*
X142031000Y-49574000I0J6000D01*
G01*
X142031000Y-48036000D01*
G75*
G02*
X142037000Y-48030000I6000J0D01*
G01*
X142325000Y-48030000D01*
G75*
G02*
X142331000Y-48036000I0J-6000D01*
G01*
G37*
G36*
G01*
X142581000Y-55586000D02*
X142581000Y-57124000D01*
G75*
G02*
X142575000Y-57130000I-6000J0D01*
G01*
X142287000Y-57130000D01*
G75*
G02*
X142281000Y-57124000I0J6000D01*
G01*
X142281000Y-55586000D01*
G75*
G02*
X142287000Y-55580000I6000J0D01*
G01*
X142575000Y-55580000D01*
G75*
G02*
X142581000Y-55586000I0J-6000D01*
G01*
G37*
G36*
G01*
X142831000Y-48036000D02*
X142831000Y-49574000D01*
G75*
G02*
X142825000Y-49580000I-6000J0D01*
G01*
X142537000Y-49580000D01*
G75*
G02*
X142531000Y-49574000I0J6000D01*
G01*
X142531000Y-48036000D01*
G75*
G02*
X142537000Y-48030000I6000J0D01*
G01*
X142825000Y-48030000D01*
G75*
G02*
X142831000Y-48036000I0J-6000D01*
G01*
G37*
G36*
G01*
X143081000Y-55586000D02*
X143081000Y-57124000D01*
G75*
G02*
X143075000Y-57130000I-6000J0D01*
G01*
X142787000Y-57130000D01*
G75*
G02*
X142781000Y-57124000I0J6000D01*
G01*
X142781000Y-55586000D01*
G75*
G02*
X142787000Y-55580000I6000J0D01*
G01*
X143075000Y-55580000D01*
G75*
G02*
X143081000Y-55586000I0J-6000D01*
G01*
G37*
G36*
G01*
X143331000Y-48036000D02*
X143331000Y-49574000D01*
G75*
G02*
X143325000Y-49580000I-6000J0D01*
G01*
X143037000Y-49580000D01*
G75*
G02*
X143031000Y-49574000I0J6000D01*
G01*
X143031000Y-48036000D01*
G75*
G02*
X143037000Y-48030000I6000J0D01*
G01*
X143325000Y-48030000D01*
G75*
G02*
X143331000Y-48036000I0J-6000D01*
G01*
G37*
G36*
G01*
X143581000Y-55586000D02*
X143581000Y-57124000D01*
G75*
G02*
X143575000Y-57130000I-6000J0D01*
G01*
X143287000Y-57130000D01*
G75*
G02*
X143281000Y-57124000I0J6000D01*
G01*
X143281000Y-55586000D01*
G75*
G02*
X143287000Y-55580000I6000J0D01*
G01*
X143575000Y-55580000D01*
G75*
G02*
X143581000Y-55586000I0J-6000D01*
G01*
G37*
G36*
G01*
X143831000Y-48036000D02*
X143831000Y-49574000D01*
G75*
G02*
X143825000Y-49580000I-6000J0D01*
G01*
X143537000Y-49580000D01*
G75*
G02*
X143531000Y-49574000I0J6000D01*
G01*
X143531000Y-48036000D01*
G75*
G02*
X143537000Y-48030000I6000J0D01*
G01*
X143825000Y-48030000D01*
G75*
G02*
X143831000Y-48036000I0J-6000D01*
G01*
G37*
G36*
G01*
X144081000Y-55586000D02*
X144081000Y-57124000D01*
G75*
G02*
X144075000Y-57130000I-6000J0D01*
G01*
X143787000Y-57130000D01*
G75*
G02*
X143781000Y-57124000I0J6000D01*
G01*
X143781000Y-55586000D01*
G75*
G02*
X143787000Y-55580000I6000J0D01*
G01*
X144075000Y-55580000D01*
G75*
G02*
X144081000Y-55586000I0J-6000D01*
G01*
G37*
G36*
G01*
X144331000Y-48036000D02*
X144331000Y-49574000D01*
G75*
G02*
X144325000Y-49580000I-6000J0D01*
G01*
X144037000Y-49580000D01*
G75*
G02*
X144031000Y-49574000I0J6000D01*
G01*
X144031000Y-48036000D01*
G75*
G02*
X144037000Y-48030000I6000J0D01*
G01*
X144325000Y-48030000D01*
G75*
G02*
X144331000Y-48036000I0J-6000D01*
G01*
G37*
G36*
G01*
X144581000Y-55586000D02*
X144581000Y-57124000D01*
G75*
G02*
X144575000Y-57130000I-6000J0D01*
G01*
X144287000Y-57130000D01*
G75*
G02*
X144281000Y-57124000I0J6000D01*
G01*
X144281000Y-55586000D01*
G75*
G02*
X144287000Y-55580000I6000J0D01*
G01*
X144575000Y-55580000D01*
G75*
G02*
X144581000Y-55586000I0J-6000D01*
G01*
G37*
G36*
G01*
X144831000Y-48036000D02*
X144831000Y-49574000D01*
G75*
G02*
X144825000Y-49580000I-6000J0D01*
G01*
X144537000Y-49580000D01*
G75*
G02*
X144531000Y-49574000I0J6000D01*
G01*
X144531000Y-48036000D01*
G75*
G02*
X144537000Y-48030000I6000J0D01*
G01*
X144825000Y-48030000D01*
G75*
G02*
X144831000Y-48036000I0J-6000D01*
G01*
G37*
G36*
G01*
X145081000Y-55586000D02*
X145081000Y-57124000D01*
G75*
G02*
X145075000Y-57130000I-6000J0D01*
G01*
X144787000Y-57130000D01*
G75*
G02*
X144781000Y-57124000I0J6000D01*
G01*
X144781000Y-55586000D01*
G75*
G02*
X144787000Y-55580000I6000J0D01*
G01*
X145075000Y-55580000D01*
G75*
G02*
X145081000Y-55586000I0J-6000D01*
G01*
G37*
G36*
G01*
X145331000Y-48036000D02*
X145331000Y-49574000D01*
G75*
G02*
X145325000Y-49580000I-6000J0D01*
G01*
X145037000Y-49580000D01*
G75*
G02*
X145031000Y-49574000I0J6000D01*
G01*
X145031000Y-48036000D01*
G75*
G02*
X145037000Y-48030000I6000J0D01*
G01*
X145325000Y-48030000D01*
G75*
G02*
X145331000Y-48036000I0J-6000D01*
G01*
G37*
G36*
G01*
X145581000Y-55586000D02*
X145581000Y-57124000D01*
G75*
G02*
X145575000Y-57130000I-6000J0D01*
G01*
X145287000Y-57130000D01*
G75*
G02*
X145281000Y-57124000I0J6000D01*
G01*
X145281000Y-55586000D01*
G75*
G02*
X145287000Y-55580000I6000J0D01*
G01*
X145575000Y-55580000D01*
G75*
G02*
X145581000Y-55586000I0J-6000D01*
G01*
G37*
G36*
G01*
X145831000Y-48036000D02*
X145831000Y-49574000D01*
G75*
G02*
X145825000Y-49580000I-6000J0D01*
G01*
X145537000Y-49580000D01*
G75*
G02*
X145531000Y-49574000I0J6000D01*
G01*
X145531000Y-48036000D01*
G75*
G02*
X145537000Y-48030000I6000J0D01*
G01*
X145825000Y-48030000D01*
G75*
G02*
X145831000Y-48036000I0J-6000D01*
G01*
G37*
G36*
G01*
X146081000Y-55586000D02*
X146081000Y-57124000D01*
G75*
G02*
X146075000Y-57130000I-6000J0D01*
G01*
X145787000Y-57130000D01*
G75*
G02*
X145781000Y-57124000I0J6000D01*
G01*
X145781000Y-55586000D01*
G75*
G02*
X145787000Y-55580000I6000J0D01*
G01*
X146075000Y-55580000D01*
G75*
G02*
X146081000Y-55586000I0J-6000D01*
G01*
G37*
G36*
G01*
X146331000Y-48036000D02*
X146331000Y-49574000D01*
G75*
G02*
X146325000Y-49580000I-6000J0D01*
G01*
X146037000Y-49580000D01*
G75*
G02*
X146031000Y-49574000I0J6000D01*
G01*
X146031000Y-48036000D01*
G75*
G02*
X146037000Y-48030000I6000J0D01*
G01*
X146325000Y-48030000D01*
G75*
G02*
X146331000Y-48036000I0J-6000D01*
G01*
G37*
G36*
G01*
X146581000Y-55586000D02*
X146581000Y-57124000D01*
G75*
G02*
X146575000Y-57130000I-6000J0D01*
G01*
X146287000Y-57130000D01*
G75*
G02*
X146281000Y-57124000I0J6000D01*
G01*
X146281000Y-55586000D01*
G75*
G02*
X146287000Y-55580000I6000J0D01*
G01*
X146575000Y-55580000D01*
G75*
G02*
X146581000Y-55586000I0J-6000D01*
G01*
G37*
G36*
G01*
X146831000Y-48036000D02*
X146831000Y-49574000D01*
G75*
G02*
X146825000Y-49580000I-6000J0D01*
G01*
X146537000Y-49580000D01*
G75*
G02*
X146531000Y-49574000I0J6000D01*
G01*
X146531000Y-48036000D01*
G75*
G02*
X146537000Y-48030000I6000J0D01*
G01*
X146825000Y-48030000D01*
G75*
G02*
X146831000Y-48036000I0J-6000D01*
G01*
G37*
G36*
G01*
X147081000Y-55586000D02*
X147081000Y-57124000D01*
G75*
G02*
X147075000Y-57130000I-6000J0D01*
G01*
X146787000Y-57130000D01*
G75*
G02*
X146781000Y-57124000I0J6000D01*
G01*
X146781000Y-55586000D01*
G75*
G02*
X146787000Y-55580000I6000J0D01*
G01*
X147075000Y-55580000D01*
G75*
G02*
X147081000Y-55586000I0J-6000D01*
G01*
G37*
G36*
G01*
X147331000Y-48036000D02*
X147331000Y-49574000D01*
G75*
G02*
X147325000Y-49580000I-6000J0D01*
G01*
X147037000Y-49580000D01*
G75*
G02*
X147031000Y-49574000I0J6000D01*
G01*
X147031000Y-48036000D01*
G75*
G02*
X147037000Y-48030000I6000J0D01*
G01*
X147325000Y-48030000D01*
G75*
G02*
X147331000Y-48036000I0J-6000D01*
G01*
G37*
G36*
G01*
X147581000Y-55586000D02*
X147581000Y-57124000D01*
G75*
G02*
X147575000Y-57130000I-6000J0D01*
G01*
X147287000Y-57130000D01*
G75*
G02*
X147281000Y-57124000I0J6000D01*
G01*
X147281000Y-55586000D01*
G75*
G02*
X147287000Y-55580000I6000J0D01*
G01*
X147575000Y-55580000D01*
G75*
G02*
X147581000Y-55586000I0J-6000D01*
G01*
G37*
G36*
G01*
X147831000Y-48036000D02*
X147831000Y-49574000D01*
G75*
G02*
X147825000Y-49580000I-6000J0D01*
G01*
X147537000Y-49580000D01*
G75*
G02*
X147531000Y-49574000I0J6000D01*
G01*
X147531000Y-48036000D01*
G75*
G02*
X147537000Y-48030000I6000J0D01*
G01*
X147825000Y-48030000D01*
G75*
G02*
X147831000Y-48036000I0J-6000D01*
G01*
G37*
G36*
G01*
X148081000Y-55586000D02*
X148081000Y-57124000D01*
G75*
G02*
X148075000Y-57130000I-6000J0D01*
G01*
X147787000Y-57130000D01*
G75*
G02*
X147781000Y-57124000I0J6000D01*
G01*
X147781000Y-55586000D01*
G75*
G02*
X147787000Y-55580000I6000J0D01*
G01*
X148075000Y-55580000D01*
G75*
G02*
X148081000Y-55586000I0J-6000D01*
G01*
G37*
G36*
G01*
X150331000Y-48036000D02*
X150331000Y-49574000D01*
G75*
G02*
X150325000Y-49580000I-6000J0D01*
G01*
X150037000Y-49580000D01*
G75*
G02*
X150031000Y-49574000I0J6000D01*
G01*
X150031000Y-48036000D01*
G75*
G02*
X150037000Y-48030000I6000J0D01*
G01*
X150325000Y-48030000D01*
G75*
G02*
X150331000Y-48036000I0J-6000D01*
G01*
G37*
G36*
G01*
X150581000Y-55586000D02*
X150581000Y-57124000D01*
G75*
G02*
X150575000Y-57130000I-6000J0D01*
G01*
X150287000Y-57130000D01*
G75*
G02*
X150281000Y-57124000I0J6000D01*
G01*
X150281000Y-55586000D01*
G75*
G02*
X150287000Y-55580000I6000J0D01*
G01*
X150575000Y-55580000D01*
G75*
G02*
X150581000Y-55586000I0J-6000D01*
G01*
G37*
G36*
G01*
X150831000Y-48036000D02*
X150831000Y-49574000D01*
G75*
G02*
X150825000Y-49580000I-6000J0D01*
G01*
X150537000Y-49580000D01*
G75*
G02*
X150531000Y-49574000I0J6000D01*
G01*
X150531000Y-48036000D01*
G75*
G02*
X150537000Y-48030000I6000J0D01*
G01*
X150825000Y-48030000D01*
G75*
G02*
X150831000Y-48036000I0J-6000D01*
G01*
G37*
G36*
G01*
X151081000Y-55586000D02*
X151081000Y-57124000D01*
G75*
G02*
X151075000Y-57130000I-6000J0D01*
G01*
X150787000Y-57130000D01*
G75*
G02*
X150781000Y-57124000I0J6000D01*
G01*
X150781000Y-55586000D01*
G75*
G02*
X150787000Y-55580000I6000J0D01*
G01*
X151075000Y-55580000D01*
G75*
G02*
X151081000Y-55586000I0J-6000D01*
G01*
G37*
G36*
G01*
X151331000Y-48036000D02*
X151331000Y-49574000D01*
G75*
G02*
X151325000Y-49580000I-6000J0D01*
G01*
X151037000Y-49580000D01*
G75*
G02*
X151031000Y-49574000I0J6000D01*
G01*
X151031000Y-48036000D01*
G75*
G02*
X151037000Y-48030000I6000J0D01*
G01*
X151325000Y-48030000D01*
G75*
G02*
X151331000Y-48036000I0J-6000D01*
G01*
G37*
G36*
G01*
X151581000Y-55586000D02*
X151581000Y-57124000D01*
G75*
G02*
X151575000Y-57130000I-6000J0D01*
G01*
X151287000Y-57130000D01*
G75*
G02*
X151281000Y-57124000I0J6000D01*
G01*
X151281000Y-55586000D01*
G75*
G02*
X151287000Y-55580000I6000J0D01*
G01*
X151575000Y-55580000D01*
G75*
G02*
X151581000Y-55586000I0J-6000D01*
G01*
G37*
G36*
G01*
X151831000Y-48036000D02*
X151831000Y-49574000D01*
G75*
G02*
X151825000Y-49580000I-6000J0D01*
G01*
X151537000Y-49580000D01*
G75*
G02*
X151531000Y-49574000I0J6000D01*
G01*
X151531000Y-48036000D01*
G75*
G02*
X151537000Y-48030000I6000J0D01*
G01*
X151825000Y-48030000D01*
G75*
G02*
X151831000Y-48036000I0J-6000D01*
G01*
G37*
G36*
G01*
X152081000Y-55586000D02*
X152081000Y-57124000D01*
G75*
G02*
X152075000Y-57130000I-6000J0D01*
G01*
X151787000Y-57130000D01*
G75*
G02*
X151781000Y-57124000I0J6000D01*
G01*
X151781000Y-55586000D01*
G75*
G02*
X151787000Y-55580000I6000J0D01*
G01*
X152075000Y-55580000D01*
G75*
G02*
X152081000Y-55586000I0J-6000D01*
G01*
G37*
G36*
G01*
X152331000Y-48036000D02*
X152331000Y-49574000D01*
G75*
G02*
X152325000Y-49580000I-6000J0D01*
G01*
X152037000Y-49580000D01*
G75*
G02*
X152031000Y-49574000I0J6000D01*
G01*
X152031000Y-48036000D01*
G75*
G02*
X152037000Y-48030000I6000J0D01*
G01*
X152325000Y-48030000D01*
G75*
G02*
X152331000Y-48036000I0J-6000D01*
G01*
G37*
G36*
G01*
X152581000Y-55586000D02*
X152581000Y-57124000D01*
G75*
G02*
X152575000Y-57130000I-6000J0D01*
G01*
X152287000Y-57130000D01*
G75*
G02*
X152281000Y-57124000I0J6000D01*
G01*
X152281000Y-55586000D01*
G75*
G02*
X152287000Y-55580000I6000J0D01*
G01*
X152575000Y-55580000D01*
G75*
G02*
X152581000Y-55586000I0J-6000D01*
G01*
G37*
G36*
G01*
X136681000Y-48313000D02*
X136681000Y-50847000D01*
G75*
G02*
X136573000Y-50955000I-108000J0D01*
G01*
X135589000Y-50955000D01*
G75*
G02*
X135481000Y-50847000I0J108000D01*
G01*
X135481000Y-48313000D01*
G75*
G02*
X135589000Y-48205000I108000J0D01*
G01*
X136573000Y-48205000D01*
G75*
G02*
X136681000Y-48313000I0J-108000D01*
G01*
G37*
G36*
G01*
X157381000Y-48313000D02*
X157381000Y-50847000D01*
G75*
G02*
X157273000Y-50955000I-108000J0D01*
G01*
X156289000Y-50955000D01*
G75*
G02*
X156181000Y-50847000I0J108000D01*
G01*
X156181000Y-48313000D01*
G75*
G02*
X156289000Y-48205000I108000J0D01*
G01*
X157273000Y-48205000D01*
G75*
G02*
X157381000Y-48313000I0J-108000D01*
G01*
G37*
G36*
G01*
X152831000Y-48036000D02*
X152831000Y-49574000D01*
G75*
G02*
X152825000Y-49580000I-6000J0D01*
G01*
X152537000Y-49580000D01*
G75*
G02*
X152531000Y-49574000I0J6000D01*
G01*
X152531000Y-48036000D01*
G75*
G02*
X152537000Y-48030000I6000J0D01*
G01*
X152825000Y-48030000D01*
G75*
G02*
X152831000Y-48036000I0J-6000D01*
G01*
G37*
G36*
G01*
X153331000Y-48036000D02*
X153331000Y-49574000D01*
G75*
G02*
X153325000Y-49580000I-6000J0D01*
G01*
X153037000Y-49580000D01*
G75*
G02*
X153031000Y-49574000I0J6000D01*
G01*
X153031000Y-48036000D01*
G75*
G02*
X153037000Y-48030000I6000J0D01*
G01*
X153325000Y-48030000D01*
G75*
G02*
X153331000Y-48036000I0J-6000D01*
G01*
G37*
G36*
G01*
X153831000Y-48036000D02*
X153831000Y-49574000D01*
G75*
G02*
X153825000Y-49580000I-6000J0D01*
G01*
X153537000Y-49580000D01*
G75*
G02*
X153531000Y-49574000I0J6000D01*
G01*
X153531000Y-48036000D01*
G75*
G02*
X153537000Y-48030000I6000J0D01*
G01*
X153825000Y-48030000D01*
G75*
G02*
X153831000Y-48036000I0J-6000D01*
G01*
G37*
G36*
G01*
X154331000Y-48036000D02*
X154331000Y-49574000D01*
G75*
G02*
X154325000Y-49580000I-6000J0D01*
G01*
X154037000Y-49580000D01*
G75*
G02*
X154031000Y-49574000I0J6000D01*
G01*
X154031000Y-48036000D01*
G75*
G02*
X154037000Y-48030000I6000J0D01*
G01*
X154325000Y-48030000D01*
G75*
G02*
X154331000Y-48036000I0J-6000D01*
G01*
G37*
G36*
G01*
X154831000Y-48036000D02*
X154831000Y-49574000D01*
G75*
G02*
X154825000Y-49580000I-6000J0D01*
G01*
X154537000Y-49580000D01*
G75*
G02*
X154531000Y-49574000I0J6000D01*
G01*
X154531000Y-48036000D01*
G75*
G02*
X154537000Y-48030000I6000J0D01*
G01*
X154825000Y-48030000D01*
G75*
G02*
X154831000Y-48036000I0J-6000D01*
G01*
G37*
G36*
G01*
X155331000Y-48036000D02*
X155331000Y-49574000D01*
G75*
G02*
X155325000Y-49580000I-6000J0D01*
G01*
X155037000Y-49580000D01*
G75*
G02*
X155031000Y-49574000I0J6000D01*
G01*
X155031000Y-48036000D01*
G75*
G02*
X155037000Y-48030000I6000J0D01*
G01*
X155325000Y-48030000D01*
G75*
G02*
X155331000Y-48036000I0J-6000D01*
G01*
G37*
G36*
G01*
X155831000Y-48036000D02*
X155831000Y-49574000D01*
G75*
G02*
X155825000Y-49580000I-6000J0D01*
G01*
X155537000Y-49580000D01*
G75*
G02*
X155531000Y-49574000I0J6000D01*
G01*
X155531000Y-48036000D01*
G75*
G02*
X155537000Y-48030000I6000J0D01*
G01*
X155825000Y-48030000D01*
G75*
G02*
X155831000Y-48036000I0J-6000D01*
G01*
G37*
G36*
G01*
X155581000Y-55586000D02*
X155581000Y-57124000D01*
G75*
G02*
X155575000Y-57130000I-6000J0D01*
G01*
X155287000Y-57130000D01*
G75*
G02*
X155281000Y-57124000I0J6000D01*
G01*
X155281000Y-55586000D01*
G75*
G02*
X155287000Y-55580000I6000J0D01*
G01*
X155575000Y-55580000D01*
G75*
G02*
X155581000Y-55586000I0J-6000D01*
G01*
G37*
G36*
G01*
X155081000Y-55586000D02*
X155081000Y-57124000D01*
G75*
G02*
X155075000Y-57130000I-6000J0D01*
G01*
X154787000Y-57130000D01*
G75*
G02*
X154781000Y-57124000I0J6000D01*
G01*
X154781000Y-55586000D01*
G75*
G02*
X154787000Y-55580000I6000J0D01*
G01*
X155075000Y-55580000D01*
G75*
G02*
X155081000Y-55586000I0J-6000D01*
G01*
G37*
G36*
G01*
X154581000Y-55586000D02*
X154581000Y-57124000D01*
G75*
G02*
X154575000Y-57130000I-6000J0D01*
G01*
X154287000Y-57130000D01*
G75*
G02*
X154281000Y-57124000I0J6000D01*
G01*
X154281000Y-55586000D01*
G75*
G02*
X154287000Y-55580000I6000J0D01*
G01*
X154575000Y-55580000D01*
G75*
G02*
X154581000Y-55586000I0J-6000D01*
G01*
G37*
G36*
G01*
X154081000Y-55586000D02*
X154081000Y-57124000D01*
G75*
G02*
X154075000Y-57130000I-6000J0D01*
G01*
X153787000Y-57130000D01*
G75*
G02*
X153781000Y-57124000I0J6000D01*
G01*
X153781000Y-55586000D01*
G75*
G02*
X153787000Y-55580000I6000J0D01*
G01*
X154075000Y-55580000D01*
G75*
G02*
X154081000Y-55586000I0J-6000D01*
G01*
G37*
G36*
G01*
X153581000Y-55586000D02*
X153581000Y-57124000D01*
G75*
G02*
X153575000Y-57130000I-6000J0D01*
G01*
X153287000Y-57130000D01*
G75*
G02*
X153281000Y-57124000I0J6000D01*
G01*
X153281000Y-55586000D01*
G75*
G02*
X153287000Y-55580000I6000J0D01*
G01*
X153575000Y-55580000D01*
G75*
G02*
X153581000Y-55586000I0J-6000D01*
G01*
G37*
G36*
G01*
X153081000Y-55586000D02*
X153081000Y-57124000D01*
G75*
G02*
X153075000Y-57130000I-6000J0D01*
G01*
X152787000Y-57130000D01*
G75*
G02*
X152781000Y-57124000I0J6000D01*
G01*
X152781000Y-55586000D01*
G75*
G02*
X152787000Y-55580000I6000J0D01*
G01*
X153075000Y-55580000D01*
G75*
G02*
X153081000Y-55586000I0J-6000D01*
G01*
G37*
%TD*%
%TO.C,J5*%
G36*
G01*
X162514999Y-60207000D02*
X163815001Y-60207000D01*
G75*
G02*
X164065000Y-60456999I0J-249999D01*
G01*
X164065000Y-61157001D01*
G75*
G02*
X163815001Y-61407000I-249999J0D01*
G01*
X162514999Y-61407000D01*
G75*
G02*
X162265000Y-61157001I0J249999D01*
G01*
X162265000Y-60456999D01*
G75*
G02*
X162514999Y-60207000I249999J0D01*
G01*
G37*
G36*
G01*
X162514999Y-50607000D02*
X163815001Y-50607000D01*
G75*
G02*
X164065000Y-50856999I0J-249999D01*
G01*
X164065000Y-51557001D01*
G75*
G02*
X163815001Y-51807000I-249999J0D01*
G01*
X162514999Y-51807000D01*
G75*
G02*
X162265000Y-51557001I0J249999D01*
G01*
X162265000Y-50856999D01*
G75*
G02*
X162514999Y-50607000I249999J0D01*
G01*
G37*
G36*
G01*
X158665000Y-59207000D02*
X159915000Y-59207000D01*
G75*
G02*
X160065000Y-59357000I0J-150000D01*
G01*
X160065000Y-59657000D01*
G75*
G02*
X159915000Y-59807000I-150000J0D01*
G01*
X158665000Y-59807000D01*
G75*
G02*
X158515000Y-59657000I0J150000D01*
G01*
X158515000Y-59357000D01*
G75*
G02*
X158665000Y-59207000I150000J0D01*
G01*
G37*
G36*
G01*
X158665000Y-58207000D02*
X159915000Y-58207000D01*
G75*
G02*
X160065000Y-58357000I0J-150000D01*
G01*
X160065000Y-58657000D01*
G75*
G02*
X159915000Y-58807000I-150000J0D01*
G01*
X158665000Y-58807000D01*
G75*
G02*
X158515000Y-58657000I0J150000D01*
G01*
X158515000Y-58357000D01*
G75*
G02*
X158665000Y-58207000I150000J0D01*
G01*
G37*
G36*
G01*
X158665000Y-57207000D02*
X159915000Y-57207000D01*
G75*
G02*
X160065000Y-57357000I0J-150000D01*
G01*
X160065000Y-57657000D01*
G75*
G02*
X159915000Y-57807000I-150000J0D01*
G01*
X158665000Y-57807000D01*
G75*
G02*
X158515000Y-57657000I0J150000D01*
G01*
X158515000Y-57357000D01*
G75*
G02*
X158665000Y-57207000I150000J0D01*
G01*
G37*
G36*
G01*
X158665000Y-56207000D02*
X159915000Y-56207000D01*
G75*
G02*
X160065000Y-56357000I0J-150000D01*
G01*
X160065000Y-56657000D01*
G75*
G02*
X159915000Y-56807000I-150000J0D01*
G01*
X158665000Y-56807000D01*
G75*
G02*
X158515000Y-56657000I0J150000D01*
G01*
X158515000Y-56357000D01*
G75*
G02*
X158665000Y-56207000I150000J0D01*
G01*
G37*
G36*
G01*
X158665000Y-55207000D02*
X159915000Y-55207000D01*
G75*
G02*
X160065000Y-55357000I0J-150000D01*
G01*
X160065000Y-55657000D01*
G75*
G02*
X159915000Y-55807000I-150000J0D01*
G01*
X158665000Y-55807000D01*
G75*
G02*
X158515000Y-55657000I0J150000D01*
G01*
X158515000Y-55357000D01*
G75*
G02*
X158665000Y-55207000I150000J0D01*
G01*
G37*
G36*
G01*
X158665000Y-54207000D02*
X159915000Y-54207000D01*
G75*
G02*
X160065000Y-54357000I0J-150000D01*
G01*
X160065000Y-54657000D01*
G75*
G02*
X159915000Y-54807000I-150000J0D01*
G01*
X158665000Y-54807000D01*
G75*
G02*
X158515000Y-54657000I0J150000D01*
G01*
X158515000Y-54357000D01*
G75*
G02*
X158665000Y-54207000I150000J0D01*
G01*
G37*
G36*
G01*
X158665000Y-53207000D02*
X159915000Y-53207000D01*
G75*
G02*
X160065000Y-53357000I0J-150000D01*
G01*
X160065000Y-53657000D01*
G75*
G02*
X159915000Y-53807000I-150000J0D01*
G01*
X158665000Y-53807000D01*
G75*
G02*
X158515000Y-53657000I0J150000D01*
G01*
X158515000Y-53357000D01*
G75*
G02*
X158665000Y-53207000I150000J0D01*
G01*
G37*
G36*
G01*
X158665000Y-52207000D02*
X159915000Y-52207000D01*
G75*
G02*
X160065000Y-52357000I0J-150000D01*
G01*
X160065000Y-52657000D01*
G75*
G02*
X159915000Y-52807000I-150000J0D01*
G01*
X158665000Y-52807000D01*
G75*
G02*
X158515000Y-52657000I0J150000D01*
G01*
X158515000Y-52357000D01*
G75*
G02*
X158665000Y-52207000I150000J0D01*
G01*
G37*
%TD*%
%TO.C,J7*%
G36*
G01*
X137038000Y-81479999D02*
X137038000Y-82680001D01*
G75*
G02*
X136788001Y-82930000I-249999J0D01*
G01*
X136087999Y-82930000D01*
G75*
G02*
X135838000Y-82680001I0J249999D01*
G01*
X135838000Y-81479999D01*
G75*
G02*
X136087999Y-81230000I249999J0D01*
G01*
X136788001Y-81230000D01*
G75*
G02*
X137038000Y-81479999I0J-249999D01*
G01*
G37*
G36*
G01*
X142038000Y-81479999D02*
X142038000Y-82680001D01*
G75*
G02*
X141788001Y-82930000I-249999J0D01*
G01*
X141087999Y-82930000D01*
G75*
G02*
X140838000Y-82680001I0J249999D01*
G01*
X140838000Y-81479999D01*
G75*
G02*
X141087999Y-81230000I249999J0D01*
G01*
X141788001Y-81230000D01*
G75*
G02*
X142038000Y-81479999I0J-249999D01*
G01*
G37*
G36*
G01*
X137988000Y-79755000D02*
X137988000Y-80505000D01*
G75*
G02*
X137863000Y-80630000I-125000J0D01*
G01*
X137613000Y-80630000D01*
G75*
G02*
X137488000Y-80505000I0J125000D01*
G01*
X137488000Y-79755000D01*
G75*
G02*
X137613000Y-79630000I125000J0D01*
G01*
X137863000Y-79630000D01*
G75*
G02*
X137988000Y-79755000I0J-125000D01*
G01*
G37*
G36*
G01*
X138788000Y-79755000D02*
X138788000Y-80505000D01*
G75*
G02*
X138663000Y-80630000I-125000J0D01*
G01*
X138413000Y-80630000D01*
G75*
G02*
X138288000Y-80505000I0J125000D01*
G01*
X138288000Y-79755000D01*
G75*
G02*
X138413000Y-79630000I125000J0D01*
G01*
X138663000Y-79630000D01*
G75*
G02*
X138788000Y-79755000I0J-125000D01*
G01*
G37*
G36*
G01*
X139588000Y-79755000D02*
X139588000Y-80505000D01*
G75*
G02*
X139463000Y-80630000I-125000J0D01*
G01*
X139213000Y-80630000D01*
G75*
G02*
X139088000Y-80505000I0J125000D01*
G01*
X139088000Y-79755000D01*
G75*
G02*
X139213000Y-79630000I125000J0D01*
G01*
X139463000Y-79630000D01*
G75*
G02*
X139588000Y-79755000I0J-125000D01*
G01*
G37*
G36*
G01*
X140388000Y-79755000D02*
X140388000Y-80505000D01*
G75*
G02*
X140263000Y-80630000I-125000J0D01*
G01*
X140013000Y-80630000D01*
G75*
G02*
X139888000Y-80505000I0J125000D01*
G01*
X139888000Y-79755000D01*
G75*
G02*
X140013000Y-79630000I125000J0D01*
G01*
X140263000Y-79630000D01*
G75*
G02*
X140388000Y-79755000I0J-125000D01*
G01*
G37*
%TD*%
%TO.C,J6*%
G36*
G01*
X125595999Y-59126000D02*
X126796001Y-59126000D01*
G75*
G02*
X127046000Y-59375999I0J-249999D01*
G01*
X127046000Y-60076001D01*
G75*
G02*
X126796001Y-60326000I-249999J0D01*
G01*
X125595999Y-60326000D01*
G75*
G02*
X125346000Y-60076001I0J249999D01*
G01*
X125346000Y-59375999D01*
G75*
G02*
X125595999Y-59126000I249999J0D01*
G01*
G37*
G36*
G01*
X125595999Y-50926000D02*
X126796001Y-50926000D01*
G75*
G02*
X127046000Y-51175999I0J-249999D01*
G01*
X127046000Y-51876001D01*
G75*
G02*
X126796001Y-52126000I-249999J0D01*
G01*
X125595999Y-52126000D01*
G75*
G02*
X125346000Y-51876001I0J249999D01*
G01*
X125346000Y-51175999D01*
G75*
G02*
X125595999Y-50926000I249999J0D01*
G01*
G37*
G36*
G01*
X127171000Y-58176000D02*
X128021000Y-58176000D01*
G75*
G02*
X128146000Y-58301000I0J-125000D01*
G01*
X128146000Y-58551000D01*
G75*
G02*
X128021000Y-58676000I-125000J0D01*
G01*
X127171000Y-58676000D01*
G75*
G02*
X127046000Y-58551000I0J125000D01*
G01*
X127046000Y-58301000D01*
G75*
G02*
X127171000Y-58176000I125000J0D01*
G01*
G37*
G36*
G01*
X127171000Y-57376000D02*
X128021000Y-57376000D01*
G75*
G02*
X128146000Y-57501000I0J-125000D01*
G01*
X128146000Y-57751000D01*
G75*
G02*
X128021000Y-57876000I-125000J0D01*
G01*
X127171000Y-57876000D01*
G75*
G02*
X127046000Y-57751000I0J125000D01*
G01*
X127046000Y-57501000D01*
G75*
G02*
X127171000Y-57376000I125000J0D01*
G01*
G37*
G36*
G01*
X127171000Y-56576000D02*
X128021000Y-56576000D01*
G75*
G02*
X128146000Y-56701000I0J-125000D01*
G01*
X128146000Y-56951000D01*
G75*
G02*
X128021000Y-57076000I-125000J0D01*
G01*
X127171000Y-57076000D01*
G75*
G02*
X127046000Y-56951000I0J125000D01*
G01*
X127046000Y-56701000D01*
G75*
G02*
X127171000Y-56576000I125000J0D01*
G01*
G37*
G36*
G01*
X127171000Y-55776000D02*
X128021000Y-55776000D01*
G75*
G02*
X128146000Y-55901000I0J-125000D01*
G01*
X128146000Y-56151000D01*
G75*
G02*
X128021000Y-56276000I-125000J0D01*
G01*
X127171000Y-56276000D01*
G75*
G02*
X127046000Y-56151000I0J125000D01*
G01*
X127046000Y-55901000D01*
G75*
G02*
X127171000Y-55776000I125000J0D01*
G01*
G37*
G36*
G01*
X127171000Y-54976000D02*
X128021000Y-54976000D01*
G75*
G02*
X128146000Y-55101000I0J-125000D01*
G01*
X128146000Y-55351000D01*
G75*
G02*
X128021000Y-55476000I-125000J0D01*
G01*
X127171000Y-55476000D01*
G75*
G02*
X127046000Y-55351000I0J125000D01*
G01*
X127046000Y-55101000D01*
G75*
G02*
X127171000Y-54976000I125000J0D01*
G01*
G37*
G36*
G01*
X127171000Y-54176000D02*
X128021000Y-54176000D01*
G75*
G02*
X128146000Y-54301000I0J-125000D01*
G01*
X128146000Y-54551000D01*
G75*
G02*
X128021000Y-54676000I-125000J0D01*
G01*
X127171000Y-54676000D01*
G75*
G02*
X127046000Y-54551000I0J125000D01*
G01*
X127046000Y-54301000D01*
G75*
G02*
X127171000Y-54176000I125000J0D01*
G01*
G37*
G36*
G01*
X127171000Y-53376000D02*
X128021000Y-53376000D01*
G75*
G02*
X128146000Y-53501000I0J-125000D01*
G01*
X128146000Y-53751000D01*
G75*
G02*
X128021000Y-53876000I-125000J0D01*
G01*
X127171000Y-53876000D01*
G75*
G02*
X127046000Y-53751000I0J125000D01*
G01*
X127046000Y-53501000D01*
G75*
G02*
X127171000Y-53376000I125000J0D01*
G01*
G37*
G36*
G01*
X127171000Y-52576000D02*
X128021000Y-52576000D01*
G75*
G02*
X128146000Y-52701000I0J-125000D01*
G01*
X128146000Y-52951000D01*
G75*
G02*
X128021000Y-53076000I-125000J0D01*
G01*
X127171000Y-53076000D01*
G75*
G02*
X127046000Y-52951000I0J125000D01*
G01*
X127046000Y-52701000D01*
G75*
G02*
X127171000Y-52576000I125000J0D01*
G01*
G37*
%TD*%
%TO.C,J9*%
G36*
G01*
X162632999Y-74925000D02*
X163833001Y-74925000D01*
G75*
G02*
X164083000Y-75174999I0J-249999D01*
G01*
X164083000Y-75875001D01*
G75*
G02*
X163833001Y-76125000I-249999J0D01*
G01*
X162632999Y-76125000D01*
G75*
G02*
X162383000Y-75875001I0J249999D01*
G01*
X162383000Y-75174999D01*
G75*
G02*
X162632999Y-74925000I249999J0D01*
G01*
G37*
G36*
G01*
X162632999Y-69925000D02*
X163833001Y-69925000D01*
G75*
G02*
X164083000Y-70174999I0J-249999D01*
G01*
X164083000Y-70875001D01*
G75*
G02*
X163833001Y-71125000I-249999J0D01*
G01*
X162632999Y-71125000D01*
G75*
G02*
X162383000Y-70875001I0J249999D01*
G01*
X162383000Y-70174999D01*
G75*
G02*
X162632999Y-69925000I249999J0D01*
G01*
G37*
G36*
G01*
X160908000Y-73975000D02*
X161658000Y-73975000D01*
G75*
G02*
X161783000Y-74100000I0J-125000D01*
G01*
X161783000Y-74350000D01*
G75*
G02*
X161658000Y-74475000I-125000J0D01*
G01*
X160908000Y-74475000D01*
G75*
G02*
X160783000Y-74350000I0J125000D01*
G01*
X160783000Y-74100000D01*
G75*
G02*
X160908000Y-73975000I125000J0D01*
G01*
G37*
G36*
G01*
X160908000Y-73175000D02*
X161658000Y-73175000D01*
G75*
G02*
X161783000Y-73300000I0J-125000D01*
G01*
X161783000Y-73550000D01*
G75*
G02*
X161658000Y-73675000I-125000J0D01*
G01*
X160908000Y-73675000D01*
G75*
G02*
X160783000Y-73550000I0J125000D01*
G01*
X160783000Y-73300000D01*
G75*
G02*
X160908000Y-73175000I125000J0D01*
G01*
G37*
G36*
G01*
X160908000Y-72375000D02*
X161658000Y-72375000D01*
G75*
G02*
X161783000Y-72500000I0J-125000D01*
G01*
X161783000Y-72750000D01*
G75*
G02*
X161658000Y-72875000I-125000J0D01*
G01*
X160908000Y-72875000D01*
G75*
G02*
X160783000Y-72750000I0J125000D01*
G01*
X160783000Y-72500000D01*
G75*
G02*
X160908000Y-72375000I125000J0D01*
G01*
G37*
G36*
G01*
X160908000Y-71575000D02*
X161658000Y-71575000D01*
G75*
G02*
X161783000Y-71700000I0J-125000D01*
G01*
X161783000Y-71950000D01*
G75*
G02*
X161658000Y-72075000I-125000J0D01*
G01*
X160908000Y-72075000D01*
G75*
G02*
X160783000Y-71950000I0J125000D01*
G01*
X160783000Y-71700000D01*
G75*
G02*
X160908000Y-71575000I125000J0D01*
G01*
G37*
%TD*%
%TO.C,J8*%
G36*
G01*
X162632999Y-67559000D02*
X163833001Y-67559000D01*
G75*
G02*
X164083000Y-67808999I0J-249999D01*
G01*
X164083000Y-68509001D01*
G75*
G02*
X163833001Y-68759000I-249999J0D01*
G01*
X162632999Y-68759000D01*
G75*
G02*
X162383000Y-68509001I0J249999D01*
G01*
X162383000Y-67808999D01*
G75*
G02*
X162632999Y-67559000I249999J0D01*
G01*
G37*
G36*
G01*
X162632999Y-62559000D02*
X163833001Y-62559000D01*
G75*
G02*
X164083000Y-62808999I0J-249999D01*
G01*
X164083000Y-63509001D01*
G75*
G02*
X163833001Y-63759000I-249999J0D01*
G01*
X162632999Y-63759000D01*
G75*
G02*
X162383000Y-63509001I0J249999D01*
G01*
X162383000Y-62808999D01*
G75*
G02*
X162632999Y-62559000I249999J0D01*
G01*
G37*
G36*
G01*
X160908000Y-66609000D02*
X161658000Y-66609000D01*
G75*
G02*
X161783000Y-66734000I0J-125000D01*
G01*
X161783000Y-66984000D01*
G75*
G02*
X161658000Y-67109000I-125000J0D01*
G01*
X160908000Y-67109000D01*
G75*
G02*
X160783000Y-66984000I0J125000D01*
G01*
X160783000Y-66734000D01*
G75*
G02*
X160908000Y-66609000I125000J0D01*
G01*
G37*
G36*
G01*
X160908000Y-65809000D02*
X161658000Y-65809000D01*
G75*
G02*
X161783000Y-65934000I0J-125000D01*
G01*
X161783000Y-66184000D01*
G75*
G02*
X161658000Y-66309000I-125000J0D01*
G01*
X160908000Y-66309000D01*
G75*
G02*
X160783000Y-66184000I0J125000D01*
G01*
X160783000Y-65934000D01*
G75*
G02*
X160908000Y-65809000I125000J0D01*
G01*
G37*
G36*
G01*
X160908000Y-65009000D02*
X161658000Y-65009000D01*
G75*
G02*
X161783000Y-65134000I0J-125000D01*
G01*
X161783000Y-65384000D01*
G75*
G02*
X161658000Y-65509000I-125000J0D01*
G01*
X160908000Y-65509000D01*
G75*
G02*
X160783000Y-65384000I0J125000D01*
G01*
X160783000Y-65134000D01*
G75*
G02*
X160908000Y-65009000I125000J0D01*
G01*
G37*
G36*
G01*
X160908000Y-64209000D02*
X161658000Y-64209000D01*
G75*
G02*
X161783000Y-64334000I0J-125000D01*
G01*
X161783000Y-64584000D01*
G75*
G02*
X161658000Y-64709000I-125000J0D01*
G01*
X160908000Y-64709000D01*
G75*
G02*
X160783000Y-64584000I0J125000D01*
G01*
X160783000Y-64334000D01*
G75*
G02*
X160908000Y-64209000I125000J0D01*
G01*
G37*
%TD*%
%TO.C,J4*%
G36*
G01*
X148087000Y-81479999D02*
X148087000Y-82680001D01*
G75*
G02*
X147837001Y-82930000I-249999J0D01*
G01*
X147136999Y-82930000D01*
G75*
G02*
X146887000Y-82680001I0J249999D01*
G01*
X146887000Y-81479999D01*
G75*
G02*
X147136999Y-81230000I249999J0D01*
G01*
X147837001Y-81230000D01*
G75*
G02*
X148087000Y-81479999I0J-249999D01*
G01*
G37*
G36*
G01*
X153087000Y-81479999D02*
X153087000Y-82680001D01*
G75*
G02*
X152837001Y-82930000I-249999J0D01*
G01*
X152136999Y-82930000D01*
G75*
G02*
X151887000Y-82680001I0J249999D01*
G01*
X151887000Y-81479999D01*
G75*
G02*
X152136999Y-81230000I249999J0D01*
G01*
X152837001Y-81230000D01*
G75*
G02*
X153087000Y-81479999I0J-249999D01*
G01*
G37*
G36*
G01*
X149037000Y-79755000D02*
X149037000Y-80505000D01*
G75*
G02*
X148912000Y-80630000I-125000J0D01*
G01*
X148662000Y-80630000D01*
G75*
G02*
X148537000Y-80505000I0J125000D01*
G01*
X148537000Y-79755000D01*
G75*
G02*
X148662000Y-79630000I125000J0D01*
G01*
X148912000Y-79630000D01*
G75*
G02*
X149037000Y-79755000I0J-125000D01*
G01*
G37*
G36*
G01*
X149837000Y-79755000D02*
X149837000Y-80505000D01*
G75*
G02*
X149712000Y-80630000I-125000J0D01*
G01*
X149462000Y-80630000D01*
G75*
G02*
X149337000Y-80505000I0J125000D01*
G01*
X149337000Y-79755000D01*
G75*
G02*
X149462000Y-79630000I125000J0D01*
G01*
X149712000Y-79630000D01*
G75*
G02*
X149837000Y-79755000I0J-125000D01*
G01*
G37*
G36*
G01*
X150637000Y-79755000D02*
X150637000Y-80505000D01*
G75*
G02*
X150512000Y-80630000I-125000J0D01*
G01*
X150262000Y-80630000D01*
G75*
G02*
X150137000Y-80505000I0J125000D01*
G01*
X150137000Y-79755000D01*
G75*
G02*
X150262000Y-79630000I125000J0D01*
G01*
X150512000Y-79630000D01*
G75*
G02*
X150637000Y-79755000I0J-125000D01*
G01*
G37*
G36*
G01*
X151437000Y-79755000D02*
X151437000Y-80505000D01*
G75*
G02*
X151312000Y-80630000I-125000J0D01*
G01*
X151062000Y-80630000D01*
G75*
G02*
X150937000Y-80505000I0J125000D01*
G01*
X150937000Y-79755000D01*
G75*
G02*
X151062000Y-79630000I125000J0D01*
G01*
X151312000Y-79630000D01*
G75*
G02*
X151437000Y-79755000I0J-125000D01*
G01*
G37*
%TD*%
D10*
%TO.C,TP8*%
G36*
X152796657Y-74341010D02*
G01*
X152806408Y-74341623D01*
X152816052Y-74343185D01*
X152825498Y-74345681D01*
X152834655Y-74349086D01*
X152843436Y-74353369D01*
X152851758Y-74358489D01*
X152859540Y-74364396D01*
X152866708Y-74371034D01*
X152873195Y-74378340D01*
X152878937Y-74386244D01*
X152883881Y-74394670D01*
X152887979Y-74403539D01*
X152891192Y-74412766D01*
X152893490Y-74422262D01*
X152894849Y-74431937D01*
X152895259Y-74441698D01*
X152894713Y-74451453D01*
X152894008Y-74456008D01*
X152894000Y-74456130D01*
X152893846Y-74457053D01*
X152893219Y-74461108D01*
X152893085Y-74461628D01*
X152892397Y-74465767D01*
X152841435Y-74700643D01*
X152841129Y-74702005D01*
X152839987Y-74706030D01*
X152838899Y-74710079D01*
X152765268Y-74938835D01*
X152765261Y-74938860D01*
X152765250Y-74938888D01*
X152764823Y-74940185D01*
X152763304Y-74944054D01*
X152761816Y-74948002D01*
X152666203Y-75168506D01*
X152665639Y-75169783D01*
X152663725Y-75173533D01*
X152661883Y-75177269D01*
X152545218Y-75387374D01*
X152545210Y-75387390D01*
X152545199Y-75387408D01*
X152544523Y-75388606D01*
X152542268Y-75392126D01*
X152540055Y-75395689D01*
X152403434Y-75593423D01*
X152402632Y-75594566D01*
X152400046Y-75597847D01*
X152397494Y-75601180D01*
X152242229Y-75784637D01*
X152241320Y-75785696D01*
X152238423Y-75788713D01*
X152235561Y-75791777D01*
X152063136Y-75959208D01*
X152062128Y-75960173D01*
X152058951Y-75962892D01*
X152055802Y-75965664D01*
X151867860Y-76115470D01*
X151866763Y-76116332D01*
X151863321Y-76118739D01*
X151859932Y-76121179D01*
X151658284Y-76251921D01*
X151658270Y-76251931D01*
X151658253Y-76251941D01*
X151657094Y-76252681D01*
X151653483Y-76254712D01*
X151649822Y-76256839D01*
X151436370Y-76367283D01*
X151436362Y-76367287D01*
X151436352Y-76367291D01*
X151435118Y-76367919D01*
X151431289Y-76369605D01*
X151427476Y-76371347D01*
X151204259Y-76460438D01*
X151202958Y-76460946D01*
X151199013Y-76462240D01*
X151195019Y-76463612D01*
X150964172Y-76530496D01*
X150962828Y-76530875D01*
X150959434Y-76531631D01*
X150956037Y-76532488D01*
X150787694Y-76566303D01*
X150786783Y-76566479D01*
X150786738Y-76566490D01*
X150786696Y-76566496D01*
X150786323Y-76566568D01*
X150781652Y-76567204D01*
X150777063Y-76567849D01*
X150776858Y-76567858D01*
X150776642Y-76567887D01*
X150771929Y-76568065D01*
X150767302Y-76568259D01*
X150767089Y-76568247D01*
X150766879Y-76568255D01*
X150762218Y-76567974D01*
X150757547Y-76567713D01*
X150757338Y-76567681D01*
X150757127Y-76567668D01*
X150752544Y-76566939D01*
X150747892Y-76566219D01*
X150747684Y-76566166D01*
X150747479Y-76566133D01*
X150743026Y-76564969D01*
X150738429Y-76563789D01*
X150738227Y-76563716D01*
X150738026Y-76563663D01*
X150733723Y-76562076D01*
X150729248Y-76560447D01*
X150729053Y-76560353D01*
X150728859Y-76560282D01*
X150724696Y-76558266D01*
X150720438Y-76556226D01*
X150720258Y-76556117D01*
X150720066Y-76556024D01*
X150716131Y-76553618D01*
X150712081Y-76551165D01*
X150711906Y-76551034D01*
X150711731Y-76550927D01*
X150708006Y-76548116D01*
X150704258Y-76545312D01*
X150704107Y-76545174D01*
X150703932Y-76545042D01*
X150700473Y-76541856D01*
X150697043Y-76538724D01*
X150696898Y-76538563D01*
X150696746Y-76538423D01*
X150693691Y-76535001D01*
X150690506Y-76531464D01*
X150690379Y-76531291D01*
X150690240Y-76531136D01*
X150687491Y-76527375D01*
X150684708Y-76523600D01*
X150684601Y-76523420D01*
X150684475Y-76523248D01*
X150682134Y-76519282D01*
X150679705Y-76515208D01*
X150679612Y-76515009D01*
X150679508Y-76514834D01*
X150677584Y-76510701D01*
X150675545Y-76506368D01*
X150675473Y-76506167D01*
X150675385Y-76505977D01*
X150673855Y-76501620D01*
X150672268Y-76497164D01*
X150672216Y-76496955D01*
X150672147Y-76496759D01*
X150671046Y-76492265D01*
X150669904Y-76487684D01*
X150669873Y-76487474D01*
X150669823Y-76487270D01*
X150669168Y-76482697D01*
X150668477Y-76478019D01*
X150668466Y-76477804D01*
X150668437Y-76477598D01*
X150668225Y-76472871D01*
X150668000Y-76468261D01*
X150668000Y-75641781D01*
X150668010Y-75640385D01*
X150668131Y-75638453D01*
X150668139Y-75636509D01*
X150668438Y-75633576D01*
X150668623Y-75630634D01*
X150668933Y-75628718D01*
X150669130Y-75626789D01*
X150669713Y-75623902D01*
X150670185Y-75620990D01*
X150670681Y-75619111D01*
X150671065Y-75617213D01*
X150671927Y-75614396D01*
X150672681Y-75611544D01*
X150673357Y-75609725D01*
X150673925Y-75607871D01*
X150675054Y-75605164D01*
X150676086Y-75602387D01*
X150676945Y-75600626D01*
X150677684Y-75598853D01*
X150679064Y-75596281D01*
X150680369Y-75593606D01*
X150681393Y-75591942D01*
X150682304Y-75590244D01*
X150683939Y-75587804D01*
X150685489Y-75585284D01*
X150686662Y-75583739D01*
X150687741Y-75582128D01*
X150689614Y-75579849D01*
X150691396Y-75577502D01*
X150692713Y-75576080D01*
X150693946Y-75574580D01*
X150696036Y-75572491D01*
X150698034Y-75570334D01*
X150699479Y-75569051D01*
X150700857Y-75567674D01*
X150703141Y-75565800D01*
X150705340Y-75563847D01*
X150706908Y-75562708D01*
X150708409Y-75561476D01*
X150710866Y-75559833D01*
X150713244Y-75558105D01*
X150714912Y-75557127D01*
X150716530Y-75556044D01*
X150719137Y-75554647D01*
X150721670Y-75553161D01*
X150723423Y-75552351D01*
X150725142Y-75551430D01*
X150727882Y-75550291D01*
X150730539Y-75549063D01*
X150732357Y-75548430D01*
X150734163Y-75547679D01*
X150737002Y-75546812D01*
X150739766Y-75545850D01*
X150741646Y-75545395D01*
X150743507Y-75544827D01*
X150749388Y-75543341D01*
X150896300Y-75498062D01*
X151035965Y-75439554D01*
X151169258Y-75367693D01*
X151294894Y-75283175D01*
X151411681Y-75186801D01*
X151518511Y-75079487D01*
X151614362Y-74962256D01*
X151698310Y-74836239D01*
X151769559Y-74702635D01*
X151827439Y-74562695D01*
X151872801Y-74413115D01*
X151872911Y-74412761D01*
X151873253Y-74411429D01*
X151876595Y-74402248D01*
X151880816Y-74393438D01*
X151885877Y-74385081D01*
X151891730Y-74377258D01*
X151898318Y-74370043D01*
X151905578Y-74363506D01*
X151913442Y-74357708D01*
X151921834Y-74352705D01*
X151930674Y-74348545D01*
X151939878Y-74345268D01*
X151949358Y-74342904D01*
X151959023Y-74341477D01*
X151968781Y-74341000D01*
X152795261Y-74341000D01*
X152796657Y-74341010D01*
G37*
G36*
X148768615Y-74341010D02*
G01*
X148770547Y-74341131D01*
X148772491Y-74341139D01*
X148775424Y-74341438D01*
X148778366Y-74341623D01*
X148780282Y-74341933D01*
X148782211Y-74342130D01*
X148785098Y-74342713D01*
X148788010Y-74343185D01*
X148789889Y-74343681D01*
X148791787Y-74344065D01*
X148794604Y-74344927D01*
X148797456Y-74345681D01*
X148799275Y-74346357D01*
X148801129Y-74346925D01*
X148803836Y-74348054D01*
X148806613Y-74349086D01*
X148808374Y-74349945D01*
X148810147Y-74350684D01*
X148812719Y-74352064D01*
X148815394Y-74353369D01*
X148817058Y-74354393D01*
X148818756Y-74355304D01*
X148821196Y-74356939D01*
X148823716Y-74358489D01*
X148825261Y-74359662D01*
X148826872Y-74360741D01*
X148829151Y-74362614D01*
X148831498Y-74364396D01*
X148832920Y-74365713D01*
X148834420Y-74366946D01*
X148836509Y-74369036D01*
X148838666Y-74371034D01*
X148839949Y-74372479D01*
X148841326Y-74373857D01*
X148843200Y-74376141D01*
X148845153Y-74378340D01*
X148846292Y-74379908D01*
X148847524Y-74381409D01*
X148849167Y-74383866D01*
X148850895Y-74386244D01*
X148851873Y-74387912D01*
X148852956Y-74389530D01*
X148854353Y-74392137D01*
X148855839Y-74394670D01*
X148856649Y-74396423D01*
X148857570Y-74398142D01*
X148858709Y-74400882D01*
X148859937Y-74403539D01*
X148860570Y-74405357D01*
X148861321Y-74407163D01*
X148862188Y-74410002D01*
X148863150Y-74412766D01*
X148863605Y-74414646D01*
X148864173Y-74416507D01*
X148865659Y-74422388D01*
X148910938Y-74569300D01*
X148969446Y-74708965D01*
X149041307Y-74842258D01*
X149125825Y-74967894D01*
X149222199Y-75084681D01*
X149329513Y-75191511D01*
X149446744Y-75287362D01*
X149572761Y-75371310D01*
X149706365Y-75442559D01*
X149846305Y-75500439D01*
X149995885Y-75545801D01*
X149996239Y-75545911D01*
X149997571Y-75546253D01*
X150006752Y-75549595D01*
X150015562Y-75553816D01*
X150023919Y-75558877D01*
X150031742Y-75564730D01*
X150038957Y-75571318D01*
X150045494Y-75578578D01*
X150051292Y-75586442D01*
X150056295Y-75594834D01*
X150060455Y-75603674D01*
X150063732Y-75612878D01*
X150066096Y-75622358D01*
X150067523Y-75632023D01*
X150068000Y-75641781D01*
X150068000Y-76468261D01*
X150067990Y-76469657D01*
X150067377Y-76479408D01*
X150065815Y-76489052D01*
X150063319Y-76498498D01*
X150059914Y-76507655D01*
X150055631Y-76516436D01*
X150050511Y-76524758D01*
X150044604Y-76532540D01*
X150037966Y-76539708D01*
X150030660Y-76546195D01*
X150022756Y-76551937D01*
X150014330Y-76556881D01*
X150005461Y-76560979D01*
X149996234Y-76564192D01*
X149986738Y-76566490D01*
X149977063Y-76567849D01*
X149967302Y-76568259D01*
X149957547Y-76567713D01*
X149952992Y-76567008D01*
X149952870Y-76567000D01*
X149951947Y-76566846D01*
X149947892Y-76566219D01*
X149947372Y-76566085D01*
X149943233Y-76565397D01*
X149708360Y-76514436D01*
X149708356Y-76514435D01*
X149708351Y-76514434D01*
X149706995Y-76514129D01*
X149702970Y-76512987D01*
X149698921Y-76511899D01*
X149470165Y-76438268D01*
X149470140Y-76438261D01*
X149470112Y-76438250D01*
X149468815Y-76437823D01*
X149464946Y-76436304D01*
X149460998Y-76434816D01*
X149240494Y-76339203D01*
X149239217Y-76338639D01*
X149235467Y-76336725D01*
X149231731Y-76334883D01*
X149021626Y-76218218D01*
X149021610Y-76218210D01*
X149021592Y-76218199D01*
X149020394Y-76217523D01*
X149016874Y-76215268D01*
X149013311Y-76213055D01*
X148815577Y-76076434D01*
X148814434Y-76075632D01*
X148811153Y-76073046D01*
X148807820Y-76070494D01*
X148624363Y-75915229D01*
X148623304Y-75914320D01*
X148620287Y-75911423D01*
X148617223Y-75908561D01*
X148449792Y-75736136D01*
X148448827Y-75735128D01*
X148446108Y-75731951D01*
X148443336Y-75728802D01*
X148293530Y-75540860D01*
X148292668Y-75539763D01*
X148290261Y-75536321D01*
X148287821Y-75532932D01*
X148157079Y-75331284D01*
X148157069Y-75331270D01*
X148157059Y-75331253D01*
X148156319Y-75330094D01*
X148154288Y-75326483D01*
X148152161Y-75322822D01*
X148041714Y-75109363D01*
X148041081Y-75108118D01*
X148039395Y-75104289D01*
X148037653Y-75100476D01*
X147948562Y-74877259D01*
X147948054Y-74875958D01*
X147946760Y-74872013D01*
X147945388Y-74868019D01*
X147878504Y-74637172D01*
X147878125Y-74635828D01*
X147877369Y-74632434D01*
X147876512Y-74629037D01*
X147842697Y-74460694D01*
X147842521Y-74459783D01*
X147842510Y-74459738D01*
X147842504Y-74459696D01*
X147842432Y-74459323D01*
X147841782Y-74454555D01*
X147841151Y-74450063D01*
X147841142Y-74449858D01*
X147841113Y-74449642D01*
X147840931Y-74444822D01*
X147840741Y-74440302D01*
X147840753Y-74440089D01*
X147840745Y-74439879D01*
X147841026Y-74435218D01*
X147841287Y-74430547D01*
X147841319Y-74430338D01*
X147841332Y-74430127D01*
X147842061Y-74425544D01*
X147842781Y-74420892D01*
X147842834Y-74420684D01*
X147842867Y-74420479D01*
X147844031Y-74416026D01*
X147845211Y-74411429D01*
X147845284Y-74411227D01*
X147845337Y-74411026D01*
X147846924Y-74406723D01*
X147848553Y-74402248D01*
X147848647Y-74402053D01*
X147848718Y-74401859D01*
X147850734Y-74397696D01*
X147852774Y-74393438D01*
X147852883Y-74393258D01*
X147852976Y-74393066D01*
X147855420Y-74389069D01*
X147857835Y-74385081D01*
X147857966Y-74384906D01*
X147858073Y-74384731D01*
X147860884Y-74381006D01*
X147863688Y-74377258D01*
X147863826Y-74377107D01*
X147863958Y-74376932D01*
X147867144Y-74373473D01*
X147870276Y-74370043D01*
X147870437Y-74369898D01*
X147870577Y-74369746D01*
X147873999Y-74366691D01*
X147877536Y-74363506D01*
X147877709Y-74363379D01*
X147877864Y-74363240D01*
X147881625Y-74360491D01*
X147885400Y-74357708D01*
X147885580Y-74357601D01*
X147885752Y-74357475D01*
X147889718Y-74355134D01*
X147893792Y-74352705D01*
X147893991Y-74352612D01*
X147894166Y-74352508D01*
X147898299Y-74350584D01*
X147902632Y-74348545D01*
X147902833Y-74348473D01*
X147903023Y-74348385D01*
X147907380Y-74346855D01*
X147911836Y-74345268D01*
X147912045Y-74345216D01*
X147912241Y-74345147D01*
X147916735Y-74344046D01*
X147921316Y-74342904D01*
X147921526Y-74342873D01*
X147921730Y-74342823D01*
X147926303Y-74342168D01*
X147930981Y-74341477D01*
X147931196Y-74341466D01*
X147931402Y-74341437D01*
X147936129Y-74341225D01*
X147940739Y-74341000D01*
X148767219Y-74341000D01*
X148768615Y-74341010D01*
G37*
G36*
X149968911Y-71513753D02*
G01*
X149969121Y-71513745D01*
X149973782Y-71514026D01*
X149978453Y-71514287D01*
X149978662Y-71514319D01*
X149978873Y-71514332D01*
X149983473Y-71515064D01*
X149988108Y-71515781D01*
X149988314Y-71515834D01*
X149988522Y-71515867D01*
X149993005Y-71517038D01*
X149997571Y-71518211D01*
X149997772Y-71518284D01*
X149997974Y-71518337D01*
X150002313Y-71519937D01*
X150006752Y-71521553D01*
X150006944Y-71521645D01*
X150007142Y-71521718D01*
X150011354Y-71523758D01*
X150015562Y-71525774D01*
X150015742Y-71525883D01*
X150015934Y-71525976D01*
X150019869Y-71528382D01*
X150023919Y-71530835D01*
X150024094Y-71530966D01*
X150024269Y-71531073D01*
X150027994Y-71533884D01*
X150031742Y-71536688D01*
X150031893Y-71536826D01*
X150032068Y-71536958D01*
X150035588Y-71540200D01*
X150038957Y-71543276D01*
X150039097Y-71543431D01*
X150039254Y-71543576D01*
X150042421Y-71547124D01*
X150045494Y-71550536D01*
X150045617Y-71550702D01*
X150045761Y-71550864D01*
X150048568Y-71554705D01*
X150051292Y-71558400D01*
X150051399Y-71558580D01*
X150051525Y-71558752D01*
X150053866Y-71562718D01*
X150056295Y-71566792D01*
X150056388Y-71566991D01*
X150056492Y-71567166D01*
X150058460Y-71571393D01*
X150060455Y-71575632D01*
X150060523Y-71575824D01*
X150060616Y-71576023D01*
X150062184Y-71580488D01*
X150063732Y-71584836D01*
X150063784Y-71585044D01*
X150063853Y-71585241D01*
X150064981Y-71589844D01*
X150066096Y-71594316D01*
X150066125Y-71594516D01*
X150066178Y-71594730D01*
X150066850Y-71599422D01*
X150067523Y-71603981D01*
X150067534Y-71604196D01*
X150067563Y-71604402D01*
X150067771Y-71609057D01*
X150068000Y-71613739D01*
X150068000Y-72440219D01*
X150067990Y-72441615D01*
X150067869Y-72443547D01*
X150067861Y-72445491D01*
X150067562Y-72448417D01*
X150067377Y-72451366D01*
X150067064Y-72453295D01*
X150066869Y-72455211D01*
X150066290Y-72458080D01*
X150065815Y-72461010D01*
X150065318Y-72462892D01*
X150064935Y-72464787D01*
X150064073Y-72467604D01*
X150063319Y-72470456D01*
X150062643Y-72472275D01*
X150062075Y-72474129D01*
X150060946Y-72476836D01*
X150059914Y-72479613D01*
X150059055Y-72481374D01*
X150058316Y-72483147D01*
X150056939Y-72485712D01*
X150055631Y-72488394D01*
X150054607Y-72490058D01*
X150053696Y-72491756D01*
X150052065Y-72494191D01*
X150050511Y-72496716D01*
X150049331Y-72498270D01*
X150048258Y-72499872D01*
X150046394Y-72502140D01*
X150044604Y-72504498D01*
X150043285Y-72505922D01*
X150042054Y-72507420D01*
X150039964Y-72509509D01*
X150037966Y-72511666D01*
X150036521Y-72512949D01*
X150035143Y-72514326D01*
X150032859Y-72516200D01*
X150030660Y-72518153D01*
X150029092Y-72519292D01*
X150027591Y-72520524D01*
X150025134Y-72522167D01*
X150022756Y-72523895D01*
X150021088Y-72524873D01*
X150019470Y-72525956D01*
X150016863Y-72527353D01*
X150014330Y-72528839D01*
X150012577Y-72529649D01*
X150010858Y-72530570D01*
X150008118Y-72531709D01*
X150005461Y-72532937D01*
X150003643Y-72533570D01*
X150001837Y-72534321D01*
X149998998Y-72535188D01*
X149996234Y-72536150D01*
X149994354Y-72536605D01*
X149992493Y-72537173D01*
X149986612Y-72538659D01*
X149839703Y-72583937D01*
X149700031Y-72642448D01*
X149566749Y-72714303D01*
X149441117Y-72798817D01*
X149324319Y-72895199D01*
X149217489Y-73002513D01*
X149121641Y-73119740D01*
X149037689Y-73245761D01*
X148966441Y-73379365D01*
X148908561Y-73519305D01*
X148863199Y-73668885D01*
X148863089Y-73669239D01*
X148862747Y-73670571D01*
X148859405Y-73679752D01*
X148855184Y-73688562D01*
X148850123Y-73696919D01*
X148844270Y-73704742D01*
X148837682Y-73711957D01*
X148830422Y-73718494D01*
X148822558Y-73724292D01*
X148814166Y-73729295D01*
X148805326Y-73733455D01*
X148796122Y-73736732D01*
X148786642Y-73739096D01*
X148776977Y-73740523D01*
X148767219Y-73741000D01*
X147940739Y-73741000D01*
X147939343Y-73740990D01*
X147929592Y-73740377D01*
X147919948Y-73738815D01*
X147910502Y-73736319D01*
X147901345Y-73732914D01*
X147892564Y-73728631D01*
X147884242Y-73723511D01*
X147876460Y-73717604D01*
X147869292Y-73710966D01*
X147862805Y-73703660D01*
X147857063Y-73695756D01*
X147852119Y-73687330D01*
X147848021Y-73678461D01*
X147844808Y-73669234D01*
X147842510Y-73659738D01*
X147841151Y-73650063D01*
X147840741Y-73640302D01*
X147841287Y-73630547D01*
X147841992Y-73625992D01*
X147842000Y-73625870D01*
X147842154Y-73624947D01*
X147842781Y-73620892D01*
X147842915Y-73620372D01*
X147843603Y-73616233D01*
X147894565Y-73381357D01*
X147894871Y-73379995D01*
X147896016Y-73375959D01*
X147897101Y-73371922D01*
X147970739Y-73143141D01*
X147971177Y-73141815D01*
X147972710Y-73137910D01*
X147974184Y-73133998D01*
X148069797Y-72913494D01*
X148070361Y-72912217D01*
X148072269Y-72908479D01*
X148074117Y-72904731D01*
X148190791Y-72694609D01*
X148191477Y-72693394D01*
X148193734Y-72689871D01*
X148195945Y-72686310D01*
X148332566Y-72488577D01*
X148333368Y-72487434D01*
X148335966Y-72484138D01*
X148338506Y-72480820D01*
X148493771Y-72297363D01*
X148494681Y-72296304D01*
X148497557Y-72293309D01*
X148500439Y-72290223D01*
X148672854Y-72122802D01*
X148672864Y-72122791D01*
X148672877Y-72122780D01*
X148673872Y-72121827D01*
X148677034Y-72119121D01*
X148680198Y-72116336D01*
X148868139Y-71966530D01*
X148869237Y-71965668D01*
X148872658Y-71963276D01*
X148876068Y-71960821D01*
X149077729Y-71830070D01*
X149078906Y-71829319D01*
X149082566Y-71827260D01*
X149086177Y-71825162D01*
X149299621Y-71714722D01*
X149299637Y-71714713D01*
X149299656Y-71714704D01*
X149300882Y-71714081D01*
X149304658Y-71712419D01*
X149308523Y-71710653D01*
X149531741Y-71621562D01*
X149533041Y-71621054D01*
X149536999Y-71619756D01*
X149540981Y-71618388D01*
X149771828Y-71551504D01*
X149773172Y-71551125D01*
X149776566Y-71550369D01*
X149779963Y-71549512D01*
X149948307Y-71515697D01*
X149949215Y-71515521D01*
X149949262Y-71515510D01*
X149949305Y-71515504D01*
X149949677Y-71515432D01*
X149954348Y-71514796D01*
X149958937Y-71514151D01*
X149959142Y-71514142D01*
X149959358Y-71514113D01*
X149964071Y-71513935D01*
X149968698Y-71513741D01*
X149968911Y-71513753D01*
G37*
G36*
X150778453Y-71514287D02*
G01*
X150783008Y-71514992D01*
X150783130Y-71515000D01*
X150784053Y-71515154D01*
X150788108Y-71515781D01*
X150788628Y-71515915D01*
X150792767Y-71516603D01*
X151027640Y-71567564D01*
X151027644Y-71567565D01*
X151027649Y-71567566D01*
X151029005Y-71567871D01*
X151033041Y-71569016D01*
X151037078Y-71570101D01*
X151265854Y-71643737D01*
X151265860Y-71643739D01*
X151265867Y-71643742D01*
X151267185Y-71644177D01*
X151271054Y-71645696D01*
X151275002Y-71647184D01*
X151495499Y-71742794D01*
X151495507Y-71742797D01*
X151495516Y-71742801D01*
X151496783Y-71743361D01*
X151500521Y-71745269D01*
X151504269Y-71747117D01*
X151714391Y-71863791D01*
X151715606Y-71864477D01*
X151719129Y-71866734D01*
X151722690Y-71868945D01*
X151920423Y-72005566D01*
X151921566Y-72006368D01*
X151924862Y-72008966D01*
X151928180Y-72011506D01*
X152111637Y-72166771D01*
X152112696Y-72167681D01*
X152115691Y-72170557D01*
X152118777Y-72173439D01*
X152286198Y-72345854D01*
X152286209Y-72345864D01*
X152286220Y-72345877D01*
X152287173Y-72346872D01*
X152289879Y-72350034D01*
X152292664Y-72353198D01*
X152442470Y-72541139D01*
X152443332Y-72542237D01*
X152445724Y-72545658D01*
X152448179Y-72549068D01*
X152578930Y-72750729D01*
X152579681Y-72751906D01*
X152581740Y-72755566D01*
X152583838Y-72759177D01*
X152694278Y-72972621D01*
X152694287Y-72972637D01*
X152694296Y-72972656D01*
X152694919Y-72973882D01*
X152696581Y-72977658D01*
X152698347Y-72981523D01*
X152787438Y-73204741D01*
X152787946Y-73206041D01*
X152789244Y-73209999D01*
X152790612Y-73213981D01*
X152857496Y-73444828D01*
X152857875Y-73446172D01*
X152858631Y-73449566D01*
X152859488Y-73452963D01*
X152893303Y-73621307D01*
X152893479Y-73622215D01*
X152893490Y-73622262D01*
X152893496Y-73622305D01*
X152893568Y-73622677D01*
X152894190Y-73627242D01*
X152894849Y-73631937D01*
X152894858Y-73632142D01*
X152894887Y-73632358D01*
X152895065Y-73637071D01*
X152895259Y-73641698D01*
X152895247Y-73641911D01*
X152895255Y-73642121D01*
X152894976Y-73646753D01*
X152894713Y-73651453D01*
X152894681Y-73651662D01*
X152894668Y-73651873D01*
X152893936Y-73656473D01*
X152893219Y-73661108D01*
X152893166Y-73661314D01*
X152893133Y-73661522D01*
X152891962Y-73666005D01*
X152890789Y-73670571D01*
X152890716Y-73670772D01*
X152890663Y-73670974D01*
X152889063Y-73675313D01*
X152887447Y-73679752D01*
X152887355Y-73679944D01*
X152887282Y-73680142D01*
X152885242Y-73684354D01*
X152883226Y-73688562D01*
X152883117Y-73688742D01*
X152883024Y-73688934D01*
X152880618Y-73692869D01*
X152878165Y-73696919D01*
X152878034Y-73697094D01*
X152877927Y-73697269D01*
X152875116Y-73700994D01*
X152872312Y-73704742D01*
X152872174Y-73704893D01*
X152872042Y-73705068D01*
X152868800Y-73708588D01*
X152865724Y-73711957D01*
X152865569Y-73712097D01*
X152865424Y-73712254D01*
X152861876Y-73715421D01*
X152858464Y-73718494D01*
X152858298Y-73718617D01*
X152858136Y-73718761D01*
X152854295Y-73721568D01*
X152850600Y-73724292D01*
X152850420Y-73724399D01*
X152850248Y-73724525D01*
X152846282Y-73726866D01*
X152842208Y-73729295D01*
X152842009Y-73729388D01*
X152841834Y-73729492D01*
X152837607Y-73731460D01*
X152833368Y-73733455D01*
X152833176Y-73733523D01*
X152832977Y-73733616D01*
X152828512Y-73735184D01*
X152824164Y-73736732D01*
X152823956Y-73736784D01*
X152823759Y-73736853D01*
X152819156Y-73737981D01*
X152814684Y-73739096D01*
X152814484Y-73739125D01*
X152814270Y-73739178D01*
X152809578Y-73739850D01*
X152805019Y-73740523D01*
X152804804Y-73740534D01*
X152804598Y-73740563D01*
X152799871Y-73740775D01*
X152795261Y-73741000D01*
X151968781Y-73741000D01*
X151967385Y-73740990D01*
X151965453Y-73740869D01*
X151963509Y-73740861D01*
X151960583Y-73740562D01*
X151957634Y-73740377D01*
X151955705Y-73740064D01*
X151953789Y-73739869D01*
X151950920Y-73739290D01*
X151947990Y-73738815D01*
X151946108Y-73738318D01*
X151944213Y-73737935D01*
X151941396Y-73737073D01*
X151938544Y-73736319D01*
X151936725Y-73735643D01*
X151934871Y-73735075D01*
X151932164Y-73733946D01*
X151929387Y-73732914D01*
X151927626Y-73732055D01*
X151925853Y-73731316D01*
X151923281Y-73729936D01*
X151920606Y-73728631D01*
X151918942Y-73727607D01*
X151917244Y-73726696D01*
X151914809Y-73725065D01*
X151912284Y-73723511D01*
X151910730Y-73722331D01*
X151909128Y-73721258D01*
X151906860Y-73719394D01*
X151904502Y-73717604D01*
X151903078Y-73716285D01*
X151901580Y-73715054D01*
X151899491Y-73712964D01*
X151897334Y-73710966D01*
X151896051Y-73709521D01*
X151894674Y-73708143D01*
X151892800Y-73705859D01*
X151890847Y-73703660D01*
X151889708Y-73702092D01*
X151888476Y-73700591D01*
X151886833Y-73698134D01*
X151885105Y-73695756D01*
X151884127Y-73694088D01*
X151883044Y-73692470D01*
X151881647Y-73689863D01*
X151880161Y-73687330D01*
X151879351Y-73685577D01*
X151878430Y-73683858D01*
X151877291Y-73681118D01*
X151876063Y-73678461D01*
X151875430Y-73676643D01*
X151874679Y-73674837D01*
X151873812Y-73671998D01*
X151872850Y-73669234D01*
X151872395Y-73667354D01*
X151871827Y-73665493D01*
X151870341Y-73659612D01*
X151825063Y-73512703D01*
X151766552Y-73373031D01*
X151694697Y-73239749D01*
X151610183Y-73114117D01*
X151513801Y-72997319D01*
X151406487Y-72890489D01*
X151289260Y-72794641D01*
X151163239Y-72710689D01*
X151029635Y-72639441D01*
X150889695Y-72581561D01*
X150740115Y-72536199D01*
X150739761Y-72536089D01*
X150738429Y-72535747D01*
X150729248Y-72532405D01*
X150720438Y-72528184D01*
X150712081Y-72523123D01*
X150704258Y-72517270D01*
X150697043Y-72510682D01*
X150690506Y-72503422D01*
X150684708Y-72495558D01*
X150679705Y-72487166D01*
X150675545Y-72478326D01*
X150672268Y-72469122D01*
X150669904Y-72459642D01*
X150668477Y-72449977D01*
X150668000Y-72440219D01*
X150668000Y-71613739D01*
X150668010Y-71612343D01*
X150668623Y-71602592D01*
X150670185Y-71592948D01*
X150672681Y-71583502D01*
X150676086Y-71574345D01*
X150680369Y-71565564D01*
X150685489Y-71557242D01*
X150691396Y-71549460D01*
X150698034Y-71542292D01*
X150705340Y-71535805D01*
X150713244Y-71530063D01*
X150721670Y-71525119D01*
X150730539Y-71521021D01*
X150739766Y-71517808D01*
X150749262Y-71515510D01*
X150758937Y-71514151D01*
X150768698Y-71513741D01*
X150778453Y-71514287D01*
G37*
%TD*%
%TO.C,R13*%
G36*
G01*
X147389000Y-71233000D02*
X147759000Y-71233000D01*
G75*
G02*
X147894000Y-71368000I0J-135000D01*
G01*
X147894000Y-71638000D01*
G75*
G02*
X147759000Y-71773000I-135000J0D01*
G01*
X147389000Y-71773000D01*
G75*
G02*
X147254000Y-71638000I0J135000D01*
G01*
X147254000Y-71368000D01*
G75*
G02*
X147389000Y-71233000I135000J0D01*
G01*
G37*
G36*
G01*
X147389000Y-70213000D02*
X147759000Y-70213000D01*
G75*
G02*
X147894000Y-70348000I0J-135000D01*
G01*
X147894000Y-70618000D01*
G75*
G02*
X147759000Y-70753000I-135000J0D01*
G01*
X147389000Y-70753000D01*
G75*
G02*
X147254000Y-70618000I0J135000D01*
G01*
X147254000Y-70348000D01*
G75*
G02*
X147389000Y-70213000I135000J0D01*
G01*
G37*
%TD*%
%TO.C,R7*%
G36*
G01*
X138797000Y-66479000D02*
X138797000Y-66109000D01*
G75*
G02*
X138932000Y-65974000I135000J0D01*
G01*
X139202000Y-65974000D01*
G75*
G02*
X139337000Y-66109000I0J-135000D01*
G01*
X139337000Y-66479000D01*
G75*
G02*
X139202000Y-66614000I-135000J0D01*
G01*
X138932000Y-66614000D01*
G75*
G02*
X138797000Y-66479000I0J135000D01*
G01*
G37*
G36*
G01*
X137777000Y-66479000D02*
X137777000Y-66109000D01*
G75*
G02*
X137912000Y-65974000I135000J0D01*
G01*
X138182000Y-65974000D01*
G75*
G02*
X138317000Y-66109000I0J-135000D01*
G01*
X138317000Y-66479000D01*
G75*
G02*
X138182000Y-66614000I-135000J0D01*
G01*
X137912000Y-66614000D01*
G75*
G02*
X137777000Y-66479000I0J135000D01*
G01*
G37*
%TD*%
%TO.C,R6*%
G36*
G01*
X136765000Y-66479000D02*
X136765000Y-66109000D01*
G75*
G02*
X136900000Y-65974000I135000J0D01*
G01*
X137170000Y-65974000D01*
G75*
G02*
X137305000Y-66109000I0J-135000D01*
G01*
X137305000Y-66479000D01*
G75*
G02*
X137170000Y-66614000I-135000J0D01*
G01*
X136900000Y-66614000D01*
G75*
G02*
X136765000Y-66479000I0J135000D01*
G01*
G37*
G36*
G01*
X135745000Y-66479000D02*
X135745000Y-66109000D01*
G75*
G02*
X135880000Y-65974000I135000J0D01*
G01*
X136150000Y-65974000D01*
G75*
G02*
X136285000Y-66109000I0J-135000D01*
G01*
X136285000Y-66479000D01*
G75*
G02*
X136150000Y-66614000I-135000J0D01*
G01*
X135880000Y-66614000D01*
G75*
G02*
X135745000Y-66479000I0J135000D01*
G01*
G37*
%TD*%
D11*
%TO.C,D5*%
X133731000Y-59308000D03*
X133731000Y-56008000D03*
%TD*%
%TO.C,C17*%
G36*
G01*
X146134000Y-71193000D02*
X146474000Y-71193000D01*
G75*
G02*
X146614000Y-71333000I0J-140000D01*
G01*
X146614000Y-71613000D01*
G75*
G02*
X146474000Y-71753000I-140000J0D01*
G01*
X146134000Y-71753000D01*
G75*
G02*
X145994000Y-71613000I0J140000D01*
G01*
X145994000Y-71333000D01*
G75*
G02*
X146134000Y-71193000I140000J0D01*
G01*
G37*
G36*
G01*
X146134000Y-70233000D02*
X146474000Y-70233000D01*
G75*
G02*
X146614000Y-70373000I0J-140000D01*
G01*
X146614000Y-70653000D01*
G75*
G02*
X146474000Y-70793000I-140000J0D01*
G01*
X146134000Y-70793000D01*
G75*
G02*
X145994000Y-70653000I0J140000D01*
G01*
X145994000Y-70373000D01*
G75*
G02*
X146134000Y-70233000I140000J0D01*
G01*
G37*
%TD*%
%TO.C,C9*%
G36*
G01*
X138376000Y-46525000D02*
X138376000Y-46185000D01*
G75*
G02*
X138516000Y-46045000I140000J0D01*
G01*
X138796000Y-46045000D01*
G75*
G02*
X138936000Y-46185000I0J-140000D01*
G01*
X138936000Y-46525000D01*
G75*
G02*
X138796000Y-46665000I-140000J0D01*
G01*
X138516000Y-46665000D01*
G75*
G02*
X138376000Y-46525000I0J140000D01*
G01*
G37*
G36*
G01*
X137416000Y-46525000D02*
X137416000Y-46185000D01*
G75*
G02*
X137556000Y-46045000I140000J0D01*
G01*
X137836000Y-46045000D01*
G75*
G02*
X137976000Y-46185000I0J-140000D01*
G01*
X137976000Y-46525000D01*
G75*
G02*
X137836000Y-46665000I-140000J0D01*
G01*
X137556000Y-46665000D01*
G75*
G02*
X137416000Y-46525000I0J140000D01*
G01*
G37*
%TD*%
D12*
%TO.C,J2*%
X132583000Y-65738000D03*
X132583000Y-66538000D03*
X132583000Y-71338000D03*
X132583000Y-72138000D03*
X132583000Y-72438000D03*
X132583000Y-71638000D03*
X132583000Y-70838000D03*
X132583000Y-70338000D03*
X132583000Y-69838000D03*
X132583000Y-69338000D03*
X132583000Y-68838000D03*
X132583000Y-68338000D03*
X132583000Y-67838000D03*
X132583000Y-67338000D03*
X132583000Y-66838000D03*
X132583000Y-66038000D03*
%TD*%
M02*
