%TF.GenerationSoftware,KiCad,Pcbnew,(5.1.10)-1*%
%TF.CreationDate,2021-11-20T18:05:25-05:00*%
%TF.ProjectId,MicroMod_Extension,4d696372-6f4d-46f6-945f-457874656e73,rev?*%
%TF.SameCoordinates,Original*%
%TF.FileFunction,Soldermask,Bot*%
%TF.FilePolarity,Negative*%
%FSLAX46Y46*%
G04 Gerber Fmt 4.6, Leading zero omitted, Abs format (unit mm)*
G04 Created by KiCad (PCBNEW (5.1.10)-1) date 2021-11-20 18:05:25*
%MOMM*%
%LPD*%
G01*
G04 APERTURE LIST*
%ADD10C,1.600000*%
%ADD11C,1.100000*%
%ADD12C,3.000000*%
%ADD13C,0.100000*%
%ADD14C,4.000000*%
%ADD15C,0.750000*%
%ADD16R,1.200000X0.900000*%
%ADD17R,1.150000X0.300000*%
%ADD18C,0.650000*%
%ADD19O,1.600000X1.000000*%
%ADD20O,2.100000X1.000000*%
G04 APERTURE END LIST*
%TO.C,J1*%
G36*
G01*
X137331000Y-48036000D02*
X137331000Y-49574000D01*
G75*
G02*
X137325000Y-49580000I-6000J0D01*
G01*
X137037000Y-49580000D01*
G75*
G02*
X137031000Y-49574000I0J6000D01*
G01*
X137031000Y-48036000D01*
G75*
G02*
X137037000Y-48030000I6000J0D01*
G01*
X137325000Y-48030000D01*
G75*
G02*
X137331000Y-48036000I0J-6000D01*
G01*
G37*
G36*
G01*
X137581000Y-55586000D02*
X137581000Y-57124000D01*
G75*
G02*
X137575000Y-57130000I-6000J0D01*
G01*
X137287000Y-57130000D01*
G75*
G02*
X137281000Y-57124000I0J6000D01*
G01*
X137281000Y-55586000D01*
G75*
G02*
X137287000Y-55580000I6000J0D01*
G01*
X137575000Y-55580000D01*
G75*
G02*
X137581000Y-55586000I0J-6000D01*
G01*
G37*
G36*
G01*
X137831000Y-48036000D02*
X137831000Y-49574000D01*
G75*
G02*
X137825000Y-49580000I-6000J0D01*
G01*
X137537000Y-49580000D01*
G75*
G02*
X137531000Y-49574000I0J6000D01*
G01*
X137531000Y-48036000D01*
G75*
G02*
X137537000Y-48030000I6000J0D01*
G01*
X137825000Y-48030000D01*
G75*
G02*
X137831000Y-48036000I0J-6000D01*
G01*
G37*
G36*
G01*
X138081000Y-55586000D02*
X138081000Y-57124000D01*
G75*
G02*
X138075000Y-57130000I-6000J0D01*
G01*
X137787000Y-57130000D01*
G75*
G02*
X137781000Y-57124000I0J6000D01*
G01*
X137781000Y-55586000D01*
G75*
G02*
X137787000Y-55580000I6000J0D01*
G01*
X138075000Y-55580000D01*
G75*
G02*
X138081000Y-55586000I0J-6000D01*
G01*
G37*
G36*
G01*
X138331000Y-48036000D02*
X138331000Y-49574000D01*
G75*
G02*
X138325000Y-49580000I-6000J0D01*
G01*
X138037000Y-49580000D01*
G75*
G02*
X138031000Y-49574000I0J6000D01*
G01*
X138031000Y-48036000D01*
G75*
G02*
X138037000Y-48030000I6000J0D01*
G01*
X138325000Y-48030000D01*
G75*
G02*
X138331000Y-48036000I0J-6000D01*
G01*
G37*
G36*
G01*
X138581000Y-55586000D02*
X138581000Y-57124000D01*
G75*
G02*
X138575000Y-57130000I-6000J0D01*
G01*
X138287000Y-57130000D01*
G75*
G02*
X138281000Y-57124000I0J6000D01*
G01*
X138281000Y-55586000D01*
G75*
G02*
X138287000Y-55580000I6000J0D01*
G01*
X138575000Y-55580000D01*
G75*
G02*
X138581000Y-55586000I0J-6000D01*
G01*
G37*
G36*
G01*
X138831000Y-48036000D02*
X138831000Y-49574000D01*
G75*
G02*
X138825000Y-49580000I-6000J0D01*
G01*
X138537000Y-49580000D01*
G75*
G02*
X138531000Y-49574000I0J6000D01*
G01*
X138531000Y-48036000D01*
G75*
G02*
X138537000Y-48030000I6000J0D01*
G01*
X138825000Y-48030000D01*
G75*
G02*
X138831000Y-48036000I0J-6000D01*
G01*
G37*
G36*
G01*
X139081000Y-55586000D02*
X139081000Y-57124000D01*
G75*
G02*
X139075000Y-57130000I-6000J0D01*
G01*
X138787000Y-57130000D01*
G75*
G02*
X138781000Y-57124000I0J6000D01*
G01*
X138781000Y-55586000D01*
G75*
G02*
X138787000Y-55580000I6000J0D01*
G01*
X139075000Y-55580000D01*
G75*
G02*
X139081000Y-55586000I0J-6000D01*
G01*
G37*
G36*
G01*
X139331000Y-48036000D02*
X139331000Y-49574000D01*
G75*
G02*
X139325000Y-49580000I-6000J0D01*
G01*
X139037000Y-49580000D01*
G75*
G02*
X139031000Y-49574000I0J6000D01*
G01*
X139031000Y-48036000D01*
G75*
G02*
X139037000Y-48030000I6000J0D01*
G01*
X139325000Y-48030000D01*
G75*
G02*
X139331000Y-48036000I0J-6000D01*
G01*
G37*
G36*
G01*
X139581000Y-55586000D02*
X139581000Y-57124000D01*
G75*
G02*
X139575000Y-57130000I-6000J0D01*
G01*
X139287000Y-57130000D01*
G75*
G02*
X139281000Y-57124000I0J6000D01*
G01*
X139281000Y-55586000D01*
G75*
G02*
X139287000Y-55580000I6000J0D01*
G01*
X139575000Y-55580000D01*
G75*
G02*
X139581000Y-55586000I0J-6000D01*
G01*
G37*
G36*
G01*
X139831000Y-48036000D02*
X139831000Y-49574000D01*
G75*
G02*
X139825000Y-49580000I-6000J0D01*
G01*
X139537000Y-49580000D01*
G75*
G02*
X139531000Y-49574000I0J6000D01*
G01*
X139531000Y-48036000D01*
G75*
G02*
X139537000Y-48030000I6000J0D01*
G01*
X139825000Y-48030000D01*
G75*
G02*
X139831000Y-48036000I0J-6000D01*
G01*
G37*
G36*
G01*
X140081000Y-55586000D02*
X140081000Y-57124000D01*
G75*
G02*
X140075000Y-57130000I-6000J0D01*
G01*
X139787000Y-57130000D01*
G75*
G02*
X139781000Y-57124000I0J6000D01*
G01*
X139781000Y-55586000D01*
G75*
G02*
X139787000Y-55580000I6000J0D01*
G01*
X140075000Y-55580000D01*
G75*
G02*
X140081000Y-55586000I0J-6000D01*
G01*
G37*
G36*
G01*
X140331000Y-48036000D02*
X140331000Y-49574000D01*
G75*
G02*
X140325000Y-49580000I-6000J0D01*
G01*
X140037000Y-49580000D01*
G75*
G02*
X140031000Y-49574000I0J6000D01*
G01*
X140031000Y-48036000D01*
G75*
G02*
X140037000Y-48030000I6000J0D01*
G01*
X140325000Y-48030000D01*
G75*
G02*
X140331000Y-48036000I0J-6000D01*
G01*
G37*
G36*
G01*
X140581000Y-55586000D02*
X140581000Y-57124000D01*
G75*
G02*
X140575000Y-57130000I-6000J0D01*
G01*
X140287000Y-57130000D01*
G75*
G02*
X140281000Y-57124000I0J6000D01*
G01*
X140281000Y-55586000D01*
G75*
G02*
X140287000Y-55580000I6000J0D01*
G01*
X140575000Y-55580000D01*
G75*
G02*
X140581000Y-55586000I0J-6000D01*
G01*
G37*
G36*
G01*
X140831000Y-48036000D02*
X140831000Y-49574000D01*
G75*
G02*
X140825000Y-49580000I-6000J0D01*
G01*
X140537000Y-49580000D01*
G75*
G02*
X140531000Y-49574000I0J6000D01*
G01*
X140531000Y-48036000D01*
G75*
G02*
X140537000Y-48030000I6000J0D01*
G01*
X140825000Y-48030000D01*
G75*
G02*
X140831000Y-48036000I0J-6000D01*
G01*
G37*
G36*
G01*
X141081000Y-55586000D02*
X141081000Y-57124000D01*
G75*
G02*
X141075000Y-57130000I-6000J0D01*
G01*
X140787000Y-57130000D01*
G75*
G02*
X140781000Y-57124000I0J6000D01*
G01*
X140781000Y-55586000D01*
G75*
G02*
X140787000Y-55580000I6000J0D01*
G01*
X141075000Y-55580000D01*
G75*
G02*
X141081000Y-55586000I0J-6000D01*
G01*
G37*
G36*
G01*
X141331000Y-48036000D02*
X141331000Y-49574000D01*
G75*
G02*
X141325000Y-49580000I-6000J0D01*
G01*
X141037000Y-49580000D01*
G75*
G02*
X141031000Y-49574000I0J6000D01*
G01*
X141031000Y-48036000D01*
G75*
G02*
X141037000Y-48030000I6000J0D01*
G01*
X141325000Y-48030000D01*
G75*
G02*
X141331000Y-48036000I0J-6000D01*
G01*
G37*
G36*
G01*
X141581000Y-55586000D02*
X141581000Y-57124000D01*
G75*
G02*
X141575000Y-57130000I-6000J0D01*
G01*
X141287000Y-57130000D01*
G75*
G02*
X141281000Y-57124000I0J6000D01*
G01*
X141281000Y-55586000D01*
G75*
G02*
X141287000Y-55580000I6000J0D01*
G01*
X141575000Y-55580000D01*
G75*
G02*
X141581000Y-55586000I0J-6000D01*
G01*
G37*
G36*
G01*
X141831000Y-48036000D02*
X141831000Y-49574000D01*
G75*
G02*
X141825000Y-49580000I-6000J0D01*
G01*
X141537000Y-49580000D01*
G75*
G02*
X141531000Y-49574000I0J6000D01*
G01*
X141531000Y-48036000D01*
G75*
G02*
X141537000Y-48030000I6000J0D01*
G01*
X141825000Y-48030000D01*
G75*
G02*
X141831000Y-48036000I0J-6000D01*
G01*
G37*
G36*
G01*
X142081000Y-55586000D02*
X142081000Y-57124000D01*
G75*
G02*
X142075000Y-57130000I-6000J0D01*
G01*
X141787000Y-57130000D01*
G75*
G02*
X141781000Y-57124000I0J6000D01*
G01*
X141781000Y-55586000D01*
G75*
G02*
X141787000Y-55580000I6000J0D01*
G01*
X142075000Y-55580000D01*
G75*
G02*
X142081000Y-55586000I0J-6000D01*
G01*
G37*
G36*
G01*
X142331000Y-48036000D02*
X142331000Y-49574000D01*
G75*
G02*
X142325000Y-49580000I-6000J0D01*
G01*
X142037000Y-49580000D01*
G75*
G02*
X142031000Y-49574000I0J6000D01*
G01*
X142031000Y-48036000D01*
G75*
G02*
X142037000Y-48030000I6000J0D01*
G01*
X142325000Y-48030000D01*
G75*
G02*
X142331000Y-48036000I0J-6000D01*
G01*
G37*
G36*
G01*
X142581000Y-55586000D02*
X142581000Y-57124000D01*
G75*
G02*
X142575000Y-57130000I-6000J0D01*
G01*
X142287000Y-57130000D01*
G75*
G02*
X142281000Y-57124000I0J6000D01*
G01*
X142281000Y-55586000D01*
G75*
G02*
X142287000Y-55580000I6000J0D01*
G01*
X142575000Y-55580000D01*
G75*
G02*
X142581000Y-55586000I0J-6000D01*
G01*
G37*
G36*
G01*
X142831000Y-48036000D02*
X142831000Y-49574000D01*
G75*
G02*
X142825000Y-49580000I-6000J0D01*
G01*
X142537000Y-49580000D01*
G75*
G02*
X142531000Y-49574000I0J6000D01*
G01*
X142531000Y-48036000D01*
G75*
G02*
X142537000Y-48030000I6000J0D01*
G01*
X142825000Y-48030000D01*
G75*
G02*
X142831000Y-48036000I0J-6000D01*
G01*
G37*
G36*
G01*
X143081000Y-55586000D02*
X143081000Y-57124000D01*
G75*
G02*
X143075000Y-57130000I-6000J0D01*
G01*
X142787000Y-57130000D01*
G75*
G02*
X142781000Y-57124000I0J6000D01*
G01*
X142781000Y-55586000D01*
G75*
G02*
X142787000Y-55580000I6000J0D01*
G01*
X143075000Y-55580000D01*
G75*
G02*
X143081000Y-55586000I0J-6000D01*
G01*
G37*
G36*
G01*
X143331000Y-48036000D02*
X143331000Y-49574000D01*
G75*
G02*
X143325000Y-49580000I-6000J0D01*
G01*
X143037000Y-49580000D01*
G75*
G02*
X143031000Y-49574000I0J6000D01*
G01*
X143031000Y-48036000D01*
G75*
G02*
X143037000Y-48030000I6000J0D01*
G01*
X143325000Y-48030000D01*
G75*
G02*
X143331000Y-48036000I0J-6000D01*
G01*
G37*
G36*
G01*
X143581000Y-55586000D02*
X143581000Y-57124000D01*
G75*
G02*
X143575000Y-57130000I-6000J0D01*
G01*
X143287000Y-57130000D01*
G75*
G02*
X143281000Y-57124000I0J6000D01*
G01*
X143281000Y-55586000D01*
G75*
G02*
X143287000Y-55580000I6000J0D01*
G01*
X143575000Y-55580000D01*
G75*
G02*
X143581000Y-55586000I0J-6000D01*
G01*
G37*
G36*
G01*
X143831000Y-48036000D02*
X143831000Y-49574000D01*
G75*
G02*
X143825000Y-49580000I-6000J0D01*
G01*
X143537000Y-49580000D01*
G75*
G02*
X143531000Y-49574000I0J6000D01*
G01*
X143531000Y-48036000D01*
G75*
G02*
X143537000Y-48030000I6000J0D01*
G01*
X143825000Y-48030000D01*
G75*
G02*
X143831000Y-48036000I0J-6000D01*
G01*
G37*
G36*
G01*
X144081000Y-55586000D02*
X144081000Y-57124000D01*
G75*
G02*
X144075000Y-57130000I-6000J0D01*
G01*
X143787000Y-57130000D01*
G75*
G02*
X143781000Y-57124000I0J6000D01*
G01*
X143781000Y-55586000D01*
G75*
G02*
X143787000Y-55580000I6000J0D01*
G01*
X144075000Y-55580000D01*
G75*
G02*
X144081000Y-55586000I0J-6000D01*
G01*
G37*
G36*
G01*
X144331000Y-48036000D02*
X144331000Y-49574000D01*
G75*
G02*
X144325000Y-49580000I-6000J0D01*
G01*
X144037000Y-49580000D01*
G75*
G02*
X144031000Y-49574000I0J6000D01*
G01*
X144031000Y-48036000D01*
G75*
G02*
X144037000Y-48030000I6000J0D01*
G01*
X144325000Y-48030000D01*
G75*
G02*
X144331000Y-48036000I0J-6000D01*
G01*
G37*
G36*
G01*
X144581000Y-55586000D02*
X144581000Y-57124000D01*
G75*
G02*
X144575000Y-57130000I-6000J0D01*
G01*
X144287000Y-57130000D01*
G75*
G02*
X144281000Y-57124000I0J6000D01*
G01*
X144281000Y-55586000D01*
G75*
G02*
X144287000Y-55580000I6000J0D01*
G01*
X144575000Y-55580000D01*
G75*
G02*
X144581000Y-55586000I0J-6000D01*
G01*
G37*
G36*
G01*
X144831000Y-48036000D02*
X144831000Y-49574000D01*
G75*
G02*
X144825000Y-49580000I-6000J0D01*
G01*
X144537000Y-49580000D01*
G75*
G02*
X144531000Y-49574000I0J6000D01*
G01*
X144531000Y-48036000D01*
G75*
G02*
X144537000Y-48030000I6000J0D01*
G01*
X144825000Y-48030000D01*
G75*
G02*
X144831000Y-48036000I0J-6000D01*
G01*
G37*
G36*
G01*
X145081000Y-55586000D02*
X145081000Y-57124000D01*
G75*
G02*
X145075000Y-57130000I-6000J0D01*
G01*
X144787000Y-57130000D01*
G75*
G02*
X144781000Y-57124000I0J6000D01*
G01*
X144781000Y-55586000D01*
G75*
G02*
X144787000Y-55580000I6000J0D01*
G01*
X145075000Y-55580000D01*
G75*
G02*
X145081000Y-55586000I0J-6000D01*
G01*
G37*
G36*
G01*
X145331000Y-48036000D02*
X145331000Y-49574000D01*
G75*
G02*
X145325000Y-49580000I-6000J0D01*
G01*
X145037000Y-49580000D01*
G75*
G02*
X145031000Y-49574000I0J6000D01*
G01*
X145031000Y-48036000D01*
G75*
G02*
X145037000Y-48030000I6000J0D01*
G01*
X145325000Y-48030000D01*
G75*
G02*
X145331000Y-48036000I0J-6000D01*
G01*
G37*
G36*
G01*
X145581000Y-55586000D02*
X145581000Y-57124000D01*
G75*
G02*
X145575000Y-57130000I-6000J0D01*
G01*
X145287000Y-57130000D01*
G75*
G02*
X145281000Y-57124000I0J6000D01*
G01*
X145281000Y-55586000D01*
G75*
G02*
X145287000Y-55580000I6000J0D01*
G01*
X145575000Y-55580000D01*
G75*
G02*
X145581000Y-55586000I0J-6000D01*
G01*
G37*
G36*
G01*
X145831000Y-48036000D02*
X145831000Y-49574000D01*
G75*
G02*
X145825000Y-49580000I-6000J0D01*
G01*
X145537000Y-49580000D01*
G75*
G02*
X145531000Y-49574000I0J6000D01*
G01*
X145531000Y-48036000D01*
G75*
G02*
X145537000Y-48030000I6000J0D01*
G01*
X145825000Y-48030000D01*
G75*
G02*
X145831000Y-48036000I0J-6000D01*
G01*
G37*
G36*
G01*
X146081000Y-55586000D02*
X146081000Y-57124000D01*
G75*
G02*
X146075000Y-57130000I-6000J0D01*
G01*
X145787000Y-57130000D01*
G75*
G02*
X145781000Y-57124000I0J6000D01*
G01*
X145781000Y-55586000D01*
G75*
G02*
X145787000Y-55580000I6000J0D01*
G01*
X146075000Y-55580000D01*
G75*
G02*
X146081000Y-55586000I0J-6000D01*
G01*
G37*
G36*
G01*
X146331000Y-48036000D02*
X146331000Y-49574000D01*
G75*
G02*
X146325000Y-49580000I-6000J0D01*
G01*
X146037000Y-49580000D01*
G75*
G02*
X146031000Y-49574000I0J6000D01*
G01*
X146031000Y-48036000D01*
G75*
G02*
X146037000Y-48030000I6000J0D01*
G01*
X146325000Y-48030000D01*
G75*
G02*
X146331000Y-48036000I0J-6000D01*
G01*
G37*
G36*
G01*
X146581000Y-55586000D02*
X146581000Y-57124000D01*
G75*
G02*
X146575000Y-57130000I-6000J0D01*
G01*
X146287000Y-57130000D01*
G75*
G02*
X146281000Y-57124000I0J6000D01*
G01*
X146281000Y-55586000D01*
G75*
G02*
X146287000Y-55580000I6000J0D01*
G01*
X146575000Y-55580000D01*
G75*
G02*
X146581000Y-55586000I0J-6000D01*
G01*
G37*
G36*
G01*
X146831000Y-48036000D02*
X146831000Y-49574000D01*
G75*
G02*
X146825000Y-49580000I-6000J0D01*
G01*
X146537000Y-49580000D01*
G75*
G02*
X146531000Y-49574000I0J6000D01*
G01*
X146531000Y-48036000D01*
G75*
G02*
X146537000Y-48030000I6000J0D01*
G01*
X146825000Y-48030000D01*
G75*
G02*
X146831000Y-48036000I0J-6000D01*
G01*
G37*
G36*
G01*
X147081000Y-55586000D02*
X147081000Y-57124000D01*
G75*
G02*
X147075000Y-57130000I-6000J0D01*
G01*
X146787000Y-57130000D01*
G75*
G02*
X146781000Y-57124000I0J6000D01*
G01*
X146781000Y-55586000D01*
G75*
G02*
X146787000Y-55580000I6000J0D01*
G01*
X147075000Y-55580000D01*
G75*
G02*
X147081000Y-55586000I0J-6000D01*
G01*
G37*
G36*
G01*
X147331000Y-48036000D02*
X147331000Y-49574000D01*
G75*
G02*
X147325000Y-49580000I-6000J0D01*
G01*
X147037000Y-49580000D01*
G75*
G02*
X147031000Y-49574000I0J6000D01*
G01*
X147031000Y-48036000D01*
G75*
G02*
X147037000Y-48030000I6000J0D01*
G01*
X147325000Y-48030000D01*
G75*
G02*
X147331000Y-48036000I0J-6000D01*
G01*
G37*
G36*
G01*
X147581000Y-55586000D02*
X147581000Y-57124000D01*
G75*
G02*
X147575000Y-57130000I-6000J0D01*
G01*
X147287000Y-57130000D01*
G75*
G02*
X147281000Y-57124000I0J6000D01*
G01*
X147281000Y-55586000D01*
G75*
G02*
X147287000Y-55580000I6000J0D01*
G01*
X147575000Y-55580000D01*
G75*
G02*
X147581000Y-55586000I0J-6000D01*
G01*
G37*
G36*
G01*
X147831000Y-48036000D02*
X147831000Y-49574000D01*
G75*
G02*
X147825000Y-49580000I-6000J0D01*
G01*
X147537000Y-49580000D01*
G75*
G02*
X147531000Y-49574000I0J6000D01*
G01*
X147531000Y-48036000D01*
G75*
G02*
X147537000Y-48030000I6000J0D01*
G01*
X147825000Y-48030000D01*
G75*
G02*
X147831000Y-48036000I0J-6000D01*
G01*
G37*
G36*
G01*
X148081000Y-55586000D02*
X148081000Y-57124000D01*
G75*
G02*
X148075000Y-57130000I-6000J0D01*
G01*
X147787000Y-57130000D01*
G75*
G02*
X147781000Y-57124000I0J6000D01*
G01*
X147781000Y-55586000D01*
G75*
G02*
X147787000Y-55580000I6000J0D01*
G01*
X148075000Y-55580000D01*
G75*
G02*
X148081000Y-55586000I0J-6000D01*
G01*
G37*
G36*
G01*
X150331000Y-48036000D02*
X150331000Y-49574000D01*
G75*
G02*
X150325000Y-49580000I-6000J0D01*
G01*
X150037000Y-49580000D01*
G75*
G02*
X150031000Y-49574000I0J6000D01*
G01*
X150031000Y-48036000D01*
G75*
G02*
X150037000Y-48030000I6000J0D01*
G01*
X150325000Y-48030000D01*
G75*
G02*
X150331000Y-48036000I0J-6000D01*
G01*
G37*
G36*
G01*
X150581000Y-55586000D02*
X150581000Y-57124000D01*
G75*
G02*
X150575000Y-57130000I-6000J0D01*
G01*
X150287000Y-57130000D01*
G75*
G02*
X150281000Y-57124000I0J6000D01*
G01*
X150281000Y-55586000D01*
G75*
G02*
X150287000Y-55580000I6000J0D01*
G01*
X150575000Y-55580000D01*
G75*
G02*
X150581000Y-55586000I0J-6000D01*
G01*
G37*
G36*
G01*
X150831000Y-48036000D02*
X150831000Y-49574000D01*
G75*
G02*
X150825000Y-49580000I-6000J0D01*
G01*
X150537000Y-49580000D01*
G75*
G02*
X150531000Y-49574000I0J6000D01*
G01*
X150531000Y-48036000D01*
G75*
G02*
X150537000Y-48030000I6000J0D01*
G01*
X150825000Y-48030000D01*
G75*
G02*
X150831000Y-48036000I0J-6000D01*
G01*
G37*
G36*
G01*
X151081000Y-55586000D02*
X151081000Y-57124000D01*
G75*
G02*
X151075000Y-57130000I-6000J0D01*
G01*
X150787000Y-57130000D01*
G75*
G02*
X150781000Y-57124000I0J6000D01*
G01*
X150781000Y-55586000D01*
G75*
G02*
X150787000Y-55580000I6000J0D01*
G01*
X151075000Y-55580000D01*
G75*
G02*
X151081000Y-55586000I0J-6000D01*
G01*
G37*
G36*
G01*
X151331000Y-48036000D02*
X151331000Y-49574000D01*
G75*
G02*
X151325000Y-49580000I-6000J0D01*
G01*
X151037000Y-49580000D01*
G75*
G02*
X151031000Y-49574000I0J6000D01*
G01*
X151031000Y-48036000D01*
G75*
G02*
X151037000Y-48030000I6000J0D01*
G01*
X151325000Y-48030000D01*
G75*
G02*
X151331000Y-48036000I0J-6000D01*
G01*
G37*
G36*
G01*
X151581000Y-55586000D02*
X151581000Y-57124000D01*
G75*
G02*
X151575000Y-57130000I-6000J0D01*
G01*
X151287000Y-57130000D01*
G75*
G02*
X151281000Y-57124000I0J6000D01*
G01*
X151281000Y-55586000D01*
G75*
G02*
X151287000Y-55580000I6000J0D01*
G01*
X151575000Y-55580000D01*
G75*
G02*
X151581000Y-55586000I0J-6000D01*
G01*
G37*
G36*
G01*
X151831000Y-48036000D02*
X151831000Y-49574000D01*
G75*
G02*
X151825000Y-49580000I-6000J0D01*
G01*
X151537000Y-49580000D01*
G75*
G02*
X151531000Y-49574000I0J6000D01*
G01*
X151531000Y-48036000D01*
G75*
G02*
X151537000Y-48030000I6000J0D01*
G01*
X151825000Y-48030000D01*
G75*
G02*
X151831000Y-48036000I0J-6000D01*
G01*
G37*
G36*
G01*
X152081000Y-55586000D02*
X152081000Y-57124000D01*
G75*
G02*
X152075000Y-57130000I-6000J0D01*
G01*
X151787000Y-57130000D01*
G75*
G02*
X151781000Y-57124000I0J6000D01*
G01*
X151781000Y-55586000D01*
G75*
G02*
X151787000Y-55580000I6000J0D01*
G01*
X152075000Y-55580000D01*
G75*
G02*
X152081000Y-55586000I0J-6000D01*
G01*
G37*
G36*
G01*
X152331000Y-48036000D02*
X152331000Y-49574000D01*
G75*
G02*
X152325000Y-49580000I-6000J0D01*
G01*
X152037000Y-49580000D01*
G75*
G02*
X152031000Y-49574000I0J6000D01*
G01*
X152031000Y-48036000D01*
G75*
G02*
X152037000Y-48030000I6000J0D01*
G01*
X152325000Y-48030000D01*
G75*
G02*
X152331000Y-48036000I0J-6000D01*
G01*
G37*
G36*
G01*
X152581000Y-55586000D02*
X152581000Y-57124000D01*
G75*
G02*
X152575000Y-57130000I-6000J0D01*
G01*
X152287000Y-57130000D01*
G75*
G02*
X152281000Y-57124000I0J6000D01*
G01*
X152281000Y-55586000D01*
G75*
G02*
X152287000Y-55580000I6000J0D01*
G01*
X152575000Y-55580000D01*
G75*
G02*
X152581000Y-55586000I0J-6000D01*
G01*
G37*
G36*
G01*
X136681000Y-48313000D02*
X136681000Y-50847000D01*
G75*
G02*
X136573000Y-50955000I-108000J0D01*
G01*
X135589000Y-50955000D01*
G75*
G02*
X135481000Y-50847000I0J108000D01*
G01*
X135481000Y-48313000D01*
G75*
G02*
X135589000Y-48205000I108000J0D01*
G01*
X136573000Y-48205000D01*
G75*
G02*
X136681000Y-48313000I0J-108000D01*
G01*
G37*
G36*
G01*
X157381000Y-48313000D02*
X157381000Y-50847000D01*
G75*
G02*
X157273000Y-50955000I-108000J0D01*
G01*
X156289000Y-50955000D01*
G75*
G02*
X156181000Y-50847000I0J108000D01*
G01*
X156181000Y-48313000D01*
G75*
G02*
X156289000Y-48205000I108000J0D01*
G01*
X157273000Y-48205000D01*
G75*
G02*
X157381000Y-48313000I0J-108000D01*
G01*
G37*
G36*
G01*
X152831000Y-48036000D02*
X152831000Y-49574000D01*
G75*
G02*
X152825000Y-49580000I-6000J0D01*
G01*
X152537000Y-49580000D01*
G75*
G02*
X152531000Y-49574000I0J6000D01*
G01*
X152531000Y-48036000D01*
G75*
G02*
X152537000Y-48030000I6000J0D01*
G01*
X152825000Y-48030000D01*
G75*
G02*
X152831000Y-48036000I0J-6000D01*
G01*
G37*
G36*
G01*
X153331000Y-48036000D02*
X153331000Y-49574000D01*
G75*
G02*
X153325000Y-49580000I-6000J0D01*
G01*
X153037000Y-49580000D01*
G75*
G02*
X153031000Y-49574000I0J6000D01*
G01*
X153031000Y-48036000D01*
G75*
G02*
X153037000Y-48030000I6000J0D01*
G01*
X153325000Y-48030000D01*
G75*
G02*
X153331000Y-48036000I0J-6000D01*
G01*
G37*
G36*
G01*
X153831000Y-48036000D02*
X153831000Y-49574000D01*
G75*
G02*
X153825000Y-49580000I-6000J0D01*
G01*
X153537000Y-49580000D01*
G75*
G02*
X153531000Y-49574000I0J6000D01*
G01*
X153531000Y-48036000D01*
G75*
G02*
X153537000Y-48030000I6000J0D01*
G01*
X153825000Y-48030000D01*
G75*
G02*
X153831000Y-48036000I0J-6000D01*
G01*
G37*
G36*
G01*
X154331000Y-48036000D02*
X154331000Y-49574000D01*
G75*
G02*
X154325000Y-49580000I-6000J0D01*
G01*
X154037000Y-49580000D01*
G75*
G02*
X154031000Y-49574000I0J6000D01*
G01*
X154031000Y-48036000D01*
G75*
G02*
X154037000Y-48030000I6000J0D01*
G01*
X154325000Y-48030000D01*
G75*
G02*
X154331000Y-48036000I0J-6000D01*
G01*
G37*
G36*
G01*
X154831000Y-48036000D02*
X154831000Y-49574000D01*
G75*
G02*
X154825000Y-49580000I-6000J0D01*
G01*
X154537000Y-49580000D01*
G75*
G02*
X154531000Y-49574000I0J6000D01*
G01*
X154531000Y-48036000D01*
G75*
G02*
X154537000Y-48030000I6000J0D01*
G01*
X154825000Y-48030000D01*
G75*
G02*
X154831000Y-48036000I0J-6000D01*
G01*
G37*
G36*
G01*
X155331000Y-48036000D02*
X155331000Y-49574000D01*
G75*
G02*
X155325000Y-49580000I-6000J0D01*
G01*
X155037000Y-49580000D01*
G75*
G02*
X155031000Y-49574000I0J6000D01*
G01*
X155031000Y-48036000D01*
G75*
G02*
X155037000Y-48030000I6000J0D01*
G01*
X155325000Y-48030000D01*
G75*
G02*
X155331000Y-48036000I0J-6000D01*
G01*
G37*
G36*
G01*
X155831000Y-48036000D02*
X155831000Y-49574000D01*
G75*
G02*
X155825000Y-49580000I-6000J0D01*
G01*
X155537000Y-49580000D01*
G75*
G02*
X155531000Y-49574000I0J6000D01*
G01*
X155531000Y-48036000D01*
G75*
G02*
X155537000Y-48030000I6000J0D01*
G01*
X155825000Y-48030000D01*
G75*
G02*
X155831000Y-48036000I0J-6000D01*
G01*
G37*
G36*
G01*
X155581000Y-55586000D02*
X155581000Y-57124000D01*
G75*
G02*
X155575000Y-57130000I-6000J0D01*
G01*
X155287000Y-57130000D01*
G75*
G02*
X155281000Y-57124000I0J6000D01*
G01*
X155281000Y-55586000D01*
G75*
G02*
X155287000Y-55580000I6000J0D01*
G01*
X155575000Y-55580000D01*
G75*
G02*
X155581000Y-55586000I0J-6000D01*
G01*
G37*
G36*
G01*
X155081000Y-55586000D02*
X155081000Y-57124000D01*
G75*
G02*
X155075000Y-57130000I-6000J0D01*
G01*
X154787000Y-57130000D01*
G75*
G02*
X154781000Y-57124000I0J6000D01*
G01*
X154781000Y-55586000D01*
G75*
G02*
X154787000Y-55580000I6000J0D01*
G01*
X155075000Y-55580000D01*
G75*
G02*
X155081000Y-55586000I0J-6000D01*
G01*
G37*
G36*
G01*
X154581000Y-55586000D02*
X154581000Y-57124000D01*
G75*
G02*
X154575000Y-57130000I-6000J0D01*
G01*
X154287000Y-57130000D01*
G75*
G02*
X154281000Y-57124000I0J6000D01*
G01*
X154281000Y-55586000D01*
G75*
G02*
X154287000Y-55580000I6000J0D01*
G01*
X154575000Y-55580000D01*
G75*
G02*
X154581000Y-55586000I0J-6000D01*
G01*
G37*
G36*
G01*
X154081000Y-55586000D02*
X154081000Y-57124000D01*
G75*
G02*
X154075000Y-57130000I-6000J0D01*
G01*
X153787000Y-57130000D01*
G75*
G02*
X153781000Y-57124000I0J6000D01*
G01*
X153781000Y-55586000D01*
G75*
G02*
X153787000Y-55580000I6000J0D01*
G01*
X154075000Y-55580000D01*
G75*
G02*
X154081000Y-55586000I0J-6000D01*
G01*
G37*
G36*
G01*
X153581000Y-55586000D02*
X153581000Y-57124000D01*
G75*
G02*
X153575000Y-57130000I-6000J0D01*
G01*
X153287000Y-57130000D01*
G75*
G02*
X153281000Y-57124000I0J6000D01*
G01*
X153281000Y-55586000D01*
G75*
G02*
X153287000Y-55580000I6000J0D01*
G01*
X153575000Y-55580000D01*
G75*
G02*
X153581000Y-55586000I0J-6000D01*
G01*
G37*
G36*
G01*
X153081000Y-55586000D02*
X153081000Y-57124000D01*
G75*
G02*
X153075000Y-57130000I-6000J0D01*
G01*
X152787000Y-57130000D01*
G75*
G02*
X152781000Y-57124000I0J6000D01*
G01*
X152781000Y-55586000D01*
G75*
G02*
X152787000Y-55580000I6000J0D01*
G01*
X153075000Y-55580000D01*
G75*
G02*
X153081000Y-55586000I0J-6000D01*
G01*
G37*
D10*
X136431000Y-54080000D03*
D11*
X156431000Y-54080000D03*
%TD*%
%TO.C,J5*%
G36*
G01*
X162514999Y-60207000D02*
X163815001Y-60207000D01*
G75*
G02*
X164065000Y-60456999I0J-249999D01*
G01*
X164065000Y-61157001D01*
G75*
G02*
X163815001Y-61407000I-249999J0D01*
G01*
X162514999Y-61407000D01*
G75*
G02*
X162265000Y-61157001I0J249999D01*
G01*
X162265000Y-60456999D01*
G75*
G02*
X162514999Y-60207000I249999J0D01*
G01*
G37*
G36*
G01*
X162514999Y-50607000D02*
X163815001Y-50607000D01*
G75*
G02*
X164065000Y-50856999I0J-249999D01*
G01*
X164065000Y-51557001D01*
G75*
G02*
X163815001Y-51807000I-249999J0D01*
G01*
X162514999Y-51807000D01*
G75*
G02*
X162265000Y-51557001I0J249999D01*
G01*
X162265000Y-50856999D01*
G75*
G02*
X162514999Y-50607000I249999J0D01*
G01*
G37*
G36*
G01*
X158665000Y-59207000D02*
X159915000Y-59207000D01*
G75*
G02*
X160065000Y-59357000I0J-150000D01*
G01*
X160065000Y-59657000D01*
G75*
G02*
X159915000Y-59807000I-150000J0D01*
G01*
X158665000Y-59807000D01*
G75*
G02*
X158515000Y-59657000I0J150000D01*
G01*
X158515000Y-59357000D01*
G75*
G02*
X158665000Y-59207000I150000J0D01*
G01*
G37*
G36*
G01*
X158665000Y-58207000D02*
X159915000Y-58207000D01*
G75*
G02*
X160065000Y-58357000I0J-150000D01*
G01*
X160065000Y-58657000D01*
G75*
G02*
X159915000Y-58807000I-150000J0D01*
G01*
X158665000Y-58807000D01*
G75*
G02*
X158515000Y-58657000I0J150000D01*
G01*
X158515000Y-58357000D01*
G75*
G02*
X158665000Y-58207000I150000J0D01*
G01*
G37*
G36*
G01*
X158665000Y-57207000D02*
X159915000Y-57207000D01*
G75*
G02*
X160065000Y-57357000I0J-150000D01*
G01*
X160065000Y-57657000D01*
G75*
G02*
X159915000Y-57807000I-150000J0D01*
G01*
X158665000Y-57807000D01*
G75*
G02*
X158515000Y-57657000I0J150000D01*
G01*
X158515000Y-57357000D01*
G75*
G02*
X158665000Y-57207000I150000J0D01*
G01*
G37*
G36*
G01*
X158665000Y-56207000D02*
X159915000Y-56207000D01*
G75*
G02*
X160065000Y-56357000I0J-150000D01*
G01*
X160065000Y-56657000D01*
G75*
G02*
X159915000Y-56807000I-150000J0D01*
G01*
X158665000Y-56807000D01*
G75*
G02*
X158515000Y-56657000I0J150000D01*
G01*
X158515000Y-56357000D01*
G75*
G02*
X158665000Y-56207000I150000J0D01*
G01*
G37*
G36*
G01*
X158665000Y-55207000D02*
X159915000Y-55207000D01*
G75*
G02*
X160065000Y-55357000I0J-150000D01*
G01*
X160065000Y-55657000D01*
G75*
G02*
X159915000Y-55807000I-150000J0D01*
G01*
X158665000Y-55807000D01*
G75*
G02*
X158515000Y-55657000I0J150000D01*
G01*
X158515000Y-55357000D01*
G75*
G02*
X158665000Y-55207000I150000J0D01*
G01*
G37*
G36*
G01*
X158665000Y-54207000D02*
X159915000Y-54207000D01*
G75*
G02*
X160065000Y-54357000I0J-150000D01*
G01*
X160065000Y-54657000D01*
G75*
G02*
X159915000Y-54807000I-150000J0D01*
G01*
X158665000Y-54807000D01*
G75*
G02*
X158515000Y-54657000I0J150000D01*
G01*
X158515000Y-54357000D01*
G75*
G02*
X158665000Y-54207000I150000J0D01*
G01*
G37*
G36*
G01*
X158665000Y-53207000D02*
X159915000Y-53207000D01*
G75*
G02*
X160065000Y-53357000I0J-150000D01*
G01*
X160065000Y-53657000D01*
G75*
G02*
X159915000Y-53807000I-150000J0D01*
G01*
X158665000Y-53807000D01*
G75*
G02*
X158515000Y-53657000I0J150000D01*
G01*
X158515000Y-53357000D01*
G75*
G02*
X158665000Y-53207000I150000J0D01*
G01*
G37*
G36*
G01*
X158665000Y-52207000D02*
X159915000Y-52207000D01*
G75*
G02*
X160065000Y-52357000I0J-150000D01*
G01*
X160065000Y-52657000D01*
G75*
G02*
X159915000Y-52807000I-150000J0D01*
G01*
X158665000Y-52807000D01*
G75*
G02*
X158515000Y-52657000I0J150000D01*
G01*
X158515000Y-52357000D01*
G75*
G02*
X158665000Y-52207000I150000J0D01*
G01*
G37*
%TD*%
%TO.C,J7*%
G36*
G01*
X137038000Y-81479999D02*
X137038000Y-82680001D01*
G75*
G02*
X136788001Y-82930000I-249999J0D01*
G01*
X136087999Y-82930000D01*
G75*
G02*
X135838000Y-82680001I0J249999D01*
G01*
X135838000Y-81479999D01*
G75*
G02*
X136087999Y-81230000I249999J0D01*
G01*
X136788001Y-81230000D01*
G75*
G02*
X137038000Y-81479999I0J-249999D01*
G01*
G37*
G36*
G01*
X142038000Y-81479999D02*
X142038000Y-82680001D01*
G75*
G02*
X141788001Y-82930000I-249999J0D01*
G01*
X141087999Y-82930000D01*
G75*
G02*
X140838000Y-82680001I0J249999D01*
G01*
X140838000Y-81479999D01*
G75*
G02*
X141087999Y-81230000I249999J0D01*
G01*
X141788001Y-81230000D01*
G75*
G02*
X142038000Y-81479999I0J-249999D01*
G01*
G37*
G36*
G01*
X137988000Y-79755000D02*
X137988000Y-80505000D01*
G75*
G02*
X137863000Y-80630000I-125000J0D01*
G01*
X137613000Y-80630000D01*
G75*
G02*
X137488000Y-80505000I0J125000D01*
G01*
X137488000Y-79755000D01*
G75*
G02*
X137613000Y-79630000I125000J0D01*
G01*
X137863000Y-79630000D01*
G75*
G02*
X137988000Y-79755000I0J-125000D01*
G01*
G37*
G36*
G01*
X138788000Y-79755000D02*
X138788000Y-80505000D01*
G75*
G02*
X138663000Y-80630000I-125000J0D01*
G01*
X138413000Y-80630000D01*
G75*
G02*
X138288000Y-80505000I0J125000D01*
G01*
X138288000Y-79755000D01*
G75*
G02*
X138413000Y-79630000I125000J0D01*
G01*
X138663000Y-79630000D01*
G75*
G02*
X138788000Y-79755000I0J-125000D01*
G01*
G37*
G36*
G01*
X139588000Y-79755000D02*
X139588000Y-80505000D01*
G75*
G02*
X139463000Y-80630000I-125000J0D01*
G01*
X139213000Y-80630000D01*
G75*
G02*
X139088000Y-80505000I0J125000D01*
G01*
X139088000Y-79755000D01*
G75*
G02*
X139213000Y-79630000I125000J0D01*
G01*
X139463000Y-79630000D01*
G75*
G02*
X139588000Y-79755000I0J-125000D01*
G01*
G37*
G36*
G01*
X140388000Y-79755000D02*
X140388000Y-80505000D01*
G75*
G02*
X140263000Y-80630000I-125000J0D01*
G01*
X140013000Y-80630000D01*
G75*
G02*
X139888000Y-80505000I0J125000D01*
G01*
X139888000Y-79755000D01*
G75*
G02*
X140013000Y-79630000I125000J0D01*
G01*
X140263000Y-79630000D01*
G75*
G02*
X140388000Y-79755000I0J-125000D01*
G01*
G37*
%TD*%
%TO.C,J6*%
G36*
G01*
X125595999Y-59126000D02*
X126796001Y-59126000D01*
G75*
G02*
X127046000Y-59375999I0J-249999D01*
G01*
X127046000Y-60076001D01*
G75*
G02*
X126796001Y-60326000I-249999J0D01*
G01*
X125595999Y-60326000D01*
G75*
G02*
X125346000Y-60076001I0J249999D01*
G01*
X125346000Y-59375999D01*
G75*
G02*
X125595999Y-59126000I249999J0D01*
G01*
G37*
G36*
G01*
X125595999Y-50926000D02*
X126796001Y-50926000D01*
G75*
G02*
X127046000Y-51175999I0J-249999D01*
G01*
X127046000Y-51876001D01*
G75*
G02*
X126796001Y-52126000I-249999J0D01*
G01*
X125595999Y-52126000D01*
G75*
G02*
X125346000Y-51876001I0J249999D01*
G01*
X125346000Y-51175999D01*
G75*
G02*
X125595999Y-50926000I249999J0D01*
G01*
G37*
G36*
G01*
X127171000Y-58176000D02*
X128021000Y-58176000D01*
G75*
G02*
X128146000Y-58301000I0J-125000D01*
G01*
X128146000Y-58551000D01*
G75*
G02*
X128021000Y-58676000I-125000J0D01*
G01*
X127171000Y-58676000D01*
G75*
G02*
X127046000Y-58551000I0J125000D01*
G01*
X127046000Y-58301000D01*
G75*
G02*
X127171000Y-58176000I125000J0D01*
G01*
G37*
G36*
G01*
X127171000Y-57376000D02*
X128021000Y-57376000D01*
G75*
G02*
X128146000Y-57501000I0J-125000D01*
G01*
X128146000Y-57751000D01*
G75*
G02*
X128021000Y-57876000I-125000J0D01*
G01*
X127171000Y-57876000D01*
G75*
G02*
X127046000Y-57751000I0J125000D01*
G01*
X127046000Y-57501000D01*
G75*
G02*
X127171000Y-57376000I125000J0D01*
G01*
G37*
G36*
G01*
X127171000Y-56576000D02*
X128021000Y-56576000D01*
G75*
G02*
X128146000Y-56701000I0J-125000D01*
G01*
X128146000Y-56951000D01*
G75*
G02*
X128021000Y-57076000I-125000J0D01*
G01*
X127171000Y-57076000D01*
G75*
G02*
X127046000Y-56951000I0J125000D01*
G01*
X127046000Y-56701000D01*
G75*
G02*
X127171000Y-56576000I125000J0D01*
G01*
G37*
G36*
G01*
X127171000Y-55776000D02*
X128021000Y-55776000D01*
G75*
G02*
X128146000Y-55901000I0J-125000D01*
G01*
X128146000Y-56151000D01*
G75*
G02*
X128021000Y-56276000I-125000J0D01*
G01*
X127171000Y-56276000D01*
G75*
G02*
X127046000Y-56151000I0J125000D01*
G01*
X127046000Y-55901000D01*
G75*
G02*
X127171000Y-55776000I125000J0D01*
G01*
G37*
G36*
G01*
X127171000Y-54976000D02*
X128021000Y-54976000D01*
G75*
G02*
X128146000Y-55101000I0J-125000D01*
G01*
X128146000Y-55351000D01*
G75*
G02*
X128021000Y-55476000I-125000J0D01*
G01*
X127171000Y-55476000D01*
G75*
G02*
X127046000Y-55351000I0J125000D01*
G01*
X127046000Y-55101000D01*
G75*
G02*
X127171000Y-54976000I125000J0D01*
G01*
G37*
G36*
G01*
X127171000Y-54176000D02*
X128021000Y-54176000D01*
G75*
G02*
X128146000Y-54301000I0J-125000D01*
G01*
X128146000Y-54551000D01*
G75*
G02*
X128021000Y-54676000I-125000J0D01*
G01*
X127171000Y-54676000D01*
G75*
G02*
X127046000Y-54551000I0J125000D01*
G01*
X127046000Y-54301000D01*
G75*
G02*
X127171000Y-54176000I125000J0D01*
G01*
G37*
G36*
G01*
X127171000Y-53376000D02*
X128021000Y-53376000D01*
G75*
G02*
X128146000Y-53501000I0J-125000D01*
G01*
X128146000Y-53751000D01*
G75*
G02*
X128021000Y-53876000I-125000J0D01*
G01*
X127171000Y-53876000D01*
G75*
G02*
X127046000Y-53751000I0J125000D01*
G01*
X127046000Y-53501000D01*
G75*
G02*
X127171000Y-53376000I125000J0D01*
G01*
G37*
G36*
G01*
X127171000Y-52576000D02*
X128021000Y-52576000D01*
G75*
G02*
X128146000Y-52701000I0J-125000D01*
G01*
X128146000Y-52951000D01*
G75*
G02*
X128021000Y-53076000I-125000J0D01*
G01*
X127171000Y-53076000D01*
G75*
G02*
X127046000Y-52951000I0J125000D01*
G01*
X127046000Y-52701000D01*
G75*
G02*
X127171000Y-52576000I125000J0D01*
G01*
G37*
%TD*%
%TO.C,J9*%
G36*
G01*
X162632999Y-74925000D02*
X163833001Y-74925000D01*
G75*
G02*
X164083000Y-75174999I0J-249999D01*
G01*
X164083000Y-75875001D01*
G75*
G02*
X163833001Y-76125000I-249999J0D01*
G01*
X162632999Y-76125000D01*
G75*
G02*
X162383000Y-75875001I0J249999D01*
G01*
X162383000Y-75174999D01*
G75*
G02*
X162632999Y-74925000I249999J0D01*
G01*
G37*
G36*
G01*
X162632999Y-69925000D02*
X163833001Y-69925000D01*
G75*
G02*
X164083000Y-70174999I0J-249999D01*
G01*
X164083000Y-70875001D01*
G75*
G02*
X163833001Y-71125000I-249999J0D01*
G01*
X162632999Y-71125000D01*
G75*
G02*
X162383000Y-70875001I0J249999D01*
G01*
X162383000Y-70174999D01*
G75*
G02*
X162632999Y-69925000I249999J0D01*
G01*
G37*
G36*
G01*
X160908000Y-73975000D02*
X161658000Y-73975000D01*
G75*
G02*
X161783000Y-74100000I0J-125000D01*
G01*
X161783000Y-74350000D01*
G75*
G02*
X161658000Y-74475000I-125000J0D01*
G01*
X160908000Y-74475000D01*
G75*
G02*
X160783000Y-74350000I0J125000D01*
G01*
X160783000Y-74100000D01*
G75*
G02*
X160908000Y-73975000I125000J0D01*
G01*
G37*
G36*
G01*
X160908000Y-73175000D02*
X161658000Y-73175000D01*
G75*
G02*
X161783000Y-73300000I0J-125000D01*
G01*
X161783000Y-73550000D01*
G75*
G02*
X161658000Y-73675000I-125000J0D01*
G01*
X160908000Y-73675000D01*
G75*
G02*
X160783000Y-73550000I0J125000D01*
G01*
X160783000Y-73300000D01*
G75*
G02*
X160908000Y-73175000I125000J0D01*
G01*
G37*
G36*
G01*
X160908000Y-72375000D02*
X161658000Y-72375000D01*
G75*
G02*
X161783000Y-72500000I0J-125000D01*
G01*
X161783000Y-72750000D01*
G75*
G02*
X161658000Y-72875000I-125000J0D01*
G01*
X160908000Y-72875000D01*
G75*
G02*
X160783000Y-72750000I0J125000D01*
G01*
X160783000Y-72500000D01*
G75*
G02*
X160908000Y-72375000I125000J0D01*
G01*
G37*
G36*
G01*
X160908000Y-71575000D02*
X161658000Y-71575000D01*
G75*
G02*
X161783000Y-71700000I0J-125000D01*
G01*
X161783000Y-71950000D01*
G75*
G02*
X161658000Y-72075000I-125000J0D01*
G01*
X160908000Y-72075000D01*
G75*
G02*
X160783000Y-71950000I0J125000D01*
G01*
X160783000Y-71700000D01*
G75*
G02*
X160908000Y-71575000I125000J0D01*
G01*
G37*
%TD*%
%TO.C,J8*%
G36*
G01*
X162632999Y-67559000D02*
X163833001Y-67559000D01*
G75*
G02*
X164083000Y-67808999I0J-249999D01*
G01*
X164083000Y-68509001D01*
G75*
G02*
X163833001Y-68759000I-249999J0D01*
G01*
X162632999Y-68759000D01*
G75*
G02*
X162383000Y-68509001I0J249999D01*
G01*
X162383000Y-67808999D01*
G75*
G02*
X162632999Y-67559000I249999J0D01*
G01*
G37*
G36*
G01*
X162632999Y-62559000D02*
X163833001Y-62559000D01*
G75*
G02*
X164083000Y-62808999I0J-249999D01*
G01*
X164083000Y-63509001D01*
G75*
G02*
X163833001Y-63759000I-249999J0D01*
G01*
X162632999Y-63759000D01*
G75*
G02*
X162383000Y-63509001I0J249999D01*
G01*
X162383000Y-62808999D01*
G75*
G02*
X162632999Y-62559000I249999J0D01*
G01*
G37*
G36*
G01*
X160908000Y-66609000D02*
X161658000Y-66609000D01*
G75*
G02*
X161783000Y-66734000I0J-125000D01*
G01*
X161783000Y-66984000D01*
G75*
G02*
X161658000Y-67109000I-125000J0D01*
G01*
X160908000Y-67109000D01*
G75*
G02*
X160783000Y-66984000I0J125000D01*
G01*
X160783000Y-66734000D01*
G75*
G02*
X160908000Y-66609000I125000J0D01*
G01*
G37*
G36*
G01*
X160908000Y-65809000D02*
X161658000Y-65809000D01*
G75*
G02*
X161783000Y-65934000I0J-125000D01*
G01*
X161783000Y-66184000D01*
G75*
G02*
X161658000Y-66309000I-125000J0D01*
G01*
X160908000Y-66309000D01*
G75*
G02*
X160783000Y-66184000I0J125000D01*
G01*
X160783000Y-65934000D01*
G75*
G02*
X160908000Y-65809000I125000J0D01*
G01*
G37*
G36*
G01*
X160908000Y-65009000D02*
X161658000Y-65009000D01*
G75*
G02*
X161783000Y-65134000I0J-125000D01*
G01*
X161783000Y-65384000D01*
G75*
G02*
X161658000Y-65509000I-125000J0D01*
G01*
X160908000Y-65509000D01*
G75*
G02*
X160783000Y-65384000I0J125000D01*
G01*
X160783000Y-65134000D01*
G75*
G02*
X160908000Y-65009000I125000J0D01*
G01*
G37*
G36*
G01*
X160908000Y-64209000D02*
X161658000Y-64209000D01*
G75*
G02*
X161783000Y-64334000I0J-125000D01*
G01*
X161783000Y-64584000D01*
G75*
G02*
X161658000Y-64709000I-125000J0D01*
G01*
X160908000Y-64709000D01*
G75*
G02*
X160783000Y-64584000I0J125000D01*
G01*
X160783000Y-64334000D01*
G75*
G02*
X160908000Y-64209000I125000J0D01*
G01*
G37*
%TD*%
%TO.C,J4*%
G36*
G01*
X148087000Y-81479999D02*
X148087000Y-82680001D01*
G75*
G02*
X147837001Y-82930000I-249999J0D01*
G01*
X147136999Y-82930000D01*
G75*
G02*
X146887000Y-82680001I0J249999D01*
G01*
X146887000Y-81479999D01*
G75*
G02*
X147136999Y-81230000I249999J0D01*
G01*
X147837001Y-81230000D01*
G75*
G02*
X148087000Y-81479999I0J-249999D01*
G01*
G37*
G36*
G01*
X153087000Y-81479999D02*
X153087000Y-82680001D01*
G75*
G02*
X152837001Y-82930000I-249999J0D01*
G01*
X152136999Y-82930000D01*
G75*
G02*
X151887000Y-82680001I0J249999D01*
G01*
X151887000Y-81479999D01*
G75*
G02*
X152136999Y-81230000I249999J0D01*
G01*
X152837001Y-81230000D01*
G75*
G02*
X153087000Y-81479999I0J-249999D01*
G01*
G37*
G36*
G01*
X149037000Y-79755000D02*
X149037000Y-80505000D01*
G75*
G02*
X148912000Y-80630000I-125000J0D01*
G01*
X148662000Y-80630000D01*
G75*
G02*
X148537000Y-80505000I0J125000D01*
G01*
X148537000Y-79755000D01*
G75*
G02*
X148662000Y-79630000I125000J0D01*
G01*
X148912000Y-79630000D01*
G75*
G02*
X149037000Y-79755000I0J-125000D01*
G01*
G37*
G36*
G01*
X149837000Y-79755000D02*
X149837000Y-80505000D01*
G75*
G02*
X149712000Y-80630000I-125000J0D01*
G01*
X149462000Y-80630000D01*
G75*
G02*
X149337000Y-80505000I0J125000D01*
G01*
X149337000Y-79755000D01*
G75*
G02*
X149462000Y-79630000I125000J0D01*
G01*
X149712000Y-79630000D01*
G75*
G02*
X149837000Y-79755000I0J-125000D01*
G01*
G37*
G36*
G01*
X150637000Y-79755000D02*
X150637000Y-80505000D01*
G75*
G02*
X150512000Y-80630000I-125000J0D01*
G01*
X150262000Y-80630000D01*
G75*
G02*
X150137000Y-80505000I0J125000D01*
G01*
X150137000Y-79755000D01*
G75*
G02*
X150262000Y-79630000I125000J0D01*
G01*
X150512000Y-79630000D01*
G75*
G02*
X150637000Y-79755000I0J-125000D01*
G01*
G37*
G36*
G01*
X151437000Y-79755000D02*
X151437000Y-80505000D01*
G75*
G02*
X151312000Y-80630000I-125000J0D01*
G01*
X151062000Y-80630000D01*
G75*
G02*
X150937000Y-80505000I0J125000D01*
G01*
X150937000Y-79755000D01*
G75*
G02*
X151062000Y-79630000I125000J0D01*
G01*
X151312000Y-79630000D01*
G75*
G02*
X151437000Y-79755000I0J-125000D01*
G01*
G37*
%TD*%
D12*
%TO.C,TP8*%
X150368000Y-74041000D03*
D13*
G36*
X150756836Y-71419682D02*
G01*
X151011897Y-71470417D01*
X151260758Y-71545908D01*
X151501021Y-71645428D01*
X151730372Y-71768019D01*
X151946603Y-71912500D01*
X152147631Y-72077480D01*
X152331520Y-72261369D01*
X152496500Y-72462397D01*
X152640981Y-72678628D01*
X152763572Y-72907979D01*
X152863092Y-73148242D01*
X152938583Y-73397103D01*
X152989318Y-73652164D01*
X153014808Y-73910971D01*
X153014808Y-74171029D01*
X152989318Y-74429836D01*
X152938583Y-74684897D01*
X152863092Y-74933758D01*
X152763572Y-75174021D01*
X152640981Y-75403372D01*
X152496500Y-75619603D01*
X152331520Y-75820631D01*
X152147631Y-76004520D01*
X151946603Y-76169500D01*
X151730372Y-76313981D01*
X151501021Y-76436572D01*
X151260758Y-76536092D01*
X151011897Y-76611583D01*
X150756836Y-76662318D01*
X150498029Y-76687808D01*
X150237971Y-76687808D01*
X149979164Y-76662318D01*
X149724103Y-76611583D01*
X149475242Y-76536092D01*
X149234979Y-76436572D01*
X149005628Y-76313981D01*
X148789397Y-76169500D01*
X148588369Y-76004520D01*
X148404480Y-75820631D01*
X148239500Y-75619603D01*
X148095019Y-75403372D01*
X147972428Y-75174021D01*
X147872908Y-74933758D01*
X147797417Y-74684897D01*
X147746682Y-74429836D01*
X147721192Y-74171029D01*
X147721192Y-73967398D01*
X148869807Y-73967398D01*
X148869807Y-74114602D01*
X148884235Y-74261096D01*
X148912953Y-74405470D01*
X148955684Y-74546335D01*
X149012016Y-74682333D01*
X149081407Y-74812154D01*
X149163189Y-74934549D01*
X149256573Y-75048338D01*
X149360662Y-75152427D01*
X149474451Y-75245811D01*
X149596846Y-75327593D01*
X149726667Y-75396984D01*
X149862665Y-75453316D01*
X150003530Y-75496047D01*
X150147904Y-75524765D01*
X150294398Y-75539193D01*
X150441602Y-75539193D01*
X150588096Y-75524765D01*
X150732470Y-75496047D01*
X150873335Y-75453316D01*
X151009333Y-75396984D01*
X151139154Y-75327593D01*
X151261549Y-75245811D01*
X151375338Y-75152427D01*
X151479427Y-75048338D01*
X151572811Y-74934549D01*
X151654593Y-74812154D01*
X151723984Y-74682333D01*
X151780316Y-74546335D01*
X151823047Y-74405470D01*
X151851765Y-74261096D01*
X151866193Y-74114602D01*
X151866193Y-73967398D01*
X151851765Y-73820904D01*
X151823047Y-73676530D01*
X151780316Y-73535665D01*
X151723984Y-73399667D01*
X151654593Y-73269846D01*
X151572811Y-73147451D01*
X151479427Y-73033662D01*
X151375338Y-72929573D01*
X151261549Y-72836189D01*
X151139154Y-72754407D01*
X151009333Y-72685016D01*
X150873335Y-72628684D01*
X150732470Y-72585953D01*
X150588096Y-72557235D01*
X150441602Y-72542807D01*
X150294398Y-72542807D01*
X150147904Y-72557235D01*
X150003530Y-72585953D01*
X149862665Y-72628684D01*
X149726667Y-72685016D01*
X149596846Y-72754407D01*
X149474451Y-72836189D01*
X149360662Y-72929573D01*
X149256573Y-73033662D01*
X149163189Y-73147451D01*
X149081407Y-73269846D01*
X149012016Y-73399667D01*
X148955684Y-73535665D01*
X148912953Y-73676530D01*
X148884235Y-73820904D01*
X148869807Y-73967398D01*
X147721192Y-73967398D01*
X147721192Y-73910971D01*
X147746682Y-73652164D01*
X147797417Y-73397103D01*
X147872908Y-73148242D01*
X147972428Y-72907979D01*
X148095019Y-72678628D01*
X148239500Y-72462397D01*
X148404480Y-72261369D01*
X148588369Y-72077480D01*
X148789397Y-71912500D01*
X149005628Y-71768019D01*
X149234979Y-71645428D01*
X149475242Y-71545908D01*
X149724103Y-71470417D01*
X149979164Y-71419682D01*
X150237971Y-71394192D01*
X150498029Y-71394192D01*
X150756836Y-71419682D01*
G37*
%TD*%
D14*
%TO.C,TP7*%
X160020000Y-78740000D03*
%TD*%
%TO.C,TP6*%
X160020000Y-48260000D03*
%TD*%
%TO.C,TP5*%
X129540000Y-78740000D03*
%TD*%
%TO.C,TP4*%
X129540000Y-48260000D03*
%TD*%
D15*
%TO.C,SW1*%
X144653000Y-82528000D03*
X144653000Y-79778000D03*
%TD*%
%TO.C,R13*%
G36*
G01*
X147389000Y-71233000D02*
X147759000Y-71233000D01*
G75*
G02*
X147894000Y-71368000I0J-135000D01*
G01*
X147894000Y-71638000D01*
G75*
G02*
X147759000Y-71773000I-135000J0D01*
G01*
X147389000Y-71773000D01*
G75*
G02*
X147254000Y-71638000I0J135000D01*
G01*
X147254000Y-71368000D01*
G75*
G02*
X147389000Y-71233000I135000J0D01*
G01*
G37*
G36*
G01*
X147389000Y-70213000D02*
X147759000Y-70213000D01*
G75*
G02*
X147894000Y-70348000I0J-135000D01*
G01*
X147894000Y-70618000D01*
G75*
G02*
X147759000Y-70753000I-135000J0D01*
G01*
X147389000Y-70753000D01*
G75*
G02*
X147254000Y-70618000I0J135000D01*
G01*
X147254000Y-70348000D01*
G75*
G02*
X147389000Y-70213000I135000J0D01*
G01*
G37*
%TD*%
%TO.C,R7*%
G36*
G01*
X138797000Y-66479000D02*
X138797000Y-66109000D01*
G75*
G02*
X138932000Y-65974000I135000J0D01*
G01*
X139202000Y-65974000D01*
G75*
G02*
X139337000Y-66109000I0J-135000D01*
G01*
X139337000Y-66479000D01*
G75*
G02*
X139202000Y-66614000I-135000J0D01*
G01*
X138932000Y-66614000D01*
G75*
G02*
X138797000Y-66479000I0J135000D01*
G01*
G37*
G36*
G01*
X137777000Y-66479000D02*
X137777000Y-66109000D01*
G75*
G02*
X137912000Y-65974000I135000J0D01*
G01*
X138182000Y-65974000D01*
G75*
G02*
X138317000Y-66109000I0J-135000D01*
G01*
X138317000Y-66479000D01*
G75*
G02*
X138182000Y-66614000I-135000J0D01*
G01*
X137912000Y-66614000D01*
G75*
G02*
X137777000Y-66479000I0J135000D01*
G01*
G37*
%TD*%
%TO.C,R6*%
G36*
G01*
X136765000Y-66479000D02*
X136765000Y-66109000D01*
G75*
G02*
X136900000Y-65974000I135000J0D01*
G01*
X137170000Y-65974000D01*
G75*
G02*
X137305000Y-66109000I0J-135000D01*
G01*
X137305000Y-66479000D01*
G75*
G02*
X137170000Y-66614000I-135000J0D01*
G01*
X136900000Y-66614000D01*
G75*
G02*
X136765000Y-66479000I0J135000D01*
G01*
G37*
G36*
G01*
X135745000Y-66479000D02*
X135745000Y-66109000D01*
G75*
G02*
X135880000Y-65974000I135000J0D01*
G01*
X136150000Y-65974000D01*
G75*
G02*
X136285000Y-66109000I0J-135000D01*
G01*
X136285000Y-66479000D01*
G75*
G02*
X136150000Y-66614000I-135000J0D01*
G01*
X135880000Y-66614000D01*
G75*
G02*
X135745000Y-66479000I0J135000D01*
G01*
G37*
%TD*%
D16*
%TO.C,D5*%
X133731000Y-59308000D03*
X133731000Y-56008000D03*
%TD*%
%TO.C,C17*%
G36*
G01*
X146134000Y-71193000D02*
X146474000Y-71193000D01*
G75*
G02*
X146614000Y-71333000I0J-140000D01*
G01*
X146614000Y-71613000D01*
G75*
G02*
X146474000Y-71753000I-140000J0D01*
G01*
X146134000Y-71753000D01*
G75*
G02*
X145994000Y-71613000I0J140000D01*
G01*
X145994000Y-71333000D01*
G75*
G02*
X146134000Y-71193000I140000J0D01*
G01*
G37*
G36*
G01*
X146134000Y-70233000D02*
X146474000Y-70233000D01*
G75*
G02*
X146614000Y-70373000I0J-140000D01*
G01*
X146614000Y-70653000D01*
G75*
G02*
X146474000Y-70793000I-140000J0D01*
G01*
X146134000Y-70793000D01*
G75*
G02*
X145994000Y-70653000I0J140000D01*
G01*
X145994000Y-70373000D01*
G75*
G02*
X146134000Y-70233000I140000J0D01*
G01*
G37*
%TD*%
%TO.C,C9*%
G36*
G01*
X138376000Y-46525000D02*
X138376000Y-46185000D01*
G75*
G02*
X138516000Y-46045000I140000J0D01*
G01*
X138796000Y-46045000D01*
G75*
G02*
X138936000Y-46185000I0J-140000D01*
G01*
X138936000Y-46525000D01*
G75*
G02*
X138796000Y-46665000I-140000J0D01*
G01*
X138516000Y-46665000D01*
G75*
G02*
X138376000Y-46525000I0J140000D01*
G01*
G37*
G36*
G01*
X137416000Y-46525000D02*
X137416000Y-46185000D01*
G75*
G02*
X137556000Y-46045000I140000J0D01*
G01*
X137836000Y-46045000D01*
G75*
G02*
X137976000Y-46185000I0J-140000D01*
G01*
X137976000Y-46525000D01*
G75*
G02*
X137836000Y-46665000I-140000J0D01*
G01*
X137556000Y-46665000D01*
G75*
G02*
X137416000Y-46525000I0J140000D01*
G01*
G37*
%TD*%
D17*
%TO.C,J2*%
X132583000Y-65738000D03*
X132583000Y-66538000D03*
X132583000Y-71338000D03*
X132583000Y-72138000D03*
X132583000Y-72438000D03*
X132583000Y-71638000D03*
X132583000Y-70838000D03*
X132583000Y-70338000D03*
X132583000Y-69838000D03*
X132583000Y-69338000D03*
X132583000Y-68838000D03*
X132583000Y-68338000D03*
X132583000Y-67838000D03*
X132583000Y-67338000D03*
X132583000Y-66838000D03*
X132583000Y-66038000D03*
D18*
X131518000Y-71978000D03*
X131518000Y-66198000D03*
D19*
X127838000Y-64768000D03*
X127838000Y-73408000D03*
D20*
X132018000Y-64768000D03*
X132018000Y-73408000D03*
%TD*%
M02*
